<svg width="24" height="24" viewBox="0 0 24 24" fill="none" xmlns="http://www.w3.org/2000/svg">
<path fill-rule="evenodd" clip-rule="evenodd" d="M1.5 12C1.5 17.799 6.20101 22.5 12 22.5C17.799 22.5 22.5 17.799 22.5 12C22.5 6.20101 17.799 1.5 12 1.5C6.20101 1.5 1.5 6.20101 1.5 12ZM1.2779e-06 12C9.30272e-07 18.6274 5.37258 24 12 24C18.6274 24 24 18.6274 24 12C24 5.37258 18.6274 -1.95703e-07 12 -4.37114e-07C5.37259 -6.78525e-07 1.62554e-06 5.37258 1.2779e-06 12Z" fill="currentColor"/>
<path d="M11.5833 23.576C5.37903 23.3566 0.416667 18.2578 0.416667 12C0.416668 5.74218 5.37903 0.643381 11.5833 0.424021L11.5833 23.576Z" fill="currentColor" stroke="currentColor" stroke-width="0.833333"/>
</svg>
