<svg width="24" height="24" viewBox="0 0 24 24" fill="none" xmlns="http://www.w3.org/2000/svg">
<path fill-rule="evenodd" clip-rule="evenodd" d="M4.01343 10.23C4.01343 5.81914 7.58916 2.24341 12.0001 2.24341C16.4109 2.24341 19.9867 5.81914 19.9867 10.23C19.9867 11.1567 19.7073 12.1452 19.2957 13.1106C18.881 14.0832 18.3124 15.078 17.6884 16.0298C16.4406 17.9329 14.9335 19.7211 13.8783 20.8977C12.8671 22.0253 11.133 22.0253 10.1218 20.8977C9.06664 19.7211 7.55953 17.9329 6.31175 16.0298C5.68774 15.078 5.11909 14.0832 4.70444 13.1106C4.29283 12.1452 4.01343 11.1567 4.01343 10.23ZM8.35535 10.2301C8.35535 8.21724 9.98712 6.58547 12 6.58547C14.0129 6.58547 15.6446 8.21724 15.6446 10.2301C15.6446 12.243 14.0129 13.8748 12 13.8748C9.98712 13.8748 8.35535 12.243 8.35535 10.2301Z" fill="currentColor"/>
</svg>
