<svg width="24" height="24" viewBox="0 0 24 24" fill="none" xmlns="http://www.w3.org/2000/svg">
<path fill-rule="evenodd" clip-rule="evenodd" d="M15 1C16.6569 1 18 2.34315 18 4V7H21C22.6569 7 24 8.34315 24 10V21.5057C24 22.5305 22.8347 23.1198 22.0092 22.5125L19.0718 20.3514H9C7.34315 20.3514 6 19.0082 6 17.3514V14.3514H4.92823L1.99078 16.5125C1.16534 17.1198 0 16.5305 0 15.5057V4C0 2.34315 1.34315 1 3 1H15ZM8 14.3514V17.3514C8 17.9036 8.44772 18.3514 9 18.3514H19.7282L22 20.0228V10C22 9.44772 21.5523 9 21 9H18V11.3514C18 13.0082 16.6569 14.3514 15 14.3514H8ZM16 9V11.3514C16 11.9036 15.5523 12.3514 15 12.3514H8V10C8 9.44772 8.44772 9 9 9H16ZM16 7H9C7.34315 7 6 8.34315 6 10V12.3514H4.27176L2 14.0228V4C2 3.44772 2.44771 3 3 3H15C15.5523 3 16 3.44772 16 4V7Z" fill="currentColor"/>
</svg>
