<svg width="24" height="24" viewBox="0 0 24 24" fill="none" xmlns="http://www.w3.org/2000/svg">
<path fill-rule="evenodd" clip-rule="evenodd" d="M2.35001 5.5C2.35001 4.5335 3.13351 3.75 4.10001 3.75C5.0665 3.75 5.85001 4.5335 5.85001 5.5V7C5.85001 7.41421 6.18579 7.75 6.60001 7.75C7.01422 7.75 7.35001 7.41421 7.35001 7V5.5C7.35001 3.70507 5.89493 2.25 4.10001 2.25C2.30508 2.25 0.850006 3.70508 0.850006 5.5V18C0.850006 18.4142 1.18579 18.75 1.60001 18.75C1.87785 18.75 2.1204 18.5989 2.25 18.3744V19C2.25 20.5188 3.48122 21.75 5 21.75H8C9.51878 21.75 10.75 20.5188 10.75 19V18.75H13.25V19C13.25 20.5188 14.4812 21.75 16 21.75H19C20.5188 21.75 21.75 20.5188 21.75 19V18.3745C21.8796 18.599 22.1221 18.75 22.3999 18.75C22.8141 18.75 23.1499 18.4142 23.1499 18V5.5C23.1499 3.70508 21.6949 2.25 19.8999 2.25C18.105 2.25 16.6499 3.70507 16.6499 5.5V7C16.6499 7.41421 16.9857 7.75 17.3999 7.75C17.8141 7.75 18.1499 7.41421 18.1499 7V5.5C18.1499 4.5335 18.9334 3.75 19.8999 3.75C20.8664 3.75 21.6499 4.5335 21.6499 5.5V16.2623C21.3276 15.1018 20.2632 14.25 19 14.25H16C14.4812 14.25 13.25 15.4812 13.25 17V17.25H10.75V17C10.75 15.4812 9.51878 14.25 8 14.25H5C3.73667 14.25 2.67231 15.1019 2.35001 16.2625V5.5ZM3.75 17C3.75 16.3096 4.30964 15.75 5 15.75H8C8.69036 15.75 9.25 16.3096 9.25 17V19C9.25 19.6904 8.69036 20.25 8 20.25H5C4.30964 20.25 3.75 19.6904 3.75 19V17ZM16 15.75C15.3096 15.75 14.75 16.3096 14.75 17V19C14.75 19.6904 15.3096 20.25 16 20.25H19C19.6904 20.25 20.25 19.6904 20.25 19V17C20.25 16.3096 19.6904 15.75 19 15.75H16Z" fill="currentColor"/>
</svg>
