<svg width="24" height="24" viewBox="0 0 24 24" fill="none" xmlns="http://www.w3.org/2000/svg">
<path fill-rule="evenodd" clip-rule="evenodd" d="M20 22.5H4C3.72386 22.5 3.5 22.2761 3.5 22V2C3.5 1.72386 3.72386 1.5 4 1.5H14.7574C15.1552 1.5 15.5367 1.65804 15.818 1.93934L20.0607 6.18198C20.342 6.46328 20.5 6.84482 20.5 7.24264V22C20.5 22.2761 20.2761 22.5 20 22.5ZM21.1213 5.12132L16.8787 0.87868C16.3161 0.316071 15.553 0 14.7574 0H4C2.89543 0 2 0.89543 2 2V22C2 23.1046 2.89543 24 4 24H20C21.1046 24 22 23.1046 22 22V7.24264C22 6.44699 21.6839 5.68393 21.1213 5.12132ZM9.48014 8.07619C9.79835 7.81101 9.84134 7.33809 9.57617 7.01988C9.31099 6.70167 8.83807 6.65868 8.51986 6.92385L5.51986 9.42385C5.34887 9.56635 5.25 9.77743 5.25 10C5.25 10.2226 5.34887 10.4337 5.51986 10.5762L8.51986 13.0762C8.83807 13.3414 9.31099 13.2984 9.57617 12.9802C9.84134 12.6619 9.79835 12.189 9.48014 11.9239L7.17154 10L9.48014 8.07619ZM13.7155 6.28158C14.1123 6.40061 14.3374 6.81872 14.2184 7.21546L11.2184 17.2155C11.0994 17.6122 10.6812 17.8373 10.2845 17.7183C9.88776 17.5993 9.66262 17.1812 9.78164 16.7844L12.7816 6.78444C12.9007 6.3877 13.3188 6.16256 13.7155 6.28158ZM14.5199 12.0762C14.2017 11.811 14.1587 11.3381 14.4238 11.0199C14.689 10.7017 15.1619 10.6587 15.4801 10.9239L18.4801 13.4239C18.6511 13.5663 18.75 13.7774 18.75 14C18.75 14.2226 18.6511 14.4337 18.4801 14.5762L15.4801 17.0762C15.1619 17.3414 14.689 17.2984 14.4238 16.9802C14.1587 16.6619 14.2017 16.189 14.5199 15.9239L16.8285 14L14.5199 12.0762Z" fill="currentColor"/>
</svg>
