<svg width="24" height="24" viewBox="0 0 24 24" fill="none" xmlns="http://www.w3.org/2000/svg">
<path fill-rule="evenodd" clip-rule="evenodd" d="M2.75 4C2.75 3.30964 3.30964 2.75 4 2.75H15C15.4142 2.75 15.75 2.41421 15.75 2C15.75 1.58579 15.4142 1.25 15 1.25H4C2.48122 1.25 1.25 2.48122 1.25 4V20C1.25 21.5188 2.48122 22.75 4 22.75H20C21.5188 22.75 22.75 21.5188 22.75 20V9.47619C22.75 9.06198 22.4142 8.72619 22 8.72619C21.5858 8.72619 21.25 9.06198 21.25 9.47619V20C21.25 20.6904 20.6904 21.25 20 21.25H4C3.30964 21.25 2.75 20.6904 2.75 20V4ZM20.624 3.41603C20.8538 3.07138 20.7607 2.60573 20.416 2.37596C20.0714 2.1462 19.6057 2.23933 19.376 2.58397L11.9449 13.7306L8.58565 9.53148C8.32689 9.20803 7.85493 9.15559 7.53148 9.41435C7.20803 9.67311 7.15559 10.1451 7.41435 10.4685L11.4143 15.4685C11.5638 15.6554 11.7935 15.7597 12.0325 15.7493C12.2716 15.7389 12.4913 15.6151 12.624 15.416L20.624 3.41603Z" fill="currentColor"/>
</svg>
