<svg width="24" height="24" viewBox="0 0 24 24" fill="none" xmlns="http://www.w3.org/2000/svg">
<path fill-rule="evenodd" clip-rule="evenodd" d="M12 0.25C7.71979 0.25 4.25 3.71979 4.25 8V16C4.25 20.2802 7.71979 23.75 12 23.75C16.2802 23.75 19.75 20.2802 19.75 16V8C19.75 3.71979 16.2802 0.25 12 0.25ZM5.75 8C5.75 4.54822 8.54822 1.75 12 1.75C15.4518 1.75 18.25 4.54822 18.25 8V16C18.25 19.4518 15.4518 22.25 12 22.25C8.54822 22.25 5.75 19.4518 5.75 16V8ZM12 8C12.8284 8 13.5 7.32843 13.5 6.5C13.5 5.67157 12.8284 5 12 5C11.1716 5 10.5 5.67157 10.5 6.5C10.5 7.32843 11.1716 8 12 8Z" fill="currentColor"/>
</svg>
