<svg width="24" height="24" viewBox="0 0 24 24" fill="none" xmlns="http://www.w3.org/2000/svg">
<path d="M22.4668 21.1668C22.4668 21.7191 22.0191 22.1668 21.4668 22.1668H14.999C14.4467 22.1668 13.999 21.7191 13.999 21.1668V15.4668C13.999 12.7334 14.2308 10.589 14.6944 9.03341C15.1802 7.47784 16.0633 6.07783 17.3439 4.83338C18.4401 3.78616 19.7708 2.92778 21.336 2.25824C21.8356 2.04452 22.4023 2.3047 22.5988 2.81132L23.0044 3.85684C23.2107 4.38869 22.9277 4.9807 22.4128 5.22638C21.0236 5.88934 19.9351 6.85778 19.2668 7.76673C18.6163 8.67613 18.0613 10.2331 17.857 11.7796C17.7834 12.3365 18.2382 12.8001 18.7998 12.8001H21.4668C22.0191 12.8001 22.4668 13.2478 22.4668 13.8001V21.1668Z" fill="currentColor"/>
<path d="M9.06783 21.1668C9.06783 21.7191 8.62012 22.1668 8.06783 22.1668H1.59998C1.04769 22.1668 0.599976 21.7191 0.599976 21.1668V15.4668C0.599976 12.7334 0.831801 10.589 1.29545 9.03341C1.78118 7.47784 2.66433 6.07783 3.94489 4.83338C5.04107 3.78616 6.37177 2.92778 7.93699 2.25824C8.43661 2.04452 9.00333 2.3047 9.19984 2.81132L9.60539 3.85684C9.81169 4.38869 9.5287 4.9807 9.01385 5.22638C7.62458 5.88934 6.53608 6.85778 5.8678 7.76673C5.21727 8.67613 4.66228 10.2331 4.45799 11.7796C4.38444 12.3365 4.83917 12.8001 5.40083 12.8001H8.06783C8.62012 12.8001 9.06783 13.2478 9.06783 13.8001V21.1668Z" fill="currentColor"/>
</svg>
