<svg width="24" height="24" viewBox="0 0 24 24" fill="none" xmlns="http://www.w3.org/2000/svg">
<path fill-rule="evenodd" clip-rule="evenodd" d="M12 2C6.47715 2 2 6.47715 2 12C2 17.5228 6.47715 22 12 22C17.5228 22 22 17.5228 22 12C22 11.4477 22.4477 11 23 11C23.5523 11 24 11.4477 24 12C24 18.6274 18.6274 24 12 24C5.37258 24 0 18.6274 0 12C0 5.37258 5.37258 0 12 0C12.5523 0 13 0.447715 13 1C13 1.55228 12.5523 2 12 2ZM12 4C12.5523 4 13 4.44772 13 5V11.0801C13 11.3721 13.1276 11.6494 13.3492 11.8394L16.1508 14.2407C16.5701 14.6002 16.6187 15.2315 16.2593 15.6508C15.8998 16.0701 15.2685 16.1187 14.8492 15.7593L12.0476 13.3579C11.3827 12.788 11 11.9559 11 11.0801V5C11 4.44772 11.4477 4 12 4ZM19.75 5.25C20.3023 5.25 20.75 4.80228 20.75 4.25C20.75 3.69772 20.3023 3.25 19.75 3.25C19.1977 3.25 18.75 3.69772 18.75 4.25C18.75 4.80228 19.1977 5.25 19.75 5.25ZM17.5 2C17.5 2.55228 17.0523 3 16.5 3C15.9477 3 15.5 2.55228 15.5 2C15.5 1.44772 15.9477 1 16.5 1C17.0523 1 17.5 1.44772 17.5 2ZM22 8.5C22.5523 8.5 23 8.05229 23 7.5C23 6.94772 22.5523 6.5 22 6.5C21.4477 6.5 21 6.94772 21 7.5C21 8.05229 21.4477 8.5 22 8.5Z" fill="currentColor"/>
</svg>
