<svg width="24" height="24" viewBox="0 0 24 24" fill="none" xmlns="http://www.w3.org/2000/svg">
<path d="M19.7025 20.0002H12V14.1156C12 13.9909 12.1428 13.92 12.2422 13.9954L19.7938 19.729C19.909 19.8165 19.8471 20.0002 19.7025 20.0002Z" stroke="currentColor" stroke-width="1.5" stroke-linecap="round"/>
<path d="M4 10.1885V13.9621C4 17.2966 6.70319 19.9998 10.0377 19.9998H12" stroke="currentColor" stroke-width="1.5" stroke-linecap="round"/>
<path d="M4.29747 3.9998L12 3.9998L12 9.88435C12 10.0091 11.8572 10.08 11.7578 10.0046L4.2062 4.27096C4.09102 4.18351 4.15287 3.9998 4.29747 3.9998Z" stroke="currentColor" stroke-width="1.5" stroke-linecap="round"/>
<path d="M20 13.8115L20 10.0379C20 6.70339 17.2968 4.0002 13.9623 4.0002L12 4.0002" stroke="currentColor" stroke-width="1.5" stroke-linecap="round"/>
</svg>
