<svg width="24" height="24" viewBox="0 0 24 24" fill="none" xmlns="http://www.w3.org/2000/svg">
<path fill-rule="evenodd" clip-rule="evenodd" d="M22.3939 2.24805H1.68177H22.3939ZM1.68177 2.24805L1.68055 2.24805L1.68177 2.24805ZM22.3939 2.24805C22.6537 2.24792 22.904 2.32367 23.1188 2.46046C23.3329 2.59689 23.5018 2.78725 23.6159 3.00505C23.7297 3.22241 23.7879 3.46429 23.7888 3.70656C23.7898 3.94884 23.7337 4.1907 23.6217 4.40889L23.618 4.41617L21.547 8.34759C21.4173 8.59388 21.1618 8.74805 20.8834 8.74805H3.19527C2.9169 8.74805 2.66144 8.59388 2.5317 8.34759L0.458356 4.41162C0.345453 4.19369 0.288521 3.95179 0.28885 3.70936C0.289179 3.46693 0.346784 3.22517 0.460324 3.00753C0.573994 2.78964 0.742361 2.59905 0.95604 2.46221C1.17052 2.32486 1.4206 2.24847 1.68055 2.24805M22.2745 3.74805H1.8042L3.64789 7.24805H20.4308L22.2745 3.74805ZM22.395 3.74805C22.3947 3.74805 22.3953 3.74805 22.395 3.74805V3.74805Z" fill="currentColor"/>
<path fill-rule="evenodd" clip-rule="evenodd" d="M3.56487 10.248H20.5111C20.511 10.248 20.5112 10.248 20.5111 10.248C20.7467 10.2479 20.9747 10.3151 21.1711 10.4374C21.3671 10.5595 21.5228 10.7307 21.6285 10.9279C21.7338 11.1246 21.788 11.3441 21.7888 11.5642C21.7897 11.7844 21.7375 12.0038 21.6339 12.2013L21.6301 12.2086L19.9356 15.3538C19.8048 15.5966 19.5512 15.748 19.2753 15.748H4.80319C4.52734 15.748 4.27375 15.5966 4.14292 15.3538L2.44603 12.204C2.34149 12.0067 2.28854 11.7872 2.28885 11.5669C2.28916 11.3465 2.34273 11.1271 2.44786 10.9301C2.55312 10.7328 2.70839 10.5615 2.90399 10.439C3.10017 10.3161 3.32785 10.2484 3.56368 10.248L3.56487 10.248ZM20.1743 11.748L18.8275 14.248H5.25105L3.9042 11.748H20.1743ZM20.5122 11.748C20.5119 11.748 20.5125 11.748 20.5122 11.748V11.748Z" fill="currentColor"/>
<path fill-rule="evenodd" clip-rule="evenodd" d="M5.44683 17.248L5.44798 17.248L18.6283 17.248C18.6282 17.248 18.6284 17.248 18.6283 17.248C18.8378 17.248 19.0419 17.3055 19.2194 17.4121C19.3969 17.5187 19.5404 17.6697 19.6389 17.8468C19.7369 18.0234 19.788 18.2218 19.7888 18.4218C19.7897 18.6218 19.7404 18.8202 19.6439 18.9976L19.6399 19.005L18.322 21.3638C18.1894 21.6011 17.939 21.748 17.6672 21.748H6.41112C6.13938 21.748 5.88891 21.6011 5.75637 21.3638L4.43591 19.0004C4.33852 18.8231 4.28856 18.6246 4.28885 18.4244C4.28914 18.2241 4.33968 18.0258 4.4376 17.8488C4.53563 17.6716 4.67876 17.5204 4.85587 17.4135C5.03327 17.3063 5.23716 17.2484 5.44683 17.248ZM18.0652 18.748H6.01317L6.85121 20.248H17.2271L18.0652 18.748Z" fill="currentColor"/>
</svg>
