<svg width="24" height="24" viewBox="0 0 24 24" fill="none" xmlns="http://www.w3.org/2000/svg">
<path fill-rule="evenodd" clip-rule="evenodd" d="M17.0359 2.1066C17.3709 1.86298 17.445 1.39391 17.2013 1.05892C16.9577 0.723935 16.4886 0.649872 16.1537 0.893501C13.6789 2.6933 12.3979 5.3426 11.754 7.88226C11.2082 10.035 11.1072 12.1566 11.1432 13.7273H6.73206H5.91212H4.65568C4.24146 13.7273 3.90568 14.0631 3.90568 14.4773C3.90568 14.8916 4.24146 15.2273 4.65568 15.2273H6.04604L6.465 19.9196C6.59515 21.3774 7.81662 22.4947 9.28017 22.4947H14.5658C16.0294 22.4947 17.2508 21.3774 17.381 19.9196L17.7999 15.2273H19.1903C19.6045 15.2273 19.9403 14.8916 19.9403 14.4773C19.9403 14.0631 19.6045 13.7273 19.1903 13.7273H17.9339H17.1139H12.6436C12.6075 12.2443 12.701 10.2507 13.208 8.25091C13.8012 5.91109 14.9426 3.62901 17.0359 2.1066ZM11.9129 15.2273H11.9318H16.294L15.8869 19.7862C15.8259 20.4703 15.2526 20.9947 14.5658 20.9947H9.28017C8.59335 20.9947 8.02013 20.4703 7.95905 19.7862L7.55201 15.2273H11.9129ZM10.4336 8.82808L10.0434 8.18755L10.784 8.06874C10.8322 8.36952 10.6938 8.66961 10.4336 8.82808ZM1.54297 4.26526C1.33985 3.54329 1.33999 3.54325 1.34015 3.54321L1.34053 3.5431L1.34157 3.54281L1.34473 3.54193L1.35534 3.53899L1.39319 3.5287C1.42564 3.51997 1.47231 3.50763 1.53175 3.49245C1.65057 3.46211 1.82074 3.42036 2.03057 3.37348C2.44924 3.27993 3.03066 3.16488 3.68005 3.07978C4.32721 2.99497 5.05673 2.93789 5.76785 2.96607C6.47061 2.99392 7.20624 3.10662 7.83527 3.39686C9.1036 3.9821 9.82908 5.23084 10.2292 6.1928C10.4363 6.6906 10.5736 7.15363 10.6593 7.49166C10.7023 7.66139 10.7328 7.80146 10.7528 7.90095C10.7628 7.95075 10.7703 7.99051 10.7754 8.0189L10.7813 8.05281L10.7831 8.06309L10.7836 8.0665L10.7838 8.06777L10.7839 8.06829C10.7839 8.06852 10.784 8.06874 10.0434 8.18755C10.4336 8.82808 10.4334 8.8282 10.4332 8.82832L10.4328 8.82859L10.4317 8.82926L10.4287 8.83105L10.4198 8.8364L10.3901 8.85389C10.3652 8.86843 10.3301 8.88858 10.2857 8.91326C10.197 8.96257 10.0707 9.03027 9.9136 9.10768C9.6008 9.26183 9.15942 9.45786 8.6463 9.62335C7.65473 9.94315 6.23384 10.2015 4.96551 9.61628C4.33648 9.32604 3.77336 8.83946 3.29613 8.32284C2.81322 7.80008 2.38325 7.20798 2.02781 6.66055C1.67115 6.11124 1.38139 5.59421 1.18087 5.21496C1.08038 5.02489 1.00172 4.86832 0.947696 4.75823C0.920673 4.70316 0.899778 4.65964 0.885361 4.62928L0.868627 4.5938L0.863978 4.58383L0.862597 4.58085L0.862144 4.57987L0.861977 4.57951C0.86191 4.57937 0.86185 4.57923 1.54297 4.26526ZM1.54297 4.26526L1.33985 3.54329C1.12857 3.60273 0.953927 3.75174 0.861969 3.95104C0.770011 4.15033 0.769967 4.37991 0.86185 4.57923L1.54297 4.26526ZM2.64785 4.77507C2.81878 5.08581 3.03489 5.45713 3.28589 5.84371C3.61314 6.34773 3.9916 6.86512 4.39796 7.30502C4.81 7.75106 5.21698 8.08033 5.59396 8.25428C6.33763 8.59742 7.2986 8.48192 8.18588 8.19576C8.57968 8.06875 8.9274 7.9183 9.18783 7.79275C9.11435 7.51313 9.00318 7.15094 8.84426 6.7689C8.48621 5.90811 7.95048 5.10201 7.20681 4.75886C6.82983 4.58492 6.31521 4.48894 5.70845 4.4649C5.11005 4.44118 4.4708 4.48898 3.87496 4.56706C3.41795 4.62695 2.99519 4.70348 2.64785 4.77507ZM9.65423 7.54645C9.65438 7.54636 9.65436 7.54637 9.65419 7.54648L9.65423 7.54645ZM15.9067 6.75421L15.4112 6.19118C15.1825 6.39243 15.0982 6.71201 15.198 6.99983L15.9067 6.75421ZM22.9682 8.61561C23.5844 8.18811 23.5843 8.18799 23.5842 8.18786L23.584 8.18756L23.5835 8.18678L23.5819 8.18449L23.5767 8.17708L23.5585 8.15129C23.5429 8.12939 23.5205 8.09822 23.4919 8.05898C23.4346 7.98054 23.352 7.86958 23.2479 7.73573C23.0403 7.46881 22.7444 7.10692 22.3918 6.72874C22.0407 6.35219 21.6232 5.9485 21.1715 5.60482C20.7265 5.26622 20.2081 4.95467 19.656 4.80915C18.5409 4.51522 17.4373 4.93046 16.7083 5.31611C16.3277 5.51745 16.0083 5.73253 15.7842 5.89672C15.6716 5.97926 15.5816 6.05007 15.5182 6.10149C15.4865 6.12722 15.4614 6.14819 15.4434 6.16343L15.4218 6.18192L15.4151 6.18775L15.4128 6.18977L15.4119 6.19055L15.4115 6.19088C15.4113 6.19103 15.4112 6.19118 15.9067 6.75421C15.198 6.99983 15.1981 7.00004 15.1982 7.00026L15.1983 7.00073L15.1987 7.00185L15.1997 7.00475L15.2027 7.01313L15.2124 7.03988C15.2205 7.06201 15.2321 7.09263 15.2469 7.13065C15.2767 7.20659 15.3201 7.3126 15.3774 7.43992C15.4914 7.69322 15.6633 8.03779 15.8952 8.40059C16.3394 9.09551 17.0949 10.0008 18.21 10.2948C18.7621 10.4403 19.3667 10.4248 19.9208 10.3495C20.4832 10.2732 21.0455 10.1277 21.5366 9.9732C22.0298 9.81798 22.4656 9.64896 22.7778 9.51904C22.9343 9.45388 23.0609 9.39808 23.1494 9.35807C23.1937 9.33805 23.2285 9.32195 23.2529 9.31057L23.2814 9.29712L23.2896 9.29323L23.2921 9.29203L23.293 9.29161L23.2933 9.29145C23.2935 9.29139 23.2936 9.29133 22.9682 8.61561ZM22.9682 8.61561L23.5844 8.18811C23.7095 8.36844 23.7493 8.59454 23.6934 8.80678C23.6374 9.01901 23.4913 9.19609 23.2936 9.29133L22.9682 8.61561ZM21.2947 7.75168C21.4733 7.94321 21.6365 8.13111 21.7787 8.30206C21.5707 8.38072 21.3361 8.46376 21.0863 8.54237C20.6446 8.68138 20.1696 8.80198 19.719 8.86316C19.2601 8.92548 18.876 8.91907 18.5924 8.8443C18.036 8.69765 17.5443 8.1953 17.1591 7.5927C17.0234 7.38046 16.9122 7.17335 16.826 6.99655C16.9881 6.8852 17.187 6.75982 17.4097 6.64203C18.0418 6.30762 18.7173 6.11295 19.2737 6.2596C19.5573 6.33437 19.8947 6.51813 20.2632 6.79855C20.6251 7.07392 20.9789 7.41299 21.2947 7.75168Z" fill="currentColor"/>
</svg>
