<svg width="24" height="24" viewBox="0 0 24 24" fill="none" xmlns="http://www.w3.org/2000/svg">
<path fill-rule="evenodd" clip-rule="evenodd" d="M16.1174 16.434C15.8214 16.7628 15.8481 17.2694 16.1769 17.5653C16.5058 17.8613 17.0123 17.8346 17.3082 17.5058L21.7821 12.5348C21.9172 12.3914 22 12.1982 22 11.9856C22 11.7782 21.9212 11.5892 21.7919 11.4469L17.3082 6.46514C17.0123 6.13629 16.5058 6.10963 16.1769 6.4056C15.8481 6.70156 15.8214 7.20807 16.1174 7.53691L19.4002 11.1845L6.24565 11.1845C5.80323 11.1845 5.44458 11.5432 5.44458 11.9856C5.44458 12.428 5.80323 12.7867 6.24565 12.7867L19.4 12.7867L16.1174 16.434Z" fill="currentColor"/>
<path d="M2 18.6998L2 5.22314" stroke="black" stroke-width="1.5" stroke-linecap="round"/>
</svg>
