<svg width="752" height="976" viewBox="0 0 752 976" fill="none" xmlns="http://www.w3.org/2000/svg">
<path d="M64.8 719.2L380.8 880L684.8 719.2V90.4H64.8V719.2Z" fill="white"/>
<path d="M691.2 92.8L58.4 730.4L386.4 892.8L691.2 736.8V92.8Z" fill="#F2F3F2"/>
<path d="M44 300V732.8L55.2 738.4L371.2 899.2L380.8 904L390.4 899.2L695.2 738.4L706.4 732.8V69.6H44V300ZM64.8 720.8V90.4H685.6V720.8L380.8 881.6L64.8 720.8Z" fill="#DCDEDC"/>
<path d="M375.2 100.8C378.4 100.8 381.6 100.8 384.8 101.6L375.2 120C360.8 119.2 348 130.4 347.2 144.8C346.4 159.2 357.6 172 372 172.8H375.2C381.6 172.8 388 170.4 392.8 166.4L403.2 184C395.2 189.6 385.6 192.8 375.2 192.8C349.6 193.6 328 174.4 327.2 148.8C326.4 123.2 345.6 101.6 371.2 100.8H375.2ZM408 140L420 160L408 179.2L396.8 160H373.6L385.6 140H408ZM388.8 132.8C388.8 129.6 389.6 126.4 391.2 124C392.8 121.6 396 119.2 398.4 117.6L400 116.8C403.2 115.2 404 114.4 404 112.8C404 111.2 401.6 109.6 400 109.6C396.8 109.6 394.4 111.2 392.8 114.4L388.8 110.4C389.6 108.8 391.2 107.2 392.8 105.6C395.2 104 397.6 104 400 104C402.4 104 405.6 104.8 407.2 106.4C408.8 108 410.4 110.4 410.4 112.8C410.4 116.8 408 120 403.2 121.6L400.8 123.2C398.4 124.8 396.8 125.6 396 128H410.4V133.6L388.8 132.8ZM375.2 232.8L451.2 189.6V69.6H298.4V188.8L375.2 232.8Z" fill="#FF492C"/>
<path d="M721.6 516H28.7999L3.19995 572L28.7999 628H721.6L746.4 572L721.6 516Z" fill="#23CCA2"/>
<path d="M193.76 480.96C187.36 480.96 181.787 479.947 177.04 477.92C172.187 475.84 168.48 472.907 165.92 469.12C163.307 465.333 162 460.933 162 455.92V453.28C162 452.853 162.133 452.507 162.4 452.24C162.72 451.973 163.067 451.84 163.44 451.84H177.12C177.493 451.84 177.84 451.973 178.16 452.24C178.427 452.507 178.56 452.853 178.56 453.28V455.04C178.56 458.24 180.053 460.933 183.04 463.12C185.973 465.36 189.973 466.48 195.04 466.48C199.253 466.48 202.4 465.573 204.48 463.76C206.56 461.947 207.6 459.733 207.6 457.12C207.6 455.147 206.96 453.52 205.68 452.24C204.4 450.907 202.667 449.733 200.48 448.72C198.24 447.76 194.747 446.4 190 444.64C184.613 442.773 180.053 440.88 176.32 438.96C172.64 437.04 169.52 434.427 166.96 431.12C164.453 427.813 163.2 423.707 163.2 418.8C163.2 414 164.453 409.813 166.96 406.24C169.413 402.613 172.827 399.84 177.2 397.92C181.627 396 186.72 395.04 192.48 395.04C198.56 395.04 203.973 396.133 208.72 398.32C213.467 400.453 217.2 403.467 219.92 407.36C222.587 411.2 223.92 415.707 223.92 420.88V422.64C223.92 423.067 223.787 423.413 223.52 423.68C223.2 423.947 222.853 424.08 222.48 424.08H208.72C208.293 424.08 207.947 423.947 207.68 423.68C207.36 423.413 207.2 423.067 207.2 422.64V421.68C207.2 418.32 205.84 415.467 203.12 413.12C200.347 410.773 196.56 409.6 191.76 409.6C187.973 409.6 185.04 410.4 182.96 412C180.827 413.547 179.76 415.733 179.76 418.56C179.76 420.587 180.373 422.267 181.6 423.6C182.88 424.987 184.72 426.213 187.12 427.28C189.573 428.347 193.36 429.813 198.48 431.68C204.187 433.76 208.64 435.6 211.84 437.2C215.093 438.8 218.027 441.173 220.64 444.32C223.253 447.467 224.56 451.573 224.56 456.64C224.56 464.16 221.787 470.08 216.24 474.4C210.747 478.773 203.253 480.96 193.76 480.96ZM271.28 419.76C271.28 419.387 271.44 419.04 271.76 418.72C272.027 418.453 272.347 418.32 272.72 418.32H286.8C287.173 418.32 287.52 418.453 287.84 418.72C288.107 419.04 288.24 419.387 288.24 419.76V478.56C288.24 478.987 288.107 479.333 287.84 479.6C287.52 479.867 287.173 480 286.8 480H272.72C272.347 480 272.027 479.867 271.76 479.6C271.44 479.333 271.28 478.987 271.28 478.56V474.48C271.28 474.267 271.2 474.133 271.04 474.08C270.88 474.027 270.72 474.133 270.56 474.4C267.36 478.667 262.4 480.8 255.68 480.8C249.6 480.8 244.613 478.987 240.72 475.36C236.773 471.68 234.8 466.507 234.8 459.84V419.76C234.8 419.387 234.96 419.04 235.28 418.72C235.547 418.453 235.867 418.32 236.24 418.32H250.16C250.587 418.32 250.933 418.453 251.2 418.72C251.467 419.04 251.6 419.387 251.6 419.76V455.68C251.6 458.88 252.48 461.467 254.24 463.44C255.947 465.467 258.32 466.48 261.36 466.48C264.08 466.48 266.32 465.653 268.08 464C269.84 462.347 270.907 460.213 271.28 457.6V419.76ZM355.76 434.88C357.2 438.933 357.92 443.733 357.92 449.28C357.92 454.827 357.173 459.84 355.68 464.32C353.813 469.44 350.907 473.493 346.96 476.48C343.013 479.467 338.107 480.96 332.24 480.96C326.48 480.96 322 478.96 318.8 474.96C318.64 474.747 318.48 474.667 318.32 474.72C318.16 474.773 318.08 474.933 318.08 475.2V500.88C318.08 501.307 317.947 501.653 317.68 501.92C317.413 502.187 317.067 502.32 316.64 502.32H302.64C302.213 502.32 301.867 502.187 301.6 501.92C301.333 501.653 301.2 501.307 301.2 500.88V419.76C301.2 419.387 301.333 419.04 301.6 418.72C301.867 418.453 302.213 418.32 302.64 418.32H316.64C317.067 418.32 317.413 418.453 317.68 418.72C317.947 419.04 318.08 419.387 318.08 419.76V423.68C318.08 423.947 318.16 424.107 318.32 424.16C318.48 424.213 318.64 424.16 318.8 424C322.16 419.573 326.8 417.36 332.72 417.36C338.267 417.36 343.067 418.907 347.12 422C351.12 425.093 354 429.387 355.76 434.88ZM337.44 461.76C339.413 458.667 340.4 454.427 340.4 449.04C340.4 444.027 339.573 440.027 337.92 437.04C336.053 433.627 333.093 431.92 329.04 431.92C325.36 431.92 322.587 433.627 320.72 437.04C319.067 439.92 318.24 443.973 318.24 449.2C318.24 454.533 319.12 458.693 320.88 461.68C322.693 464.88 325.413 466.48 329.04 466.48C332.613 466.48 335.413 464.907 337.44 461.76ZM423.92 434.88C425.36 438.933 426.08 443.733 426.08 449.28C426.08 454.827 425.333 459.84 423.84 464.32C421.973 469.44 419.067 473.493 415.12 476.48C411.173 479.467 406.267 480.96 400.4 480.96C394.64 480.96 390.16 478.96 386.96 474.96C386.8 474.747 386.64 474.667 386.48 474.72C386.32 474.773 386.24 474.933 386.24 475.2V500.88C386.24 501.307 386.107 501.653 385.84 501.92C385.573 502.187 385.227 502.32 384.8 502.32H370.8C370.373 502.32 370.027 502.187 369.76 501.92C369.493 501.653 369.36 501.307 369.36 500.88V419.76C369.36 419.387 369.493 419.04 369.76 418.72C370.027 418.453 370.373 418.32 370.8 418.32H384.8C385.227 418.32 385.573 418.453 385.84 418.72C386.107 419.04 386.24 419.387 386.24 419.76V423.68C386.24 423.947 386.32 424.107 386.48 424.16C386.64 424.213 386.8 424.16 386.96 424C390.32 419.573 394.96 417.36 400.88 417.36C406.427 417.36 411.227 418.907 415.28 422C419.28 425.093 422.16 429.387 423.92 434.88ZM405.6 461.76C407.573 458.667 408.56 454.427 408.56 449.04C408.56 444.027 407.733 440.027 406.08 437.04C404.213 433.627 401.253 431.92 397.2 431.92C393.52 431.92 390.747 433.627 388.88 437.04C387.227 439.92 386.4 443.973 386.4 449.2C386.4 454.533 387.28 458.693 389.04 461.68C390.853 464.88 393.573 466.48 397.2 466.48C400.773 466.48 403.573 464.907 405.6 461.76ZM463.92 480.96C457.2 480.96 451.44 479.2 446.64 475.68C441.84 472.16 438.56 467.36 436.8 461.28C435.68 457.547 435.12 453.467 435.12 449.04C435.12 444.347 435.68 440.107 436.8 436.32C438.613 430.4 441.92 425.76 446.72 422.4C451.52 419.04 457.307 417.36 464.08 417.36C470.587 417.36 476.16 419.013 480.8 422.32C485.493 425.68 488.8 430.32 490.72 436.24C491.947 440.24 492.56 444.427 492.56 448.8C492.56 453.12 492.027 457.173 490.96 460.96C489.147 467.2 485.867 472.08 481.12 475.6C476.373 479.173 470.64 480.96 463.92 480.96ZM463.92 466.48C466.533 466.48 468.773 465.68 470.64 464.08C472.453 462.48 473.76 460.267 474.56 457.44C475.2 454.88 475.52 452.08 475.52 449.04C475.52 445.68 475.2 442.853 474.56 440.56C473.707 437.84 472.347 435.707 470.48 434.16C468.667 432.667 466.453 431.92 463.84 431.92C461.067 431.92 458.8 432.667 457.04 434.16C455.227 435.707 453.92 437.84 453.12 440.56C452.48 442.427 452.16 445.253 452.16 449.04C452.16 452.667 452.427 455.467 452.96 457.44C453.76 460.267 455.12 462.48 457.04 464.08C458.907 465.68 461.2 466.48 463.92 466.48ZM534.24 417.52C537.12 417.52 539.413 418.08 541.12 419.2C541.76 419.52 542 420.107 541.84 420.96L539.28 434.64C539.227 435.6 538.667 435.893 537.6 435.52C536.427 435.093 535.04 434.88 533.44 434.88C532.747 434.88 531.867 434.96 530.8 435.12C527.92 435.387 525.467 436.453 523.44 438.32C521.467 440.187 520.48 442.693 520.48 445.84V478.56C520.48 478.987 520.32 479.333 520 479.6C519.733 479.867 519.413 480 519.04 480H504.96C504.587 480 504.24 479.867 503.92 479.6C503.653 479.333 503.52 478.987 503.52 478.56V419.76C503.52 419.387 503.653 419.04 503.92 418.72C504.24 418.453 504.587 418.32 504.96 418.32H519.04C519.413 418.32 519.733 418.453 520 418.72C520.32 419.04 520.48 419.387 520.48 419.76V424.32C520.48 424.533 520.56 424.693 520.72 424.8C520.88 424.907 520.987 424.853 521.04 424.64C524.347 419.893 528.747 417.52 534.24 417.52ZM585.6 430.48C585.6 430.853 585.467 431.173 585.2 431.44C584.933 431.76 584.587 431.92 584.16 431.92H572.64C572.267 431.92 572.08 432.107 572.08 432.48V457.92C572.08 460.533 572.613 462.507 573.68 463.84C574.747 465.12 576.48 465.76 578.88 465.76H582.88C583.253 465.76 583.573 465.893 583.84 466.16C584.16 466.427 584.32 466.773 584.32 467.2V478.56C584.32 479.467 583.84 479.973 582.88 480.08C579.52 480.24 577.12 480.32 575.68 480.32C569.013 480.32 564.053 479.227 560.8 477.04C557.493 474.853 555.813 470.72 555.76 464.64V432.48C555.76 432.107 555.547 431.92 555.12 431.92H548.32C547.893 431.92 547.547 431.76 547.28 431.44C547.013 431.173 546.88 430.853 546.88 430.48V419.76C546.88 419.387 547.013 419.04 547.28 418.72C547.547 418.453 547.893 418.32 548.32 418.32H555.12C555.547 418.32 555.76 418.107 555.76 417.68V403.44C555.76 403.067 555.893 402.72 556.16 402.4C556.427 402.133 556.773 402 557.2 402H570.64C571.013 402 571.333 402.133 571.6 402.4C571.92 402.72 572.08 403.067 572.08 403.44V417.68C572.08 418.107 572.267 418.32 572.64 418.32H584.16C584.587 418.32 584.933 418.453 585.2 418.72C585.467 419.04 585.6 419.387 585.6 419.76V430.48ZM305.36 316.24C304.88 316.453 304.88 316.693 305.36 316.96C312.933 320.853 316.72 327.36 316.72 336.48C316.72 344.267 314.08 350.133 308.8 354.08C303.52 358.027 296.613 360 288.08 360H256.96C256.587 360 256.267 359.867 256 359.6C255.68 359.333 255.52 358.987 255.52 358.56V277.44C255.52 277.067 255.68 276.72 256 276.4C256.267 276.133 256.587 276 256.96 276H287.12C306.053 276 315.52 283.68 315.52 299.04C315.52 307.04 312.133 312.773 305.36 316.24ZM273.04 290.48C272.667 290.48 272.48 290.693 272.48 291.12V309.84C272.48 310.267 272.667 310.48 273.04 310.48H287.12C290.853 310.48 293.787 309.6 295.92 307.84C297.947 306.08 298.96 303.68 298.96 300.64C298.96 297.493 297.947 295.013 295.92 293.2C293.787 291.387 290.853 290.48 287.12 290.48H273.04ZM288.08 345.36C291.76 345.36 294.64 344.427 296.72 342.56C298.8 340.693 299.84 338.107 299.84 334.8C299.84 331.547 298.8 328.96 296.72 327.04C294.64 325.173 291.707 324.24 287.92 324.24H273.04C272.667 324.24 272.48 324.453 272.48 324.88V344.72C272.48 345.147 272.667 345.36 273.04 345.36H288.08ZM383.44 322.8C383.92 325.84 384.08 329.227 383.92 332.96C383.867 333.973 383.36 334.48 382.4 334.48H345.28C344.8 334.48 344.64 334.667 344.8 335.04C345.067 336.64 345.52 338.24 346.16 339.84C348.24 344.32 352.48 346.56 358.88 346.56C364 346.507 368.027 344.427 370.96 340.32C371.28 339.84 371.653 339.6 372.08 339.6C372.293 339.6 372.56 339.76 372.88 340.08L381.52 348.56C381.947 348.987 382.16 349.36 382.16 349.68C382.16 349.84 382 350.16 381.68 350.64C379.013 353.947 375.6 356.48 371.44 358.24C367.333 360.053 362.773 360.96 357.76 360.96C350.88 360.96 345.067 359.413 340.32 356.32C335.573 353.173 332.16 348.8 330.08 343.2C328.373 339.2 327.52 333.973 327.52 327.52C327.52 323.093 328.133 319.2 329.36 315.84C331.173 310.187 334.4 305.68 339.04 302.32C343.627 298.96 349.067 297.28 355.36 297.28C363.36 297.28 369.787 299.6 374.64 304.24C379.493 308.88 382.427 315.067 383.44 322.8ZM355.52 311.92C350.453 311.92 347.12 314.267 345.52 318.96C345.2 320.027 344.933 321.307 344.72 322.8C344.72 323.173 344.907 323.36 345.28 323.36H366.08C366.56 323.36 366.72 323.173 366.56 322.8C366.133 320.507 365.92 319.387 365.92 319.44C365.227 317.04 363.973 315.173 362.16 313.84C360.347 312.56 358.133 311.92 355.52 311.92ZM418.16 360.8C412.773 360.8 408.08 360.053 404.08 358.56C400.08 357.067 396.987 354.96 394.8 352.24C392.613 349.52 391.52 346.427 391.52 342.96V341.76C391.52 341.387 391.653 341.04 391.92 340.72C392.187 340.453 392.533 340.32 392.96 340.32H406.24C406.667 340.32 407.013 340.453 407.28 340.72C407.547 341.04 407.68 341.387 407.68 341.76V341.84C407.68 343.653 408.667 345.173 410.64 346.4C412.613 347.627 415.067 348.24 418 348.24C420.72 348.24 422.933 347.707 424.64 346.64C426.293 345.52 427.12 344.187 427.12 342.64C427.12 341.2 426.4 340.107 424.96 339.36C423.52 338.667 421.173 337.92 417.92 337.12C414.133 336.16 411.173 335.227 409.04 334.32C403.92 332.56 399.84 330.4 396.8 327.84C393.76 325.28 392.24 321.6 392.24 316.8C392.24 310.88 394.533 306.187 399.12 302.72C403.707 299.253 409.813 297.52 417.44 297.52C422.56 297.52 427.04 298.32 430.88 299.92C434.72 301.573 437.707 303.893 439.84 306.88C441.92 309.813 442.96 313.173 442.96 316.96C442.96 317.333 442.827 317.653 442.56 317.92C442.293 318.187 441.947 318.32 441.52 318.32H428.72C428.293 318.32 427.947 318.187 427.68 317.92C427.413 317.653 427.28 317.333 427.28 316.96C427.28 315.2 426.373 313.707 424.56 312.48C422.747 311.253 420.373 310.64 417.44 310.64C414.773 310.64 412.613 311.147 410.96 312.16C409.253 313.12 408.4 314.427 408.4 316.08C408.4 317.68 409.227 318.88 410.88 319.68C412.533 320.48 415.28 321.333 419.12 322.24C419.973 322.453 420.96 322.693 422.08 322.96C423.2 323.227 424.4 323.573 425.68 324C431.387 325.707 435.867 327.867 439.12 330.48C442.427 333.147 444.08 336.987 444.08 342C444.08 347.92 441.733 352.533 437.04 355.84C432.347 359.147 426.053 360.8 418.16 360.8ZM489.04 310.48C489.04 310.853 488.907 311.173 488.64 311.44C488.373 311.76 488.027 311.92 487.6 311.92H476.08C475.707 311.92 475.52 312.107 475.52 312.48V337.92C475.52 340.533 476.053 342.507 477.12 343.84C478.187 345.12 479.947 345.76 482.4 345.76H486.32C486.693 345.76 487.04 345.893 487.36 346.16C487.627 346.427 487.76 346.773 487.76 347.2V358.56C487.76 359.467 487.28 359.973 486.32 360.08C482.96 360.24 480.56 360.32 479.12 360.32C472.453 360.32 467.493 359.227 464.24 357.04C460.933 354.853 459.253 350.72 459.2 344.64V312.48C459.2 312.107 458.987 311.92 458.56 311.92H451.76C451.333 311.92 450.987 311.76 450.72 311.44C450.453 311.173 450.32 310.853 450.32 310.48V299.76C450.32 299.387 450.453 299.04 450.72 298.72C450.987 298.453 451.333 298.32 451.76 298.32H458.56C458.987 298.32 459.2 298.107 459.2 297.68V283.44C459.2 283.067 459.333 282.72 459.6 282.4C459.867 282.133 460.213 282 460.64 282H474.08C474.453 282 474.8 282.133 475.12 282.4C475.387 282.72 475.52 283.067 475.52 283.44V297.68C475.52 298.107 475.707 298.32 476.08 298.32H487.6C488.027 298.32 488.373 298.453 488.64 298.72C488.907 299.04 489.04 299.387 489.04 299.76V310.48Z" fill="#252530"/>
<path d="M249.6 603.2C249.013 603.2 248.64 602.933 248.48 602.4L233.92 548.24L233.84 547.92C233.84 547.44 234.133 547.2 234.72 547.2H242.56C243.147 547.2 243.52 547.467 243.68 548L252.8 584.48C252.853 584.64 252.933 584.72 253.04 584.72C253.147 584.72 253.227 584.64 253.28 584.48L262 548C262.16 547.467 262.507 547.2 263.04 547.2H270.72C271.307 547.2 271.68 547.467 271.84 548L281.12 584.56C281.173 584.72 281.253 584.8 281.36 584.8C281.467 584.8 281.547 584.72 281.6 584.56L290.56 548C290.72 547.467 291.093 547.2 291.68 547.2H299.12C299.867 547.2 300.16 547.547 300 548.24L286.16 602.4C286 602.933 285.627 603.2 285.04 603.2H277.6C277.013 603.2 276.64 602.933 276.48 602.4L267.12 564.24C267.067 564.08 266.987 563.973 266.88 563.92C266.773 563.92 266.693 564.027 266.64 564.24L257.68 602.4C257.52 602.933 257.173 603.2 256.64 603.2H249.6ZM308.88 603.2C308.613 603.2 308.373 603.093 308.16 602.88C308 602.72 307.92 602.507 307.92 602.24V548.16C307.92 547.893 308 547.68 308.16 547.52C308.373 547.307 308.613 547.2 308.88 547.2H316.24C316.507 547.2 316.72 547.307 316.88 547.52C317.093 547.68 317.2 547.893 317.2 548.16V602.24C317.2 602.507 317.093 602.72 316.88 602.88C316.72 603.093 316.507 603.2 316.24 603.2H308.88ZM361.44 548.16C361.44 547.893 361.52 547.68 361.68 547.52C361.893 547.307 362.133 547.2 362.4 547.2H369.76C370.027 547.2 370.24 547.307 370.4 547.52C370.613 547.68 370.72 547.893 370.72 548.16V602.24C370.72 602.507 370.613 602.72 370.4 602.88C370.24 603.093 370.027 603.2 369.76 603.2H362.64C362.107 603.2 361.733 602.987 361.52 602.56L338.48 564.8C338.373 564.64 338.267 564.56 338.16 564.56C338.053 564.613 338 564.747 338 564.96L338.16 602.24C338.16 602.507 338.053 602.72 337.84 602.88C337.68 603.093 337.467 603.2 337.2 603.2H329.84C329.573 603.2 329.333 603.093 329.12 602.88C328.96 602.72 328.88 602.507 328.88 602.24V548.16C328.88 547.893 328.96 547.68 329.12 547.52C329.333 547.307 329.573 547.2 329.84 547.2H336.96C337.493 547.2 337.867 547.413 338.08 547.84L361.04 585.6C361.147 585.76 361.253 585.813 361.36 585.76C361.467 585.76 361.52 585.653 361.52 585.44L361.44 548.16ZM419.2 547.2C419.467 547.2 419.68 547.307 419.84 547.52C420.053 547.68 420.16 547.893 420.16 548.16V554.32C420.16 554.587 420.053 554.8 419.84 554.96C419.68 555.173 419.467 555.28 419.2 555.28H404.48C404.213 555.28 404.08 555.413 404.08 555.68V602.24C404.08 602.507 404 602.72 403.84 602.88C403.627 603.093 403.387 603.2 403.12 603.2H395.76C395.493 603.2 395.28 603.093 395.12 602.88C394.907 602.72 394.8 602.507 394.8 602.24V555.68C394.8 555.413 394.667 555.28 394.4 555.28H380.24C379.973 555.28 379.733 555.173 379.52 554.96C379.36 554.8 379.28 554.587 379.28 554.32V548.16C379.28 547.893 379.36 547.68 379.52 547.52C379.733 547.307 379.973 547.2 380.24 547.2H419.2ZM466.64 554.24C466.64 554.507 466.533 554.72 466.32 554.88C466.16 555.093 465.947 555.2 465.68 555.2H438.4C438.133 555.2 438 555.333 438 555.6V570.56C438 570.827 438.133 570.96 438.4 570.96H456.72C456.987 570.96 457.227 571.04 457.44 571.2C457.6 571.413 457.68 571.653 457.68 571.92V578C457.68 578.267 457.6 578.507 457.44 578.72C457.227 578.88 456.987 578.96 456.72 578.96H438.4C438.133 578.96 438 579.093 438 579.36V594.8C438 595.067 438.133 595.2 438.4 595.2H465.68C465.947 595.2 466.16 595.307 466.32 595.52C466.533 595.68 466.64 595.893 466.64 596.16V602.24C466.64 602.507 466.533 602.72 466.32 602.88C466.16 603.093 465.947 603.2 465.68 603.2H429.68C429.413 603.2 429.173 603.093 428.96 602.88C428.8 602.72 428.72 602.507 428.72 602.24V548.16C428.72 547.893 428.8 547.68 428.96 547.52C429.173 547.307 429.413 547.2 429.68 547.2H465.68C465.947 547.2 466.16 547.307 466.32 547.52C466.533 547.68 466.64 547.893 466.64 548.16V554.24ZM507.52 603.2C506.987 603.2 506.613 602.96 506.4 602.48L495.84 579.44C495.733 579.227 495.573 579.12 495.36 579.12H485.76C485.493 579.12 485.36 579.253 485.36 579.52V602.24C485.36 602.507 485.253 602.72 485.04 602.88C484.88 603.093 484.667 603.2 484.4 603.2H477.04C476.773 603.2 476.533 603.093 476.32 602.88C476.16 602.72 476.08 602.507 476.08 602.24V548.16C476.08 547.893 476.16 547.68 476.32 547.52C476.533 547.307 476.773 547.2 477.04 547.2H499.04C502.293 547.2 505.173 547.867 507.68 549.2C510.187 550.587 512.133 552.507 513.52 554.96C514.907 557.467 515.6 560.32 515.6 563.52C515.6 567.2 514.64 570.32 512.72 572.88C510.853 575.493 508.24 577.307 504.88 578.32C504.773 578.32 504.693 578.373 504.64 578.48C504.587 578.587 504.587 578.693 504.64 578.8L515.92 602.08C516.027 602.293 516.08 602.453 516.08 602.56C516.08 602.987 515.787 603.2 515.2 603.2H507.52ZM485.76 555.2C485.493 555.2 485.36 555.333 485.36 555.6V571.52C485.36 571.787 485.493 571.92 485.76 571.92H497.76C500.32 571.92 502.4 571.147 504 569.6C505.547 568.107 506.32 566.107 506.32 563.6C506.32 561.093 505.547 559.067 504 557.52C502.4 555.973 500.32 555.2 497.76 555.2H485.76Z" fill="#242530"/>
<path d="M270.88 747.68C270.72 747.84 270.667 748 270.72 748.16C270.827 748.32 270.987 748.4 271.2 748.4H302.64C303.013 748.4 303.333 748.533 303.6 748.8C303.92 749.067 304.08 749.387 304.08 749.76V761.04C304.08 761.413 303.92 761.733 303.6 762C303.333 762.267 303.013 762.4 302.64 762.4H250.48C250.053 762.4 249.707 762.267 249.44 762C249.173 761.733 249.04 761.413 249.04 761.04V750.32C249.04 749.627 249.28 749.04 249.76 748.56C253.547 744.88 257.413 740.853 261.36 736.48C265.307 732.107 267.787 729.387 268.8 728.32C270.933 725.76 273.12 723.307 275.36 720.96C282.4 713.173 285.92 707.387 285.92 703.6C285.92 700.88 284.96 698.64 283.04 696.88C281.12 695.173 278.613 694.32 275.52 694.32C272.427 694.32 269.92 695.173 268 696.88C266.027 698.64 265.04 700.96 265.04 703.84V706.72C265.04 707.093 264.907 707.413 264.64 707.68C264.373 707.947 264.053 708.08 263.68 708.08H250C249.627 708.08 249.307 707.947 249.04 707.68C248.72 707.413 248.56 707.093 248.56 706.72V701.28C248.827 697.12 250.16 693.413 252.56 690.16C254.96 686.96 258.133 684.507 262.08 682.8C266.08 681.093 270.56 680.24 275.52 680.24C281.013 680.24 285.787 681.28 289.84 683.36C293.893 685.387 297.013 688.133 299.2 691.6C301.44 695.12 302.56 698.987 302.56 703.2C302.56 706.453 301.733 709.787 300.08 713.2C298.48 716.613 296.053 720.293 292.8 724.24C290.4 727.227 287.813 730.213 285.04 733.2C282.267 736.133 278.133 740.373 272.64 745.92L270.88 747.68ZM341.76 763.68C333.227 763.68 326.507 761.307 321.6 756.56C316.64 751.813 314.16 745.333 314.16 737.12V706.48C314.16 698.427 316.64 692.053 321.6 687.36C326.507 682.613 333.227 680.24 341.76 680.24C350.24 680.24 356.987 682.613 362 687.36C366.96 692.053 369.44 698.427 369.44 706.48V737.12C369.44 745.333 366.96 751.813 362 756.56C356.987 761.307 350.24 763.68 341.76 763.68ZM341.76 749.68C345.227 749.68 347.973 748.613 350 746.48C352.08 744.347 353.12 741.493 353.12 737.92V706C353.12 702.48 352.08 699.653 350 697.52C347.973 695.387 345.227 694.32 341.76 694.32C338.347 694.32 335.627 695.387 333.6 697.52C331.52 699.653 330.48 702.48 330.48 706V737.92C330.48 741.493 331.52 744.347 333.6 746.48C335.627 748.613 338.347 749.68 341.76 749.68ZM401.92 747.68C401.76 747.84 401.733 748 401.84 748.16C401.893 748.32 402.053 748.4 402.32 748.4H433.76C434.133 748.4 434.453 748.533 434.72 748.8C434.987 749.067 435.12 749.387 435.12 749.76V761.04C435.12 761.413 434.987 761.733 434.72 762C434.453 762.267 434.133 762.4 433.76 762.4H381.52C381.147 762.4 380.827 762.267 380.56 762C380.293 761.733 380.16 761.413 380.16 761.04V750.32C380.16 749.627 380.373 749.04 380.8 748.56C384.64 744.88 388.507 740.853 392.4 736.48C396.347 732.107 398.827 729.387 399.84 728.32C402.027 725.76 404.24 723.307 406.48 720.96C413.52 713.173 417.04 707.387 417.04 703.6C417.04 700.88 416.08 698.64 414.16 696.88C412.187 695.173 409.653 694.32 406.56 694.32C403.467 694.32 400.96 695.173 399.04 696.88C397.12 698.64 396.16 700.96 396.16 703.84V706.72C396.16 707.093 396.027 707.413 395.76 707.68C395.493 707.947 395.147 708.08 394.72 708.08H381.04C380.667 708.08 380.347 707.947 380.08 707.68C379.813 707.413 379.68 707.093 379.68 706.72V701.28C379.893 697.12 381.2 693.413 383.6 690.16C386 686.96 389.2 684.507 393.2 682.8C397.2 681.093 401.653 680.24 406.56 680.24C412.053 680.24 416.827 681.28 420.88 683.36C424.987 685.387 428.133 688.133 430.32 691.6C432.507 695.12 433.6 698.987 433.6 703.2C433.6 706.453 432.8 709.787 431.2 713.2C429.547 716.613 427.093 720.293 423.84 724.24C421.44 727.227 418.853 730.213 416.08 733.2C413.307 736.133 409.173 740.373 403.68 745.92L401.92 747.68ZM496.8 725.36C497.973 729.147 498.56 732.827 498.56 736.4C498.56 740.347 497.947 743.92 496.72 747.12C494.96 752.027 491.84 755.947 487.36 758.88C482.827 761.76 477.547 763.2 471.52 763.2C465.653 763.2 460.507 761.787 456.08 758.96C451.6 756.133 448.453 752.293 446.64 747.44C445.84 745.413 445.253 743.28 444.88 741.04V740.8C444.88 739.947 445.333 739.52 446.24 739.52H460.32C461.067 739.52 461.573 739.947 461.84 740.8C461.893 741.28 462 741.68 462.16 742C462.32 742.32 462.427 742.587 462.48 742.8C463.28 744.827 464.453 746.373 466 747.44C467.547 748.507 469.36 749.04 471.44 749.04C473.627 749.04 475.52 748.453 477.12 747.28C478.72 746.16 479.92 744.56 480.72 742.48C481.467 740.933 481.84 738.907 481.84 736.4C481.84 734.16 481.493 732.16 480.8 730.4C480.267 728.373 479.2 726.827 477.6 725.76C475.947 724.64 474.053 724.08 471.92 724.08C469.733 724.08 467.707 724.587 465.84 725.6C464.027 726.613 462.8 727.947 462.16 729.6C461.947 730.347 461.44 730.72 460.64 730.72H446.4C445.973 730.72 445.627 730.587 445.36 730.32C445.093 730.053 444.96 729.733 444.96 729.36V682.56C444.96 682.187 445.093 681.867 445.36 681.6C445.627 681.333 445.973 681.2 446.4 681.2H494.32C494.693 681.2 495.013 681.333 495.28 681.6C495.547 681.867 495.68 682.187 495.68 682.56V693.84C495.68 694.213 495.547 694.533 495.28 694.8C495.013 695.067 494.693 695.2 494.32 695.2H461.92C461.547 695.2 461.36 695.413 461.36 695.84L461.2 712.96C461.2 713.493 461.44 713.627 461.92 713.36C465.387 711.12 469.413 710 474 710C479.387 710 484.107 711.36 488.16 714.08C492.267 716.853 495.147 720.613 496.8 725.36Z" fill="#252530"/>
</svg>
