<svg width="752" height="976" viewBox="0 0 752 976" fill="none" xmlns="http://www.w3.org/2000/svg">
<path d="M64.8 719.2L380.8 880L684.8 719.2V90.4H64.8V719.2Z" fill="white"/>
<path d="M691.2 92.8L58.3999 730.4L386.4 892.8L691.2 736.8V92.8Z" fill="#F2F3F2"/>
<path d="M44 300V732.8L55.2 738.4L371.2 899.2L380.8 904L390.4 899.2L695.2 738.4L706.4 732.8V69.6H44V300ZM64.8 720.8V90.4H685.6V720.8L380.8 881.6L64.8 720.8Z" fill="#DCDEDC"/>
<path d="M375.2 100.8C378.4 100.8 381.6 100.8 384.8 101.6L375.2 120C360.8 119.2 348 130.4 347.2 144.8C346.4 159.2 357.6 172 372 172.8H375.2C381.6 172.8 388 170.4 392.8 166.4L403.2 184C395.2 189.6 385.6 192.8 375.2 192.8C349.6 193.6 328 174.4 327.2 148.8C326.4 123.2 345.6 101.6 371.2 100.8H375.2ZM408 140L420 160L408 179.2L396.8 160H373.6L385.6 140H408ZM388.8 132.8C388.8 129.6 389.6 126.4 391.2 124C392.8 121.6 396 119.2 398.4 117.6L400 116.8C403.2 115.2 404 114.4 404 112.8C404 111.2 401.6 109.6 400 109.6C396.8 109.6 394.4 111.2 392.8 114.4L388.8 110.4C389.6 108.8 391.2 107.2 392.8 105.6C395.2 104 397.6 104 400 104C402.4 104 405.6 104.8 407.2 106.4C408.8 108 410.4 110.4 410.4 112.8C410.4 116.8 408 120 403.2 121.6L400.8 123.2C398.4 124.8 396.8 125.6 396 128H410.4V133.6L388.8 132.8ZM375.2 232.8L451.2 189.6V69.6H298.4V188.8L375.2 232.8Z" fill="#FF492C"/>
<path d="M721.6 516H28.7999L3.19995 572L28.7999 628H721.6L746.4 572L721.6 516Z" fill="#FFD200"/>
<path d="M136.32 480C135.787 480 135.387 479.733 135.12 479.2L124.16 454.8C124 454.587 123.813 454.48 123.6 454.48H115.44C115.12 454.48 114.96 454.64 114.96 454.96V478.96C114.96 479.227 114.853 479.467 114.64 479.68C114.48 479.893 114.24 480 113.92 480H103.6C103.333 480 103.093 479.893 102.88 479.68C102.667 479.467 102.56 479.227 102.56 478.96V419.44C102.56 419.173 102.667 418.933 102.88 418.72C103.093 418.507 103.333 418.4 103.6 418.4H128.8C132.533 418.4 135.84 419.173 138.72 420.72C141.547 422.213 143.733 424.373 145.28 427.2C146.827 430.027 147.6 433.28 147.6 436.96C147.6 440.96 146.613 444.373 144.64 447.2C142.613 450.08 139.813 452.107 136.24 453.28C135.973 453.387 135.893 453.573 136 453.84L148 478.8C148.107 479.013 148.16 479.173 148.16 479.28C148.16 479.76 147.84 480 147.2 480H136.32ZM115.44 429.04C115.12 429.04 114.96 429.2 114.96 429.52V444.56C114.96 444.827 115.12 444.96 115.44 444.96H126.96C129.413 444.96 131.413 444.24 132.96 442.8C134.507 441.307 135.28 439.387 135.28 437.04C135.28 434.693 134.507 432.773 132.96 431.28C131.413 429.787 129.413 429.04 126.96 429.04H115.44ZM195.2 452.72C195.573 454.96 195.707 457.467 195.6 460.24C195.547 460.933 195.147 461.28 194.4 461.28H167.28C166.907 461.28 166.773 461.413 166.88 461.68C167.04 462.853 167.36 464.027 167.84 465.2C169.387 468.507 172.507 470.16 177.2 470.16C180.933 470.107 183.893 468.587 186.08 465.6C186.293 465.227 186.56 465.04 186.88 465.04C187.04 465.04 187.253 465.147 187.52 465.36L193.84 471.68C194.107 471.947 194.24 472.187 194.24 472.4C194.24 472.56 194.133 472.8 193.92 473.12C192 475.52 189.493 477.387 186.4 478.72C183.36 480.053 180.027 480.72 176.4 480.72C171.333 480.72 167.067 479.573 163.6 477.28C160.08 474.987 157.573 471.787 156.08 467.68C154.853 464.747 154.24 460.907 154.24 456.16C154.24 452.907 154.667 450.053 155.52 447.6C156.907 443.44 159.28 440.133 162.64 437.68C166 435.227 170 434 174.64 434C180.507 434 185.227 435.707 188.8 439.12C192.32 442.48 194.453 447.013 195.2 452.72ZM174.72 444.72C171.04 444.72 168.613 446.453 167.44 449.92C167.173 450.667 166.96 451.6 166.8 452.72C166.8 453.04 166.96 453.2 167.28 453.2H182.48C182.8 453.2 182.907 453.04 182.8 452.72C182.533 451.013 182.4 450.187 182.4 450.24C181.867 448.48 180.933 447.12 179.6 446.16C178.267 445.2 176.64 444.72 174.72 444.72ZM231.28 435.84C231.28 435.52 231.387 435.253 231.6 435.04C231.813 434.88 232.08 434.8 232.4 434.8H242.64C242.96 434.8 243.227 434.88 243.44 435.04C243.6 435.253 243.68 435.52 243.68 435.84V495.28C243.68 495.6 243.6 495.867 243.44 496.08C243.227 496.293 242.96 496.4 242.64 496.4H232.4C232.08 496.4 231.813 496.293 231.6 496.08C231.387 495.867 231.28 495.6 231.28 495.28V476.48C231.28 476.32 231.227 476.213 231.12 476.16C231.013 476.107 230.907 476.16 230.8 476.32C228.453 479.253 225.173 480.72 220.96 480.72C216.64 480.72 213.04 479.627 210.16 477.44C207.227 475.2 205.093 472.213 203.76 468.48C202.693 465.387 202.16 461.707 202.16 457.44C202.16 453.493 202.667 449.973 203.68 446.88C204.96 442.88 207.093 439.733 210.08 437.44C213.013 435.2 216.533 434.08 220.64 434.08C224.96 434.08 228.347 435.68 230.8 438.88C230.907 439.04 231.013 439.093 231.12 439.04C231.227 438.987 231.28 438.88 231.28 438.72V435.84ZM229.28 466.56C230.56 464.373 231.2 461.307 231.2 457.36C231.2 453.627 230.613 450.667 229.44 448.48C228 445.973 225.947 444.72 223.28 444.72C220.4 444.72 218.24 445.973 216.8 448.48C215.573 450.827 214.96 453.76 214.96 457.28C214.96 461.227 215.68 464.347 217.12 466.64C218.613 468.933 220.693 470.08 223.36 470.08C225.973 470.08 227.947 468.907 229.28 466.56ZM279.6 435.84C279.6 435.52 279.707 435.253 279.92 435.04C280.133 434.88 280.373 434.8 280.64 434.8H290.96C291.28 434.8 291.547 434.88 291.76 435.04C291.92 435.253 292 435.52 292 435.84V478.96C292 479.227 291.92 479.467 291.76 479.68C291.547 479.893 291.28 480 290.96 480H280.64C280.373 480 280.133 479.893 279.92 479.68C279.707 479.467 279.6 479.227 279.6 478.96V475.92C279.6 475.76 279.547 475.68 279.44 475.68C279.333 475.627 279.227 475.68 279.12 475.84C276.773 479.04 273.12 480.64 268.16 480.64C263.733 480.64 260.08 479.28 257.2 476.56C254.32 473.893 252.88 470.107 252.88 465.2V435.84C252.88 435.52 252.987 435.253 253.2 435.04C253.413 434.88 253.653 434.8 253.92 434.8H264.16C264.427 434.8 264.667 434.88 264.88 435.04C265.093 435.253 265.2 435.52 265.2 435.84V462.16C265.2 464.507 265.84 466.4 267.12 467.84C268.347 469.333 270.08 470.08 272.32 470.08C274.293 470.08 275.947 469.467 277.28 468.24C278.56 467.067 279.333 465.493 279.6 463.52V435.84ZM307.84 429.68C305.867 429.68 304.213 429.013 302.88 427.68C301.547 426.347 300.88 424.693 300.88 422.72C300.88 420.64 301.547 418.96 302.88 417.68C304.16 416.4 305.813 415.76 307.84 415.76C309.92 415.76 311.6 416.4 312.88 417.68C314.16 418.96 314.8 420.64 314.8 422.72C314.8 424.693 314.16 426.347 312.88 427.68C311.547 429.013 309.867 429.68 307.84 429.68ZM302.56 480C302.293 480 302.053 479.893 301.84 479.68C301.627 479.467 301.52 479.227 301.52 478.96V435.76C301.52 435.44 301.627 435.173 301.84 434.96C302.053 434.747 302.293 434.64 302.56 434.64H312.88C313.2 434.64 313.44 434.747 313.6 434.96C313.813 435.173 313.92 435.44 313.92 435.76V478.96C313.92 479.227 313.813 479.467 313.6 479.68C313.44 479.893 313.2 480 312.88 480H302.56ZM346.16 434.16C348.24 434.16 349.92 434.56 351.2 435.36C351.627 435.627 351.787 436.08 351.68 436.72L349.84 446.72C349.787 447.413 349.387 447.627 348.64 447.36C347.733 447.04 346.693 446.88 345.52 446.88C345.04 446.88 344.4 446.96 343.6 447.12C341.467 447.28 339.68 448.053 338.24 449.44C336.747 450.827 336 452.667 336 454.96V478.96C336 479.227 335.92 479.467 335.76 479.68C335.547 479.893 335.28 480 334.96 480H324.64C324.373 480 324.133 479.893 323.92 479.68C323.707 479.467 323.6 479.227 323.6 478.96V435.84C323.6 435.52 323.707 435.253 323.92 435.04C324.133 434.88 324.373 434.8 324.64 434.8H334.96C335.28 434.8 335.547 434.88 335.76 435.04C335.92 435.253 336 435.52 336 435.84V439.2C336 439.36 336.08 439.467 336.24 439.52C336.347 439.573 336.427 439.547 336.48 439.44C338.88 435.92 342.107 434.16 346.16 434.16ZM396.24 452.72C396.56 454.96 396.667 457.467 396.56 460.24C396.507 460.933 396.133 461.28 395.44 461.28H368.24C367.867 461.28 367.76 461.413 367.92 461.68C368.08 462.853 368.4 464.027 368.88 465.2C370.373 468.507 373.467 470.16 378.16 470.16C381.947 470.107 384.907 468.587 387.04 465.6C387.307 465.227 387.573 465.04 387.84 465.04C388.053 465.04 388.267 465.147 388.48 465.36L394.8 471.68C395.12 471.947 395.28 472.187 395.28 472.4C395.28 472.56 395.147 472.8 394.88 473.12C392.96 475.52 390.48 477.387 387.44 478.72C384.4 480.053 381.04 480.72 377.36 480.72C372.347 480.72 368.08 479.573 364.56 477.28C361.093 474.987 358.587 471.787 357.04 467.68C355.813 464.747 355.2 460.907 355.2 456.16C355.2 452.907 355.653 450.053 356.56 447.6C357.893 443.44 360.24 440.133 363.6 437.68C366.96 435.227 370.96 434 375.6 434C381.467 434 386.187 435.707 389.76 439.12C393.28 442.48 395.44 447.013 396.24 452.72ZM375.68 444.72C372 444.72 369.573 446.453 368.4 449.92C368.187 450.667 367.973 451.6 367.76 452.72C367.76 453.04 367.92 453.2 368.24 453.2H383.44C383.813 453.2 383.947 453.04 383.84 452.72C383.52 451.013 383.36 450.187 383.36 450.24C382.827 448.48 381.92 447.12 380.64 446.16C379.307 445.2 377.653 444.72 375.68 444.72ZM454.4 434.08C458.987 434.08 462.56 435.467 465.12 438.24C467.68 440.96 468.96 444.827 468.96 449.84V478.96C468.96 479.227 468.88 479.467 468.72 479.68C468.507 479.893 468.24 480 467.92 480H457.68C457.36 480 457.093 479.893 456.88 479.68C456.667 479.467 456.56 479.227 456.56 478.96V452.56C456.56 450.16 455.947 448.24 454.72 446.8C453.493 445.413 451.867 444.72 449.84 444.72C447.76 444.72 446.08 445.413 444.8 446.8C443.52 448.24 442.88 450.133 442.88 452.48V478.96C442.88 479.227 442.773 479.467 442.56 479.68C442.347 479.893 442.107 480 441.84 480H431.6C431.28 480 431.04 479.893 430.88 479.68C430.667 479.467 430.56 479.227 430.56 478.96V452.56C430.56 450.213 429.92 448.32 428.64 446.88C427.307 445.44 425.627 444.72 423.6 444.72C421.733 444.72 420.16 445.28 418.88 446.4C417.6 447.52 416.853 449.067 416.64 451.04V478.96C416.64 479.227 416.533 479.467 416.32 479.68C416.107 479.893 415.867 480 415.6 480H405.28C405.013 480 404.773 479.893 404.56 479.68C404.347 479.467 404.24 479.227 404.24 478.96V435.84C404.24 435.52 404.347 435.253 404.56 435.04C404.773 434.88 405.013 434.8 405.28 434.8H415.6C415.867 434.8 416.107 434.88 416.32 435.04C416.533 435.253 416.64 435.52 416.64 435.84V439.28C416.64 439.44 416.693 439.547 416.8 439.6C416.907 439.653 417.04 439.6 417.2 439.44C419.6 435.867 423.307 434.08 428.32 434.08C431.253 434.08 433.84 434.693 436.08 435.92C438.267 437.147 439.947 438.907 441.12 441.2C441.28 441.52 441.467 441.52 441.68 441.2C443.013 438.8 444.773 437.013 446.96 435.84C449.147 434.667 451.627 434.08 454.4 434.08ZM517.52 452.72C517.84 454.96 517.947 457.467 517.84 460.24C517.787 460.933 517.413 461.28 516.72 461.28H489.52C489.147 461.28 489.013 461.413 489.12 461.68C489.333 462.853 489.653 464.027 490.08 465.2C491.627 468.507 494.747 470.16 499.44 470.16C503.173 470.107 506.133 468.587 508.32 465.6C508.587 465.227 508.853 465.04 509.12 465.04C509.28 465.04 509.493 465.147 509.76 465.36L516.08 471.68C516.347 471.947 516.48 472.187 516.48 472.4C516.48 472.56 516.373 472.8 516.16 473.12C514.24 475.52 511.76 477.387 508.72 478.72C505.627 480.053 502.267 480.72 498.64 480.72C493.627 480.72 489.36 479.573 485.84 477.28C482.373 474.987 479.867 471.787 478.32 467.68C477.093 464.747 476.48 460.907 476.48 456.16C476.48 452.907 476.907 450.053 477.76 447.6C479.147 443.44 481.52 440.133 484.88 437.68C488.24 435.227 492.24 434 496.88 434C502.747 434 507.467 435.707 511.04 439.12C514.56 442.48 516.72 447.013 517.52 452.72ZM496.96 444.72C493.28 444.72 490.853 446.453 489.68 449.92C489.467 450.667 489.253 451.6 489.04 452.72C489.04 453.04 489.2 453.2 489.52 453.2H504.72C505.093 453.2 505.2 453.04 505.04 452.72C504.773 451.013 504.64 450.187 504.64 450.24C504.107 448.48 503.173 447.12 501.84 446.16C500.56 445.2 498.933 444.72 496.96 444.72ZM549.04 434.08C553.733 434.08 557.52 435.52 560.4 438.4C563.28 441.28 564.72 445.173 564.72 450.08V478.96C564.72 479.227 564.613 479.467 564.4 479.68C564.24 479.893 564 480 563.68 480H553.36C553.093 480 552.853 479.893 552.64 479.68C552.427 479.467 552.32 479.227 552.32 478.96V452.64C552.32 450.293 551.653 448.373 550.32 446.88C549.04 445.44 547.307 444.72 545.12 444.72C542.933 444.72 541.2 445.44 539.92 446.88C538.587 448.373 537.92 450.293 537.92 452.64V478.96C537.92 479.227 537.813 479.467 537.6 479.68C537.387 479.893 537.147 480 536.88 480H526.56C526.24 480 526 479.893 525.84 479.68C525.627 479.467 525.52 479.227 525.52 478.96V435.84C525.52 435.52 525.627 435.253 525.84 435.04C526 434.88 526.24 434.8 526.56 434.8H536.88C537.147 434.8 537.387 434.88 537.6 435.04C537.813 435.253 537.92 435.52 537.92 435.84V438.88C537.92 439.093 537.973 439.227 538.08 439.28C538.187 439.333 538.267 439.307 538.32 439.2C540.72 435.787 544.293 434.08 549.04 434.08ZM599.6 443.68C599.6 443.947 599.493 444.187 599.28 444.4C599.067 444.613 598.827 444.72 598.56 444.72H590.08C589.813 444.72 589.68 444.853 589.68 445.12V463.84C589.68 465.76 590.053 467.2 590.8 468.16C591.6 469.067 592.88 469.52 594.64 469.52H597.6C597.867 469.52 598.107 469.627 598.32 469.84C598.533 470.053 598.64 470.293 598.64 470.56V478.96C598.64 479.6 598.293 479.973 597.6 480.08C595.093 480.187 593.333 480.24 592.32 480.24C587.413 480.24 583.76 479.44 581.36 477.84C578.96 476.24 577.733 473.2 577.68 468.72V445.12C577.68 444.853 577.52 444.72 577.2 444.72H572.24C571.92 444.72 571.653 444.613 571.44 444.4C571.28 444.187 571.2 443.947 571.2 443.68V435.84C571.2 435.52 571.28 435.253 571.44 435.04C571.653 434.88 571.92 434.8 572.24 434.8H577.2C577.52 434.8 577.68 434.64 577.68 434.32V423.84C577.68 423.573 577.787 423.333 578 423.12C578.213 422.907 578.453 422.8 578.72 422.8H588.56C588.88 422.8 589.147 422.907 589.36 423.12C589.573 423.333 589.68 423.573 589.68 423.84V434.32C589.68 434.64 589.813 434.8 590.08 434.8H598.56C598.827 434.8 599.067 434.88 599.28 435.04C599.493 435.253 599.6 435.52 599.6 435.84V443.68ZM625.12 480.64C621.173 480.64 617.733 480.08 614.8 478.96C611.867 477.84 609.6 476.293 608 474.32C606.4 472.293 605.6 470.027 605.6 467.52V466.64C605.6 466.32 605.707 466.053 605.92 465.84C606.08 465.68 606.32 465.6 606.64 465.6H616.4C616.667 465.6 616.907 465.68 617.12 465.84C617.333 466.053 617.44 466.32 617.44 466.64V466.72C617.44 468 618.16 469.093 619.6 470C621.04 470.907 622.853 471.36 625.04 471.36C627.013 471.36 628.613 470.96 629.84 470.16C631.067 469.36 631.68 468.4 631.68 467.28C631.68 466.213 631.173 465.413 630.16 464.88C629.093 464.347 627.36 463.787 624.96 463.2C622.187 462.507 620 461.84 618.4 461.2C614.667 459.867 611.68 458.267 609.44 456.4C607.2 454.533 606.08 451.84 606.08 448.32C606.08 444 607.787 440.56 611.2 438C614.56 435.44 619.013 434.16 624.56 434.16C628.347 434.16 631.627 434.747 634.4 435.92C637.227 437.147 639.413 438.853 640.96 441.04C642.56 443.173 643.36 445.627 643.36 448.4C643.36 448.72 643.253 448.96 643.04 449.12C642.827 449.333 642.56 449.44 642.24 449.44H632.88C632.56 449.44 632.293 449.333 632.08 449.12C631.867 448.96 631.76 448.72 631.76 448.4C631.76 447.12 631.12 446.027 629.84 445.12C628.507 444.267 626.747 443.84 624.56 443.84C622.64 443.84 621.067 444.187 619.84 444.88C618.613 445.573 618 446.533 618 447.76C618 448.933 618.587 449.813 619.76 450.4C620.987 450.987 623.013 451.627 625.84 452.32C626.48 452.48 627.2 452.667 628 452.88C628.853 453.093 629.733 453.333 630.64 453.6C634.8 454.827 638.08 456.4 640.48 458.32C642.88 460.293 644.08 463.12 644.08 466.8C644.08 471.12 642.373 474.507 638.96 476.96C635.547 479.413 630.933 480.64 625.12 480.64ZM197.52 359.92C197.147 360.08 197.147 360.24 197.52 360.4C203.067 363.28 205.84 368.053 205.84 374.72C205.84 380.427 203.893 384.747 200 387.68C196.16 390.56 191.093 392 184.8 392H162C161.733 392 161.493 391.893 161.28 391.68C161.067 391.467 160.96 391.227 160.96 390.96V331.44C160.96 331.173 161.067 330.933 161.28 330.72C161.493 330.507 161.733 330.4 162 330.4H184.08C198 330.4 204.96 336.027 204.96 347.28C204.96 353.147 202.48 357.36 197.52 359.92ZM173.84 341.04C173.52 341.04 173.36 341.2 173.36 341.52V355.2C173.36 355.52 173.52 355.68 173.84 355.68H184.08C186.853 355.68 189.013 355.013 190.56 353.68C192.053 352.4 192.8 350.667 192.8 348.48C192.8 346.187 192.053 344.373 190.56 343.04C189.013 341.707 186.853 341.04 184.08 341.04H173.84ZM184.8 381.28C187.52 381.28 189.627 380.587 191.12 379.2C192.667 377.813 193.44 375.92 193.44 373.52C193.44 371.12 192.667 369.227 191.12 367.84C189.627 366.453 187.493 365.76 184.72 365.76H173.84C173.52 365.76 173.36 365.92 173.36 366.24V380.8C173.36 381.12 173.52 381.28 173.84 381.28H184.8ZM254.8 364.72C255.12 366.96 255.227 369.467 255.12 372.24C255.067 372.933 254.693 373.28 254 373.28H226.8C226.427 373.28 226.293 373.413 226.4 373.68C226.613 374.853 226.96 376.027 227.44 377.2C228.933 380.507 232.027 382.16 236.72 382.16C240.507 382.107 243.467 380.587 245.6 377.6C245.867 377.227 246.133 377.04 246.4 377.04C246.56 377.04 246.773 377.147 247.04 377.36L253.36 383.68C253.68 383.947 253.84 384.187 253.84 384.4C253.84 384.56 253.707 384.8 253.44 385.12C251.52 387.52 249.04 389.387 246 390.72C242.907 392.053 239.547 392.72 235.92 392.72C230.907 392.72 226.64 391.573 223.12 389.28C219.653 386.987 217.147 383.787 215.6 379.68C214.373 376.747 213.76 372.907 213.76 368.16C213.76 364.907 214.213 362.053 215.12 359.6C216.453 355.44 218.8 352.133 222.16 349.68C225.52 347.227 229.52 346 234.16 346C240.027 346 244.747 347.707 248.32 351.12C251.84 354.48 254 359.013 254.8 364.72ZM234.24 356.72C230.56 356.72 228.133 358.453 226.96 361.92C226.747 362.667 226.533 363.6 226.32 364.72C226.32 365.04 226.48 365.2 226.8 365.2H242C242.373 365.2 242.507 365.04 242.4 364.72C242.08 363.013 241.92 362.187 241.92 362.24C241.387 360.48 240.453 359.12 239.12 358.16C237.84 357.2 236.213 356.72 234.24 356.72ZM280.24 392.64C276.293 392.64 272.853 392.08 269.92 390.96C266.987 389.84 264.72 388.293 263.12 386.32C261.467 384.293 260.64 382.027 260.64 379.52V378.64C260.64 378.32 260.747 378.053 260.96 377.84C261.173 377.68 261.44 377.6 261.76 377.6H271.52C271.787 377.6 272.027 377.68 272.24 377.84C272.453 378.053 272.56 378.32 272.56 378.64V378.72C272.56 380 273.28 381.093 274.72 382C276.16 382.907 277.947 383.36 280.08 383.36C282.107 383.36 283.733 382.96 284.96 382.16C286.187 381.36 286.8 380.4 286.8 379.28C286.8 378.213 286.267 377.413 285.2 376.88C284.133 376.347 282.4 375.787 280 375.2C277.28 374.507 275.12 373.84 273.52 373.2C269.787 371.867 266.8 370.267 264.56 368.4C262.32 366.533 261.2 363.84 261.2 360.32C261.2 356 262.88 352.56 266.24 350C269.6 347.44 274.08 346.16 279.68 346.16C283.413 346.16 286.693 346.747 289.52 347.92C292.347 349.147 294.533 350.853 296.08 353.04C297.627 355.173 298.4 357.627 298.4 360.4C298.4 360.72 298.293 360.96 298.08 361.12C297.92 361.333 297.68 361.44 297.36 361.44H287.92C287.653 361.44 287.413 361.333 287.2 361.12C286.987 360.96 286.88 360.72 286.88 360.4C286.88 359.12 286.213 358.027 284.88 357.12C283.6 356.267 281.867 355.84 279.68 355.84C277.76 355.84 276.187 356.187 274.96 356.88C273.68 357.573 273.04 358.533 273.04 359.76C273.04 360.933 273.653 361.813 274.88 362.4C276.107 362.987 278.107 363.627 280.88 364.32L283.12 364.88L285.76 365.6C289.92 366.827 293.2 368.4 295.6 370.32C298 372.293 299.2 375.12 299.2 378.8C299.2 383.12 297.493 386.507 294.08 388.96C290.613 391.413 286 392.64 280.24 392.64ZM332.24 355.68C332.24 355.947 332.133 356.187 331.92 356.4C331.707 356.613 331.44 356.72 331.12 356.72H322.72C322.4 356.72 322.24 356.853 322.24 357.12V375.84C322.24 377.76 322.64 379.2 323.44 380.16C324.24 381.067 325.52 381.52 327.28 381.52H330.16C330.48 381.52 330.747 381.627 330.96 381.84C331.173 382.053 331.28 382.293 331.28 382.56V390.96C331.28 391.6 330.907 391.973 330.16 392.08C327.707 392.187 325.947 392.24 324.88 392.24C320.027 392.24 316.4 391.44 314 389.84C311.6 388.24 310.373 385.2 310.32 380.72V357.12C310.32 356.853 310.16 356.72 309.84 356.72H304.88C304.56 356.72 304.293 356.613 304.08 356.4C303.867 356.187 303.76 355.947 303.76 355.68V347.84C303.76 347.52 303.867 347.253 304.08 347.04C304.293 346.88 304.56 346.8 304.88 346.8H309.84C310.16 346.8 310.32 346.64 310.32 346.32V335.84C310.32 335.573 310.427 335.333 310.64 335.12C310.8 334.907 311.04 334.8 311.36 334.8H321.2C321.52 334.8 321.787 334.907 322 335.12C322.16 335.333 322.24 335.573 322.24 335.84V346.32C322.24 346.64 322.4 346.8 322.72 346.8H331.12C331.44 346.8 331.707 346.88 331.92 347.04C332.133 347.253 332.24 347.52 332.24 347.84V355.68ZM397.68 331.12C398 330.64 398.4 330.4 398.88 330.4H409.2C409.52 330.4 409.787 330.507 410 330.72C410.16 330.933 410.24 331.173 410.24 331.44V390.96C410.24 391.227 410.16 391.467 410 391.68C409.787 391.893 409.52 392 409.2 392H398.88C398.613 392 398.373 391.893 398.16 391.68C397.947 391.467 397.84 391.227 397.84 390.96V352.16C397.84 351.893 397.787 351.76 397.68 351.76C397.573 351.76 397.467 351.867 397.36 352.08L388 366.64C387.733 367.12 387.333 367.36 386.8 367.36H381.6C381.067 367.36 380.64 367.12 380.32 366.64L371.04 352.08C370.933 351.867 370.8 351.787 370.64 351.84C370.533 351.84 370.48 351.973 370.48 352.24V390.96C370.48 391.227 370.373 391.467 370.16 391.68C369.947 391.893 369.707 392 369.44 392H359.12C358.853 392 358.613 391.893 358.4 391.68C358.187 391.467 358.08 391.227 358.08 390.96V331.44C358.08 331.173 358.187 330.933 358.4 330.72C358.613 330.507 358.853 330.4 359.12 330.4H369.44C369.973 330.4 370.373 330.64 370.64 331.12L383.84 351.6C384.053 351.973 384.24 351.973 384.4 351.6L397.68 331.12ZM460.24 364.72C460.613 366.96 460.747 369.467 460.64 372.24C460.533 372.933 460.133 373.28 459.44 373.28H432.24C431.92 373.28 431.813 373.413 431.92 373.68C432.08 374.853 432.4 376.027 432.88 377.2C434.427 380.507 437.547 382.16 442.24 382.16C445.973 382.107 448.933 380.587 451.12 377.6C451.333 377.227 451.6 377.04 451.92 377.04C452.08 377.04 452.267 377.147 452.48 377.36L458.88 383.68C459.147 383.947 459.28 384.187 459.28 384.4C459.28 384.56 459.173 384.8 458.96 385.12C456.987 387.52 454.48 389.387 451.44 390.72C448.4 392.053 445.067 392.72 441.44 392.72C436.373 392.72 432.107 391.573 428.64 389.28C425.12 386.987 422.613 383.787 421.12 379.68C419.893 376.747 419.28 372.907 419.28 368.16C419.28 364.907 419.707 362.053 420.56 359.6C421.893 355.44 424.267 352.133 427.68 349.68C431.04 347.227 435.04 346 439.68 346C445.547 346 450.24 347.707 453.76 351.12C457.333 354.48 459.493 359.013 460.24 364.72ZM439.76 356.72C436.08 356.72 433.653 358.453 432.48 361.92C432.213 362.667 432 363.6 431.84 364.72C431.84 365.04 431.973 365.2 432.24 365.2H447.52C447.84 365.2 447.947 365.04 447.84 364.72C447.573 363.013 447.44 362.187 447.44 362.24C446.907 360.48 445.973 359.12 444.64 358.16C443.307 357.2 441.68 356.72 439.76 356.72ZM508.32 364.72C508.64 366.96 508.747 369.467 508.64 372.24C508.587 372.933 508.213 373.28 507.52 373.28H480.32C479.947 373.28 479.84 373.413 480 373.68C480.16 374.853 480.48 376.027 480.96 377.2C482.453 380.507 485.547 382.16 490.24 382.16C494.027 382.107 496.987 380.587 499.12 377.6C499.387 377.227 499.653 377.04 499.92 377.04C500.133 377.04 500.347 377.147 500.56 377.36L506.88 383.68C507.2 383.947 507.36 384.187 507.36 384.4C507.36 384.56 507.227 384.8 506.96 385.12C505.04 387.52 502.56 389.387 499.52 390.72C496.48 392.053 493.12 392.72 489.44 392.72C484.427 392.72 480.16 391.573 476.64 389.28C473.173 386.987 470.667 383.787 469.12 379.68C467.893 376.747 467.28 372.907 467.28 368.16C467.28 364.907 467.733 362.053 468.64 359.6C469.973 355.44 472.32 352.133 475.68 349.68C479.04 347.227 483.04 346 487.68 346C493.547 346 498.267 347.707 501.84 351.12C505.36 354.48 507.52 359.013 508.32 364.72ZM487.76 356.72C484.08 356.72 481.653 358.453 480.48 361.92C480.267 362.667 480.053 363.6 479.84 364.72C479.84 365.04 480 365.2 480.32 365.2H495.52C495.893 365.2 496.027 365.04 495.92 364.72C495.6 363.013 495.44 362.187 495.44 362.24C494.907 360.48 494 359.12 492.72 358.16C491.387 357.2 489.733 356.72 487.76 356.72ZM541.2 355.68C541.2 355.947 541.093 356.187 540.88 356.4C540.72 356.613 540.48 356.72 540.16 356.72H531.68C531.413 356.72 531.28 356.853 531.28 357.12V375.84C531.28 377.76 531.68 379.2 532.48 380.16C533.28 381.067 534.56 381.52 536.32 381.52H539.2C539.467 381.52 539.707 381.627 539.92 381.84C540.133 382.053 540.24 382.293 540.24 382.56V390.96C540.24 391.6 539.893 391.973 539.2 392.08C536.747 392.187 534.987 392.24 533.92 392.24C529.067 392.24 525.413 391.44 522.96 389.84C520.56 388.24 519.333 385.2 519.28 380.72V357.12C519.28 356.853 519.147 356.72 518.88 356.72H513.84C513.573 356.72 513.333 356.613 513.12 356.4C512.907 356.187 512.8 355.947 512.8 355.68V347.84C512.8 347.52 512.907 347.253 513.12 347.04C513.333 346.88 513.573 346.8 513.84 346.8H518.88C519.147 346.8 519.28 346.64 519.28 346.32V335.84C519.28 335.573 519.387 335.333 519.6 335.12C519.813 334.907 520.053 334.8 520.32 334.8H530.24C530.507 334.8 530.747 334.907 530.96 335.12C531.173 335.333 531.28 335.573 531.28 335.84V346.32C531.28 346.64 531.413 346.8 531.68 346.8H540.16C540.48 346.8 540.72 346.88 540.88 347.04C541.093 347.253 541.2 347.52 541.2 347.84V355.68ZM566.72 392.64C562.827 392.64 559.387 392.08 556.4 390.96C553.467 389.84 551.2 388.293 549.6 386.32C548 384.293 547.2 382.027 547.2 379.52V378.64C547.2 378.32 547.307 378.053 547.52 377.84C547.733 377.68 547.973 377.6 548.24 377.6H558C558.32 377.6 558.587 377.68 558.8 377.84C558.96 378.053 559.04 378.32 559.04 378.64V378.72C559.04 380 559.76 381.093 561.2 382C562.64 382.907 564.453 383.36 566.64 383.36C568.613 383.36 570.24 382.96 571.52 382.16C572.747 381.36 573.36 380.4 573.36 379.28C573.36 378.213 572.827 377.413 571.76 376.88C570.693 376.347 568.96 375.787 566.56 375.2C563.787 374.507 561.627 373.84 560.08 373.2C556.293 371.867 553.28 370.267 551.04 368.4C548.853 366.533 547.76 363.84 547.76 360.32C547.76 356 549.44 352.56 552.8 350C556.16 347.44 560.64 346.16 566.24 346.16C569.973 346.16 573.253 346.747 576.08 347.92C578.907 349.147 581.093 350.853 582.64 353.04C584.187 355.173 584.96 357.627 584.96 360.4C584.96 360.72 584.853 360.96 584.64 361.12C584.427 361.333 584.187 361.44 583.92 361.44H574.48C574.16 361.44 573.92 361.333 573.76 361.12C573.547 360.96 573.44 360.72 573.44 360.4C573.44 359.12 572.773 358.027 571.44 357.12C570.107 356.267 568.373 355.84 566.24 355.84C564.267 355.84 562.667 356.187 561.44 356.88C560.213 357.573 559.6 358.533 559.6 359.76C559.6 360.933 560.213 361.813 561.44 362.4C562.613 362.987 564.613 363.627 567.44 364.32C568.08 364.48 568.8 364.667 569.6 364.88C570.453 365.093 571.333 365.333 572.24 365.6C576.453 366.827 579.76 368.4 582.16 370.32C584.56 372.293 585.76 375.12 585.76 378.8C585.76 383.12 584.027 386.507 580.56 388.96C577.147 391.413 572.533 392.64 566.72 392.64Z" fill="#252530"/>
<path d="M249.6 603.2C249.013 603.2 248.64 602.933 248.48 602.4L233.92 548.24L233.84 547.92C233.84 547.44 234.133 547.2 234.72 547.2H242.56C243.147 547.2 243.52 547.467 243.68 548L252.8 584.48C252.853 584.64 252.933 584.72 253.04 584.72C253.147 584.72 253.227 584.64 253.28 584.48L262 548C262.16 547.467 262.507 547.2 263.04 547.2H270.72C271.307 547.2 271.68 547.467 271.84 548L281.12 584.56C281.173 584.72 281.253 584.8 281.36 584.8C281.467 584.8 281.547 584.72 281.6 584.56L290.56 548C290.72 547.467 291.093 547.2 291.68 547.2H299.12C299.867 547.2 300.16 547.547 300 548.24L286.16 602.4C286 602.933 285.627 603.2 285.04 603.2H277.6C277.013 603.2 276.64 602.933 276.48 602.4L267.12 564.24C267.067 564.08 266.987 563.973 266.88 563.92C266.773 563.92 266.693 564.027 266.64 564.24L257.68 602.4C257.52 602.933 257.173 603.2 256.64 603.2H249.6ZM308.88 603.2C308.613 603.2 308.373 603.093 308.16 602.88C308 602.72 307.92 602.507 307.92 602.24V548.16C307.92 547.893 308 547.68 308.16 547.52C308.373 547.307 308.613 547.2 308.88 547.2H316.24C316.507 547.2 316.72 547.307 316.88 547.52C317.093 547.68 317.2 547.893 317.2 548.16V602.24C317.2 602.507 317.093 602.72 316.88 602.88C316.72 603.093 316.507 603.2 316.24 603.2H308.88ZM361.44 548.16C361.44 547.893 361.52 547.68 361.68 547.52C361.893 547.307 362.133 547.2 362.4 547.2H369.76C370.027 547.2 370.24 547.307 370.4 547.52C370.613 547.68 370.72 547.893 370.72 548.16V602.24C370.72 602.507 370.613 602.72 370.4 602.88C370.24 603.093 370.027 603.2 369.76 603.2H362.64C362.107 603.2 361.733 602.987 361.52 602.56L338.48 564.8C338.373 564.64 338.267 564.56 338.16 564.56C338.053 564.613 338 564.747 338 564.96L338.16 602.24C338.16 602.507 338.053 602.72 337.84 602.88C337.68 603.093 337.467 603.2 337.2 603.2H329.84C329.573 603.2 329.333 603.093 329.12 602.88C328.96 602.72 328.88 602.507 328.88 602.24V548.16C328.88 547.893 328.96 547.68 329.12 547.52C329.333 547.307 329.573 547.2 329.84 547.2H336.96C337.493 547.2 337.867 547.413 338.08 547.84L361.04 585.6C361.147 585.76 361.253 585.813 361.36 585.76C361.467 585.76 361.52 585.653 361.52 585.44L361.44 548.16ZM419.2 547.2C419.467 547.2 419.68 547.307 419.84 547.52C420.053 547.68 420.16 547.893 420.16 548.16V554.32C420.16 554.587 420.053 554.8 419.84 554.96C419.68 555.173 419.467 555.28 419.2 555.28H404.48C404.213 555.28 404.08 555.413 404.08 555.68V602.24C404.08 602.507 404 602.72 403.84 602.88C403.627 603.093 403.387 603.2 403.12 603.2H395.76C395.493 603.2 395.28 603.093 395.12 602.88C394.907 602.72 394.8 602.507 394.8 602.24V555.68C394.8 555.413 394.667 555.28 394.4 555.28H380.24C379.973 555.28 379.733 555.173 379.52 554.96C379.36 554.8 379.28 554.587 379.28 554.32V548.16C379.28 547.893 379.36 547.68 379.52 547.52C379.733 547.307 379.973 547.2 380.24 547.2H419.2ZM466.64 554.24C466.64 554.507 466.533 554.72 466.32 554.88C466.16 555.093 465.947 555.2 465.68 555.2H438.4C438.133 555.2 438 555.333 438 555.6V570.56C438 570.827 438.133 570.96 438.4 570.96H456.72C456.987 570.96 457.227 571.04 457.44 571.2C457.6 571.413 457.68 571.653 457.68 571.92V578C457.68 578.267 457.6 578.507 457.44 578.72C457.227 578.88 456.987 578.96 456.72 578.96H438.4C438.133 578.96 438 579.093 438 579.36V594.8C438 595.067 438.133 595.2 438.4 595.2H465.68C465.947 595.2 466.16 595.307 466.32 595.52C466.533 595.68 466.64 595.893 466.64 596.16V602.24C466.64 602.507 466.533 602.72 466.32 602.88C466.16 603.093 465.947 603.2 465.68 603.2H429.68C429.413 603.2 429.173 603.093 428.96 602.88C428.8 602.72 428.72 602.507 428.72 602.24V548.16C428.72 547.893 428.8 547.68 428.96 547.52C429.173 547.307 429.413 547.2 429.68 547.2H465.68C465.947 547.2 466.16 547.307 466.32 547.52C466.533 547.68 466.64 547.893 466.64 548.16V554.24ZM507.52 603.2C506.987 603.2 506.613 602.96 506.4 602.48L495.84 579.44C495.733 579.227 495.573 579.12 495.36 579.12H485.76C485.493 579.12 485.36 579.253 485.36 579.52V602.24C485.36 602.507 485.253 602.72 485.04 602.88C484.88 603.093 484.667 603.2 484.4 603.2H477.04C476.773 603.2 476.533 603.093 476.32 602.88C476.16 602.72 476.08 602.507 476.08 602.24V548.16C476.08 547.893 476.16 547.68 476.32 547.52C476.533 547.307 476.773 547.2 477.04 547.2H499.04C502.293 547.2 505.173 547.867 507.68 549.2C510.187 550.587 512.133 552.507 513.52 554.96C514.907 557.467 515.6 560.32 515.6 563.52C515.6 567.2 514.64 570.32 512.72 572.88C510.853 575.493 508.24 577.307 504.88 578.32C504.773 578.32 504.693 578.373 504.64 578.48C504.587 578.587 504.587 578.693 504.64 578.8L515.92 602.08C516.027 602.293 516.08 602.453 516.08 602.56C516.08 602.987 515.787 603.2 515.2 603.2H507.52ZM485.76 555.2C485.493 555.2 485.36 555.333 485.36 555.6V571.52C485.36 571.787 485.493 571.92 485.76 571.92H497.76C500.32 571.92 502.4 571.147 504 569.6C505.547 568.107 506.32 566.107 506.32 563.6C506.32 561.093 505.547 559.067 504 557.52C502.4 555.973 500.32 555.2 497.76 555.2H485.76Z" fill="#242530"/>
<path d="M270.88 747.68C270.72 747.84 270.667 748 270.72 748.16C270.827 748.32 270.987 748.4 271.2 748.4H302.64C303.013 748.4 303.333 748.533 303.6 748.8C303.92 749.067 304.08 749.387 304.08 749.76V761.04C304.08 761.413 303.92 761.733 303.6 762C303.333 762.267 303.013 762.4 302.64 762.4H250.48C250.053 762.4 249.707 762.267 249.44 762C249.173 761.733 249.04 761.413 249.04 761.04V750.32C249.04 749.627 249.28 749.04 249.76 748.56C253.547 744.88 257.413 740.853 261.36 736.48C265.307 732.107 267.787 729.387 268.8 728.32C270.933 725.76 273.12 723.307 275.36 720.96C282.4 713.173 285.92 707.387 285.92 703.6C285.92 700.88 284.96 698.64 283.04 696.88C281.12 695.173 278.613 694.32 275.52 694.32C272.427 694.32 269.92 695.173 268 696.88C266.027 698.64 265.04 700.96 265.04 703.84V706.72C265.04 707.093 264.907 707.413 264.64 707.68C264.373 707.947 264.053 708.08 263.68 708.08H250C249.627 708.08 249.307 707.947 249.04 707.68C248.72 707.413 248.56 707.093 248.56 706.72V701.28C248.827 697.12 250.16 693.413 252.56 690.16C254.96 686.96 258.133 684.507 262.08 682.8C266.08 681.093 270.56 680.24 275.52 680.24C281.013 680.24 285.787 681.28 289.84 683.36C293.893 685.387 297.013 688.133 299.2 691.6C301.44 695.12 302.56 698.987 302.56 703.2C302.56 706.453 301.733 709.787 300.08 713.2C298.48 716.613 296.053 720.293 292.8 724.24C290.4 727.227 287.813 730.213 285.04 733.2C282.267 736.133 278.133 740.373 272.64 745.92L270.88 747.68ZM341.76 763.68C333.227 763.68 326.507 761.307 321.6 756.56C316.64 751.813 314.16 745.333 314.16 737.12V706.48C314.16 698.427 316.64 692.053 321.6 687.36C326.507 682.613 333.227 680.24 341.76 680.24C350.24 680.24 356.987 682.613 362 687.36C366.96 692.053 369.44 698.427 369.44 706.48V737.12C369.44 745.333 366.96 751.813 362 756.56C356.987 761.307 350.24 763.68 341.76 763.68ZM341.76 749.68C345.227 749.68 347.973 748.613 350 746.48C352.08 744.347 353.12 741.493 353.12 737.92V706C353.12 702.48 352.08 699.653 350 697.52C347.973 695.387 345.227 694.32 341.76 694.32C338.347 694.32 335.627 695.387 333.6 697.52C331.52 699.653 330.48 702.48 330.48 706V737.92C330.48 741.493 331.52 744.347 333.6 746.48C335.627 748.613 338.347 749.68 341.76 749.68ZM401.92 747.68C401.76 747.84 401.733 748 401.84 748.16C401.893 748.32 402.053 748.4 402.32 748.4H433.76C434.133 748.4 434.453 748.533 434.72 748.8C434.987 749.067 435.12 749.387 435.12 749.76V761.04C435.12 761.413 434.987 761.733 434.72 762C434.453 762.267 434.133 762.4 433.76 762.4H381.52C381.147 762.4 380.827 762.267 380.56 762C380.293 761.733 380.16 761.413 380.16 761.04V750.32C380.16 749.627 380.373 749.04 380.8 748.56C384.64 744.88 388.507 740.853 392.4 736.48C396.347 732.107 398.827 729.387 399.84 728.32C402.027 725.76 404.24 723.307 406.48 720.96C413.52 713.173 417.04 707.387 417.04 703.6C417.04 700.88 416.08 698.64 414.16 696.88C412.187 695.173 409.653 694.32 406.56 694.32C403.467 694.32 400.96 695.173 399.04 696.88C397.12 698.64 396.16 700.96 396.16 703.84V706.72C396.16 707.093 396.027 707.413 395.76 707.68C395.493 707.947 395.147 708.08 394.72 708.08H381.04C380.667 708.08 380.347 707.947 380.08 707.68C379.813 707.413 379.68 707.093 379.68 706.72V701.28C379.893 697.12 381.2 693.413 383.6 690.16C386 686.96 389.2 684.507 393.2 682.8C397.2 681.093 401.653 680.24 406.56 680.24C412.053 680.24 416.827 681.28 420.88 683.36C424.987 685.387 428.133 688.133 430.32 691.6C432.507 695.12 433.6 698.987 433.6 703.2C433.6 706.453 432.8 709.787 431.2 713.2C429.547 716.613 427.093 720.293 423.84 724.24C421.44 727.227 418.853 730.213 416.08 733.2C413.307 736.133 409.173 740.373 403.68 745.92L401.92 747.68ZM496.8 725.36C497.973 729.147 498.56 732.827 498.56 736.4C498.56 740.347 497.947 743.92 496.72 747.12C494.96 752.027 491.84 755.947 487.36 758.88C482.827 761.76 477.547 763.2 471.52 763.2C465.653 763.2 460.507 761.787 456.08 758.96C451.6 756.133 448.453 752.293 446.64 747.44C445.84 745.413 445.253 743.28 444.88 741.04V740.8C444.88 739.947 445.333 739.52 446.24 739.52H460.32C461.067 739.52 461.573 739.947 461.84 740.8C461.893 741.28 462 741.68 462.16 742C462.32 742.32 462.427 742.587 462.48 742.8C463.28 744.827 464.453 746.373 466 747.44C467.547 748.507 469.36 749.04 471.44 749.04C473.627 749.04 475.52 748.453 477.12 747.28C478.72 746.16 479.92 744.56 480.72 742.48C481.467 740.933 481.84 738.907 481.84 736.4C481.84 734.16 481.493 732.16 480.8 730.4C480.267 728.373 479.2 726.827 477.6 725.76C475.947 724.64 474.053 724.08 471.92 724.08C469.733 724.08 467.707 724.587 465.84 725.6C464.027 726.613 462.8 727.947 462.16 729.6C461.947 730.347 461.44 730.72 460.64 730.72H446.4C445.973 730.72 445.627 730.587 445.36 730.32C445.093 730.053 444.96 729.733 444.96 729.36V682.56C444.96 682.187 445.093 681.867 445.36 681.6C445.627 681.333 445.973 681.2 446.4 681.2H494.32C494.693 681.2 495.013 681.333 495.28 681.6C495.547 681.867 495.68 682.187 495.68 682.56V693.84C495.68 694.213 495.547 694.533 495.28 694.8C495.013 695.067 494.693 695.2 494.32 695.2H461.92C461.547 695.2 461.36 695.413 461.36 695.84L461.2 712.96C461.2 713.493 461.44 713.627 461.92 713.36C465.387 711.12 469.413 710 474 710C479.387 710 484.107 711.36 488.16 714.08C492.267 716.853 495.147 720.613 496.8 725.36Z" fill="#252530"/>
</svg>
