<svg width="752" height="976" viewBox="0 0 752 976" fill="none" xmlns="http://www.w3.org/2000/svg">
<path d="M64.8 719.2L380.8 880L684.8 719.2V90.4H64.8V719.2Z" fill="white"/>
<path d="M691.2 92.8L58.3999 730.4L386.4 892.8L691.2 736.8V92.8Z" fill="#F2F3F2"/>
<path d="M44 300V732.8L55.2 738.4L371.2 899.2L380.8 904L390.4 899.2L695.2 738.4L706.4 732.8V69.6H44V300ZM64.8 720.8V90.4H685.6V720.8L380.8 881.6L64.8 720.8Z" fill="#DCDEDC"/>
<path d="M375.2 100.8C378.4 100.8 381.6 100.8 384.8 101.6L375.2 120C360.8 119.2 348 130.4 347.2 144.8C346.4 159.2 357.6 172 372 172.8H375.2C381.6 172.8 388 170.4 392.8 166.4L403.2 184C395.2 189.6 385.6 192.8 375.2 192.8C349.6 193.6 328 174.4 327.2 148.8C326.4 123.2 345.6 101.6 371.2 100.8H375.2ZM408 140L420 160L408 179.2L396.8 160H373.6L385.6 140H408ZM388.8 132.8C388.8 129.6 389.6 126.4 391.2 124C392.8 121.6 396 119.2 398.4 117.6L400 116.8C403.2 115.2 404 114.4 404 112.8C404 111.2 401.6 109.6 400 109.6C396.8 109.6 394.4 111.2 392.8 114.4L388.8 110.4C389.6 108.8 391.2 107.2 392.8 105.6C395.2 104 397.6 104 400 104C402.4 104 405.6 104.8 407.2 106.4C408.8 108 410.4 110.4 410.4 112.8C410.4 116.8 408 120 403.2 121.6L400.8 123.2C398.4 124.8 396.8 125.6 396 128H410.4V133.6L388.8 132.8ZM375.2 232.8L451.2 189.6V69.6H298.4V188.8L375.2 232.8ZM721.6 516H28.7999L3.19995 572L28.7999 628H721.6L746.4 572L721.6 516Z" fill="#FF492C"/>
<path d="M138.4 395.92C143.68 395.92 148.32 396.987 152.32 399.12C156.32 401.253 159.413 404.32 161.6 408.32C163.787 412.267 164.88 416.8 164.88 421.92C164.88 426.987 163.76 431.44 161.52 435.28C159.227 439.067 156.027 442.027 151.92 444.16C147.813 446.293 143.067 447.36 137.68 447.36H120.64C120.267 447.36 120.08 447.573 120.08 448V478.56C120.08 478.987 119.92 479.333 119.6 479.6C119.333 479.867 118.987 480 118.56 480H104.56C104.133 480 103.787 479.867 103.52 479.6C103.253 479.333 103.12 478.987 103.12 478.56V397.36C103.12 396.933 103.253 396.587 103.52 396.32C103.787 396.053 104.133 395.92 104.56 395.92H138.4ZM135.84 433.84C139.573 433.84 142.533 432.773 144.72 430.64C146.96 428.507 148.08 425.733 148.08 422.32C148.08 418.747 146.96 415.893 144.72 413.76C142.533 411.573 139.573 410.48 135.84 410.48H120.64C120.267 410.48 120.08 410.693 120.08 411.12V433.2C120.08 433.627 120.267 433.84 120.64 433.84H135.84ZM225.44 442.8C225.867 445.84 226 449.227 225.84 452.96C225.787 453.973 225.28 454.48 224.32 454.48H187.28C186.8 454.48 186.613 454.667 186.72 455.04C186.987 456.64 187.44 458.24 188.08 459.84C190.16 464.32 194.4 466.56 200.8 466.56C205.92 466.507 209.947 464.427 212.88 460.32C213.253 459.84 213.627 459.6 214 459.6C214.213 459.6 214.48 459.76 214.8 460.08L223.44 468.56C223.867 468.987 224.08 469.36 224.08 469.68C224.08 469.84 223.92 470.16 223.6 470.64C220.933 473.947 217.547 476.48 213.44 478.24C209.227 480.053 204.64 480.96 199.68 480.96C192.853 480.96 187.04 479.413 182.24 476.32C177.493 473.173 174.08 468.8 172 463.2C170.293 459.2 169.44 453.973 169.44 447.52C169.44 443.093 170.053 439.2 171.28 435.84C173.147 430.187 176.373 425.68 180.96 422.32C185.547 418.96 190.987 417.28 197.28 417.28C205.28 417.28 211.707 419.6 216.56 424.24C221.413 428.88 224.373 435.067 225.44 442.8ZM197.44 431.92C192.373 431.92 189.04 434.267 187.44 438.96C187.12 440.027 186.853 441.307 186.64 442.8C186.64 443.173 186.853 443.36 187.28 443.36H208C208.48 443.36 208.64 443.173 208.48 442.8C208.053 440.507 207.84 439.387 207.84 439.44C207.147 437.04 205.893 435.173 204.08 433.84C202.32 432.56 200.107 431.92 197.44 431.92ZM267.04 417.52C269.92 417.52 272.213 418.08 273.92 419.2C274.507 419.52 274.72 420.107 274.56 420.96L272.08 434.64C272.027 435.6 271.467 435.893 270.4 435.52C269.173 435.093 267.787 434.88 266.24 434.88C265.6 434.88 264.693 434.96 263.52 435.12C260.693 435.387 258.267 436.453 256.24 438.32C254.267 440.187 253.28 442.693 253.28 445.84V478.56C253.28 478.987 253.12 479.333 252.8 479.6C252.533 479.867 252.213 480 251.84 480H237.76C237.387 480 237.04 479.867 236.72 479.6C236.453 479.333 236.32 478.987 236.32 478.56V419.76C236.32 419.387 236.453 419.04 236.72 418.72C237.04 418.453 237.387 418.32 237.76 418.32H251.84C252.213 418.32 252.533 418.453 252.8 418.72C253.12 419.04 253.28 419.387 253.28 419.76V424.32C253.28 424.533 253.36 424.693 253.52 424.8C253.627 424.907 253.733 424.853 253.84 424.64C257.147 419.893 261.547 417.52 267.04 417.52ZM318.16 418.24C318.587 418.24 318.933 418.373 319.2 418.64C319.467 418.907 319.6 419.253 319.6 419.68V431.04C319.6 431.467 319.467 431.813 319.2 432.08C318.933 432.347 318.587 432.48 318.16 432.48H306.56C306.133 432.48 305.92 432.667 305.92 433.04V478.56C305.92 478.987 305.787 479.333 305.52 479.6C305.253 479.867 304.907 480 304.48 480H290.48C290.053 480 289.707 479.867 289.44 479.6C289.173 479.333 289.04 478.987 289.04 478.56V433.04C289.04 432.667 288.827 432.48 288.4 432.48H281.36C280.933 432.48 280.587 432.347 280.32 432.08C280.053 431.813 279.92 431.467 279.92 431.04V419.68C279.92 419.253 280.053 418.907 280.32 418.64C280.587 418.373 280.933 418.24 281.36 418.24H288.4C288.827 418.24 289.04 418.027 289.04 417.6V414.96C289.04 410 289.787 406.133 291.28 403.36C292.827 400.64 295.28 398.693 298.64 397.52C302.053 396.347 306.773 395.84 312.8 396H317.36C317.733 396 318.053 396.133 318.32 396.4C318.64 396.72 318.8 397.067 318.8 397.44V407.12C318.8 407.547 318.64 407.893 318.32 408.16C318.053 408.48 317.733 408.64 317.36 408.64H313.36C310.587 408.693 308.64 409.253 307.52 410.32C306.453 411.44 305.92 413.44 305.92 416.32V417.6C305.92 418.027 306.133 418.24 306.56 418.24H318.16ZM352.96 480.96C346.24 480.96 340.48 479.2 335.68 475.68C330.88 472.16 327.6 467.36 325.84 461.28C324.72 457.547 324.16 453.467 324.16 449.04C324.16 444.347 324.72 440.107 325.84 436.32C327.707 430.4 331.04 425.76 335.84 422.4C340.64 419.04 346.4 417.36 353.12 417.36C359.627 417.36 365.227 419.013 369.92 422.32C374.507 425.68 377.76 430.32 379.68 436.24C381.013 440.24 381.68 444.427 381.68 448.8C381.68 453.12 381.12 457.173 380 460.96C378.24 467.2 374.96 472.08 370.16 475.6C365.413 479.173 359.68 480.96 352.96 480.96ZM352.96 466.48C355.573 466.48 357.813 465.68 359.68 464.08C361.547 462.48 362.88 460.267 363.68 457.44C364.267 454.88 364.56 452.08 364.56 449.04C364.56 445.68 364.267 442.853 363.68 440.56C362.773 437.84 361.413 435.707 359.6 434.16C357.733 432.667 355.467 431.92 352.8 431.92C350.133 431.92 347.893 432.667 346.08 434.16C344.267 435.707 342.96 437.84 342.16 440.56C341.52 442.427 341.2 445.253 341.2 449.04C341.2 452.667 341.493 455.467 342.08 457.44C342.88 460.267 344.213 462.48 346.08 464.08C347.947 465.68 350.24 466.48 352.96 466.48ZM423.28 417.52C426.16 417.52 428.453 418.08 430.16 419.2C430.8 419.52 431.013 420.107 430.8 420.96L428.32 434.64C428.267 435.6 427.707 435.893 426.64 435.52C425.413 435.093 424.027 434.88 422.48 434.88C421.84 434.88 420.96 434.96 419.84 435.12C416.96 435.387 414.507 436.453 412.48 438.32C410.507 440.187 409.52 442.693 409.52 445.84V478.56C409.52 478.987 409.36 479.333 409.04 479.6C408.773 479.867 408.427 480 408 480H394C393.627 480 393.28 479.867 392.96 479.6C392.693 479.333 392.56 478.987 392.56 478.56V419.76C392.56 419.387 392.693 419.04 392.96 418.72C393.28 418.453 393.627 418.32 394 418.32H408C408.427 418.32 408.773 418.453 409.04 418.72C409.36 419.04 409.52 419.387 409.52 419.76V424.32C409.52 424.533 409.573 424.693 409.68 424.8C409.893 424.907 410.027 424.853 410.08 424.64C413.387 419.893 417.787 417.52 423.28 417.52ZM506.88 417.36C513.12 417.36 518 419.227 521.52 422.96C525.04 426.747 526.8 432.053 526.8 438.88V478.56C526.8 478.987 526.667 479.333 526.4 479.6C526.133 479.867 525.813 480 525.44 480H511.36C510.987 480 510.64 479.867 510.32 479.6C510.053 479.333 509.92 478.987 509.92 478.56V442.56C509.92 439.307 509.093 436.72 507.44 434.8C505.733 432.88 503.467 431.92 500.64 431.92C497.867 431.92 495.6 432.88 493.84 434.8C492.08 436.72 491.2 439.28 491.2 442.48V478.56C491.2 478.987 491.067 479.333 490.8 479.6C490.48 479.867 490.133 480 489.76 480H475.84C475.413 480 475.067 479.867 474.8 479.6C474.533 479.333 474.4 478.987 474.4 478.56V442.56C474.4 439.36 473.52 436.773 471.76 434.8C470 432.88 467.707 431.92 464.88 431.92C462.373 431.92 460.24 432.667 458.48 434.16C456.773 435.707 455.76 437.84 455.44 440.56V478.56C455.44 478.987 455.307 479.333 455.04 479.6C454.72 479.867 454.373 480 454 480H440C439.573 480 439.227 479.867 438.96 479.6C438.693 479.333 438.56 478.987 438.56 478.56V419.76C438.56 419.387 438.693 419.04 438.96 418.72C439.227 418.453 439.573 418.32 440 418.32H454C454.373 418.32 454.72 418.453 455.04 418.72C455.307 419.04 455.44 419.387 455.44 419.76V424.48C455.44 424.693 455.52 424.853 455.68 424.96C455.84 425.013 456 424.907 456.16 424.64C459.467 419.787 464.56 417.36 471.44 417.36C475.44 417.36 478.933 418.213 481.92 419.92C484.907 421.573 487.2 423.973 488.8 427.12C489.013 427.6 489.307 427.6 489.68 427.12C491.387 423.813 493.76 421.36 496.8 419.76C499.787 418.16 503.147 417.36 506.88 417.36ZM592.96 442.8C593.44 445.84 593.6 449.227 593.44 452.96C593.333 453.973 592.8 454.48 591.84 454.48H554.8C554.32 454.48 554.16 454.667 554.32 455.04C554.533 456.64 554.96 458.24 555.6 459.84C557.68 464.32 561.92 466.56 568.32 466.56C573.44 466.507 577.493 464.427 580.48 460.32C580.8 459.84 581.147 459.6 581.52 459.6C581.787 459.6 582.08 459.76 582.4 460.08L591.04 468.56C591.413 468.987 591.6 469.36 591.6 469.68C591.6 469.84 591.44 470.16 591.12 470.64C588.507 473.947 585.12 476.48 580.96 478.24C576.8 480.053 572.24 480.96 567.28 480.96C560.4 480.96 554.587 479.413 549.84 476.32C545.04 473.173 541.6 468.8 539.52 463.2C537.867 459.2 537.04 453.973 537.04 447.52C537.04 443.093 537.627 439.2 538.8 435.84C540.667 430.187 543.893 425.68 548.48 422.32C553.067 418.96 558.533 417.28 564.88 417.28C572.88 417.28 579.307 419.6 584.16 424.24C589.013 428.88 591.947 435.067 592.96 442.8ZM564.96 431.92C559.947 431.92 556.64 434.267 555.04 438.96C554.72 440.027 554.427 441.307 554.16 442.8C554.16 443.173 554.373 443.36 554.8 443.36H575.52C576 443.36 576.16 443.173 576 442.8C575.627 440.507 575.44 439.387 575.44 439.44C574.693 437.04 573.44 435.173 571.68 433.84C569.867 432.56 567.627 431.92 564.96 431.92ZM634.56 417.52C637.44 417.52 639.733 418.08 641.44 419.2C642.08 419.52 642.32 420.107 642.16 420.96L639.68 434.64C639.573 435.6 638.987 435.893 637.92 435.52C636.747 435.093 635.36 434.88 633.76 434.88C633.12 434.88 632.24 434.96 631.12 435.12C628.24 435.387 625.787 436.453 623.76 438.32C621.787 440.187 620.8 442.693 620.8 445.84V478.56C620.8 478.987 620.667 479.333 620.4 479.6C620.08 479.867 619.733 480 619.36 480H605.28C604.907 480 604.587 479.867 604.32 479.6C604 479.333 603.84 478.987 603.84 478.56V419.76C603.84 419.387 604 419.04 604.32 418.72C604.587 418.453 604.907 418.32 605.28 418.32H619.36C619.733 418.32 620.08 418.453 620.4 418.72C620.667 419.04 620.8 419.387 620.8 419.76V424.32C620.8 424.533 620.88 424.693 621.04 424.8C621.2 424.907 621.333 424.853 621.44 424.64C624.693 419.893 629.067 417.52 634.56 417.52ZM304.48 277.44C304.48 277.067 304.613 276.72 304.88 276.4C305.147 276.133 305.467 276 305.84 276H319.92C320.293 276 320.64 276.133 320.96 276.4C321.227 276.72 321.36 277.067 321.36 277.44V358.56C321.36 358.987 321.227 359.333 320.96 359.6C320.64 359.867 320.293 360 319.92 360H305.84C305.467 360 305.147 359.867 304.88 359.6C304.613 359.333 304.48 358.987 304.48 358.56V325.44C304.48 325.067 304.267 324.88 303.84 324.88H277.28C276.907 324.88 276.72 325.067 276.72 325.44V358.56C276.72 358.987 276.587 359.333 276.32 359.6C276 359.867 275.653 360 275.28 360H261.2C260.827 360 260.507 359.867 260.24 359.6C259.92 359.333 259.76 358.987 259.76 358.56V277.44C259.76 277.067 259.92 276.72 260.24 276.4C260.507 276.133 260.827 276 261.2 276H275.28C275.653 276 276 276.133 276.32 276.4C276.587 276.72 276.72 277.067 276.72 277.44V309.68C276.72 310.107 276.907 310.32 277.28 310.32H303.84C304.267 310.32 304.48 310.107 304.48 309.68V277.44ZM343.2 291.36C340.48 291.36 338.213 290.453 336.4 288.64C334.587 286.88 333.68 284.64 333.68 281.92C333.68 279.093 334.56 276.8 336.32 275.04C338.08 273.28 340.373 272.4 343.2 272.4C346.027 272.4 348.32 273.28 350.08 275.04C351.84 276.8 352.72 279.093 352.72 281.92C352.72 284.64 351.813 286.88 350 288.64C348.187 290.453 345.92 291.36 343.2 291.36ZM336 360C335.627 360 335.28 359.867 334.96 359.6C334.693 359.333 334.56 358.987 334.56 358.56V299.68C334.56 299.253 334.693 298.907 334.96 298.64C335.28 298.373 335.627 298.24 336 298.24H350.08C350.453 298.24 350.773 298.373 351.04 298.64C351.36 298.907 351.52 299.253 351.52 299.68V358.56C351.52 358.987 351.36 359.333 351.04 359.6C350.773 359.867 350.453 360 350.08 360H336ZM402.32 299.76C402.32 299.387 402.48 299.04 402.8 298.72C403.067 298.453 403.387 298.32 403.76 298.32H417.84C418.213 298.32 418.56 298.453 418.88 298.72C419.147 299.04 419.28 299.387 419.28 299.76V354.48C419.28 364.933 416.267 372.4 410.24 376.88C404.213 381.413 396.427 383.68 386.88 383.68C384.053 383.68 380.933 383.467 377.52 383.04C376.72 382.933 376.32 382.427 376.32 381.52L376.8 369.12C376.8 368.053 377.36 367.6 378.48 367.76C381.36 368.24 384 368.48 386.4 368.48C391.52 368.48 395.467 367.387 398.24 365.2C400.96 362.907 402.32 359.307 402.32 354.4C402.32 354.133 402.24 353.973 402.08 353.92C401.92 353.867 401.76 353.947 401.6 354.16C398.56 357.413 394.133 359.04 388.32 359.04C383.093 359.04 378.32 357.787 374 355.28C369.627 352.773 366.507 348.72 364.64 343.12C363.467 339.44 362.88 334.667 362.88 328.8C362.88 322.56 363.6 317.493 365.04 313.6C366.693 308.693 369.52 304.773 373.52 301.84C377.52 298.853 382.187 297.36 387.52 297.36C393.653 297.36 398.347 299.2 401.6 302.88C401.76 303.04 401.92 303.093 402.08 303.04C402.24 302.987 402.32 302.853 402.32 302.64V299.76ZM401.36 338.48C402 336.133 402.32 332.853 402.32 328.64C402.32 326.187 402.24 324.293 402.08 322.96C401.92 321.573 401.653 320.267 401.28 319.04C400.533 316.907 399.333 315.173 397.68 313.84C396.027 312.56 393.947 311.92 391.44 311.92C389.04 311.92 387.013 312.56 385.36 313.84C383.653 315.173 382.4 316.907 381.6 319.04C380.48 321.44 379.92 324.693 379.92 328.8C379.92 333.28 380.4 336.48 381.36 338.4C382.053 340.587 383.307 342.32 385.12 343.6C386.933 344.933 389.067 345.6 391.52 345.6C394.08 345.6 396.213 344.933 397.92 343.6C399.573 342.32 400.72 340.613 401.36 338.48ZM463.6 297.36C470 297.36 475.147 299.333 479.04 303.28C482.933 307.173 484.88 312.48 484.88 319.2V358.56C484.88 358.987 484.747 359.333 484.48 359.6C484.213 359.867 483.893 360 483.52 360H469.44C469.067 360 468.72 359.867 468.4 359.6C468.133 359.333 468 358.987 468 358.56V322.64C468 319.493 467.093 316.907 465.28 314.88C463.52 312.907 461.147 311.92 458.16 311.92C455.227 311.92 452.853 312.907 451.04 314.88C449.227 316.907 448.32 319.493 448.32 322.64V358.56C448.32 358.987 448.187 359.333 447.92 359.6C447.653 359.867 447.307 360 446.88 360H432.88C432.453 360 432.107 359.867 431.84 359.6C431.573 359.333 431.44 358.987 431.44 358.56V277.44C431.44 277.067 431.573 276.72 431.84 276.4C432.107 276.133 432.453 276 432.88 276H446.88C447.307 276 447.653 276.133 447.92 276.4C448.187 276.72 448.32 277.067 448.32 277.44V304C448.32 304.213 448.4 304.373 448.56 304.48C448.72 304.533 448.827 304.48 448.88 304.32C452.187 299.68 457.093 297.36 463.6 297.36Z" fill="#252530"/>
<path d="M249.6 603.2C249.013 603.2 248.64 602.933 248.48 602.4L233.92 548.24L233.84 547.92C233.84 547.44 234.133 547.2 234.72 547.2H242.56C243.147 547.2 243.52 547.467 243.68 548L252.8 584.48C252.853 584.64 252.933 584.72 253.04 584.72C253.147 584.72 253.227 584.64 253.28 584.48L262 548C262.16 547.467 262.507 547.2 263.04 547.2H270.72C271.307 547.2 271.68 547.467 271.84 548L281.12 584.56C281.173 584.72 281.253 584.8 281.36 584.8C281.467 584.8 281.547 584.72 281.6 584.56L290.56 548C290.72 547.467 291.093 547.2 291.68 547.2H299.12C299.867 547.2 300.16 547.547 300 548.24L286.16 602.4C286 602.933 285.627 603.2 285.04 603.2H277.6C277.013 603.2 276.64 602.933 276.48 602.4L267.12 564.24C267.067 564.08 266.987 563.973 266.88 563.92C266.773 563.92 266.693 564.027 266.64 564.24L257.68 602.4C257.52 602.933 257.173 603.2 256.64 603.2H249.6ZM308.88 603.2C308.613 603.2 308.373 603.093 308.16 602.88C308 602.72 307.92 602.507 307.92 602.24V548.16C307.92 547.893 308 547.68 308.16 547.52C308.373 547.307 308.613 547.2 308.88 547.2H316.24C316.507 547.2 316.72 547.307 316.88 547.52C317.093 547.68 317.2 547.893 317.2 548.16V602.24C317.2 602.507 317.093 602.72 316.88 602.88C316.72 603.093 316.507 603.2 316.24 603.2H308.88ZM361.44 548.16C361.44 547.893 361.52 547.68 361.68 547.52C361.893 547.307 362.133 547.2 362.4 547.2H369.76C370.027 547.2 370.24 547.307 370.4 547.52C370.613 547.68 370.72 547.893 370.72 548.16V602.24C370.72 602.507 370.613 602.72 370.4 602.88C370.24 603.093 370.027 603.2 369.76 603.2H362.64C362.107 603.2 361.733 602.987 361.52 602.56L338.48 564.8C338.373 564.64 338.267 564.56 338.16 564.56C338.053 564.613 338 564.747 338 564.96L338.16 602.24C338.16 602.507 338.053 602.72 337.84 602.88C337.68 603.093 337.467 603.2 337.2 603.2H329.84C329.573 603.2 329.333 603.093 329.12 602.88C328.96 602.72 328.88 602.507 328.88 602.24V548.16C328.88 547.893 328.96 547.68 329.12 547.52C329.333 547.307 329.573 547.2 329.84 547.2H336.96C337.493 547.2 337.867 547.413 338.08 547.84L361.04 585.6C361.147 585.76 361.253 585.813 361.36 585.76C361.467 585.76 361.52 585.653 361.52 585.44L361.44 548.16ZM419.2 547.2C419.467 547.2 419.68 547.307 419.84 547.52C420.053 547.68 420.16 547.893 420.16 548.16V554.32C420.16 554.587 420.053 554.8 419.84 554.96C419.68 555.173 419.467 555.28 419.2 555.28H404.48C404.213 555.28 404.08 555.413 404.08 555.68V602.24C404.08 602.507 404 602.72 403.84 602.88C403.627 603.093 403.387 603.2 403.12 603.2H395.76C395.493 603.2 395.28 603.093 395.12 602.88C394.907 602.72 394.8 602.507 394.8 602.24V555.68C394.8 555.413 394.667 555.28 394.4 555.28H380.24C379.973 555.28 379.733 555.173 379.52 554.96C379.36 554.8 379.28 554.587 379.28 554.32V548.16C379.28 547.893 379.36 547.68 379.52 547.52C379.733 547.307 379.973 547.2 380.24 547.2H419.2ZM466.64 554.24C466.64 554.507 466.533 554.72 466.32 554.88C466.16 555.093 465.947 555.2 465.68 555.2H438.4C438.133 555.2 438 555.333 438 555.6V570.56C438 570.827 438.133 570.96 438.4 570.96H456.72C456.987 570.96 457.227 571.04 457.44 571.2C457.6 571.413 457.68 571.653 457.68 571.92V578C457.68 578.267 457.6 578.507 457.44 578.72C457.227 578.88 456.987 578.96 456.72 578.96H438.4C438.133 578.96 438 579.093 438 579.36V594.8C438 595.067 438.133 595.2 438.4 595.2H465.68C465.947 595.2 466.16 595.307 466.32 595.52C466.533 595.68 466.64 595.893 466.64 596.16V602.24C466.64 602.507 466.533 602.72 466.32 602.88C466.16 603.093 465.947 603.2 465.68 603.2H429.68C429.413 603.2 429.173 603.093 428.96 602.88C428.8 602.72 428.72 602.507 428.72 602.24V548.16C428.72 547.893 428.8 547.68 428.96 547.52C429.173 547.307 429.413 547.2 429.68 547.2H465.68C465.947 547.2 466.16 547.307 466.32 547.52C466.533 547.68 466.64 547.893 466.64 548.16V554.24ZM507.52 603.2C506.987 603.2 506.613 602.96 506.4 602.48L495.84 579.44C495.733 579.227 495.573 579.12 495.36 579.12H485.76C485.493 579.12 485.36 579.253 485.36 579.52V602.24C485.36 602.507 485.253 602.72 485.04 602.88C484.88 603.093 484.667 603.2 484.4 603.2H477.04C476.773 603.2 476.533 603.093 476.32 602.88C476.16 602.72 476.08 602.507 476.08 602.24V548.16C476.08 547.893 476.16 547.68 476.32 547.52C476.533 547.307 476.773 547.2 477.04 547.2H499.04C502.293 547.2 505.173 547.867 507.68 549.2C510.187 550.587 512.133 552.507 513.52 554.96C514.907 557.467 515.6 560.32 515.6 563.52C515.6 567.2 514.64 570.32 512.72 572.88C510.853 575.493 508.24 577.307 504.88 578.32C504.773 578.32 504.693 578.373 504.64 578.48C504.587 578.587 504.587 578.693 504.64 578.8L515.92 602.08C516.027 602.293 516.08 602.453 516.08 602.56C516.08 602.987 515.787 603.2 515.2 603.2H507.52ZM485.76 555.2C485.493 555.2 485.36 555.333 485.36 555.6V571.52C485.36 571.787 485.493 571.92 485.76 571.92H497.76C500.32 571.92 502.4 571.147 504 569.6C505.547 568.107 506.32 566.107 506.32 563.6C506.32 561.093 505.547 559.067 504 557.52C502.4 555.973 500.32 555.2 497.76 555.2H485.76Z" fill="white"/>
<path d="M270.88 747.68C270.72 747.84 270.667 748 270.72 748.16C270.827 748.32 270.987 748.4 271.2 748.4H302.64C303.013 748.4 303.333 748.533 303.6 748.8C303.92 749.067 304.08 749.387 304.08 749.76V761.04C304.08 761.413 303.92 761.733 303.6 762C303.333 762.267 303.013 762.4 302.64 762.4H250.48C250.053 762.4 249.707 762.267 249.44 762C249.173 761.733 249.04 761.413 249.04 761.04V750.32C249.04 749.627 249.28 749.04 249.76 748.56C253.547 744.88 257.413 740.853 261.36 736.48C265.307 732.107 267.787 729.387 268.8 728.32C270.933 725.76 273.12 723.307 275.36 720.96C282.4 713.173 285.92 707.387 285.92 703.6C285.92 700.88 284.96 698.64 283.04 696.88C281.12 695.173 278.613 694.32 275.52 694.32C272.427 694.32 269.92 695.173 268 696.88C266.027 698.64 265.04 700.96 265.04 703.84V706.72C265.04 707.093 264.907 707.413 264.64 707.68C264.373 707.947 264.053 708.08 263.68 708.08H250C249.627 708.08 249.307 707.947 249.04 707.68C248.72 707.413 248.56 707.093 248.56 706.72V701.28C248.827 697.12 250.16 693.413 252.56 690.16C254.96 686.96 258.133 684.507 262.08 682.8C266.08 681.093 270.56 680.24 275.52 680.24C281.013 680.24 285.787 681.28 289.84 683.36C293.893 685.387 297.013 688.133 299.2 691.6C301.44 695.12 302.56 698.987 302.56 703.2C302.56 706.453 301.733 709.787 300.08 713.2C298.48 716.613 296.053 720.293 292.8 724.24C290.4 727.227 287.813 730.213 285.04 733.2C282.267 736.133 278.133 740.373 272.64 745.92L270.88 747.68ZM341.76 763.68C333.227 763.68 326.507 761.307 321.6 756.56C316.64 751.813 314.16 745.333 314.16 737.12V706.48C314.16 698.427 316.64 692.053 321.6 687.36C326.507 682.613 333.227 680.24 341.76 680.24C350.24 680.24 356.987 682.613 362 687.36C366.96 692.053 369.44 698.427 369.44 706.48V737.12C369.44 745.333 366.96 751.813 362 756.56C356.987 761.307 350.24 763.68 341.76 763.68ZM341.76 749.68C345.227 749.68 347.973 748.613 350 746.48C352.08 744.347 353.12 741.493 353.12 737.92V706C353.12 702.48 352.08 699.653 350 697.52C347.973 695.387 345.227 694.32 341.76 694.32C338.347 694.32 335.627 695.387 333.6 697.52C331.52 699.653 330.48 702.48 330.48 706V737.92C330.48 741.493 331.52 744.347 333.6 746.48C335.627 748.613 338.347 749.68 341.76 749.68ZM401.92 747.68C401.76 747.84 401.733 748 401.84 748.16C401.893 748.32 402.053 748.4 402.32 748.4H433.76C434.133 748.4 434.453 748.533 434.72 748.8C434.987 749.067 435.12 749.387 435.12 749.76V761.04C435.12 761.413 434.987 761.733 434.72 762C434.453 762.267 434.133 762.4 433.76 762.4H381.52C381.147 762.4 380.827 762.267 380.56 762C380.293 761.733 380.16 761.413 380.16 761.04V750.32C380.16 749.627 380.373 749.04 380.8 748.56C384.64 744.88 388.507 740.853 392.4 736.48C396.347 732.107 398.827 729.387 399.84 728.32C402.027 725.76 404.24 723.307 406.48 720.96C413.52 713.173 417.04 707.387 417.04 703.6C417.04 700.88 416.08 698.64 414.16 696.88C412.187 695.173 409.653 694.32 406.56 694.32C403.467 694.32 400.96 695.173 399.04 696.88C397.12 698.64 396.16 700.96 396.16 703.84V706.72C396.16 707.093 396.027 707.413 395.76 707.68C395.493 707.947 395.147 708.08 394.72 708.08H381.04C380.667 708.08 380.347 707.947 380.08 707.68C379.813 707.413 379.68 707.093 379.68 706.72V701.28C379.893 697.12 381.2 693.413 383.6 690.16C386 686.96 389.2 684.507 393.2 682.8C397.2 681.093 401.653 680.24 406.56 680.24C412.053 680.24 416.827 681.28 420.88 683.36C424.987 685.387 428.133 688.133 430.32 691.6C432.507 695.12 433.6 698.987 433.6 703.2C433.6 706.453 432.8 709.787 431.2 713.2C429.547 716.613 427.093 720.293 423.84 724.24C421.44 727.227 418.853 730.213 416.08 733.2C413.307 736.133 409.173 740.373 403.68 745.92L401.92 747.68ZM496.8 725.36C497.973 729.147 498.56 732.827 498.56 736.4C498.56 740.347 497.947 743.92 496.72 747.12C494.96 752.027 491.84 755.947 487.36 758.88C482.827 761.76 477.547 763.2 471.52 763.2C465.653 763.2 460.507 761.787 456.08 758.96C451.6 756.133 448.453 752.293 446.64 747.44C445.84 745.413 445.253 743.28 444.88 741.04V740.8C444.88 739.947 445.333 739.52 446.24 739.52H460.32C461.067 739.52 461.573 739.947 461.84 740.8C461.893 741.28 462 741.68 462.16 742C462.32 742.32 462.427 742.587 462.48 742.8C463.28 744.827 464.453 746.373 466 747.44C467.547 748.507 469.36 749.04 471.44 749.04C473.627 749.04 475.52 748.453 477.12 747.28C478.72 746.16 479.92 744.56 480.72 742.48C481.467 740.933 481.84 738.907 481.84 736.4C481.84 734.16 481.493 732.16 480.8 730.4C480.267 728.373 479.2 726.827 477.6 725.76C475.947 724.64 474.053 724.08 471.92 724.08C469.733 724.08 467.707 724.587 465.84 725.6C464.027 726.613 462.8 727.947 462.16 729.6C461.947 730.347 461.44 730.72 460.64 730.72H446.4C445.973 730.72 445.627 730.587 445.36 730.32C445.093 730.053 444.96 729.733 444.96 729.36V682.56C444.96 682.187 445.093 681.867 445.36 681.6C445.627 681.333 445.973 681.2 446.4 681.2H494.32C494.693 681.2 495.013 681.333 495.28 681.6C495.547 681.867 495.68 682.187 495.68 682.56V693.84C495.68 694.213 495.547 694.533 495.28 694.8C495.013 695.067 494.693 695.2 494.32 695.2H461.92C461.547 695.2 461.36 695.413 461.36 695.84L461.2 712.96C461.2 713.493 461.44 713.627 461.92 713.36C465.387 711.12 469.413 710 474 710C479.387 710 484.107 711.36 488.16 714.08C492.267 716.853 495.147 720.613 496.8 725.36Z" fill="#252530"/>
</svg>
