<svg width="752" height="976" viewBox="0 0 752 976" fill="none" xmlns="http://www.w3.org/2000/svg">
<path d="M64.7998 719.2L380.8 880L684.8 719.2V90.4H64.7998V719.2Z" fill="white"/>
<path d="M691.2 92.8L58.3999 730.4L386.4 892.8L691.2 736.8V92.8Z" fill="#F2F3F2"/>
<path d="M44 300V732.8L55.2 738.4L371.2 899.2L380.8 904L390.4 899.2L695.2 738.4L706.4 732.8V69.6H44V300ZM64.8 720.8V90.4H685.6V720.8L380.8 881.6L64.8 720.8Z" fill="#DCDEDC"/>
<path d="M375.2 100.8C378.4 100.8 381.6 100.8 384.8 101.6L375.2 120C360.8 119.2 348 130.4 347.2 144.8C346.4 159.2 357.6 172 372 172.8H375.2C381.6 172.8 388 170.4 392.8 166.4L403.2 184C395.2 189.6 385.6 192.8 375.2 192.8C349.6 193.6 328 174.4 327.2 148.8C326.4 123.2 345.6 101.6 371.2 100.8H375.2ZM408 140L420 160L408 179.2L396.8 160H373.6L385.6 140H408ZM388.8 132.8C388.8 129.6 389.6 126.4 391.2 124C392.8 121.6 396 119.2 398.4 117.6L400 116.8C403.2 115.2 404 114.4 404 112.8C404 111.2 401.6 109.6 400 109.6C396.8 109.6 394.4 111.2 392.8 114.4L388.8 110.4C389.6 108.8 391.2 107.2 392.8 105.6C395.2 104 397.6 104 400 104C402.4 104 405.6 104.8 407.2 106.4C408.8 108 410.4 110.4 410.4 112.8C410.4 116.8 408 120 403.2 121.6L400.8 123.2C398.4 124.8 396.8 125.6 396 128H410.4V133.6L388.8 132.8ZM375.2 232.8L451.2 189.6V69.6H298.4V188.8L375.2 232.8Z" fill="#FF492C"/>
<path d="M721.6 516H28.8002L3.2002 572L28.8002 628H721.6L746.4 572L721.6 516Z" fill="#5A39A2"/>
<path d="M167.28 480C166.747 480 166.347 479.733 166.08 479.2L155.12 454.8C154.96 454.587 154.773 454.48 154.56 454.48H146.4C146.08 454.48 145.92 454.64 145.92 454.96V478.96C145.92 479.227 145.813 479.467 145.6 479.68C145.44 479.893 145.2 480 144.88 480H134.56C134.293 480 134.053 479.893 133.84 479.68C133.627 479.467 133.52 479.227 133.52 478.96V419.44C133.52 419.173 133.627 418.933 133.84 418.72C134.053 418.507 134.293 418.4 134.56 418.4H159.76C163.493 418.4 166.8 419.173 169.68 420.72C172.507 422.213 174.693 424.373 176.24 427.2C177.787 430.027 178.56 433.28 178.56 436.96C178.56 440.96 177.573 444.373 175.6 447.2C173.573 450.08 170.773 452.107 167.2 453.28C166.933 453.387 166.853 453.573 166.96 453.84L178.96 478.8C179.067 479.013 179.12 479.173 179.12 479.28C179.12 479.76 178.8 480 178.16 480H167.28ZM146.4 429.04C146.08 429.04 145.92 429.2 145.92 429.52V444.56C145.92 444.827 146.08 444.96 146.4 444.96H157.92C160.373 444.96 162.373 444.24 163.92 442.8C165.467 441.307 166.24 439.387 166.24 437.04C166.24 434.693 165.467 432.773 163.92 431.28C162.373 429.787 160.373 429.04 157.92 429.04H146.4ZM226.16 452.72C226.533 454.96 226.667 457.467 226.56 460.24C226.507 460.933 226.107 461.28 225.36 461.28H198.24C197.867 461.28 197.733 461.413 197.84 461.68C198 462.853 198.32 464.027 198.8 465.2C200.347 468.507 203.467 470.16 208.16 470.16C211.893 470.107 214.853 468.587 217.04 465.6C217.253 465.227 217.52 465.04 217.84 465.04C218 465.04 218.213 465.147 218.48 465.36L224.8 471.68C225.067 471.947 225.2 472.187 225.2 472.4C225.2 472.56 225.093 472.8 224.88 473.12C222.96 475.52 220.453 477.387 217.36 478.72C214.32 480.053 210.987 480.72 207.36 480.72C202.293 480.72 198.027 479.573 194.56 477.28C191.04 474.987 188.533 471.787 187.04 467.68C185.813 464.747 185.2 460.907 185.2 456.16C185.2 452.907 185.627 450.053 186.48 447.6C187.867 443.44 190.24 440.133 193.6 437.68C196.96 435.227 200.96 434 205.6 434C211.467 434 216.187 435.707 219.76 439.12C223.28 442.48 225.413 447.013 226.16 452.72ZM205.68 444.72C202 444.72 199.573 446.453 198.4 449.92C198.133 450.667 197.92 451.6 197.76 452.72C197.76 453.04 197.92 453.2 198.24 453.2H213.44C213.76 453.2 213.867 453.04 213.76 452.72C213.493 451.013 213.36 450.187 213.36 450.24C212.827 448.48 211.893 447.12 210.56 446.16C209.227 445.2 207.6 444.72 205.68 444.72ZM254.08 480.72C249.387 480.72 245.333 479.547 241.92 477.2C238.453 474.853 236 471.627 234.56 467.52C233.547 464.587 233.04 461.12 233.04 457.12C233.04 453.173 233.547 449.76 234.56 446.88C235.947 442.933 238.373 439.813 241.84 437.52C245.307 435.227 249.387 434.08 254.08 434.08C258.773 434.08 262.907 435.253 266.48 437.6C270 439.947 272.347 442.907 273.52 446.48C274 447.867 274.24 448.933 274.24 449.68V449.84C274.24 450.373 273.947 450.693 273.36 450.8L263.2 452.32H263.04C262.507 452.32 262.16 452.027 262 451.44L261.76 450C261.333 448.453 260.427 447.2 259.04 446.24C257.6 445.227 255.92 444.72 254 444.72C252.133 444.72 250.56 445.2 249.28 446.16C247.947 447.067 247.013 448.347 246.48 450C245.84 451.76 245.52 454.16 245.52 457.2C245.52 460.24 245.813 462.64 246.4 464.4C246.933 466.16 247.867 467.547 249.2 468.56C250.533 469.573 252.133 470.08 254 470.08C255.813 470.08 257.413 469.6 258.8 468.64C260.187 467.627 261.147 466.293 261.68 464.64C261.733 464.48 261.76 464.293 261.76 464.08C261.813 464.027 261.84 463.947 261.84 463.84C261.893 463.093 262.293 462.8 263.04 462.96L273.2 464.48C273.787 464.64 274.08 464.987 274.08 465.52C274.08 465.947 273.893 466.827 273.52 468.16C272.293 472.053 269.92 475.12 266.4 477.36C262.827 479.6 258.72 480.72 254.08 480.72ZM300.88 480.72C295.973 480.72 291.76 479.413 288.24 476.8C284.72 474.24 282.32 470.72 281.04 466.24C280.187 463.52 279.76 460.533 279.76 457.28C279.76 453.813 280.187 450.72 281.04 448C282.373 443.627 284.8 440.213 288.32 437.76C291.84 435.307 296.053 434.08 300.96 434.08C305.813 434.08 309.92 435.28 313.28 437.68C316.693 440.133 319.12 443.547 320.56 447.92C321.467 450.853 321.92 453.92 321.92 457.12C321.92 460.267 321.52 463.227 320.72 466C319.44 470.587 317.04 474.187 313.52 476.8C310.053 479.413 305.84 480.72 300.88 480.72ZM300.88 470.08C302.853 470.08 304.507 469.493 305.84 468.32C307.173 467.147 308.133 465.52 308.72 463.44C309.2 461.573 309.44 459.52 309.44 457.28C309.44 454.827 309.2 452.747 308.72 451.04C308.08 449.067 307.093 447.52 305.76 446.4C304.427 445.28 302.773 444.72 300.8 444.72C298.827 444.72 297.173 445.28 295.84 446.4C294.507 447.52 293.547 449.067 292.96 451.04C292.533 452.48 292.32 454.56 292.32 457.28C292.32 459.947 292.507 462 292.88 463.44C293.467 465.52 294.453 467.147 295.84 468.32C297.227 469.493 298.907 470.08 300.88 470.08ZM380.08 434.08C384.667 434.08 388.267 435.467 390.88 438.24C393.44 440.96 394.72 444.827 394.72 449.84V478.96C394.72 479.227 394.613 479.467 394.4 479.68C394.187 479.893 393.947 480 393.68 480H383.36C383.04 480 382.8 479.893 382.64 479.68C382.427 479.467 382.32 479.227 382.32 478.96V452.56C382.32 450.16 381.707 448.24 380.48 446.8C379.253 445.413 377.6 444.72 375.52 444.72C373.493 444.72 371.813 445.413 370.48 446.8C369.2 448.24 368.56 450.133 368.56 452.48V478.96C368.56 479.227 368.453 479.467 368.24 479.68C368.08 479.893 367.84 480 367.52 480H357.28C357.013 480 356.773 479.893 356.56 479.68C356.347 479.467 356.24 479.227 356.24 478.96V452.56C356.24 450.213 355.6 448.32 354.32 446.88C353.04 445.44 351.36 444.72 349.28 444.72C347.413 444.72 345.84 445.28 344.56 446.4C343.333 447.52 342.587 449.067 342.32 451.04V478.96C342.32 479.227 342.24 479.467 342.08 479.68C341.867 479.893 341.6 480 341.28 480H331.04C330.72 480 330.453 479.893 330.24 479.68C330.027 479.467 329.92 479.227 329.92 478.96V435.84C329.92 435.52 330.027 435.253 330.24 435.04C330.453 434.88 330.72 434.8 331.04 434.8H341.28C341.6 434.8 341.867 434.88 342.08 435.04C342.24 435.253 342.32 435.52 342.32 435.84V439.28C342.32 439.44 342.4 439.547 342.56 439.6C342.667 439.653 342.773 439.6 342.88 439.44C345.28 435.867 349.013 434.08 354.08 434.08C357.013 434.08 359.573 434.693 361.76 435.92C363.947 437.147 365.627 438.907 366.8 441.2C366.96 441.52 367.173 441.52 367.44 441.2C368.72 438.8 370.453 437.013 372.64 435.84C374.88 434.667 377.36 434.08 380.08 434.08ZM453.6 434.08C458.187 434.08 461.76 435.467 464.32 438.24C466.88 440.96 468.16 444.827 468.16 449.84V478.96C468.16 479.227 468.08 479.467 467.92 479.68C467.707 479.893 467.44 480 467.12 480H456.88C456.56 480 456.293 479.893 456.08 479.68C455.867 479.467 455.76 479.227 455.76 478.96V452.56C455.76 450.16 455.147 448.24 453.92 446.8C452.693 445.413 451.067 444.72 449.04 444.72C446.96 444.72 445.28 445.413 444 446.8C442.72 448.24 442.08 450.133 442.08 452.48V478.96C442.08 479.227 441.973 479.467 441.76 479.68C441.547 479.893 441.28 480 440.96 480H430.8C430.48 480 430.24 479.893 430.08 479.68C429.867 479.467 429.76 479.227 429.76 478.96V452.56C429.76 450.213 429.093 448.32 427.76 446.88C426.48 445.44 424.827 444.72 422.8 444.72C420.933 444.72 419.36 445.28 418.08 446.4C416.8 447.52 416.053 449.067 415.84 451.04V478.96C415.84 479.227 415.733 479.467 415.52 479.68C415.307 479.893 415.067 480 414.8 480H404.48C404.16 480 403.92 479.893 403.76 479.68C403.547 479.467 403.44 479.227 403.44 478.96V435.84C403.44 435.52 403.547 435.253 403.76 435.04C403.92 434.88 404.16 434.8 404.48 434.8H414.8C415.067 434.8 415.307 434.88 415.52 435.04C415.733 435.253 415.84 435.52 415.84 435.84V439.28C415.84 439.44 415.893 439.547 416 439.6C416.107 439.653 416.213 439.6 416.32 439.44C418.773 435.867 422.507 434.08 427.52 434.08C430.453 434.08 433.013 434.693 435.2 435.92C437.44 437.147 439.147 438.907 440.32 441.2C440.48 441.52 440.667 441.52 440.88 441.2C442.213 438.8 443.973 437.013 446.16 435.84C448.347 434.667 450.827 434.08 453.6 434.08ZM516.64 452.72C517.013 454.96 517.147 457.467 517.04 460.24C516.987 460.933 516.613 461.28 515.92 461.28H488.72C488.347 461.28 488.213 461.413 488.32 461.68C488.533 462.853 488.853 464.027 489.28 465.2C490.827 468.507 493.947 470.16 498.64 470.16C502.373 470.107 505.333 468.587 507.52 465.6C507.733 465.227 508 465.04 508.32 465.04C508.48 465.04 508.693 465.147 508.96 465.36L515.28 471.68C515.547 471.947 515.68 472.187 515.68 472.4C515.68 472.56 515.573 472.8 515.36 473.12C513.44 475.52 510.933 477.387 507.84 478.72C504.8 480.053 501.467 480.72 497.84 480.72C492.827 480.72 488.56 479.573 485.04 477.28C481.573 474.987 479.067 471.787 477.52 467.68C476.293 464.747 475.68 460.907 475.68 456.16C475.68 452.907 476.107 450.053 476.96 447.6C478.347 443.44 480.72 440.133 484.08 437.68C487.44 435.227 491.44 434 496.08 434C501.947 434 506.667 435.707 510.24 439.12C513.76 442.48 515.893 447.013 516.64 452.72ZM496.16 444.72C492.48 444.72 490.053 446.453 488.88 449.92C488.667 450.667 488.453 451.6 488.24 452.72C488.24 453.04 488.4 453.2 488.72 453.2H503.92C504.293 453.2 504.4 453.04 504.24 452.72C503.973 451.013 503.84 450.187 503.84 450.24C503.307 448.48 502.373 447.12 501.04 446.16C499.76 445.2 498.133 444.72 496.16 444.72ZM548.24 434.08C552.933 434.08 556.72 435.52 559.6 438.4C562.48 441.28 563.92 445.173 563.92 450.08V478.96C563.92 479.227 563.813 479.467 563.6 479.68C563.387 479.893 563.147 480 562.88 480H552.56C552.293 480 552.053 479.893 551.84 479.68C551.627 479.467 551.52 479.227 551.52 478.96V452.64C551.52 450.293 550.853 448.373 549.52 446.88C548.24 445.44 546.507 444.72 544.32 444.72C542.133 444.72 540.373 445.44 539.04 446.88C537.76 448.373 537.12 450.293 537.12 452.64V478.96C537.12 479.227 537.013 479.467 536.8 479.68C536.587 479.893 536.32 480 536 480H525.76C525.44 480 525.173 479.893 524.96 479.68C524.8 479.467 524.72 479.227 524.72 478.96V435.84C524.72 435.52 524.8 435.253 524.96 435.04C525.173 434.88 525.44 434.8 525.76 434.8H536C536.32 434.8 536.587 434.88 536.8 435.04C537.013 435.253 537.12 435.52 537.12 435.84V438.88C537.12 439.093 537.173 439.227 537.28 439.28C537.387 439.333 537.467 439.307 537.52 439.2C539.92 435.787 543.493 434.08 548.24 434.08ZM600.64 419.44C600.64 419.173 600.747 418.933 600.96 418.72C601.173 418.507 601.413 418.4 601.68 418.4H612C612.267 418.4 612.507 418.507 612.72 418.72C612.933 418.933 613.04 419.173 613.04 419.44V478.96C613.04 479.227 612.933 479.467 612.72 479.68C612.507 479.893 612.267 480 612 480H601.68C601.413 480 601.173 479.893 600.96 479.68C600.747 479.467 600.64 479.227 600.64 478.96V476.08C600.64 475.867 600.587 475.76 600.48 475.76C600.32 475.707 600.187 475.733 600.08 475.84C597.627 479.093 594.267 480.72 590 480.72C585.893 480.72 582.347 479.573 579.36 477.28C576.427 474.987 574.293 471.84 572.96 467.84C572 464.8 571.52 461.253 571.52 457.2C571.52 453.04 572.053 449.413 573.12 446.32C574.453 442.533 576.56 439.547 579.44 437.36C582.373 435.173 585.973 434.08 590.24 434.08C594.453 434.08 597.733 435.547 600.08 438.48C600.187 438.64 600.32 438.693 600.48 438.64C600.587 438.587 600.64 438.48 600.64 438.32V419.44ZM598.8 466.24C599.973 464.107 600.56 461.147 600.56 457.36C600.56 453.467 599.92 450.4 598.64 448.16C597.253 445.867 595.28 444.72 592.72 444.72C589.947 444.72 587.867 445.867 586.48 448.16C584.987 450.453 584.24 453.547 584.24 457.44C584.24 460.96 584.853 463.893 586.08 466.24C587.573 468.8 589.76 470.08 592.64 470.08C595.253 470.08 597.307 468.8 598.8 466.24ZM208.64 392C208.373 392 208.133 391.893 207.92 391.68C207.707 391.467 207.6 391.227 207.6 390.96V331.44C207.6 331.173 207.707 330.933 207.92 330.72C208.133 330.507 208.373 330.4 208.64 330.4H218.96C219.28 330.4 219.52 330.507 219.68 330.72C219.893 330.933 220 331.173 220 331.44V380.88C220 381.2 220.16 381.36 220.48 381.36H249.2C249.52 381.36 249.787 381.467 250 381.68C250.213 381.893 250.32 382.133 250.32 382.4V390.96C250.32 391.227 250.213 391.467 250 391.68C249.787 391.893 249.52 392 249.2 392H208.64ZM263.84 341.68C261.867 341.68 260.213 341.013 258.88 339.68C257.547 338.347 256.88 336.693 256.88 334.72C256.88 332.64 257.52 330.96 258.8 329.68C260.08 328.4 261.76 327.76 263.84 327.76C265.867 327.76 267.547 328.4 268.88 329.68C270.16 330.96 270.8 332.64 270.8 334.72C270.8 336.693 270.133 338.347 268.8 339.68C267.467 341.013 265.813 341.68 263.84 341.68ZM258.56 392C258.24 392 258 391.893 257.84 391.68C257.627 391.467 257.52 391.227 257.52 390.96V347.76C257.52 347.44 257.627 347.173 257.84 346.96C258 346.747 258.24 346.64 258.56 346.64H268.88C269.147 346.64 269.387 346.747 269.6 346.96C269.813 347.173 269.92 347.44 269.92 347.76V390.96C269.92 391.227 269.813 391.467 269.6 391.68C269.387 391.893 269.147 392 268.88 392H258.56ZM280.64 392C280.373 392 280.133 391.893 279.92 391.68C279.707 391.467 279.6 391.227 279.6 390.96V331.44C279.6 331.173 279.707 330.933 279.92 330.72C280.133 330.507 280.373 330.4 280.64 330.4H290.96C291.227 330.4 291.467 330.507 291.68 330.72C291.893 330.933 292 331.173 292 331.44V361.12C292 361.28 292.053 361.387 292.16 361.44C292.267 361.44 292.4 361.387 292.56 361.28L304.48 347.36C304.907 346.987 305.36 346.8 305.84 346.8H317.52C318.107 346.8 318.4 346.987 318.4 347.36C318.4 347.573 318.32 347.813 318.16 348.08L306.96 362.24C306.853 362.507 306.827 362.72 306.88 362.88L320 390.8C320.107 391.013 320.16 391.173 320.16 391.28C320.16 391.76 319.84 392 319.2 392H308.4C307.813 392 307.387 391.733 307.12 391.2L298.4 370.64C298.347 370.533 298.24 370.453 298.08 370.4C297.973 370.347 297.893 370.4 297.84 370.56L292.16 377.6C292.053 377.813 292 377.973 292 378.08V390.96C292 391.227 291.893 391.467 291.68 391.68C291.467 391.893 291.227 392 290.96 392H280.64ZM362.48 364.72C362.853 366.96 362.96 369.467 362.8 372.24C362.747 372.933 362.373 373.28 361.68 373.28H334.48C334.16 373.28 334.053 373.413 334.16 373.68C334.32 374.853 334.64 376.027 335.12 377.2C336.667 380.507 339.787 382.16 344.48 382.16C348.213 382.107 351.173 380.587 353.36 377.6C353.573 377.227 353.84 377.04 354.16 377.04C354.32 377.04 354.507 377.147 354.72 377.36L361.04 383.68C361.36 383.947 361.52 384.187 361.52 384.4C361.52 384.56 361.413 384.8 361.2 385.12C359.227 387.52 356.72 389.387 353.68 390.72C350.64 392.053 347.307 392.72 343.68 392.72C338.613 392.72 334.347 391.573 330.88 389.28C327.36 386.987 324.853 383.787 323.36 379.68C322.08 376.747 321.44 372.907 321.44 368.16C321.44 364.907 321.893 362.053 322.8 359.6C324.133 355.44 326.507 352.133 329.92 349.68C333.28 347.227 337.28 346 341.92 346C347.787 346 352.48 347.707 356 351.12C359.573 354.48 361.733 359.013 362.48 364.72ZM342 356.72C338.267 356.72 335.813 358.453 334.64 361.92C334.427 362.667 334.24 363.6 334.08 364.72C334.08 365.04 334.213 365.2 334.48 365.2H349.76C350.08 365.2 350.187 365.04 350.08 364.72C349.76 363.013 349.6 362.187 349.6 362.24C349.12 360.48 348.213 359.12 346.88 358.16C345.547 357.2 343.92 356.72 342 356.72ZM371.52 392C371.253 392 371.013 391.893 370.8 391.68C370.587 391.467 370.48 391.227 370.48 390.96V331.44C370.48 331.173 370.587 330.933 370.8 330.72C371.013 330.507 371.253 330.4 371.52 330.4H381.84C382.16 330.4 382.4 330.507 382.56 330.72C382.773 330.933 382.88 331.173 382.88 331.44V390.96C382.88 391.227 382.773 391.467 382.56 391.68C382.4 391.893 382.16 392 381.84 392H371.52ZM391.68 409.52C391.52 409.52 391.387 409.413 391.28 409.2C391.173 408.987 391.12 408.747 391.12 408.48V400.32C391.12 400.053 391.2 399.813 391.36 399.6C391.573 399.387 391.84 399.28 392.16 399.28C394.613 399.227 396.56 399.04 398 398.72C399.44 398.347 400.587 397.653 401.44 396.64C402.293 395.68 402.96 394.213 403.44 392.24C403.493 392.133 403.493 391.973 403.44 391.76L388.96 347.92C388.907 347.813 388.88 347.653 388.88 347.44C388.88 346.907 389.2 346.64 389.84 346.64H400.88C401.52 346.64 401.92 346.96 402.08 347.6L409.44 376.08C409.547 376.24 409.653 376.32 409.76 376.32C409.867 376.32 409.947 376.24 410 376.08L417.36 347.6C417.573 346.96 418 346.64 418.64 346.64H429.36C429.733 346.64 429.973 346.747 430.08 346.96C430.24 347.173 430.267 347.493 430.16 347.92L414.96 393.68C413.467 397.947 411.973 401.147 410.48 403.28C408.933 405.413 406.773 406.987 404 408C401.28 409.013 397.387 409.52 392.32 409.52H391.68ZM497.2 330.4C497.52 330.4 497.787 330.507 498 330.72C498.16 330.933 498.24 331.173 498.24 331.44V340.08C498.24 340.4 498.16 340.64 498 340.8C497.787 341.013 497.52 341.12 497.2 341.12H481.44C481.173 341.12 481.04 341.28 481.04 341.6V390.96C481.04 391.227 480.933 391.467 480.72 391.68C480.507 391.893 480.267 392 480 392H469.68C469.36 392 469.12 391.893 468.96 391.68C468.747 391.467 468.64 391.227 468.64 390.96V341.6C468.64 341.28 468.48 341.12 468.16 341.12H452.88C452.56 341.12 452.293 341.013 452.08 340.8C451.92 340.64 451.84 340.4 451.84 340.08V331.44C451.84 331.173 451.92 330.933 452.08 330.72C452.293 330.507 452.56 330.4 452.88 330.4H497.2ZM518 392.72C513.04 392.72 508.8 391.413 505.28 388.8C501.76 386.24 499.36 382.72 498.08 378.24C497.28 375.52 496.88 372.533 496.88 369.28C496.88 365.813 497.28 362.72 498.08 360C499.413 355.627 501.867 352.213 505.44 349.76C508.907 347.307 513.12 346.08 518.08 346.08C522.88 346.08 526.987 347.28 530.4 349.68C533.813 352.133 536.213 355.547 537.6 359.92C538.56 362.853 539.04 365.92 539.04 369.12C539.04 372.267 538.613 375.227 537.76 378C536.48 382.587 534.107 386.187 530.64 388.8C527.12 391.413 522.907 392.72 518 392.72ZM518 382.08C519.92 382.08 521.547 381.493 522.88 380.32C524.267 379.147 525.253 377.52 525.84 375.44C526.32 373.573 526.56 371.52 526.56 369.28C526.56 366.827 526.32 364.747 525.84 363.04C525.2 361.067 524.187 359.52 522.8 358.4C521.467 357.28 519.84 356.72 517.92 356.72C515.893 356.72 514.24 357.28 512.96 358.4C511.627 359.52 510.667 361.067 510.08 363.04C509.6 364.48 509.36 366.56 509.36 369.28C509.36 371.947 509.573 374 510 375.44C510.587 377.52 511.573 379.147 512.96 380.32C514.293 381.493 515.973 382.08 518 382.08ZM184.32 304.72C179.84 304.72 175.867 303.84 172.4 302.08C168.987 300.32 166.32 297.84 164.4 294.64C162.533 291.44 161.6 287.76 161.6 283.6V243.44C161.6 243.173 161.68 242.933 161.84 242.72C162.053 242.507 162.32 242.4 162.64 242.4H172.88C173.2 242.4 173.467 242.507 173.68 242.72C173.893 242.933 174 243.173 174 243.44V283.68C174 286.773 174.933 289.28 176.8 291.2C178.72 293.12 181.227 294.08 184.32 294.08C187.467 294.08 190 293.12 191.92 291.2C193.787 289.28 194.72 286.773 194.72 283.68V243.44C194.72 243.173 194.827 242.933 195.04 242.72C195.253 242.507 195.493 242.4 195.76 242.4H206.08C206.4 242.4 206.667 242.507 206.88 242.72C207.04 242.933 207.12 243.173 207.12 243.44V283.6C207.12 287.76 206.187 291.44 204.32 294.64C202.4 297.84 199.733 300.32 196.32 302.08C192.853 303.84 188.853 304.72 184.32 304.72ZM234.64 304.64C230.693 304.64 227.253 304.08 224.32 302.96C221.387 301.84 219.12 300.293 217.52 298.32C215.867 296.293 215.04 294.027 215.04 291.52V290.64C215.04 290.32 215.147 290.053 215.36 289.84C215.573 289.68 215.84 289.6 216.16 289.6H225.92C226.187 289.6 226.427 289.68 226.64 289.84C226.853 290.053 226.96 290.32 226.96 290.64V290.72C226.96 292 227.68 293.093 229.12 294C230.56 294.907 232.347 295.36 234.48 295.36C236.507 295.36 238.133 294.96 239.36 294.16C240.587 293.36 241.2 292.4 241.2 291.28C241.2 290.213 240.667 289.413 239.6 288.88C238.533 288.347 236.8 287.787 234.4 287.2C231.68 286.507 229.52 285.84 227.92 285.2C224.187 283.867 221.2 282.267 218.96 280.4C216.72 278.533 215.6 275.84 215.6 272.32C215.6 268 217.28 264.56 220.64 262C224 259.44 228.48 258.16 234.08 258.16C237.813 258.16 241.093 258.747 243.92 259.92C246.747 261.147 248.933 262.853 250.48 265.04C252.027 267.173 252.8 269.627 252.8 272.4C252.8 272.72 252.693 272.96 252.48 273.12C252.32 273.333 252.08 273.44 251.76 273.44H242.32C242.053 273.44 241.813 273.333 241.6 273.12C241.387 272.96 241.28 272.72 241.28 272.4C241.28 271.12 240.613 270.027 239.28 269.12C238 268.267 236.267 267.84 234.08 267.84C232.16 267.84 230.587 268.187 229.36 268.88C228.133 269.573 227.52 270.533 227.52 271.76C227.52 272.933 228.107 273.813 229.28 274.4C230.507 274.987 232.507 275.627 235.28 276.32C235.973 276.48 236.72 276.667 237.52 276.88L240.16 277.6C244.32 278.827 247.6 280.4 250 282.32C252.4 284.293 253.6 287.12 253.6 290.8C253.6 295.12 251.893 298.507 248.48 300.96C245.013 303.413 240.4 304.64 234.64 304.64ZM300.8 276.72C301.12 278.96 301.227 281.467 301.12 284.24C301.067 284.933 300.693 285.28 300 285.28H272.8C272.427 285.28 272.32 285.413 272.48 285.68C272.64 286.853 272.96 288.027 273.44 289.2C274.933 292.507 278.027 294.16 282.72 294.16C286.507 294.107 289.467 292.587 291.6 289.6C291.867 289.227 292.133 289.04 292.4 289.04C292.613 289.04 292.827 289.147 293.04 289.36L299.36 295.68C299.68 295.947 299.84 296.187 299.84 296.4C299.84 296.56 299.707 296.8 299.44 297.12C297.52 299.52 295.04 301.387 292 302.72C288.96 304.053 285.6 304.72 281.92 304.72C276.907 304.72 272.64 303.573 269.12 301.28C265.653 298.987 263.147 295.787 261.6 291.68C260.373 288.747 259.76 284.907 259.76 280.16C259.76 276.907 260.213 274.053 261.12 271.6C262.453 267.44 264.8 264.133 268.16 261.68C271.52 259.227 275.52 258 280.16 258C286.027 258 290.747 259.707 294.32 263.12C297.893 266.48 300.053 271.013 300.8 276.72ZM280.24 268.72C276.56 268.72 274.133 270.453 272.96 273.92C272.747 274.667 272.533 275.6 272.32 276.72C272.32 277.04 272.48 277.2 272.8 277.2H288C288.373 277.2 288.507 277.04 288.4 276.72C288.08 275.013 287.92 274.187 287.92 274.24C287.387 272.48 286.48 271.12 285.2 270.16C283.867 269.2 282.213 268.72 280.24 268.72ZM331.36 258.16C333.44 258.16 335.093 258.56 336.32 259.36C336.8 259.627 336.987 260.08 336.88 260.72L335.04 270.72C334.987 271.413 334.56 271.627 333.76 271.36C332.907 271.04 331.893 270.88 330.72 270.88C330.24 270.88 329.6 270.96 328.8 271.12C326.667 271.28 324.853 272.053 323.36 273.44C321.92 274.827 321.2 276.667 321.2 278.96V302.96C321.2 303.227 321.093 303.467 320.88 303.68C320.667 303.893 320.427 304 320.16 304H309.84C309.573 304 309.333 303.893 309.12 303.68C308.907 303.467 308.8 303.227 308.8 302.96V259.84C308.8 259.52 308.907 259.253 309.12 259.04C309.333 258.88 309.573 258.8 309.84 258.8H320.16C320.427 258.8 320.667 258.88 320.88 259.04C321.093 259.253 321.2 259.52 321.2 259.84V263.2C321.2 263.36 321.253 263.467 321.36 263.52C321.467 263.573 321.573 263.547 321.68 263.44C324.08 259.92 327.307 258.16 331.36 258.16ZM359.84 304.64C355.893 304.64 352.453 304.08 349.52 302.96C346.587 301.84 344.32 300.293 342.72 298.32C341.12 296.293 340.32 294.027 340.32 291.52V290.64C340.32 290.32 340.427 290.053 340.64 289.84C340.8 289.68 341.04 289.6 341.36 289.6H351.12C351.387 289.6 351.627 289.68 351.84 289.84C352.053 290.053 352.16 290.32 352.16 290.64V290.72C352.16 292 352.88 293.093 354.32 294C355.76 294.907 357.573 295.36 359.76 295.36C361.733 295.36 363.333 294.96 364.56 294.16C365.787 293.36 366.4 292.4 366.4 291.28C366.4 290.213 365.893 289.413 364.88 288.88C363.813 288.347 362.08 287.787 359.68 287.2C356.907 286.507 354.72 285.84 353.12 285.2C349.387 283.867 346.4 282.267 344.16 280.4C341.92 278.533 340.8 275.84 340.8 272.32C340.8 268 342.507 264.56 345.92 262C349.28 259.44 353.733 258.16 359.28 258.16C363.067 258.16 366.347 258.747 369.12 259.92C371.947 261.147 374.133 262.853 375.68 265.04C377.28 267.173 378.08 269.627 378.08 272.4C378.08 272.72 377.973 272.96 377.76 273.12C377.547 273.333 377.28 273.44 376.96 273.44H367.6C367.28 273.44 367.013 273.333 366.8 273.12C366.587 272.96 366.48 272.72 366.48 272.4C366.48 271.12 365.84 270.027 364.56 269.12C363.227 268.267 361.467 267.84 359.28 267.84C357.36 267.84 355.787 268.187 354.56 268.88C353.333 269.573 352.72 270.533 352.72 271.76C352.72 272.933 353.307 273.813 354.48 274.4C355.707 274.987 357.733 275.627 360.56 276.32C361.2 276.48 361.92 276.667 362.72 276.88C363.573 277.093 364.453 277.333 365.36 277.6C369.52 278.827 372.8 280.4 375.2 282.32C377.6 284.293 378.8 287.12 378.8 290.8C378.8 295.12 377.093 298.507 373.68 300.96C370.267 303.413 365.653 304.64 359.84 304.64ZM443.92 243.12C444.24 242.64 444.667 242.4 445.2 242.4H455.52C455.787 242.4 456.027 242.507 456.24 242.72C456.453 242.933 456.56 243.173 456.56 243.44V302.96C456.56 303.227 456.453 303.467 456.24 303.68C456.027 303.893 455.787 304 455.52 304H445.2C444.88 304 444.64 303.893 444.48 303.68C444.267 303.467 444.16 303.227 444.16 302.96V264.16C444.16 263.893 444.08 263.76 443.92 263.76C443.813 263.76 443.707 263.867 443.6 264.08L434.24 278.64C433.973 279.12 433.573 279.36 433.04 279.36H427.84C427.307 279.36 426.907 279.12 426.64 278.64L417.28 264.08C417.173 263.867 417.067 263.787 416.96 263.84C416.853 263.84 416.8 263.973 416.8 264.24V302.96C416.8 303.227 416.693 303.467 416.48 303.68C416.267 303.893 416 304 415.68 304H405.44C405.12 304 404.853 303.893 404.64 303.68C404.427 303.467 404.32 303.227 404.32 302.96V243.44C404.32 243.173 404.427 242.933 404.64 242.72C404.853 242.507 405.12 242.4 405.44 242.4H415.68C416.213 242.4 416.64 242.64 416.96 243.12L430.16 263.6C430.32 263.973 430.48 263.973 430.64 263.6L443.92 243.12ZM486.48 304.72C481.52 304.72 477.28 303.413 473.76 300.8C470.24 298.24 467.84 294.72 466.56 290.24C465.76 287.52 465.36 284.533 465.36 281.28C465.36 277.813 465.76 274.72 466.56 272C467.893 267.627 470.347 264.213 473.92 261.76C477.387 259.307 481.6 258.08 486.56 258.08C491.36 258.08 495.467 259.28 498.88 261.68C502.293 264.133 504.693 267.547 506.08 271.92C507.04 274.853 507.52 277.92 507.52 281.12C507.52 284.267 507.093 287.227 506.24 290C504.96 294.587 502.587 298.187 499.12 300.8C495.6 303.413 491.387 304.72 486.48 304.72ZM486.48 294.08C488.4 294.08 490.027 293.493 491.36 292.32C492.747 291.147 493.733 289.52 494.32 287.44C494.8 285.573 495.04 283.52 495.04 281.28C495.04 278.827 494.8 276.747 494.32 275.04C493.68 273.067 492.667 271.52 491.28 270.4C489.947 269.28 488.32 268.72 486.4 268.72C484.373 268.72 482.72 269.28 481.44 270.4C480.107 271.52 479.147 273.067 478.56 275.04C478.08 276.48 477.84 278.56 477.84 281.28C477.84 283.947 478.053 286 478.48 287.44C479.067 289.52 480.053 291.147 481.44 292.32C482.773 293.493 484.453 294.08 486.48 294.08ZM533.52 304.64C529.627 304.64 526.213 304.08 523.28 302.96C520.347 301.84 518.053 300.293 516.4 298.32C514.8 296.293 514 294.027 514 291.52V290.64C514 290.32 514.107 290.053 514.32 289.84C514.533 289.68 514.773 289.6 515.04 289.6H524.8C525.12 289.6 525.387 289.68 525.6 289.84C525.813 290.053 525.92 290.32 525.92 290.64V290.72C525.92 292 526.64 293.093 528.08 294C529.52 294.907 531.307 295.36 533.44 295.36C535.467 295.36 537.093 294.96 538.32 294.16C539.547 293.36 540.16 292.4 540.16 291.28C540.16 290.213 539.627 289.413 538.56 288.88C537.493 288.347 535.76 287.787 533.36 287.2C530.587 286.507 528.427 285.84 526.88 285.2C523.093 283.867 520.107 282.267 517.92 280.4C515.68 278.533 514.56 275.84 514.56 272.32C514.56 268 516.24 264.56 519.6 262C522.96 259.44 527.44 258.16 533.04 258.16C536.773 258.16 540.053 258.747 542.88 259.92C545.707 261.147 547.893 262.853 549.44 265.04C550.987 267.173 551.76 269.627 551.76 272.4C551.76 272.72 551.653 272.96 551.44 273.12C551.227 273.333 550.987 273.44 550.72 273.44H541.28C541.013 273.44 540.773 273.333 540.56 273.12C540.347 272.96 540.24 272.72 540.24 272.4C540.24 271.12 539.573 270.027 538.24 269.12C536.907 268.267 535.173 267.84 533.04 267.84C531.067 267.84 529.467 268.187 528.24 268.88C527.013 269.573 526.4 270.533 526.4 271.76C526.4 272.933 527.013 273.813 528.24 274.4C529.413 274.987 531.413 275.627 534.24 276.32L536.48 276.88L539.12 277.6C543.28 278.827 546.56 280.4 548.96 282.32C551.36 284.293 552.56 287.12 552.56 290.8C552.56 295.12 550.853 298.507 547.44 300.96C543.973 303.413 539.333 304.64 533.52 304.64ZM585.52 267.68C585.52 267.947 585.44 268.187 585.28 268.4C585.067 268.613 584.8 268.72 584.48 268.72H576.08C575.76 268.72 575.6 268.853 575.6 269.12V287.84C575.6 289.76 576 291.2 576.8 292.16C577.6 293.067 578.88 293.52 580.64 293.52H583.52C583.84 293.52 584.08 293.627 584.24 293.84C584.453 294.053 584.56 294.293 584.56 294.56V302.96C584.56 303.6 584.213 303.973 583.52 304.08C581.067 304.187 579.307 304.24 578.24 304.24C573.387 304.24 569.76 303.44 567.36 301.84C564.96 300.24 563.733 297.2 563.68 292.72V269.12C563.68 268.853 563.52 268.72 563.2 268.72H558.16C557.893 268.72 557.653 268.613 557.44 268.4C557.227 268.187 557.12 267.947 557.12 267.68V259.84C557.12 259.52 557.227 259.253 557.44 259.04C557.653 258.88 557.893 258.8 558.16 258.8H563.2C563.52 258.8 563.68 258.64 563.68 258.32V247.84C563.68 247.573 563.76 247.333 563.92 247.12C564.133 246.907 564.4 246.8 564.72 246.8H574.56C574.827 246.8 575.067 246.907 575.28 247.12C575.493 247.333 575.6 247.573 575.6 247.84V258.32C575.6 258.64 575.76 258.8 576.08 258.8H584.48C584.8 258.8 585.067 258.88 585.28 259.04C585.44 259.253 585.52 259.52 585.52 259.84V267.68Z" fill="#252530"/>
<path d="M249.6 603.2C249.013 603.2 248.64 602.933 248.48 602.4L233.92 548.24L233.84 547.92C233.84 547.44 234.133 547.2 234.72 547.2H242.56C243.147 547.2 243.52 547.467 243.68 548L252.8 584.48C252.853 584.64 252.933 584.72 253.04 584.72C253.147 584.72 253.227 584.64 253.28 584.48L262 548C262.16 547.467 262.507 547.2 263.04 547.2H270.72C271.307 547.2 271.68 547.467 271.84 548L281.12 584.56C281.173 584.72 281.253 584.8 281.36 584.8C281.466 584.8 281.547 584.72 281.6 584.56L290.56 548C290.72 547.467 291.093 547.2 291.68 547.2H299.12C299.867 547.2 300.16 547.547 300 548.24L286.16 602.4C286 602.933 285.627 603.2 285.04 603.2H277.6C277.013 603.2 276.64 602.933 276.48 602.4L267.12 564.24C267.067 564.08 266.987 563.973 266.88 563.92C266.773 563.92 266.693 564.027 266.64 564.24L257.68 602.4C257.52 602.933 257.173 603.2 256.64 603.2H249.6ZM308.88 603.2C308.613 603.2 308.373 603.093 308.16 602.88C308 602.72 307.92 602.507 307.92 602.24V548.16C307.92 547.893 308 547.68 308.16 547.52C308.373 547.307 308.613 547.2 308.88 547.2H316.24C316.507 547.2 316.72 547.307 316.88 547.52C317.093 547.68 317.2 547.893 317.2 548.16V602.24C317.2 602.507 317.093 602.72 316.88 602.88C316.72 603.093 316.507 603.2 316.24 603.2H308.88ZM361.44 548.16C361.44 547.893 361.52 547.68 361.68 547.52C361.893 547.307 362.133 547.2 362.4 547.2H369.76C370.027 547.2 370.24 547.307 370.4 547.52C370.613 547.68 370.72 547.893 370.72 548.16V602.24C370.72 602.507 370.613 602.72 370.4 602.88C370.24 603.093 370.027 603.2 369.76 603.2H362.64C362.107 603.2 361.733 602.987 361.52 602.56L338.48 564.8C338.373 564.64 338.267 564.56 338.16 564.56C338.053 564.613 338 564.747 338 564.96L338.16 602.24C338.16 602.507 338.053 602.72 337.84 602.88C337.68 603.093 337.467 603.2 337.2 603.2H329.84C329.573 603.2 329.333 603.093 329.12 602.88C328.96 602.72 328.88 602.507 328.88 602.24V548.16C328.88 547.893 328.96 547.68 329.12 547.52C329.333 547.307 329.573 547.2 329.84 547.2H336.96C337.493 547.2 337.867 547.413 338.08 547.84L361.04 585.6C361.147 585.76 361.253 585.813 361.36 585.76C361.466 585.76 361.52 585.653 361.52 585.44L361.44 548.16ZM419.2 547.2C419.467 547.2 419.68 547.307 419.84 547.52C420.053 547.68 420.16 547.893 420.16 548.16V554.32C420.16 554.587 420.053 554.8 419.84 554.96C419.68 555.173 419.467 555.28 419.2 555.28H404.48C404.213 555.28 404.08 555.413 404.08 555.68V602.24C404.08 602.507 404 602.72 403.84 602.88C403.627 603.093 403.387 603.2 403.12 603.2H395.76C395.493 603.2 395.28 603.093 395.12 602.88C394.907 602.72 394.8 602.507 394.8 602.24V555.68C394.8 555.413 394.667 555.28 394.4 555.28H380.24C379.973 555.28 379.733 555.173 379.52 554.96C379.36 554.8 379.28 554.587 379.28 554.32V548.16C379.28 547.893 379.36 547.68 379.52 547.52C379.733 547.307 379.973 547.2 380.24 547.2H419.2ZM466.64 554.24C466.64 554.507 466.533 554.72 466.32 554.88C466.16 555.093 465.947 555.2 465.68 555.2H438.4C438.133 555.2 438 555.333 438 555.6V570.56C438 570.827 438.133 570.96 438.4 570.96H456.72C456.987 570.96 457.227 571.04 457.44 571.2C457.6 571.413 457.68 571.653 457.68 571.92V578C457.68 578.267 457.6 578.507 457.44 578.72C457.227 578.88 456.987 578.96 456.72 578.96H438.4C438.133 578.96 438 579.093 438 579.36V594.8C438 595.067 438.133 595.2 438.4 595.2H465.68C465.947 595.2 466.16 595.307 466.32 595.52C466.533 595.68 466.64 595.893 466.64 596.16V602.24C466.64 602.507 466.533 602.72 466.32 602.88C466.16 603.093 465.947 603.2 465.68 603.2H429.68C429.413 603.2 429.173 603.093 428.96 602.88C428.8 602.72 428.72 602.507 428.72 602.24V548.16C428.72 547.893 428.8 547.68 428.96 547.52C429.173 547.307 429.413 547.2 429.68 547.2H465.68C465.947 547.2 466.16 547.307 466.32 547.52C466.533 547.68 466.64 547.893 466.64 548.16V554.24ZM507.52 603.2C506.987 603.2 506.613 602.96 506.4 602.48L495.84 579.44C495.733 579.227 495.573 579.12 495.36 579.12H485.76C485.493 579.12 485.36 579.253 485.36 579.52V602.24C485.36 602.507 485.253 602.72 485.04 602.88C484.88 603.093 484.667 603.2 484.4 603.2H477.04C476.773 603.2 476.533 603.093 476.32 602.88C476.16 602.72 476.08 602.507 476.08 602.24V548.16C476.08 547.893 476.16 547.68 476.32 547.52C476.533 547.307 476.773 547.2 477.04 547.2H499.04C502.293 547.2 505.173 547.867 507.68 549.2C510.186 550.587 512.133 552.507 513.52 554.96C514.907 557.467 515.6 560.32 515.6 563.52C515.6 567.2 514.64 570.32 512.72 572.88C510.853 575.493 508.24 577.307 504.88 578.32C504.773 578.32 504.693 578.373 504.64 578.48C504.587 578.587 504.587 578.693 504.64 578.8L515.92 602.08C516.026 602.293 516.08 602.453 516.08 602.56C516.08 602.987 515.787 603.2 515.2 603.2H507.52ZM485.76 555.2C485.493 555.2 485.36 555.333 485.36 555.6V571.52C485.36 571.787 485.493 571.92 485.76 571.92H497.76C500.32 571.92 502.4 571.147 504 569.6C505.547 568.107 506.32 566.107 506.32 563.6C506.32 561.093 505.547 559.067 504 557.52C502.4 555.973 500.32 555.2 497.76 555.2H485.76Z" fill="white"/>
<path d="M270.88 747.68C270.72 747.84 270.667 748 270.72 748.16C270.827 748.32 270.987 748.4 271.2 748.4H302.64C303.013 748.4 303.333 748.533 303.6 748.8C303.92 749.067 304.08 749.387 304.08 749.76V761.04C304.08 761.413 303.92 761.733 303.6 762C303.333 762.267 303.013 762.4 302.64 762.4H250.48C250.053 762.4 249.707 762.267 249.44 762C249.173 761.733 249.04 761.413 249.04 761.04V750.32C249.04 749.627 249.28 749.04 249.76 748.56C253.547 744.88 257.413 740.853 261.36 736.48C265.307 732.107 267.787 729.387 268.8 728.32C270.933 725.76 273.12 723.307 275.36 720.96C282.4 713.173 285.92 707.387 285.92 703.6C285.92 700.88 284.96 698.64 283.04 696.88C281.12 695.173 278.613 694.32 275.52 694.32C272.427 694.32 269.92 695.173 268 696.88C266.027 698.64 265.04 700.96 265.04 703.84V706.72C265.04 707.093 264.907 707.413 264.64 707.68C264.373 707.947 264.053 708.08 263.68 708.08H250C249.627 708.08 249.307 707.947 249.04 707.68C248.72 707.413 248.56 707.093 248.56 706.72V701.28C248.827 697.12 250.16 693.413 252.56 690.16C254.96 686.96 258.133 684.507 262.08 682.8C266.08 681.093 270.56 680.24 275.52 680.24C281.013 680.24 285.787 681.28 289.84 683.36C293.893 685.387 297.013 688.133 299.2 691.6C301.44 695.12 302.56 698.987 302.56 703.2C302.56 706.453 301.733 709.787 300.08 713.2C298.48 716.613 296.053 720.293 292.8 724.24C290.4 727.227 287.813 730.213 285.04 733.2C282.267 736.133 278.133 740.373 272.64 745.92L270.88 747.68ZM341.76 763.68C333.227 763.68 326.507 761.307 321.6 756.56C316.64 751.813 314.16 745.333 314.16 737.12V706.48C314.16 698.427 316.64 692.053 321.6 687.36C326.507 682.613 333.227 680.24 341.76 680.24C350.24 680.24 356.987 682.613 362 687.36C366.96 692.053 369.44 698.427 369.44 706.48V737.12C369.44 745.333 366.96 751.813 362 756.56C356.987 761.307 350.24 763.68 341.76 763.68ZM341.76 749.68C345.227 749.68 347.973 748.613 350 746.48C352.08 744.347 353.12 741.493 353.12 737.92V706C353.12 702.48 352.08 699.653 350 697.52C347.973 695.387 345.227 694.32 341.76 694.32C338.347 694.32 335.627 695.387 333.6 697.52C331.52 699.653 330.48 702.48 330.48 706V737.92C330.48 741.493 331.52 744.347 333.6 746.48C335.627 748.613 338.347 749.68 341.76 749.68ZM401.92 747.68C401.76 747.84 401.733 748 401.84 748.16C401.893 748.32 402.053 748.4 402.32 748.4H433.76C434.133 748.4 434.453 748.533 434.72 748.8C434.987 749.067 435.12 749.387 435.12 749.76V761.04C435.12 761.413 434.987 761.733 434.72 762C434.453 762.267 434.133 762.4 433.76 762.4H381.52C381.147 762.4 380.827 762.267 380.56 762C380.293 761.733 380.16 761.413 380.16 761.04V750.32C380.16 749.627 380.373 749.04 380.8 748.56C384.64 744.88 388.507 740.853 392.4 736.48C396.347 732.107 398.827 729.387 399.84 728.32C402.027 725.76 404.24 723.307 406.48 720.96C413.52 713.173 417.04 707.387 417.04 703.6C417.04 700.88 416.08 698.64 414.16 696.88C412.187 695.173 409.653 694.32 406.56 694.32C403.467 694.32 400.96 695.173 399.04 696.88C397.12 698.64 396.16 700.96 396.16 703.84V706.72C396.16 707.093 396.027 707.413 395.76 707.68C395.493 707.947 395.147 708.08 394.72 708.08H381.04C380.667 708.08 380.347 707.947 380.08 707.68C379.813 707.413 379.68 707.093 379.68 706.72V701.28C379.893 697.12 381.2 693.413 383.6 690.16C386 686.96 389.2 684.507 393.2 682.8C397.2 681.093 401.653 680.24 406.56 680.24C412.053 680.24 416.827 681.28 420.88 683.36C424.987 685.387 428.133 688.133 430.32 691.6C432.507 695.12 433.6 698.987 433.6 703.2C433.6 706.453 432.8 709.787 431.2 713.2C429.547 716.613 427.093 720.293 423.84 724.24C421.44 727.227 418.853 730.213 416.08 733.2C413.307 736.133 409.173 740.373 403.68 745.92L401.92 747.68ZM496.8 725.36C497.973 729.147 498.56 732.827 498.56 736.4C498.56 740.347 497.947 743.92 496.72 747.12C494.96 752.027 491.84 755.947 487.36 758.88C482.827 761.76 477.547 763.2 471.52 763.2C465.653 763.2 460.507 761.787 456.08 758.96C451.6 756.133 448.453 752.293 446.64 747.44C445.84 745.413 445.253 743.28 444.88 741.04V740.8C444.88 739.947 445.333 739.52 446.24 739.52H460.32C461.067 739.52 461.573 739.947 461.84 740.8C461.893 741.28 462 741.68 462.16 742C462.32 742.32 462.427 742.587 462.48 742.8C463.28 744.827 464.453 746.373 466 747.44C467.547 748.507 469.36 749.04 471.44 749.04C473.627 749.04 475.52 748.453 477.12 747.28C478.72 746.16 479.92 744.56 480.72 742.48C481.467 740.933 481.84 738.907 481.84 736.4C481.84 734.16 481.493 732.16 480.8 730.4C480.267 728.373 479.2 726.827 477.6 725.76C475.947 724.64 474.053 724.08 471.92 724.08C469.733 724.08 467.707 724.587 465.84 725.6C464.027 726.613 462.8 727.947 462.16 729.6C461.947 730.347 461.44 730.72 460.64 730.72H446.4C445.973 730.72 445.627 730.587 445.36 730.32C445.093 730.053 444.96 729.733 444.96 729.36V682.56C444.96 682.187 445.093 681.867 445.36 681.6C445.627 681.333 445.973 681.2 446.4 681.2H494.32C494.693 681.2 495.013 681.333 495.28 681.6C495.547 681.867 495.68 682.187 495.68 682.56V693.84C495.68 694.213 495.547 694.533 495.28 694.8C495.013 695.067 494.693 695.2 494.32 695.2H461.92C461.547 695.2 461.36 695.413 461.36 695.84L461.2 712.96C461.2 713.493 461.44 713.627 461.92 713.36C465.387 711.12 469.413 710 474 710C479.387 710 484.107 711.36 488.16 714.08C492.267 716.853 495.147 720.613 496.8 725.36Z" fill="#252530"/>
</svg>
