<svg width="771" height="771" viewBox="0 0 771 771" fill="none" xmlns="http://www.w3.org/2000/svg">
<path d="M385.5 539.096C470.329 539.096 539.096 470.329 539.096 385.5C539.096 300.671 470.329 231.904 385.5 231.904C300.671 231.904 231.904 300.671 231.904 385.5C231.904 470.329 300.671 539.096 385.5 539.096Z" stroke="url(#paint0_linear)" stroke-width="4" stroke-miterlimit="10"/>
<path d="M385.5 653.981C533.778 653.981 653.981 533.778 653.981 385.5C653.981 237.222 533.778 117.019 385.5 117.019C237.222 117.019 117.019 237.222 117.019 385.5C117.019 533.778 237.222 653.981 385.5 653.981Z" stroke="url(#paint1_linear)" stroke-width="4" stroke-miterlimit="10"/>
<path d="M385.5 768.866C597.227 768.866 768.866 597.227 768.866 385.5C768.866 173.773 597.227 2.13379 385.5 2.13379C173.773 2.13379 2.13373 173.773 2.13373 385.5C2.13373 597.227 173.773 768.866 385.5 768.866Z" stroke="url(#paint2_linear)" stroke-width="4" stroke-miterlimit="10"/>
<defs>
<linearGradient id="paint0_linear" x1="231.85" y1="539.15" x2="539.15" y2="231.85" gradientUnits="userSpaceOnUse">
<stop stop-color="#FF5416"/>
<stop offset="0.1871" stop-color="#FF4C14"/>
<stop offset="0.4706" stop-color="#FF380F"/>
<stop offset="0.8136" stop-color="#FF1606"/>
<stop offset="1" stop-color="#FF0000"/>
</linearGradient>
<linearGradient id="paint1_linear" x1="116.925" y1="654.075" x2="654.075" y2="116.925" gradientUnits="userSpaceOnUse">
<stop stop-color="#FF5416"/>
<stop offset="0.1871" stop-color="#FF4C14"/>
<stop offset="0.4706" stop-color="#FF380F"/>
<stop offset="0.8136" stop-color="#FF1606"/>
<stop offset="1" stop-color="#FF0000"/>
</linearGradient>
<linearGradient id="paint2_linear" x1="2" y1="769" x2="769" y2="2.00002" gradientUnits="userSpaceOnUse">
<stop stop-color="#FF5416"/>
<stop offset="0.1871" stop-color="#FF4C14"/>
<stop offset="0.4706" stop-color="#FF380F"/>
<stop offset="0.8136" stop-color="#FF1606"/>
<stop offset="1" stop-color="#FF0000"/>
</linearGradient>
</defs>
</svg>
