<svg width="20" height="20" viewBox="0 0 20 20" fill="none" xmlns="http://www.w3.org/2000/svg">
<path d="M9.70314 1.3249C9.7943 1.27574 9.89624 1.25 9.99981 1.25C10.1034 1.25 10.2053 1.27574 10.2965 1.3249L18.4215 5.6999C18.5207 5.75345 18.6036 5.83285 18.6613 5.92967C18.7191 6.0265 18.7496 6.13715 18.7496 6.2499C18.7496 6.36265 18.7191 6.4733 18.6613 6.57012C18.6036 6.66695 18.5207 6.74634 18.4215 6.7999L10.2965 11.1749C10.2053 11.2241 10.1034 11.2498 9.99981 11.2498C9.89624 11.2498 9.7943 11.2241 9.70314 11.1749L1.57814 6.7999C1.47892 6.74634 1.39604 6.66695 1.33827 6.57012C1.2805 6.4733 1.25 6.36265 1.25 6.2499C1.25 6.13715 1.2805 6.0265 1.33827 5.92967C1.39604 5.83285 1.47892 5.75345 1.57814 5.6999L9.70314 1.3249Z" fill="currentColor"/>
<path d="M2.72078 8.83506L9.11078 12.2759C9.38404 12.4231 9.68957 12.5001 9.99995 12.5001C10.3103 12.5001 10.6159 12.4231 10.8891 12.2759L17.2791 8.83423L18.4208 9.45006C18.52 9.50362 18.6029 9.58301 18.6607 9.67984C18.7184 9.77666 18.7489 9.88731 18.7489 10.0001C18.7489 10.1128 18.7184 10.2235 18.6607 10.3203C18.6029 10.4171 18.52 10.4965 18.4208 10.5501L10.2958 14.9251C10.2048 14.9739 10.1032 14.9995 9.99995 14.9995C9.8967 14.9995 9.79507 14.9739 9.70412 14.9251L1.57912 10.5501C1.4799 10.4965 1.39701 10.4171 1.33924 10.3203C1.28148 10.2235 1.25098 10.1128 1.25098 10.0001C1.25098 9.88731 1.28148 9.77666 1.33924 9.67984C1.39701 9.58301 1.4799 9.50362 1.57912 9.45006L2.72078 8.83506Z" fill="currentColor"/>
<path d="M9.11078 16.0259L2.72078 12.5842L1.57912 13.2001C1.4799 13.2536 1.39701 13.333 1.33924 13.4298C1.28148 13.5267 1.25098 13.6373 1.25098 13.7501C1.25098 13.8628 1.28148 13.9735 1.33924 14.0703C1.39701 14.1671 1.4799 14.2465 1.57912 14.3001L9.70412 18.6751C9.88828 18.7751 10.1116 18.7751 10.2958 18.6751L18.4208 14.3001C18.52 14.2465 18.6029 14.1671 18.6607 14.0703C18.7184 13.9735 18.7489 13.8628 18.7489 13.7501C18.7489 13.6373 18.7184 13.5267 18.6607 13.4298C18.6029 13.333 18.52 13.2536 18.4208 13.2001L17.2791 12.5851L10.8891 16.0267C10.6158 16.1738 10.3102 16.2507 9.99985 16.2506C9.68947 16.2504 9.38398 16.1732 9.11078 16.0259Z" fill="currentColor"/>
</svg>
