<svg width="24" height="24" viewBox="0 0 24 24" fill="none" xmlns="http://www.w3.org/2000/svg">
<path d="M20.5635 11C20.8403 10.1303 21 9.21182 21 8.25C21 5.76472 18.9013 3.75 16.3125 3.75C14.3769 3.75 12.7153 4.87628 12 6.48342C11.2847 4.87628 9.62312 3.75 7.6875 3.75C5.09867 3.75 3 5.76472 3 8.25C3 9.21182 3.1597 10.1303 3.43654 11M19.3976 13.5C16.8104 17.6954 12 20.25 12 20.25C12 20.25 7.18957 17.6954 4.60242 13.5" stroke="currentColor" stroke-width="1.5" stroke-linecap="round" stroke-linejoin="round"/>
<path d="M2 13.4393H5.78505L7.75545 10.9907L9.72586 15.3738L11.6963 10L13.6667 13.6168L15.6371 10.9907L17.6075 13.4393H22" stroke="currentColor" stroke-width="1.5" stroke-linecap="round" stroke-linejoin="round"/>
</svg>
