<svg width="24" height="24" viewBox="0 0 24 24" fill="none" xmlns="http://www.w3.org/2000/svg">
<path d="M12 1.99976C10.0222 1.99976 8.08879 2.58625 6.4443 3.68506C4.79981 4.78387 3.51809 6.34566 2.76121 8.17292C2.00433 10.0002 1.8063 12.0108 2.19215 13.9507C2.578 15.8905 3.53041 17.6723 4.92894 19.0708C6.32746 20.4693 8.10929 21.4218 10.0491 21.8076C11.9889 22.1935 13.9996 21.9954 15.8268 21.2386C17.6541 20.4817 19.2159 19.1999 20.3147 17.5555C21.4135 15.911 22 13.9776 22 11.9998C22 10.6865 21.7413 9.38618 21.2388 8.17292C20.7363 6.95967 19.9997 5.85727 19.0711 4.92869C18.1425 4.0001 17.0401 3.26351 15.8268 2.76096C14.6136 2.25841 13.3132 1.99976 12 1.99976ZM12 19.9998C10.4178 19.9998 8.87104 19.5306 7.55544 18.6515C6.23985 17.7725 5.21447 16.523 4.60897 15.0612C4.00347 13.5994 3.84504 11.9909 4.15372 10.439C4.4624 8.88719 5.22433 7.46172 6.34315 6.3429C7.46197 5.22408 8.88743 4.46216 10.4393 4.15347C11.9911 3.84479 13.5997 4.00322 15.0615 4.60872C16.5233 5.21422 17.7727 6.2396 18.6518 7.55519C19.5308 8.87079 20 10.4175 20 11.9998C20 14.1215 19.1572 16.1563 17.6569 17.6566C16.1566 19.1569 14.1217 19.9998 12 19.9998Z" fill="#687288"/>
<path d="M20 11.9998H22C22 10.6865 21.7413 9.38618 21.2388 8.17292C20.7363 6.95967 19.9997 5.85727 19.0711 4.92869C18.1425 4.0001 17.0401 3.26351 15.8268 2.76096C14.6136 2.25841 13.3132 1.99976 12 1.99976L12 3.99976C14.1217 3.99976 16.1566 4.84261 17.6569 6.3429C19.1571 7.84319 20 9.87802 20 11.9998Z" fill="#FF5416"/>
</svg>
