<svg width="24" height="24" viewBox="0 0 24 24" fill="none" xmlns="http://www.w3.org/2000/svg">
<path d="M3.30176 12.6826C3.55215 13.2053 3.83885 13.7053 4.14941 14.1826H2C1.58591 14.1826 1.2502 13.8467 1.25 13.4326C1.25 13.0184 1.58579 12.6826 2 12.6826H3.30176ZM22.0762 12.6865C22.4546 12.7247 22.75 13.0441 22.75 13.4326C22.7498 13.8209 22.4545 14.1405 22.0762 14.1787L22 14.1826H19.8506C20.1612 13.7053 20.4479 13.2053 20.6982 12.6826H22L22.0762 12.6865Z" fill="currentColor"/>
<path d="M13.0078 13.9688C13.1299 14.1928 13.3578 14.3399 13.6123 14.3584C13.8667 14.3769 14.1134 14.2645 14.2666 14.0605L15.6572 12.2051L17.0234 13.9023C17.1658 14.0792 17.3804 14.1826 17.6074 14.1826H19.8506C19.0151 15.4667 18.0015 16.5832 17.0117 17.5059C15.8491 18.5896 14.6891 19.4378 13.8213 20.0146C13.3867 20.3036 13.0231 20.5259 12.7666 20.6768C12.6386 20.7521 12.5374 20.8102 12.4668 20.8496C12.4315 20.8693 12.4031 20.884 12.3838 20.8945L12.3613 20.9072L12.3555 20.9111L12.3525 20.9121C12.1326 21.0289 11.8674 21.0289 11.6475 20.9121L11.6445 20.9111L11.6387 20.9072L11.6162 20.8945C11.5969 20.884 11.5685 20.8693 11.5332 20.8496C11.4626 20.8102 11.3614 20.7521 11.2334 20.6768C10.9769 20.5259 10.6133 20.3036 10.1787 20.0146C9.31091 19.4378 8.15088 18.5896 6.98828 17.5059C5.9985 16.5832 4.98487 15.4667 4.14941 14.1826H5.78516C6.01216 14.1826 6.2268 14.0792 6.36914 13.9023L7.57227 12.4062L9.04199 15.6748C9.16711 15.9526 9.44837 16.127 9.75293 16.1162C10.0574 16.1052 10.3247 15.9111 10.4297 15.625L11.8301 11.8057L13.0078 13.9688ZM16.3125 3C19.2864 3 21.75 5.32194 21.75 8.25C21.75 9.85866 21.3399 11.343 20.6982 12.6826H17.9668L16.2217 10.5137C16.0765 10.3333 15.8555 10.2304 15.624 10.2344C15.4216 10.2379 15.2304 10.3226 15.0928 10.4678L15.0371 10.5342L13.7666 12.2266L12.3545 9.63477C12.2136 9.37614 11.9343 9.22343 11.6406 9.24512C11.3837 9.26423 11.1575 9.41354 11.0371 9.63574L10.9922 9.73535L9.6543 13.3799L8.43945 10.6768C8.33249 10.4388 8.10933 10.2734 7.85059 10.2402C7.62411 10.2113 7.39867 10.2867 7.23633 10.4424L7.1709 10.5137L5.42578 12.6826H3.30176C2.66006 11.343 2.25 9.85866 2.25 8.25C2.25 5.32194 4.7136 3 7.6875 3C9.43638 3 11.0023 3.79925 12 5.05176C12.9977 3.79925 14.5636 3 16.3125 3Z" fill="currentColor"/>
</svg>
