<svg width="24" height="24" viewBox="0 0 24 24" fill="none" xmlns="http://www.w3.org/2000/svg">
<path fill-rule="evenodd" clip-rule="evenodd" d="M0.550049 4.28362C0.550049 2.39152 2.0839 0.857666 3.97601 0.857666H17.3558C19.2479 0.857666 20.7818 2.39152 20.7818 4.28362V10.3882C20.7818 10.8024 20.446 11.1382 20.0318 11.1382C19.6175 11.1382 19.2818 10.8024 19.2818 10.3882V6.60156H2.05005V17.6634C2.05005 18.7271 2.91233 19.5894 3.97601 19.5894H8.32444C8.73865 19.5894 9.07444 19.9252 9.07444 20.3394C9.07444 20.7536 8.73865 21.0894 8.32444 21.0894H3.97601C2.0839 21.0894 0.550049 19.5555 0.550049 17.6634V4.28362ZM2.05005 5.10156H19.2818V4.28362C19.2818 3.21995 18.4195 2.35767 17.3558 2.35767H3.97601C2.91233 2.35767 2.05005 3.21995 2.05005 4.28362V5.10156ZM14.9683 11.3192C15.7423 9.97863 17.6772 9.97864 18.4511 11.3192L23.1956 19.5368C23.9695 20.8773 23.0021 22.553 21.4542 22.553H11.9653C10.4174 22.553 9.44992 20.8773 10.2239 19.5368L14.9683 11.3192ZM17.1521 12.0692C16.9555 11.7286 16.464 11.7286 16.2674 12.0692L11.5229 20.2868C11.3263 20.6273 11.5721 21.053 11.9653 21.053H21.4542C21.8474 21.053 22.0931 20.6273 21.8965 20.2868L17.1521 12.0692ZM16 17.6504C16 18.0646 16.3358 18.4004 16.75 18.4004C17.1642 18.4004 17.5 18.0646 17.5 17.6504V14.1504C17.5 13.7362 17.1642 13.4004 16.75 13.4004C16.3358 13.4004 16 13.7362 16 14.1504V17.6504ZM17.4683 19.6013C17.4683 20.0155 17.1325 20.3513 16.7183 20.3513C16.304 20.3513 15.9683 20.0155 15.9683 19.6013C15.9683 19.1871 16.304 18.8513 16.7183 18.8513C17.1325 18.8513 17.4683 19.1871 17.4683 19.6013ZM5.40002 3.75C5.40002 4.16421 5.06424 4.5 4.65002 4.5C4.23581 4.5 3.90002 4.16421 3.90002 3.75C3.90002 3.33579 4.23581 3 4.65002 3C5.06424 3 5.40002 3.33579 5.40002 3.75ZM7.15002 4.5C7.56424 4.5 7.90002 4.16421 7.90002 3.75C7.90002 3.33579 7.56424 3 7.15002 3C6.73581 3 6.40002 3.33579 6.40002 3.75C6.40002 4.16421 6.73581 4.5 7.15002 4.5Z" fill="#03020D"/>
</svg>
