<svg width="24" height="24" viewBox="0 0 24 24" fill="none" xmlns="http://www.w3.org/2000/svg">
<path d="M13.32 20.3969L13.8783 20.8977L13.32 20.3969ZM10.6801 20.3969L10.1218 20.8977H10.1218L10.6801 20.3969ZM18.4867 10.23C18.4867 10.874 18.2874 11.6507 17.9158 12.5223C17.5473 13.3868 17.0282 14.301 16.4339 15.2073C15.2452 17.0204 13.794 18.745 12.7616 19.8962L13.8783 20.8977C14.9335 19.7211 16.4406 17.9329 17.6884 16.0298C18.3124 15.078 18.881 14.0832 19.2957 13.1106C19.7073 12.1452 19.9867 11.1567 19.9867 10.23H18.4867ZM12.0001 3.74341C15.5825 3.74341 18.4867 6.64757 18.4867 10.23H19.9867C19.9867 5.81914 16.4109 2.24341 12.0001 2.24341V3.74341ZM5.51343 10.23C5.51343 6.64757 8.41759 3.74341 12.0001 3.74341V2.24341C7.58916 2.24341 4.01343 5.81914 4.01343 10.23H5.51343ZM11.2385 19.8962C10.2061 18.745 8.75488 17.0204 7.56618 15.2073C6.97195 14.301 6.45283 13.3868 6.08427 12.5223C5.71267 11.6507 5.51343 10.874 5.51343 10.23H4.01343C4.01343 11.1567 4.29283 12.1452 4.70444 13.1106C5.11909 14.0832 5.68774 15.078 6.31175 16.0298C7.55953 17.9329 9.06664 19.7211 10.1218 20.8977L11.2385 19.8962ZM12.7616 19.8962C12.3464 20.3591 11.6537 20.3591 11.2385 19.8962L10.1218 20.8977C11.133 22.0253 12.8671 22.0253 13.8783 20.8977L12.7616 19.8962ZM14.1446 10.2301C14.1446 11.4146 13.1845 12.3748 12 12.3748V13.8748C14.0129 13.8748 15.6446 12.243 15.6446 10.2301H14.1446ZM12 8.08547C13.1845 8.08547 14.1446 9.04566 14.1446 10.2301H15.6446C15.6446 8.21724 14.0129 6.58547 12 6.58547V8.08547ZM9.85535 10.2301C9.85535 9.04566 10.8155 8.08547 12 8.08547V6.58547C9.98712 6.58547 8.35535 8.21724 8.35535 10.2301H9.85535ZM12 12.3748C10.8155 12.3748 9.85535 11.4146 9.85535 10.2301H8.35535C8.35535 12.243 9.98712 13.8748 12 13.8748V12.3748Z" fill="currentColor"/>
</svg>
