<svg width="24" height="24" viewBox="0 0 24 24" fill="none" xmlns="http://www.w3.org/2000/svg">
<path fill-rule="evenodd" clip-rule="evenodd" d="M7 2C4.23858 2 2 4.23858 2 7V17C2 19.7614 4.23858 22 7 22H17C19.7614 22 22 19.7614 22 17V7C22 4.23858 19.7614 2 17 2H7ZM16.3548 9.19702C16.5887 8.85517 16.5012 8.38843 16.1594 8.15453C15.8175 7.92063 15.3508 8.00814 15.1169 8.35L11.2121 14.057L8.96429 11.8092C8.6714 11.5163 8.19652 11.5163 7.90363 11.8092C7.61074 12.1021 7.61074 12.577 7.90363 12.8699L10.7904 15.7567C10.9482 15.9144 11.168 15.9938 11.3902 15.9731C11.6123 15.9525 11.8137 15.834 11.9397 15.6499L16.3548 9.19702Z" fill="currentColor"/>
</svg>
