<svg width="24" height="24" viewBox="0 0 24 24" fill="none" xmlns="http://www.w3.org/2000/svg">
<path fill-rule="evenodd" clip-rule="evenodd" d="M20 14.5613C19.5858 14.5613 19.25 14.2255 19.25 13.8113V10.0377C19.25 7.11736 16.8826 4.74996 13.9623 4.74996L12.75 4.74996V9.88428C12.75 10.6292 11.8975 11.0523 11.3042 10.6018L3.75266 4.86822C3.06522 4.34628 3.43435 3.24972 4.29747 3.24972L12.75 3.24972V3.24996L13.9623 3.24996C17.711 3.24996 20.75 6.28893 20.75 10.0377V13.8113C20.75 14.2255 20.4142 14.5613 20 14.5613ZM4 9.43848C4.41421 9.43848 4.75 9.77426 4.75 10.1885V13.9621C4.75 16.8824 7.1174 19.2498 10.0377 19.2498H11.25V14.1155C11.25 13.3706 12.1025 12.9475 12.6958 13.3979L20.2473 19.1315C20.9348 19.6535 20.5656 20.75 19.7025 20.75H11.25V20.7498H10.0377C6.28897 20.7498 3.25 17.7108 3.25 13.9621V10.1885C3.25 9.77426 3.58579 9.43848 4 9.43848Z" fill="currentColor"/>
</svg>
