<svg xmlns="http://www.w3.org/2000/svg"><symbol fill="none" id="sprite-discord" viewBox="0 0 71 55"><title>sprite-discord</title>
<g clip-path="url(#clip0)">
<path d="M60.1045 4.8978C55.5792 2.8214 50.7265 1.2916 45.6527 0.41542C45.5603 0.39851 45.468 0.440769 45.4204 0.525289C44.7963 1.6353 44.105 3.0834 43.6209 4.2216C38.1637 3.4046 32.7345 3.4046 27.3892 4.2216C26.905 3.0581 26.1886 1.6353 25.5617 0.525289C25.5141 0.443589 25.4218 0.40133 25.3294 0.41542C20.2584 1.2888 15.4057 2.8186 10.8776 4.8978C10.8384 4.9147 10.8048 4.9429 10.7825 4.9795C1.57795 18.7309 -0.943561 32.1443 0.293408 45.3914C0.299005 45.4562 0.335386 45.5182 0.385761 45.5576C6.45866 50.0174 12.3413 52.7249 18.1147 54.5195C18.2071 54.5477 18.305 54.5139 18.3638 54.4378C19.7295 52.5728 20.9469 50.6063 21.9907 48.5383C22.0523 48.4172 21.9935 48.2735 21.8676 48.2256C19.9366 47.4931 18.0979 46.6 16.3292 45.5858C16.1893 45.5041 16.1781 45.304 16.3068 45.2082C16.679 44.9293 17.0513 44.6391 17.4067 44.3461C17.471 44.2926 17.5606 44.2813 17.6362 44.3151C29.2558 49.6202 41.8354 49.6202 53.3179 44.3151C53.3935 44.2785 53.4831 44.2898 53.5502 44.3433C53.9057 44.6363 54.2779 44.9293 54.6529 45.2082C54.7816 45.304 54.7732 45.5041 54.6333 45.5858C52.8646 46.6197 51.0259 47.4931 49.0921 48.2228C48.9662 48.2707 48.9102 48.4172 48.9718 48.5383C50.038 50.6034 51.2554 52.5699 52.5959 54.435C52.6519 54.5139 52.7526 54.5477 52.845 54.5195C58.6464 52.7249 64.529 50.0174 70.6019 45.5576C70.6551 45.5182 70.6887 45.459 70.6943 45.3942C72.1747 30.0791 68.2147 16.7757 60.1968 4.9823C60.1772 4.9429 60.1437 4.9147 60.1045 4.8978ZM23.7259 37.3253C20.2276 37.3253 17.3451 34.1136 17.3451 30.1693C17.3451 26.225 20.1717 23.0133 23.7259 23.0133C27.308 23.0133 30.1626 26.2532 30.1066 30.1693C30.1066 34.1136 27.28 37.3253 23.7259 37.3253ZM47.3178 37.3253C43.8196 37.3253 40.9371 34.1136 40.9371 30.1693C40.9371 26.225 43.7636 23.0133 47.3178 23.0133C50.9 23.0133 53.7545 26.2532 53.6986 30.1693C53.6986 34.1136 50.9 37.3253 47.3178 37.3253Z" fill="currentColor"/>
</g>
<defs>
<clipPath id="clip0">
<rect width="71" height="55" fill="white"/>
</clipPath>
</defs>
</symbol><symbol id="sprite-facebook" viewBox="0 0 24 25"><title>sprite-facebook</title>
<path d="M24 13C24 6.37258 18.6274 1 12 1C5.37258 1 0 6.37258 0 13C0 18.9895 4.3882 23.954 10.125 24.8542V16.4688H7.07812V13H10.125V10.3563C10.125 7.34875 11.9166 5.6875 14.6576 5.6875C15.9701 5.6875 17.3438 5.92188 17.3438 5.92188V8.875H15.8306C14.34 8.875 13.875 9.80008 13.875 10.75V13H17.2031L16.6711 16.4688H13.875V24.8542C19.6118 23.954 24 18.9895 24 13Z" fill="currentColor"/>
<path d="M16.6711 16.4688L17.2031 13H13.875V10.75C13.875 9.80102 14.34 8.875 15.8306 8.875H17.3438V5.92188C17.3438 5.92188 15.9705 5.6875 14.6576 5.6875C11.9166 5.6875 10.125 7.34875 10.125 10.3563V13H7.07812V16.4688H10.125V24.8542C11.3674 25.0486 12.6326 25.0486 13.875 24.8542V16.4688H16.6711Z" fill="none"/>
</symbol><symbol id="sprite-github" viewBox="0 0 24 24"><title>sprite-github</title>
<path fill-rule="evenodd" clip-rule="evenodd" d="M12 0C5.4 0 0 5.41945 0 12.0432C0 17.3623 3.4 21.8785 8.2 23.4843C8.8 23.5846 9 23.1832 9 22.8821C9 22.581 9 21.8785 9 20.8749C5.7 21.5774 5 19.2692 5 19.2692C4.5 17.8641 3.7 17.4627 3.7 17.4627C2.6 16.7601 3.8 16.7602 3.8 16.7602C5 16.8605 5.6 17.9645 5.6 17.9645C6.7 19.771 8.4 19.2692 9.1 18.9681C9.2 18.1652 9.5 17.6634 9.9 17.3623C7.1 17.0612 4.3 16.0576 4.3 11.4411C4.3 10.1364 4.8 9.03242 5.5 8.22953C5.5 7.82809 5 6.62377 5.7 5.01801C5.7 5.01801 6.7 4.71693 9 6.22233C10 5.92125 11 5.82089 12 5.82089C13 5.82089 14 5.92125 15 6.22233C17.3 4.71693 18.3 5.01801 18.3 5.01801C19 6.72413 18.5 7.92845 18.4 8.22953C19.2 9.03242 19.6 10.1364 19.6 11.4411C19.6 16.0576 16.8 17.0612 14.1 17.3623C14.5 17.7638 14.9 18.4663 14.9 19.5702C14.9 21.176 14.9 22.4807 14.9 22.8821C14.9 23.1832 15.1 23.5846 15.7 23.4843C20.6 21.8785 24 17.3623 24 12.0432C24 5.41945 18.6 0 12 0Z"/>
</symbol><symbol id="sprite-glassdoor" viewBox="0 0 18 24"><title>sprite-glassdoor</title>
<path d="M14.122 20.5734H0.5C0.5 22.4677 2.0222 24 3.90634 24H14.122C16.0027 24 17.5249 22.4643 17.5249 20.5734V6.49471C17.5249 6.42706 17.4708 6.36617 17.4032 6.36617H14.2438C14.1761 6.36617 14.122 6.42368 14.122 6.49133V20.57V20.5734ZM14.122 0C16.0027 0 17.5249 1.53573 17.5249 3.43002H3.90634V17.5087C3.90634 17.5763 3.84884 17.6338 3.78118 17.6338H0.625159C0.557505 17.6338 0.5 17.5763 0.5 17.5087V3.43002C0.5 1.53573 2.0222 0 3.90634 0H14.122Z"/>
</symbol><symbol fill="none" id="sprite-icon-display-48hrs" viewBox="0 0 48 48"><title>sprite-icon-display-48hrs</title>
	<path fill-rule="evenodd" clip-rule="evenodd" d="M4.75 24C4.75 13.3685 13.3685 4.75 24 4.75C24.4142 4.75 24.75 4.41421 24.75 4C24.75 3.58579 24.4142 3.25 24 3.25C12.5401 3.25 3.25 12.5401 3.25 24C3.25 35.4599 12.5401 44.75 24 44.75C35.4599 44.75 44.75 35.4599 44.75 24C44.75 23.5858 44.4142 23.25 44 23.25C43.5858 23.25 43.25 23.5858 43.25 24C43.25 34.6315 34.6315 43.25 24 43.25C13.3685 43.25 4.75 34.6315 4.75 24ZM33.0947 26.36C33.0947 28.682 31.1507 30.212 28.9727 30.212C26.7947 30.212 24.8507 28.682 24.8507 26.36C24.8507 24.884 25.6247 23.75 26.8487 23.138C25.8947 22.58 25.3007 21.626 25.3007 20.402C25.3007 18.35 27.0287 17 28.9727 17C30.9167 17 32.6447 18.35 32.6447 20.402C32.6447 21.626 32.0507 22.58 31.0787 23.138C32.3027 23.75 33.0947 24.884 33.0947 26.36ZM26.3087 26.36C26.3087 27.836 27.4787 28.862 28.9727 28.862C30.4667 28.862 31.6367 27.836 31.6367 26.36C31.6367 24.884 30.4667 23.84 28.9727 23.84C27.4787 23.84 26.3087 24.884 26.3087 26.36ZM26.7587 20.402C26.7587 21.626 27.7307 22.49 28.9727 22.49C30.2147 22.49 31.1867 21.626 31.1867 20.402C31.1867 19.196 30.2147 18.35 28.9727 18.35C27.7307 18.35 26.7587 19.196 26.7587 20.402ZM20.9773 27.008V29.996H19.5193V27.008H14.3533V25.838L19.3753 17.216H21.0493L15.9733 25.64H19.5193V22.778H20.9773V25.64H23.6773V27.008H20.9773Z" fill="currentColor"/>
</symbol><symbol fill="none" id="sprite-icon-display-api-keys" viewBox="0 0 48 48"><title>sprite-icon-display-api-keys</title>
<path fill-rule="evenodd" clip-rule="evenodd" d="M23.9975 1.25001L24 1.25C30.2947 1.25 34.8666 5.48148 36.9677 11.5435C39.9369 11.7908 42.5707 12.9175 44.499 14.8032C46.5441 16.8032 47.75 19.6133 47.75 23C47.75 26.4402 46.5053 29.2339 44.403 31.1816C42.3094 33.1213 39.4195 34.1729 36.2009 34.2498L36.183 34.25H36C34.2051 34.25 32.75 35.7051 32.75 37.5V41.5C32.75 41.538 32.7472 41.5754 32.7417 41.6119C33.7603 41.9279 34.5 42.8775 34.5 44C34.5 45.3807 33.3807 46.5 32 46.5C30.6193 46.5 29.5 45.3807 29.5 44C29.5 42.8775 30.2397 41.9279 31.2583 41.6119C31.2528 41.5754 31.25 41.538 31.25 41.5V37.5C31.25 34.8766 33.3766 32.75 36 32.75H36.1739C39.0895 32.6786 41.6049 31.7291 43.3835 30.0813C45.1552 28.44 46.25 26.0569 46.25 23C46.25 19.9872 45.1862 17.5733 43.4502 15.8757C41.7085 14.1724 39.2446 13.1467 36.3792 13.0077C36.0667 12.9926 35.7964 12.7851 35.7011 12.4871C33.8169 6.59587 29.6288 2.75057 24.0012 2.75C16.999 2.77388 13.4625 5.84333 11.6103 9.01639C9.90907 11.9307 9.59656 14.9789 9.47898 16.1258C9.46599 16.2525 9.45537 16.356 9.44553 16.4335C9.40186 16.7776 9.1279 17.0469 8.78309 17.0846C4.68819 17.5327 1.75 20.5577 1.75 25C1.75 27.3994 2.61404 29.3228 4.00756 30.6484C5.40559 31.9784 7.38279 32.75 9.678 32.75H12C14.6234 32.75 16.75 34.8766 16.75 37.5V41.5C16.75 41.538 16.7472 41.5754 16.7417 41.6119C17.7603 41.9279 18.5 42.8775 18.5 44C18.5 45.3807 17.3807 46.5 16 46.5C14.6193 46.5 13.5 45.3807 13.5 44C13.5 42.8775 14.2397 41.9279 15.2583 41.6119C15.2528 41.5754 15.25 41.538 15.25 41.5V37.5C15.25 35.7051 13.7949 34.25 12 34.25H9.678C7.04421 34.25 4.68241 33.3607 2.97369 31.7352C1.26046 30.1054 0.25 27.7788 0.25 25C0.25 19.9901 3.49532 16.4323 8.01664 15.6768C8.15873 14.3389 8.57927 11.2334 10.3148 8.2602C12.4266 4.6425 16.4461 1.27535 23.9975 1.25001ZM24 32.75C24.4142 32.75 24.75 33.0858 24.75 33.5V41.6145C25.7643 41.933 26.5 42.8806 26.5 44C26.5 45.3807 25.3807 46.5 24 46.5C22.6193 46.5 21.5 45.3807 21.5 44C21.5 42.8806 22.2357 41.933 23.25 41.6145V33.5C23.25 33.0858 23.5858 32.75 24 32.75ZM14.5 44C14.5 43.1716 15.1716 42.5 16 42.5C16.8284 42.5 17.5 43.1716 17.5 44C17.5 44.8284 16.8284 45.5 16 45.5C15.1716 45.5 14.5 44.8284 14.5 44ZM32 42.5C31.1716 42.5 30.5 43.1716 30.5 44C30.5 44.8284 31.1716 45.5 32 45.5C32.8284 45.5 33.5 44.8284 33.5 44C33.5 43.1716 32.8284 42.5 32 42.5ZM22.5 44C22.5 43.1716 23.1716 42.5 24 42.5C24.8284 42.5 25.5 43.1716 25.5 44C25.5 44.8284 24.8284 45.5 24 45.5C23.1716 45.5 22.5 44.8284 22.5 44ZM17 17.75C14.1005 17.75 11.75 20.1005 11.75 23C11.75 25.8995 14.1005 28.25 17 28.25C18.9423 28.25 20.6392 27.1956 21.5481 25.6245L21.6444 25.458L24.1049 23.968C24.9592 23.4507 26.0267 23.4372 26.8938 23.9326L28.3798 24.7818C28.7641 25.0014 29.2359 25.0014 29.6202 24.7818L31.1356 23.9158C31.9811 23.4327 33.0189 23.4327 33.8644 23.9158L34.9166 24.5171C35.4428 24.8178 36.109 24.6977 36.497 24.232L37.3904 23.16C37.4676 23.0673 37.4676 22.9327 37.3903 22.84L35.7237 20.84C35.6762 20.783 35.6058 20.75 35.5316 20.75H21.7647L21.5481 20.3755C20.6392 18.8044 18.9423 17.75 17 17.75ZM10.25 23C10.25 19.2721 13.2721 16.25 17 16.25C19.3413 16.25 21.4033 17.4424 22.6132 19.25H35.5316C36.051 19.25 36.5435 19.4807 36.876 19.8797L38.5427 21.8797C39.0835 22.5287 39.0835 23.4713 38.5427 24.1203L37.6494 25.1923C36.7957 26.2167 35.3301 26.481 34.1724 25.8195L33.1202 25.2182C32.7359 24.9986 32.2641 24.9986 31.8798 25.2182L30.3644 26.0842C29.5189 26.5673 28.4811 26.5673 27.6356 26.0842L26.1496 25.235C25.7555 25.0098 25.2702 25.0159 24.8819 25.2511L22.7451 26.5451C21.5568 28.467 19.4287 29.75 17 29.75C13.2721 29.75 10.25 26.7279 10.25 23ZM14.5 23C14.5 22.4477 14.9477 22 15.5 22C16.0523 22 16.5 22.4477 16.5 23C16.5 23.5523 16.0523 24 15.5 24C14.9477 24 14.5 23.5523 14.5 23ZM15.5 21C14.3954 21 13.5 21.8954 13.5 23C13.5 24.1046 14.3954 25 15.5 25C16.6046 25 17.5 24.1046 17.5 23C17.5 21.8954 16.6046 21 15.5 21Z" fill="currentColor"/>
</symbol><symbol fill="none" id="sprite-icon-display-api" viewBox="0 0 48 48"><title>sprite-icon-display-api</title>
<path fill-rule="evenodd" clip-rule="evenodd" d="M24 1.25L23.9975 1.25001C16.4461 1.27535 12.4266 4.6425 10.3148 8.2602C8.57927 11.2334 8.15873 14.3389 8.01664 15.6768C3.49532 16.4323 0.25 19.9901 0.25 25C0.25 27.7788 1.26046 30.1054 2.97369 31.7352C4.68241 33.3607 7.04421 34.25 9.678 34.25H12C13.7949 34.25 15.25 35.7051 15.25 37.5V41.5C15.25 41.538 15.2528 41.5754 15.2583 41.6119C14.2397 41.9279 13.5 42.8775 13.5 44C13.5 45.3807 14.6193 46.5 16 46.5C17.3807 46.5 18.5 45.3807 18.5 44C18.5 42.8775 17.7603 41.9279 16.7417 41.6119C16.7472 41.5754 16.75 41.538 16.75 41.5V37.5C16.75 34.8766 14.6234 32.75 12 32.75H9.678C7.38279 32.75 5.40559 31.9784 4.00756 30.6484C2.61404 29.3228 1.75 27.3994 1.75 25C1.75 20.5577 4.68819 17.5327 8.78309 17.0846C9.1279 17.0469 9.40186 16.7776 9.44553 16.4335C9.45537 16.356 9.46599 16.2525 9.47898 16.1258C9.59656 14.9789 9.90907 11.9307 11.6103 9.01639C13.4625 5.84333 16.999 2.77388 24.0012 2.75C29.6288 2.75057 33.8169 6.59587 35.7011 12.4871C35.7964 12.7851 36.0667 12.9926 36.3792 13.0077C39.2446 13.1467 41.7085 14.1724 43.4502 15.8757C45.1862 17.5733 46.25 19.9872 46.25 23C46.25 26.0569 45.1552 28.44 43.3835 30.0813C41.6049 31.7291 39.0895 32.6786 36.1739 32.75H36C33.3766 32.75 31.25 34.8766 31.25 37.5V41.5C31.25 41.538 31.2528 41.5754 31.2583 41.6119C30.2397 41.9279 29.5 42.8775 29.5 44C29.5 45.3807 30.6193 46.5 32 46.5C33.3807 46.5 34.5 45.3807 34.5 44C34.5 42.8775 33.7603 41.9279 32.7417 41.6119C32.7472 41.5754 32.75 41.538 32.75 41.5V37.5C32.75 35.7051 34.2051 34.25 36 34.25H36.183L36.2009 34.2498C39.4195 34.1729 42.3094 33.1213 44.403 31.1816C46.5053 29.2339 47.75 26.4402 47.75 23C47.75 19.6133 46.5441 16.8032 44.499 14.8032C42.5707 12.9175 39.9369 11.7908 36.9677 11.5435C34.8666 5.48148 30.2947 1.25 24 1.25ZM24 27.25C25.7949 27.25 27.25 25.7949 27.25 24C27.25 22.2051 25.7949 20.75 24 20.75C22.2051 20.75 20.75 22.2051 20.75 24C20.75 25.7949 22.2051 27.25 24 27.25ZM24.75 41.6145V28.6911C27.017 28.3315 28.75 26.3682 28.75 24C28.75 21.3766 26.6234 19.25 24 19.25C21.3766 19.25 19.25 21.3766 19.25 24C19.25 26.3682 20.983 28.3315 23.25 28.6911V41.6145C22.2357 41.933 21.5 42.8806 21.5 44C21.5 45.3807 22.6193 46.5 24 46.5C25.3807 46.5 26.5 45.3807 26.5 44C26.5 42.8806 25.7643 41.933 24.75 41.6145ZM16 42.5C15.1716 42.5 14.5 43.1716 14.5 44C14.5 44.8284 15.1716 45.5 16 45.5C16.8284 45.5 17.5 44.8284 17.5 44C17.5 43.1716 16.8284 42.5 16 42.5ZM30.5 44C30.5 43.1716 31.1716 42.5 32 42.5C32.8284 42.5 33.5 43.1716 33.5 44C33.5 44.8284 32.8284 45.5 32 45.5C31.1716 45.5 30.5 44.8284 30.5 44ZM24 42.5C23.1716 42.5 22.5 43.1716 22.5 44C22.5 44.8284 23.1716 45.5 24 45.5C24.8284 45.5 25.5 44.8284 25.5 44C25.5 43.1716 24.8284 42.5 24 42.5Z" fill="currentColor"/>
</symbol><symbol fill="none" id="sprite-icon-display-browser" viewBox="0 0 48 48"><title>sprite-icon-display-browser</title>
	<g clip-path="url(#clip0)">
		<path fill-rule="evenodd" clip-rule="evenodd" d="M7 8.75C6.30964 8.75 5.75 9.30964 5.75 10V34H17.0949C17.5138 34 17.9221 34.1315 18.2622 34.376L19.303 35.124C19.6431 35.3685 20.0514 35.5 20.4703 35.5H27.5297C27.9486 35.5 28.3569 35.3685 28.697 35.124L29.7378 34.376C30.0779 34.1315 30.4862 34 30.9051 34H42.25V10C42.25 9.30964 41.6904 8.75 41 8.75H7ZM4.25 10V34H1C0.447715 34 0 34.4477 0 35V38C0 38.5523 0.447714 39 0.999999 39H47C47.5523 39 48 38.5523 48 38V35C48 34.4477 47.5523 34 47 34H43.75V10C43.75 8.48122 42.5188 7.25 41 7.25H7C5.48122 7.25 4.25 8.48122 4.25 10ZM46.5 35.5H30.9051C30.8003 35.5 30.6983 35.5329 30.6132 35.594L29.5725 36.3421C28.9772 36.7699 28.2627 37 27.5297 37H20.4703C19.7373 37 19.0228 36.7699 18.4275 36.3421L17.3868 35.594C17.3017 35.5329 17.1997 35.5 17.0949 35.5H1.5V37.5H46.5V35.5ZM25 11C25 11.5523 24.5523 12 24 12C23.4477 12 23 11.5523 23 11C23 10.4477 23.4477 10 24 10C24.5523 10 25 10.4477 25 11Z" fill="currentColor"/>
	</g>
	<defs>
		<clipPath id="clip0">
			<rect width="48" height="48" fill="white"/>
		</clipPath>
	</defs>
</symbol><symbol fill="none" id="sprite-icon-display-calendar" viewBox="0 0 48 48"><title>sprite-icon-display-calendar</title>
	<path fill-rule="evenodd" clip-rule="evenodd" d="M16.75 4C17.1642 4 17.5 4.33579 17.5 4.75V6.25H31V4.75C31 4.33579 31.3358 4 31.75 4C32.1642 4 32.5 4.33579 32.5 4.75V6.25H40C42.6234 6.25 44.75 8.37665 44.75 11V37C44.75 39.6234 42.6234 41.75 40 41.75H8C5.37665 41.75 3.25 39.6234 3.25 37V11C3.25 8.37665 5.37665 6.25 8 6.25H16V4.75C16 4.33579 16.3358 4 16.75 4ZM31 7.75V9.25C31 9.66421 31.3358 10 31.75 10C32.1642 10 32.5 9.66421 32.5 9.25V7.75H40C41.7949 7.75 43.25 9.20507 43.25 11V17.25H4.75V11C4.75 9.20507 6.20507 7.75 8 7.75H16V9.25C16 9.66421 16.3358 10 16.75 10C17.1642 10 17.5 9.66421 17.5 9.25V7.75H31ZM4.75 18.75V37C4.75 38.7949 6.20508 40.25 8 40.25H40C41.7949 40.25 43.25 38.7949 43.25 37V18.75H4.75Z" fill="currentColor"/>
</symbol><symbol fill="none" id="sprite-icon-display-call-mobile" viewBox="0 0 48 48"><title>sprite-icon-display-call-mobile</title>
	<path fill-rule="evenodd" clip-rule="evenodd" d="M8 3.5H24C25.3807 3.5 26.5 4.61929 26.5 6V42C26.5 43.3807 25.3807 44.5 24 44.5H8C6.61929 44.5 5.5 43.3807 5.5 42V6C5.5 4.61929 6.61929 3.5 8 3.5ZM4 6C4 3.79086 5.79086 2 8 2H24C26.2091 2 28 3.79086 28 6V42C28 44.2091 26.2091 46 24 46H8C5.79086 46 4 44.2091 4 42V6ZM31 21.75C32.2426 21.75 33.25 22.7574 33.25 24C33.25 25.2426 32.2426 26.25 31 26.25V27.75C33.0711 27.75 34.75 26.0711 34.75 24C34.75 21.9289 33.0711 20.25 31 20.25V21.75ZM38.25 24C38.25 19.9959 35.0041 16.75 31 16.75V15.25C35.8325 15.25 39.75 19.1675 39.75 24C39.75 28.8325 35.8325 32.75 31 32.75V31.25C35.0041 31.25 38.25 28.0041 38.25 24ZM31 11.75C37.7655 11.75 43.25 17.2345 43.25 24C43.25 30.7655 37.7655 36.25 31 36.25V37.75C38.5939 37.75 44.75 31.5939 44.75 24C44.75 16.4061 38.5939 10.25 31 10.25V11.75ZM11 41C11 40.5858 11.3358 40.25 11.75 40.25H20.25C20.6642 40.25 21 40.5858 21 41C21 41.4142 20.6642 41.75 20.25 41.75H11.75C11.3358 41.75 11 41.4142 11 41ZM16 7C16.5523 7 17 6.55228 17 6C17 5.44772 16.5523 5 16 5C15.4477 5 15 5.44772 15 6C15 6.55228 15.4477 7 16 7Z" fill="currentColor"/>
</symbol><symbol fill="none" id="sprite-icon-display-cloud-servers" viewBox="0 0 48 48"><title>sprite-icon-display-cloud-servers</title>
<path fill-rule="evenodd" clip-rule="evenodd" d="M22.9305 1.25L22.928 1.25001C19.1663 1.26263 16.3209 2.16727 14.179 3.58598C12.0396 5.00308 10.6518 6.89994 9.74914 8.81907C8.26167 11.9815 8.06171 15.3211 7.9923 16.6843C3.42863 17.5061 0 21.7056 0 26.6695C0 32.2864 4.35972 36.25 9.678 36.25C10.0922 36.25 10.428 35.9142 10.428 35.5C10.428 35.0858 10.0922 34.75 9.678 34.75C5.13828 34.75 1.5 31.409 1.5 26.6695C1.5 22.1862 4.72837 18.5284 8.78309 18.0846C9.1279 18.0469 9.40186 17.7776 9.44553 17.4335C9.46441 17.2847 9.47723 17.0562 9.49373 16.7619C9.57379 15.3345 9.7405 12.3616 11.1065 9.45752C11.9185 7.73117 13.1435 6.0711 15.0074 4.83653C16.8686 3.60372 19.4169 2.762 22.9317 2.75C28.6269 2.75058 33.8404 6.66921 35.7011 12.4871C35.7964 12.7851 36.0667 12.9926 36.3792 13.0077C41.9981 13.2802 46.5 18.103 46.5 24.1293C46.5 30.207 41.9083 34.6131 36.1651 34.7502C35.751 34.7601 35.4233 35.1038 35.4332 35.5179C35.4431 35.932 35.7868 36.2597 36.2009 36.2498C42.7337 36.0938 48 31.0459 48 24.1293C48 17.5374 43.19 12.1193 36.9665 11.5457C34.791 5.41533 29.1621 1.25 22.9305 1.25ZM33 26.5H13C12.1716 26.5 11.5 27.1716 11.5 28V32C11.5 32.8284 12.1716 33.5 13 33.5H33C33.8284 33.5 34.5 32.8284 34.5 32V28C34.5 27.1716 33.8284 26.5 33 26.5ZM13 25C11.3431 25 10 26.3431 10 28V32C10 33.6569 11.3431 35 13 35H33C34.6569 35 36 33.6569 36 32V28C36 26.3431 34.6569 25 33 25H13ZM14 27.75C14.4142 27.75 14.75 28.0858 14.75 28.5V31.5C14.75 31.9142 14.4142 32.25 14 32.25C13.5858 32.25 13.25 31.9142 13.25 31.5V28.5C13.25 28.0858 13.5858 27.75 14 27.75ZM17.25 28.5C17.25 28.0858 16.9142 27.75 16.5 27.75C16.0858 27.75 15.75 28.0858 15.75 28.5V31.5C15.75 31.9142 16.0858 32.25 16.5 32.25C16.9142 32.25 17.25 31.9142 17.25 31.5V28.5ZM33 30C33 30.5523 32.5523 31 32 31C31.4477 31 31 30.5523 31 30C31 29.4477 31.4477 29 32 29C32.5523 29 33 29.4477 33 30ZM29 31C29.5523 31 30 30.5523 30 30C30 29.4477 29.5523 29 29 29C28.4477 29 28 29.4477 28 30C28 30.5523 28.4477 31 29 31ZM33 37.5H13C12.1716 37.5 11.5 38.1716 11.5 39V43C11.5 43.8284 12.1716 44.5 13 44.5H33C33.8284 44.5 34.5 43.8284 34.5 43V39C34.5 38.1716 33.8284 37.5 33 37.5ZM13 36C11.3431 36 10 37.3431 10 39V43C10 44.6569 11.3431 46 13 46H33C34.6569 46 36 44.6569 36 43V39C36 37.3431 34.6569 36 33 36H13ZM14.75 39.5C14.75 39.0858 14.4142 38.75 14 38.75C13.5858 38.75 13.25 39.0858 13.25 39.5V42.5C13.25 42.9142 13.5858 43.25 14 43.25C14.4142 43.25 14.75 42.9142 14.75 42.5V39.5ZM16.5 38.75C16.9142 38.75 17.25 39.0858 17.25 39.5V42.5C17.25 42.9142 16.9142 43.25 16.5 43.25C16.0858 43.25 15.75 42.9142 15.75 42.5V39.5C15.75 39.0858 16.0858 38.75 16.5 38.75ZM32 42C32.5523 42 33 41.5523 33 41C33 40.4477 32.5523 40 32 40C31.4477 40 31 40.4477 31 41C31 41.5523 31.4477 42 32 42ZM30 41C30 41.5523 29.5523 42 29 42C28.4477 42 28 41.5523 28 41C28 40.4477 28.4477 40 29 40C29.5523 40 30 40.4477 30 41Z" fill="currentColor"/>
</symbol><symbol fill="none" id="sprite-icon-display-documentation" viewBox="0 0 48 48"><title>sprite-icon-display-documentation</title>
	<path fill-rule="evenodd" clip-rule="evenodd" d="M38 42.5H10C9.72386 42.5 9.5 42.2761 9.5 42V6C9.5 5.72386 9.72386 5.5 10 5.5H30.3431C31.0062 5.5 31.6421 5.76339 32.1109 6.23223L37.7678 11.8891C38.2366 12.3579 38.5 12.9938 38.5 13.6569V42C38.5 42.2761 38.2761 42.5 38 42.5ZM10 44H38C39.1046 44 40 43.1046 40 42V13.6569C40 12.596 39.5786 11.5786 38.8284 10.8284L33.1716 5.17157C32.4214 4.42143 31.404 4 30.3431 4H10C8.89543 4 8 4.89543 8 6V42C8 43.1046 8.89543 44 10 44ZM20.1167 17.6L14.25 22L20.1167 26.4L19.2167 27.6L12.55 22.6C12.3611 22.4584 12.25 22.2361 12.25 22C12.25 21.764 12.3611 21.5417 12.55 21.4L19.2167 16.4L20.1167 17.6ZM27.7212 14.206L21.7212 35.206L20.2789 34.7939L26.2789 13.7939L27.7212 14.206ZM27.4834 23.6L33.3501 28L27.4834 32.4L28.3834 33.6L35.0501 28.6C35.239 28.4584 35.3501 28.2361 35.3501 28C35.3501 27.764 35.239 27.5417 35.0501 27.4L28.3834 22.4L27.4834 23.6Z" fill="currentColor"/>
</symbol><symbol fill="none" id="sprite-icon-display-gdpr" viewBox="0 0 48 48"><title>sprite-icon-display-gdpr</title>
<path fill-rule="evenodd" clip-rule="evenodd" d="M24.0001 0L24.7753 2.37883H27.2814L25.2539 3.849L26.0277 6.2252L24.0001 4.75635L21.9726 6.2252L22.7477 3.849L20.7202 2.37883H23.225L24.0001 0ZM35.1333 5.14656L34.3582 2.76904L33.583 5.14656H31.0782L33.1058 6.61541L32.3306 8.99556L34.3582 7.52539L36.3857 8.99556L35.6132 6.61541L37.6408 5.14656H35.1333ZM41.9423 10.3337L42.7175 12.7126H45.2223L43.1947 14.1814L43.9699 16.5603L41.9423 15.0901L39.9148 16.5603L40.6873 14.1814L38.6597 12.7126H41.1672L41.9423 10.3337ZM44.7174 20.6672L45.4912 23.0448H48L45.9724 24.5149L46.7449 26.8924L44.7174 25.4236L42.6898 26.8924L43.465 24.5149L41.4374 23.0448H43.9422L44.7174 20.6672ZM14.416 5.14656L13.6408 2.76904L12.8656 5.14656H10.3608L12.3884 6.61541L11.6132 8.99425L13.6408 7.52539L15.6697 8.99425L14.8959 6.61541L16.9234 5.14656H14.416ZM6.05769 10.3318L6.83286 12.7119H9.34031L7.31273 14.1808L8.08527 16.5583L6.05769 15.0881L4.03011 16.5583L4.80397 14.1808L2.77771 12.7119H5.28252L6.05769 10.3318ZM42.7175 33.3769L41.9423 30.998L41.1672 33.3769H38.6597L40.6873 34.8457L39.9148 37.2245L41.9423 35.7544L43.9699 37.2245L43.1947 34.8457L45.2223 33.3769H42.7175ZM3.28262 20.6653L4.05779 23.0441H6.5626L4.53502 24.5143L5.31019 26.8905L3.28262 25.4216L1.25504 26.8905L2.02758 24.5143L0 23.0441H2.50744L3.28262 20.6653ZM6.83418 33.3772L6.05901 30.9971L5.28384 33.3772H2.77771L4.80397 34.8461L4.03143 37.2236L6.05901 35.7534L8.08659 37.2236L7.31273 34.8461L9.34031 33.3772H6.83418ZM13.6406 38.5618L14.4157 40.9406H16.9205L14.893 42.4108L15.6694 44.787L13.6406 43.3181L11.613 44.787L12.3855 42.4108L10.3593 40.9406H12.8654L13.6406 38.5618ZM24.7766 43.7096L24.0015 41.3308L23.2276 43.7096H20.7202L22.7477 45.1798L21.9739 47.556L24.0015 46.0872L26.029 47.556L25.2539 45.1798L27.2814 43.7096H24.7766ZM34.358 38.5618L35.1332 40.9406H37.638L35.6104 42.4108L36.3856 44.787L34.358 43.3181L32.3304 44.787L33.103 42.4108L31.0754 40.9406H33.5828L34.358 38.5618ZM22.983 29.3052L29.5891 19.8088L28.215 18.9309L22.2352 27.5268L19.6376 24.4151L18.348 25.4038L21.6511 29.3606L22.983 29.3052Z" fill="currentColor"/>
</symbol><symbol fill="none" id="sprite-icon-display-general-comms" viewBox="0 0 48 48"><title>sprite-icon-display-general-comms</title>
	<path fill-rule="evenodd" clip-rule="evenodd" d="M8 5.25C5.37665 5.25 3.25 7.37665 3.25 10V32C3.25 34.6234 5.37665 36.75 8 36.75H34.7427L41.9256 42.3367C43.0751 43.2308 44.75 42.4116 44.75 40.9554V10C44.75 7.37665 42.6234 5.25 40 5.25H8ZM4.75 10C4.75 8.20507 6.20507 6.75 8 6.75H40C41.7949 6.75 43.25 8.20508 43.25 10V40.9554C43.25 41.1634 43.0107 41.2804 42.8465 41.1527L35.2573 35.25H8C6.20507 35.25 4.75 33.7949 4.75 32V10ZM12 16.75H36V15.25H12V16.75ZM36 21.75H12V20.25H36V21.75ZM12 26.75H28V25.25H12V26.75Z" fill="currentColor"/>
</symbol><symbol fill="none" id="sprite-icon-display-hipaa" viewBox="0 0 48 48"><title>sprite-icon-display-hipaa</title>
<g clip-path="url(#clip0_2961_1570)">
<path fill-rule="evenodd" clip-rule="evenodd" d="M23.0933 11.9155C23.6524 12.271 24.6181 12.8956 25.1758 13.3167C25.1078 12.983 25.0053 12.567 24.8986 12.1343L24.8986 12.1342L24.8986 12.1342C24.7465 11.5174 24.5861 10.8666 24.5053 10.3711C24.7514 10.1301 25.0985 9.8546 25.4837 9.54895C25.9071 9.21299 26.3764 8.84055 26.8081 8.43728C25.9342 8.31361 23.8403 8.22929 23.8403 8.22929C23.8403 8.22929 23.2846 7.06876 22.8782 6.24613C22.9611 6.05319 23.0414 5.87496 23.1154 5.7271C23.1154 5.20308 23.0947 4.45742 23.0748 3.73844C23.0563 3.06909 23.0384 2.42286 23.0384 2.00007C16.2785 1.97758 6.05625 7.6384 4.22614 13.3386C4.71498 13.3026 5.18728 13.1422 5.6001 12.872C7.1383 12.125 8.58922 11.2028 9.92533 10.1231C10.9993 9.22105 12.222 8.52239 13.5361 8.06001C16.284 7.23366 18.2076 8.29049 19.0539 11.0731C19.2847 12.0007 19.5705 12.917 19.9168 13.8052C20.1383 14.4807 20.56 15.0689 21.1234 15.488C21.5837 15.8304 22.1199 16.0461 22.6807 16.1176V16.6159C24.9175 16.2899 26.5662 15.2218 27.3631 12.9957C27.4621 12.7428 27.5775 12.501 27.7094 12.2649C28.9459 9.80273 30.5892 9.2462 33.0623 10.4548C34.3478 11.1585 35.587 11.9472 36.772 12.8158C39.1527 14.4822 41.8964 15.5264 44.763 15.8571C45.3562 15.9257 45.957 15.8533 46.5184 15.6456C47.0799 15.438 47.5869 15.1005 48 14.6597C47.4922 14.5709 47.0147 14.531 46.5547 14.4926C46.0538 14.4508 45.5738 14.4108 45.0982 14.3111C41.5363 13.5376 38.1964 11.9353 35.3376 9.62846C34.1285 8.56038 32.6282 7.8858 31.0344 7.68343C28.9294 7.49792 27.6379 8.26244 26.874 10.23C26.72 10.6739 26.5945 11.131 26.4685 11.5901L26.4685 11.5902C26.3472 12.0321 26.2254 12.4758 26.0771 12.9114C25.5551 14.4199 24.6452 15.5078 23.0672 15.787C23.0891 14.4972 23.0927 12.8056 23.0933 11.9155ZM22.7414 11.6932C22.6882 11.6599 22.6587 11.6415 22.6587 11.6415V6.77226C22.6158 6.8774 22.573 6.98282 22.531 7.08647C22.316 7.61685 22.1198 8.10081 22.0107 8.26239H19.0649L21.4831 10.2299L20.7302 12.9619C20.9379 12.8373 21.2095 12.6614 21.5065 12.4691C21.9035 12.2121 22.3458 11.9258 22.7414 11.6932ZM22.5061 32.6561L22.5064 32.6563L22.5064 32.6563C22.6937 32.7933 22.8807 32.93 23.0663 33.0681C23.0211 33.1124 22.9768 33.1579 22.9337 33.2046V34.565C23.5637 35.0462 24.169 35.5603 24.7473 36.1052C25.6871 37.0834 25.6706 37.8142 24.7473 38.7811C24.3241 39.2195 23.8735 39.6412 23.4283 40.0571L22.9392 40.5181V41.8673C22.2412 42.272 21.4113 42.9578 21.4113 43.846C21.4113 44.633 21.9554 45.3132 22.4445 45.9147C22.6314 46.1396 22.8018 46.3588 22.9392 46.5612V46.7186L22.9831 46.6399L22.997 46.6595L23.0106 46.6792C23.9996 46.1869 24.8295 45.4142 25.4013 44.4531C26.1048 43.0703 25.2419 42.0865 24.3241 41.2039C24.7638 40.6137 25.2639 40.074 25.808 39.5737C27.1875 37.9491 27.16 36.7967 25.7146 35.1889C25.5937 35.054 25.4563 34.9304 25.3189 34.8067L25.3189 34.8067C25.0135 34.567 24.7607 34.2644 24.5769 33.9185C25.187 33.2271 25.863 32.6031 26.5939 32.0409C26.864 31.8396 27.0894 31.5822 27.2555 31.2856C27.4216 30.989 27.5247 30.6599 27.5579 30.3197C27.5911 29.9796 27.5537 29.6361 27.4482 29.3118C27.3427 28.9875 27.1714 28.6896 26.9456 28.4376C26.5372 27.9018 26.022 27.4611 25.4343 27.1446L25.2694 27.0547L25.2657 27.0529C25.0469 26.9466 24.8131 26.833 24.7913 26.4082L25.863 25.8236C26.4914 25.4841 27.1162 25.1374 27.737 24.7836C30.2981 23.2546 30.8807 21.5344 29.809 18.7799C29.9738 18.6956 30.1552 18.6843 30.3366 18.6787L30.363 18.6774C30.5744 18.6668 30.7901 18.656 30.9906 18.5157C30.9906 18.3823 30.9208 18.26 30.8449 18.1269L30.8422 18.1222C30.6938 17.8692 30.5289 17.5769 30.8312 17.0991C31.4597 17.2342 32.0652 17.4634 32.6283 17.7793L32.643 17.7865C33.4517 18.1833 34.2774 18.5885 35.2334 18.5438C35.1802 18.2063 34.9621 18.0059 34.7487 17.8098L34.7278 17.7905L34.7261 17.789C34.5068 17.5928 34.2935 17.4018 34.2496 17.0878C34.7589 17.1878 35.2442 17.3518 35.7279 17.5153L35.8269 17.5488L35.8367 17.5522C36.8226 17.8939 37.7871 18.2283 38.9046 18.0154C38.7125 17.7534 38.4582 17.5709 38.2072 17.3907L38.1846 17.3745L38.1679 17.3622C37.8218 17.1078 37.4784 16.8555 37.3053 16.3908C37.8329 16.4863 38.344 16.61 38.8551 16.7337L38.8551 16.7337L38.8694 16.7371C40.3208 17.0901 41.7404 17.4353 43.3947 17.1103L42.301 16.6718L42.195 16.6298C41.5283 16.3658 40.9243 16.1265 40.35 15.8061C37.8439 14.6481 35.4147 13.3327 33.0735 11.8599C31.106 10.5388 29.5507 11.0504 28.4845 13.1697C28.1767 13.7712 27.8799 14.3727 27.6051 14.991C26.7148 16.981 25.0386 17.5544 23.1535 17.6837L23.0766 17.5938C23.0216 17.5375 22.9941 17.5094 22.9941 17.4813L22.8622 16.9754C20.576 16.6212 18.7074 14.9404 18.0644 12.6862C17.9709 12.4276 17.8555 12.1859 17.7126 11.961C17.3351 11.1483 16.6589 10.5209 15.8314 10.2156C15.0038 9.91028 14.0918 9.95169 13.294 10.3308C12.3816 10.7018 11.5188 11.174 10.7109 11.7362C9.08446 12.9928 7.31916 14.0494 5.45139 14.8842C4.83703 15.1236 4.21834 15.3497 3.56078 15.59L3.30801 15.6825L2.73095 15.8961C-0.302759 23.9741 0.609551 31.4507 5.79763 38.3426C9.71617 43.5256 17.1905 46.6118 22.8897 46.7804C21.9664 46.1902 20.576 45.0715 20.2627 43.9809C19.9714 42.9522 20.5375 42.2889 21.197 41.5187C21.3783 41.3051 21.5652 41.0802 21.7466 40.8441C21.131 40.3832 20.543 39.8829 19.9934 39.3432C18.7294 37.9266 18.7513 36.9035 19.9384 35.3913C20.0978 35.1889 20.2847 35.0147 20.4715 34.8404C20.7988 34.5686 21.0761 34.2392 21.2904 33.8679C20.9826 33.317 20.4935 32.9685 20.0044 32.6312C19.7296 32.4401 19.4548 32.2433 19.2185 32.0184C18.9601 31.806 18.7469 31.5417 18.5921 31.2418C18.4373 30.9419 18.3442 30.6128 18.3185 30.2747C18.2927 29.9366 18.3349 29.5967 18.4424 29.2759C18.55 28.9551 18.7206 28.6603 18.9437 28.4095C19.4039 27.8423 19.9773 27.3823 20.6254 27.0603L20.6503 27.0479C20.8685 26.9396 21.0966 26.8264 21.0596 26.4419C20.6749 26.0878 20.2242 25.8123 19.7406 25.6325C18.6106 25.101 17.5567 24.4145 16.608 23.5919C15.1351 22.209 15.0801 19.6568 16.4815 18.7124C17.1845 18.2655 18.019 18.0864 18.8382 18.2067C19.6575 18.327 20.409 18.739 20.9607 19.3701C21.3016 19.8422 21.7156 20.2542 22.1862 20.59C22.5709 20.8205 22.8073 21.2421 22.8073 21.6974C22.0049 22.9566 21.208 22.9791 20.4111 21.7593C20.3396 21.6581 20.2792 21.5569 20.2132 21.4445L20.2016 21.4256C19.9418 21.0047 19.6838 20.5869 19.1965 20.3764C18.5755 20.1009 17.9544 20.0054 17.4928 20.6012C17.2942 20.8504 17.1904 21.1646 17.2005 21.4859C17.2106 21.8072 17.3339 22.1139 17.5477 22.3495C17.7807 22.6297 18.0486 22.8773 18.3446 23.0859C19.2811 23.7733 20.2894 24.3521 21.3509 24.8117C21.9805 25.0153 22.5171 25.4445 22.8622 26.0203L22.92 27.1038C22.7444 27.2146 22.5689 27.3293 22.3923 27.4446L22.3923 27.4446L22.3922 27.4447C21.9882 27.7087 21.5791 27.9759 21.1529 28.208C19.5536 29.0625 19.4766 30.3104 20.9165 31.4403C21.4339 31.8718 21.9714 32.265 22.5061 32.6561ZM22.9831 46.6399C22.9689 46.6134 22.9542 46.5872 22.9392 46.5612L22.9172 44.6218C22.9062 43.7504 22.8952 42.8173 22.8952 41.9235C23.5602 42.2439 24.2911 42.6711 24.4285 43.4694C24.6201 44.6168 23.9235 45.4689 23.3912 46.1199L23.3843 46.1283C23.225 46.3138 23.0876 46.4881 22.9831 46.6399ZM24.2197 32.1815C23.8349 32.4423 23.4502 32.7031 23.1149 33.0212V27.4023C23.6443 27.806 24.205 28.1654 24.7913 28.4769C25.1337 28.6169 25.4331 28.8482 25.6583 29.1468C25.8836 29.4454 26.0263 29.8003 26.0718 30.1746C25.7608 31.1344 25.0004 31.6511 24.2366 32.17L24.2197 32.1815ZM22.6477 40.6032L22.6532 40.609H22.6587L22.6477 40.6539V40.6032ZM22.6477 40.6032C22.4433 40.3876 22.2347 40.1754 22.0259 39.963L22.0253 39.9624C21.6972 39.6285 21.3684 39.2941 21.0539 38.945C20.1196 37.9107 20.1196 37.0337 21.0539 35.9937C21.383 35.6306 21.7495 35.3133 22.1164 34.9956C22.2948 34.8411 22.4733 34.6865 22.6477 34.5265V40.6032ZM22.9941 18.8192C23.6768 18.626 24.3948 18.6029 25.088 18.7518C24.9042 19.234 24.6254 19.6725 24.269 20.04C23.9126 20.4074 23.4861 20.6961 23.0161 20.8879C22.8689 20.2074 22.8614 19.5029 22.9941 18.8192ZM25.154 24.4407C26.1284 24.0081 27.0401 23.4407 27.8634 22.7543C28.6713 22.0122 28.8087 21.0678 28.1932 20.5282C27.8397 20.2924 27.4096 20.2086 26.996 20.2949C26.5825 20.3812 26.2189 20.6306 25.9839 20.9891C25.8277 21.2002 25.6828 21.4198 25.5497 21.6468C25.3189 22.0403 25.088 22.4226 24.6319 22.6137C24.2527 22.7711 23.9119 22.6587 23.5547 22.5406C23.3623 22.4732 23.17 22.4114 22.9612 22.3889V25.6381C23.6551 25.1734 24.3891 24.7745 25.154 24.4463V24.4407Z" fill="currentColor"/>
</g>
<defs>
<clipPath id="clip0_2961_1570">
<rect width="48" height="48" fill="white"/>
</clipPath>
</defs>
</symbol><symbol fill="none" id="sprite-icon-display-it-support-access" viewBox="0 0 48 48"><title>sprite-icon-display-it-support-access</title>
	<path fill-rule="evenodd" clip-rule="evenodd" d="M46.5 40V12.75H1.5V40C1.5 40.2761 1.72386 40.5 2 40.5H46C46.2761 40.5 46.5 40.2761 46.5 40ZM46.5 8V11.25H1.5V8C1.5 7.72386 1.72386 7.5 2 7.5H46C46.2761 7.5 46.5 7.72386 46.5 8ZM48 8V40C48 41.1046 47.1046 42 46 42H2C0.895432 42 0 41.1046 0 40V8C0 6.89543 0.895431 6 2 6H46C47.1046 6 48 6.89543 48 8ZM4.25 9.25C4.25 9.80228 3.80228 10.25 3.25 10.25C2.69772 10.25 2.25 9.80228 2.25 9.25C2.25 8.69772 2.69772 8.25 3.25 8.25C3.80228 8.25 4.25 8.69772 4.25 9.25ZM6.25 10.25C6.80228 10.25 7.25 9.80228 7.25 9.25C7.25 8.69772 6.80228 8.25 6.25 8.25C5.69772 8.25 5.25 8.69772 5.25 9.25C5.25 9.80228 5.69772 10.25 6.25 10.25ZM10.25 9.25C10.25 9.80228 9.80228 10.25 9.25 10.25C8.69771 10.25 8.25 9.80228 8.25 9.25C8.25 8.69772 8.69771 8.25 9.25 8.25C9.80228 8.25 10.25 8.69772 10.25 9.25ZM24.75 29.7993C25.1984 29.54 25.5 29.0552 25.5 28.5C25.5 27.6716 24.8284 27 24 27C23.1716 27 22.5 27.6716 22.5 28.5C22.5 29.0552 22.8016 29.54 23.25 29.7993V33.5H24.75V29.7993ZM17 24.25C16.5858 24.25 16.25 24.5858 16.25 25V30.205L16.25 30.2421C16.2498 31.0676 16.2495 32.6758 17.0154 34.0849C17.4144 34.8189 18.0189 35.498 18.9172 35.9873C19.81 36.4735 20.9514 36.75 22.3949 36.75H25.6051C27.048 36.75 28.1892 36.4751 29.0819 35.9904C29.9804 35.5025 30.5854 34.8247 30.9846 34.0902C31.7506 32.681 31.7502 31.0674 31.75 30.2226L31.75 30.1839V25C31.75 24.5858 31.4142 24.25 31 24.25H29.75V21.1841C29.75 19.3825 29.1112 18.087 27.9744 17.2764C26.8851 16.4997 25.4495 16.25 24 16.25C22.5484 16.25 21.1133 16.5046 20.0247 17.2833C18.8896 18.0953 18.25 19.3896 18.25 21.1841V24.25H17ZM28.25 21.1841V24.25H19.75V21.1841C19.75 19.7819 20.2251 18.9842 20.8974 18.5033C21.6161 17.9891 22.6811 17.75 24 17.75C25.321 17.75 26.3855 17.9857 27.1035 18.4977C27.7741 18.9758 28.25 19.7723 28.25 21.1841ZM29 25.75H19H17.75V30.205C17.75 31.0561 17.7622 32.3179 18.3333 33.3686C18.6087 33.8753 19.0157 34.3328 19.6347 34.67C20.2593 35.0102 21.141 35.25 22.3949 35.25H25.6051C26.8596 35.25 27.7416 35.0113 28.3662 34.6721C28.985 34.3362 29.3916 33.88 29.6667 33.3739C30.2376 32.3236 30.25 31.0573 30.25 30.1839V25.75H29Z" fill="currentColor"/>
</symbol><symbol fill="none" id="sprite-icon-display-it-support-helpdesk" viewBox="0 0 48 48"><title>sprite-icon-display-it-support-helpdesk</title>
	<path fill-rule="evenodd" clip-rule="evenodd" d="M7 8.75C6.30964 8.75 5.75 9.30964 5.75 10V34H17.0949C17.5138 34 17.9221 34.1315 18.2622 34.376L19.303 35.124C19.6431 35.3685 20.0514 35.5 20.4703 35.5H27.5297C27.9486 35.5 28.3569 35.3685 28.697 35.124L29.7378 34.376C30.0779 34.1315 30.4862 34 30.9051 34H42.25V10C42.25 9.30964 41.6904 8.75 41 8.75H7ZM4.25 10V34H1C0.447715 34 0 34.4477 0 35V38C0 38.5523 0.447714 39 0.999999 39H47C47.5523 39 48 38.5523 48 38V35C48 34.4477 47.5523 34 47 34H43.75V10C43.75 8.48122 42.5188 7.25 41 7.25H7C5.48122 7.25 4.25 8.48122 4.25 10ZM46.5 35.5H30.9051C30.8003 35.5 30.6983 35.5329 30.6132 35.594L29.5725 36.3421C28.9772 36.7699 28.2627 37 27.5297 37H20.4703C19.7373 37 19.0228 36.7699 18.4275 36.3421L17.3868 35.594C17.3017 35.5329 17.1997 35.5 17.0949 35.5H1.5V37.5H46.5V35.5ZM21 17C21 17.5523 20.5523 18 20 18C19.4477 18 19 17.5523 19 17C19 16.4477 19.4477 16 20 16C20.5523 16 21 16.4477 21 17ZM28 18C28.5523 18 29 17.5523 29 17C29 16.4477 28.5523 16 28 16C27.4477 16 27 16.4477 27 17C27 17.5523 27.4477 18 28 18ZM16.7138 21.7697C16.5866 21.3755 16.1639 21.159 15.7697 21.2862C15.3755 21.4134 15.1591 21.8361 15.2863 22.2303C16.508 26.0164 19.9797 28.75 24 28.75C28.0203 28.75 31.4921 26.0164 32.7138 22.2303C32.841 21.8361 32.6245 21.4134 32.2303 21.2862C31.8361 21.159 31.4135 21.3755 31.2863 21.7697C30.2492 24.9836 27.3209 27.25 24 27.25C20.6791 27.25 17.7509 24.9836 16.7138 21.7697Z" fill="currentColor"/>
</symbol><symbol fill="none" id="sprite-icon-display-laptop" viewBox="0 0 48 48"><title>sprite-icon-display-laptop</title>
	<g clip-path="url(#clip0)">
		<path fill-rule="evenodd" clip-rule="evenodd" d="M7 8.75C6.30964 8.75 5.75 9.30964 5.75 10V34H17.0949C17.5138 34 17.9221 34.1315 18.2622 34.376L19.303 35.124C19.6431 35.3685 20.0514 35.5 20.4703 35.5H27.5297C27.9486 35.5 28.3569 35.3685 28.697 35.124L29.7378 34.376C30.0779 34.1315 30.4862 34 30.9051 34H42.25V10C42.25 9.30964 41.6904 8.75 41 8.75H7ZM4.25 10V34H1C0.447715 34 0 34.4477 0 35V38C0 38.5523 0.447714 39 0.999999 39H47C47.5523 39 48 38.5523 48 38V35C48 34.4477 47.5523 34 47 34H43.75V10C43.75 8.48122 42.5188 7.25 41 7.25H7C5.48122 7.25 4.25 8.48122 4.25 10ZM46.5 35.5H30.9051C30.8003 35.5 30.6983 35.5329 30.6132 35.594L29.5725 36.3421C28.9772 36.7699 28.2627 37 27.5297 37H20.4703C19.7373 37 19.0228 36.7699 18.4275 36.3421L17.3868 35.594C17.3017 35.5329 17.1997 35.5 17.0949 35.5H1.5V37.5H46.5V35.5ZM25 11C25 11.5523 24.5523 12 24 12C23.4477 12 23 11.5523 23 11C23 10.4477 23.4477 10 24 10C24.5523 10 25 10.4477 25 11Z" fill="currentColor"/>
	</g>
	<defs>
		<clipPath id="clip0">
			<rect width="48" height="48" fill="white"/>
		</clipPath>
	</defs>
</symbol><symbol fill="none" id="sprite-icon-display-live-chat" viewBox="0 0 48 48"><title>sprite-icon-display-live-chat</title>
	<path fill-rule="evenodd" clip-rule="evenodd" d="M26 5.25C28.6234 5.25 30.75 7.37664 30.75 10V17.25H40C42.6234 17.25 44.75 19.3766 44.75 22V39.6756C44.75 41.2119 42.912 42.0026 41.7966 40.9462L37.8512 37.2095H22C19.3766 37.2095 17.25 35.0828 17.25 32.4595V25.2095H10.1488L6.20337 28.9462C5.08797 30.0026 3.25 29.2119 3.25 27.6756V10C3.25 7.37665 5.37665 5.25 8 5.25H26ZM18.75 25.2095V32.4595C18.75 34.2544 20.2051 35.7095 22 35.7095H38.4488L42.8281 39.8571C42.9874 40.008 43.25 39.8951 43.25 39.6756V22C43.25 20.2051 41.7949 18.75 40 18.75H30.75V20.4595C30.75 23.0828 28.6234 25.2095 26 25.2095H18.75ZM29.25 18.75V20.4595C29.25 22.2544 27.7949 23.7095 26 23.7095H18.75V22C18.75 20.2051 20.2051 18.75 22 18.75H29.25ZM29.25 17.25H22C19.3766 17.25 17.25 19.3766 17.25 22V23.7095H9.55121L5.17191 27.8571C5.01257 28.008 4.75 27.895 4.75 27.6756V10C4.75 8.20507 6.20507 6.75 8 6.75H26C27.7949 6.75 29.25 8.20507 29.25 10V17.25Z" fill="currentColor"/>
</symbol><symbol fill="none" id="sprite-icon-display-map-pin" viewBox="0 0 48 48"><title>sprite-icon-display-map-pin</title>
<path fill-rule="evenodd" clip-rule="evenodd" d="M10.75 18.08C10.75 10.7342 16.7342 4.75 24.08 4.75C31.4644 4.75 37.41 10.7328 37.41 18.08C37.41 20.5268 36.5797 23.334 35.2826 26.2091C33.9901 29.0739 32.26 31.9501 30.5191 34.5193C28.7797 37.0864 27.0387 39.3334 25.732 40.9391C25.079 41.7416 24.5353 42.3828 24.1556 42.8227L24.1191 42.865L24.0802 42.8201C23.6982 42.3792 23.1514 41.7365 22.4946 40.9324C21.1804 39.3235 19.4294 37.0726 17.68 34.5029C15.929 31.9311 14.189 29.0536 12.8892 26.1906C11.5845 23.317 10.75 20.5155 10.75 18.08ZM23.5643 44.5037C23.5645 44.5039 23.5646 44.504 24.12 44L24.6762 44.5031C24.5341 44.6602 24.3323 44.7498 24.1206 44.75C23.9088 44.7502 23.7066 44.6605 23.5643 44.5037ZM23.5643 44.5037L24.12 44C24.6762 44.5031 24.677 44.5023 24.6772 44.5021L24.6794 44.4996L24.6877 44.4904L24.7191 44.4553L24.7733 44.3946L24.8393 44.3202C24.9441 44.2018 25.0969 44.0277 25.291 43.8029C25.6791 43.3534 26.2322 42.7009 26.8955 41.8859C28.2213 40.2566 29.9903 37.9736 31.7609 35.3607C33.53 32.75 35.3099 29.7961 36.6499 26.8259C37.9853 23.866 38.91 20.8332 38.91 18.08C38.91 9.90718 32.2956 3.25 24.08 3.25C15.9058 3.25 9.25 9.90579 9.25 18.08C9.25 20.8245 10.1805 23.853 11.5233 26.8107C12.871 29.7789 14.661 32.7339 16.44 35.3471C18.2206 37.9624 19.9996 40.249 21.3329 41.8813C21.9999 42.6979 22.5562 43.3517 22.9464 43.8022C23.1415 44.0275 23.2952 44.202 23.4006 44.3206C23.4532 44.38 23.4938 44.4253 23.5214 44.4561L23.553 44.4912L23.5643 44.5037ZM16.79 17.2401C16.79 13.2139 20.0539 9.95007 24.08 9.95007C28.1062 9.95007 31.37 13.2139 31.37 17.2401C31.37 21.2662 28.1062 24.5301 24.08 24.5301C20.0539 24.5301 16.79 21.2662 16.79 17.2401ZM24.08 8.45007C19.2255 8.45007 15.29 12.3855 15.29 17.2401C15.29 22.0947 19.2255 26.0301 24.08 26.0301C28.9346 26.0301 32.87 22.0947 32.87 17.2401C32.87 12.3855 28.9346 8.45007 24.08 8.45007Z" fill="currentColor"/>
</symbol><symbol fill="none" id="sprite-icon-display-message" viewBox="0 0 48 48"><title>sprite-icon-display-message</title>
	<path fill-rule="evenodd" clip-rule="evenodd" d="M5 7.25C2.37665 7.25 0.25 9.37665 0.25 12V36C0.25 38.6234 2.37665 40.75 5 40.75H43C45.6234 40.75 47.75 38.6234 47.75 36V12C47.75 9.37665 45.6234 7.25 43 7.25H5ZM3.36577 9.19015C3.84588 8.91031 4.40422 8.75 5 8.75H43C43.6017 8.75 44.1653 8.91353 44.6486 9.19858L24.6531 24.0753L3.36577 9.19015ZM2.26183 10.2486C1.93785 10.754 1.75 11.3551 1.75 12V36C1.75 37.7949 3.20507 39.25 5 39.25H43C44.7949 39.25 46.25 37.7949 46.25 36V12C46.25 11.3577 46.0637 10.7588 45.7421 10.2547L25.1144 25.6017C24.8552 25.7945 24.5016 25.7997 24.2369 25.6146L2.26183 10.2486Z" fill="currentColor"/>
</symbol><symbol fill="none" id="sprite-icon-display-padlock-closed" viewBox="0 0 48 48"><title>sprite-icon-display-padlock-closed</title>
	<path fill-rule="evenodd" clip-rule="evenodd" d="M18.1447 6.66702C16.7178 8.01383 15.75 10.2678 15.75 13.9372V22.37H32.25V13.9372C32.25 10.2467 31.2817 7.994 29.8562 6.65295C28.4223 5.30391 26.3916 4.75 24 4.75C21.6111 4.75 19.5797 5.31256 18.1447 6.66702ZM14.25 13.9372V22.37H10C9.58579 22.37 9.25001 22.7058 9.25001 23.12L9.25 32.6242C9.24988 34.1303 9.24966 36.9376 10.705 39.3717C12.2206 41.9066 15.1988 43.87 20.7898 43.87H27.2102C32.7996 43.87 35.7787 41.9173 37.295 39.3813C38.7504 36.9472 38.7501 34.1301 38.75 32.5877V32.5877L38.75 23.12C38.75 22.7058 38.4142 22.37 38 22.37H33.75V13.9372C33.75 9.99596 32.7119 7.28005 30.884 5.56044C29.0647 3.84881 26.5954 3.25 24 3.25C21.4019 3.25 18.9333 3.86003 17.1151 5.57618C15.2887 7.29998 14.25 10.0147 14.25 13.9372ZM10.75 32.5836V23.87H37.25V32.5453C37.25 34.116 37.2362 36.5566 36.0076 38.6115C34.8264 40.587 32.4106 42.37 27.2102 42.37H20.7898C15.591 42.37 13.1743 40.5786 11.9924 38.602C10.7635 36.5466 10.75 34.1146 10.75 32.5836ZM23 32.8925V37.04H25V32.8925C25.5978 32.5467 26 31.9003 26 31.16C26 30.0555 25.1046 29.16 24 29.16C22.8954 29.16 22 30.0555 22 31.16C22 31.9003 22.4022 32.5467 23 32.8925Z" fill="currentColor"/>
</symbol><symbol fill="none" id="sprite-icon-display-platform" viewBox="0 0 48 48"><title>sprite-icon-display-platform</title>
	<g clip-path="url(#clip0)">
		<path fill-rule="evenodd" clip-rule="evenodd" d="M34.6782 25.41L48.1587 32.3993L24 45.1304L-0.15863 32.3993L24 19.8736L34.3271 25.228L34.5212 25.1221L34.6782 25.41ZM32.2097 26.383L24 22.1264L15.2426 26.667L23.6889 31.0307L32.2097 26.383ZM25.8339 32.1388L34.351 27.4932L43.8414 32.4137L35.1902 36.9727L25.8339 32.1388ZM21.5694 32.1868L13.0678 27.7945L4.15868 32.4137L12.8024 36.9688L21.5694 32.1868ZM14.9267 38.0882L23.7143 33.2949L33.0331 38.1094L24 42.8697L14.9267 38.0882Z" fill="url(#paint0_linear)"/>
		<path d="M0 26.3984L24 14L48 26.3984L24 39L0 26.3984Z" fill="url(#paint1_linear)" fill-opacity="0.75"/>
		<path fill-rule="evenodd" clip-rule="evenodd" d="M24 7.8736L48.1587 20.3993L24 33.1304L-0.15863 20.3993L24 7.8736ZM4.15868 20.4137L24 30.8697L43.8414 20.4137L24 10.1264L4.15868 20.4137Z" fill="#4B3B35"/>
		<path fill-rule="evenodd" clip-rule="evenodd" d="M24.6216 2.8736L25.9986 3.58752L25.078 5.36306L24.6216 5.12643L24.1652 5.36305L23.2447 3.58752L24.6216 2.8736ZM22.3319 6.3136L20.4986 7.26414L19.578 5.4886L21.4113 4.53806L22.3319 6.3136ZM28.7447 7.26414L26.9113 6.3136L27.8319 4.53806L29.6652 5.4886L28.7447 7.26414ZM32.4113 9.16522L30.578 8.21468L31.4986 6.43914L33.3319 7.38968L32.4113 9.16522ZM18.6652 8.21468L16.8319 9.16522L15.9113 7.38968L17.7447 6.43914L18.6652 8.21468ZM36.078 11.0663L34.2447 10.1158L35.1652 8.34023L36.9986 9.29077L36.078 11.0663ZM14.9986 10.1158L13.1652 11.0663L12.2447 9.29077L14.078 8.34023L14.9986 10.1158ZM11.3319 12.0168L9.49856 12.9674L8.57798 11.1919L10.4113 10.2413L11.3319 12.0168ZM39.7447 12.9674L37.9113 12.0168L38.8319 10.2413L40.6652 11.1919L39.7447 12.9674ZM7.66523 13.9179L5.83189 14.8685L4.91132 13.0929L6.74465 12.1424L7.66523 13.9179ZM43.4113 14.8685L41.578 13.9179L42.4986 12.1424L44.3319 13.0929L43.4113 14.8685ZM3.41555 14.6946L3.07798 14.0435L0.462952 15.3993L3.07207 16.7743L3.4164 16.1209L3.99856 15.819L3.78873 15.4143L4.00448 15.0049L3.41555 14.6946ZM45.8268 16.1209L45.2447 15.819L45.4545 15.4143L45.2387 15.0049L45.8277 14.6946L46.1652 14.0435L48.7803 15.3993L46.1711 16.7743L45.8268 16.1209ZM41.5721 16.9372L43.4054 15.971L44.3378 17.7404L42.5045 18.7065L41.5721 16.9372ZM5.83781 15.971L7.67115 16.9372L6.73874 18.7065L4.9054 17.7404L5.83781 15.971ZM37.9054 18.8694L39.7387 17.9033L40.6711 19.6726L38.8378 20.6388L37.9054 18.8694ZM9.50448 17.9033L11.3378 18.8694L10.4054 20.6388L8.57207 19.6726L9.50448 17.9033ZM34.2387 20.8017L36.0721 19.8355L37.0045 21.6049L35.1711 22.571L34.2387 20.8017ZM13.1711 19.8355L15.0045 20.8017L14.0721 22.571L12.2387 21.6049L13.1711 19.8355ZM16.8378 21.7678L18.6711 22.7339L17.7387 24.5033L15.9054 23.5371L16.8378 21.7678ZM30.5721 22.7339L32.4054 21.7678L33.3378 23.5371L31.5045 24.5033L30.5721 22.7339ZM20.5045 23.7L22.3378 24.6662L21.4054 26.4355L19.5721 25.4694L20.5045 23.7ZM26.9054 24.6661L28.7387 23.7L29.6711 25.4694L27.8378 26.4355L26.9054 24.6661ZM24.6216 25.8697L24.1711 25.6323L23.2387 27.4016L24.6216 28.1304L26.0045 27.4016L25.0721 25.6323L24.6216 25.8697Z" fill="#ADA6A3"/>
	</g>
	<defs>
		<linearGradient id="paint0_linear" x1="30" y1="23" x2="14.4778" y2="36.9783" gradientUnits="userSpaceOnUse">
			<stop stop-color="#FF0000"/>
			<stop offset="0.322917" stop-color="#FB5519"/>
			<stop offset="1" stop-color="#FB5519"/>
		</linearGradient>
		<linearGradient id="paint1_linear" x1="37.3943" y1="25.8404" x2="12.6166" y2="37.8561" gradientUnits="userSpaceOnUse">
			<stop stop-color="#FF0000"/>
			<stop offset="1" stop-color="#FF5416"/>
		</linearGradient>
		<clipPath id="clip0">
			<rect width="48" height="48" fill="white"/>
		</clipPath>
	</defs>
</symbol><symbol fill="none" id="sprite-icon-display-play" viewBox="0 0 48 48"><title>sprite-icon-display-play</title>
<path fill-rule="evenodd" clip-rule="evenodd" d="M38.1698 24.0001L10.5 6.70646L10.5 41.2937L38.1698 24.0001ZM39.6432 24.8481C40.2699 24.4564 40.2699 23.5438 39.6432 23.1521L10.53 4.95633C9.86397 4.54005 9.00002 5.0189 9.00002 5.80433L9.00001 42.1958C9.00001 42.9813 9.86396 43.4601 10.53 43.0438L39.6432 24.8481Z" fill="currentColor"/>
</symbol><symbol fill="none" id="sprite-icon-display-privacy-shield-framework" viewBox="0 0 48 48"><title>sprite-icon-display-privacy-shield-framework</title>
<path d="M7 0H40.7377V34.2326C40.7377 34.2326 38.2001 40.4784 23.8021 48C23.8021 48 10.2055 41.1429 7 33.3821V0Z" fill="white"/>
<path d="M8.86987 1.76416V32.319C11.7014 39.2293 23.8822 45.2625 23.8822 45.2625V1.76416H8.86987Z" fill="#03020D"/>
<path d="M23.8021 1.76416V24.5H31.8287V1.76416H23.8021ZM26.8719 20.791L25.9707 20.1465L25.0695 20.791L25.3793 19.7822L24.478 19.1377H25.4919L25.8862 18.0729L26.196 19.1377H27.2662L26.365 19.7878L26.8719 20.791ZM26.5058 14.5141L26.9001 15.5789L26.0045 14.9344L25.0976 15.5845L25.4074 14.5757L24.5062 13.9312H25.5201L25.9144 12.8664L26.2242 13.8752H27.2944L26.5058 14.5141ZM26.5058 9.24599L26.9001 10.3108L26.0045 9.66632L25.1033 10.3108L25.4131 9.24599L24.5118 8.60149H25.5257L25.92 7.5927L26.2298 8.60149H27.3L26.5058 9.24599ZM26.5058 4.03393L26.9001 5.04271L26.0045 4.39821L25.1033 5.04271L25.4131 4.03393L24.5118 3.38943H25.5257L25.92 2.3246L26.2298 3.38943H27.3L26.5058 4.03393ZM30.6458 23.4531L29.7446 22.8086L28.8434 23.4531L29.1532 22.3882L28.2576 21.7493H29.3278L29.6376 20.7405L29.9474 21.7493H31.0176L30.1164 22.3938L30.6458 23.4531ZM30.3079 17.1201L30.6177 18.185L29.7446 17.5685L28.8434 18.213L29.1532 17.2042L28.2576 16.5597H29.3278L29.6376 15.4949L29.9474 16.5597H31.0176L30.3079 17.1201ZM30.3079 11.9081L30.6177 12.9169L29.7164 12.2723L28.8208 12.9169L29.1306 11.9081L28.2294 11.2636H29.2996L29.6094 10.1987L29.9192 11.2636H30.9894L30.3079 11.9081ZM30.3079 6.63996L30.6177 7.70479L29.7164 7.06029L28.8208 7.70479L29.1306 6.63996L28.2294 5.99546H29.2996L29.6094 4.98667L29.9192 5.99546H30.9894L30.3079 6.63996Z" fill="#03020D"/>
<path d="M19.2877 14.8094H20.7302L19.5281 15.6599L20.0089 17.0419L18.8069 16.1914L17.6102 17.0366L18.091 15.6546L16.8836 14.8094H18.326L18.8069 13.4273L19.2877 14.8094ZM14.0788 20.816L15.2808 19.9124L16.4829 20.816L16.0074 19.4286L17.2095 18.525H15.6869L15.206 17.1429L14.7733 18.5303H13.2507L14.4527 19.434L14.0788 20.816ZM13.9452 24.7761L15.1473 25.6266L14.6718 24.2393L15.8738 23.3888H14.4314L13.9506 22.0067L13.5232 23.3888H12.0807L13.2827 24.2393L12.8019 25.6213L13.9452 24.7761ZM17.1507 28.4705H15.7082L15.2274 27.0884L14.8 28.4705H13.2774L14.4795 29.321L14.0521 30.7562L15.2541 29.8526L16.4562 30.7562L15.9754 29.3742L17.1507 28.4705ZM19.2076 32.2446L18.7802 30.8625L18.2993 32.2446H16.8569L18.0589 33.0951L17.5781 34.5303L18.7802 33.6798L19.9822 34.5303L19.5014 33.1482L20.7034 32.2977L19.2076 32.2446ZM23.4014 13.3476H21.9589L23.161 14.1981L22.6855 15.5748L23.8876 14.7243V11.9602L23.4014 13.3476ZM23.4014 34.1848H21.9589L23.161 35.0353L22.6802 36.4705L23.8822 35.5668V32.8559L23.4014 34.1848Z" fill="white"/>
<path d="M31.4419 21.188V18.1794H38.7611V21.188H31.4419ZM38.7611 8.90896V5.84717H31.5006V8.90365L38.7611 8.90896ZM23.8823 42.7163V45.2412C23.8823 45.2412 25.7521 44.2844 28.2898 42.7163H23.8823ZM23.8823 33.4405H38.2802C38.5061 33.0529 38.7111 32.6537 38.8946 32.2445V30.4372H23.8823V27.3276H38.8145V24.2658H23.8823V33.4352V33.4405ZM38.7611 15.0485V12.0399H31.5006V15.0432L38.7611 15.0485ZM23.8823 36.5767V39.5801H32.5905C33.7893 38.6576 34.9228 37.6542 35.983 36.5767H23.8823Z" fill="#03020D"/>
</symbol><symbol fill="none" id="sprite-icon-display-servers" viewBox="0 0 48 48"><title>sprite-icon-display-servers</title>
<path fill-rule="evenodd" clip-rule="evenodd" d="M4 8.5H44C45.3807 8.5 46.5 9.61929 46.5 11V19C46.5 20.3807 45.3807 21.5 44 21.5H4C2.61929 21.5 1.5 20.3807 1.5 19V11C1.5 9.61929 2.61929 8.5 4 8.5ZM0 11C0 8.79086 1.79086 7 4 7H44C46.2091 7 48 8.79086 48 11V19C48 21.2091 46.2091 23 44 23H4C1.79086 23 0 21.2091 0 19V11ZM4 26.5H44C45.3807 26.5 46.5 27.6193 46.5 29V37C46.5 38.3807 45.3807 39.5 44 39.5H4C2.61929 39.5 1.5 38.3807 1.5 37V29C1.5 27.6193 2.61929 26.5 4 26.5ZM0 29C0 26.7909 1.79086 25 4 25H44C46.2091 25 48 26.7909 48 29V37C48 39.2091 46.2091 41 44 41H4C1.79086 41 0 39.2091 0 37V29ZM6.75 30C6.75 29.5858 6.41421 29.25 6 29.25C5.58579 29.25 5.25 29.5858 5.25 30V36C5.25 36.4142 5.58579 36.75 6 36.75C6.41421 36.75 6.75 36.4142 6.75 36V30ZM9 29.25C9.41421 29.25 9.75 29.5858 9.75 30V36C9.75 36.4142 9.41421 36.75 9 36.75C8.58579 36.75 8.25 36.4142 8.25 36V30C8.25 29.5858 8.58579 29.25 9 29.25ZM41 34C41.5523 34 42 33.5523 42 33C42 32.4477 41.5523 32 41 32C40.4477 32 40 32.4477 40 33C40 33.5523 40.4477 34 41 34ZM36 33C36 33.5523 35.5523 34 35 34C34.4477 34 34 33.5523 34 33C34 32.4477 34.4477 32 35 32C35.5523 32 36 32.4477 36 33ZM6 11.25C6.41421 11.25 6.75 11.5858 6.75 12V18C6.75 18.4142 6.41421 18.75 6 18.75C5.58579 18.75 5.25 18.4142 5.25 18V12C5.25 11.5858 5.58579 11.25 6 11.25ZM9.75 12C9.75 11.5858 9.41421 11.25 9 11.25C8.58579 11.25 8.25 11.5858 8.25 12V18C8.25 18.4142 8.58579 18.75 9 18.75C9.41421 18.75 9.75 18.4142 9.75 18V12ZM42 15C42 15.5523 41.5523 16 41 16C40.4477 16 40 15.5523 40 15C40 14.4477 40.4477 14 41 14C41.5523 14 42 14.4477 42 15ZM35 16C35.5523 16 36 15.5523 36 15C36 14.4477 35.5523 14 35 14C34.4477 14 34 14.4477 34 15C34 15.5523 34.4477 16 35 16Z" fill="currentColor"/>
</symbol><symbol fill="none" id="sprite-icon-display-shopping-cart" viewBox="0 0 48 48"><title>sprite-icon-display-shopping-cart</title>
	<g clip-path="url(#clip0)">
		<path fill-rule="evenodd" clip-rule="evenodd" d="M1 6.25C0.585786 6.25 0.25 6.58579 0.25 7C0.25 7.41421 0.585786 7.75 1 7.75H1.3917C2.87744 7.75 4.17402 8.75754 4.541 10.1972L10.24 32.555C9.35503 33.012 8.75 33.9353 8.75 35C8.75 36.5188 9.98122 37.75 11.5 37.75H42C42.4142 37.75 42.75 37.4142 42.75 37C42.75 36.5858 42.4142 36.25 42 36.25H11.5C10.8096 36.25 10.25 35.6904 10.25 35C10.25 34.3096 10.8096 33.75 11.5 33.75H37.8074C40.8679 33.75 43.5454 31.6909 44.3312 28.7329L48.0572 14.706C48.5208 12.9608 47.2051 11.25 45.3994 11.25H6.35732L5.99452 9.82673C5.45816 7.72255 3.56317 6.25 1.3917 6.25H1ZM6.73967 12.75L11.7103 32.25H37.8074C40.1878 32.25 42.2703 30.6485 42.8815 28.3478L46.6075 14.3209C46.8182 13.5276 46.2202 12.75 45.3994 12.75H6.73967ZM15 43.5C15.8284 43.5 16.5 42.8284 16.5 42C16.5 41.1716 15.8284 40.5 15 40.5C14.1716 40.5 13.5 41.1716 13.5 42C13.5 42.8284 14.1716 43.5 15 43.5ZM15 45C16.6569 45 18 43.6569 18 42C18 40.3431 16.6569 39 15 39C13.3431 39 12 40.3431 12 42C12 43.6569 13.3431 45 15 45ZM38.5 42C38.5 42.8284 37.8284 43.5 37 43.5C36.1716 43.5 35.5 42.8284 35.5 42C35.5 41.1716 36.1716 40.5 37 40.5C37.8284 40.5 38.5 41.1716 38.5 42ZM40 42C40 43.6569 38.6569 45 37 45C35.3431 45 34 43.6569 34 42C34 40.3431 35.3431 39 37 39C38.6569 39 40 40.3431 40 42Z" fill="currentColor"/>
	</g>
	<defs>
		<clipPath id="clip0">
			<rect width="48" height="48" fill="white"/>
		</clipPath>
	</defs>
</symbol><symbol fill="none" id="sprite-icon-display-sla" viewBox="0 0 48 48"><title>sprite-icon-display-sla</title>
	<path fill-rule="evenodd" clip-rule="evenodd" d="M38.5 42C38.5 42.2761 38.2761 42.5 38 42.5H10C9.72386 42.5 9.5 42.2761 9.5 42V6C9.5 5.72386 9.72386 5.5 10 5.5H30.3431C31.0062 5.5 31.6421 5.76339 32.1109 6.23223L37.7678 11.8891C38.2366 12.3579 38.5 12.9938 38.5 13.6569V42ZM10 44H38C39.1046 44 40 43.1046 40 42V13.6569C40 12.596 39.5786 11.5786 38.8284 10.8284L33.1716 5.17157C32.4214 4.42143 31.404 4 30.3431 4H10C8.89543 4 8 4.89543 8 6V42C8 43.1046 8.89543 44 10 44ZM24 19.6933L25.3733 22.7833L28.8177 23.2139L26.3807 25.7118L27.015 29.0567L24.1 27.366L21.1132 29.0983L21.7103 25.5754L19.2775 23.202L22.6267 22.7833L24 19.6933ZM29.1 32L28 26.2L32 22.1L26.4 21.4L24 16L21.6 21.4L16 22.1L20.1 26.1L19.1 32L24.1 29.1L29.1 32Z" fill="currentColor"/>
</symbol><symbol fill="none" id="sprite-icon-display-soc2-type2" viewBox="0 0 48 48"><title>sprite-icon-display-soc2-type2</title>
<path fill-rule="evenodd" clip-rule="evenodd" d="M25.9081 17.0727C25.8471 18.1268 25.3874 19.1193 24.6208 19.8524C23.7948 20.5242 22.7452 20.8656 21.6783 20.8094C20.8724 20.8256 20.0805 20.5991 19.4074 20.1597C18.7342 19.7204 18.2114 19.0888 17.9081 18.3487C17.5271 17.5035 17.3387 16.5856 17.3564 15.6601V14.1563C17.3387 13.2308 17.5271 12.3129 17.9081 11.4678C18.2332 10.7187 18.7778 10.0836 19.4714 9.64501C20.1787 9.2223 20.9902 9.00152 21.8162 9.00704C22.892 8.94415 23.9493 9.3044 24.7587 10.0096C25.5193 10.7236 25.9653 11.7059 26.0001 12.7437H25.0346C24.8047 10.7842 23.7472 9.82728 21.8622 9.82728C21.3826 9.81128 20.9062 9.91071 20.4738 10.117C20.0414 10.3234 19.6659 10.6305 19.3794 11.0121C18.7357 11.7867 18.4599 12.8804 18.4599 14.2475V15.6601C18.4062 16.7802 18.7297 17.8863 19.3794 18.8043C19.6598 19.1812 20.0276 19.4856 20.4517 19.6918C20.8759 19.8981 21.3439 20 21.8162 19.9891C22.8277 19.9891 23.6093 19.7613 24.115 19.26C24.6687 18.6546 25.0077 17.8866 25.0806 17.0727H25.9081ZM29.0665 20.6279V16.0254H32.0228C33.0625 16.0963 34.0925 15.7885 34.9193 15.1596C35.2675 14.8443 35.5393 14.4552 35.7144 14.0212C35.8896 13.5872 35.9636 13.1196 35.9308 12.6534C35.9499 12.1831 35.8637 11.7146 35.6785 11.2813C35.4933 10.848 35.2136 10.4606 34.8596 10.1471C34.0527 9.50998 33.0394 9.18599 32.009 9.23569H28.101V20.6279H29.0665ZM32.009 15.1596H29.0665V9.96479H32.055C32.8282 9.9303 33.5852 10.1913 34.1699 10.6939C34.4181 10.9461 34.6115 11.246 34.738 11.5752C34.8645 11.9044 34.9216 12.2559 34.9055 12.6078C34.9301 12.9538 34.8769 13.3008 34.7497 13.6239C34.6225 13.947 34.4244 14.2381 34.1699 14.4761C33.5651 14.971 32.7912 15.2158 32.009 15.1596ZM43.0436 17.437H37.8022L36.6068 20.6724H35.5953L39.9769 9.23462H40.8965L45.2643 20.6724H44.239L43.0436 17.437ZM38.1379 16.6168H42.7815L40.4827 10.3738L38.1379 16.6168ZM38.3216 35.6643C38.2605 36.7184 37.8009 37.7109 37.0342 38.444C36.2083 39.1158 35.1587 39.4571 34.0917 39.4009C33.2859 39.4172 32.494 39.1907 31.8208 38.7513C31.1476 38.3119 30.6249 37.6804 30.3216 36.9402C29.9406 36.0951 29.7522 35.1771 29.7699 34.2516V32.7479C29.7522 31.8224 29.9406 30.9044 30.3216 30.0593C30.6466 29.3102 31.1913 28.6752 31.8848 28.2366C32.5922 27.8139 33.4037 27.5931 34.2296 27.5986C35.3054 27.5357 36.3628 27.896 37.1722 28.6011C37.9328 29.3151 38.3788 30.2975 38.4136 31.3352H37.3423C37.1124 29.3758 36.0549 28.4188 34.1699 28.4188C33.6903 28.4028 33.2139 28.5023 32.7815 28.7086C32.3491 28.9149 31.9736 29.222 31.6871 29.6036C31.0434 30.3783 30.7676 31.4719 30.7676 32.839V34.2516C30.714 35.3718 31.0374 36.4778 31.6871 37.3959C31.9675 37.7728 32.3353 38.0772 32.7594 38.2834C33.1836 38.4896 33.6516 38.5916 34.1239 38.5807C35.1354 38.5807 35.917 38.3528 36.4228 37.8516C36.9764 37.2462 37.3154 36.4782 37.3883 35.6643H38.3216ZM27.8389 34.1159C27.8562 35.0708 27.6681 36.0183 27.2871 36.8956C26.9621 37.6447 26.4175 38.2797 25.7239 38.7183C25.0166 39.141 24.2051 39.3618 23.3791 39.3563C22.7627 39.3799 22.149 39.2651 21.5837 39.0205C21.0184 38.7759 20.5162 38.4077 20.1147 37.9437C19.2872 36.9867 18.8734 35.7108 18.8734 34.0703V32.8855C18.8517 31.9316 19.0351 30.9841 19.4113 30.1058C19.7504 29.3532 20.291 28.7071 20.9745 28.2375C21.6843 27.8204 22.4942 27.6003 23.3193 27.6003C24.1445 27.6003 24.9544 27.8204 25.6642 28.2375C26.3556 28.6584 26.901 29.2784 27.2274 30.0147C27.6026 30.8633 27.8057 31.7769 27.8251 32.7033V34.1159H27.8389ZM26.8734 32.8855C26.9415 31.7285 26.6 30.5843 25.9078 29.6501C25.6024 29.2664 25.2103 28.9593 24.763 28.7534C24.3158 28.5476 23.826 28.4489 23.3331 28.4654C22.8411 28.4546 22.3532 28.5558 21.9069 28.7612C21.4605 28.9666 21.0676 29.2707 20.7584 29.6501C20.1147 30.4248 19.7929 31.5185 19.7929 32.9311V34.1159C19.732 35.272 20.0728 36.4139 20.7584 37.3513C21.0676 37.7307 21.4605 38.0348 21.9069 38.2402C22.3532 38.4456 22.8411 38.5468 23.3331 38.5361C23.8266 38.5573 24.3181 38.4608 24.7661 38.2546C25.2142 38.0484 25.6057 37.7386 25.9078 37.3513C26.5702 36.3876 26.8934 35.2344 26.8274 34.0703L26.8734 32.8855ZM16.2277 35.5621C16.3476 35.8234 16.4035 36.109 16.3908 36.3958H16.377C16.3851 36.7091 16.3136 37.0194 16.169 37.2981C16.0243 37.5768 15.8113 37.815 15.5495 37.9907C14.916 38.4216 14.1554 38.6301 13.3885 38.5831C12.5224 38.6279 11.6657 38.3876 10.9518 37.8996C10.6535 37.6783 10.4139 37.3885 10.2537 37.0551C10.0936 36.7217 10.0175 36.3547 10.0322 35.9857H9.0667C9.03629 36.6168 9.2138 37.2406 9.57245 37.7629C9.95135 38.3245 10.4979 38.7547 11.1357 38.9932C11.8529 39.2726 12.6179 39.4119 13.3885 39.4034C14.4036 39.4454 15.4046 39.1573 16.2391 38.5831C16.5901 38.3363 16.8744 38.0077 17.0668 37.6262C17.2593 37.2447 17.354 36.8222 17.3426 36.3958C17.3597 35.8648 17.2156 35.3409 16.9288 34.892C16.6225 34.4395 16.213 34.0648 15.7334 33.7984C14.9889 33.4191 14.2019 33.1285 13.3885 32.9326C12.5836 32.7568 11.8193 32.4321 11.1357 31.9756C10.9177 31.8105 10.7427 31.5961 10.6252 31.3504C10.5076 31.1047 10.4509 30.8348 10.4598 30.563C10.4587 30.2622 10.5289 29.9653 10.6646 29.6962C10.8004 29.4271 10.9979 29.1933 11.2414 29.0137C11.8606 28.5891 12.6046 28.3807 13.3564 28.4213C14.1423 28.3945 14.911 28.6538 15.5173 29.1504C15.7895 29.3789 16.0056 29.6659 16.149 29.9897C16.2924 30.3135 16.3594 30.6654 16.3449 31.0187H17.3104C17.3133 30.4053 17.1377 29.8041 16.8046 29.2871C16.4571 28.7511 15.9627 28.3243 15.3793 28.0567C14.739 27.7357 14.0276 27.579 13.3104 27.601C12.3096 27.5585 11.323 27.8471 10.5058 28.4213C10.1571 28.6703 9.87465 28.9997 9.68281 29.3809C9.49098 29.7621 9.39547 30.1838 9.40452 30.6097C9.41357 31.0356 9.52689 31.453 9.73475 31.8259C9.9426 32.1988 10.2388 32.516 10.5977 32.7503C11.3979 33.268 12.2856 33.6385 13.2184 33.844C14.1055 34.0343 14.9481 34.3899 15.7012 34.892C15.9275 35.0712 16.1079 35.3007 16.2277 35.5621ZM13.7703 9.23462H14.7358V20.6724H13.7703V9.23462ZM9.81577 17.437H4.57439L3.37899 20.6724H2.36749L6.73531 9.23462H7.65485L12.0227 20.6724H11.0112L9.81577 17.437ZM4.89623 16.6168H9.53991L7.24106 10.3738L4.89623 16.6168ZM2 24.1128C1.86193 24.1128 1.75 24.2247 1.75 24.3628C1.75 24.5009 1.86193 24.6128 2 24.6128H46C46.1381 24.6128 46.25 24.5009 46.25 24.3628C46.25 24.2247 46.1381 24.1128 46 24.1128H2Z" fill="currentColor"/>
</symbol><symbol fill="none" id="sprite-icon-display-tech-account-comms" viewBox="0 0 48 48"><title>sprite-icon-display-tech-account-comms</title>
	<path fill-rule="evenodd" clip-rule="evenodd" d="M3.25 10C3.25 7.37665 5.37665 5.25 8 5.25H40C42.6234 5.25 44.75 7.37665 44.75 10V40.9554C44.75 42.4116 43.0751 43.2308 41.9256 42.3367L34.7427 36.75H8C5.37665 36.75 3.25 34.6234 3.25 32V10ZM8 6.75C6.20507 6.75 4.75 8.20507 4.75 10V32C4.75 33.7949 6.20507 35.25 8 35.25H35.2573L42.8465 41.1527C43.0107 41.2804 43.25 41.1634 43.25 40.9554V10C43.25 8.20508 41.7949 6.75 40 6.75H8ZM21.6468 10.7301C21.9083 10.4686 22.2977 10.25 22.75 10.25H25.25C25.7023 10.25 26.0917 10.4686 26.3532 10.7301C26.6148 10.9916 26.8333 11.3811 26.8333 11.8333V12.3782C27.2541 12.5239 27.6929 12.6898 28.1198 12.9029L28.4697 12.553C29.0959 11.9268 30.0708 11.9268 30.697 12.553L32.447 14.303C33.0732 14.9292 33.0732 15.9041 32.447 16.5303L32.1039 16.8734C32.323 17.2846 32.5121 17.72 32.6556 18.1667H33.1667C33.6189 18.1667 34.0084 18.3852 34.2699 18.6468C34.5314 18.9083 34.75 19.2977 34.75 19.75V22.25C34.75 22.7023 34.5314 23.0917 34.2699 23.3532C34.0084 23.6148 33.6189 23.8333 33.1667 23.8333H32.6218C32.4761 24.2541 32.3102 24.6929 32.0971 25.1198L32.447 25.4697C33.0732 26.0959 33.0732 27.0708 32.447 27.697L30.697 29.447C30.0708 30.0732 29.0959 30.0732 28.4697 29.447L28.1266 29.1039C27.7154 29.323 27.28 29.5121 26.8333 29.6556V30.1667C26.8333 30.6189 26.6148 31.0084 26.3532 31.2699C26.0917 31.5314 25.7023 31.75 25.25 31.75H22.75C22.2977 31.75 21.9083 31.5314 21.6468 31.2699C21.3852 31.0084 21.1667 30.6189 21.1667 30.1667V29.6218C20.7459 29.4761 20.3071 29.3102 19.8802 29.0971L19.5303 29.447C18.9041 30.0732 17.9292 30.0732 17.303 29.447L15.553 27.697C14.9268 27.0708 14.9268 26.0959 15.553 25.4697L15.8961 25.1266C15.677 24.7154 15.4879 24.28 15.3444 23.8333H14.8333C14.3811 23.8333 13.9916 23.6148 13.7301 23.3532C13.4686 23.0917 13.25 22.7023 13.25 22.25V19.75C13.25 19.2977 13.4686 18.9083 13.7301 18.6468C13.9916 18.3852 14.3811 18.1667 14.8333 18.1667H15.3782C15.5239 17.7459 15.6898 17.3071 15.9029 16.8802L15.553 16.5303C14.9268 15.9041 14.9268 14.9292 15.553 14.303L17.303 12.553C17.9292 11.9268 18.9041 11.9268 19.5303 12.553L19.8802 12.9029C20.3071 12.6898 20.7459 12.5239 21.1667 12.3782V11.8333C21.1667 11.3811 21.3852 10.9916 21.6468 10.7301ZM22.6667 11.8473V13.4572L22.1538 13.6282C21.3888 13.8832 20.7257 14.1079 20.1475 14.4693L19.6416 14.7855L18.4697 13.6137C18.4531 13.5971 18.4401 13.5901 18.4329 13.5871C18.4256 13.584 18.4203 13.5833 18.4167 13.5833C18.413 13.5833 18.4078 13.584 18.4004 13.5871C18.3932 13.5901 18.3802 13.5971 18.3637 13.6137L16.6137 15.3637C16.5971 15.3802 16.5901 15.3932 16.5871 15.4004C16.584 15.4078 16.5833 15.413 16.5833 15.4167C16.5833 15.4203 16.584 15.4256 16.5871 15.4329C16.5901 15.4401 16.5971 15.4531 16.6137 15.4697L17.7855 16.6416L17.4693 17.1475C17.1079 17.7257 16.8832 18.3888 16.6282 19.1538L16.4572 19.6667H14.8473L14.8445 19.6679C14.8313 19.6741 14.8113 19.6869 14.7907 19.7074C14.7702 19.728 14.7574 19.748 14.7513 19.7612L14.75 19.764V22.236L14.7513 22.2388C14.7574 22.252 14.7702 22.272 14.7907 22.2926C14.8113 22.3131 14.8313 22.3259 14.8445 22.3321L14.8473 22.3333H16.5183L16.6488 22.9206C16.7936 23.5721 17.0887 24.2434 17.4693 24.8525L17.7855 25.3584L16.6137 26.5303C16.5971 26.5469 16.5901 26.5599 16.5871 26.5671C16.584 26.5744 16.5833 26.5797 16.5833 26.5833C16.5833 26.587 16.584 26.5922 16.5871 26.5996C16.5901 26.6068 16.5971 26.6198 16.6137 26.6363L18.3637 28.3863C18.3802 28.4029 18.3932 28.4099 18.4004 28.4129C18.4078 28.416 18.413 28.4167 18.4167 28.4167C18.4203 28.4167 18.4256 28.416 18.4329 28.4129C18.4401 28.4099 18.4531 28.4029 18.4697 28.3863L19.6416 27.2145L20.1475 27.5307C20.7257 27.8921 21.3888 28.1168 22.1538 28.3718L22.6667 28.5428V30.1527L22.6679 30.1555C22.6741 30.1687 22.6869 30.1887 22.7074 30.2093C22.728 30.2298 22.748 30.2426 22.7612 30.2487L22.764 30.25H25.236L25.2388 30.2487C25.252 30.2426 25.272 30.2298 25.2926 30.2093C25.3131 30.1887 25.3259 30.1687 25.3321 30.1555L25.3333 30.1527V28.4817L25.9206 28.3512C26.5721 28.2064 27.2434 27.9113 27.8525 27.5307L28.3584 27.2145L29.5303 28.3863C29.5469 28.4029 29.5599 28.4099 29.5671 28.4129C29.5744 28.416 29.5797 28.4167 29.5833 28.4167C29.587 28.4167 29.5922 28.416 29.5996 28.4129C29.6068 28.4099 29.6198 28.4029 29.6363 28.3863L31.3863 26.6363C31.4029 26.6198 31.4099 26.6068 31.4129 26.5996C31.416 26.5922 31.4167 26.587 31.4167 26.5833C31.4167 26.5813 31.4165 26.5788 31.4158 26.5758C31.4152 26.5733 31.4143 26.5704 31.4129 26.5671C31.4099 26.5599 31.4029 26.5469 31.3863 26.5303L30.2145 25.3584L30.5307 24.8525C30.8921 24.2743 31.1168 23.6112 31.3718 22.8462L31.5428 22.3333H33.1527L33.1555 22.3321C33.1687 22.3259 33.1887 22.3131 33.2093 22.2926C33.2298 22.272 33.2426 22.252 33.2487 22.2388L33.25 22.236V19.764L33.2487 19.7612C33.2426 19.748 33.2298 19.728 33.2093 19.7074C33.1887 19.6869 33.1687 19.6741 33.1555 19.6679L33.1527 19.6667H31.4817L31.3512 19.0794C31.2064 18.4279 30.9113 17.7566 30.5307 17.1475L30.2145 16.6416L31.3863 15.4697C31.4029 15.4531 31.4099 15.4401 31.4129 15.4329C31.416 15.4256 31.4167 15.4203 31.4167 15.4167C31.4167 15.413 31.416 15.4078 31.4129 15.4004C31.4099 15.3932 31.4029 15.3802 31.3863 15.3637L29.6363 13.6137C29.6198 13.5971 29.6068 13.5901 29.5996 13.5871C29.5922 13.584 29.587 13.5833 29.5833 13.5833C29.5797 13.5833 29.5744 13.584 29.5671 13.5871C29.5599 13.5901 29.5469 13.5971 29.5303 13.6137L28.3584 14.7855L27.8525 14.4693C27.2743 14.1079 26.6112 13.8832 25.8462 13.6282L25.3333 13.4572V11.8473L25.3321 11.8445C25.3259 11.8313 25.3131 11.8113 25.2926 11.7907C25.272 11.7702 25.252 11.7574 25.2388 11.7513L25.236 11.75H22.764L22.7612 11.7513C22.748 11.7574 22.728 11.7702 22.7074 11.7907C22.6869 11.8113 22.6741 11.8313 22.6679 11.8445L22.6667 11.8473ZM25.5 21C25.5 21.8284 24.8284 22.5 24 22.5C23.1716 22.5 22.5 21.8284 22.5 21C22.5 20.1716 23.1716 19.5 24 19.5C24.8284 19.5 25.5 20.1716 25.5 21ZM27 21C27 22.6569 25.6569 24 24 24C22.3431 24 21 22.6569 21 21C21 19.3431 22.3431 18 24 18C25.6569 18 27 19.3431 27 21Z" fill="currentColor"/>
</symbol><symbol id="sprite-icon-gui-ably-badge" viewBox="0 0 24 24"><title>sprite-icon-gui-ably-badge</title>
	<path fill-rule="evenodd" clip-rule="evenodd" d="M2.77068 19.6145L11.8483 3H9.39923L1 18.3727L2.77068 19.6145ZM21.0524 19.6145L11.9748 3H14.4238L22.823 18.3727L21.0524 19.6145ZM11.9115 12.6525L20.9259 19.7123L19.0862 21L11.9115 15.3833L4.73681 21L2.89715 19.7123L11.9115 12.6525Z"/>
</symbol><symbol fill="none" id="sprite-icon-gui-arrow-bidirectional-horizontal" viewBox="0 0 24 24"><title>sprite-icon-gui-arrow-bidirectional-horizontal</title>
<path fill-rule="evenodd" clip-rule="evenodd" d="M8.45338 6L10.5433 3.67789L9.05668 2.33997L5.45668 6.33997V7.6779L9.05668 11.6779L10.5433 10.34L8.4373 8L18 8V6L8.45338 6ZM15.5646 18L5.99999 18L5.99999 16L15.5447 16L13.4567 13.6801L14.9433 12.3421L18.5433 16.3421L18.5433 17.6801L14.9433 21.6801L13.4567 20.3421L15.5646 18Z" fill="currentColor"/>
</symbol><symbol fill="none" id="sprite-icon-gui-arrow-bidirectional-vertical" viewBox="0 0 24 24"><title>sprite-icon-gui-arrow-bidirectional-vertical</title>
<path fill-rule="evenodd" clip-rule="evenodd" d="M19 8.24537L21.331 10.3433L22.669 8.85671L18.669 5.25671H17.331L13.331 8.85671L14.669 10.3433L17 8.24537L17 18H19L19 8.24537ZM7 15.3547L9.33103 13.2568L10.669 14.7433L6.66896 18.3433H5.33103L1.33103 14.7433L2.66896 13.2568L5 15.3547V6.00004H7V15.3547Z" fill="currentColor"/>
</symbol><symbol fill="none" id="sprite-icon-gui-arrow-down" viewBox="0 0 24 24"><title>sprite-icon-gui-arrow-down</title>
<path fill-rule="evenodd" clip-rule="evenodd" d="M12.9933 17.0045L12.9933 4.00659L10.9933 4.00659L10.9933 17.0045L7.66226 14.0066L6.32433 15.4932L11.3243 19.9932L12.6623 19.9932L17.6623 15.4932L16.3243 14.0066L12.9933 17.0045Z" fill="currentColor"/>
</symbol><symbol fill="none" id="sprite-icon-gui-arrow-left" viewBox="0 0 24 24"><title>sprite-icon-gui-arrow-left</title>
<path fill-rule="evenodd" clip-rule="evenodd" d="M6.98864 12.9999L19.9866 12.9999L19.9866 10.9999L6.98867 10.9999L9.98659 7.66888L8.5 6.33095L4 11.331L4 12.6689L8.5 17.6689L9.98659 16.331L6.98864 12.9999Z" fill="currentColor"/>
</symbol><symbol fill="none" id="sprite-icon-gui-arrow-right" viewBox="0 0 24 24"><title>sprite-icon-gui-arrow-right</title>
<path fill-rule="evenodd" clip-rule="evenodd" d="M16.9979 11H4V13H16.9979L14 16.331L15.4866 17.6689L19.9866 12.6689V11.331L15.4866 6.33099L14 7.66892L16.9979 11Z" fill="currentColor"/>
</symbol><symbol fill="none" id="sprite-icon-gui-arrow-up" viewBox="0 0 24 24"><title>sprite-icon-gui-arrow-up</title>
<path fill-rule="evenodd" clip-rule="evenodd" d="M10.9933 6.99528L10.9933 19.9932L12.9933 19.9932L12.9933 6.99531L16.3243 9.99322L17.6623 8.50664L12.6623 4.00664L11.3243 4.00664L6.32433 8.50664L7.66225 9.99323L10.9933 6.99528Z" fill="currentColor"/>
</symbol><symbol fill="none" id="sprite-icon-gui-burger-menu" viewBox="0 0 24 24"><title>sprite-icon-gui-burger-menu</title>
	<path fill-rule="evenodd" clip-rule="evenodd" d="M24 13H0V11H24V13Z" fill="currentColor"/>
	<path fill-rule="evenodd" clip-rule="evenodd" d="M24 6H0V4H24V6Z" fill="currentColor"/>
	<path fill-rule="evenodd" clip-rule="evenodd" d="M24 20H0V18H24V20Z" fill="currentColor"/>
</symbol><symbol fill="none" id="sprite-icon-gui-check-circled-fill" viewBox="0 0 24 24"><title>sprite-icon-gui-check-circled-fill</title>
<path fill-rule="evenodd" clip-rule="evenodd" d="M0 12C0 5.37258 5.37258 0 12 0C18.6274 0 24 5.37258 24 12C24 18.6274 18.6274 24 12 24C5.37258 24 0 18.6274 0 12Z" fill="currentColor"/>
<path fill-rule="evenodd" clip-rule="evenodd" d="M17.8321 7.55471L11.1654 17.5547L9.55246 17.6247L6.21913 13.458L7.78087 12.2087L10.2599 15.3074L16.1679 6.44531L17.8321 7.55471Z" fill="white"/>
</symbol><symbol fill="none" id="sprite-icon-gui-check-circled" viewBox="0 0 24 24"><title>sprite-icon-gui-check-circled</title>
<path fill-rule="evenodd" clip-rule="evenodd" d="M2 12C2 6.47715 6.47715 2 12 2C17.5228 2 22 6.47715 22 12C22 17.5228 17.5228 22 12 22C6.47715 22 2 17.5228 2 12ZM12 0C5.37258 0 0 5.37258 0 12C0 18.6274 5.37258 24 12 24C18.6274 24 24 18.6274 24 12C24 5.37258 18.6274 0 12 0ZM11.1654 17.5547L17.8321 7.55471L16.1679 6.44531L10.2599 15.3074L7.78087 12.2087L6.21913 13.458L9.55246 17.6247L11.1654 17.5547Z" fill="currentColor"/>
</symbol><symbol fill="none" id="sprite-icon-gui-checklist-checked" viewBox="0 0 24 24"><title>sprite-icon-gui-checklist-checked</title>
<path fill-rule="evenodd" clip-rule="evenodd" d="M3 4C3 3.44772 3.44772 3 4 3H15C15.5523 3 16 2.55228 16 2C16 1.44772 15.5523 1 15 1H4C2.34315 1 1 2.34315 1 4V20C1 21.6569 2.34315 23 4 23H20C21.6569 23 23 21.6569 23 20V9.47619C23 8.92391 22.5523 8.47619 22 8.47619C21.4477 8.47619 21 8.92391 21 9.47619V20C21 20.5523 20.5523 21 20 21H4C3.44772 21 3 20.5523 3 20V4ZM20.8321 3.55468C21.1384 3.09516 21.0142 2.47429 20.5547 2.16793C20.0952 1.86158 19.4743 1.98576 19.168 2.44528L11.9266 13.3074L8.78088 9.37529C8.43587 8.94403 7.80657 8.87411 7.37531 9.21912C6.94405 9.56413 6.87413 10.1934 7.21914 10.6247L11.2191 15.6247C11.4184 15.8738 11.7246 16.0129 12.0434 15.999C12.3621 15.9852 12.6551 15.8201 12.8321 15.5547L20.8321 3.55468Z" fill="currentColor"/>
</symbol><symbol id="sprite-icon-gui-clock" viewBox="0 0 16 16"><title>sprite-icon-gui-clock</title>
<path fill-rule="evenodd" clip-rule="evenodd" d="M1.33333 8C1.33333 4.3181 4.3181 1.33333 8 1.33333C11.6819 1.33333 14.6667 4.3181 14.6667 8C14.6667 11.6819 11.6819 14.6667 8 14.6667C4.3181 14.6667 1.33333 11.6819 1.33333 8ZM8 0C3.58172 0 0 3.58172 0 8C0 12.4183 3.58172 16 8 16C12.4183 16 16 12.4183 16 8C16 3.58172 12.4183 0 8 0ZM8.66667 3.33333C8.66667 2.96514 8.36819 2.66667 8 2.66667C7.63181 2.66667 7.33333 2.96514 7.33333 3.33333V7.38675C7.33333 7.9706 7.58846 8.5253 8.03175 8.90527L9.89947 10.5062C10.179 10.7458 10.5999 10.7134 10.8395 10.4339C11.0791 10.1543 11.0467 9.73344 10.7672 9.49383L8.89947 7.89292C8.75171 7.76627 8.66667 7.58137 8.66667 7.38675V3.33333Z" fill="currentColor"/>
</symbol><symbol fill="none" id="sprite-icon-gui-close" viewBox="0 0 24 24"><title>sprite-icon-gui-close</title>
	<path fill-rule="evenodd" clip-rule="evenodd" d="M13.4142 12L22.7071 21.2929L21.2929 22.7071L12 13.4142L2.70711 22.7071L1.29289 21.2929L10.5858 12L1.29289 2.70712L2.70711 1.29291L12 10.5858L21.2929 1.29291L22.7071 2.70712L13.4142 12Z" fill="currentColor"/>
</symbol><symbol fill="none" id="sprite-icon-gui-cross-circled-fill" viewBox="0 0 24 24"><title>sprite-icon-gui-cross-circled-fill</title>
<path fill-rule="evenodd" clip-rule="evenodd" d="M0 12C0 5.37258 5.37258 0 12 0C18.6274 0 24 5.37258 24 12C24 18.6274 18.6274 24 12 24C5.37258 24 0 18.6274 0 12Z" fill="currentColor"/>
<path fill-rule="evenodd" clip-rule="evenodd" d="M13.4142 12L17.7071 16.2928L16.2929 17.7071L12 13.4142L7.70711 17.7071L6.29289 16.2928L10.5858 12L6.29289 7.70706L7.70711 6.29285L12 10.5857L16.2929 6.29285L17.7071 7.70706L13.4142 12Z" fill="white"/>
</symbol><symbol fill="none" id="sprite-icon-gui-cross-circled" viewBox="0 0 24 24"><title>sprite-icon-gui-cross-circled</title>
<path fill-rule="evenodd" clip-rule="evenodd" d="M2 12C2 6.47715 6.47715 2 12 2C17.5228 2 22 6.47715 22 12C22 17.5228 17.5228 22 12 22C6.47715 22 2 17.5228 2 12ZM12 0C5.37258 0 0 5.37258 0 12C0 18.6274 5.37258 24 12 24C18.6274 24 24 18.6274 24 12C24 5.37258 18.6274 0 12 0ZM17.7071 16.2928L13.4142 12L17.7071 7.70706L16.2929 6.29285L12 10.5857L7.70711 6.29285L6.29289 7.70706L10.5858 12L6.29289 16.2928L7.70711 17.7071L12 13.4142L16.2929 17.7071L17.7071 16.2928Z" fill="currentColor"/>
</symbol><symbol fill="none" id="sprite-icon-gui-dash-circled" viewBox="0 0 24 24"><title>sprite-icon-gui-dash-circled</title>
<path fill-rule="evenodd" clip-rule="evenodd" d="M2 12C2 6.47715 6.47715 2 12 2C17.5228 2 22 6.47715 22 12C22 17.5228 17.5228 22 12 22C6.47715 22 2 17.5228 2 12ZM12 0C5.37258 0 0 5.37258 0 12C0 18.6274 5.37258 24 12 24C18.6274 24 24 18.6274 24 12C24 5.37258 18.6274 0 12 0ZM6 13H18V11H6V13Z" fill="currentColor"/>
</symbol><symbol fill="none" id="sprite-icon-gui-disclosure-arrow" viewBox="0 0 24 24"><title>sprite-icon-gui-disclosure-arrow</title>
	<path fill-rule="evenodd" clip-rule="evenodd" fill="currentColor" d="M12.9046 12L9.00671 16.331L10.4933 17.669L14.9933 12.669L14.9933 11.331L10.4933 6.33105L9.00671 7.66898L12.9046 12Z"/>
</symbol><symbol fill="none" id="sprite-icon-gui-document-generic" viewBox="0 0 24 24"><title>sprite-icon-gui-document-generic</title>
<path fill-rule="evenodd" clip-rule="evenodd" d="M20 22H4V2L14.7658 2C15.2821 2 15.7784 2.19967 16.1508 2.55723L19.3851 5.6621C19.7779 6.03924 20 6.56028 20 7.10487V22ZM4 24H20C21.1046 24 22 23.1046 22 22V7.10487C22 6.01569 21.5558 4.97361 20.7701 4.21932L17.5359 1.11445C16.791 0.399335 15.7984 0 14.7658 0H4C2.89543 0 2 0.89543 2 2V22C2 23.1046 2.89543 24 4 24ZM7 11H17V9H7V11ZM17 15H7V13H17V15ZM7 19H14V17H7V19Z" fill="currentColor"/>
</symbol><symbol fill="none" id="sprite-icon-gui-enlarge" viewBox="0 0 24 24"><title>sprite-icon-gui-enlarge</title>
  <path fill-rule="evenodd" clip-rule="evenodd" d="M17 10.5C17 14.0899 14.0899 17 10.5 17C6.91015 17 4 14.0899 4 10.5C4 6.91015 6.91015 4 10.5 4C14.0899 4 17 6.91015 17 10.5ZM15.7618 17.1761C14.3145 18.3183 12.4869 19 10.5 19C5.80558 19 2 15.1944 2 10.5C2 5.80558 5.80558 2 10.5 2C15.1944 2 19 5.80558 19 10.5C19 12.4869 18.3183 14.3146 17.176 15.7619L22.7071 21.293L21.2929 22.7072L15.7618 17.1761ZM9.5 9.5V6.5H11.5V9.5H14.5V11.5H11.5V14.5H9.5V11.5H6.5V9.5H9.5Z" fill="currentColor"/>
</symbol><symbol fill="none" id="sprite-icon-gui-external-link" viewBox="0 0 24 24"><title>sprite-icon-gui-external-link</title>
	<path fill-rule="evenodd" clip-rule="evenodd" d="M3 4C3 3.44772 3.44772 3 4 3H12V1H4C2.34315 1 1 2.34315 1 4V20C1 21.6569 2.34315 23 4 23H20C21.6569 23 23 21.6569 23 20V12.4762H21V20C21 20.5523 20.5523 21 20 21H4C3.44772 21 3 20.5523 3 20V4ZM15 3H19.6707L11.775 11.3113L13.225 12.6888L21 4.50456V10H23V2L22 1H15V3Z" fill="currentColor"/>
</symbol><symbol fill="none" id="sprite-icon-gui-history" viewBox="0 0 24 24"><title>sprite-icon-gui-history</title>
<path fill-rule="evenodd" clip-rule="evenodd" d="M12 2C6.47715 2 2 6.47715 2 12C2 17.5228 6.47715 22 12 22C17.5228 22 22 17.5228 22 12C22 11.4477 22.4477 11 23 11C23.5523 11 24 11.4477 24 12C24 18.6274 18.6274 24 12 24C5.37258 24 0 18.6274 0 12C0 5.37258 5.37258 0 12 0C12.5523 0 13 0.447715 13 1C13 1.55228 12.5523 2 12 2ZM12 4C12.5523 4 13 4.44772 13 5V11.0801C13 11.3721 13.1276 11.6494 13.3492 11.8394L16.1508 14.2407C16.5701 14.6002 16.6187 15.2315 16.2593 15.6508C15.8998 16.0701 15.2685 16.1187 14.8492 15.7593L12.0476 13.3579C11.3827 12.788 11 11.9559 11 11.0801V5C11 4.44772 11.4477 4 12 4ZM19.75 5.25C20.3023 5.25 20.75 4.80228 20.75 4.25C20.75 3.69772 20.3023 3.25 19.75 3.25C19.1977 3.25 18.75 3.69772 18.75 4.25C18.75 4.80228 19.1977 5.25 19.75 5.25ZM17.5 2C17.5 2.55228 17.0523 3 16.5 3C15.9477 3 15.5 2.55228 15.5 2C15.5 1.44772 15.9477 1 16.5 1C17.0523 1 17.5 1.44772 17.5 2ZM22 8.5C22.5523 8.5 23 8.05229 23 7.5C23 6.94772 22.5523 6.5 22 6.5C21.4477 6.5 21 6.94772 21 7.5C21 8.05229 21.4477 8.5 22 8.5Z" fill="currentColor"/>
</symbol><symbol fill="none" id="sprite-icon-gui-info" viewBox="0 0 24 24"><title>sprite-icon-gui-info</title>
<path fill-rule="evenodd" clip-rule="evenodd" d="M12 2C6.47715 2 2 6.47715 2 12C2 17.5228 6.47715 22 12 22C17.5228 22 22 17.5228 22 12C22 6.47715 17.5228 2 12 2ZM0 12C0 5.37258 5.37258 0 12 0C18.6274 0 24 5.37258 24 12C24 18.6274 18.6274 24 12 24C5.37258 24 0 18.6274 0 12ZM12 10C12.5523 10 13 10.4477 13 11V17C13 17.5523 12.5523 18 12 18C11.4477 18 11 17.5523 11 17V11C11 10.4477 11.4477 10 12 10ZM12 8C12.5523 8 13 7.55228 13 7C13 6.44772 12.5523 6 12 6C11.4477 6 11 6.44772 11 7C11 7.55228 11.4477 8 12 8Z" fill="currentColor"/>
</symbol><symbol fill="none" id="sprite-icon-gui-link-arrow" viewBox="0 0 24 24"><title>sprite-icon-gui-link-arrow</title>
	<path fill-rule="evenodd" clip-rule="evenodd" d="M16.9979 11H4V13H16.9979L14 16.331L15.4866 17.6689L19.9866 12.6689V11.331L15.4866 6.33099L14 7.66892L16.9979 11Z" fill="currentColor"/>
</symbol><symbol fill="none" id="sprite-icon-gui-live-chat" viewBox="0 0 24 24"><title>sprite-icon-gui-live-chat</title>
<path fill-rule="evenodd" clip-rule="evenodd" d="M15 1C16.6569 1 18 2.34315 18 4V7H21C22.6569 7 24 8.34315 24 10V21.5057C24 22.5305 22.8347 23.1198 22.0092 22.5125L19.0718 20.3514H9C7.34315 20.3514 6 19.0082 6 17.3514V14.3514H4.92823L1.99078 16.5125C1.16534 17.1198 0 16.5305 0 15.5057V4C0 2.34315 1.34315 1 3 1H15ZM8 14.3514V17.3514C8 17.9036 8.44772 18.3514 9 18.3514H19.7282L22 20.0228V10C22 9.44772 21.5523 9 21 9H18V11.3514C18 13.0082 16.6569 14.3514 15 14.3514H8ZM16 9V11.3514C16 11.9036 15.5523 12.3514 15 12.3514H8V10C8 9.44772 8.44772 9 9 9H16ZM16 7H9C7.34315 7 6 8.34315 6 10V12.3514H4.27176L2 14.0228V4C2 3.44772 2.44771 3 3 3H15C15.5523 3 16 3.44772 16 4V7Z" fill="currentColor"/>
</symbol><symbol fill="none" id="sprite-icon-gui-minus" viewBox="0 0 24 24"><title>sprite-icon-gui-minus</title>
  <path fill-rule="evenodd" clip-rule="evenodd" d="M22 13H2V11H22V13Z" fill="currentColor"/>
</symbol><symbol fill="none" id="sprite-icon-gui-plus" viewBox="0 0 24 24"><title>sprite-icon-gui-plus</title>
	<path fill-rule="evenodd" clip-rule="evenodd" d="M11 13V22H13V13H22V11H13V2H11V11H2V13H11Z" fill="currentColor"/>
</symbol><symbol fill="none" id="sprite-icon-gui-quote-marks-solid" viewBox="0 0 24 24"><title>sprite-icon-gui-quote-marks-solid</title>
<path d="M8.72445 22H0V15.7188C0 13.1771 0.217335 11.1771 0.652005 9.71875C1.10737 8.23958 1.93532 6.91667 3.13583 5.75C4.33635 4.58333 5.86805 3.66667 7.73092 3L9.43855 6.625C7.69987 7.20833 6.44761 8.02083 5.68176 9.0625C4.93661 10.1042 4.54334 11.4896 4.50194 13.2188H8.72445V22ZM23.2859 22H14.5614V15.7188C14.5614 13.1562 14.7788 11.1458 15.2135 9.6875C15.6688 8.22917 16.4968 6.91667 17.6973 5.75C18.9185 4.58333 20.4502 3.66667 22.2924 3L24 6.625C22.2613 7.20833 21.0091 8.02083 20.2432 9.0625C19.4981 10.1042 19.1048 11.4896 19.0634 13.2188H23.2859V22Z" fill="currentColor"/>
</symbol><symbol fill="none" id="sprite-icon-gui-refresh" viewBox="0 0 24 24"><title>sprite-icon-gui-refresh</title>
<g clip-path="url(#clip0)">
<path fill-rule="evenodd" clip-rule="evenodd" d="M10.6508 0.240762C10.2315 -0.118661 9.60017 -0.0700991 9.24075 0.349227C8.88132 0.768553 8.92989 1.39985 9.34921 1.75927L10.8721 3.06461C5.91928 3.63496 2 7.90866 2 13C2 18.4723 6.52771 23 12 23C17.4723 23 22 18.4723 22 13C22 12.4477 21.5523 12 21 12C20.4477 12 20 12.4477 20 13C20 17.3677 16.3677 21 12 21C7.63228 21 4 17.3677 4 13C4 8.96189 7.10476 5.5524 11.025 5.06081L9.2929 6.79291C8.90237 7.18344 8.90237 7.8166 9.2929 8.20712C9.68342 8.59765 10.3166 8.59765 10.7071 8.20712L14.2071 4.70713C14.4041 4.51016 14.51 4.23998 14.4993 3.96164C14.4886 3.6833 14.3623 3.42204 14.1508 3.24076L10.6508 0.240762Z" fill="currentColor"/>
</g>
<defs>
<clipPath id="clip0">
<rect width="24" height="24" fill="currentColor"/>
</clipPath>
</defs>
</symbol><symbol fill="none" id="sprite-icon-gui-search" viewBox="0 0 24 24"><title>sprite-icon-gui-search</title>
	<path fill-rule="evenodd" clip-rule="evenodd" d="M17 10.5C17 14.0899 14.0899 17 10.5 17C6.91015 17 4 14.0899 4 10.5C4 6.91015 6.91015 4 10.5 4C14.0899 4 17 6.91015 17 10.5ZM15.7618 17.176C14.3145 18.3183 12.4869 19 10.5 19C5.80558 19 2 15.1944 2 10.5C2 5.80558 5.80558 2 10.5 2C15.1944 2 19 5.80558 19 10.5C19 12.4869 18.3183 14.3145 17.176 15.7618L22.7071 21.2929L21.2929 22.7071L15.7618 17.176Z" fill="currentColor"/>
</symbol><symbol fill="none" id="sprite-icon-gui-tick" viewBox="0 0 24 24"><title>sprite-icon-gui-tick</title>
	<path fill-rule="evenodd" clip-rule="evenodd" d="M18.8321 6.55471L10.8321 18.5547L9.21913 18.6247L5.21913 13.6247L6.78087 12.3753L9.92655 16.3074L17.1679 5.44531L18.8321 6.55471Z" fill="currentColor"/>
</symbol><symbol id="sprite-icon-gui-warning" viewBox="0 0 24 24"><title>sprite-icon-gui-warning</title>
	<path fill-rule="evenodd" clip-rule="evenodd" d="M10.2302 3.2156C10.98 1.79092 13.02 1.79093 13.7698 3.2156L22.1135 19.0685C22.8144 20.4003 21.8487 22 20.3436 22H3.65636C2.15134 22 1.18557 20.4003 1.88653 19.0685L10.2302 3.2156ZM12 4.14709L3.65637 20L20.3436 20L12 4.14709Z"/>
	<rect x="11" y="9" width="2" height="6"/>
	<rect x="11" y="16" width="2" height="2"/>
</symbol><symbol id="sprite-linkedin" viewBox="0 0 24 24"><title>sprite-linkedin</title>
<path d="M24 1.76471V22.2353C24 22.7033 23.8141 23.1522 23.4831 23.4831C23.1522 23.8141 22.7033 24 22.2353 24H1.76471C1.29668 24 0.847817 23.8141 0.51687 23.4831C0.185924 23.1522 0 22.7033 0 22.2353L0 1.76471C0 1.29668 0.185924 0.847817 0.51687 0.51687C0.847817 0.185924 1.29668 0 1.76471 0L22.2353 0C22.7033 0 23.1522 0.185924 23.4831 0.51687C23.8141 0.847817 24 1.29668 24 1.76471ZM7.05882 9.17647H3.52941V20.4706H7.05882V9.17647ZM7.37647 5.29412C7.37833 5.02715 7.32759 4.76242 7.22714 4.51506C7.12669 4.2677 6.9785 4.04255 6.79103 3.85246C6.60357 3.66237 6.38049 3.51107 6.13455 3.4072C5.88861 3.30332 5.62462 3.24891 5.35765 3.24706H5.29412C4.7512 3.24706 4.23053 3.46273 3.84663 3.84663C3.46273 4.23053 3.24706 4.7512 3.24706 5.29412C3.24706 5.83703 3.46273 6.35771 3.84663 6.74161C4.23053 7.1255 4.7512 7.34118 5.29412 7.34118C5.56111 7.34774 5.82678 7.30164 6.07594 7.2055C6.32511 7.10936 6.55289 6.96506 6.74627 6.78086C6.93965 6.59666 7.09484 6.37616 7.20297 6.13196C7.3111 5.88775 7.37006 5.62464 7.37647 5.35765V5.29412ZM20.4706 13.6094C20.4706 10.2141 18.3106 8.89412 16.1647 8.89412C15.4621 8.85894 14.7626 9.00858 14.1358 9.32814C13.5091 9.64769 12.9771 10.126 12.5929 10.7153H12.4941V9.17647H9.17647V20.4706H12.7059V14.4635C12.6549 13.8483 12.8487 13.2378 13.2452 12.7646C13.6417 12.2915 14.2089 11.9939 14.8235 11.9365H14.9576C16.08 11.9365 16.9129 12.6424 16.9129 14.4212V20.4706H20.4424L20.4706 13.6094Z"/>
</symbol><symbol id="sprite-quote" viewBox="0 0 25 19"><title>sprite-quote</title>
	<path d="M8.78125 19H0V12.7188C0 10.1771 0.21875 8.17708 0.65625 6.71875C1.11458 5.23958 1.94792 3.91667 3.15625 2.75C4.36458 1.58333 5.90625 0.666667 7.78125 0L9.5 3.625C7.75 4.20833 6.48958 5.02083 5.71875 6.0625C4.96875 7.10417 4.57292 8.48958 4.53125 10.2188H8.78125V19ZM23.4375 19H14.6562V12.7188C14.6562 10.1562 14.875 8.14583 15.3125 6.6875C15.7708 5.22917 16.6042 3.91667 17.8125 2.75C19.0417 1.58333 20.5833 0.666667 22.4375 0L24.1562 3.625C22.4062 4.20833 21.1458 5.02083 20.375 6.0625C19.625 7.10417 19.2292 8.48958 19.1875 10.2188H23.4375V19Z"/>
</symbol><symbol id="sprite-twitter" viewBox="0 0 24 20"><title>sprite-twitter</title>
<path d="M24 2.304C23.1129 2.7 22.1658 2.964 21.1708 3.084C22.1898 2.472 22.969 1.512 23.3287 0.36C22.3816 0.924 21.3267 1.332 20.1998 1.56C19.3007 0.6 18.03 0 16.6034 0C13.8821 0 11.6883 2.208 11.6883 4.92C11.6883 5.304 11.7363 5.676 11.8202 6.048C7.73227 5.844 4.11189 3.888 1.67832 0.9C1.25874 1.632 1.00699 2.472 1.00699 3.372C1.00699 5.076 1.87013 6.588 3.2008 7.476C2.3976 7.452 1.63037 7.224 0.971029 6.864C0.971029 6.888 0.971029 6.9 0.971029 6.924C0.971029 9.312 2.66134 11.304 4.91509 11.748C4.50749 11.856 4.06394 11.916 3.62038 11.916C3.30869 11.916 2.997 11.88 2.6973 11.832C3.32068 13.788 5.14286 15.216 7.28871 15.252C5.61039 16.572 3.48851 17.364 1.17483 17.364C0.779221 17.364 0.383616 17.34 0 17.292C2.18182 18.684 4.75924 19.5 7.54046 19.5C16.5914 19.5 21.5305 12 21.5305 5.496C21.5305 5.28 21.5305 5.076 21.5185 4.86C22.5015 4.164 23.3407 3.3 24 2.304Z"/>
</symbol></svg>