<svg width="0" height="0" style="position:absolute"><defs><linearGradient id="aaba" x1="74" y1="4" x2="74" y2="104" gradientUnits="userSpaceOnUse"><stop stop-color="#FF5416"/><stop offset="1" stop-color="#FF2739"/></linearGradient><linearGradient id="aada" x1="64" y1="26.421" x2="64" y2="111.391" gradientUnits="userSpaceOnUse"><stop stop-color="#FF5416"/><stop offset="1" stop-color="#FF2739"/></linearGradient><linearGradient id="aafa" x1="64" y1="29.85" x2="64" y2="109.883" gradientUnits="userSpaceOnUse"><stop stop-color="#FF5416"/><stop offset="1" stop-color="#FF2739"/></linearGradient><linearGradient id="aaia" x1="64" y1="27.103" x2="64" y2="110.608" gradientUnits="userSpaceOnUse"><stop stop-color="#FF5416"/><stop offset="1" stop-color="#FF2739"/></linearGradient><linearGradient id="aaga" x1="64" y1="27.103" x2="64" y2="110.608" gradientUnits="userSpaceOnUse"><stop stop-color="#FF5416"/><stop offset="1" stop-color="#FF2739"/></linearGradient><linearGradient id="aaka" x1="64" y1="101.232" x2="64" y2="16.969" gradientUnits="userSpaceOnUse"><stop stop-color="#FF5416"/><stop offset="1" stop-color="#FF2739"/></linearGradient><linearGradient id="aaoa" x1="64" y1="27.434" x2="64" y2="110.189" gradientUnits="userSpaceOnUse"><stop stop-color="#FF5416"/><stop offset="1" stop-color="#FF2739"/></linearGradient><linearGradient id="aaqa" x1="65.785" y1="31.716" x2="65.785" y2="108.821" gradientUnits="userSpaceOnUse"><stop stop-color="#FF5416"/><stop offset="1" stop-color="#FF2739"/></linearGradient></defs><symbol fill="none" viewBox="0 0 128 128" id="sprite-icon-product-ai-transport" xmlns="http://www.w3.org/2000/svg"><path fill-rule="evenodd" clip-rule="evenodd" d="M74 4a5 5 0 0 1 4.808 3.626l5.42 18.975a25 25 0 0 0 17.171 17.17l18.975 5.421a5 5 0 0 1 0 9.616l-18.975 5.42A25 25 0 0 0 84.229 81.4l-5.421 18.975a5 5 0 0 1-9.616 0l-5.42-18.975A25 25 0 0 0 46.6 64.229l-18.975-5.421a5 5 0 0 1 0-9.616l18.975-5.42A25 25 0 0 0 63.771 26.6l5.421-18.975A5 5 0 0 1 74 4Z" fill="url(#aaba)"/><path d="m47 95-26 26M31 84 17 98" stroke="url(#aaba)" stroke-width="6" stroke-linecap="round" stroke-linejoin="round"/></symbol><symbol fill="none" viewBox="0 0 128 128" id="sprite-icon-product-ai-transport-mono" xmlns="http://www.w3.org/2000/svg"><path clip-rule="evenodd" d="M74 4a5 5 0 0 1 4.808 3.626l5.42 18.975a25 25 0 0 0 17.171 17.17l18.975 5.421a5 5 0 0 1 0 9.616l-18.975 5.42A25 25 0 0 0 84.229 81.4l-5.421 18.975a5 5 0 0 1-9.616 0l-5.42-18.975A25 25 0 0 0 46.6 64.229l-18.975-5.421a5 5 0 0 1 0-9.616l18.975-5.42A25 25 0 0 0 63.771 26.6l5.421-18.975A5 5 0 0 1 74 4Z" stroke="currentColor" stroke-width="6" stroke-linecap="round" stroke-linejoin="round"/><path d="m47 95-26 26M31 84 17 98" stroke="currentColor" stroke-width="6" stroke-linecap="round" stroke-linejoin="round"/></symbol><symbol fill="none" viewBox="0 0 128 128" id="sprite-icon-product-asset-tracking" xmlns="http://www.w3.org/2000/svg"><path fill-rule="evenodd" clip-rule="evenodd" d="M72.208 116.222C85.188 101.747 109 72.533 109 53c0-24.853-20.147-45-45-45S19 28.147 19 53c0 19.533 23.811 48.747 36.792 63.222 4.435 4.945 11.98 4.945 16.416 0ZM64 71c9.941 0 18-8.059 18-18s-8.059-18-18-18-18 8.059-18 18 8.059 18 18 18Z" fill="url(#aada)"/></symbol><symbol fill="none" viewBox="0 0 128 128" id="sprite-icon-product-asset-tracking-mono" xmlns="http://www.w3.org/2000/svg"><path d="m72.208 116.222-1.861-1.669 1.86 1.669Zm-16.416 0-1.86 1.669 1.86-1.669ZM106.5 53c0 4.412-1.355 9.548-3.723 15.103-2.358 5.532-5.658 11.333-9.396 17.034-7.477 11.404-16.582 22.22-23.034 29.416l3.722 3.338c6.528-7.28 15.82-18.308 23.493-30.013 3.838-5.852 7.302-11.922 9.814-17.814 2.502-5.868 4.124-11.71 4.124-17.064h-5ZM64 10.5c23.472 0 42.5 19.028 42.5 42.5h5c0-26.233-21.266-47.5-47.5-47.5v5ZM21.5 53c0-23.472 19.028-42.5 42.5-42.5v-5C37.767 5.5 16.5 26.767 16.5 53h5Zm36.154 61.553c-6.453-7.196-15.558-18.012-23.035-29.416-3.738-5.701-7.038-11.502-9.396-17.034C22.855 62.548 21.5 57.413 21.5 53h-5c0 5.355 1.622 11.196 4.124 17.064 2.512 5.892 5.976 11.962 9.814 17.815 7.674 11.704 16.965 22.732 23.493 30.012l3.723-3.338Zm12.693 0c-3.442 3.837-9.252 3.837-12.693 0l-3.723 3.338c5.429 6.053 14.71 6.053 20.138 0l-3.722-3.338ZM79.5 53c0 8.56-6.94 15.5-15.5 15.5v5c11.322 0 20.5-9.178 20.5-20.5h-5ZM64 37.5c8.56 0 15.5 6.94 15.5 15.5h5c0-11.322-9.178-20.5-20.5-20.5v5ZM48.5 53c0-8.56 6.94-15.5 15.5-15.5v-5c-11.322 0-20.5 9.178-20.5 20.5h5ZM64 68.5c-8.56 0-15.5-6.94-15.5-15.5h-5c0 11.322 9.178 20.5 20.5 20.5v-5Z" fill="currentColor"/></symbol><symbol fill="none" viewBox="0 0 128 128" id="sprite-icon-product-chat" xmlns="http://www.w3.org/2000/svg"><path fill-rule="evenodd" clip-rule="evenodd" d="M11.5 35c0-12.426 10.074-22.5 22.5-22.5h60c12.426 0 22.5 10.074 22.5 22.5v74.41c0 7.385-8.77 11.257-14.227 6.281l-22.812-20.8a1.5 1.5 0 0 0-1.01-.391H34c-12.426 0-22.5-10.074-22.5-22.5V35Z" fill="url(#aafa)"/></symbol><symbol fill="none" viewBox="0 0 128 128" id="sprite-icon-product-chat-mono" xmlns="http://www.w3.org/2000/svg"><path d="M38 11h52c13.255 0 24 10.745 24 24v70.41c0 5.213-6.19 7.946-10.043 4.434l-22.812-20.8A4 4 0 0 0 78.45 88H38c-13.255 0-24-10.745-24-24V35c0-13.255 10.745-24 24-24Z" stroke="currentColor" stroke-width="6"/></symbol><symbol fill="none" viewBox="0 0 128 128" id="sprite-icon-product-liveobjects" xmlns="http://www.w3.org/2000/svg"><rect x="9" y="9" width="110" height="110" rx="26" fill="url(#aaia)"/><path d="m43 66 17 17 26-38" stroke="#fff" stroke-width="5" stroke-linecap="round" stroke-linejoin="round"/></symbol><symbol fill="none" viewBox="0 0 128 128" id="sprite-icon-product-liveobjects-dark" xmlns="http://www.w3.org/2000/svg"><rect x="9" y="9" width="110" height="110" rx="26" fill="url(#aaga)"/><path d="m43 66 17 17 26-38" stroke="#03020D" stroke-width="5" stroke-linecap="round" stroke-linejoin="round"/></symbol><symbol fill="none" viewBox="0 0 128 128" id="sprite-icon-product-liveobjects-mono" xmlns="http://www.w3.org/2000/svg"><g stroke="currentColor" stroke-linecap="round" stroke-width="6"><path d="M76 11h17c13.255 0 24 10.745 24 24v17M52 11H35c-13.255 0-24 10.745-24 24v17m0 24v17c0 13.255 10.745 24 24 24h17m65-41v17c0 13.255-10.745 24-24 24H76"/><path d="m43 66 17 17 26-38" stroke-linejoin="round"/></g></symbol><symbol fill="none" viewBox="0 0 128 128" id="sprite-icon-product-livesync" xmlns="http://www.w3.org/2000/svg"><path fill-rule="evenodd" clip-rule="evenodd" d="M13.5 52a2.5 2.5 0 0 0-5 0v25c0 23.472 19.028 42.5 42.5 42.5h64.029c3.353 0 4.787-4.26 2.117-6.288l-50.03-37.985c-2.304-1.75-5.616-.106-5.616 2.788V114.5H51c-20.71 0-37.5-16.79-37.5-37.5V52Zm53-2.015c0 2.894-3.312 4.538-5.617 2.788L10.854 14.788C8.184 12.76 9.618 8.5 12.971 8.5H77c23.472 0 42.5 19.028 42.5 42.5v25a2.5 2.5 0 1 1-5 0V51c0-20.71-16.79-37.5-37.5-37.5H66.5v36.485Z" fill="url(#aaka)"/></symbol><symbol fill="none" viewBox="0 0 128 128" id="sprite-icon-product-livesync-mono" xmlns="http://www.w3.org/2000/svg"><path d="M115.029 117H64V78.015a1 1 0 0 1 1.605-.797l50.029 37.986c.763.579.353 1.796-.605 1.796ZM11 52v25c0 22.091 17.909 40 40 40h13M12.97 11H64v38.985a1 1 0 0 1-1.605.797L12.366 12.797c-.763-.58-.353-1.797.605-1.797ZM117 76V51c0-22.091-17.909-40-40-40H64" stroke="currentColor" stroke-width="6" stroke-linecap="round"/></symbol><symbol fill="none" viewBox="0 0 20 20" id="sprite-icon-product-platform" xmlns="http://www.w3.org/2000/svg"><path d="M9.703 1.325a.625.625 0 0 1 .594 0L18.422 5.7a.624.624 0 0 1 0 1.1l-8.126 4.375a.625.625 0 0 1-.593 0L1.578 6.8a.625.625 0 0 1 0-1.1l8.125-4.375Z" fill="#ff5416"/><path d="m2.72 8.835 6.39 3.44a1.875 1.875 0 0 0 1.78 0l6.39-3.44 1.14.615a.625.625 0 0 1 0 1.1l-8.124 4.375a.626.626 0 0 1-.592 0L1.58 10.55a.626.626 0 0 1 0-1.1l1.142-.615Z" fill="#ff5416"/><path d="m9.11 16.026-6.39-3.442-1.14.616a.625.625 0 0 0 0 1.1l8.124 4.375c.184.1.408.1.592 0L18.42 14.3a.626.626 0 0 0 0-1.1l-1.142-.615-6.39 3.442a1.875 1.875 0 0 1-1.778-.001Z" fill="#ff5416"/></symbol><symbol fill="none" viewBox="0 0 20 20" id="sprite-icon-product-platform-mono" xmlns="http://www.w3.org/2000/svg"><path d="M5.357 8.125 1.875 10l3.482 1.875m0-3.75 4.643 2.5 4.643-2.5m-9.286 0L1.875 6.25 10 1.875l8.125 4.375-3.482 1.875m-9.286 3.75L1.875 13.75 10 18.125l8.125-4.375-3.482-1.875m-9.286 0 4.643 2.5 4.643-2.5m0-3.75L18.125 10l-3.482 1.875" stroke="currentColor" stroke-linecap="round" stroke-linejoin="round"/></symbol><symbol fill="none" viewBox="0 0 128 128" id="sprite-icon-product-pubsub" xmlns="http://www.w3.org/2000/svg"><path fill-rule="evenodd" clip-rule="evenodd" d="M54.48 12.572c3.453-5.551 12.02-3.105 12.02 3.433V41.5h41.302c5.099 0 8.212 5.603 5.519 9.933L73.52 115.428c-3.453 5.551-12.02 3.105-12.02-3.433V86.5H20.198c-5.099 0-8.212-5.603-5.52-9.933L54.48 12.572Z" fill="url(#aaoa)"/></symbol><symbol fill="none" viewBox="0 0 128 128" id="sprite-icon-product-pubsub-mono" xmlns="http://www.w3.org/2000/svg"><path d="M56.604 13.893 16.802 77.888C15.145 80.552 17.061 84 20.2 84H62a2 2 0 0 1 2 2v25.995c0 4.023 5.272 5.529 7.397 2.112l39.802-63.995c1.657-2.664-.259-6.112-3.397-6.112H66a2 2 0 0 1-2-2V16.005c0-4.023-5.271-5.529-7.396-2.112Z" stroke="currentColor" stroke-width="6"/></symbol><symbol fill="none" viewBox="0 0 128 128" id="sprite-icon-product-spaces" xmlns="http://www.w3.org/2000/svg"><path d="M15.318 25.777c-1.762-6.366 4.093-12.221 10.46-10.46l84.559 23.406c7.856 2.174 8.443 13.088.866 16.093L73.036 69.951a5.5 5.5 0 0 0-3.085 3.085l-15.135 38.167c-3.005 7.577-13.919 6.99-16.093-.866l-23.405-84.56Z" fill="url(#aaqa)"/></symbol><symbol fill="none" viewBox="0 0 128 128" id="sprite-icon-product-spaces-mono" xmlns="http://www.w3.org/2000/svg"><path d="m41.23 109.769-23.404-84.56c-1.244-4.494 2.889-8.627 7.383-7.383l84.56 23.405c5.545 1.535 5.96 9.239.611 11.36L72.213 67.726a8 8 0 0 0-4.487 4.487L52.59 110.38c-2.121 5.349-9.825 4.934-11.36-.611Z" stroke="currentColor" stroke-width="6"/></symbol></svg>