<svg width="0" height="0" style="position:absolute"><defs><clipPath id="aada"><path fill="#fff" d="M0 0h24v24H0z"/></clipPath><clipPath id="aaca"><path fill="#fff" d="M0 0h24v24H0z"/></clipPath></defs><symbol fill="none" viewBox="0 0 24 24" id="sprite-icon-social-discord" xmlns="http://www.w3.org/2000/svg"><path d="M20.317 4.607a19.546 19.546 0 0 0-4.885-1.542.074.074 0 0 0-.079.038c-.21.382-.444.88-.608 1.271a17.963 17.963 0 0 0-5.487 0c-.163-.4-.406-.89-.617-1.271a.077.077 0 0 0-.079-.038c-1.714.3-3.354.827-4.885 1.542a.07.07 0 0 0-.032.028C.533 9.364-.32 13.976.099 18.532a.084.084 0 0 0 .031.057 19.771 19.771 0 0 0 5.993 3.082.077.077 0 0 0 .084-.028c.462-.642.874-1.318 1.226-2.03a.078.078 0 0 0-.041-.107A13.006 13.006 0 0 1 5.52 18.6a.079.079 0 0 1-.008-.13c.126-.096.252-.196.372-.297a.073.073 0 0 1 .078-.01c3.927 1.824 8.18 1.824 12.061 0a.073.073 0 0 1 .079.01c.12.1.245.2.372.297a.079.079 0 0 1-.006.13c-.598.355-1.22.655-1.873.906a.078.078 0 0 0-.041.109c.36.71.772 1.386 1.225 2.028a.075.075 0 0 0 .084.029 19.705 19.705 0 0 0 6.002-3.082.079.079 0 0 0 .032-.056c.5-5.267-.838-9.842-3.549-13.897a.061.061 0 0 0-.031-.03ZM8.02 15.757c-1.182 0-2.157-1.104-2.157-2.46 0-1.356.956-2.46 2.157-2.46 1.21 0 2.176 1.113 2.157 2.46 0 1.356-.956 2.46-2.157 2.46Zm7.975 0c-1.183 0-2.157-1.104-2.157-2.46 0-1.356.955-2.46 2.157-2.46 1.21 0 2.176 1.113 2.157 2.46 0 1.356-.946 2.46-2.157 2.46Z" fill="#5B64EA"/></symbol><symbol fill="none" viewBox="0 0 24 24" id="sprite-icon-social-discord-mono" xmlns="http://www.w3.org/2000/svg"><path d="M20.317 4.607a19.546 19.546 0 0 0-4.885-1.542.074.074 0 0 0-.079.038c-.21.382-.444.88-.608 1.271a17.963 17.963 0 0 0-5.487 0c-.163-.4-.406-.89-.617-1.271a.077.077 0 0 0-.079-.038c-1.714.3-3.354.827-4.885 1.542a.07.07 0 0 0-.032.028C.533 9.364-.32 13.976.099 18.532a.084.084 0 0 0 .031.057 19.771 19.771 0 0 0 5.993 3.082.077.077 0 0 0 .084-.028c.462-.642.874-1.318 1.226-2.03a.078.078 0 0 0-.041-.107A13.006 13.006 0 0 1 5.52 18.6a.079.079 0 0 1-.008-.13c.126-.096.252-.196.372-.297a.073.073 0 0 1 .078-.01c3.927 1.824 8.18 1.824 12.061 0a.073.073 0 0 1 .079.01c.12.1.245.2.372.297a.079.079 0 0 1-.006.13c-.598.355-1.22.655-1.873.906a.078.078 0 0 0-.041.109c.36.71.772 1.386 1.225 2.028a.075.075 0 0 0 .084.029 19.705 19.705 0 0 0 6.002-3.082.079.079 0 0 0 .032-.056c.5-5.267-.838-9.842-3.549-13.897a.061.061 0 0 0-.031-.03ZM8.02 15.757c-1.182 0-2.157-1.104-2.157-2.46 0-1.356.956-2.46 2.157-2.46 1.21 0 2.176 1.113 2.157 2.46 0 1.356-.956 2.46-2.157 2.46Zm7.975 0c-1.183 0-2.157-1.104-2.157-2.46 0-1.356.955-2.46 2.157-2.46 1.21 0 2.176 1.113 2.157 2.46 0 1.356-.946 2.46-2.157 2.46Z" fill="currentColor"/></symbol><symbol fill="none" viewBox="0 0 24 24" id="sprite-icon-social-facebook" xmlns="http://www.w3.org/2000/svg"><g clip-path="url(#aada)"><path d="M24 12c0-6.627-5.373-12-12-12S0 5.373 0 12c0 5.628 3.875 10.35 9.101 11.647v-7.98H6.627V12H9.1v-1.58c0-4.084 1.849-5.978 5.859-5.978.76 0 2.072.15 2.608.298v3.324c-.283-.03-.775-.044-1.386-.044-1.967 0-2.728.745-2.728 2.683V12h3.92l-.673 3.667h-3.247v8.245C19.396 23.195 24 18.135 24 12Z" fill="#0866FF"/><path d="M16.7 15.667 17.374 12h-3.92v-1.297c0-1.938.76-2.683 2.728-2.683.61 0 1.103.015 1.386.044V4.74c-.537-.149-1.849-.298-2.609-.298-4.01 0-5.858 1.893-5.858 5.978V12H6.626v3.667h2.475v7.98a12.021 12.021 0 0 0 4.352.265v-8.245H16.7Z" fill="#fff"/></g></symbol><symbol fill="none" viewBox="0 0 24 24" id="sprite-icon-social-facebook-mono" xmlns="http://www.w3.org/2000/svg"><g clip-path="url(#aaca)"><path d="M24 12c0-6.627-5.373-12-12-12S0 5.373 0 12c0 5.628 3.875 10.35 9.101 11.647v-7.98H6.627V12H9.1v-1.58c0-4.084 1.849-5.978 5.859-5.978.76 0 2.072.15 2.608.298v3.324c-.283-.03-.775-.044-1.386-.044-1.967 0-2.728.745-2.728 2.683V12h3.92l-.673 3.667h-3.247v8.245C19.396 23.195 24 18.135 24 12Z" fill="currentColor"/><path d="M16.7 15.667 17.374 12h-3.92v-1.297c0-1.938.76-2.683 2.728-2.683.61 0 1.103.015 1.386.044V4.74c-.537-.149-1.849-.298-2.609-.298-4.01 0-5.858 1.893-5.858 5.978V12H6.626v3.667h2.475v7.98a12.021 12.021 0 0 0 4.352.265v-8.245H16.7Z" fill="#fff"/></g></symbol><symbol fill="none" viewBox="0 0 24 24" id="sprite-icon-social-github" xmlns="http://www.w3.org/2000/svg"><path fill-rule="evenodd" clip-rule="evenodd" d="M12 0C5.4 0 0 5.42 0 12.043c0 5.32 3.4 9.835 8.2 11.441.6.1.8-.3.8-.602v-2.007c-3.3.702-4-1.606-4-1.606-.5-1.405-1.3-1.806-1.3-1.806-1.1-.703.1-.703.1-.703 1.2.1 1.8 1.204 1.8 1.204 1.1 1.807 2.8 1.305 3.5 1.004.1-.803.4-1.305.8-1.606-2.8-.3-5.6-1.304-5.6-5.92 0-1.306.5-2.41 1.2-3.212 0-.402-.5-1.606.2-3.212 0 0 1-.301 3.3 1.204 1-.3 2-.401 3-.401s2 .1 3 .401c2.3-1.505 3.3-1.204 3.3-1.204.7 1.706.2 2.91.1 3.212.8.802 1.2 1.906 1.2 3.211 0 4.617-2.8 5.62-5.5 5.921.4.402.8 1.104.8 2.208v3.312c0 .301.2.703.8.602 4.9-1.606 8.3-6.122 8.3-11.44C24 5.418 18.6 0 12 0Z" fill="#191717"/></symbol><symbol fill="none" viewBox="0 0 24 24" id="sprite-icon-social-github-mono" xmlns="http://www.w3.org/2000/svg"><path fill-rule="evenodd" clip-rule="evenodd" d="M12 0C5.4 0 0 5.42 0 12.043c0 5.32 3.4 9.835 8.2 11.441.6.1.8-.3.8-.602v-2.007c-3.3.702-4-1.606-4-1.606-.5-1.405-1.3-1.806-1.3-1.806-1.1-.703.1-.703.1-.703 1.2.1 1.8 1.204 1.8 1.204 1.1 1.807 2.8 1.305 3.5 1.004.1-.803.4-1.305.8-1.606-2.8-.3-5.6-1.304-5.6-5.92 0-1.306.5-2.41 1.2-3.212 0-.402-.5-1.606.2-3.212 0 0 1-.301 3.3 1.204 1-.3 2-.401 3-.401s2 .1 3 .401c2.3-1.505 3.3-1.204 3.3-1.204.7 1.706.2 2.91.1 3.212.8.802 1.2 1.906 1.2 3.211 0 4.617-2.8 5.62-5.5 5.921.4.402.8 1.104.8 2.208v3.312c0 .301.2.703.8.602 4.9-1.606 8.3-6.122 8.3-11.44C24 5.418 18.6 0 12 0Z" fill="currentColor"/></symbol><symbol fill="none" viewBox="0 0 24 24" id="sprite-icon-social-glassdoor" xmlns="http://www.w3.org/2000/svg"><path d="M17.122 20.573H3.5A3.414 3.414 0 0 0 6.906 24h10.216c1.88 0 3.403-1.536 3.403-3.427V6.495c0-.068-.054-.129-.122-.129h-3.16a.124.124 0 0 0-.121.125v14.082Zm0-20.573c1.88 0 3.403 1.536 3.403 3.43H6.906v14.079a.127.127 0 0 1-.125.125H3.625a.127.127 0 0 1-.125-.125V3.43C3.5 1.536 5.022 0 6.906 0h10.216Z" fill="#0BAA41"/></symbol><symbol fill="none" viewBox="0 0 24 24" id="sprite-icon-social-glassdoor-mono" xmlns="http://www.w3.org/2000/svg"><path d="M17.122 20.573H3.5A3.414 3.414 0 0 0 6.906 24h10.216c1.88 0 3.403-1.536 3.403-3.427V6.495c0-.068-.054-.129-.122-.129h-3.16a.124.124 0 0 0-.121.125v14.082Zm0-20.573c1.88 0 3.403 1.536 3.403 3.43H6.906v14.079a.127.127 0 0 1-.125.125H3.625a.127.127 0 0 1-.125-.125V3.43C3.5 1.536 5.022 0 6.906 0h10.216Z" fill="currentColor"/></symbol><symbol viewBox="0 0 24 24" id="sprite-icon-social-google" xmlns="http://www.w3.org/2000/svg"><path d="M22.56 12.25c0-.78-.07-1.53-.2-2.25H12v4.26h5.92c-.26 1.37-1.04 2.53-2.21 3.31v2.77h3.57c2.08-1.92 3.28-4.74 3.28-8.09z" fill="#4285F4"/><path d="M12 23c2.97 0 5.46-.98 7.28-2.66l-3.57-2.77c-.98.66-2.23 1.06-3.71 1.06-2.86 0-5.29-1.93-6.16-4.53H2.18v2.84C3.99 20.53 7.7 23 12 23z" fill="#34A853"/><path d="M5.84 14.09c-.22-.66-.35-1.36-.35-2.09s.13-1.43.35-2.09V7.07H2.18C1.43 8.55 1 10.22 1 12s.43 3.45 1.18 4.93l2.85-2.22.81-.62z" fill="#FBBC05"/><path d="M12 5.38c1.62 0 3.06.56 4.21 1.64l3.15-3.15C17.45 2.09 14.97 1 12 1 7.7 1 3.99 3.47 2.18 7.07l3.66 2.84c.87-2.6 3.3-4.53 6.16-4.53z" fill="#EA4335"/><path d="M1 1h22v22H1z" fill="none"/></symbol><symbol viewBox="0 0 24 24" id="sprite-icon-social-google-mono" xmlns="http://www.w3.org/2000/svg"><path d="M22.56 12.25c0-.78-.07-1.53-.2-2.25H12v4.26h5.92c-.26 1.37-1.04 2.53-2.21 3.31v2.77h3.57c2.08-1.92 3.28-4.74 3.28-8.09z" fill="currentColor"/><path d="M12 23c2.97 0 5.46-.98 7.28-2.66l-3.57-2.77c-.98.66-2.23 1.06-3.71 1.06-2.86 0-5.29-1.93-6.16-4.53H2.18v2.84C3.99 20.53 7.7 23 12 23z" fill="currentColor"/><path d="M5.84 14.09c-.22-.66-.35-1.36-.35-2.09s.13-1.43.35-2.09V7.07H2.18C1.43 8.55 1 10.22 1 12s.43 3.45 1.18 4.93l2.85-2.22.81-.62z" fill="currentColor"/><path d="M12 5.38c1.62 0 3.06.56 4.21 1.64l3.15-3.15C17.45 2.09 14.97 1 12 1 7.7 1 3.99 3.47 2.18 7.07l3.66 2.84c.87-2.6 3.3-4.53 6.16-4.53z" fill="currentColor"/><path d="M1 1h22v22H1z" fill="none"/></symbol><symbol fill="none" viewBox="0 0 24 24" id="sprite-icon-social-linkedin" xmlns="http://www.w3.org/2000/svg"><path d="M24 1.765v20.47A1.764 1.764 0 0 1 22.235 24H1.765A1.765 1.765 0 0 1 0 22.235V1.765A1.765 1.765 0 0 1 1.765 0h20.47A1.765 1.765 0 0 1 24 1.765ZM7.059 9.176h-3.53v11.295h3.53V9.176Zm.317-3.882a2.033 2.033 0 0 0-2.018-2.047h-.064a2.047 2.047 0 1 0 0 4.094 2.033 2.033 0 0 0 2.082-1.983v-.064Zm13.095 8.315c0-3.395-2.16-4.715-4.306-4.715a4.024 4.024 0 0 0-3.572 1.821h-.099V9.176H9.176v11.295h3.53v-6.008a2.344 2.344 0 0 1 2.117-2.526h.135c1.122 0 1.955.705 1.955 2.484v6.05h3.53l.028-6.862Z" fill="#1269BF"/></symbol><symbol fill="none" viewBox="0 0 24 24" id="sprite-icon-social-linkedin-mono" xmlns="http://www.w3.org/2000/svg"><path d="M24 1.765v20.47A1.764 1.764 0 0 1 22.235 24H1.765A1.765 1.765 0 0 1 0 22.235V1.765A1.765 1.765 0 0 1 1.765 0h20.47A1.765 1.765 0 0 1 24 1.765ZM7.059 9.176h-3.53v11.295h3.53V9.176Zm.317-3.882a2.033 2.033 0 0 0-2.018-2.047h-.064a2.047 2.047 0 1 0 0 4.094 2.033 2.033 0 0 0 2.082-1.983v-.064Zm13.095 8.315c0-3.395-2.16-4.715-4.306-4.715a4.024 4.024 0 0 0-3.572 1.821h-.099V9.176H9.176v11.295h3.53v-6.008a2.344 2.344 0 0 1 2.117-2.526h.135c1.122 0 1.955.705 1.955 2.484v6.05h3.53l.028-6.862Z" fill="currentColor"/></symbol><symbol fill="none" viewBox="0 0 24 24" id="sprite-icon-social-slack" xmlns="http://www.w3.org/2000/svg"><path d="M8.8 0a2.4 2.4 0 0 0 0 4.8h2.4V2.4c0-.636-.252-1.246-.702-1.696A2.405 2.405 0 0 0 8.8 0Zm0 6.4H2.4a2.4 2.4 0 0 0 0 4.8h6.4a2.4 2.4 0 0 0 0-4.8Z" fill="#36C5F0"/><path d="M24 8.8a2.4 2.4 0 0 0-4.8 0v2.4h2.4A2.405 2.405 0 0 0 24 8.8Zm-6.4 0V2.4c0-.636-.252-1.246-.702-1.696A2.4 2.4 0 0 0 12.8 2.4v6.4a2.4 2.4 0 1 0 4.8 0Z" fill="#2EB67D"/><path d="M15.2 24c.637 0 1.248-.254 1.698-.704a2.395 2.395 0 0 0 0-3.392A2.405 2.405 0 0 0 15.2 19.2h-2.4v2.4a2.4 2.4 0 0 0 2.4 2.4Zm0-6.4h6.4a2.4 2.4 0 0 0 0-4.8h-6.4a2.4 2.4 0 0 0 0 4.8Z" fill="#ECB22E"/><path d="M0 15.2a2.394 2.394 0 0 0 1.48 2.216 2.405 2.405 0 0 0 2.617-.52c.451-.45.704-1.06.703-1.696v-2.4H2.4A2.4 2.4 0 0 0 0 15.2Zm6.4 0v6.4a2.4 2.4 0 1 0 4.8 0v-6.4a2.395 2.395 0 0 0-1.481-2.217 2.4 2.4 0 0 0-3.32 2.217Z" fill="#E01E5A"/></symbol><symbol fill="none" viewBox="0 0 24 24" id="sprite-icon-social-slack-mono" xmlns="http://www.w3.org/2000/svg"><path d="M8.8 0a2.4 2.4 0 0 0 0 4.8h2.4V2.4c0-.636-.252-1.246-.702-1.696A2.405 2.405 0 0 0 8.8 0Zm0 6.4H2.4a2.4 2.4 0 0 0 0 4.8h6.4a2.4 2.4 0 0 0 0-4.8ZM24 8.8a2.4 2.4 0 0 0-4.8 0v2.4h2.4A2.405 2.405 0 0 0 24 8.8Zm-6.4 0V2.4c0-.636-.252-1.246-.702-1.696A2.4 2.4 0 0 0 12.8 2.4v6.4a2.4 2.4 0 1 0 4.8 0ZM15.2 24c.637 0 1.248-.254 1.698-.704a2.395 2.395 0 0 0 0-3.392A2.405 2.405 0 0 0 15.2 19.2h-2.4v2.4a2.4 2.4 0 0 0 2.4 2.4Zm0-6.4h6.4a2.4 2.4 0 0 0 0-4.8h-6.4a2.4 2.4 0 0 0 0 4.8ZM0 15.2a2.394 2.394 0 0 0 1.48 2.216 2.405 2.405 0 0 0 2.617-.52c.451-.45.704-1.06.703-1.696v-2.4H2.4A2.4 2.4 0 0 0 0 15.2Zm6.4 0v6.4a2.4 2.4 0 1 0 4.8 0v-6.4a2.395 2.395 0 0 0-1.481-2.217 2.4 2.4 0 0 0-3.32 2.217Z" fill="currentColor"/></symbol><symbol fill="none" viewBox="0 0 24 24" id="sprite-icon-social-stackoverflow" xmlns="http://www.w3.org/2000/svg"><path fill-rule="evenodd" clip-rule="evenodd" d="M19.01 15.47h2.126V24H2v-8.53h2.126v6.397H19.01V15.47Z" fill="#BBB"/><path d="m6.446 14.83 10.437 2.21.445-2.093-10.438-2.21-.444 2.093ZM7.818 9.83l9.665 4.517.908-1.939L8.727 7.89 7.818 9.83Zm2.687-4.77 8.195 6.844 1.373-1.648-8.196-6.843-1.372 1.648ZM15.8 0l-1.72 1.28 6.359 8.588 1.72-1.28L15.8 0ZM6.252 19.735h10.631v-2.132H6.253v2.132Z" fill="#F58025"/></symbol><symbol fill="none" viewBox="0 0 24 24" id="sprite-icon-social-stackoverflow-mono" xmlns="http://www.w3.org/2000/svg"><path fill-rule="evenodd" clip-rule="evenodd" d="M19.01 15.47h2.126V24H2v-8.53h2.126v6.397H19.01V15.47Z" fill="currentColor"/><path d="m6.446 14.83 10.437 2.21.445-2.093-10.438-2.21-.444 2.093ZM7.818 9.83l9.665 4.517.908-1.939L8.727 7.89 7.818 9.83Zm2.687-4.77 8.195 6.844 1.373-1.648-8.196-6.843-1.372 1.648ZM15.8 0l-1.72 1.28 6.359 8.588 1.72-1.28L15.8 0ZM6.252 19.735h10.631v-2.132H6.253v2.132Z" fill="currentColor"/></symbol><symbol fill="none" viewBox="0 0 24 24" id="sprite-icon-social-twitter" xmlns="http://www.w3.org/2000/svg"><path d="M24 4.396a9.636 9.636 0 0 1-2.83.796A4.971 4.971 0 0 0 23.33 2.41a9.846 9.846 0 0 1-3.13 1.226 4.853 4.853 0 0 0-3.596-1.593c-2.72 0-4.915 2.255-4.915 5.024 0 .392.048.772.132 1.152-4.088-.208-7.708-2.206-10.142-5.257a5.143 5.143 0 0 0-.671 2.524c0 1.74.863 3.285 2.194 4.192a4.91 4.91 0 0 1-2.23-.625v.06c0 2.44 1.69 4.474 3.944 4.928-.408.11-.851.171-1.295.171a5.75 5.75 0 0 1-.923-.086c.624 1.998 2.446 3.456 4.592 3.493A9.725 9.725 0 0 1 0 19.703a13.747 13.747 0 0 0 7.54 2.254c9.051 0 13.99-7.66 13.99-14.302 0-.22 0-.428-.012-.649A9.785 9.785 0 0 0 24 4.396Z" fill="#2CAAE1"/></symbol><symbol fill="none" viewBox="0 0 24 24" id="sprite-icon-social-twitter-mono" xmlns="http://www.w3.org/2000/svg"><path d="M24 4.396a9.636 9.636 0 0 1-2.83.796A4.971 4.971 0 0 0 23.33 2.41a9.846 9.846 0 0 1-3.13 1.226 4.853 4.853 0 0 0-3.596-1.593c-2.72 0-4.915 2.255-4.915 5.024 0 .392.048.772.132 1.152-4.088-.208-7.708-2.206-10.142-5.257a5.143 5.143 0 0 0-.671 2.524c0 1.74.863 3.285 2.194 4.192a4.91 4.91 0 0 1-2.23-.625v.06c0 2.44 1.69 4.474 3.944 4.928-.408.11-.851.171-1.295.171a5.75 5.75 0 0 1-.923-.086c.624 1.998 2.446 3.456 4.592 3.493A9.725 9.725 0 0 1 0 19.703a13.747 13.747 0 0 0 7.54 2.254c9.051 0 13.99-7.66 13.99-14.302 0-.22 0-.428-.012-.649A9.785 9.785 0 0 0 24 4.396Z" fill="currentColor"/></symbol><symbol fill="none" viewBox="0 0 24 24" id="sprite-icon-social-x" xmlns="http://www.w3.org/2000/svg"><path d="M17.729 2h3.257l-7.116 8.133L22.24 21.2h-6.554l-5.134-6.712L4.679 21.2h-3.26l7.612-8.699L1 2h6.721l4.64 6.135L17.73 2Zm-1.143 17.25h1.804L6.74 3.847H4.804L16.585 19.25Z" fill="#03020D"/></symbol><symbol fill="none" viewBox="0 0 24 24" id="sprite-icon-social-x-mono" xmlns="http://www.w3.org/2000/svg"><path d="M17.729 2h3.257l-7.116 8.133L22.24 21.2h-6.554l-5.134-6.712L4.679 21.2h-3.26l7.612-8.699L1 2h6.721l4.64 6.135L17.73 2Zm-1.143 17.25h1.804L6.74 3.847H4.804L16.585 19.25Z" fill="currentColor"/></symbol><symbol fill="none" viewBox="0 0 24 24" id="sprite-icon-social-youtube" xmlns="http://www.w3.org/2000/svg"><path d="M23.498 6.131a3.01 3.01 0 0 0-2.121-2.128C19.505 3.5 12 3.5 12 3.5s-7.505 0-9.377.503A3.01 3.01 0 0 0 .502 6.131C0 8.01 0 11.925 0 11.925s0 3.917.502 5.795a3.01 3.01 0 0 0 2.121 2.128c1.872.503 9.377.503 9.377.503s7.505 0 9.377-.503a3.01 3.01 0 0 0 2.122-2.128C24 15.842 24 11.926 24 11.926s0-3.917-.502-5.795Z" fill="#ED1D24"/><path d="m9.545 15.482 6.273-3.556-6.273-3.557v7.113Z" fill="#fff"/></symbol><symbol fill="none" viewBox="0 0 24 24" id="sprite-icon-social-youtube-mono" xmlns="http://www.w3.org/2000/svg"><path d="M23.498 6.631a3.01 3.01 0 0 0-2.121-2.128C19.505 4 12 4 12 4s-7.505 0-9.377.503A3.01 3.01 0 0 0 .502 6.631C0 8.51 0 12.425 0 12.425s0 3.917.502 5.795a3.01 3.01 0 0 0 2.121 2.128c1.872.503 9.377.503 9.377.503s7.505 0 9.377-.503a3.01 3.01 0 0 0 2.122-2.128C24 16.342 24 12.426 24 12.426s0-3.917-.502-5.795Z" fill="currentColor"/><path d="m9.545 15.982 6.273-3.556-6.273-3.557v7.113Z" fill="#fff"/></symbol></svg>