<svg width="119" height="128" viewBox="0 0 119 128" fill="none" xmlns="http://www.w3.org/2000/svg">
<path d="M38.5427 116.818V73.7886H46.3261V89.3552C48.9432 86.8401 52.342 85.4805 55.9108 85.4805C64.3059 85.4805 71.7833 91.8704 71.7833 101.523C71.7833 111.176 64.3059 117.566 55.9108 117.566C52.1381 117.566 48.5693 116.07 45.9522 113.351V116.784H38.5427V116.818ZM64 101.523C64 96.1189 60.1593 92.3802 55.163 92.3802C50.2687 92.3802 46.496 95.9489 46.3261 101.149V101.523C46.3261 106.927 50.1667 110.666 55.163 110.666C60.1593 110.666 64 106.927 64 101.523ZM75.3521 116.818V73.7886H83.1354V116.818H75.3521ZM94.0117 128L98.5321 117.192L86.2283 86.2283H94.6234L102.475 107.845L110.428 86.2283H118.959L102.271 128H94.0117ZM26.205 86.2283V90.103C23.5199 87.146 19.7472 85.4805 15.8725 85.4805C7.44344 85.4805 0 91.8704 0 101.523C0 111.176 7.44344 117.566 15.8725 117.566C19.8832 117.566 23.7238 115.798 26.4769 112.671V116.818H33.2406V86.2283H26.205ZM25.4572 101.523C25.4572 106.859 21.6166 110.666 16.6203 110.666C11.624 110.666 7.78332 106.825 7.78332 101.523C7.78332 96.2209 11.624 92.3802 16.6203 92.3802C21.5146 92.3802 25.2873 96.0169 25.4572 101.149V101.523Z" fill="white"/>
<path d="M59.2416 0L26.035 60.8051L19.5433 56.2846L50.2687 0H59.2416ZM59.7174 0L92.924 60.8051L99.4158 56.2846L68.6904 0H59.7174Z" fill="url(#paint0_linear_991_528)"/>
<path d="M92.4822 61.145L59.4796 35.3479L26.4769 61.145L33.2406 65.8694L59.4796 45.3405L85.7525 65.8694L92.4822 61.145Z" fill="url(#paint1_linear_991_528)"/>
<defs>
<linearGradient id="paint0_linear_991_528" x1="30.8116" y1="77.039" x2="86.368" y2="15.3375" gradientUnits="userSpaceOnUse">
<stop stop-color="#FF5416"/>
<stop offset="0.2535" stop-color="#FF5115"/>
<stop offset="0.461" stop-color="#FF4712"/>
<stop offset="0.6523" stop-color="#FF350E"/>
<stop offset="0.8327" stop-color="#FF1E08"/>
<stop offset="1" stop-color="#FF0000"/>
</linearGradient>
<linearGradient id="paint1_linear_991_528" x1="41.5883" y1="81.0275" x2="74.4237" y2="44.5601" gradientUnits="userSpaceOnUse">
<stop stop-color="#FF5416"/>
<stop offset="0.2535" stop-color="#FF5115"/>
<stop offset="0.461" stop-color="#FF4712"/>
<stop offset="0.6523" stop-color="#FF350E"/>
<stop offset="0.8327" stop-color="#FF1E08"/>
<stop offset="1" stop-color="#FF0000"/>
</linearGradient>
</defs>
</svg>
