<svg width="205" height="64" viewBox="0 0 205 64" fill="none" xmlns="http://www.w3.org/2000/svg">
<path d="M126.751 49.9572V8.17627H134.294V23.3024C136.849 20.87 140.14 19.5209 143.615 19.5209C151.771 19.5209 159.007 25.7349 159.007 35.0967C159.007 44.4586 151.771 50.693 143.615 50.693C139.956 50.693 136.501 49.2417 133.926 46.6049V49.9572H126.751ZM151.464 35.0967C151.464 29.8639 147.744 26.205 142.879 26.205C138.137 26.205 134.478 29.6799 134.294 34.7288V35.0967C134.294 40.3296 138.014 43.9885 142.879 43.9885C147.744 43.9885 151.464 40.3296 151.464 35.0967ZM162.502 49.9572V8.17627H170.045V49.9572H162.502ZM180.592 60.7908L184.987 50.3047L173.05 20.2568H181.205L188.809 41.2494L196.536 20.2568H204.814L188.625 60.8112H180.592V60.7908ZM114.773 20.2568V24.0383C112.157 21.1766 108.498 19.5413 104.737 19.5413C96.5807 19.5413 89.3447 25.7553 89.3447 35.1172C89.3447 44.4995 96.5807 50.693 104.737 50.693C108.641 50.693 112.341 48.9965 115.018 45.9508V49.9776H121.6V20.2568H114.773ZM114.037 35.0967C114.037 40.2683 110.317 43.9885 105.452 43.9885C100.587 43.9885 96.8669 40.2683 96.8669 35.0967C96.8669 29.9252 100.587 26.205 105.452 26.205C110.194 26.205 113.853 29.7413 114.037 34.7288V35.0967Z" fill="white"/>
<path d="M39.4789 0L7.20298 59.0738L0.907227 54.6586L30.7712 0H39.4789ZM39.9286 0L72.2046 59.0738L78.5003 54.6586L48.6364 0H39.9286Z" fill="url(#paint0_linear_991_544)"/>
<path d="M71.7548 59.4213L39.7037 34.3201L7.65265 59.4213L14.1937 64L39.7037 44.0294L65.2138 64L71.7548 59.4213Z" fill="url(#paint1_linear_991_544)"/>
<defs>
<linearGradient id="paint0_linear_991_544" x1="11.8545" y1="74.8439" x2="65.8278" y2="14.9005" gradientUnits="userSpaceOnUse">
<stop stop-color="#FF5416"/>
<stop offset="0.2535" stop-color="#FF5115"/>
<stop offset="0.461" stop-color="#FF4712"/>
<stop offset="0.6523" stop-color="#FF350E"/>
<stop offset="0.8327" stop-color="#FF1E08"/>
<stop offset="1" stop-color="#FF0000"/>
</linearGradient>
<linearGradient id="paint1_linear_991_544" x1="22.324" y1="78.7187" x2="54.2238" y2="43.2904" gradientUnits="userSpaceOnUse">
<stop stop-color="#FF5416"/>
<stop offset="0.2535" stop-color="#FF5115"/>
<stop offset="0.461" stop-color="#FF4712"/>
<stop offset="0.6523" stop-color="#FF350E"/>
<stop offset="0.8327" stop-color="#FF1E08"/>
<stop offset="1" stop-color="#FF0000"/>
</linearGradient>
</defs>
</svg>
