<svg width="24" height="24" viewBox="0 0 24 24" fill="none" xmlns="http://www.w3.org/2000/svg">
<path d="M23.4985 6.13136C23.2225 5.09556 22.4093 4.27991 21.3766 4.0031C19.505 3.50001 12 3.50001 12 3.50001C12 3.50001 4.495 3.50001 2.62335 4.0031C1.59076 4.27991 0.777485 5.09556 0.501509 6.13136C0 8.00866 0 11.9255 0 11.9255C0 11.9255 0 15.8424 0.501509 17.7198C0.777485 18.7555 1.59076 19.5712 2.62335 19.8481C4.495 20.3511 12 20.3511 12 20.3511C12 20.3511 19.505 20.3511 21.3766 19.8481C22.4093 19.5712 23.2225 18.7555 23.4985 17.7198C24 15.8424 24 11.9255 24 11.9255C24 11.9255 24 8.00866 23.4985 6.13136Z" fill="#ED1D24"/>
<path d="M9.54541 15.4818L15.8181 11.9258L9.54541 8.36937V15.4818Z" fill="white"/>
</svg>
