<svg width="24" height="24" viewBox="0 0 24 24" fill="none" xmlns="http://www.w3.org/2000/svg">
<path d="M24 4.39556C23.1129 4.79999 22.1658 5.06961 21.1708 5.19216C22.1898 4.56714 22.969 3.58671 23.3287 2.4102C22.3816 2.9862 21.3267 3.40288 20.1998 3.63573C19.3007 2.65531 18.03 2.04254 16.6034 2.04254C13.8821 2.04254 11.6883 4.29752 11.6883 7.06722C11.6883 7.45939 11.7363 7.83931 11.8202 8.21922C7.73227 8.01088 4.11189 6.01326 1.67832 2.96169C1.25874 3.70926 1.00699 4.56714 1.00699 5.48629C1.00699 7.22654 1.87013 8.77071 3.2008 9.67761C2.3976 9.65309 1.63037 9.42024 0.971029 9.05258C0.971029 9.0771 0.971029 9.08935 0.971029 9.11386C0.971029 11.5527 2.66134 13.5871 4.91509 14.0405C4.50749 14.1508 4.06394 14.2121 3.62038 14.2121C3.30869 14.2121 2.997 14.1753 2.6973 14.1263C3.32068 16.1239 5.14286 17.5823 7.28871 17.6191C5.61039 18.9671 3.48851 19.776 1.17483 19.776C0.779221 19.776 0.383616 19.7515 0 19.7025C2.18182 21.1241 4.75924 21.9574 7.54046 21.9574C16.5914 21.9574 21.5305 14.2979 21.5305 7.65548C21.5305 7.43488 21.5305 7.22654 21.5185 7.00595C22.5015 6.29514 23.3407 5.41275 24 4.39556Z" fill="currentColor"/>
</svg>
