<svg width="24" height="24" viewBox="0 0 24 24" fill="none" xmlns="http://www.w3.org/2000/svg">
  <defs>
    <clipPath id="clip0_2478_87">
      <rect width="24" height="24" fill="white" />
    </clipPath>
  </defs>
  <g clip-path="url(#clip0_2478_87)">
    <path
      d="M24 12C24 5.37264 18.6274 0 12 0C5.37264 0 0 5.37264 0 12C0 17.6275 3.87456 22.3498 9.10128 23.6467V15.6672H6.62688V12H9.10128V10.4198C9.10128 6.33552 10.9498 4.4424 14.9597 4.4424C15.72 4.4424 17.0318 4.59168 17.5685 4.74048V8.06448C17.2853 8.03472 16.7933 8.01984 16.1822 8.01984C14.2147 8.01984 13.4544 8.76528 13.4544 10.703V12H17.3741L16.7006 15.6672H13.4544V23.9122C19.3963 23.1946 24.0005 18.1354 24.0005 12H24Z"
      fill="currentColor" />
    <path
      d="M16.7002 15.6672L17.3736 12H13.4539V10.703C13.4539 8.76526 14.2142 8.01982 16.1818 8.01982C16.7928 8.01982 17.2848 8.0347 17.568 8.06446V4.74046C17.0314 4.59118 15.7195 4.44238 14.9592 4.44238C10.9493 4.44238 9.1008 6.3355 9.1008 10.4198V12H6.6264V15.6672H9.1008V23.6467C10.0291 23.8771 11.0002 24 11.9995 24C12.4915 24 12.9768 23.9697 13.4534 23.9121V15.6672H16.6997H16.7002Z"
      fill="white" />
  </g>
</svg>