<svg width="128" height="128" viewBox="0 0 128 128" fill="none" xmlns="http://www.w3.org/2000/svg">
  <defs>
    <linearGradient id="paint0_linear_3807_387" x1="63.9999" y1="101.232" x2="63.9999" y2="16.9688"
      gradientUnits="userSpaceOnUse">
      <stop stop-color="#FF5416" />
      <stop offset="1" stop-color="#FF2739" />
    </linearGradient>
  </defs>
  <path fill-rule="evenodd" clip-rule="evenodd"
    d="M13.5 52C13.5 50.6193 12.3807 49.5 11 49.5C9.61928 49.5 8.49999 50.6193 8.49999 52L8.5 77C8.49999 100.472 27.5279 119.5 51 119.5L64 119.5L64.0079 119.5L115.029 119.5C118.382 119.5 119.816 115.24 117.146 113.212L67.1165 75.2273C64.8118 73.4774 61.5 75.1211 61.5 78.0148L61.5 114.5L51 114.5C30.2893 114.5 13.5 97.7107 13.5 77L13.5 52ZM66.5 49.9852C66.5 52.8789 63.1882 54.5226 60.8835 52.7727L10.8543 14.7876C8.18371 12.7599 9.61765 8.50002 12.9708 8.50002L63.9912 8.50002C63.9941 8.50002 63.997 8.5 64 8.5L77 8.5C100.472 8.5 119.5 27.5279 119.5 51L119.5 76C119.5 77.3807 118.381 78.5 117 78.5C115.619 78.5 114.5 77.3807 114.5 76L114.5 51C114.5 30.2893 97.7107 13.5 77 13.5L66.5 13.5L66.5 49.9852Z"
    fill="url(#paint0_linear_3807_387)" />
</svg>