<svg width="128" height="128" viewBox="0 0 128 128" fill="none" xmlns="http://www.w3.org/2000/svg">
<path d="M72.2077 116.222L70.3465 114.553L72.2077 116.222ZM55.7923 116.222L53.9311 117.891L55.7923 116.222ZM106.5 53C106.5 57.4121 105.145 62.5476 102.777 68.103C100.419 73.6347 97.1191 79.4355 93.381 85.137C85.904 96.5413 76.799 107.357 70.3465 114.553L74.0689 117.891C80.5973 110.611 89.8885 99.5831 97.5624 87.8785C101.4 82.0256 104.864 75.9559 107.376 70.0639C109.878 64.1957 111.5 58.3546 111.5 53H106.5ZM64 10.5C87.4721 10.5 106.5 29.5279 106.5 53H111.5C111.5 26.7665 90.2335 5.5 64 5.5V10.5ZM21.5 53C21.5 29.5279 40.5279 10.5 64 10.5V5.5C37.7665 5.5 16.5 26.7665 16.5 53H21.5ZM57.6535 114.553C51.201 107.357 42.096 96.5413 34.619 85.137C30.8809 79.4355 27.5814 73.6347 25.2231 68.103C22.8546 62.5476 21.5 57.4121 21.5 53H16.5C16.5 58.3546 18.1218 64.1957 20.6236 70.0639C23.1356 75.9559 26.6002 82.0256 30.4376 87.8785C38.1115 99.5831 47.4027 110.611 53.9311 117.891L57.6535 114.553ZM70.3465 114.553C66.905 118.39 61.095 118.39 57.6535 114.553L53.9311 117.891C59.3596 123.944 68.6404 123.944 74.0689 117.891L70.3465 114.553ZM79.5 53C79.5 61.5604 72.5604 68.5 64 68.5V73.5C75.3218 73.5 84.5 64.3218 84.5 53H79.5ZM64 37.5C72.5604 37.5 79.5 44.4396 79.5 53H84.5C84.5 41.6782 75.3218 32.5 64 32.5V37.5ZM48.5 53C48.5 44.4396 55.4396 37.5 64 37.5V32.5C52.6782 32.5 43.5 41.6782 43.5 53H48.5ZM64 68.5C55.4396 68.5 48.5 61.5604 48.5 53H43.5C43.5 64.3218 52.6782 73.5 64 73.5V68.5Z" fill="currentColor"/>
</svg>
