<svg xmlns="http://www.w3.org/2000/svg" viewBox="0 0 94 122"><path fill="#fff" d="M8.1 89.9 47.6 110l38-20.1V11.3H8.1z"/><path fill="#f2f3f2" d="M86.4 11.6 7.3 91.3l41 20.3 38.1-19.5z"/><path fill="#dcdedc" d="M5.5 37.5v54.1l1.4.7 39.5 20.1 1.2.6 1.2-.6 38.1-20.1 1.4-.7V8.7H5.5v28.8zm2.6 52.6V11.3h77.6v78.8l-38.1 20.1L8.1 90.1z"/><path fill="#ff492c" d="M46.9 12.6c.4 0 .8 0 1.2.1L46.9 15c-1.8-.1-3.4 1.3-3.5 3.1-.1 1.8 1.3 3.4 3.1 3.5h.4c.8 0 1.6-.3 2.2-.8l1.3 2.2c-1 .7-2.2 1.1-3.5 1.1-3.2.1-5.9-2.3-6-5.5-.1-3.2 2.3-5.9 5.5-6h.5zm4.1 4.9 1.5 2.5-1.5 2.4-1.4-2.4h-2.9l1.5-2.5H51zm-2.4-.9c0-.4.1-.8.3-1.1.2-.3.6-.6.9-.8l.2-.1c.4-.2.5-.3.5-.5s-.3-.4-.5-.4c-.4 0-.7.2-.9.6l-.5-.5c.1-.2.3-.4.5-.6.3-.2.6-.2.9-.2.3 0 .7.1.9.3.2.2.4.5.4.8 0 .5-.3.9-.9 1.1l-.3.2c-.3.2-.5.3-.6.6h1.8v.7l-2.7-.1zm-1.7 12.5 9.5-5.4v-15H37.3v14.9l9.6 5.5z"/><path fill="#23cca2" d="M90.2 64.5H3.6l-3.2 7 3.2 7h86.6l3.1-7z"/><path fill="#252530" d="M24.22 60.12q-1.2 0-2.09-.38-.91-.39-1.39-1.1-.49-.71-.49-1.65v-.33q0-.08.05-.13.06-.05.13-.05h1.71q.07 0 .13.05.05.05.05.13v.22q0 .6.56 1.01.55.42 1.5.42.79 0 1.18-.34.39-.34.39-.83 0-.37-.24-.61-.24-.25-.65-.44-.42-.18-1.31-.51-1.01-.35-1.71-.71-.69-.36-1.17-.98-.47-.62-.47-1.54 0-.9.47-1.57.46-.68 1.28-1.04.83-.36 1.91-.36 1.14 0 2.03.41.89.4 1.4 1.13.5.72.5 1.69v.22q0 .08-.05.13-.06.05-.13.05h-1.72q-.08 0-.13-.05-.06-.05-.06-.13v-.12q0-.63-.51-1.07-.52-.44-1.42-.44-.71 0-1.1.3-.4.29-.4.82 0 .38.23.63.24.26.69.46.46.2 1.42.55 1.07.39 1.67.69.61.3 1.1.89.49.59.49 1.54 0 1.41-1.04 2.22-1.03.82-2.81.82Zm9.69-7.65q0-.07.06-.13.05-.05.12-.05h1.76q.07 0 .13.05.05.06.05.13v7.35q0 .08-.05.13-.06.05-.13.05h-1.76q-.07 0-.12-.05-.06-.05-.06-.13v-.51q0-.04-.03-.05-.03-.01-.06.04-.6.8-1.86.8-1.14 0-1.87-.68-.74-.69-.74-1.94v-5.01q0-.07.06-.13.05-.05.12-.05h1.74q.08 0 .13.05.05.06.05.13v4.49q0 .6.33.97.32.38.89.38.51 0 .84-.31.33-.31.4-.8v-4.73Zm10.56 1.89q.27.76.27 1.8t-.28 1.88q-.35.96-1.09 1.52-.74.56-1.84.56-1.08 0-1.68-.75-.03-.04-.06-.03-.03.01-.03.06v3.21q0 .08-.05.13t-.13.05h-1.75q-.08 0-.13-.05t-.05-.13V52.47q0-.07.05-.13.05-.05.13-.05h1.75q.08 0 .13.05.05.06.05.13v.49q0 .05.03.06.03.01.06-.02.63-.83 1.74-.83 1.04 0 1.8.58.75.58 1.08 1.61Zm-2.29 3.36q.37-.58.37-1.59 0-.94-.31-1.5-.35-.64-1.11-.64-.69 0-1.04.64-.31.54-.31 1.52 0 1 .33 1.56.34.6 1.02.6.67 0 1.05-.59Zm10.81-3.36q.27.76.27 1.8t-.28 1.88q-.35.96-1.09 1.52-.74.56-1.84.56-1.08 0-1.68-.75-.03-.04-.06-.03-.03.01-.03.06v3.21q0 .08-.05.13t-.13.05h-1.75q-.08 0-.13-.05t-.05-.13V52.47q0-.07.05-.13.05-.05.13-.05h1.75q.08 0 .13.05.05.06.05.13v.49q0 .05.03.06.03.01.06-.02.63-.83 1.74-.83 1.04 0 1.8.58.75.58 1.08 1.61Zm-2.29 3.36q.37-.58.37-1.59 0-.94-.31-1.5-.35-.64-1.11-.64-.69 0-1.04.64-.31.54-.31 1.52 0 1 .33 1.56.34.6 1.02.6.67 0 1.05-.59Zm7.29 2.4q-1.26 0-2.16-.66-.9-.66-1.23-1.8-.21-.7-.21-1.53 0-.88.21-1.59.34-1.11 1.24-1.74.9-.63 2.17-.63 1.22 0 2.09.62.88.63 1.24 1.74.23.75.23 1.57 0 .81-.2 1.52-.34 1.17-1.23 1.83-.89.67-2.15.67Zm0-1.81q.49 0 .84-.3.34-.3.49-.83.12-.48.12-1.05 0-.63-.12-1.06-.16-.51-.51-.8-.34-.28-.83-.28-.52 0-.85.28-.34.29-.49.8-.12.35-.12 1.06 0 .68.1 1.05.15.53.51.83.35.3.86.3Zm8.79-6.12q.54 0 .86.21.12.06.09.22l-.32 1.71q-.01.18-.21.11-.22-.08-.52-.08-.13 0-.33.03-.54.05-.92.4-.37.35-.37.94v4.09q0 .08-.06.13-.05.05-.12.05h-1.76q-.07 0-.13-.05-.05-.05-.05-.13v-7.35q0-.07.05-.13.06-.05.13-.05h1.76q.07 0 .12.05.06.06.06.13v.57q0 .04.03.06.03.02.04-.02.62-.89 1.65-.89Zm6.42 1.62q0 .07-.05.12-.05.06-.13.06h-1.44q-.07 0-.07.07v3.18q0 .49.2.74.2.24.65.24h.5q.07 0 .12.05.06.05.06.13v1.42q0 .17-.18.19-.63.03-.9.03-1.25 0-1.86-.41-.62-.41-.63-1.55v-4.02q0-.07-.08-.07h-.85q-.08 0-.13-.06-.05-.05-.05-.12v-1.34q0-.07.05-.13.05-.05.13-.05h.85q.08 0 .08-.08v-1.78q0-.07.05-.13.05-.05.13-.05h1.68q.07 0 .12.05.06.06.06.13v1.78q0 .08.07.08h1.44q.08 0 .13.05.05.06.05.13v1.34ZM38.17 39.53q-.09.04 0 .09 1.42.73 1.42 2.44 0 1.46-.99 2.2-.99.74-2.59.74h-3.89q-.07 0-.12-.05-.06-.05-.06-.13V34.68q0-.07.06-.13.05-.05.12-.05h3.77q3.55 0 3.55 2.88 0 1.5-1.27 2.15Zm-4.04-3.22q-.07 0-.07.08v2.34q0 .08.07.08h1.76q.7 0 1.1-.33.38-.33.38-.9 0-.59-.38-.93-.4-.34-1.1-.34h-1.76Zm1.88 6.86q.69 0 1.08-.35.39-.35.39-.97 0-.61-.39-.97-.39-.35-1.1-.35h-1.86q-.07 0-.07.08v2.48q0 .08.07.08h1.88Zm11.92-2.82q.09.57.06 1.27-.01.19-.19.19h-4.64q-.09 0-.06.07.05.3.17.6.39.84 1.59.84.96-.01 1.51-.78.06-.09.14-.09.04 0 .1.06l1.08 1.06q.08.08.08.14 0 .03-.06.12-.5.62-1.28.95-.77.34-1.71.34-1.29 0-2.18-.58-.89-.59-1.28-1.64-.32-.75-.32-1.96 0-.83.23-1.46.34-1.06 1.21-1.69.86-.63 2.04-.63 1.5 0 2.41.87.91.87 1.1 2.32Zm-3.49-1.36q-.95 0-1.25.88-.06.2-.1.48 0 .07.07.07h2.6q.09 0 .06-.07-.08-.43-.08-.42-.13-.45-.47-.7-.34-.24-.83-.24Zm7.83 6.11q-1.01 0-1.76-.28t-1.16-.79q-.41-.51-.41-1.16v-.15q0-.07.05-.13.05-.05.13-.05h1.66q.08 0 .13.05.05.06.05.13v.01q0 .34.37.57.37.23.92.23.51 0 .83-.2.31-.21.31-.5 0-.27-.27-.41-.27-.13-.88-.28-.71-.18-1.11-.35-.96-.33-1.53-.81-.57-.48-.57-1.38 0-1.11.86-1.76.86-.65 2.29-.65.96 0 1.68.3.72.31 1.12.87.39.55.39 1.26 0 .07-.05.12-.05.05-.13.05h-1.6q-.08 0-.13-.05t-.05-.12q0-.33-.34-.56-.34-.23-.89-.23-.5 0-.81.19-.32.18-.32.49 0 .3.31.45.31.15 1.03.32.16.04.37.09.21.05.45.13 1.07.32 1.68.81.62.5.62 1.44 0 1.11-.88 1.73-.88.62-2.36.62Zm8.86-6.29q0 .07-.05.12-.05.06-.13.06h-1.44q-.07 0-.07.07v3.18q0 .49.2.74.2.24.66.24h.49q.07 0 .13.05.05.05.05.13v1.42q0 .17-.18.19-.63.03-.9.03-1.25 0-1.86-.41-.62-.41-.63-1.55v-4.02q0-.07-.08-.07h-.85q-.08 0-.13-.06-.05-.05-.05-.12v-1.34q0-.07.05-.13.05-.05.13-.05h.85q.08 0 .08-.08v-1.78q0-.07.05-.13.05-.05.13-.05h1.68q.07 0 .13.05.05.06.05.13v1.78q0 .08.07.08h1.44q.08 0 .13.05.05.06.05.13v1.34Z"/><path fill="#242530" d="M40.46 69.28q0 .05-.04.08-.03.04-.08.04h-3.4q-.05 0-.05.05v1.87q0 .05.05.05h2.29q.05 0 .09.03.03.04.03.09v.76q0 .05-.03.09-.04.03-.09.03h-2.29q-.05 0-.05.05v2.86q0 .05-.04.08-.03.04-.08.04h-.92q-.05 0-.08-.04-.04-.03-.04-.08v-6.76q0-.05.04-.08.03-.04.08-.04h4.49q.05 0 .08.04.04.03.04.08v.76Zm4.56 6.12q-.1 0-.13-.1l-.33-1.07q-.02-.04-.05-.04h-2.64q-.03 0-.05.04l-.33 1.07q-.03.1-.13.1h-1q-.06 0-.09-.04-.03-.03-.01-.1l2.17-6.76q.03-.1.13-.1h1.25q.1 0 .13.1l2.18 6.76q.01.02.01.05 0 .09-.11.09h-1Zm-2.89-2.18q-.01.06.04.06h2.03q.06 0 .04-.06l-1.03-3.35q-.01-.04-.03-.04-.02 0-.03.04l-1.02 3.35Zm5.15 2.18q-.05 0-.08-.04-.04-.03-.04-.08v-6.76q0-.05.04-.08.03-.04.08-.04h.92q.05 0 .09.04.03.03.03.08v5.83q0 .05.05.05h3.35q.05 0 .08.04.04.03.04.08v.76q0 .05-.04.08-.03.04-.08.04h-4.44Zm5.71 0q-.05 0-.08-.04-.04-.03-.04-.08v-6.76q0-.05.04-.08.03-.04.08-.04h.92q.05 0 .09.04.03.03.03.08v5.83q0 .05.05.05h3.35q.05 0 .09.04.03.03.03.08v.76q0 .05-.03.08-.04.04-.09.04h-4.44Z"/><path fill="#252530" d="M34.03 93.46q-.03.03-.02.06.02.03.06.03H38q.07 0 .12.05.06.05.06.12v1.41q0 .07-.06.12-.05.05-.12.05h-6.52q-.08 0-.13-.05t-.05-.12v-1.34q0-.13.09-.22.71-.69 1.45-1.51.74-.82.93-1.02.4-.48.82-.92 1.32-1.46 1.32-2.17 0-.51-.36-.84-.36-.32-.94-.32t-.94.32q-.37.33-.37.87v.36q0 .07-.05.12-.05.05-.12.05h-1.71q-.07 0-.12-.05-.06-.05-.06-.12v-.68q.05-.78.5-1.39.45-.6 1.19-.92.75-.32 1.68-.32 1.03 0 1.79.39.76.38 1.17 1.03.42.66.42 1.45 0 .61-.31 1.25-.3.64-.91 1.38-.45.56-.97 1.12-.52.55-1.55 1.59l-.22.22Zm8.86 2q-1.6 0-2.52-.89-.93-.89-.93-2.43v-3.83q0-1.51.93-2.39.92-.89 2.52-.89 1.59 0 2.53.89.93.88.93 2.39v3.83q0 1.54-.93 2.43-.94.89-2.53.89Zm0-1.75q.65 0 1.03-.4.39-.4.39-1.07v-3.99q0-.66-.39-1.06-.38-.4-1.03-.4-.64 0-1.02.4-.39.4-.39 1.06v3.99q0 .67.39 1.07.38.4 1.02.4Zm7.52-.25q-.03.03-.01.06.01.03.06.03h3.93q.07 0 .12.05.05.05.05.12v1.41q0 .07-.05.12-.05.05-.12.05h-6.53q-.07 0-.12-.05-.05-.05-.05-.12v-1.34q0-.13.08-.22.72-.69 1.45-1.51.74-.82.93-1.02.41-.48.83-.92 1.32-1.46 1.32-2.17 0-.51-.36-.84-.37-.32-.95-.32t-.94.32q-.36.33-.36.87v.36q0 .07-.05.12-.05.05-.13.05H47.8q-.07 0-.12-.05-.05-.05-.05-.12v-.68q.04-.78.49-1.39.45-.6 1.2-.92.75-.32 1.67-.32 1.03 0 1.79.39.77.38 1.18 1.03.41.66.41 1.45 0 .61-.3 1.25-.31.64-.92 1.38-.45.56-.97 1.12-.52.55-1.55 1.59l-.22.22Zm11.46-3q.29.66.29 1.53 0 .79-.26 1.45-.35.93-1.17 1.45-.82.53-1.94.53-1.1 0-1.93-.55-.83-.56-1.2-1.5-.2-.56-.23-1.22 0-.17.17-.17h1.72q.17 0 .17.17.06.48.16.71.13.38.43.59.29.21.7.21.81 0 1.12-.71.2-.43.2-1.01 0-.69-.22-1.12-.33-.68-1.11-.68-.16 0-.34.09-.17.1-.42.27-.06.04-.11.04-.09 0-.13-.08l-.86-1.21q-.03-.04-.03-.1 0-.09.06-.14l2.3-2.02q.03-.03.03-.06-.01-.03-.05-.03h-3.41q-.07 0-.13-.05-.05-.05-.05-.12v-1.41q0-.07.05-.12.06-.05.13-.05h6.04q.08 0 .13.05t.05.12v1.6q0 .11-.1.22l-1.9 1.74q-.03.03-.02.05 0 .03.06.03 1.26.25 1.8 1.5Z"/></svg>
