<svg width="244" height="122" viewBox="0 0 244 122" fill="none" xmlns="http://www.w3.org/2000/svg">
<path d="M71.2253 77.7648V87.7101L100.67 71.0517V61.1064L71.2253 77.7648Z" fill="#03020D"/>
<path d="M71.2253 54.1445L100.67 70.8028V60.8576L71.2253 44.1992V54.1445Z" fill="#03020D"/>
<path d="M58 61.8515L87.4448 78.5099V68.5646L58 51.9062V61.8515Z" fill="#03020D"/>
<path d="M58 61.8515L87.4448 78.5099V68.5646L58 51.9062V61.8515Z" fill="#03020D"/>
<path d="M87.4448 35L58 51.6583V61.6036L87.4448 44.9453V35Z" fill="#03020D"/>
<path fill-rule="evenodd" clip-rule="evenodd" d="M79.9946 49.1603L71.2253 44.1992V54.1213L79.9946 49.1603ZM78.6755 73.5494L87.4449 78.5104V68.5884L78.6755 73.5494Z" fill="#03020D"/>
<path fill-rule="evenodd" clip-rule="evenodd" d="M158.472 72.6461H162.694V42.7075H158.472V72.6461ZM186 54.0766V50.2328H182.305V42.7075H178.082V50.2328H175.037V54.0766H178.082V72.6461H182.305V54.0766H186ZM167.932 72.6461H172.155V50.2328H167.932V72.6461ZM172.155 47.6437H167.932V42.7075H172.155V47.6437ZM142.596 69.3692C147.022 69.3692 150.189 65.769 150.189 61.4801C150.189 57.2318 146.818 53.4691 142.474 53.4691C138.13 53.4691 134.962 57.192 134.962 61.3997C134.962 65.7284 138.13 69.3692 142.596 69.3692ZM154.412 61.7229C154.412 54.9668 149.702 49.6228 142.759 49.6228C139.551 49.6228 136.628 50.9986 134.759 53.6689H134.676V50.2328H130.821V80.1308H135.044V69.4098H135.127C136.751 72.0801 140.039 73.2122 143.045 73.2122C149.496 73.2122 154.412 68.0746 154.412 61.7229ZM120.629 58.7692C124.325 59.9021 127.411 61.7229 127.411 66.0516C127.411 70.4615 124.162 73.2122 119.856 73.2122C118.873 73.1984 117.898 73.0205 116.974 72.6859C113.646 71.5132 111.9 68.8023 111.9 65.2825H116.119C116.282 67.5881 117.419 69.3683 119.936 69.3683C121.804 69.3683 123.184 68.2354 123.184 66.2936C123.184 64.2537 121.243 63.5595 119.047 62.7747C116.194 61.7545 112.912 60.5812 112.912 56.0997C112.912 52.2558 116.282 49.6261 119.977 49.6261C123.836 49.6261 126.798 52.2964 126.881 56.1801H122.658C122.455 54.5623 121.48 53.4692 119.775 53.4692C118.354 53.4692 117.136 54.3593 117.136 55.856C117.136 57.6957 118.815 58.2114 120.29 58.6643C120.405 58.6994 120.518 58.7342 120.629 58.7692Z" fill="#03020D"/>
</svg>
