<svg width="244" height="122" viewBox="0 0 244 122" fill="none" xmlns="http://www.w3.org/2000/svg">
<path d="M96.8205 57.2614C96.8205 54.6603 94.2911 51.8977 89.914 51.8977C84.9988 51.8977 79.5992 55.5034 78.774 62.6969C77.9308 69.9621 82.4514 73.1911 87.0079 73.1911C91.5644 73.1911 93.9503 71.4152 96.39 69.0473C94.2911 66.4102 91.5823 67.6301 91.0621 67.8992C90.4881 68.1862 89.7526 68.5808 88.2457 68.5808C86.4877 68.5808 84.6938 67.7915 84.6938 64.5087C95.9594 63.3965 96.8205 59.8626 96.8205 57.2614ZM91.2415 57.6919C91.1697 58.4992 90.8468 59.8805 85.1423 60.6519C86.3442 56.3824 88.6404 56.0595 89.6988 56.0595C90.6854 56.0595 91.3133 56.8309 91.2415 57.6919ZM72.1545 58.3916C72.1545 58.3916 69.7328 65.9976 69.5354 66.6255C69.4637 65.9797 67.6877 52.3282 67.6877 52.3282C63.5618 52.3282 61.3553 55.2702 60.1893 58.3736C60.1893 58.3736 57.2473 65.9976 56.9962 66.6434C56.9782 66.0515 56.5477 58.4633 56.5477 58.4633C56.2965 54.6603 52.8164 52.3462 50 52.3462L53.4084 73.0297C57.7317 73.0118 60.0637 70.0877 61.2836 66.9843C61.2836 66.9843 63.8847 60.2572 63.9923 59.9522C64.0103 60.2393 65.858 73.0297 65.858 73.0297C70.1992 73.0297 72.5312 70.285 73.787 67.2892L79.8682 52.3462C75.5809 52.3462 73.3206 55.2702 72.1545 58.3916ZM112.75 51.8618C110.077 51.8618 108.032 53.3149 106.31 55.4496V55.4316L107.853 43C104.301 43 101.413 46.0855 100.857 50.6778L98.1659 72.8682C100.211 72.8682 102.382 72.2763 103.548 70.7694C104.588 72.1148 106.149 73.1911 108.463 73.1911C114.454 73.1911 118.562 66.2309 118.562 59.7011C118.527 53.7454 115.638 51.8618 112.75 51.8618ZM112.194 62.5354C111.566 66.177 109.539 68.6526 107.584 68.6526C105.611 68.6526 104.767 67.7736 104.767 67.7736C105.144 64.5805 105.377 62.6251 106.095 60.9389C106.812 59.2526 108.517 56.5618 110.293 56.5618C112.033 56.5618 112.822 58.8759 112.194 62.5354ZM133.523 52.3462H129.344L129.362 52.1309C129.649 49.4042 130.294 47.9691 132.429 47.7359C133.882 47.5924 134.528 46.8389 134.689 46.0137C134.815 45.3679 135.21 43.1256 135.21 43.1256C126.814 43.0718 124.177 46.6954 123.496 52.2206L123.478 52.3462H123.388C122.025 52.3462 120.518 53.8889 120.267 55.8442L120.177 56.5618H122.975L120.625 75.9717L119.908 79.4518C119.998 79.4518 120.105 79.4698 120.195 79.4698C124.123 79.3262 126.635 76.2228 127.191 71.7202L129.021 56.5618H130.33C131.622 56.5618 133.129 55.2702 133.398 53.1175L133.523 52.3462ZM155.265 51.9874C150.44 51.9874 145.883 55.5393 144.484 61.1183C143.085 66.6973 145.202 73.2988 152.305 73.2988C159.391 73.2988 163.481 66.4282 163.481 60.7057C163.481 55.0191 159.625 51.9874 155.265 51.9874ZM157.221 62.3561C156.97 64.8854 155.857 68.7244 152.808 68.7244C149.74 68.7244 150.171 64.2396 150.476 62.1049C150.799 59.8267 152.072 56.5797 154.817 56.5797C157.275 56.5797 157.508 59.5038 157.221 62.3561ZM187.322 58.3916C187.322 58.3916 184.9 65.9976 184.703 66.6255C184.631 65.9797 182.855 52.3282 182.855 52.3282C178.729 52.3282 176.523 55.2702 175.357 58.3736C175.357 58.3736 172.415 65.9976 172.164 66.6434C172.146 66.0515 171.715 58.4633 171.715 58.4633C171.464 54.6603 167.984 52.3462 165.168 52.3462L168.558 73.0297C172.881 73.0118 175.213 70.0877 176.433 66.9843C176.433 66.9843 179.034 60.2572 179.124 59.9522C179.16 60.2393 180.99 73.0297 180.99 73.0297C185.331 73.0297 187.663 70.285 188.919 67.2892L195 52.3462C190.731 52.3462 188.47 55.2702 187.322 58.3916ZM137.47 43.1256L133.954 71.4869L133.236 74.985C133.326 74.985 133.434 75.003 133.523 75.003C137.309 74.9492 139.999 71.6305 140.502 67.4507L142.529 51.1801C143.139 46.2111 140.179 43.1256 137.47 43.1256Z" fill="#03020D"/>
</svg>
