<svg width="244" height="122" viewBox="0 0 244 122" fill="none" xmlns="http://www.w3.org/2000/svg">
<path d="M52.2003 52.2L60.7784 69.36H48.9761V52.2H52.2003Z" fill="#03020D" stroke="white" stroke-width="0.4"/>
<path d="M62.9669 55.7477H63.1669V55.5477V52.2H66.3147V69.36H56.0714V59.2955H59.4192H59.6192V59.0955V55.7477H62.9669Z" fill="#03020D" stroke="white" stroke-width="0.4"/>
<path d="M59.2125 69.369H48.9761V59.3064C54.5249 59.4106 59.0151 63.8426 59.2125 69.369Z" fill="#03020D" stroke="white" stroke-width="0.4"/>
<path d="M53.8835 69.3549H48.9761V64.6184C51.585 64.7186 53.6933 66.7703 53.8835 69.3549Z" fill="#03020D" stroke="white" stroke-width="0.4"/>
<path d="M68.291 69.5415H47V69.8967H68.291V69.5415Z" fill="#03020D"/>
<path d="M94.613 52V69.7308H91.8267V53.5452L87.6981 69.7308H82.3028L78.1999 53.5452V69.7308H75.4133V52H80.8084L85.0385 68.6669L89.2685 52H94.613Z" fill="#03020D"/>
<path d="M108.697 63.6025L98.5648 65.0716C99.1475 66.5408 100.541 67.5284 102.212 67.5284C103.909 67.5284 105.226 66.6168 105.86 65.2242L108.317 66.0601C107.329 68.3394 105.024 69.9855 102.187 69.9855C98.4636 69.9855 95.627 67.1235 95.627 63.5013C95.627 59.854 98.4639 57.0171 102.187 57.0171C105.911 57.0171 108.747 59.8034 108.697 63.6025ZM105.632 61.8809C105.075 60.184 103.884 59.4493 102.187 59.4493C100.034 59.4493 98.5396 60.893 98.2861 62.894L105.632 61.8809Z" fill="#03020D"/>
<path d="M121.008 61.6017V69.7328H118.323V62.235C118.323 60.2592 117.513 59.4487 115.79 59.4487C113.815 59.4487 112.396 60.7153 112.396 62.9183V69.7326H109.711V57.2703H112.396V59.0687C113.207 57.7009 114.7 57.0171 116.398 57.0171C119.058 57.0171 121.008 58.6128 121.008 61.6017Z" fill="#03020D"/>
<path d="M126.251 57.263H130.127V59.4414H126.251V66.0019C126.251 67.091 126.961 67.5722 127.923 67.5722C128.582 67.5722 129.19 67.4202 129.798 67.1162V69.4972C129.242 69.7504 128.253 69.953 127.543 69.953C124.858 69.953 123.566 68.6867 123.566 66.0019V59.4414H121.769V57.263H123.567V54.1981L126.251 52.1465V57.263Z" fill="#03020D"/>
<path d="M130.989 54.0858C130.989 53.7602 131.086 53.4419 131.267 53.1711C131.448 52.9004 131.705 52.6894 132.005 52.5648C132.306 52.4402 132.637 52.4076 132.957 52.4711C133.276 52.5346 133.569 52.6914 133.8 52.9217C134.03 53.1519 134.187 53.4453 134.25 53.7646C134.314 54.084 134.281 54.415 134.156 54.7158C134.032 55.0167 133.821 55.2738 133.55 55.4547C133.279 55.6356 132.961 55.7321 132.635 55.7321C132.419 55.7327 132.205 55.6905 132.005 55.608C131.805 55.5254 131.623 55.4042 131.47 55.2512C131.317 55.0982 131.196 54.9165 131.113 54.7165C131.031 54.5165 130.989 54.3022 130.989 54.0858V54.0858ZM131.344 57.2519H134.029V69.7142H131.344V57.2519Z" fill="#03020D"/>
<path d="M153.329 61.4497V69.7326H150.644V61.7792C150.644 60.1326 149.884 59.4485 148.516 59.4485C147.148 59.4485 145.755 60.5378 145.755 62.5134V69.7326H143.071V61.7792C143.071 60.1326 142.31 59.4485 140.943 59.4485C139.575 59.4485 138.182 60.5381 138.182 62.5388V69.7326H135.497V57.2703H138.182V58.9675C138.916 57.6755 140.183 57.0171 141.651 57.0171C143.222 57.0171 144.615 57.7264 145.223 59.2713C146.084 57.8784 147.452 57.0171 149.225 57.0171C151.531 57.0171 153.329 58.5623 153.329 61.4497Z" fill="#03020D"/>
<path d="M167.413 63.6027L157.281 65.0719C157.864 66.5411 159.257 67.5287 160.929 67.5287C162.626 67.5287 163.943 66.6171 164.576 65.2245L167.033 66.0601C166.045 68.3397 163.74 69.9858 160.903 69.9858C157.18 69.9858 154.343 67.1235 154.343 63.5013C154.343 59.854 157.18 57.0171 160.903 57.0171C164.627 57.0171 167.464 59.8036 167.413 63.6027ZM164.348 61.8812C163.792 60.1842 162.6 59.4495 160.903 59.4495C158.75 59.4495 157.256 60.8933 157.002 62.8942L164.348 61.8812Z" fill="#03020D"/>
<path d="M171.922 57.263H175.797V59.4414H171.922V66.0019C171.922 67.091 172.631 67.5722 173.594 67.5722C174.252 67.5722 174.86 67.4202 175.468 67.1162V69.4972C174.912 69.7504 173.923 69.953 173.214 69.953C170.529 69.953 169.237 68.6867 169.237 66.0019V59.4414H167.438V57.263H169.237V54.1981L171.922 52.1465V57.263Z" fill="#03020D"/>
<path d="M189.095 63.6027L178.963 65.0719C179.546 66.5411 180.939 67.5287 182.611 67.5287C184.308 67.5287 185.625 66.6171 186.258 65.2245L188.715 66.0603C187.728 68.3397 185.423 69.9858 182.586 69.9858C178.863 69.9858 176.026 67.1235 176.026 63.5013C176.026 59.854 178.863 57.0171 182.586 57.0171C186.31 57.0171 189.148 59.8036 189.095 63.6027ZM186.03 61.8812C185.474 60.1842 184.282 59.4495 182.586 59.4495C180.433 59.4495 178.938 60.8933 178.685 62.8942L186.03 61.8812Z" fill="#03020D"/>
<path d="M197 57.0679V59.5237C196.69 59.4741 196.377 59.4487 196.063 59.4477C194.087 59.4477 192.795 60.7648 192.795 63.0444V69.7326H190.11V57.2703H192.745V59.1449C193.327 57.853 194.619 57.0171 196.241 57.0171C196.569 57.0171 196.873 57.0423 197 57.0679Z" fill="#03020D"/>
</svg>
