<svg width="244" height="122" viewBox="0 0 244 122" fill="none" xmlns="http://www.w3.org/2000/svg">
<path d="M169.572 46.0183C171.548 46.0183 173.094 44.4728 173.094 42.4965C173.094 40.5709 171.548 39.0254 169.572 39.0254C167.621 39.0254 166 40.5709 166 42.4965C165.949 44.4475 167.621 46.0183 169.572 46.0183ZM139.168 48.4507H144.463V51.6431C145.806 49.7175 148.771 47.9693 152.242 47.9693C158.855 47.9693 163.871 53.518 163.871 60.3589C163.871 67.1492 158.855 72.7486 152.242 72.7486C148.745 72.7486 145.832 71.0004 144.463 69.0748V82.2245H139.168V48.4507ZM151.279 52.7072C146.972 52.7072 144.033 56.0263 144.033 60.3336C144.033 64.6155 146.997 67.96 151.279 67.96C155.536 67.96 158.5 64.6408 158.5 60.3336C158.5 56.077 155.536 52.7072 151.279 52.7072ZM176.134 48.4507H181.43V51.6938C182.899 49.2868 185.636 47.9693 188.752 47.9693C194.351 47.9693 198 51.8965 198 57.9266V72.2672H192.705V58.7881C192.705 55.0382 190.754 52.7579 187.688 52.7579C184.166 52.7579 181.455 55.4689 181.455 60.5363V72.2419H176.16V48.4507H176.134ZM98.7306 47.9693C95.6142 47.9693 92.8525 49.2868 91.4083 51.6938V39.0254H86.1129V72.2672H91.4083V60.5616C91.4083 55.4943 94.1193 52.7832 97.6411 52.7832C100.732 52.7832 102.658 55.0636 102.658 58.8134V72.2672H107.953V57.9266C107.928 51.8711 104.33 47.9693 98.7306 47.9693ZM172.156 48.4507H166.861V72.2672H172.156V48.4507ZM123.586 72.7233C116.466 72.7233 110.943 67.2505 110.943 60.3336C110.943 53.4167 116.441 47.9439 123.586 47.9439C130.731 47.9439 136.229 53.4167 136.229 60.3336C136.229 67.2505 130.706 72.7233 123.586 72.7233ZM123.586 67.8586C127.843 67.8586 130.832 64.5902 130.832 60.3589C130.832 56.1277 127.843 52.8593 123.586 52.8593C119.279 52.8593 116.289 56.1277 116.289 60.3589C116.289 64.5902 119.279 67.8586 123.586 67.8586Z" fill="#03020D"/>
<path d="M66.8064 45.4102C66.7557 47.0064 65.6409 49.2867 63.7153 49.2867C62.5498 49.2867 61.5617 48.3239 61.5617 47.1584V47.1331C61.511 45.2582 60.6749 43.6113 59.332 42.4711C58.3186 41.635 57.0517 41.0776 55.6835 40.9256C56.849 39.7348 58.5213 39 60.3455 39C62.6511 39 64.7541 40.3175 65.9703 42.2431C66.5783 43.1806 66.857 44.3207 66.8064 45.4102ZM59.2814 45.5622C60.2948 46.8291 60.9029 49.2867 59.4334 50.4775C58.4959 51.2376 57.1531 51.111 56.393 50.2495C55.1261 48.856 53.4032 48.1212 51.655 48.0959C50.3122 48.0452 48.9693 48.4506 47.8545 49.2107C47.9812 47.5638 48.7413 45.9423 50.1601 44.7768C51.9844 43.3072 54.5434 42.8512 56.7223 43.738C57.7358 44.0927 58.6226 44.7261 59.2814 45.5622ZM53.6059 50.4522C55.1768 50.7816 57.3051 52.3018 56.9757 54.126C56.773 55.2915 55.6329 56.0516 54.4674 55.8489H54.4167C52.5418 55.5702 50.7175 56.1276 49.4 57.2171C48.3866 58.0279 47.5758 59.1681 47.2211 60.4856C46.2583 59.1174 45.8022 57.4198 46.0809 55.6209C46.537 53.3406 48.1839 51.415 50.4642 50.6549C51.4523 50.3255 52.5925 50.2495 53.6059 50.4522ZM52.4404 57.7999C53.8593 57.0398 56.4436 56.8877 57.3811 58.484C57.9892 59.4721 57.6345 60.7896 56.621 61.3977C54.9994 62.3605 53.986 63.906 53.6313 65.6289C53.3779 66.8958 53.5046 68.2639 54.1127 69.5054C52.4911 69.1 50.9962 68.0612 50.1095 66.5157C48.944 64.4888 48.9693 61.9551 50.1855 59.9535C50.7175 59.0414 51.503 58.2813 52.4404 57.7999ZM56.317 64.1341C56.925 62.6645 58.8 60.8909 60.5229 61.5244C61.663 61.9298 62.2204 63.1713 61.815 64.2354C61.207 65.9836 61.4603 67.8332 62.2964 69.3534C62.9552 70.5189 63.918 71.431 65.1848 72.0391C63.6393 72.7485 61.8657 72.9259 60.1681 72.2671C57.9385 71.4564 56.317 69.5054 55.9622 67.1998C55.8356 66.1863 55.9622 65.0968 56.317 64.1341ZM63.4619 66.541C62.9298 65.0208 63.2086 62.5125 65.0075 61.8791C66.1476 61.4737 67.3638 62.0311 67.7692 63.1459C68.4533 64.8688 69.8468 66.1357 71.4937 66.7944C72.7098 67.2758 74.1287 67.3518 75.4715 67.0224C74.7874 68.5426 73.4953 69.7841 71.7724 70.4176C69.5427 71.2283 66.9837 70.7469 65.2608 69.1761C64.4247 68.416 63.766 67.5292 63.4619 66.541ZM70.5055 63.8553C69.1374 63.0192 67.6678 60.8909 68.6306 59.2947C69.2387 58.3066 70.5309 57.9265 71.595 58.484C73.2672 59.3707 75.1168 59.4721 76.8144 58.9147C78.0812 58.484 79.196 57.6732 80.0068 56.5584C80.4629 58.1546 80.2855 59.9028 79.3481 61.4737C78.1826 63.5006 75.9023 64.7421 73.5459 64.6661C72.4565 64.7168 71.3417 64.4128 70.5055 63.8553ZM74.154 57.3438C72.5325 57.5718 70.0495 56.8624 69.7454 55.0382C69.4921 53.9233 70.3028 52.8085 71.4937 52.6058H71.5443C73.4193 52.2511 74.9141 51.1363 75.8009 49.6414C76.485 48.5266 76.8144 47.2091 76.6877 45.8409C78.0559 46.753 79.12 48.2479 79.3987 49.9961C79.8041 52.2765 78.8667 54.6581 77.0424 56.1023C76.181 56.7611 75.1675 57.2425 74.154 57.3438ZM72.6845 50.0722C71.595 51.263 69.2387 52.3018 67.7945 51.111C66.857 50.3509 66.7304 49.0333 67.5158 48.1212C68.6813 46.677 69.1374 44.8528 68.8587 43.1299C68.656 41.8631 68.0479 40.6216 67.0851 39.6081C68.7573 39.4561 70.4802 39.9375 71.8991 41.0776C73.7233 42.5471 74.5848 45.0048 74.078 47.2598C73.8753 48.3239 73.3686 49.3121 72.6845 50.0722Z" fill="#03020D"/>
</svg>
