<svg width="244" height="122" viewBox="0 0 244 122" fill="none" xmlns="http://www.w3.org/2000/svg">
<path fill-rule="evenodd" clip-rule="evenodd" d="M67.1612 58.7658V47.5718H72.042V74.2929H67.1612V63.4624H56.8808V74.2929H52V47.5718H56.8808V58.7658H67.1612ZM83.6246 69.6931C85.8546 69.6931 87.6624 67.8853 87.6624 65.6553V54.2102H92.2753V65.6553C92.2753 70.4376 88.3985 74.3144 83.6162 74.3144C78.8339 74.3144 74.9571 70.4376 74.9571 65.6553V54.2102H79.5867V65.6553C79.5867 67.8853 81.3945 69.6931 83.6246 69.6931ZM121.964 55.3891C121.964 53.0432 123.516 52.2995 125.216 52.2995C126.587 52.2995 128.397 53.3421 129.581 54.6072L132.613 51.0345C131.099 48.9875 128.029 47.5718 125.515 47.5718C120.493 47.5718 116.861 50.5132 116.861 55.3891C116.861 60.5643 120.48 61.8399 123.577 62.9316C125.894 63.7483 127.919 64.4621 127.919 66.6286C127.919 68.1901 126.403 69.5699 124.666 69.5699C122.179 69.5699 121.219 68.465 120.121 67.2015C120.011 67.074 119.899 66.9448 119.783 66.8151L116.419 70.3136C118.571 72.9561 121.225 74.2977 124.406 74.2977C129.176 74.2977 133.015 71.3204 133.015 66.6668C133.015 60.6108 128.994 59.3409 125.802 58.3326C123.7 57.6687 121.957 57.1181 121.957 55.3891H121.964ZM186.859 67.0279C186.859 68.8406 187.636 70.0243 190.371 70.0243V70.0195C190.89 70.0195 191.483 69.9836 192 69.9478L190.855 74.1637C190.244 74.2736 189.624 74.3233 189.004 74.312C185.048 74.312 182.164 72.2052 182.164 68.0251V51.6825L186.859 49.5757V54.9396H191.11V59.0049H186.859V67.0279ZM99.844 56.5274C101.391 55.0089 102.991 54.3441 105.284 54.3441V54.3465C110.462 54.3465 114.914 58.6749 114.914 64.3328C114.914 70.0626 110.077 74.3168 104.576 74.3168C99.6192 74.3168 95.2071 70.1367 95.2071 64.0339V47.732H99.844V56.5274ZM99.9946 64.3902C99.9946 67.2958 102.35 69.6512 105.256 69.6512C108.161 69.6512 110.517 67.2958 110.517 64.3902C110.517 61.4847 108.161 59.1292 105.256 59.1292C102.35 59.1292 99.9946 61.4847 99.9946 64.3902ZM155.632 64.0889C155.632 58.3497 150.804 54.105 145.294 54.105C140.337 54.105 135.925 58.2851 135.925 64.3879V80.6993H140.562V71.892C142.107 73.4081 143.709 74.0753 146 74.0753C151.177 74.0753 155.63 69.7493 155.63 64.0889H155.632ZM151.242 64.0315C151.242 66.9371 148.886 69.2925 145.981 69.2925C143.075 69.2925 140.72 66.9371 140.72 64.0315C140.72 61.126 143.075 58.7705 145.981 58.7705C148.886 58.7705 151.242 61.126 151.242 64.0315Z" fill="#03020D"/>
<path fill-rule="evenodd" clip-rule="evenodd" d="M170.612 49.2216V53.88C174.831 54.5211 178.206 57.7196 179.072 61.8984C179.939 66.0772 178.114 70.3539 174.497 72.6196C170.881 74.8854 166.236 74.6618 162.854 72.0591L159.069 75.8447C159.167 76.1541 159.22 76.4764 159.224 76.8012C159.223 78.6337 157.736 80.1185 155.904 80.118C154.071 80.1176 152.586 78.6322 152.586 76.7996C152.585 74.9671 154.07 73.4809 155.902 73.4796C156.227 73.4839 156.55 73.5362 156.859 73.6351L160.685 69.8089C158.278 66.3787 158.216 61.8245 160.53 58.3303L147.949 48.5425C147.344 48.8935 146.658 49.0798 145.959 49.0829C144.324 49.081 142.852 48.0943 142.228 46.5831C141.604 45.0719 141.953 43.3339 143.11 42.1796C144.268 41.0253 146.007 40.6822 147.517 41.3103C149.026 41.9383 150.008 43.4139 150.005 45.0487C150 45.389 149.952 45.7273 149.862 46.0555L162.636 56.0059C164.031 54.8841 165.698 54.1507 167.467 53.88V49.2216C166.21 48.6345 165.405 47.3755 165.398 45.9885V45.8809C165.398 43.8998 167.004 42.2938 168.986 42.2938H169.093C171.074 42.2938 172.68 43.8998 172.68 45.8809V45.9885C172.674 47.3755 171.868 48.6345 170.612 49.2216ZM163.811 63.9596C163.809 66.851 166.151 69.1964 169.043 69.1991L169.048 69.1967C171.94 69.1967 174.285 66.852 174.285 63.9596C174.283 61.0682 171.939 58.7249 169.048 58.7249C166.156 58.7249 163.812 61.0682 163.811 63.9596Z" fill="#03020D"/>
</svg>
