<svg width="244" height="122" viewBox="0 0 244 122" fill="none" xmlns="http://www.w3.org/2000/svg">
<path d="M35 45H47.696C50.1143 45 51.928 45.605 53.2715 46.6134C54.7494 47.8235 55.5555 49.5714 55.5555 51.7227C55.5555 54.2101 54.5479 55.7563 52.5326 56.6975V56.8319C55.2196 57.7059 56.7646 60.1261 56.7646 63.0168C56.7646 65.7731 55.6898 67.9244 53.9433 69.2689C52.4654 70.3445 50.5845 70.8151 48.0319 70.8151H35V45ZM46.4197 55.084C47.7632 55.084 48.7708 54.3445 48.7708 52.7983C48.7708 51.3193 47.7632 50.5798 46.3525 50.5798H41.9862V55.0168H46.4197V55.084ZM47.0243 65.1008C48.5693 65.1008 49.7113 64.1597 49.7113 62.479C49.7113 60.6639 48.5021 59.8571 47.0243 59.8571H42.0533V65.1681H47.0243V65.1008Z" fill="#03020D"/>
<path d="M57.9066 45H64.5569V70.8824H57.9066V45Z" fill="#03020D"/>
<path d="M65.9004 61.6722C65.9004 55.8235 69.6622 51.9243 75.5064 51.9243C81.3506 51.9243 85.0452 55.8907 85.0452 61.6722C85.0452 67.521 81.3506 71.4201 75.5064 71.4201C69.6622 71.4201 65.9004 67.521 65.9004 61.6722ZM78.3949 61.6722C78.3949 58.4453 77.3873 56.4285 75.372 56.4285C73.3568 56.4285 72.4163 58.4453 72.4163 61.6722C72.4163 64.8991 73.3568 66.9831 75.372 66.9831C77.3873 66.9159 78.3949 64.8991 78.3949 61.6722Z" fill="#03020D"/>
<path d="M85.7841 61.6722C85.7841 55.8235 89.5459 51.9243 95.3901 51.9243C101.234 51.9243 104.862 55.8235 104.862 61.6722C104.862 67.521 101.167 71.4201 95.3229 71.4201C89.5459 71.4201 85.7841 67.521 85.7841 61.6722ZM98.2786 61.6722C98.2786 58.4453 97.271 56.4285 95.2558 56.4285C93.2405 56.4285 92.3001 58.4453 92.3001 61.6722C92.3001 64.8991 93.2405 66.9831 95.2558 66.9831C97.271 66.9159 98.2786 64.8991 98.2786 61.6722Z" fill="#03020D"/>
<path d="M106.205 52.395H112.385V55.1513H112.52C113.729 53 115.408 51.8572 118.095 51.8572C120.446 51.8572 122.193 53 123.066 55.0168H123.2C124.678 52.5967 126.626 51.8572 128.91 51.8572C133.209 51.8572 135.023 55.0168 135.023 59.2521V70.8152H128.574V60.395C128.574 58.5126 127.97 57.3026 126.358 57.3026C124.745 57.3026 123.939 58.7815 123.939 60.7984V70.8152H117.491V60.395C117.491 58.5126 116.886 57.3026 115.274 57.3026C113.662 57.3026 112.856 58.7815 112.856 60.7984V70.8152H106.205V52.395Z" fill="#03020D"/>
<path d="M143.151 68.395H143.084V70.8151H136.904V45H143.353V54.2773H143.487C144.696 52.6639 146.376 51.7899 148.727 51.7899C153.362 51.7899 156.049 55.958 156.049 61.5378C156.049 67.7899 153.16 71.4202 148.324 71.4202C146.309 71.4202 144.226 70.479 143.151 68.395ZM149.399 61.4706C149.399 58.5126 148.324 56.563 146.376 56.563C144.36 56.563 143.151 58.5126 143.151 61.4706C143.151 64.4286 144.428 66.3782 146.376 66.3782C148.324 66.3782 149.399 64.4958 149.399 61.4706Z" fill="#03020D"/>
<path d="M156.788 61.6051C156.788 55.8236 160.617 51.8572 166.125 51.8572C168.879 51.8572 170.962 52.7311 172.574 54.2773C174.723 56.3614 175.664 59.5883 175.597 63.353H163.237C163.505 65.6387 164.58 66.8488 166.528 66.8488C167.67 66.8488 168.678 66.311 169.081 65.1009H175.328C174.253 69.3362 170.962 71.4202 166.327 71.4202C160.617 71.353 156.788 67.4538 156.788 61.6051ZM163.237 59.6555H169.148C169.014 57.437 167.804 56.2942 166.259 56.2942C164.446 56.2269 163.438 57.5042 163.237 59.6555Z" fill="#03020D"/>
<path d="M182.919 55.5547H183.053C184.397 53.0001 186.143 51.9917 188.36 51.9917C188.897 51.9917 189.233 52.0589 189.435 52.1934V57.8404H189.3C185.471 57.1682 183.255 58.9833 183.255 63.1514V70.8825H176.739V52.3951H182.919V55.5547Z" fill="#03020D"/>
<path d="M190.106 70.8822H196.354C196.622 71.689 197.429 72.4285 198.974 72.4285C201.056 72.4285 201.795 71.1511 201.795 69.2016V67.857H201.661C200.653 69.0671 199.242 69.9411 197.227 69.9411C193.264 69.9411 189.771 66.9831 189.771 61.2016C189.771 55.8906 192.592 51.7898 196.891 51.7898C199.377 51.7898 200.854 52.7982 201.862 54.3444H201.996V52.3276H208.176V68.3276C208.176 71.2856 207.169 73.5713 205.624 74.9159C204.012 76.3276 201.728 76.9327 199.108 76.9327C194.137 76.9999 190.711 74.9831 190.106 70.8822ZM202.064 60.9327C202.064 58.6469 200.989 56.7646 199.108 56.7646C197.294 56.7646 196.152 58.378 196.152 60.9327C196.152 63.42 197.294 65.1679 199.108 65.1679C200.922 65.1679 202.064 63.3528 202.064 60.9327Z" fill="#03020D"/>
</svg>
