<svg width="244" height="122" viewBox="0 0 244 122" fill="none" xmlns="http://www.w3.org/2000/svg">
<path d="M81 75.0786H93.8882L101.392 55.4373L109.16 75.0786H121.96L104.746 36.1502H98.3904L81 75.0786Z" fill="#03020D"/>
<path fill-rule="evenodd" clip-rule="evenodd" d="M143.014 75.9633C154.3 75.9633 163.45 66.7934 163.45 55.4816C163.45 44.1697 154.3 35 143.014 35C131.728 35 122.578 44.1697 122.578 55.4816C122.578 66.7933 131.728 75.9633 143.014 75.9633ZM134.319 55.4815C134.319 50.6685 138.212 46.7669 143.014 46.7669C147.816 46.7669 151.709 50.6686 151.709 55.4815C151.709 60.2945 147.816 64.1961 143.014 64.1961C138.212 64.1961 134.319 60.2945 134.319 55.4815Z" fill="#03020D"/>
<path fill-rule="evenodd" clip-rule="evenodd" d="M133.645 84.1737V78.7283H132.558V84.1737H133.645ZM122.831 82.8972C122.831 83.8596 123.252 84.2419 124.075 84.2351C124.251 84.2351 124.448 84.2147 124.659 84.1805L124.625 83.2932C124.53 83.3135 124.421 83.3272 124.319 83.3272C124.061 83.3272 123.908 83.2248 123.908 82.8972V81.4433H124.591V80.5218H123.908V78.9878L122.831 79.6839V80.5218H122.209V81.4433H122.831V82.8972ZM120.494 80.3922C121.282 80.3922 121.881 80.7949 121.888 81.6551H120.903C120.896 81.3684 120.718 81.299 120.494 81.299C120.058 81.299 120.027 81.759 120.454 81.8339C121.269 81.977 121.898 82.3291 121.898 83.0269C121.898 83.9552 121.436 84.3372 120.434 84.3372C119.432 84.3372 119.021 83.9218 119.007 82.9799H119.998C120.005 83.2257 120.15 83.3815 120.461 83.3815C120.775 83.3815 120.867 83.2448 120.846 83.1114C120.824 82.9748 120.679 82.8789 120.406 82.8415C119.577 82.7272 119.053 82.3499 119.053 81.6688C119.053 80.7744 119.672 80.3922 120.494 80.3922ZM113.44 80.8632V80.481H114.507V84.1737H113.44V83.805C113.189 84.1191 112.746 84.3045 112.393 84.3045C110.975 84.3045 110.536 83.2794 110.543 82.2625C110.557 81.2523 111.217 80.4196 112.406 80.4196C112.766 80.4195 113.203 80.556 113.44 80.8632ZM113.464 82.3868C113.464 81.8324 113.042 81.3781 112.521 81.3781C111.908 81.3781 111.601 81.8631 111.593 82.3715C111.586 82.8721 111.9 83.3881 112.521 83.3881C113.042 83.3881 113.464 82.9416 113.464 82.3868ZM130.851 80.481V80.8632C130.613 80.556 130.177 80.4195 129.817 80.4196C128.628 80.4196 127.967 81.2523 127.954 82.2625C127.947 83.2794 128.386 84.3045 129.803 84.3045C130.157 84.3045 130.6 84.1191 130.851 83.805V84.1737H131.918V80.481H130.851ZM130.875 82.3868C130.875 81.8324 130.453 81.3781 129.932 81.3781C129.318 81.3781 129.012 81.8631 129.004 82.3715C128.996 82.8721 129.311 83.3881 129.932 83.3881C130.453 83.3881 130.875 82.9416 130.875 82.3868ZM138.603 80.481V80.8632C138.365 80.556 137.929 80.4195 137.569 80.4196C136.38 80.4196 135.72 81.2523 135.706 82.2625C135.699 83.2794 136.138 84.3045 137.555 84.3045C137.909 84.3045 138.352 84.1191 138.603 83.805V84.1737H139.67V80.481H138.603ZM138.627 82.3868C138.627 81.8324 138.205 81.3781 137.684 81.3781C137.07 81.3781 136.764 81.8631 136.756 82.3715C136.748 82.8721 137.063 83.3881 137.684 83.3881C138.205 83.3881 138.627 82.9416 138.627 82.3868ZM117.421 83.9229V84.2981H118.514V80.4809H117.476V82.696C117.476 83.6576 116.164 83.7173 116.164 82.6328V80.4809H115.079V82.515C115.072 83.4295 115.279 84.3393 116.325 84.3461C116.719 84.3528 117.163 84.2573 117.421 83.9229ZM126.22 84.1736H125.25V80.5638H126.215L126.256 80.9093C126.494 80.684 126.883 80.4887 127.182 80.4887C127.311 80.4887 127.454 80.5091 127.597 80.5433L127.583 81.512C127.474 81.4779 127.212 81.4596 127.09 81.4596C126.703 81.4666 126.22 81.6275 126.22 82.1256V84.1736ZM134.688 78.8482C135.014 78.8414 135.354 79.0462 135.354 79.4763C135.354 79.8722 135.048 80.0702 134.736 80.077C134.41 80.0838 134.07 79.8856 134.07 79.4763C134.07 79.0666 134.376 78.855 134.688 78.8482ZM134.172 84.1736V80.4809H135.259V84.1736H134.172ZM141.43 80.4809V80.8495C141.688 80.5218 142.123 80.4263 142.517 80.4263C143.563 80.44 143.849 81.218 143.842 82.1395V84.1736H142.755V82.0632C142.755 81.565 142.476 81.3398 142.184 81.3398C141.865 81.3398 141.423 81.4911 141.423 82.0837V84.1736H140.349V80.4809H141.43ZM160.354 80.8495V80.4809H159.273V84.1736H160.347V82.0837C160.347 81.4911 160.788 81.3398 161.108 81.3398C161.4 81.3398 161.679 81.565 161.679 82.0632V84.1736H162.766V82.1395C162.773 81.218 162.487 80.44 161.441 80.4263C161.047 80.4263 160.612 80.5218 160.354 80.8495ZM146.133 82.3306C146.133 79.6959 150.053 79.7026 150.053 82.3306C150.053 84.9587 146.133 84.9449 146.133 82.3306ZM148.98 82.3306C148.98 81.0747 147.206 81.0815 147.206 82.3306C147.206 83.5661 148.98 83.5729 148.98 82.3306ZM151.506 83.8324V86H150.57V80.4809H151.547V80.8495C151.799 80.5355 152.325 80.4332 152.678 80.4332C153.847 80.4332 154.493 81.3751 154.486 82.392C154.473 83.4023 153.854 84.318 152.664 84.318C152.304 84.3181 151.751 84.1122 151.506 83.8324ZM152.55 83.3567C152.03 83.3567 151.61 82.9035 151.61 82.3506C151.61 81.7979 152.03 81.3524 152.55 81.3524C153.169 81.3524 153.482 81.8669 153.475 82.366C153.467 82.8651 153.161 83.3567 152.55 83.3567ZM158.712 82.7403H155.951C156.08 83.0814 156.386 83.4252 156.822 83.4252C157.256 83.4252 157.368 83.2589 157.48 83.0926L157.482 83.0895H158.644C158.358 83.9086 157.584 84.3113 156.809 84.2975C155.878 84.277 154.954 83.566 154.954 82.3168C154.954 81.0472 155.912 80.4193 156.87 80.4262C157.815 80.4331 158.752 81.0608 158.752 82.3168C158.752 82.4672 158.739 82.6037 158.712 82.7403ZM156.836 81.3613C157.183 81.3613 157.606 81.5321 157.708 81.9006H156.033C156.142 81.5389 156.517 81.3613 156.836 81.3613Z" fill="#03020D"/>
</svg>
