<svg fill="none" height="1003" viewBox="0 0 1003 1003" width="1003" xmlns="http://www.w3.org/2000/svg" xmlns:xlink="http://www.w3.org/1999/xlink"><linearGradient id="a"><stop offset="0" stop-color="#ff5416"/><stop offset=".1871" stop-color="#ff4c14"/><stop offset=".4706" stop-color="#ff380f"/><stop offset=".8136" stop-color="#ff1606"/><stop offset="1" stop-color="#f00"/></linearGradient><linearGradient id="b" gradientUnits="userSpaceOnUse" x1="338.542" x2="664.617" xlink:href="#a" y1="501.58" y2="501.58"/><linearGradient id="c" gradientUnits="userSpaceOnUse" x1="223.026" x2="780.142" xlink:href="#a" y1="501.584" y2="501.584"/><linearGradient id="d" gradientUnits="userSpaceOnUse" x1="108.117" x2="895.054" xlink:href="#a" y1="501.586" y2="501.586"/><linearGradient id="e" gradientUnits="userSpaceOnUse" x1="-8.32736" x2="1011.5" xlink:href="#a" y1="501.587" y2="501.587"/><g stroke-miterlimit="10" stroke-width="4"><path d="m501.5 655.096c84.829 0 153.596-68.767 153.596-153.596s-68.767-153.596-153.596-153.596-153.596 68.767-153.596 153.596 68.767 153.596 153.596 153.596z" stroke="url(#b)"/><path d="m501.5 769.981c148.278 0 268.481-120.203 268.481-268.481s-120.203-268.481-268.481-268.481-268.481 120.203-268.481 268.481 120.203 268.481 268.481 268.481z" stroke="url(#c)"/><path d="m501.5 884.866c211.727 0 383.366-171.639 383.366-383.366s-171.639-383.366-383.366-383.366-383.366 171.639-383.366 383.366 171.639 383.366 383.366 383.366z" stroke="url(#d)"/><path d="m501.5 1001c275.866 0 499.5-223.634 499.5-499.5s-223.634-499.5-499.5-499.5-499.5 223.634-499.5 499.5 223.634 499.5 499.5 499.5z" stroke="url(#e)"/></g></svg>