<svg width="48" height="48" viewBox="0 0 48 48" fill="none" xmlns="http://www.w3.org/2000/svg">
  <defs>
    <clipPath id="clip0">
      <rect width="48" height="48" fill="white" />
    </clipPath>
  </defs>
  <g clip-path="url(#clip0)">
    <path fill-rule="evenodd" clip-rule="evenodd"
      d="M1 6.25C0.585786 6.25 0.25 6.58579 0.25 7C0.25 7.41421 0.585786 7.75 1 7.75H1.3917C2.87744 7.75 4.17402 8.75754 4.541 10.1972L10.24 32.555C9.35503 33.012 8.75 33.9353 8.75 35C8.75 36.5188 9.98122 37.75 11.5 37.75H42C42.4142 37.75 42.75 37.4142 42.75 37C42.75 36.5858 42.4142 36.25 42 36.25H11.5C10.8096 36.25 10.25 35.6904 10.25 35C10.25 34.3096 10.8096 33.75 11.5 33.75H37.8074C40.8679 33.75 43.5454 31.6909 44.3312 28.7329L48.0572 14.706C48.5208 12.9608 47.2051 11.25 45.3994 11.25H6.35732L5.99452 9.82673C5.45816 7.72255 3.56317 6.25 1.3917 6.25H1ZM6.73967 12.75L11.7103 32.25H37.8074C40.1878 32.25 42.2703 30.6485 42.8815 28.3478L46.6075 14.3209C46.8182 13.5276 46.2202 12.75 45.3994 12.75H6.73967ZM15 43.5C15.8284 43.5 16.5 42.8284 16.5 42C16.5 41.1716 15.8284 40.5 15 40.5C14.1716 40.5 13.5 41.1716 13.5 42C13.5 42.8284 14.1716 43.5 15 43.5ZM15 45C16.6569 45 18 43.6569 18 42C18 40.3431 16.6569 39 15 39C13.3431 39 12 40.3431 12 42C12 43.6569 13.3431 45 15 45ZM38.5 42C38.5 42.8284 37.8284 43.5 37 43.5C36.1716 43.5 35.5 42.8284 35.5 42C35.5 41.1716 36.1716 40.5 37 40.5C37.8284 40.5 38.5 41.1716 38.5 42ZM40 42C40 43.6569 38.6569 45 37 45C35.3431 45 34 43.6569 34 42C34 40.3431 35.3431 39 37 39C38.6569 39 40 40.3431 40 42Z"
      fill="currentColor" />
  </g>
</svg>