<svg width="48" height="48" viewBox="0 0 48 48" fill="none" xmlns="http://www.w3.org/2000/svg">
	<path fill-rule="evenodd" clip-rule="evenodd" d="M38 42.5H10C9.72386 42.5 9.5 42.2761 9.5 42V6C9.5 5.72386 9.72386 5.5 10 5.5H30.3431C31.0062 5.5 31.6421 5.76339 32.1109 6.23223L37.7678 11.8891C38.2366 12.3579 38.5 12.9938 38.5 13.6569V42C38.5 42.2761 38.2761 42.5 38 42.5ZM10 44H38C39.1046 44 40 43.1046 40 42V13.6569C40 12.596 39.5786 11.5786 38.8284 10.8284L33.1716 5.17157C32.4214 4.42143 31.404 4 30.3431 4H10C8.89543 4 8 4.89543 8 6V42C8 43.1046 8.89543 44 10 44ZM20.1167 17.6L14.25 22L20.1167 26.4L19.2167 27.6L12.55 22.6C12.3611 22.4584 12.25 22.2361 12.25 22C12.25 21.764 12.3611 21.5417 12.55 21.4L19.2167 16.4L20.1167 17.6ZM27.7212 14.206L21.7212 35.206L20.2789 34.7939L26.2789 13.7939L27.7212 14.206ZM27.4834 23.6L33.3501 28L27.4834 32.4L28.3834 33.6L35.0501 28.6C35.239 28.4584 35.3501 28.2361 35.3501 28C35.3501 27.764 35.239 27.5417 35.0501 27.4L28.3834 22.4L27.4834 23.6Z" fill="currentColor" />
</svg>
