<svg width="49" height="49" viewBox="0 0 49 49" fill="none" xmlns="http://www.w3.org/2000/svg">
<g clip-path="url(#clip0_3795_3659)">
<path d="M24.316 24.3312C23.9333 24.556 23.491 24.8456 23.0467 25.2011C21.839 26.1672 20.4925 27.7233 20.4925 29.8776V29.891V29.9044V29.9179V29.9315V29.9451V29.9588V29.9725V29.9863V30.0002V30.0141V30.0281V30.0422V30.0563V30.0705V30.0847V30.0991V30.1134V30.1279V30.1424V30.1569V30.1715V30.1862V30.201V30.2158V30.2306V30.2455V30.2605V30.2756V30.2907V30.3058V30.321V30.3363V30.3517V30.3671V30.3825V30.398V30.4136V30.4292V30.4449V30.4606V30.4764V30.4923V30.5082V30.5242V30.5402V30.5563V30.5724V30.5886V30.6049V30.6212V30.6375V30.654V30.6704V30.687V30.7035V30.7202V30.7369V30.7536V30.7704V30.7872V30.8041V30.8211V30.8381V30.8552V30.8723V30.8894V30.9067V30.9239V30.9412V30.9586V30.976V30.9935V31.011V31.0286V31.0462V31.0639V31.0816V31.0994V31.1172V31.1351V31.153V31.171V31.189V31.2071V31.2252V31.2434V31.2616V31.2799V31.2982V31.3165V31.3349V31.3534V31.3719V31.3904V31.409V31.4277V31.4463V31.4651V31.4838V31.5027V31.5215V31.5404V31.5594V31.5784V31.5974V31.6165V31.6357V31.6548V31.6741V31.6933V31.7126V31.732V31.7514V31.7708V31.7903V31.8098V31.8294V31.849V31.8686V31.8883V31.908V31.9278V31.9476V31.9675V31.9874V32.0073V32.0273V32.0473V32.0673V32.0874V32.1075V32.1277V32.1479V32.1682V32.1884V32.2088V32.2291V32.2495V32.27V32.2904V32.311V32.3315V32.3521V32.3727V32.3934V32.4141V32.4348V32.4556V32.4764V32.4972V32.5181V32.539V32.5599V32.5809V32.6019V32.623V32.644V32.6652V32.6863V32.7075V32.7287V32.75V32.7712V32.7926V32.8139V32.8353V32.8567V32.8781V32.8996V32.9211V32.9427V32.9642V32.9858V33.0075V33.0291V33.0508V33.0725V33.0943V33.1161V33.1379V33.1597V33.1816V33.2035V33.2254V33.2474V33.2693V33.2913V33.3134V33.3355V33.3575V33.3797V33.4018V33.424V33.4462V33.4684V33.4907V33.513V33.5353V33.5576V33.58V33.6023V33.6248V33.6472V33.6696V33.6921V33.7146V33.7372V33.7597V33.7823V33.8049V33.8275V33.8502V33.8729V33.8956V33.9183V33.941V33.9638V33.9866V34.0094V34.0322V34.055V34.0779V34.1008V34.1237V34.1467V34.1696V34.1926V34.2156V34.2386V34.2616V34.2847V34.3077V34.3308V34.3539V34.3771V34.4002V34.4234V34.4466V34.4698V34.493V34.5162V34.5395V34.5627V34.586V34.6093V34.6326V34.656V34.6793V34.7027V34.7261V34.7495V34.7729V34.7963V34.8198V34.8432V34.8667V34.8902V34.9137V34.9372V34.9607V34.9843V35.0078V35.0314V35.055V35.0786V35.1022V35.1258V35.1494V35.173V35.1967V35.2204V35.244V35.2677V35.2914V35.3151V35.3389V35.3626V35.3863V35.4101V35.4338V35.4576V35.4814V35.5052V35.5289V35.5528V35.5766V35.6004V35.6242V35.648V35.6719V35.6957V35.7196V35.7435V35.7673V35.7912V35.8151V35.839V35.8629V35.8868V35.9107V35.9346V35.9585V35.9825V36.0064V36.0303V36.0543V36.0782V36.1022V36.1261V36.1501V36.174V36.198V36.2219V36.2459V36.2699V36.2939V36.3178V36.3418V36.3658V36.3898V36.4137V36.4377V36.4617V36.4857V36.5097V36.5337V36.5577V36.5816V36.6056V36.6296V36.6536V36.6776V36.7016V36.7256V36.7495V36.7735V36.7975V36.8215V36.8454V36.8694V36.8934V36.9174V36.9413V36.9653V36.9892V37.0132V37.0371V37.0611V37.085V37.109V37.1329V37.1568V37.1808V37.2047V37.2286V37.2525V37.2764V37.3003V37.3242V37.3481V37.372V37.3958V37.4197V37.4436V37.4674V37.4912V37.5151V37.5389V37.5627V37.5865V37.6103V37.6341V37.6579V37.6817V37.7055V37.7292V37.753V37.7767V37.8004V37.8241V37.8479V37.8715V37.8952V37.9189V37.9426V37.9662V37.9899V38.0135V38.0371V38.0607V38.0843V38.1079V38.1314V38.155V38.1785V38.2021V38.2256V38.2491V38.2726V38.296V38.3195V38.3429V38.3664V38.3898V38.4132V38.4365V38.4599V38.4833V38.5066V38.5299V38.5532V38.5765V38.5998V38.623V38.6463V38.6695V38.6927V38.7158V38.739V38.7622V38.7853V38.8084V38.8315V38.8545V38.8776V38.9006V38.9236V38.9466V38.9696V38.9925V39.0155V39.0384V39.0613V39.0842V39.107V39.1298V39.1526V39.1754V39.1982V39.2209V39.2436V39.2663V39.289V39.3116V39.3343V39.3569V39.3794V39.402V39.4245V39.447V39.4695V39.492V39.5144V39.5368V39.5592V39.5815V39.6039V39.6262V39.6485V39.6707V39.6929V39.7151V39.7373V39.7595V39.7816V39.8037V39.8257V39.8478V39.8698V39.8918V39.9137V39.9356V39.9575V39.9794V40.0012V40.023V40.0448V40.0666V40.0883V40.11V40.1316V40.1533V40.1749V40.1964V40.218V40.2395V40.2609V40.2824V40.3038V40.3252V40.3465V40.3678V40.3891V40.4103V40.4316V40.4527V40.4739V40.495V40.5161V40.5371V40.5581V40.5791V40.6V40.6209V40.6418V40.6626V40.6834V40.7042V40.7249V40.7456V40.7663V40.7869C20.4925 42.381 19.2002 43.6731 17.6061 43.6731H3.96973C2.37564 43.6731 1.08337 42.3808 1.08337 40.7867V8.05946C1.08337 6.46537 2.37564 5.1731 3.96974 5.1731H17.6061C19.201 5.1731 20.4925 6.46308 20.4925 8.05634V8.07811V8.09991V8.12176V8.14364V8.16556V8.18753V8.20953V8.23156V8.25364V8.27576V8.29791V8.3201V8.34232V8.36459V8.38689V8.40922V8.43159V8.454V8.47645V8.49892V8.52144V8.54399V8.56657V8.58919V8.61184V8.63453V8.65724V8.68V8.70278V8.7256V8.74845V8.77134V8.79425V8.8172V8.84018V8.86319V8.88623V8.90931V8.93241V8.95554V8.97871V9.0019V9.02513V9.04838V9.07166V9.09497V9.11832V9.14168V9.16508V9.18851V9.21196V9.23544V9.25895V9.28248V9.30604V9.32963V9.35325V9.37689V9.40055V9.42425V9.44796V9.47171V9.49547V9.51926V9.54308V9.56692V9.59079V9.61467V9.63858V9.66252V9.68648V9.71045V9.73446V9.75848V9.78253V9.8066V9.83068V9.85479V9.87893V9.90308V9.92725V9.95144V9.97566V9.99989V10.0241V10.0484V10.0727V10.097V10.1213V10.1457V10.17V10.1944V10.2188V10.2432V10.2677V10.2921V10.3166V10.3411V10.3656V10.3901V10.4146V10.4392V10.4637V10.4883V10.5129V10.5375V10.5621V10.5867V10.6114V10.636V10.6607V10.6854V10.7101V10.7348V10.7595V10.7843V10.809V10.8338V10.8585V10.8833V10.9081V10.9329V10.9577V10.9825V11.0074V11.0322V11.0571V11.0819V11.1068V11.1317V11.1565V11.1814V11.2063V11.2312V11.2562V11.2811V11.306V11.3309V11.3559V11.3808V11.4058V11.4307V11.4557V11.4807V11.5056V11.5306V11.5556V11.5806V11.6056V11.6306V11.6556V11.6806V11.7056V11.7306V11.7556V11.7806V11.8056V11.8306V11.8556V11.8806V11.9057V11.9307V11.9557V11.9807V12.0057V12.0308V12.0558V12.0808V12.1058V12.1308V12.1558V12.1808V12.2058V12.2309V12.2559V12.2809V12.3059V12.3309V12.3558V12.3808V12.4058V12.4308V12.4558V12.4807V12.5057V12.5307V12.5556V12.5806V12.6055V12.6305V12.6554V12.6803V12.7052V12.7301V12.755V12.7799V12.8048V12.8297V12.8546V12.8794V12.9043V12.9291V12.954V12.9788V13.0036V13.0284V13.0532V13.078V13.1028V13.1275V13.1523V13.177V13.2017V13.2265V13.2512V13.2759V13.3005V13.3252V13.3499V13.3745V13.3991V13.4237V13.4483V13.4729V13.4975V13.522V13.5466V13.5711V13.5956V13.6201V13.6446V13.669V13.6935V13.7179V13.7423V13.7667V13.7911V13.8154V13.8397V13.8641V13.8884V13.9126V13.9369V13.9611V13.9854V14.0096V14.0337V14.0579V14.0821V14.1062V14.1303V14.1543V14.1784V14.2024V14.2265V14.2504V14.2744V14.2984V14.3223V14.3462V14.3701V14.3939V14.4177V14.4415V14.4653V14.4891V14.5128V14.5365V14.5602V14.5838V14.6075V14.6311V14.6546V14.6782V14.7017V14.7252V14.7487V14.7721V14.7955V14.8189V14.8423V14.8656V14.8889V14.9121V14.9354V14.9586V14.9818V15.0049V15.028V15.0511V15.0742V15.0972V15.1202V15.1432V15.1661V15.189V15.2119V15.2347V15.2575V15.2803V15.303V15.3257V15.3484V15.371V15.3936V15.4162V15.4387V15.4612V15.4837V15.5061V15.5285V15.5508V15.5731V15.5954V15.6177V15.6399V15.662V15.6842V15.7063V15.7283V15.7503V15.7723V15.7943V15.8162V15.838V15.8599V15.8816V15.9034V15.9251V15.9468V15.9684V15.99V16.0115V16.033V16.0545V16.0759V16.0973V16.1186V16.1399V16.1611V16.1823V16.2035V16.2246V16.2457V16.2667V16.2877V16.3086V16.3295V16.3504V16.3712V16.392V16.4127V16.4333V16.454V16.4745V16.4951V16.5156V16.536V16.5564V16.5767V16.597V16.6173V16.6375V16.6576V16.6777V16.6978V16.7178V16.7377V16.7576V16.7775V16.7973V16.817V16.8367V16.8564V16.876V16.8955V16.915V16.9344V16.9538V16.9732V16.9924V17.0117V17.0308V17.05V17.069V17.0881V17.107V17.1259V17.1448V17.1636V17.1823V17.201V17.2196V17.2382V17.2567V17.2752V17.2936V17.3119V17.3302V17.3485V17.3666V17.3848V17.4028V17.4208V17.4388V17.4567V17.4745V17.4922V17.5099V17.5276V17.5452V17.5627V17.5802V17.5976V17.6149V17.6322V17.6494V17.6666V17.6837V17.7007V17.7177V17.7346V17.7514V17.7682V17.7849V17.8016V17.8182V17.8347V17.8512V17.8676V17.8839V17.9002V17.9164V17.9325V17.9486V17.9646V17.9805V17.9964V18.0122V18.0279V18.0436V18.0592V18.0747V18.0902V18.1056V18.1209V18.1362V18.1514V18.1665V18.1815V18.1965V18.2114V18.2263V18.241V18.2557V18.2704V18.2849V18.2994V18.3138V18.3282V18.3424V18.3566V18.3708V18.3848V18.3988V18.4127V18.4265V18.4403V18.454V18.4676V18.4811V18.4946V18.5079V18.5212V18.5345V18.5476V18.5607V18.5737V18.5866V18.5995V18.6123V18.625V18.6376V18.6501V18.6626V18.675V18.6873V18.6995V18.7116V18.7237V18.7357V18.7476V18.7594V18.7712V18.7828V18.7944V18.8059V18.8173V18.8287V18.8399V18.8511V18.8622V18.8732V18.8841V18.895V18.9057V18.9164V18.927V18.9375V18.948V18.9583V18.9686C20.4925 19.8555 20.8591 20.683 21.3287 21.3874C21.802 22.0974 22.4192 22.7412 23.0135 23.276C23.4719 23.6886 23.9283 24.0468 24.316 24.3312Z" stroke="#C6CED9" stroke-width="1.5" stroke-linecap="round" stroke-linejoin="round"/>
<ellipse cx="15.1709" cy="13.3511" rx="2.43507" ry="4.38312" stroke="#C6CED9" stroke-width="1.5"/>
<path d="M15.6579 8.96802H6.89168C5.27786 8.96802 3.9696 10.9304 3.9696 13.3511C3.9696 15.7719 5.27786 17.7343 6.89168 17.7343H15.6579" stroke="#C6CED9" stroke-width="1.5"/>
<ellipse cx="15.1709" cy="24.8443" rx="2.43507" ry="4.38312" stroke="#C6CED9" stroke-width="1.5"/>
<path d="M15.6579 20.4612H6.89168C5.27786 20.4612 3.9696 22.4236 3.9696 24.8443C3.9696 27.265 5.27786 29.2274 6.89168 29.2274H15.6579" stroke="#C6CED9" stroke-width="1.5"/>
<ellipse cx="15.1709" cy="36.3375" rx="2.43507" ry="4.38312" stroke="#C6CED9" stroke-width="1.5"/>
<path d="M15.6579 31.9543H6.89168C5.27786 31.9543 3.9696 33.9167 3.9696 36.3375C3.9696 38.7582 5.27786 40.7206 6.89168 40.7206H15.6579" stroke="#C6CED9" stroke-width="1.5"/>
<path d="M32.0607 24.4231L24.788 24.4231" stroke="#C6CED9" stroke-width="1.5" stroke-linecap="round"/>
<circle cx="41.3334" cy="24.4231" r="7" fill="#FF5416"/>
<path d="M38.1026 24.8717L40.6872 27.1153L44.5641 21.7307" stroke="#03020D" stroke-width="1.5" stroke-linecap="round" stroke-linejoin="round"/>
</g>
<defs>
<clipPath id="clip0_3795_3659">
<rect width="48" height="48" fill="white" transform="translate(0.333374 0.423096)"/>
</clipPath>
</defs>
</svg>
