<svg width="40" height="41" viewBox="0 0 40 41" fill="none" xmlns="http://www.w3.org/2000/svg">
<path d="M25.8337 34.6667C25.8337 35.5 25.0003 36.3333 24.167 36.3333C23.3337 36.3333 6.66699 36.3333 5.83366 36.3333C5.00033 36.3333 4.16699 35.5 4.16699 34.6667C4.16699 33.8333 4.16699 7.16658 4.16699 6.33329C4.16699 5.50001 5.00033 4.66667 5.83361 4.66667C6.6669 4.66667 24.167 4.66667 24.167 4.66667C25.0003 4.66667 25.8337 5.50001 25.8337 6.33334C25.8337 6.57137 25.8337 11.0005 25.8337 14.25" stroke="#03020D" stroke-width="1.5" stroke-linecap="round"/>
<path d="M7.5 32.1667H16.6667" stroke="#03020D" stroke-width="1.5" stroke-linecap="round" stroke-linejoin="round"/>
<path d="M7.5 28.8333H14.1667" stroke="#03020D" stroke-width="1.5" stroke-linecap="round" stroke-linejoin="round"/>
<path d="M7.5 25.5H16.6667" stroke="#03020D" stroke-width="1.5" stroke-linecap="round" stroke-linejoin="round"/>
<path d="M7.5 22.1667H14.1667" stroke="#03020D" stroke-width="1.5" stroke-linecap="round" stroke-linejoin="round"/>
<path d="M11.667 17.1667H15.0003" stroke="#03020D" stroke-width="1.5" stroke-linecap="round" stroke-linejoin="round"/>
<path fill-rule="evenodd" clip-rule="evenodd" d="M27.6827 15.551C27.8319 15.483 28.0021 15.483 28.1513 15.551L35.0744 18.7089C35.2827 18.804 35.417 19.016 35.417 19.25C35.417 19.484 35.2827 19.696 35.0744 19.7911L28.1513 22.949C28.0021 23.017 27.8319 23.017 27.6827 22.949L20.7596 19.7911C20.5513 19.696 20.417 19.484 20.417 19.25C20.417 19.016 20.5513 18.804 20.7596 18.7089L27.6827 15.551Z" fill="#FF5416"/>
<path fill-rule="evenodd" clip-rule="evenodd" d="M35.5902 20.5918C35.7422 20.6966 35.834 20.8758 35.834 21.0682V29.5909C35.834 29.8203 35.7039 30.0272 35.5043 30.1154L29.0757 32.9563C28.9104 33.0294 28.7216 33.01 28.5725 32.9046C28.4235 32.7992 28.334 32.6218 28.334 32.4318V24.0985C28.334 23.8739 28.4587 23.6705 28.6521 23.5793L35.0807 20.549C35.2464 20.4709 35.4381 20.487 35.5902 20.5918Z" fill="#FF5416"/>
<path fill-rule="evenodd" clip-rule="evenodd" d="M20.2438 20.5918C20.3959 20.487 20.5876 20.4709 20.7533 20.549L27.1819 23.5793C27.3753 23.6705 27.5 23.8739 27.5 24.0985V32.4318C27.5 32.6218 27.4105 32.7992 27.2614 32.9046C27.1124 33.01 26.9236 33.0294 26.7582 32.9563L20.3297 30.1154C20.13 30.0272 20 29.8203 20 29.5909V21.0682C20 20.8758 20.0917 20.6966 20.2438 20.5918Z" fill="#FF5416"/>
<path d="M7.50054 17.1667L10.2783 15.0833L7.50054 13" stroke="#03020D" stroke-width="1.5" stroke-linecap="round" stroke-linejoin="round"/>
<path d="M32.2462 10.9979L31.9413 11.6077L31.3316 11.9125L29.9899 12.5833L31.3316 13.2542L31.9413 13.559L32.2462 14.1688L32.917 15.5104L33.5878 14.1688L33.8927 13.559L34.5024 13.2542L35.844 12.5833L34.5024 11.9125L33.8927 11.6077L33.5878 10.9979L32.917 9.65629L32.2462 10.9979Z" stroke="#03020D" stroke-width="1.5" stroke-linecap="round"/>
<path d="M4.16699 9.66667L25.8337 9.66667" stroke="#03020D" stroke-width="1.5" stroke-linejoin="round"/>
<mask id="path-13-inside-1_422_2258" fill="white">
<ellipse cx="11.6673" cy="7.16668" rx="0.833333" ry="0.833333"/>
</mask>
<ellipse cx="11.6673" cy="7.16668" rx="0.833333" ry="0.833333" fill="#03020D"/>
<path d="M11.5007 7.16668C11.5007 7.07463 11.5753 7.00001 11.6673 7.00001V9.00001C12.6798 9.00001 13.5007 8.1792 13.5007 7.16668H11.5007ZM11.6673 7.00001C11.7594 7.00001 11.834 7.07463 11.834 7.16668H9.83398C9.83398 8.1792 10.6548 9.00001 11.6673 9.00001V7.00001ZM11.834 7.16668C11.834 7.25872 11.7594 7.33334 11.6673 7.33334V5.33334C10.6548 5.33334 9.83398 6.15415 9.83398 7.16668H11.834ZM11.6673 7.33334C11.5753 7.33334 11.5007 7.25872 11.5007 7.16668H13.5007C13.5007 6.15415 12.6798 5.33334 11.6673 5.33334V7.33334Z" fill="#03020D" mask="url(#path-13-inside-1_422_2258)"/>
<mask id="path-15-inside-2_422_2258" fill="white">
<ellipse cx="9.16732" cy="7.16668" rx="0.833333" ry="0.833333"/>
</mask>
<ellipse cx="9.16732" cy="7.16668" rx="0.833333" ry="0.833333" fill="#03020D"/>
<path d="M9.00065 7.16668C9.00065 7.07463 9.07527 7.00001 9.16732 7.00001V9.00001C10.1798 9.00001 11.0007 8.1792 11.0007 7.16668H9.00065ZM9.16732 7.00001C9.25936 7.00001 9.33398 7.07463 9.33398 7.16668H7.33398C7.33398 8.1792 8.1548 9.00001 9.16732 9.00001V7.00001ZM9.33398 7.16668C9.33398 7.25872 9.25936 7.33334 9.16732 7.33334V5.33334C8.1548 5.33334 7.33398 6.15415 7.33398 7.16668H9.33398ZM9.16732 7.33334C9.07527 7.33334 9.00065 7.25872 9.00065 7.16668H11.0007C11.0007 6.15415 10.1798 5.33334 9.16732 5.33334V7.33334Z" fill="#03020D" mask="url(#path-15-inside-2_422_2258)"/>
<circle cx="6.66732" cy="7.16668" r="0.5" fill="#03020D" stroke="#03020D" stroke-width="0.666667"/>
</svg>
