<svg width="60" height="60" viewBox="0 0 60 60" fill="none" xmlns="http://www.w3.org/2000/svg">
    <path d="M13.6999 13.6957C9.40409 17.9914 9.18585 24.738 13.2124 28.7646L17.9425 33.4946L33.4988 17.9383L28.7688 13.2082C24.7422 9.18165 17.9956 9.39989 13.6999 13.6957Z" stroke="#C6CED9" stroke-width="1.5" stroke-linejoin="round"/>
    <path d="M51.2129 51.2085L44.3844 44.3801" stroke="#FF5416" stroke-width="1.5" stroke-linecap="round" stroke-linejoin="round"/>
    <path fill-rule="evenodd" clip-rule="evenodd" d="M46.4514 46.4464C41.8956 51.0022 34.6731 51.2851 30.3219 46.9338L25.5918 42.2037C25.2989 41.9108 25.2989 41.436 25.5918 41.1431L41.1482 25.5867C41.441 25.2938 41.9159 25.2938 42.2088 25.5867L46.9389 30.3168C51.2902 34.6681 51.0073 41.8906 46.4514 46.4464Z" fill="#FF5416"/>
    <path d="M8.78645 8.78223L13.7362 13.732" stroke="#C6CED9" stroke-width="1.5" stroke-linecap="round" stroke-linejoin="round"/>
    <path d="M29.2926 22.2168L34.2423 27.1665" stroke="#C6CED9" stroke-width="1.5" stroke-linecap="round" stroke-linejoin="round"/>
    <path d="M22.2215 29.2881L27.1712 34.2378" stroke="#C6CED9" stroke-width="1.5" stroke-linecap="round" stroke-linejoin="round"/>
</svg>
