<svg width="48" height="48" viewBox="0 0 48 48" fill="none" xmlns="http://www.w3.org/2000/svg">
<path d="M7 0H40.7377V34.2326C40.7377 34.2326 38.2001 40.4784 23.8021 48C23.8021 48 10.2055 41.1429 7 33.3821V0Z" fill="white"/>
<path d="M8.86987 1.76416V32.319C11.7014 39.2293 23.8822 45.2625 23.8822 45.2625V1.76416H8.86987Z" fill="#03020D"/>
<path d="M23.8021 1.76416V24.5H31.8287V1.76416H23.8021ZM26.8719 20.791L25.9707 20.1465L25.0695 20.791L25.3793 19.7822L24.478 19.1377H25.4919L25.8862 18.0729L26.196 19.1377H27.2662L26.365 19.7878L26.8719 20.791ZM26.5058 14.5141L26.9001 15.5789L26.0045 14.9344L25.0976 15.5845L25.4074 14.5757L24.5062 13.9312H25.5201L25.9144 12.8664L26.2242 13.8752H27.2944L26.5058 14.5141ZM26.5058 9.24599L26.9001 10.3108L26.0045 9.66632L25.1033 10.3108L25.4131 9.24599L24.5118 8.60149H25.5257L25.92 7.5927L26.2298 8.60149H27.3L26.5058 9.24599ZM26.5058 4.03393L26.9001 5.04271L26.0045 4.39821L25.1033 5.04271L25.4131 4.03393L24.5118 3.38943H25.5257L25.92 2.3246L26.2298 3.38943H27.3L26.5058 4.03393ZM30.6458 23.4531L29.7446 22.8086L28.8434 23.4531L29.1532 22.3882L28.2576 21.7493H29.3278L29.6376 20.7405L29.9474 21.7493H31.0176L30.1164 22.3938L30.6458 23.4531ZM30.3079 17.1201L30.6177 18.185L29.7446 17.5685L28.8434 18.213L29.1532 17.2042L28.2576 16.5597H29.3278L29.6376 15.4949L29.9474 16.5597H31.0176L30.3079 17.1201ZM30.3079 11.9081L30.6177 12.9169L29.7164 12.2723L28.8208 12.9169L29.1306 11.9081L28.2294 11.2636H29.2996L29.6094 10.1987L29.9192 11.2636H30.9894L30.3079 11.9081ZM30.3079 6.63996L30.6177 7.70479L29.7164 7.06029L28.8208 7.70479L29.1306 6.63996L28.2294 5.99546H29.2996L29.6094 4.98667L29.9192 5.99546H30.9894L30.3079 6.63996Z" fill="#03020D"/>
<path d="M19.2877 14.8094H20.7302L19.5281 15.6599L20.0089 17.0419L18.8069 16.1914L17.6102 17.0366L18.091 15.6546L16.8836 14.8094H18.326L18.8069 13.4273L19.2877 14.8094ZM14.0788 20.816L15.2808 19.9124L16.4829 20.816L16.0074 19.4286L17.2095 18.525H15.6869L15.206 17.1429L14.7733 18.5303H13.2507L14.4527 19.434L14.0788 20.816ZM13.9452 24.7761L15.1473 25.6266L14.6718 24.2393L15.8738 23.3888H14.4314L13.9506 22.0067L13.5232 23.3888H12.0807L13.2827 24.2393L12.8019 25.6213L13.9452 24.7761ZM17.1507 28.4705H15.7082L15.2274 27.0884L14.8 28.4705H13.2774L14.4795 29.321L14.0521 30.7562L15.2541 29.8526L16.4562 30.7562L15.9754 29.3742L17.1507 28.4705ZM19.2076 32.2446L18.7802 30.8625L18.2993 32.2446H16.8569L18.0589 33.0951L17.5781 34.5303L18.7802 33.6798L19.9822 34.5303L19.5014 33.1482L20.7034 32.2977L19.2076 32.2446ZM23.4014 13.3476H21.9589L23.161 14.1981L22.6855 15.5748L23.8876 14.7243V11.9602L23.4014 13.3476ZM23.4014 34.1848H21.9589L23.161 35.0353L22.6802 36.4705L23.8822 35.5668V32.8559L23.4014 34.1848Z" fill="white"/>
<path d="M31.4419 21.188V18.1794H38.7611V21.188H31.4419ZM38.7611 8.90896V5.84717H31.5006V8.90365L38.7611 8.90896ZM23.8823 42.7163V45.2412C23.8823 45.2412 25.7521 44.2844 28.2898 42.7163H23.8823ZM23.8823 33.4405H38.2802C38.5061 33.0529 38.7111 32.6537 38.8946 32.2445V30.4372H23.8823V27.3276H38.8145V24.2658H23.8823V33.4352V33.4405ZM38.7611 15.0485V12.0399H31.5006V15.0432L38.7611 15.0485ZM23.8823 36.5767V39.5801H32.5905C33.7893 38.6576 34.9228 37.6542 35.983 36.5767H23.8823Z" fill="#03020D"/>
</svg>
