<svg width="48" height="48" viewBox="0 0 48 48" fill="none" xmlns="http://www.w3.org/2000/svg">
    <path d="M27.0001 35.106H43.0001" stroke="#C6CED9" stroke-width="1.5" stroke-linecap="round"/>
    <path d="M35.1136 26.9951V42.9951" stroke="#C6CED9" stroke-width="1.5" stroke-linecap="round"/>
    <path d="M18 26.9951H8C6 26.9951 5 27.995 5 29.9951V39.9951C5 41.9951 6 42.9951 8 42.9951H18C20 42.9951 21 41.9951 21 39.9951V29.9951C21 27.9951 20 26.9951 18 26.9951Z" stroke="#C6CED9" stroke-width="1.5"/>
    <path d="M40 4.99512H30C28 4.99512 27 5.99498 27 7.99512V17.9951C27 19.9951 28 20.9951 30 20.9951H40C42 20.9951 43 19.9951 43 17.9951V7.99512C43 5.99512 42 4.99512 40 4.99512Z" stroke="#C6CED9" stroke-width="1.5"/>
    <path fill-rule="evenodd" clip-rule="evenodd" d="M5.21968 5.21472C5.90995 4.52448 6.88442 4.24512 8 4.24512H18C19.1156 4.24512 20.0901 4.52453 20.7803 5.21479C21.4706 5.90505 21.75 6.87951 21.75 7.99512V17.9951C21.75 19.1107 21.4706 20.0852 20.7803 20.7754C20.0901 21.4657 19.1156 21.7451 18 21.7451H8C6.88439 21.7451 5.90993 21.4657 5.21967 20.7754C4.52941 20.0852 4.25 19.1107 4.25 17.9951V7.99512C4.25 6.87945 4.5294 5.90498 5.21968 5.21472Z" fill="#FF5416"/>
</svg>