<svg width="48" height="48" viewBox="0 0 48 48" fill="none" xmlns="http://www.w3.org/2000/svg">
<path d="M19 3.59888C9.81598 5.842 3 14.125 3 24C3 33.875 9.81598 42.158 19 44.4011M29 3.59888C32.9541 4.56464 36.4693 6.65 39.1905 9.49999M44.1304 18C44.6962 19.9011 45 21.9151 45 24C45 26.2687 44.6403 28.4533 43.9747 30.5M38.8336 38.8649C36.1649 41.528 32.7834 43.477 29 44.4011" stroke="#03020D" stroke-width="1.5" stroke-linecap="round"/>
<circle cx="42" cy="13.5" r="2" fill="#FF5416"/>
<circle cx="24" cy="3" r="2" fill="#FF5416"/>
<circle cx="24" cy="45" r="2" fill="#FF5416"/>
<circle cx="42" cy="35" r="2" fill="#FF5416"/>
<path d="M32.8453 25.5085C31.7549 25.5085 30.7774 25.9916 30.108 26.7521L28.3927 25.5378C28.5748 25.0365 28.6793 24.4982 28.6793 23.9347C28.6793 23.381 28.5784 22.8518 28.4023 22.3578L30.1138 21.1564C30.7831 21.9131 31.7581 22.3935 32.8453 22.3935C34.8578 22.3935 36.4954 20.7562 36.4954 18.7434C36.4954 16.7306 34.8578 15.0933 32.8453 15.0933C30.8328 15.0933 29.1952 16.7306 29.1952 18.7434C29.1952 19.1037 29.2496 19.4511 29.3473 19.7801L27.6347 20.9822C26.9193 20.0946 25.8892 19.475 24.7156 19.2858V17.2217C26.369 16.8745 27.6147 15.4054 27.6147 13.6501C27.6147 11.6373 25.9772 10 23.9647 10C21.9521 10 20.3146 11.6373 20.3146 13.6501C20.3146 15.3819 21.5281 16.8328 23.1484 17.2049V19.2958C20.9371 19.6839 19.25 21.6138 19.25 23.9347C19.25 26.267 20.9538 28.2039 23.1811 28.5789V30.7867C21.5442 31.1465 20.3146 32.6063 20.3146 34.3499C20.3146 36.3627 21.9521 38 23.9647 38C25.9772 38 27.6147 36.3627 27.6147 34.3499C27.6147 32.6063 26.3851 31.1465 24.7482 30.7867V28.5788C25.8988 28.3851 26.9099 27.7776 27.618 26.9098L29.3447 28.132C29.2489 28.458 29.1952 28.802 29.1952 29.1586C29.1952 31.1714 30.8328 32.8087 32.8453 32.8087C34.8578 32.8087 36.4954 31.1714 36.4954 29.1586C36.4954 27.1458 34.8578 25.5085 32.8453 25.5085V25.5085ZM32.8453 16.9737C33.8212 16.9737 34.615 17.7678 34.615 18.7434C34.615 19.7191 33.8212 20.5131 32.8453 20.5131C31.8694 20.5131 31.0756 19.7191 31.0756 18.7434C31.0756 17.7678 31.8694 16.9737 32.8453 16.9737V16.9737ZM22.1949 13.6501C22.1949 12.6745 22.9887 11.8804 23.9647 11.8804C24.9406 11.8804 25.7343 12.6745 25.7343 13.6501C25.7343 14.6258 24.9406 15.4198 23.9647 15.4198C22.9887 15.4198 22.1949 14.6258 22.1949 13.6501V13.6501ZM25.7343 34.3499C25.7343 35.3255 24.9406 36.1196 23.9647 36.1196C22.9887 36.1196 22.1949 35.3255 22.1949 34.3499C22.1949 33.3742 22.9887 32.5802 23.9647 32.5802C24.9406 32.5802 25.7343 33.3742 25.7343 34.3499ZM23.9645 26.4028C22.6034 26.4028 21.4961 25.2958 21.4961 23.9347C21.4961 22.5736 22.6034 21.4663 23.9645 21.4663C25.3256 21.4663 26.4328 22.5736 26.4328 23.9347C26.4328 25.2958 25.3256 26.4028 23.9645 26.4028V26.4028ZM32.8453 30.9284C31.8694 30.9284 31.0756 30.1343 31.0756 29.1586C31.0756 28.183 31.8694 27.3889 32.8453 27.3889C33.8212 27.3889 34.615 28.183 34.615 29.1586C34.615 30.1343 33.8212 30.9284 32.8453 30.9284Z" fill="#03020D"/>
</svg>
