<svg width="49" height="49" viewBox="0 0 49 49" fill="none" xmlns="http://www.w3.org/2000/svg">
<ellipse cx="14.988" cy="9.24452" rx="2.67857" ry="4.82143" stroke="#C6CED9" stroke-width="1.5"/>
<path d="M15.5238 4.4231H5.88091C4.10571 4.4231 2.66663 6.58172 2.66663 9.24452C2.66663 11.9073 4.10571 14.066 5.88091 14.066H15.5238" stroke="#C6CED9" stroke-width="1.5"/>
<ellipse cx="14.988" cy="24.2445" rx="2.67857" ry="4.82143" stroke="#C6CED9" stroke-width="1.5"/>
<path d="M15.5238 19.4231H5.88091C4.10571 19.4231 2.66663 21.5817 2.66663 24.2445C2.66663 26.9073 4.10571 29.066 5.88091 29.066H15.5238" stroke="#C6CED9" stroke-width="1.5"/>
<ellipse cx="14.988" cy="39.2445" rx="2.67857" ry="4.82143" stroke="#C6CED9" stroke-width="1.5"/>
<path d="M15.5238 34.4231H5.88091C4.10571 34.4231 2.66663 36.5817 2.66663 39.2445C2.66663 41.9073 4.10571 44.066 5.88091 44.066H15.5238" stroke="#C6CED9" stroke-width="1.5"/>
<rect x="34.6666" y="10.4231" width="8" height="8" rx="2" fill="#FF5416"/>
<rect x="34.6666" y="30.4231" width="8" height="8" rx="2" fill="#FF5416"/>
<path d="M38.6666 21.4231L38.6666 27.4231" stroke="#FF5416" stroke-width="1.5" stroke-linecap="round" stroke-dasharray="1 3"/>
<path d="M15.6666 39.4231V39.4231C17.4357 39.4231 19.024 38.3388 19.6684 36.6913L23.6653 26.472C24.1486 25.2363 25.3398 24.4231 26.6666 24.4231V24.4231" stroke="#C6CED9" stroke-width="1.5" stroke-miterlimit="10" stroke-linecap="round" stroke-linejoin="round"/>
<path d="M15.6666 9.4231V9.4231C17.4357 9.4231 19.024 10.5074 19.6684 12.1549L23.6653 22.3742C24.1486 23.6099 25.3398 24.4231 26.6666 24.4231V24.4231" stroke="#C6CED9" stroke-width="1.5" stroke-miterlimit="10" stroke-linecap="round" stroke-linejoin="round"/>
<path d="M15.6666 24.4231H26.6666" stroke="#C6CED9" stroke-width="1.5" stroke-linecap="round"/>
<path d="M46.6666 10.4231C46.6666 8.21396 44.8758 6.4231 42.6666 6.4231H34.6666C32.4575 6.4231 30.6666 8.21201 30.6666 10.4211C30.6666 13.5582 30.6666 17.6767 30.6666 19.4231C30.6666 22.4231 26.6666 24.4231 26.6666 24.4231C26.6666 24.4231 30.6666 25.4231 30.6666 29.4231C30.6666 31.672 30.6666 35.5013 30.6666 38.4232C30.6666 40.6323 32.4575 42.4231 34.6666 42.4231H42.6666C44.8758 42.4231 46.6666 40.6322 46.6666 38.4231V10.4231Z" stroke="#C6CED9" stroke-width="1.5" stroke-linecap="round" stroke-linejoin="round"/>
</svg>
