<svg width="40" height="41" viewBox="0 0 40 41" fill="none" xmlns="http://www.w3.org/2000/svg">
<path d="M15.833 33V32.25C15.4188 32.25 15.083 32.5858 15.083 33H15.833ZM24.1663 33H24.9163C24.9163 32.5858 24.5806 32.25 24.1663 32.25V33ZM15.833 36.125H15.083C15.083 36.4278 15.2651 36.7009 15.5445 36.8173L15.833 36.125ZM24.1663 36.125L24.4548 36.8173C24.7343 36.7009 24.9163 36.4278 24.9163 36.125H24.1663ZM15.833 33.75H24.1663V32.25H15.833V33.75ZM15.083 33V36.125H16.583V33H15.083ZM15.833 36.125C15.5445 36.8173 15.5446 36.8173 15.5447 36.8174C15.5448 36.8174 15.5449 36.8175 15.545 36.8175C15.5452 36.8176 15.5454 36.8177 15.5456 36.8178C15.5462 36.818 15.5468 36.8183 15.5477 36.8186C15.5493 36.8193 15.5516 36.8202 15.5544 36.8214C15.5601 36.8237 15.5681 36.827 15.5784 36.8312C15.599 36.8396 15.6286 36.8516 15.6665 36.8667C15.7422 36.8968 15.851 36.9393 15.9863 36.99C16.2565 37.0913 16.6346 37.2264 17.0676 37.3617C17.9121 37.6256 19.0456 37.9167 19.9997 37.9167V36.4167C19.2871 36.4167 18.3372 36.1869 17.515 35.93C17.1147 35.8049 16.7637 35.6795 16.513 35.5855C16.3879 35.5386 16.2884 35.4997 16.2209 35.4729C16.1871 35.4594 16.1614 35.449 16.1446 35.4422C16.1362 35.4387 16.13 35.4362 16.1261 35.4346C16.1241 35.4338 16.1228 35.4332 16.122 35.4329C16.1216 35.4328 16.1214 35.4327 16.1213 35.4326C16.1212 35.4326 16.1212 35.4326 16.1213 35.4326C16.1213 35.4326 16.1213 35.4326 16.1213 35.4326C16.1214 35.4327 16.1215 35.4327 15.833 36.125ZM19.9997 37.9167C20.9538 37.9167 22.0872 37.6256 22.9317 37.3617C23.3647 37.2264 23.7429 37.0913 24.013 36.99C24.1483 36.9393 24.2571 36.8968 24.3328 36.8667C24.3707 36.8516 24.4004 36.8396 24.421 36.8312C24.4312 36.827 24.4393 36.8237 24.445 36.8214C24.4478 36.8202 24.45 36.8193 24.4517 36.8186C24.4525 36.8183 24.4532 36.818 24.4537 36.8178C24.454 36.8177 24.4542 36.8176 24.4544 36.8175C24.4545 36.8175 24.4546 36.8174 24.4546 36.8174C24.4547 36.8173 24.4548 36.8173 24.1663 36.125C23.8779 35.4327 23.8779 35.4327 23.878 35.4326C23.878 35.4326 23.8781 35.4326 23.8781 35.4326C23.8781 35.4326 23.8781 35.4326 23.8781 35.4326C23.878 35.4327 23.8777 35.4328 23.8774 35.4329C23.8766 35.4332 23.8752 35.4338 23.8733 35.4346C23.8694 35.4362 23.8632 35.4387 23.8548 35.4422C23.8379 35.449 23.8122 35.4594 23.7785 35.4729C23.711 35.4997 23.6114 35.5386 23.4863 35.5855C23.2357 35.6795 22.8846 35.8049 22.4843 35.93C21.6621 36.1869 20.7122 36.4167 19.9997 36.4167V37.9167ZM24.9163 36.125V33H23.4163V36.125H24.9163Z" fill="#03020D"/>
<path d="M34.166 18.8333L36.666 18.8333" stroke="#03020D" stroke-width="1.5" stroke-linecap="round"/>
<path d="M3.33301 18.8333L5.83301 18.8333" stroke="#03020D" stroke-width="1.5" stroke-linecap="round"/>
<path d="M25.0022 30.7106C24.9087 31.0303 24.6155 31.2501 24.2823 31.2501H15.7152C15.3819 31.2501 15.0886 31.0301 14.9952 30.7102L14.9934 30.7041L14.9864 30.6808C14.9801 30.6596 14.9703 30.6276 14.9573 30.5858C14.9312 30.5022 14.8922 30.3799 14.8412 30.2286C14.7391 29.9254 14.5901 29.5087 14.4033 29.0551C14.016 28.1149 13.513 27.1359 12.9877 26.6127C11.6009 25.2314 10.6562 23.4712 10.2735 21.5546C9.89081 19.6379 10.0875 17.6513 10.8386 15.8462C11.5896 14.041 12.8611 12.4987 14.4918 11.4138C16.1224 10.3289 18.0392 9.75008 19.9997 9.75008C21.9602 9.75008 23.8769 10.3289 25.5076 11.4138C27.1383 12.4987 28.4098 14.041 29.1608 15.8462C29.9118 17.6513 30.1085 19.6379 29.7259 21.5546C29.3432 23.4712 28.3985 25.2314 27.0116 26.6127C26.4863 27.136 25.9828 28.1151 25.595 29.0554C25.4079 29.5091 25.2588 29.9257 25.1565 30.2289C25.1054 30.3803 25.0663 30.5026 25.0402 30.5862C25.0271 30.6279 25.0174 30.66 25.011 30.6811L25.004 30.7045L25.0025 30.7097L25.0022 30.7106Z" fill="#FF5416"/>
<path d="M13.333 19.6667C13.333 15.9848 16.3178 13 19.9997 13" stroke="white" stroke-width="1.5" stroke-linecap="round"/>
<path d="M32.5498 8.36621L30.782 10.134" stroke="#03020D" stroke-width="1.5" stroke-linecap="round"/>
<path d="M7.44922 8.36621L9.21699 10.134" stroke="#03020D" stroke-width="1.5" stroke-linecap="round"/>
<path d="M20 3.83333V6.33333" stroke="#03020D" stroke-width="1.5" stroke-linecap="round"/>
</svg>
