<svg width="48" height="48" viewBox="0 0 48 48" fill="none" xmlns="http://www.w3.org/2000/svg">
  <path fill-rule="evenodd" clip-rule="evenodd"
    d="M23.9975 1.25001L24 1.25C30.2947 1.25 34.8666 5.48148 36.9677 11.5435C39.9369 11.7908 42.5707 12.9175 44.499 14.8032C46.5441 16.8032 47.75 19.6133 47.75 23C47.75 26.4402 46.5053 29.2339 44.403 31.1816C42.3094 33.1213 39.4195 34.1729 36.2009 34.2498L36.183 34.25H36C34.2051 34.25 32.75 35.7051 32.75 37.5V41.5C32.75 41.538 32.7472 41.5754 32.7417 41.6119C33.7603 41.9279 34.5 42.8775 34.5 44C34.5 45.3807 33.3807 46.5 32 46.5C30.6193 46.5 29.5 45.3807 29.5 44C29.5 42.8775 30.2397 41.9279 31.2583 41.6119C31.2528 41.5754 31.25 41.538 31.25 41.5V37.5C31.25 34.8766 33.3766 32.75 36 32.75H36.1739C39.0895 32.6786 41.6049 31.7291 43.3835 30.0813C45.1552 28.44 46.25 26.0569 46.25 23C46.25 19.9872 45.1862 17.5733 43.4502 15.8757C41.7085 14.1724 39.2446 13.1467 36.3792 13.0077C36.0667 12.9926 35.7964 12.7851 35.7011 12.4871C33.8169 6.59587 29.6288 2.75057 24.0012 2.75C16.999 2.77388 13.4625 5.84333 11.6103 9.01639C9.90907 11.9307 9.59656 14.9789 9.47898 16.1258C9.46599 16.2525 9.45537 16.356 9.44553 16.4335C9.40186 16.7776 9.1279 17.0469 8.78309 17.0846C4.68819 17.5327 1.75 20.5577 1.75 25C1.75 27.3994 2.61404 29.3228 4.00756 30.6484C5.40559 31.9784 7.38279 32.75 9.678 32.75H12C14.6234 32.75 16.75 34.8766 16.75 37.5V41.5C16.75 41.538 16.7472 41.5754 16.7417 41.6119C17.7603 41.9279 18.5 42.8775 18.5 44C18.5 45.3807 17.3807 46.5 16 46.5C14.6193 46.5 13.5 45.3807 13.5 44C13.5 42.8775 14.2397 41.9279 15.2583 41.6119C15.2528 41.5754 15.25 41.538 15.25 41.5V37.5C15.25 35.7051 13.7949 34.25 12 34.25H9.678C7.04421 34.25 4.68241 33.3607 2.97369 31.7352C1.26046 30.1054 0.25 27.7788 0.25 25C0.25 19.9901 3.49532 16.4323 8.01664 15.6768C8.15873 14.3389 8.57927 11.2334 10.3148 8.2602C12.4266 4.6425 16.4461 1.27535 23.9975 1.25001ZM24 32.75C24.4142 32.75 24.75 33.0858 24.75 33.5V41.6145C25.7643 41.933 26.5 42.8806 26.5 44C26.5 45.3807 25.3807 46.5 24 46.5C22.6193 46.5 21.5 45.3807 21.5 44C21.5 42.8806 22.2357 41.933 23.25 41.6145V33.5C23.25 33.0858 23.5858 32.75 24 32.75ZM14.5 44C14.5 43.1716 15.1716 42.5 16 42.5C16.8284 42.5 17.5 43.1716 17.5 44C17.5 44.8284 16.8284 45.5 16 45.5C15.1716 45.5 14.5 44.8284 14.5 44ZM32 42.5C31.1716 42.5 30.5 43.1716 30.5 44C30.5 44.8284 31.1716 45.5 32 45.5C32.8284 45.5 33.5 44.8284 33.5 44C33.5 43.1716 32.8284 42.5 32 42.5ZM22.5 44C22.5 43.1716 23.1716 42.5 24 42.5C24.8284 42.5 25.5 43.1716 25.5 44C25.5 44.8284 24.8284 45.5 24 45.5C23.1716 45.5 22.5 44.8284 22.5 44ZM17 17.75C14.1005 17.75 11.75 20.1005 11.75 23C11.75 25.8995 14.1005 28.25 17 28.25C18.9423 28.25 20.6392 27.1956 21.5481 25.6245L21.6444 25.458L24.1049 23.968C24.9592 23.4507 26.0267 23.4372 26.8938 23.9326L28.3798 24.7818C28.7641 25.0014 29.2359 25.0014 29.6202 24.7818L31.1356 23.9158C31.9811 23.4327 33.0189 23.4327 33.8644 23.9158L34.9166 24.5171C35.4428 24.8178 36.109 24.6977 36.497 24.232L37.3904 23.16C37.4676 23.0673 37.4676 22.9327 37.3903 22.84L35.7237 20.84C35.6762 20.783 35.6058 20.75 35.5316 20.75H21.7647L21.5481 20.3755C20.6392 18.8044 18.9423 17.75 17 17.75ZM10.25 23C10.25 19.2721 13.2721 16.25 17 16.25C19.3413 16.25 21.4033 17.4424 22.6132 19.25H35.5316C36.051 19.25 36.5435 19.4807 36.876 19.8797L38.5427 21.8797C39.0835 22.5287 39.0835 23.4713 38.5427 24.1203L37.6494 25.1923C36.7957 26.2167 35.3301 26.481 34.1724 25.8195L33.1202 25.2182C32.7359 24.9986 32.2641 24.9986 31.8798 25.2182L30.3644 26.0842C29.5189 26.5673 28.4811 26.5673 27.6356 26.0842L26.1496 25.235C25.7555 25.0098 25.2702 25.0159 24.8819 25.2511L22.7451 26.5451C21.5568 28.467 19.4287 29.75 17 29.75C13.2721 29.75 10.25 26.7279 10.25 23ZM14.5 23C14.5 22.4477 14.9477 22 15.5 22C16.0523 22 16.5 22.4477 16.5 23C16.5 23.5523 16.0523 24 15.5 24C14.9477 24 14.5 23.5523 14.5 23ZM15.5 21C14.3954 21 13.5 21.8954 13.5 23C13.5 24.1046 14.3954 25 15.5 25C16.6046 25 17.5 24.1046 17.5 23C17.5 21.8954 16.6046 21 15.5 21Z"
    fill="currentColor" />
</svg>