<svg width="40" height="41" viewBox="0 0 40 41" fill="none" xmlns="http://www.w3.org/2000/svg">
<path d="M9.16634 10.5C9.16634 10.5 9.58301 10.5 8.33301 10.5C7.08301 10.5 5.83301 11.75 5.83301 13C5.83301 14.25 5.83301 33.4167 5.83301 34.6667C5.83301 35.9167 7.08301 37.1667 8.33301 37.1667C9.58301 37.1667 23.7497 37.1667 24.9997 37.1667C26.2497 37.1667 27.4997 35.9167 27.4997 34.6667C27.4997 33.4167 27.4997 33.8333 27.4997 33.8333" stroke="#03020D" stroke-width="1.5" stroke-linecap="round"/>
<path d="M12.4993 7.16667C12.4993 7.16667 12.916 7.16667 11.666 7.16667C10.416 7.16667 9.16602 8.41667 9.16602 9.66667C9.16602 10.9167 9.16602 30.0833 9.16602 31.3333C9.16602 32.5833 10.416 33.8333 11.666 33.8333C12.916 33.8333 27.0827 33.8333 28.3327 33.8333C29.5827 33.8333 30.8327 32.5833 30.8327 31.3333C30.8327 30.0833 30.8327 30.5 30.8327 30.5" stroke="#03020D" stroke-width="1.5" stroke-linecap="round"/>
<path d="M24.8015 3.83334C24.8015 3.83334 17.0833 3.83334 15.4167 3.83334C13.75 3.83334 12.5 5.21355 12.5 6.75001C12.5 8.28647 12.5 25.9167 12.5 27.5833C12.5 29.25 13.75 30.5 15.4167 30.5C17.0833 30.5 29.5833 30.5 31.25 30.5C32.9167 30.5 34.1667 29.25 34.1667 27.5833C34.1667 25.9167 34.1667 13.1464 34.1667 13.1464" stroke="#03020D" stroke-width="1.5" stroke-linecap="round"/>
<path d="M26.3397 14.6667C28.0337 15.6875 29.1667 17.5448 29.1667 19.6667C29.1667 22.8883 26.555 25.5 23.3333 25.5C20.1117 25.5 17.5 22.8883 17.5 19.6667C17.5 17.5448 18.633 15.6875 20.3269 14.6667" stroke="#03020D" stroke-width="1.5" stroke-linecap="round"/>
<path d="M23.333 19.6667V12.5833" stroke="#03020D" stroke-width="1.5" stroke-linecap="round"/>
<path fill-rule="evenodd" clip-rule="evenodd" d="M33.8281 9.37702C34.55 10.099 34.0387 11.3333 33.0177 11.3333L29.3599 11.3333C27.642 11.3333 26.2493 9.94071 26.2493 8.22281L26.2493 4.56496C26.2493 3.544 27.4837 3.03269 28.2057 3.75463L33.8281 9.37702Z" fill="#FF5416"/>
</svg>
