<svg width="49" height="49" viewBox="0 0 49 49" fill="none" xmlns="http://www.w3.org/2000/svg">
<path d="M22.6666 6.54074C22.6666 4.26663 18.1895 2.4231 12.6666 2.4231C7.14378 2.4231 2.66663 4.26663 2.66663 6.54074" stroke="#C6CED9" stroke-width="1.5" stroke-miterlimit="10"/>
<path d="M22.6666 11.2466C22.6666 13.5207 18.1895 15.3642 12.6666 15.3642C7.14378 15.3642 2.66663 13.5207 2.66663 11.2466" stroke="#C6CED9" stroke-width="1.5" stroke-miterlimit="10"/>
<path d="M2.66663 15.9524C2.66663 18.2265 7.14378 20.07 12.6666 20.07C13.3516 20.07 14.0204 20.0417 14.6666 19.9877" stroke="#C6CED9" stroke-width="1.5" stroke-miterlimit="10"/>
<path d="M22.6666 6.54077C22.6666 8.81489 18.1895 10.6584 12.6666 10.6584C7.14378 10.6584 2.66663 8.81489 2.66663 6.54077" stroke="#C6CED9" stroke-width="1.5" stroke-miterlimit="10"/>
<path d="M12.6666 24.7759C7.14378 24.7759 2.66663 22.9323 2.66663 20.6582" stroke="#C6CED9" stroke-width="1.5" stroke-miterlimit="10"/>
<path d="M2.66663 6.54077V20.6584" stroke="#C6CED9" stroke-width="1.5" stroke-miterlimit="10"/>
<path d="M22.6666 6.4231L22.6666 13.4231" stroke="#C6CED9" stroke-width="1.5" stroke-miterlimit="10"/>
<path d="M45.0357 45.8528C45.3286 46.1457 45.8035 46.1457 46.0964 45.8528C46.3893 45.5599 46.3893 45.0851 46.0964 44.7922L45.0357 45.8528ZM46.0964 44.7922L39.0964 37.7922L38.0357 38.8528L45.0357 45.8528L46.0964 44.7922Z" fill="#C6CED9"/>
<circle cx="27.6666" cy="27.4231" r="15" stroke="#C6CED9" stroke-width="1.5" stroke-linecap="round"/>
<rect x="25.6666" y="18.4231" width="4" height="16" rx="1" fill="#FF5416"/>
<rect x="19.6666" y="26.4231" width="4" height="8" rx="1" fill="#FF5416"/>
<rect x="31.6666" y="23.4231" width="4" height="11" rx="1" fill="#FF5416"/>
</svg>
