<svg width="48" height="49" viewBox="0 0 48 49" fill="none" xmlns="http://www.w3.org/2000/svg">
  <defs>
    <clipPath id="clip0_3518_39132">
      <rect width="48" height="48" fill="white" transform="translate(0 0.922852)" />
    </clipPath>
  </defs>
  <g clip-path="url(#clip0_3518_39132)">
    <path fill-rule="evenodd" clip-rule="evenodd"
      d="M23.0933 12.8383C23.6524 13.1938 24.6181 13.8184 25.1758 14.2396C25.1078 13.9058 25.0053 13.4899 24.8986 13.0571L24.8986 13.0571L24.8986 13.057C24.7465 12.4403 24.5861 11.7894 24.5053 11.2939C24.7514 11.0529 25.0985 10.7774 25.4837 10.4718C25.9071 10.1358 26.3764 9.7634 26.8081 9.36013C25.9342 9.23646 23.8403 9.15214 23.8403 9.15214C23.8403 9.15214 23.2846 7.99161 22.8782 7.16898C22.9611 6.97604 23.0414 6.79781 23.1154 6.64995C23.1154 6.12593 23.0947 5.38028 23.0748 4.66129C23.0563 3.99195 23.0384 3.34571 23.0384 2.92292C16.2785 2.90043 6.05625 8.56125 4.22614 14.2614C4.71498 14.2255 5.18728 14.0651 5.6001 13.7948C7.1383 13.0478 8.58922 12.1257 9.92533 11.0459C10.9993 10.1439 12.222 9.44524 13.5361 8.98286C16.284 8.15651 18.2076 9.21335 19.0539 11.996C19.2847 12.9235 19.5705 13.8398 19.9168 14.728C20.1383 15.4036 20.56 15.9918 21.1234 16.4109C21.5837 16.7533 22.1199 16.9689 22.6807 17.0404V17.5388C24.9175 17.2128 26.5662 16.1447 27.3631 13.9186C27.4621 13.6656 27.5775 13.4239 27.7094 13.1878C28.9459 10.7256 30.5892 10.1691 33.0623 11.3777C34.3478 12.0813 35.587 12.87 36.772 13.7387C39.1527 15.4051 41.8964 16.4492 44.763 16.7799C45.3562 16.8485 45.957 16.7762 46.5184 16.5685C47.0799 16.3608 47.5869 16.0234 48 15.5825C47.4922 15.4937 47.0147 15.4539 46.5547 15.4155C46.0538 15.3737 45.5738 15.3336 45.0982 15.234C41.5363 14.4605 38.1964 12.8582 35.3376 10.5513C34.1285 9.48323 32.6282 8.80866 31.0344 8.60628C28.9294 8.42077 27.6379 9.18529 26.874 11.1528C26.72 11.5968 26.5945 12.0539 26.4685 12.513L26.4685 12.5131C26.3472 12.9549 26.2254 13.3987 26.0771 13.8343C25.5551 15.3428 24.6452 16.4306 23.0672 16.7099C23.0891 15.4201 23.0927 13.7285 23.0933 12.8383ZM22.7414 12.616C22.6882 12.5827 22.6587 12.5644 22.6587 12.5644V7.69511C22.6158 7.80025 22.573 7.90567 22.531 8.00933C22.316 8.5397 22.1198 9.02366 22.0107 9.18524H19.0649L21.4831 11.1528L20.7302 13.8848C20.9379 13.7602 21.2095 13.5843 21.5065 13.392C21.9035 13.135 22.3458 12.8486 22.7414 12.616ZM22.5061 33.579L22.5064 33.5792L22.5064 33.5792C22.6937 33.7162 22.8807 33.8529 23.0663 33.9909C23.0211 34.0353 22.9768 34.0807 22.9337 34.1274V35.4878C23.5637 35.9691 24.169 36.4832 24.7473 37.0281C25.6871 38.0062 25.6706 38.737 24.7473 39.7039C24.3241 40.1424 23.8735 40.564 23.4283 40.98L22.9392 41.441V42.7901C22.2412 43.1949 21.4113 43.8807 21.4113 44.7689C21.4113 45.5559 21.9554 46.2361 22.4445 46.8376C22.6314 47.0624 22.8018 47.2817 22.9392 47.484V47.6414L22.9831 47.5627L22.997 47.5824L23.0106 47.6021C23.9996 47.1098 24.8295 46.3371 25.4013 45.376C26.1048 43.9931 25.2419 43.0093 24.3241 42.1268C24.7638 41.5365 25.2639 40.9969 25.808 40.4965C27.1875 38.8719 27.16 37.7195 25.7146 36.1118C25.5937 35.9769 25.4563 35.8532 25.3189 35.7296L25.3189 35.7295C25.0135 35.4899 24.7607 35.1873 24.5769 34.8413C25.187 34.1499 25.863 33.5259 26.5939 32.9638C26.864 32.7624 27.0894 32.505 27.2555 32.2084C27.4216 31.9118 27.5247 31.5827 27.5579 31.2426C27.5911 30.9025 27.5537 30.559 27.4482 30.2346C27.3427 29.9103 27.1714 29.6124 26.9456 29.3604C26.5372 28.8247 26.022 28.3839 25.4343 28.0675L25.2694 27.9775L25.2657 27.9757C25.0469 27.8694 24.8131 27.7559 24.7913 27.3311L25.863 26.7464C26.4914 26.407 27.1162 26.0603 27.737 25.7065C30.2981 24.1774 30.8807 22.4573 29.809 19.7027C29.9738 19.6184 30.1552 19.6072 30.3366 19.6015L30.363 19.6002C30.5744 19.5896 30.7901 19.5788 30.9906 19.4385C30.9906 19.3052 30.9208 19.1828 30.8449 19.0497L30.8422 19.045C30.6938 18.7921 30.5289 18.4997 30.8312 18.0219C31.4597 18.1571 32.0652 18.3863 32.6283 18.7021L32.643 18.7093C33.4517 19.1062 34.2774 19.5113 35.2334 19.4666C35.1802 19.1292 34.9621 18.9287 34.7487 18.7327L34.7278 18.7134L34.7261 18.7119C34.5068 18.5156 34.2935 18.3247 34.2496 18.0107C34.7589 18.1107 35.2442 18.2747 35.7279 18.4382L35.8269 18.4716L35.8367 18.475C36.8226 18.8168 37.7871 19.1511 38.9046 18.9382C38.7125 18.6762 38.4582 18.4937 38.2072 18.3136L38.1846 18.2974L38.1679 18.285C37.8218 18.0307 37.4784 17.7783 37.3053 17.3136C37.8329 17.4092 38.344 17.5328 38.8551 17.6565L38.8551 17.6565L38.8694 17.66C40.3208 18.0129 41.7404 18.3581 43.3947 18.0332L42.301 17.5947L42.195 17.5527C41.5283 17.2886 40.9243 17.0494 40.35 16.729C37.8439 15.571 35.4147 14.2555 33.0735 12.7827C31.106 11.4617 29.5507 11.9732 28.4845 14.0925C28.1767 14.694 27.8799 15.2955 27.6051 15.9139C26.7148 17.9039 25.0386 18.4773 23.1535 18.6065L23.0766 18.5166C23.0216 18.4604 22.9941 18.4323 22.9941 18.4042L22.8622 17.8982C20.576 17.5441 18.7074 15.8633 18.0644 13.6091C17.9709 13.3505 17.8555 13.1088 17.7126 12.8839C17.3351 12.0711 16.6589 11.4438 15.8314 11.1385C15.0038 10.8331 14.0918 10.8745 13.294 11.2537C12.3816 11.6247 11.5188 12.0969 10.7109 12.659C9.08446 13.9157 7.31916 14.9723 5.45139 15.8071C4.83703 16.0464 4.21834 16.2726 3.56078 16.5129L3.30801 16.6053L2.73095 16.8189C-0.302759 24.897 0.609551 32.3735 5.79763 39.2654C9.71617 44.4484 17.1905 47.5346 22.8897 47.7033C21.9664 47.113 20.576 45.9943 20.2627 44.9038C19.9714 43.875 20.5375 43.2117 21.197 42.4416C21.3783 42.228 21.5652 42.0031 21.7466 41.767C21.131 41.306 20.543 40.8057 19.9934 40.2661C18.7294 38.8495 18.7513 37.8263 19.9384 36.3142C20.0978 36.1118 20.2847 35.9375 20.4715 35.7633C20.7988 35.4914 21.0761 35.1621 21.2904 34.7908C20.9826 34.2399 20.4935 33.8913 20.0044 33.554C19.7296 33.3629 19.4548 33.1662 19.2185 32.9413C18.9601 32.7288 18.7469 32.4645 18.5921 32.1647C18.4373 31.8648 18.3442 31.5356 18.3185 31.1976C18.2927 30.8595 18.3349 30.5196 18.4424 30.1988C18.55 29.878 18.7206 29.5831 18.9437 29.3323C19.4039 28.7652 19.9773 28.3052 20.6254 27.9832L20.6503 27.9708C20.8685 27.8625 21.0966 27.7493 21.0596 27.3648C20.6749 27.0106 20.2242 26.7352 19.7406 26.5553C18.6106 26.0239 17.5567 25.3374 16.608 24.5147C15.1351 23.1318 15.0801 20.5797 16.4815 19.6353C17.1845 19.1884 18.019 19.0093 18.8382 19.1296C19.6575 19.2499 20.409 19.6618 20.9607 20.293C21.3016 20.7651 21.7156 21.1771 22.1862 21.5128C22.5709 21.7433 22.8073 22.1649 22.8073 22.6203C22.0049 23.8795 21.208 23.902 20.4111 22.6821C20.3396 22.5809 20.2792 22.4797 20.2132 22.3673L20.2016 22.3485C19.9418 21.9276 19.6838 21.5097 19.1965 21.2992C18.5755 21.0238 17.9544 20.9282 17.4928 21.5241C17.2942 21.7732 17.1904 22.0874 17.2005 22.4087C17.2106 22.73 17.3339 23.0368 17.5477 23.2724C17.7807 23.5525 18.0486 23.8001 18.3446 24.0088C19.2811 24.6961 20.2894 25.2749 21.3509 25.7346C21.9805 25.9382 22.5171 26.3673 22.8622 26.9432L22.92 28.0266C22.7444 28.1374 22.5689 28.2521 22.3923 28.3675L22.3923 28.3675L22.3922 28.3676C21.9882 28.6315 21.5791 28.8988 21.1529 29.1308C19.5536 29.9853 19.4766 31.2333 20.9165 32.3632C21.4339 32.7947 21.9714 33.1878 22.5061 33.579ZM22.9831 47.5627C22.9689 47.5363 22.9542 47.51 22.9392 47.484L22.9172 45.5446C22.9062 44.6733 22.8952 43.7401 22.8952 42.8463C23.5602 43.1667 24.2911 43.594 24.4285 44.3922C24.6201 45.5397 23.9235 46.3917 23.3912 47.0427L23.3843 47.0512C23.225 47.2367 23.0876 47.411 22.9831 47.5627ZM24.2197 33.1043C23.8349 33.3651 23.4502 33.6259 23.1149 33.944V28.3251C23.6443 28.7289 24.205 29.0883 24.7913 29.3998C25.1337 29.5397 25.4331 29.771 25.6583 30.0696C25.8836 30.3682 26.0263 30.7232 26.0718 31.0975C25.7608 32.0572 25.0004 32.5739 24.2366 33.0928L24.2197 33.1043ZM22.6477 41.526L22.6532 41.5318H22.6587L22.6477 41.5768V41.526ZM22.6477 41.526C22.4433 41.3105 22.2347 41.0983 22.0259 40.8858L22.0253 40.8852C21.6972 40.5514 21.3684 40.2169 21.0539 39.8679C20.1196 38.8335 20.1196 37.9566 21.0539 36.9166C21.383 36.5535 21.7495 36.2362 22.1164 35.9185C22.2948 35.764 22.4733 35.6094 22.6477 35.4494V41.526ZM22.9941 19.7421C23.6768 19.5489 24.3948 19.5258 25.088 19.6746C24.9042 20.1569 24.6254 20.5954 24.269 20.9628C23.9126 21.3303 23.4861 21.6189 23.0161 21.8108C22.8689 21.1302 22.8614 20.4258 22.9941 19.7421ZM25.154 25.3636C26.1284 24.931 27.0401 24.3635 27.8634 23.6771C28.6713 22.9351 28.8087 21.9907 28.1932 21.451C27.8397 21.2153 27.4096 21.1315 26.996 21.2177C26.5825 21.304 26.2189 21.5534 25.9839 21.912C25.8277 22.1231 25.6828 22.3426 25.5497 22.5697C25.3189 22.9632 25.088 23.3454 24.6319 23.5366C24.2527 23.694 23.9119 23.5815 23.5547 23.4635C23.3623 23.396 23.17 23.3342 22.9612 23.3117V26.5609C23.6551 26.0963 24.3891 25.6973 25.154 25.3692V25.3636Z"
      fill="#C6CED9" />
  </g>
</svg>