<svg width="48" height="48" viewBox="0 0 48 48" fill="none" xmlns="http://www.w3.org/2000/svg">
<path fill-rule="evenodd" clip-rule="evenodd" d="M10.75 18.08C10.75 10.7342 16.7342 4.75 24.08 4.75C31.4644 4.75 37.41 10.7328 37.41 18.08C37.41 20.5268 36.5797 23.334 35.2826 26.2091C33.9901 29.0739 32.26 31.9501 30.5191 34.5193C28.7797 37.0864 27.0387 39.3334 25.732 40.9391C25.079 41.7416 24.5353 42.3828 24.1556 42.8227L24.1191 42.865L24.0802 42.8201C23.6982 42.3792 23.1514 41.7365 22.4946 40.9324C21.1804 39.3235 19.4294 37.0726 17.68 34.5029C15.929 31.9311 14.189 29.0536 12.8892 26.1906C11.5845 23.317 10.75 20.5155 10.75 18.08ZM23.5643 44.5037C23.5645 44.5039 23.5646 44.504 24.12 44L24.6762 44.5031C24.5341 44.6602 24.3323 44.7498 24.1206 44.75C23.9088 44.7502 23.7066 44.6605 23.5643 44.5037ZM23.5643 44.5037L24.12 44C24.6762 44.5031 24.677 44.5023 24.6772 44.5021L24.6794 44.4996L24.6877 44.4904L24.7191 44.4553L24.7733 44.3946L24.8393 44.3202C24.9441 44.2018 25.0969 44.0277 25.291 43.8029C25.6791 43.3534 26.2322 42.7009 26.8955 41.8859C28.2213 40.2566 29.9903 37.9736 31.7609 35.3607C33.53 32.75 35.3099 29.7961 36.6499 26.8259C37.9853 23.866 38.91 20.8332 38.91 18.08C38.91 9.90718 32.2956 3.25 24.08 3.25C15.9058 3.25 9.25 9.90579 9.25 18.08C9.25 20.8245 10.1805 23.853 11.5233 26.8107C12.871 29.7789 14.661 32.7339 16.44 35.3471C18.2206 37.9624 19.9996 40.249 21.3329 41.8813C21.9999 42.6979 22.5562 43.3517 22.9464 43.8022C23.1415 44.0275 23.2952 44.202 23.4006 44.3206C23.4532 44.38 23.4938 44.4253 23.5214 44.4561L23.553 44.4912L23.5643 44.5037ZM16.79 17.2401C16.79 13.2139 20.0539 9.95007 24.08 9.95007C28.1062 9.95007 31.37 13.2139 31.37 17.2401C31.37 21.2662 28.1062 24.5301 24.08 24.5301C20.0539 24.5301 16.79 21.2662 16.79 17.2401ZM24.08 8.45007C19.2255 8.45007 15.29 12.3855 15.29 17.2401C15.29 22.0947 19.2255 26.0301 24.08 26.0301C28.9346 26.0301 32.87 22.0947 32.87 17.2401C32.87 12.3855 28.9346 8.45007 24.08 8.45007Z" fill="currentColor"/>
</svg>
