<svg width="48" height="48" viewBox="0 0 48 48" fill="none" xmlns="http://www.w3.org/2000/svg">
  <defs>
    <linearGradient id="paint0_linear" x1="30" y1="23" x2="14.4778" y2="36.9783"
      gradientUnits="userSpaceOnUse">
      <stop stop-color="#FF0000" />
      <stop offset="0.322917" stop-color="#FB5519" />
      <stop offset="1" stop-color="#FB5519" />
    </linearGradient>
    <linearGradient id="paint1_linear" x1="37.3943" y1="25.8404" x2="12.6166" y2="37.8561"
      gradientUnits="userSpaceOnUse">
      <stop stop-color="#FF0000" />
      <stop offset="1" stop-color="#FF5416" />
    </linearGradient>
    <clipPath id="clip0">
      <rect width="48" height="48" fill="white" />
    </clipPath>
  </defs>
  <g clip-path="url(#clip0)">
    <path fill-rule="evenodd" clip-rule="evenodd"
      d="M34.6782 25.41L48.1587 32.3993L24 45.1304L-0.15863 32.3993L24 19.8736L34.3271 25.228L34.5212 25.1221L34.6782 25.41ZM32.2097 26.383L24 22.1264L15.2426 26.667L23.6889 31.0307L32.2097 26.383ZM25.8339 32.1388L34.351 27.4932L43.8414 32.4137L35.1902 36.9727L25.8339 32.1388ZM21.5694 32.1868L13.0678 27.7945L4.15868 32.4137L12.8024 36.9688L21.5694 32.1868ZM14.9267 38.0882L23.7143 33.2949L33.0331 38.1094L24 42.8697L14.9267 38.0882Z"
      fill="url(#paint0_linear)" />
    <path d="M0 26.3984L24 14L48 26.3984L24 39L0 26.3984Z" fill="url(#paint1_linear)"
      fill-opacity="0.75" />
    <path fill-rule="evenodd" clip-rule="evenodd"
      d="M24 7.8736L48.1587 20.3993L24 33.1304L-0.15863 20.3993L24 7.8736ZM4.15868 20.4137L24 30.8697L43.8414 20.4137L24 10.1264L4.15868 20.4137Z"
      fill="#4B3B35" />
    <path fill-rule="evenodd" clip-rule="evenodd"
      d="M24.6216 2.8736L25.9986 3.58752L25.078 5.36306L24.6216 5.12643L24.1652 5.36305L23.2447 3.58752L24.6216 2.8736ZM22.3319 6.3136L20.4986 7.26414L19.578 5.4886L21.4113 4.53806L22.3319 6.3136ZM28.7447 7.26414L26.9113 6.3136L27.8319 4.53806L29.6652 5.4886L28.7447 7.26414ZM32.4113 9.16522L30.578 8.21468L31.4986 6.43914L33.3319 7.38968L32.4113 9.16522ZM18.6652 8.21468L16.8319 9.16522L15.9113 7.38968L17.7447 6.43914L18.6652 8.21468ZM36.078 11.0663L34.2447 10.1158L35.1652 8.34023L36.9986 9.29077L36.078 11.0663ZM14.9986 10.1158L13.1652 11.0663L12.2447 9.29077L14.078 8.34023L14.9986 10.1158ZM11.3319 12.0168L9.49856 12.9674L8.57798 11.1919L10.4113 10.2413L11.3319 12.0168ZM39.7447 12.9674L37.9113 12.0168L38.8319 10.2413L40.6652 11.1919L39.7447 12.9674ZM7.66523 13.9179L5.83189 14.8685L4.91132 13.0929L6.74465 12.1424L7.66523 13.9179ZM43.4113 14.8685L41.578 13.9179L42.4986 12.1424L44.3319 13.0929L43.4113 14.8685ZM3.41555 14.6946L3.07798 14.0435L0.462952 15.3993L3.07207 16.7743L3.4164 16.1209L3.99856 15.819L3.78873 15.4143L4.00448 15.0049L3.41555 14.6946ZM45.8268 16.1209L45.2447 15.819L45.4545 15.4143L45.2387 15.0049L45.8277 14.6946L46.1652 14.0435L48.7803 15.3993L46.1711 16.7743L45.8268 16.1209ZM41.5721 16.9372L43.4054 15.971L44.3378 17.7404L42.5045 18.7065L41.5721 16.9372ZM5.83781 15.971L7.67115 16.9372L6.73874 18.7065L4.9054 17.7404L5.83781 15.971ZM37.9054 18.8694L39.7387 17.9033L40.6711 19.6726L38.8378 20.6388L37.9054 18.8694ZM9.50448 17.9033L11.3378 18.8694L10.4054 20.6388L8.57207 19.6726L9.50448 17.9033ZM34.2387 20.8017L36.0721 19.8355L37.0045 21.6049L35.1711 22.571L34.2387 20.8017ZM13.1711 19.8355L15.0045 20.8017L14.0721 22.571L12.2387 21.6049L13.1711 19.8355ZM16.8378 21.7678L18.6711 22.7339L17.7387 24.5033L15.9054 23.5371L16.8378 21.7678ZM30.5721 22.7339L32.4054 21.7678L33.3378 23.5371L31.5045 24.5033L30.5721 22.7339ZM20.5045 23.7L22.3378 24.6662L21.4054 26.4355L19.5721 25.4694L20.5045 23.7ZM26.9054 24.6661L28.7387 23.7L29.6711 25.4694L27.8378 26.4355L26.9054 24.6661ZM24.6216 25.8697L24.1711 25.6323L23.2387 27.4016L24.6216 28.1304L26.0045 27.4016L25.0721 25.6323L24.6216 25.8697Z"
      fill="#ADA6A3" />
  </g>
</svg>