<svg width="48" height="48" viewBox="0 0 48 48" fill="none" xmlns="http://www.w3.org/2000/svg">
<path d="M24 42V24.5" stroke="#C6CED9" stroke-width="1.5" stroke-linecap="round" stroke-linejoin="round"/>
<path d="M39 19.5L24 24.5L26.25 28L28.5 31.5L36 29L43.5 26.5L39 19.5Z" stroke="#C6CED9" stroke-width="1.5" stroke-linecap="round" stroke-linejoin="round"/>
<path d="M19.5 31.5L24 24.5L9 19.5L4.5 26.5L19.5 31.5Z" stroke="#C6CED9" stroke-width="1.5" stroke-linecap="round" stroke-linejoin="round"/>
<path d="M9 28C9 28 9 35.5 9 36.5C9 37.5 9.5 38.5 10.5 38.95C11.2846 39.3031 21.7031 42.3515 22.5 42.5664C23.2969 42.7812 24.6875 42.8281 25.5 42.5664C26.3125 42.3046 36.7154 39.3031 37.5 38.95C38.5 38.5 39 37.5 39 36.5C39 35.5 39 28 39 28" stroke="#C6CED9" stroke-width="1.5" stroke-linecap="round" stroke-linejoin="round"/>
<path d="M39 19.5001L36 18.5" stroke="#C6CED9" stroke-width="1.5" stroke-linecap="round" stroke-linejoin="round"/>
<path d="M9 19.5001L12 18.5" stroke="#C6CED9" stroke-width="1.5" stroke-linecap="round" stroke-linejoin="round"/>
<path d="M40.5586 10.4404L41.335 10.8291L42.6768 11.5L41.335 12.1709L40.5586 12.5586L40.1709 13.335L39.5 14.6768L38.8291 13.335L38.4404 12.5586L36.3232 11.5L37.665 10.8291L38.4404 10.4404L38.8291 9.66504L39.5 8.32324L40.5586 10.4404Z" stroke="#C6CED9" stroke-width="1.5" stroke-linecap="round"/>
<path d="M9.55859 7.44043L10.335 7.8291L11.6768 8.5L10.335 9.1709L9.55859 9.55859L9.1709 10.335L8.5 11.6768L7.8291 10.335L7.44043 9.55859L5.32324 8.5L6.66504 7.8291L7.44043 7.44043L7.8291 6.66504L8.5 5.32324L9.55859 7.44043Z" stroke="#C6CED9" stroke-width="1.5" stroke-linecap="round"/>
<path fill-rule="evenodd" clip-rule="evenodd" d="M33.1667 13.4167H32.0833C31.9167 12.6667 31.5833 11.9167 31.1667 11.25L31.9167 10.5C32.25 10.1667 32.25 9.66667 31.9167 9.33333L30.1667 7.58333C29.8333 7.25 29.3333 7.25 29 7.58333L28.25 8.33333C27.5833 7.91667 26.8333 7.66667 26.0833 7.41667V6.33333C26.0833 5.91667 25.6667 5.5 25.25 5.5H22.75C22.3333 5.5 21.9167 5.91667 21.9167 6.33333V7.41667C21.1667 7.66667 20.4167 7.91667 19.75 8.33333L19 7.58333C18.6667 7.25 18.1667 7.25 17.8333 7.58333L16.0833 9.33333C15.75 9.66667 15.75 10.1667 16.0833 10.5L16.8333 11.25C16.4167 11.9167 16.1667 12.6667 15.9167 13.4167H14.8333C14.4167 13.4167 14 13.8333 14 14.25V16.75C14 17.1667 14.4167 17.5833 14.8333 17.5833H15.9167C16.0833 18.3333 16.4167 19.0833 16.8333 19.75L24 22L31.1667 19.75C31.5833 19.0833 31.8333 18.3333 32.0833 17.5833H33.1667C33.5833 17.5833 34 17.1667 34 16.75V14.25C34 13.8333 33.5833 13.4167 33.1667 13.4167ZM24 18.5C25.6569 18.5 27 17.1569 27 15.5C27 13.8431 25.6569 12.5 24 12.5C22.3431 12.5 21 13.8431 21 15.5C21 17.1569 22.3431 18.5 24 18.5Z" fill="#FF5416"/>
</svg>
