<svg width="49" height="49" viewBox="0 0 49 49" fill="none" xmlns="http://www.w3.org/2000/svg">
<path d="M38.3334 34.1731H46.3334" stroke="#FF5416" stroke-width="1.5" stroke-miterlimit="10" stroke-linecap="round"/>
<path d="M10.3334 14.1731L2.33337 14.1731" stroke="#FF5416" stroke-width="1.5" stroke-miterlimit="10" stroke-linecap="round"/>
<path d="M10.6772 31.1731C11.3001 28.3744 12.7028 26.4231 14.3334 26.4231C16.5425 26.4231 18.3334 30.0048 18.3334 34.4231C18.3334 38.8414 16.5425 42.4231 14.3334 42.4231C12.6074 42.4231 11.1367 40.2367 10.576 37.1731" stroke="#C6CED9" stroke-width="1.5" stroke-linecap="round"/>
<path d="M14.3334 26.4231H34.3334C36.5425 26.4231 38.3334 30.0048 38.3334 34.4231C38.3334 38.8414 36.5425 42.4231 34.3334 42.4231H14.3334" stroke="#C6CED9" stroke-width="1.5"/>
<path d="M1.80304 34.7034C1.51015 34.4105 1.51015 33.9357 1.80304 33.6428L6.57601 28.8698C6.86891 28.5769 7.34378 28.5769 7.63668 28.8698C7.92957 29.1627 7.92957 29.6376 7.63668 29.9305L3.39403 34.1731L7.63667 38.4157C7.92957 38.7086 7.92957 39.1835 7.63667 39.4764C7.34378 39.7693 6.86891 39.7693 6.57601 39.4764L1.80304 34.7034ZM14.3334 33.4231C14.7476 33.4231 15.0834 33.7589 15.0834 34.1731C15.0834 34.5873 14.7476 34.9231 14.3334 34.9231L14.3334 33.4231ZM2.33337 33.4231L14.3334 33.4231L14.3334 34.9231L2.33337 34.9231L2.33337 33.4231Z" fill="#FF5416"/>
<path d="M37.9895 11.1731C37.3666 8.37438 35.9639 6.4231 34.3334 6.4231C32.1242 6.4231 30.3334 10.0048 30.3334 14.4231C30.3334 18.8414 32.1242 22.4231 34.3334 22.4231C36.0594 22.4231 37.5301 20.2367 38.0908 17.1731" stroke="#C6CED9" stroke-width="1.5" stroke-linecap="round"/>
<path d="M34.3334 6.4231H14.3334C12.1242 6.4231 10.3334 10.0048 10.3334 14.4231C10.3334 18.8414 12.1242 22.4231 14.3334 22.4231H34.3334" stroke="#C6CED9" stroke-width="1.5"/>
<path d="M46.8637 14.7034C47.1566 14.4105 47.1566 13.9357 46.8637 13.6428L42.0907 8.8698C41.7978 8.5769 41.323 8.5769 41.0301 8.8698C40.7372 9.16269 40.7372 9.63756 41.0301 9.93046L45.2727 14.1731L41.0301 18.4157C40.7372 18.7086 40.7372 19.1835 41.0301 19.4764C41.323 19.7693 41.7978 19.7693 42.0907 19.4764L46.8637 14.7034ZM34.3334 13.4231C33.9192 13.4231 33.5834 13.7589 33.5834 14.1731C33.5834 14.5873 33.9192 14.9231 34.3334 14.9231L34.3334 13.4231ZM46.3334 13.4231L34.3334 13.4231L34.3334 14.9231L46.3334 14.9231L46.3334 13.4231Z" fill="#FF5416"/>
</svg>
