<svg width="48" height="48" viewBox="0 0 48 48" fill="none" xmlns="http://www.w3.org/2000/svg">
<path fill-rule="evenodd" clip-rule="evenodd" d="M24.0001 0L24.7753 2.37883H27.2814L25.2539 3.849L26.0277 6.2252L24.0001 4.75635L21.9726 6.2252L22.7477 3.849L20.7202 2.37883H23.225L24.0001 0ZM35.1333 5.14656L34.3582 2.76904L33.583 5.14656H31.0782L33.1058 6.61541L32.3306 8.99556L34.3582 7.52539L36.3857 8.99556L35.6132 6.61541L37.6408 5.14656H35.1333ZM41.9423 10.3337L42.7175 12.7126H45.2223L43.1947 14.1814L43.9699 16.5603L41.9423 15.0901L39.9148 16.5603L40.6873 14.1814L38.6597 12.7126H41.1672L41.9423 10.3337ZM44.7174 20.6672L45.4912 23.0448H48L45.9724 24.5149L46.7449 26.8924L44.7174 25.4236L42.6898 26.8924L43.465 24.5149L41.4374 23.0448H43.9422L44.7174 20.6672ZM14.416 5.14656L13.6408 2.76904L12.8656 5.14656H10.3608L12.3884 6.61541L11.6132 8.99425L13.6408 7.52539L15.6697 8.99425L14.8959 6.61541L16.9234 5.14656H14.416ZM6.05769 10.3318L6.83286 12.7119H9.34031L7.31273 14.1808L8.08527 16.5583L6.05769 15.0881L4.03011 16.5583L4.80397 14.1808L2.77771 12.7119H5.28252L6.05769 10.3318ZM42.7175 33.3769L41.9423 30.998L41.1672 33.3769H38.6597L40.6873 34.8457L39.9148 37.2245L41.9423 35.7544L43.9699 37.2245L43.1947 34.8457L45.2223 33.3769H42.7175ZM3.28262 20.6653L4.05779 23.0441H6.5626L4.53502 24.5143L5.31019 26.8905L3.28262 25.4216L1.25504 26.8905L2.02758 24.5143L0 23.0441H2.50744L3.28262 20.6653ZM6.83418 33.3772L6.05901 30.9971L5.28384 33.3772H2.77771L4.80397 34.8461L4.03143 37.2236L6.05901 35.7534L8.08659 37.2236L7.31273 34.8461L9.34031 33.3772H6.83418ZM13.6406 38.5618L14.4157 40.9406H16.9205L14.893 42.4108L15.6694 44.787L13.6406 43.3181L11.613 44.787L12.3855 42.4108L10.3593 40.9406H12.8654L13.6406 38.5618ZM24.7766 43.7096L24.0015 41.3308L23.2276 43.7096H20.7202L22.7477 45.1798L21.9739 47.556L24.0015 46.0872L26.029 47.556L25.2539 45.1798L27.2814 43.7096H24.7766ZM34.358 38.5618L35.1332 40.9406H37.638L35.6104 42.4108L36.3856 44.787L34.358 43.3181L32.3304 44.787L33.103 42.4108L31.0754 40.9406H33.5828L34.358 38.5618ZM22.983 29.3052L29.5891 19.8088L28.215 18.9309L22.2352 27.5268L19.6376 24.4151L18.348 25.4038L21.6511 29.3606L22.983 29.3052Z" fill="currentColor"/>
</svg>
