<svg width="40" height="41" viewBox="0 0 40 41" fill="none" xmlns="http://www.w3.org/2000/svg">
<path d="M8.33317 20.1358C7.59669 22.2892 7.16766 25.4578 9.58324 24.25C13.5972 22.243 17.4999 21.75 19.9999 21.75C22.4999 21.75 26.2499 22.5833 29.9999 24.25C32.7175 25.4578 32.3716 22.2892 31.658 20.1358" stroke="#03020D" stroke-width="1.5" stroke-linecap="round"/>
<path d="M30.8332 24.25C30.8332 30.9234 25.9829 36.3333 19.9998 36.3333C14.0168 36.3333 9.1665 30.9234 9.1665 24.25" stroke="#03020D" stroke-width="1.5"/>
<path d="M25.8332 28.8333H14.1665C14.7221 30.2222 16.6665 33 19.9998 33C23.3332 33 25.2776 30.2222 25.8332 28.8333Z" stroke="#03020D" stroke-width="1.5" stroke-linejoin="round"/>
<circle cx="23.75" cy="23.4167" r="1.25" fill="#03020D"/>
<circle cx="16.25" cy="23.4167" r="1.25" fill="#03020D"/>
<path d="M12.3922 5.81177C14.1833 4.70886 16.6689 4.04167 20.072 4.04167C22.8214 4.04167 24.9898 4.61745 26.675 5.58708C28.3615 6.55753 29.528 7.90188 30.3044 9.38272C31.647 11.9432 31.8294 14.9172 31.5602 17.1667C31.291 19.4161 30.0919 18.3888 29.583 18.2551C29.0741 18.1214 28.3702 17.973 27.4504 17.8366C25.7308 17.5816 23.3003 17.375 20.072 17.375C16.8436 17.375 14.4132 17.5816 12.6935 17.8366C11.6833 17.9864 10.9334 18.1507 10.4163 18.2941C9.89931 18.4375 8.83602 18.873 8.58578 17.1667C8.33554 15.4603 8.03534 12.6242 8.97021 10.0327C9.54628 8.43579 10.5926 6.91989 12.3922 5.81177Z" fill="#FF5416"/>
<path fill-rule="evenodd" clip-rule="evenodd" d="M16.5734 14.04L20.3288 7.16667H19.3138L15.833 13.5374L16.5622 14.0488L16.4547 14.133L17.2171 14.6667L20.1904 12.339L23.1638 14.6667L23.9262 14.133L20.1904 11.2073L16.5734 14.04ZM24.1431 14.0521L20.3812 7.16667H21.3961L24.8769 13.5374L24.1431 14.0521Z" fill="white"/>
</svg>
