<svg width="48" height="48" viewBox="0 0 48 48" fill="none" xmlns="http://www.w3.org/2000/svg">
    <path d="M3.07606 18.6089C3.1904 18.2108 3.60583 17.9808 4.00395 18.0951C4.40207 18.2094 4.63212 18.6249 4.51778 19.023L3.07606 18.6089ZM6.3425 14.2021C5.93889 14.2953 5.5362 14.0436 5.44306 13.64L3.92524 7.06283C3.8321 6.65923 4.08378 6.25653 4.48739 6.16339C4.89099 6.07025 5.29369 6.32194 5.38683 6.72554L6.736 12.5719L12.5823 11.2227C12.9859 11.1296 13.3886 11.3813 13.4818 11.7849C13.5749 12.1885 13.3232 12.5912 12.9196 12.6843L6.3425 14.2021ZM43.4442 30.2028C46.5314 19.4535 40.3201 8.23689 29.5709 5.14969L29.9849 3.70797C41.5304 7.02386 48.2018 19.0714 44.8859 30.6168L43.4442 30.2028ZM4.51778 19.023C1.43057 29.7722 7.64186 40.9889 18.3911 44.0761L17.977 45.5178C6.43155 42.2019 -0.239831 30.1544 3.07606 18.6089L4.51778 19.023ZM18.3911 44.0761C29.1403 47.1633 40.3569 40.952 43.4442 30.2028L44.8859 30.6168C41.57 42.1623 29.5225 48.8337 17.977 45.5178L18.3911 44.0761ZM29.5709 5.14969C20.6851 2.59766 11.478 6.39979 6.80985 13.8688L5.53785 13.0738C10.5513 5.05231 20.4388 0.966282 29.9849 3.70797L29.5709 5.14969Z" fill="#C6CED9"/>
    <path d="M18 18.9965C17.9993 20.1833 18.3506 21.3437 19.0095 22.3309C19.6683 23.318 20.6051 24.0877 21.7014 24.5424C22.7977 24.997 24.0043 25.1164 25.1684 24.8853C26.3325 24.6542 27.4018 24.083 28.2413 23.2441C29.0808 22.4051 29.6527 21.336 29.8845 20.172C30.1163 19.008 29.9976 17.8014 29.5436 16.7049C29.0895 15.6083 28.3206 14.671 27.3338 14.0116C26.347 13.3521 25.1869 13.0001 24.0001 13.0001C22.4094 13.0001 20.8838 13.6318 19.7587 14.7562C18.6336 15.8806 18.001 17.4058 18 18.9965Z" fill="#FF5416"/>
    <path d="M14 36C13 36 13 35 13 35C13 32.802 13.6976 30.9815 14.9395 29.4273C16.1813 27.8731 17.8655 27 19.6217 27H28.3781C30.1343 27 31.8187 27.8731 33.0605 29.4273C34.3024 30.9815 35 32.802 35 35C35 35 35 36 34 36" fill="#FF5416"/>
</svg>
