<svg width="48" height="48" viewBox="0 0 48 48" fill="none" xmlns="http://www.w3.org/2000/svg">
<circle cx="41" cy="7" r="6" stroke="#C6CED9" stroke-width="1.5" stroke-linecap="round" stroke-linejoin="round"/>
<rect x="1" y="35" width="12" height="12" stroke="#C6CED9" stroke-width="1.5" stroke-linejoin="round"/>
<path fill-rule="evenodd" clip-rule="evenodd" d="M20 10.323L23.2257 16.7744L29.677 20L23.2257 23.2257L20 29.6771L16.7743 23.2257L10.3229 20L16.7743 16.7744L20 10.323Z" fill="#FF5416"/>
<path fill-rule="evenodd" clip-rule="evenodd" d="M30 23.646L32.118 27.8821L36.3541 30.0001L32.118 32.1181L30 36.3542L27.8819 32.1181L23.6459 30.0001L27.8819 27.8821L30 23.646Z" fill="#FF5416"/>
<path d="M41.75 19C41.75 18.5858 41.4142 18.25 41 18.25C40.5858 18.25 40.25 18.5858 40.25 19H41.75ZM18.4697 40.4697C18.1768 40.7626 18.1768 41.2374 18.4697 41.5303L23.2426 46.3033C23.5355 46.5962 24.0104 46.5962 24.3033 46.3033C24.5962 46.0104 24.5962 45.5355 24.3033 45.2426L20.0607 41L24.3033 36.7574C24.5962 36.4645 24.5962 35.9896 24.3033 35.6967C24.0104 35.4038 23.5355 35.4038 23.2426 35.6967L18.4697 40.4697ZM40.25 19V33H41.75V19H40.25ZM33 40.25H19V41.75H33V40.25ZM40.25 33C40.25 37.0041 37.0041 40.25 33 40.25V41.75C37.8325 41.75 41.75 37.8325 41.75 33H40.25Z" fill="#C6CED9"/>
<path d="M6.25 29C6.25 29.4142 6.58579 29.75 7 29.75C7.41421 29.75 7.75 29.4142 7.75 29H6.25ZM7 15H7.75H7ZM15 7V6.25V7ZM29.5303 7.53033C29.8232 7.23744 29.8232 6.76256 29.5303 6.46967L24.7574 1.6967C24.4645 1.40381 23.9896 1.40381 23.6967 1.6967C23.4038 1.98959 23.4038 2.46447 23.6967 2.75736L27.9393 7L23.6967 11.2426C23.4038 11.5355 23.4038 12.0104 23.6967 12.3033C23.9896 12.5962 24.4645 12.5962 24.7574 12.3033L29.5303 7.53033ZM7.75 29L7.75 15H6.25L6.25 29H7.75ZM15 7.75L29 7.75V6.25L15 6.25V7.75ZM7.75 15C7.75 10.9959 10.9959 7.75 15 7.75V6.25C10.1675 6.25 6.25 10.1675 6.25 15H7.75Z" fill="#C6CED9"/>
</svg>
