<svg width="48" height="48" viewBox="0 0 48 48" fill="none" xmlns="http://www.w3.org/2000/svg">
	<path fill-rule="evenodd" clip-rule="evenodd" d="M7 8.75C6.30964 8.75 5.75 9.30964 5.75 10V34H17.0949C17.5138 34 17.9221 34.1315 18.2622 34.376L19.303 35.124C19.6431 35.3685 20.0514 35.5 20.4703 35.5H27.5297C27.9486 35.5 28.3569 35.3685 28.697 35.124L29.7378 34.376C30.0779 34.1315 30.4862 34 30.9051 34H42.25V10C42.25 9.30964 41.6904 8.75 41 8.75H7ZM4.25 10V34H1C0.447715 34 0 34.4477 0 35V38C0 38.5523 0.447714 39 0.999999 39H47C47.5523 39 48 38.5523 48 38V35C48 34.4477 47.5523 34 47 34H43.75V10C43.75 8.48122 42.5188 7.25 41 7.25H7C5.48122 7.25 4.25 8.48122 4.25 10ZM46.5 35.5H30.9051C30.8003 35.5 30.6983 35.5329 30.6132 35.594L29.5725 36.3421C28.9772 36.7699 28.2627 37 27.5297 37H20.4703C19.7373 37 19.0228 36.7699 18.4275 36.3421L17.3868 35.594C17.3017 35.5329 17.1997 35.5 17.0949 35.5H1.5V37.5H46.5V35.5ZM21 17C21 17.5523 20.5523 18 20 18C19.4477 18 19 17.5523 19 17C19 16.4477 19.4477 16 20 16C20.5523 16 21 16.4477 21 17ZM28 18C28.5523 18 29 17.5523 29 17C29 16.4477 28.5523 16 28 16C27.4477 16 27 16.4477 27 17C27 17.5523 27.4477 18 28 18ZM16.7138 21.7697C16.5866 21.3755 16.1639 21.159 15.7697 21.2862C15.3755 21.4134 15.1591 21.8361 15.2863 22.2303C16.508 26.0164 19.9797 28.75 24 28.75C28.0203 28.75 31.4921 26.0164 32.7138 22.2303C32.841 21.8361 32.6245 21.4134 32.2303 21.2862C31.8361 21.159 31.4135 21.3755 31.2863 21.7697C30.2492 24.9836 27.3209 27.25 24 27.25C20.6791 27.25 17.7509 24.9836 16.7138 21.7697Z" fill="currentColor" />
</svg>
