<svg width="40" height="41" viewBox="0 0 40 41" fill="none" xmlns="http://www.w3.org/2000/svg">
<path d="M21.3586 3.62494H10.4481C9.4579 3.62494 8.51768 4.11844 7.83688 4.8054C7.15608 5.49235 6.66699 6.44106 6.66699 7.4402V33.143C6.66699 34.1421 7.15608 35.0909 7.83688 35.7778C8.51768 36.4648 9.4579 36.9583 10.4481 36.9583H29.5526C30.5428 36.9583 31.483 36.4648 32.1638 35.7778C32.8446 35.0909 33.3337 34.1421 33.3337 33.143V15.6829" stroke="#03020D" stroke-width="1.5" stroke-linecap="round"/>
<path d="M23.8194 29.25L29.375 25.0833L23.8194 20.9167" stroke="#03020D" stroke-width="1.5" stroke-linecap="round" stroke-linejoin="round"/>
<path d="M16.1806 24.2499L10.625 20.0833L16.1806 15.9166" stroke="#03020D" stroke-width="1.5" stroke-linecap="round" stroke-linejoin="round"/>
<path d="M18.334 30.0833L21.6673 14.25" stroke="#03020D" stroke-width="1.5" stroke-linecap="round"/>
<path fill-rule="evenodd" clip-rule="evenodd" d="M33.5321 10.5289C34.444 11.4408 33.7982 13 32.5085 13L27.8881 13C25.7181 13 23.959 11.2409 23.959 9.0709L23.959 4.45046C23.959 3.16082 25.5182 2.51497 26.4301 3.42688L33.5321 10.5289Z" fill="#FF5416"/>
</svg>
