<svg width="49" height="49" viewBox="0 0 49 49" fill="none" xmlns="http://www.w3.org/2000/svg">
<path d="M44.6528 16.1816C45.2643 17.5705 45.7304 19.0219 46.0416 20.5129C46.3452 21.9855 46.4988 23.4848 46.5 24.9882C46.5001 28.1498 45.8147 31.2739 44.4907 34.1467C43.1667 37.0195 41.2354 39.5729 38.8292 41.6321C36.4231 43.6913 33.5988 45.2076 30.55 46.077C27.5012 46.9464 24.2999 47.1484 21.1655 46.6692C18.031 46.1901 15.0376 45.041 12.3901 43.3008C9.74271 41.5605 7.5039 39.2703 5.82714 36.5869C4.15037 33.9036 3.0753 30.8904 2.67553 27.7541C2.42796 25.8118 2.443 23.8507 2.71604 21.9226" stroke="#C6CED9" stroke-width="1.5" stroke-miterlimit="10" stroke-linecap="round"/>
<path d="M35.4116 5.92285C33.8755 5.02678 32.236 4.31827 30.5268 3.81519C27.7133 2.98708 24.7665 2.73183 21.8556 3.06416C18.9447 3.39649 16.1271 4.30994 13.5648 5.75179C11.7932 6.74871 10.1677 7.98468 8.7312 9.42285" stroke="#C6CED9" stroke-width="1.5" stroke-miterlimit="10" stroke-linecap="round"/>
<path fill-rule="evenodd" clip-rule="evenodd" d="M2.5 15.9229C2.5 13.7137 4.29086 11.9229 6.5 11.9229C8.70914 11.9229 10.5 13.7137 10.5 15.9229C10.5 18.132 8.70914 19.9229 6.5 19.9229C4.29086 19.9229 2.5 18.132 2.5 15.9229Z" fill="#FF5416"/>
<path fill-rule="evenodd" clip-rule="evenodd" d="M39 7.92285C36.7909 7.92285 35 9.71371 35 11.9229C35 14.132 36.7909 15.9229 39 15.9229C41.2091 15.9229 43 14.132 43 11.9229C43 9.71371 41.2091 7.92285 39 7.92285Z" fill="#FF5416"/>
<path fill-rule="evenodd" clip-rule="evenodd" d="M23 16.9229C20.7909 16.9229 19 18.7137 19 20.9229C19 23.132 20.7909 24.9229 23 24.9229C25.2091 24.9229 27 23.132 27 20.9229C27 18.7137 25.2091 16.9229 23 16.9229Z" fill="#FF5416"/>
<path fill-rule="evenodd" clip-rule="evenodd" d="M11.5 35.4229C11.5 33.2137 13.2909 31.4229 15.5 31.4229C17.7091 31.4229 19.5 33.2137 19.5 35.4229C19.5 37.632 17.7091 39.4229 15.5 39.4229C13.2909 39.4229 11.5 37.632 11.5 35.4229Z" fill="#FF5416"/>
<path fill-rule="evenodd" clip-rule="evenodd" d="M31.5 34.4229C31.5 32.2137 33.2909 30.4229 35.5 30.4229C37.7091 30.4229 39.5 32.2137 39.5 34.4229C39.5 36.632 37.7091 38.4229 35.5 38.4229C33.2909 38.4229 31.5 36.632 31.5 34.4229Z" fill="#FF5416"/>
<path d="M20.8206 3.61035C20.5257 5.17949 20.3767 6.76729 20.375 8.35788C20.3715 10.3236 20.5962 12.2822 21.044 14.2033" stroke="#C6CED9" stroke-width="1.5" stroke-miterlimit="10" stroke-linecap="round"/>
<path d="M26.8486 26.6138C27.8076 27.8505 28.8616 29.003 30 30.0597" stroke="#C6CED9" stroke-width="1.5" stroke-miterlimit="10" stroke-linecap="round"/>
<path d="M16.5001 23.3594C11.6894 25.8523 7.49818 29.2814 4.21643 33.4226" stroke="#C6CED9" stroke-width="1.5" stroke-miterlimit="10" stroke-linecap="round"/>
<path d="M45.8125 20.1103C40.5308 18.8002 34.9635 18.4229 29.5 18.9931" stroke="#C6CED9" stroke-width="1.5" stroke-miterlimit="10" stroke-linecap="round"/>
<path d="M11.1361 20.9229C12.7981 23.2246 14.0649 25.7553 14.8902 28.4229" stroke="#C6CED9" stroke-width="1.5" stroke-miterlimit="10" stroke-linecap="round"/>
<path d="M15 42.2319C14.8128 42.9696 14.5938 43.7005 14.3434 44.4226L15 42.2319Z" stroke="#C6CED9" stroke-width="1.5" stroke-miterlimit="10" stroke-linecap="round" stroke-linejoin="round"/>
<path d="M30.354 39.104C28.9541 41.4341 27.9212 43.9967 27.3019 46.6919" stroke="#C6CED9" stroke-width="1.5" stroke-miterlimit="10" stroke-linecap="round"/>
<path d="M46 28.4526C44.1651 28.8077 42.3857 29.327 40.6934 30" stroke="#C6CED9" stroke-width="1.5" stroke-miterlimit="10" stroke-linecap="round"/>
</svg>
