<svg width="48" height="48" viewBox="0 0 48 48" fill="none" xmlns="http://www.w3.org/2000/svg">
<path d="M39.5001 8V23.3125" stroke="#C6CED9" stroke-width="1.5" stroke-miterlimit="10" stroke-linecap="round"/>
<path d="M5.50012 8V32C5.50012 35.5608 11.9569 38.5005 20.3124 38.9426" stroke="#C6CED9" stroke-width="1.5" stroke-miterlimit="10" stroke-linecap="round"/>
<path d="M5.50012 24C5.50012 27.5519 11.9248 30.4859 20.25 30.9392" stroke="#C6CED9" stroke-width="1.5" stroke-miterlimit="10" stroke-linecap="round"/>
<path d="M39.5001 16C39.5001 19.866 31.889 23 22.5001 23C13.1113 23 5.50012 19.866 5.50012 16" stroke="#C6CED9" stroke-width="1.5" stroke-miterlimit="10"/>
<path d="M22.5001 15C31.889 15 39.5001 11.866 39.5001 8C39.5001 4.13401 31.889 1 22.5001 1C13.1113 1 5.50012 4.13401 5.50012 8C5.50012 11.866 13.1113 15 22.5001 15Z" stroke="#C6CED9" stroke-width="1.5" stroke-miterlimit="10"/>
<path d="M32.9923 24.6433L33.0204 24.6621C33.0463 24.6792 33.0865 24.7052 33.1407 24.7387C33.2489 24.8057 33.4127 24.9024 33.6286 25.0174C34.0604 25.2473 34.6998 25.5494 35.5197 25.831C37.1591 26.3941 39.5167 26.8743 42.3809 26.5347C42.5059 26.5198 42.6312 26.5592 42.7253 26.6428C42.8194 26.7264 42.8733 26.8463 42.8733 26.9721V34.0849L42.8738 34.1082C42.8742 34.1274 42.8745 34.1547 42.8745 34.1897C42.8744 34.2597 42.8729 34.3605 42.8673 34.4889C42.856 34.7457 42.8283 35.1134 42.763 35.5672C42.6323 36.4744 42.3507 37.7286 41.7467 39.128C40.5351 41.9356 38.0353 45.3046 32.9155 47.6275C32.8065 47.677 32.682 47.6799 32.5707 47.6357L32.5678 47.6345L32.5614 47.6319L32.5388 47.6227C32.5195 47.6147 32.4915 47.603 32.4556 47.5877C32.3838 47.5569 32.2799 47.5112 32.1485 47.4502C31.8857 47.3283 31.5123 47.1452 31.064 46.898C30.1683 46.4039 28.9689 45.6513 27.7546 44.6158C25.3284 42.5469 22.8101 39.3188 22.5919 34.7501C22.5916 34.7437 22.5914 34.7372 22.5914 34.7308L22.5596 26.9091C22.5591 26.7831 22.6126 26.6628 22.7066 26.5788C22.8006 26.4948 22.9261 26.4551 23.0513 26.4698C26.3283 26.8533 29.6441 26.2034 32.5204 24.6144C32.6675 24.5331 32.8483 24.5429 32.9861 24.639L32.9923 24.6433Z" fill="#FF5416"/>
<path d="M29 36L31.8571 39.4286L37 32" stroke="#03020D" stroke-width="1.5" stroke-linecap="round" stroke-linejoin="round"/>
</svg>
