<svg width="49" height="49" viewBox="0 0 49 49" fill="none" xmlns="http://www.w3.org/2000/svg">
<path d="M19.6666 12.4194C18.1274 11.7776 16.4384 11.4231 14.6666 11.4231C7.48692 11.4231 1.66663 17.2434 1.66663 24.4231C1.66663 31.6028 7.48692 37.4231 14.6666 37.4231C16.4384 37.4231 18.1274 37.0686 19.6666 36.4268" stroke="#C6CED9" stroke-width="1.63636" stroke-linecap="round" stroke-linejoin="round"/>
<path d="M29.6666 12.4194C28.1274 11.7776 26.4384 11.4231 24.6666 11.4231C17.4869 11.4231 11.6666 17.2434 11.6666 24.4231C11.6666 31.6028 17.4869 37.4231 24.6666 37.4231C26.4384 37.4231 28.1274 37.0686 29.6666 36.4268" stroke="#C6CED9" stroke-width="1.63636" stroke-linecap="round" stroke-linejoin="round"/>
<path d="M47.19 27.9231C47.5006 26.8095 47.6666 25.6357 47.6666 24.4231C47.6666 17.2434 41.8463 11.4231 34.6666 11.4231C27.4869 11.4231 21.6666 17.2434 21.6666 24.4231C21.6666 31.6028 27.4869 37.4231 34.6666 37.4231C35.3468 37.4231 36.0147 37.3709 36.6666 37.2702" stroke="#C6CED9" stroke-width="1.63636" stroke-linecap="round" stroke-linejoin="round"/>
<circle cx="43.1666" cy="33.9231" r="4.5" fill="#FF5416"/>
<path d="M31.2593 19.2412H33.0888V26.4003C33.0855 27.0566 32.9463 27.6217 32.6712 28.0956C32.3961 28.5663 32.0116 28.9292 31.5178 29.1844C31.0273 29.4363 30.4555 29.5622 29.8026 29.5622C29.206 29.5622 28.6691 29.4562 28.1918 29.2441C27.7178 29.0286 27.3417 28.7104 27.0632 28.2895C26.7848 27.8686 26.6456 27.3449 26.6456 26.7185H28.4801C28.4835 26.9936 28.5431 27.2306 28.6591 27.4294C28.7784 27.6283 28.9425 27.7807 29.1513 27.8868C29.3601 27.9929 29.6004 28.0459 29.8722 28.0459C30.1672 28.0459 30.4174 27.9846 30.6229 27.8619C30.8284 27.736 30.9842 27.5504 31.0902 27.3051C31.1996 27.0599 31.256 26.7583 31.2593 26.4003V19.2412Z" fill="#C6CED9"/>
<path d="M35.0899 29.423V19.2412H38.9081C39.6903 19.2412 40.3465 19.387 40.8768 19.6787C41.4104 19.9704 41.8131 20.3714 42.0849 20.8818C42.36 21.3889 42.4975 21.9656 42.4975 22.6119C42.4975 23.2649 42.36 23.8449 42.0849 24.352C41.8098 24.8591 41.4038 25.2585 40.8669 25.5502C40.3299 25.8385 39.6687 25.9827 38.8832 25.9827H36.3527V24.4664H38.6346C39.092 24.4664 39.4665 24.3868 39.7582 24.2277C40.0499 24.0686 40.2653 23.8499 40.4045 23.5715C40.547 23.2931 40.6183 22.9732 40.6183 22.6119C40.6183 22.2507 40.547 21.9325 40.4045 21.6574C40.2653 21.3823 40.0482 21.1685 39.7532 21.0161C39.4616 20.8603 39.0854 20.7824 38.6247 20.7824H36.9343V29.423H35.0899Z" fill="#C6CED9"/>
</svg>
