<svg class="align-bottom mx-20" width="28" height="32" viewBox="0 0 28 32" fill="currentColor" xmlns="http://www.w3.org/2000/svg">
<path fill-rule="evenodd" clip-rule="evenodd" d="M17.8073 4.58625C18.3673 4.58625 18.8207 5.02934 18.8207 5.57572C18.8207 6.1221 18.3673 6.56518 17.8073 6.56518C17.2487 6.56518 16.7947 6.1221 16.7947 5.57572C16.7947 5.02934 17.2487 4.58625 17.8073 4.58625ZM10.1917 4.58625C10.7513 4.58625 11.2051 5.02934 11.2051 5.57572C11.2051 6.1221 10.7513 6.56518 10.1917 6.56518C9.63213 6.56518 9.1784 6.1221 9.1784 5.57572C9.1784 5.02934 9.63213 4.58625 10.1917 4.58625ZM26.0213 10.2031C27.11 10.2031 28 11.0723 28 12.1349V19.8613C28 20.9238 27.11 21.7927 26.0213 21.7927C24.9333 21.7927 24.0427 20.9238 24.0427 19.8613V12.1349C24.0427 11.0723 24.9333 10.2031 26.0213 10.2031ZM1.97807 10.2031C3.06593 10.2031 3.95613 11.0723 3.95613 12.1349V19.8613C3.95613 20.9238 3.06593 21.7927 1.97807 21.7927C0.889868 21.7927 0 20.9238 0 19.8613V12.1349C0 11.0723 0.889868 10.2031 1.97807 10.2031ZM12.3939 25.7745V30.0681C12.3939 31.1307 11.5037 31.9999 10.4155 31.9999C9.32767 31.9999 8.4374 31.1307 8.4374 30.0681V25.7745H6.77774C5.89707 25.7745 5.17626 25.0707 5.17626 24.2107V10.1367H22.8227V24.2107C22.8227 25.0707 22.102 25.7745 21.2213 25.7745H19.562V30.0681C19.562 31.1307 18.672 31.9999 17.584 31.9999C16.4959 31.9999 15.6061 31.1307 15.6061 30.0681V25.7745H12.3939ZM13.9995 1.97102C15.3316 1.97102 16.5933 2.21016 17.7253 2.63797L19.392 0.132257C19.4807 -0.00226186 19.6653 -0.0404586 19.8033 0.0468958C19.9413 0.13425 19.98 0.314605 19.8907 0.449125L18.282 2.86815C20.9433 4.06785 22.7567 6.35036 22.8087 8.9786H5.19093C5.2426 6.35036 7.05607 4.06785 9.71786 2.86815L8.10887 0.449125C8.0194 0.314605 8.05854 0.13425 8.19627 0.0468958C8.3344 -0.0404586 8.51873 -0.00226186 8.6082 0.132257L10.2743 2.63797C11.4061 2.21049 12.6681 1.97102 13.9995 1.97102Z" />
</svg>
