<svg class="align-bottom" width="28" height="32" viewBox="0 0 28 32" fill="currentColor" xmlns="http://www.w3.org/2000/svg">
<path fill-rule="evenodd" clip-rule="evenodd" d="M20.518 0C20.7306 1.87264 19.9597 3.75625 18.8149 5.1084C17.6709 6.46134 15.7962 7.51173 13.9591 7.373C13.7064 5.53796 14.6362 3.62064 15.6951 2.42369C16.8767 1.07232 18.8703 0.0634925 20.518 0ZM16.1202 8.65813C17.3269 8.1914 18.8259 7.6116 20.4785 7.7312C21.535 7.80807 24.5353 8.11613 26.4775 10.9105C26.4743 10.9125 26.4699 10.9151 26.4641 10.9185C26.1853 11.0839 22.9011 13.0325 22.9389 17.0003C22.9822 21.843 27.2845 23.4562 27.3334 23.4743C27.3316 23.4795 27.3285 23.4893 27.3241 23.5031C27.2331 23.7909 26.5731 25.8756 25.0655 28.0253C23.7002 29.9771 22.2859 31.9179 20.0533 31.9587C18.9818 31.9779 18.2651 31.6749 17.5201 31.3599C16.7402 31.0301 15.9293 30.6873 14.648 30.6873C13.3049 30.6873 12.4562 31.0405 11.6386 31.3808C10.9301 31.6757 10.2451 31.9608 9.28201 31.9979C7.12728 32.0779 5.48675 29.8901 4.11173 27.9485C1.29998 23.9751 -0.849952 16.7205 2.03641 11.8245C3.46997 9.393 6.03141 7.85193 8.81108 7.81273C10.0107 7.79053 11.1719 8.24007 12.1886 8.63367C12.9655 8.9344 13.658 9.20253 14.2188 9.20253C14.7128 9.20253 15.3583 8.95287 16.1202 8.65813Z" />
</svg>
