<svg width="18" height="24" viewBox="0 0 18 24" xmlns="http://www.w3.org/2000/svg">
<path d="M14.122 20.5734H0.5C0.5 22.4677 2.0222 24 3.90634 24H14.122C16.0027 24 17.5249 22.4643 17.5249 20.5734V6.49471C17.5249 6.42706 17.4708 6.36617 17.4032 6.36617H14.2438C14.1761 6.36617 14.122 6.42368 14.122 6.49133V20.57V20.5734ZM14.122 0C16.0027 0 17.5249 1.53573 17.5249 3.43002H3.90634V17.5087C3.90634 17.5763 3.84884 17.6338 3.78118 17.6338H0.625159C0.557505 17.6338 0.5 17.5763 0.5 17.5087V3.43002C0.5 1.53573 2.0222 0 3.90634 0H14.122Z" />
</svg>
