<svg width="48" height="49" viewBox="0 0 48 49" fill="none" xmlns="http://www.w3.org/2000/svg">
<g clip-path="url(#clip0_3698_15495)">
<rect x="48" y="45.5" width="3" height="10" transform="rotate(90 48 45.5)" fill="#03020D"/>
<rect x="10" y="45.5" width="3" height="10" transform="rotate(90 10 45.5)" fill="#03020D"/>
<path d="M33.0683 31.776C31.3403 33.036 29.1803 33.864 26.5883 33.864C21.0803 33.864 17.0483 30.048 17.0483 24.72C17.0483 19.32 20.9723 15.468 26.3003 15.468L34.0403 17.844V12.768C32.0603 12.048 29.2523 11.292 26.1563 11.292C18.4163 11.292 12.4043 16.728 12.4043 24.72C12.4043 32.712 18.4163 38.148 26.1563 38.148C29.5043 38.148 32.6363 37.176 34.6883 35.88L33.0683 31.776Z" fill="#03020D"/>
<rect y="3.5" width="3" height="42" fill="#03020D"/>
<rect x="48" y="0.5" width="3" height="10" transform="rotate(90 48 0.5)" fill="#03020D"/>
<rect x="45" y="3.5" width="3" height="42" fill="#03020D"/>
<rect x="10" y="0.5" width="3" height="10" transform="rotate(90 10 0.5)" fill="#03020D"/>
</g>
<defs>
<clipPath id="clip0_3698_15495">
<rect width="48" height="48" fill="white" transform="translate(0 0.5)"/>
</clipPath>
</defs>
</svg>
