<svg width="48" height="49" viewBox="0 0 48 49" fill="none" xmlns="http://www.w3.org/2000/svg">
<g clip-path="url(#clip0_3698_16292)">
<path d="M48 0.5H0V48.5H48V0.5Z" fill="#D86613"/>
<path d="M38.7193 40.5H30.8345C30.7139 40.4997 30.5958 40.4652 30.4939 40.4007C30.392 40.3361 30.3104 40.2441 30.2585 40.1352L19.1097 16.82H14.3929C14.2232 16.82 14.0604 16.7526 13.9404 16.6325C13.8204 16.5125 13.7529 16.3497 13.7529 16.18V9.14C13.7529 8.97026 13.8204 8.80748 13.9404 8.68745C14.0604 8.56743 14.2232 8.5 14.3929 8.5H24.2489C24.3696 8.50034 24.4876 8.53477 24.5896 8.59931C24.6915 8.66386 24.7731 8.75589 24.8249 8.8648L35.9225 32.18H38.7193C38.8891 32.18 39.0519 32.2474 39.1719 32.3674C39.2919 32.4875 39.3593 32.6503 39.3593 32.82V39.86C39.3593 40.0297 39.2919 40.1925 39.1719 40.3125C39.0519 40.4326 38.8891 40.5 38.7193 40.5ZM31.2377 39.22H38.0793V33.46H35.5193C35.3987 33.4597 35.2806 33.4252 35.1787 33.3607C35.0768 33.2961 34.9952 33.2041 34.9433 33.0952L23.8457 9.78H15.0393V15.54H19.5193C19.64 15.5403 19.758 15.5748 19.86 15.6393C19.9619 15.7039 20.0435 15.7959 20.0953 15.9048L31.2377 39.22Z" fill="white"/>
<path d="M17.5868 40.5H9.26678C9.15802 40.5002 9.05099 40.4727 8.95581 40.42C8.86063 40.3674 8.78043 40.2914 8.72278 40.1992C8.66167 40.1047 8.62653 39.9958 8.62092 39.8835C8.6153 39.7711 8.6394 39.6592 8.69078 39.5592L17.3948 21.3768C17.4467 21.2679 17.5282 21.1758 17.6302 21.1113C17.7321 21.0467 17.8502 21.0123 17.9708 21.012C18.0907 21.0117 18.2083 21.0452 18.3102 21.1086C18.412 21.1719 18.494 21.2627 18.5468 21.3704L22.7132 29.94C22.7551 30.0268 22.7769 30.122 22.7769 30.2184C22.7769 30.3148 22.7551 30.4099 22.7132 30.4968L18.1692 40.0968C18.1226 40.2138 18.0425 40.3146 17.9389 40.3863C17.8352 40.458 17.7128 40.4976 17.5868 40.5ZM10.2908 39.22H17.1836L21.4268 30.26L17.9772 23.124L10.2908 39.22Z" fill="white"/>
</g>
<defs>
<clipPath id="clip0_3698_16292">
<rect width="48" height="48" fill="white" transform="translate(0 0.5)"/>
</clipPath>
</defs>
</svg>
