<svg width="48" height="48" viewBox="0 0 48 48" fill="none" xmlns="http://www.w3.org/2000/svg">
<path d="M39.4662 12.2735V9.13167C39.4662 9.0837 39.4422 9.03574 39.3942 9.01175L23.805 0.0179875C23.7571 -0.00599584 23.7091 -0.00599584 23.6611 0.0179875L21.0709 1.50496C20.975 1.55292 20.975 1.69682 21.0709 1.74479L36.3723 10.5707C36.4683 10.6186 36.4683 10.7625 36.3723 10.8105L33.1106 12.7052C33.0626 12.7292 33.0147 12.7292 32.9667 12.7052L17.3775 3.71143C17.3295 3.68744 17.2816 3.68744 17.2336 3.71143L14.6434 5.1984C14.5475 5.24636 14.5475 5.39026 14.6434 5.43823L29.9448 14.2641C30.0407 14.3121 30.0407 14.456 29.9448 14.5039L26.683 16.3986C26.6351 16.4226 26.5871 16.4226 26.5391 16.3986L10.95 7.40487C10.902 7.38088 10.854 7.38088 10.8061 7.40487L8.07195 8.98777C8.02398 9.01175 8 9.05972 8 9.10769V38.943C8 38.991 8.02398 39.0389 8.07195 39.0629L10.6622 40.5499C10.7581 40.5979 10.878 40.5259 10.878 40.43V10.9304C10.878 10.8105 10.9979 10.7625 11.0939 10.8105L14.3556 12.7052C14.4036 12.7292 14.4275 12.7771 14.4275 12.8251V42.6604C14.4275 42.7084 14.4515 42.7564 14.4995 42.7803L17.0897 44.2673C17.1856 44.3153 17.3055 44.2433 17.3055 44.1474V14.6478C17.3055 14.5279 17.4255 14.48 17.5214 14.5279L20.7831 16.4226C20.8311 16.4466 20.8551 16.4946 20.8551 16.5425V46.3778C20.8551 46.4258 20.8791 46.4738 20.927 46.4978L23.5172 47.9847C23.6132 48.0327 23.7331 47.9608 23.7331 47.8648V36.3528C23.7331 36.3048 23.7571 36.2569 23.805 36.2329L39.3942 27.2391C39.4422 27.2151 39.4662 27.1672 39.4662 27.1192V24.1213C39.4662 24.0014 39.3463 23.9534 39.2503 24.0014L23.9489 32.8512C23.853 32.8992 23.7331 32.8272 23.7331 32.7313V28.9419C23.7331 28.894 23.7571 28.846 23.805 28.822L39.3942 19.8283C39.4422 19.8043 39.4662 19.7563 39.4662 19.7083V16.7104C39.4662 16.5905 39.3463 16.5425 39.2503 16.5905L23.9489 25.4164C23.853 25.4643 23.7331 25.3924 23.7331 25.2965V21.5071C23.7331 21.4591 23.7571 21.4112 23.805 21.3872L39.3942 12.3934C39.4422 12.3694 39.4662 12.3454 39.4662 12.2735Z" fill="#2E124E"/>
</svg>
