<svg width="48" height="48" viewBox="0 0 48 48" fill="none" xmlns="http://www.w3.org/2000/svg">
<path fill-rule="evenodd" clip-rule="evenodd" d="M24 42C22.8954 42 22 42.8954 22 44C22 45.1046 22.8954 46 24 46C25.1046 46 26 45.1046 26 44C26 42.8954 25.1046 42 24 42ZM6 11C4.89543 11 4 11.8954 4 13C4 14.1046 4.89543 15 6 15C7.10457 15 8 14.1046 8 13C8 11.8954 7.10457 11 6 11ZM42 11C40.8954 11 40 11.8954 40 13C40 14.1046 40.8954 15 42 15C43.1046 15 44 14.1046 44 13C44 11.8954 43.1046 11 42 11ZM6 33C4.89543 33 4 33.8954 4 35C4 36.1046 4.89543 37 6 37C7.10457 37 8 36.1046 8 35C8 33.8954 7.10457 33 6 33ZM42 33C40.8954 33 40 33.8954 40 35C40 36.1046 40.8954 37 42 37C43.1046 37 44 36.1046 44 35C44 33.8954 43.1046 33 42 33ZM24 2C22.8954 2 22 2.89543 22 4C22 5.10457 22.8954 6 24 6C25.1046 6 26 5.10457 26 4C26 2.89543 25.1046 2 24 2ZM24 0C21.7909 0 20 1.79086 20 4C20 6.20914 21.7909 8 24 8C26.2091 8 28 6.20914 28 4C28 1.79086 26.2091 0 24 0ZM6 9C3.79086 9 2 10.7909 2 13C2 15.2091 3.79086 17 6 17C8.20914 17 10 15.2091 10 13C10 10.7909 8.20914 9 6 9ZM24 40C21.7909 40 20 41.7909 20 44C20 46.2091 21.7909 48 24 48C26.2091 48 28 46.2091 28 44C28 41.7909 26.2091 40 24 40ZM38 13C38 10.7909 39.7909 9 42 9C44.2091 9 46 10.7909 46 13C46 15.2091 44.2091 17 42 17C39.7909 17 38 15.2091 38 13ZM6 31C3.79086 31 2 32.7909 2 35C2 37.2091 3.79086 39 6 39C8.20914 39 10 37.2091 10 35C10 32.7909 8.20914 31 6 31ZM38 35C38 32.7909 39.7909 31 42 31C44.2091 31 46 32.7909 46 35C46 37.2091 44.2091 39 42 39C39.7909 39 38 37.2091 38 35Z" fill="#03020D"/>
<path fill-rule="evenodd" clip-rule="evenodd" d="M18.053 6.5885L16.5134 7.47739L15.5134 5.74533L17.053 4.85645L18.053 6.5885ZM31.7501 7.62945L30.2501 6.76342L31.2501 5.03137L32.7501 5.8974L31.7501 7.62945ZM13.4342 9.25516L11.8946 10.1441L10.8946 8.412L12.4342 7.52311L13.4342 9.25516ZM36.2501 10.2275L34.7501 9.3615L35.7501 7.62945L37.2501 8.49547L36.2501 10.2275ZM42.0526 21.8058V19.8614H44.0526V21.8058H42.0526ZM5.94751 20.3388V22.1622H3.94751L3.94751 20.3388H5.94751ZM42.0526 27.6391V25.6947H44.0526V27.6391H42.0526ZM5.94751 25.8089V27.6323H3.94751L3.94751 25.8089H5.94751ZM12.4723 40.4994L10.9218 39.6042L11.9218 37.8722L13.4723 38.7674L12.4723 40.4994ZM36.6709 39.8394L35.1392 40.7237L34.1392 38.9917L35.6709 38.1074L36.6709 39.8394ZM17.1239 43.185L15.5734 42.2898L16.5734 40.5577L18.1239 41.4529L17.1239 43.185ZM32.0759 42.4924L30.5442 43.3767L29.5442 41.6446L31.0759 40.7603L32.0759 42.4924Z" fill="#03020D"/>
<path fill-rule="evenodd" clip-rule="evenodd" d="M34 20H14C12.8954 20 12 20.8954 12 22V26C12 27.1046 12.8954 28 14 28H34C35.1046 28 36 27.1046 36 26V22C36 20.8954 35.1046 20 34 20ZM14 18C11.7909 18 10 19.7909 10 22V26C10 28.2091 11.7909 30 14 30H34C36.2091 30 38 28.2091 38 26V22C38 19.7909 36.2091 18 34 18H14Z" fill="#03020D"/>
<path d="M30 24C30 22.9091 30.9091 22 32 22C33.0909 22 34 22.9091 34 24C34 25.0909 33.0909 26 32 26C30.9091 26 30 25.0909 30 24Z" fill="#03020D"/>
<path fill-rule="evenodd" clip-rule="evenodd" d="M18 22C18.5523 22 19 22.4477 19 23L19 25C19 25.5523 18.5523 26 18 26C17.4477 26 17 25.5523 17 25L17 23C17 22.4477 17.4477 22 18 22Z" fill="#03020D"/>
<path fill-rule="evenodd" clip-rule="evenodd" d="M15 22C15.5523 22 16 22.4477 16 23L16 25C16 25.5523 15.5523 26 15 26C14.4477 26 14 25.5523 14 25L14 23C14 22.4477 14.4477 22 15 22Z" fill="#03020D"/>
</svg>
