<svg width="48" height="49" viewBox="0 0 48 49" fill="none" xmlns="http://www.w3.org/2000/svg">
<g clip-path="url(#clip0_3698_15492)">
<path d="M22.4629 42.9633L27.9997 48.5001H42.7807L29.8544 35.5737" fill="#0D47A1"/>
<path fill-rule="evenodd" clip-rule="evenodd" d="M4 24.4981L11.3915 31.8895L42.781 0.5H28L4 24.4981ZM28.0001 22.6449H42.7811L29.8547 35.5732L22.4632 28.1817L28.0001 22.6449Z" fill="#42A5F5" fill-opacity="0.8"/>
<path d="M15.0889 35.5771L22.4687 28.1953L29.8485 35.5752L22.4687 42.9569L15.0889 35.5771Z" fill="#42A5F5"/>
<path d="M22.4688 42.9575L29.8486 35.5776L30.8787 36.6078L23.4989 43.9876L22.4688 42.9575Z" fill="url(#paint0_linear_3698_15492)"/>
<path d="M22.4629 42.9633L33.4298 39.1744L29.8544 35.5718" fill="url(#paint1_linear_3698_15492)"/>
</g>
<defs>
<linearGradient id="paint0_linear_3698_15492" x1="25.645" y1="39.7813" x2="26.6752" y2="40.8115" gradientUnits="userSpaceOnUse">
<stop offset="0.2" stop-opacity="0.15"/>
<stop offset="0.85" stop-color="#616161" stop-opacity="0.01"/>
</linearGradient>
<linearGradient id="paint1_linear_3698_15492" x1="22.4655" y1="42.9634" x2="33.4323" y2="42.9634" gradientUnits="userSpaceOnUse">
<stop offset="0.2" stop-opacity="0.55"/>
<stop offset="0.85" stop-color="#616161" stop-opacity="0.01"/>
</linearGradient>
<clipPath id="clip0_3698_15492">
<rect width="48" height="48" fill="white" transform="translate(0 0.5)"/>
</clipPath>
</defs>
</svg>
