<svg width="28" height="28" viewBox="0 0 28 28" fill="none" xmlns="http://www.w3.org/2000/svg">
<path fill-rule="evenodd" clip-rule="evenodd" d="M16.0833 4.83325H14V11.0247C14 11.7219 13.1948 12.1108 12.6486 11.6774L2.74746 3.81933C2.12916 3.32862 2.47615 2.33325 3.2655 2.33325H12.75H14H16.0833C21.3761 2.33325 25.6667 6.62386 25.6667 11.9166V15.2499C25.6667 15.9403 25.107 16.4999 24.4167 16.4999C23.7263 16.4999 23.1667 15.9403 23.1667 15.2499V11.9166C23.1667 8.00457 19.9954 4.83325 16.0833 4.83325ZM11.9154 23.1667H13.9987V16.9753C13.9987 16.278 14.8039 15.8891 15.3501 16.3225L25.2512 24.1806C25.8695 24.6713 25.5226 25.6667 24.7332 25.6667H15.2487H13.9987H11.9154C6.62264 25.6667 2.33203 21.3761 2.33203 16.0833V12.75C2.33203 12.0596 2.89168 11.5 3.58203 11.5C4.27239 11.5 4.83203 12.0596 4.83203 12.75V16.0833C4.83203 19.9954 8.00335 23.1667 11.9154 23.1667Z" fill="url(#paint0_linear_4274_473)"/>
<defs>
<linearGradient id="paint0_linear_4274_473" x1="14.0479" y1="2.33325" x2="14.0479" y2="16.5" gradientUnits="userSpaceOnUse">
<stop stop-color="#00E80B"/>
<stop offset="1" stop-color="#00C008"/>
</linearGradient>
</defs>
</svg>
