<svg width="48" height="49" viewBox="0 0 48 49" fill="none" xmlns="http://www.w3.org/2000/svg">
<g clip-path="url(#clip0_3698_15503)">
<path fill-rule="evenodd" clip-rule="evenodd" d="M10.6327 0.5C4.76041 0.5 0 5.26041 0 11.1327V37.8673C0 43.7396 4.76041 48.5 10.6327 48.5H37.3673C43.2396 48.5 48 43.7396 48 37.8673V11.1327C48 5.26041 43.2396 0.5 37.3673 0.5H10.6327Z" fill="url(#paint0_linear_3698_15503)"/>
<path fill-rule="evenodd" clip-rule="evenodd" d="M10.6242 0.538086C4.75643 0.538086 0 5.29452 0 11.1623V23.2544L4.92459 28.5554C4.92459 28.5554 4.92497 28.5554 4.92497 28.5558C4.97427 28.6429 11.3415 39.7834 24.7418 39.7834C30.7957 39.7834 32.5548 36.6791 35.5559 36.6791C38.6603 36.6791 40.5229 39.7834 40.5229 39.7834C42.3341 35.3335 37.8325 30.2629 37.8325 30.2629C37.8325 30.2629 42.955 18.4146 27.1227 7.65244C27.1223 7.6521 27.1223 7.65172 27.1219 7.65172L20.1073 0.538086H10.6242Z" fill="url(#paint1_linear_3698_15503)"/>
<path fill-rule="evenodd" clip-rule="evenodd" d="M27.1602 7.65527C42.9932 18.4176 37.8708 30.2665 37.8708 30.2665C37.8708 30.2665 42.3723 35.3372 40.5613 39.787C40.5613 39.787 38.6986 36.6825 35.5941 36.6825C32.5931 36.6825 30.8339 39.787 24.7801 39.787C11.3272 39.787 4.96289 28.559 4.96289 28.559C17.076 36.5408 25.3492 30.8874 25.3492 30.8874C19.8848 27.7133 8.27439 12.5708 8.27439 12.5708C18.3944 21.1786 22.7621 23.4365 22.7621 23.4365C20.1474 21.2836 12.8277 10.7598 12.8277 10.7598C18.6845 16.6857 30.3164 24.9371 30.3164 24.9371C33.6343 15.8161 27.1602 7.65527 27.1602 7.65527Z" fill="#FEFEFE"/>
</g>
<defs>
<linearGradient id="paint0_linear_3698_15503" x1="2.81259" y1="-5.75877" x2="-6.25876" y2="45.6874" gradientUnits="userSpaceOnUse">
<stop stop-color="#FAAE41"/>
<stop offset="1" stop-color="#EF3E31"/>
</linearGradient>
<linearGradient id="paint1_linear_3698_15503" x1="4.87574" y1="-1.86515" x2="-1.22988" y2="35.8395" gradientUnits="userSpaceOnUse">
<stop stop-color="#E29F3A"/>
<stop offset="1" stop-color="#D43929"/>
</linearGradient>
<clipPath id="clip0_3698_15503">
<rect width="48" height="48" fill="white" transform="translate(0 0.5)"/>
</clipPath>
</defs>
</svg>
