<svg width="48" height="48" viewBox="0 0 48 48" fill="none" xmlns="http://www.w3.org/2000/svg">
<path d="M36.5 9.5H33C30.3766 9.5 28.5 11.3766 28.5 14V23C28.5 24.5188 29.4812 25.75 31 25.75H39.75C41.2688 25.75 42.5 24.5188 42.5 23V15.5" stroke="#03020D" stroke-width="1.5" stroke-linecap="round"/>
<path d="M31.4286 17.5H34.75V12.5H31.4286C31.4286 12.5 30.5 12.5 30.5 13.5V16.5C30.5 17.5 31.4286 17.5 31.4286 17.5Z" stroke="#03020D" stroke-linejoin="round"/>
<path d="M40.5 15V16.5C40.5 17.5 39.5714 17.5 39.5714 17.5C38.6429 17.5 36.25 17.5 36.25 17.5V12.5H37" stroke="#03020D" stroke-linecap="round" stroke-linejoin="round"/>
<path d="M29.5 31L31.5 28" stroke="#03020D" stroke-width="1.5" stroke-linecap="round"/>
<path d="M42 31L40 28" stroke="#03020D" stroke-width="1.5" stroke-linecap="round"/>
<path d="M30.5 29.5H41" stroke="#03020D" stroke-width="1.5" stroke-linecap="round"/>
<circle cx="31.5" cy="21.5" r="1.5" fill="#03020D"/>
<circle cx="39.5" cy="21.5" r="1.5" fill="#03020D"/>
<path d="M14.5 4.12444C14.0122 4.0426 13.5111 4 13 4C8.02947 4 4.00003 8.02944 4.00003 13C4.00003 17.9706 8.02947 22 13 22C17.9706 22 22 17.9706 22 13C22 12.047 21.8519 11.1286 21.5774 10.2666" stroke="#03020D" stroke-width="1.5" stroke-linecap="round"/>
<path d="M10.3121 12.0403L12.3515 10.3026C12.7252 9.98417 13.2749 9.98417 13.6486 10.3026L15.6879 12.0403C16.0221 12.325 16.1315 12.7943 15.9577 13.1974L15.1176 15.1459C14.9596 15.5125 14.5986 15.75 14.1993 15.75H11.8007C11.4015 15.75 11.0405 15.5125 10.8824 15.1459L10.0424 13.1974C9.86861 12.7943 9.978 12.325 10.3121 12.0403Z" fill="#03020D" stroke="#03020D" stroke-width="1.5"/>
<path d="M10.1954 4.61029L12.3515 6.44738C12.7252 6.76583 13.2749 6.76583 13.6486 6.44738L14.2736 5.91483C14.4966 5.72484 14.625 5.44662 14.625 5.15367L14.625 4.21875" stroke="#03020D" stroke-width="1.5" stroke-linecap="round"/>
<path d="M21.775 13.5001L19.0118 11.5963C18.8872 11.5104 18.8433 11.3467 18.9083 11.21V11.21C19.0391 10.9352 19.9843 10.2787 20.2844 10.2279C20.5919 10.1758 20.9897 10.1021 21.5 10" stroke="#03020D" stroke-width="1.5" stroke-linecap="round"/>
<path d="M5.37081 7.59113L6.83859 10.6776C7.04946 11.1211 6.9072 11.652 6.50287 11.9306L3.68849 13.8696" stroke="#03020D" stroke-width="1.5"/>
<path d="M16 18.5L17 18L20 18.5L18 20.5L15.5 21.5L16 18.5Z" fill="#03020D"/>
<path d="M5.31416 18.3281L8.71616 18.0006C9.20491 17.9535 9.65552 18.2683 9.77955 18.7434L10.6429 22.0503" stroke="#03020D" stroke-width="1.5"/>
<path d="M15.3563 22.0504L16.22 18.7436C16.3441 18.2686 16.7947 17.9539 17.2835 18.001L20.6854 18.3288" stroke="#03020D" stroke-width="1.5"/>
<path d="M18.1185 27.5C17.2809 27.1759 16.3772 27 15.448 27C7.936 27.0233 8.2 33.6262 8.104 34.3261C5.8 34.5594 4 36.4726 4 38.7825C4 41.2556 6.064 43 8.608 43H22.288C25.456 42.93 28 40.6723 28 37.5692C28 36.2139 27.514 34.9733 26.7009 34" stroke="#03020D" stroke-width="1.5" stroke-linecap="round"/>
<path fill-rule="evenodd" clip-rule="evenodd" d="M19 30C19 27.7909 20.7909 26 23 26C25.2091 26 27 27.7909 27 30C27 32.2091 25.2091 34 23 34C20.7909 34 19 32.2091 19 30Z" fill="#FF5416"/>
<path fill-rule="evenodd" clip-rule="evenodd" d="M16 5C16 2.79086 17.7909 1 20 1C22.2091 1 24 2.79086 24 5C24 7.20914 22.2091 9 20 9C17.7909 9 16 7.20914 16 5Z" fill="#FF5416"/>
<path fill-rule="evenodd" clip-rule="evenodd" d="M38 10C38 7.79086 39.7909 6 42 6C44.2091 6 46 7.79086 46 10C46 12.2091 44.2091 14 42 14C39.7909 14 38 12.2091 38 10Z" fill="#FF5416"/>
<path d="M7 11.5V10.5L5.5 8.5L4 11V13.5L7 11.5Z" fill="#03020D"/>
<path d="M10 19L9 18L6 18.5L8 20.5L10 21.5V19Z" fill="#03020D"/>
<path d="M19 11L21 10L22 12L21.5 13L19.5 12L19 11Z" fill="#03020D"/>
<path d="M14.5 5.5L13 6.5L11 5V4H14.5V5.5Z" fill="#03020D"/>
</svg>
