<svg width="20" height="20" viewBox="0 0 20 20" fill="none" xmlns="http://www.w3.org/2000/svg">
<path d="M5 5.73163V4.99996C5 4.50268 5.19754 4.02577 5.54917 3.67414C5.90081 3.32251 6.37772 3.12496 6.875 3.12496H13.125C13.6223 3.12496 14.0992 3.32251 14.4508 3.67414C14.8025 4.02577 15 4.50268 15 4.99996V5.73163M5 5.73163C5.19583 5.66246 5.40583 5.62496 5.625 5.62496H14.375C14.5942 5.62496 14.8042 5.66246 15 5.73163M5 5.73163C4.63434 5.86091 4.31777 6.10039 4.09391 6.41709C3.87004 6.7338 3.74988 7.11213 3.75 7.49996V8.23163M15 5.73163C15.3657 5.86091 15.6822 6.10039 15.9061 6.41709C16.13 6.7338 16.2501 7.11213 16.25 7.49996V8.23163M3.75 8.23163C3.94583 8.16246 4.15583 8.12496 4.375 8.12496H15.625C15.8379 8.12471 16.0492 8.16079 16.25 8.23163M3.75 8.23163C3.02167 8.48913 2.5 9.1833 2.5 9.99996V15C2.5 15.4972 2.69754 15.9742 3.04917 16.3258C3.40081 16.6774 3.87772 16.875 4.375 16.875H15.625C16.1223 16.875 16.5992 16.6774 16.9508 16.3258C17.3025 15.9742 17.5 15.4972 17.5 15V9.99996C17.5001 9.61213 17.38 9.2338 17.1561 8.91709C16.9322 8.60039 16.6157 8.36091 16.25 8.23163" stroke="currentColor" stroke-width="1.25" stroke-linecap="round" stroke-linejoin="round"/>
</svg>

