<svg width="48" height="48" viewBox="0 0 48 48" fill="none" xmlns="http://www.w3.org/2000/svg">
<path fill-rule="evenodd" clip-rule="evenodd" d="M42 16.75H6V15.25H42V16.75Z" fill="#03020D"/>
<path fill-rule="evenodd" clip-rule="evenodd" d="M5.25 14C5.25 11.3766 7.37665 9.25 10 9.25H38C40.6234 9.25 42.75 11.3766 42.75 14V38C42.75 40.6234 40.6234 42.75 38 42.75H10C7.37665 42.75 5.25 40.6234 5.25 38V14ZM10 10.75C8.20507 10.75 6.75 12.2051 6.75 14V38C6.75 39.7949 8.20507 41.25 10 41.25H38C39.7949 41.25 41.25 39.7949 41.25 38V14C41.25 12.2051 39.7949 10.75 38 10.75H10Z" fill="#03020D"/>
<path fill-rule="evenodd" clip-rule="evenodd" d="M16.75 7C17.1642 7 17.5 7.33579 17.5 7.75L17.5 12.25C17.5 12.6642 17.1642 13 16.75 13C16.3358 13 16 12.6642 16 12.25L16 7.75C16 7.33579 16.3358 7 16.75 7Z" fill="#03020D"/>
<path fill-rule="evenodd" clip-rule="evenodd" d="M31.75 7C32.1642 7 32.5 7.33579 32.5 7.75L32.5 12.25C32.5 12.6642 32.1642 13 31.75 13C31.3358 13 31 12.6642 31 12.25L31 7.75C31 7.33579 31.3358 7 31.75 7Z" fill="#03020D"/>
<path d="M10 21C10 20.4477 10.4477 20 11 20H17C17.5523 20 18 20.4477 18 21V27C18 27.5523 17.5523 28 17 28H11C10.4477 28 10 27.5523 10 27V21Z" fill="#FF5416"/>
<path fill-rule="evenodd" clip-rule="evenodd" d="M11.5 21.5V26.5H16.5V21.5H11.5ZM11 20C10.4477 20 10 20.4477 10 21V27C10 27.5523 10.4477 28 11 28H17C17.5523 28 18 27.5523 18 27V21C18 20.4477 17.5523 20 17 20H11Z" fill="#FF5416"/>
<path fill-rule="evenodd" clip-rule="evenodd" d="M11.5 31.5V36.5H16.5V31.5H11.5ZM11 30C10.4477 30 10 30.4477 10 31V37C10 37.5523 10.4477 38 11 38H17C17.5523 38 18 37.5523 18 37V31C18 30.4477 17.5523 30 17 30H11Z" fill="#03020D"/>
<path fill-rule="evenodd" clip-rule="evenodd" d="M21.5 21.5V26.5H26.5V21.5H21.5ZM21 20C20.4477 20 20 20.4477 20 21V27C20 27.5523 20.4477 28 21 28H27C27.5523 28 28 27.5523 28 27V21C28 20.4477 27.5523 20 27 20H21Z" fill="#03020D"/>
<path fill-rule="evenodd" clip-rule="evenodd" d="M21.5 31.5V36.5H26.5V31.5H21.5ZM21 30C20.4477 30 20 30.4477 20 31V37C20 37.5523 20.4477 38 21 38H27C27.5523 38 28 37.5523 28 37V31C28 30.4477 27.5523 30 27 30H21Z" fill="#03020D"/>
<path fill-rule="evenodd" clip-rule="evenodd" d="M31.5 21.5V26.5H36.5V21.5H31.5ZM31 20C30.4477 20 30 20.4477 30 21V27C30 27.5523 30.4477 28 31 28H37C37.5523 28 38 27.5523 38 27V21C38 20.4477 37.5523 20 37 20H31Z" fill="#03020D"/>
<path fill-rule="evenodd" clip-rule="evenodd" d="M31.5 31.5V36.5H36.5V31.5H31.5ZM31 30C30.4477 30 30 30.4477 30 31V37C30 37.5523 30.4477 38 31 38H37C37.5523 38 38 37.5523 38 37V31C38 30.4477 37.5523 30 37 30H31Z" fill="#03020D"/>
</svg>
