<svg class="align-bottom" width="32" height="32" viewBox="0 0 32 32" fill="currentColor" xmlns="http://www.w3.org/2000/svg">
<path d="M6 3.99984C6 3.27256 6.606 2.6665 7.33333 2.6665C8.06066 2.6665 8.66666 3.27256 8.66666 3.99984C8.66666 4.72711 8.06066 5.33317 7.33333 5.33317C6.606 5.33317 6 4.72711 6 3.99984Z" />
<path d="M9.33325 3.99984C9.33325 3.27256 9.93925 2.6665 10.6666 2.6665C11.3939 2.6665 11.9999 3.27256 11.9999 3.99984C11.9999 4.72711 11.3939 5.33317 10.6666 5.33317C9.93925 5.33317 9.33325 4.72711 9.33325 3.99984Z" />
<path d="M2.66675 3.99984C2.66675 3.27256 3.27275 2.6665 4.00008 2.6665C4.72742 2.6665 5.33342 3.27256 5.33342 3.99984C5.33342 4.72711 4.72742 5.33317 4.00008 5.33317C3.27275 5.33317 2.66675 4.72711 2.66675 3.99984Z" />
<path d="M9.87725 21.68L10.9332 17.656L11.9972 21.68H12.9892L14.5412 16H13.4852L12.4933 20.08L11.4292 16H10.4452L9.37325 20.08L8.38925 16H7.33325L8.88525 21.68H9.87725Z" />
<path d="M18.6834 21.68V20.744H16.2834V19.296H18.5075V18.36H16.2834V16.936H18.6434V16H15.2834V21.68H18.6834Z" />
<path d="M22.0487 21.68C23.1767 21.68 23.8087 21 23.8087 20.104C23.8087 19.44 23.4487 18.896 22.7927 18.656C23.2007 18.392 23.4167 17.968 23.4167 17.472C23.4167 16.64 22.8167 16 21.7367 16H19.7207V21.68H22.0487ZM21.9047 19.296C22.3847 19.296 22.7527 19.52 22.7527 20.016C22.7527 20.512 22.3847 20.744 21.9047 20.744H20.7527V19.296H21.9047ZM21.6167 16.936C22.0327 16.936 22.3687 17.152 22.3687 17.632C22.3687 18.144 22.0327 18.36 21.6167 18.36H20.7527V16.936H21.6167Z" />
<path fill-rule="evenodd" clip-rule="evenodd" d="M2.66667 0C1.194 0 0 1.19391 0 2.66667V6.6665V8V29.3332C0 30.8059 1.194 31.9998 2.66667 31.9998H29.3333C30.806 31.9998 32 30.8059 32 29.3332V8V6.6665V2.66667C32 1.19391 30.806 0 29.3333 0H2.66667ZM2.66667 1.33333H29.3333C30.07 1.33333 30.6667 1.93029 30.6667 2.66667V6.66667H1.33333V2.66667C1.33333 1.93029 1.93 1.33333 2.66667 1.33333ZM1.33333 7.99984H30.6667V29.3332C30.6667 30.0696 30.07 30.6665 29.3333 30.6665H2.66667C1.93 30.6665 1.33333 30.0696 1.33333 29.3332V7.99984Z" />
<path fill-rule="evenodd" clip-rule="evenodd" d="M6 3.99984C6 3.27256 6.606 2.6665 7.33333 2.6665C8.06066 2.6665 8.66666 3.27256 8.66666 3.99984C8.66666 4.72711 8.06066 5.33317 7.33333 5.33317C6.606 5.33317 6 4.72711 6 3.99984ZM9.33325 3.99984C9.33325 3.27256 9.93925 2.6665 10.6666 2.6665C11.3939 2.6665 11.9999 3.27256 11.9999 3.99984C11.9999 4.72711 11.3939 5.33317 10.6666 5.33317C9.93925 5.33317 9.33325 4.72711 9.33325 3.99984ZM2.66675 3.99984C2.66675 3.27256 3.27275 2.6665 4.00008 2.6665C4.72742 2.6665 5.33342 3.27256 5.33342 3.99984C5.33342 4.72711 4.72742 5.33317 4.00008 5.33317C3.27275 5.33317 2.66675 4.72711 2.66675 3.99984Z" />
<path fill-rule="evenodd" clip-rule="evenodd" d="M9.87725 21.68L10.9332 17.656L11.9972 21.68H12.9892L14.5412 16H13.4852L12.4933 20.08L11.4292 16H10.4452L9.37325 20.08L8.38925 16H7.33325L8.88525 21.68H9.87725ZM18.6834 21.68V20.744H16.2834V19.296H18.5075V18.36H16.2834V16.936H18.6434V16H15.2834V21.68H18.6834ZM22.0487 21.68C23.1767 21.68 23.8087 21 23.8087 20.104C23.8087 19.44 23.4487 18.896 22.7927 18.656C23.2007 18.392 23.4167 17.968 23.4167 17.472C23.4167 16.64 22.8167 16 21.7367 16H19.7207V21.68H22.0487ZM21.9047 19.296C22.3847 19.296 22.7527 19.52 22.7527 20.016C22.7527 20.512 22.3847 20.744 21.9047 20.744H20.7527V19.296H21.9047ZM22.3687 17.632C22.3687 17.152 22.0327 16.936 21.6167 16.936H20.7527V18.36H21.6167C22.0327 18.36 22.3687 18.144 22.3687 17.632Z" />
</svg>
