<svg width="48" height="49" viewBox="0 0 48 49" fill="none" xmlns="http://www.w3.org/2000/svg">
<path d="M39 21.9229H47" stroke="#FF5416" stroke-width="1.5" stroke-miterlimit="10" stroke-linecap="round" stroke-linejoin="round"/>
<path d="M39 24.9229H47" stroke="#FF5416" stroke-width="1.5" stroke-miterlimit="10" stroke-linecap="round" stroke-linejoin="round"/>
<path d="M1 24.9229L17 24.9229" stroke="#C6CED9" stroke-width="1.5" stroke-miterlimit="10" stroke-linecap="round" stroke-linejoin="round"/>
<path d="M1 16.9229L2.63932 16.9229C4.19177 16.9229 5.7229 17.2843 7.11146 17.9786L10.8885 19.8671C12.2771 20.5614 13.8082 20.9229 15.3607 20.9229L17 20.9229" stroke="#C6CED9" stroke-width="1.5" stroke-miterlimit="10" stroke-linecap="round" stroke-linejoin="round"/>
<path d="M1 4.92285L1.25371 4.92285C3.59419 4.92285 5.77981 6.09256 7.07807 8.03995L10.9219 13.8058C12.2202 15.7531 14.4058 16.9229 16.7463 16.9229L17 16.9229" stroke="#C6CED9" stroke-width="1.5" stroke-miterlimit="10" stroke-linecap="round" stroke-linejoin="round"/>
<path d="M1 32.9229L2.63932 32.9229C4.19177 32.9229 5.7229 32.5614 7.11146 31.8671L10.8885 29.9786C12.2771 29.2843 13.8082 28.9229 15.3607 28.9229L17 28.9229" stroke="#C6CED9" stroke-width="1.5" stroke-miterlimit="10" stroke-linecap="round" stroke-linejoin="round"/>
<path d="M1 44.9229L1.25371 44.9229C3.59419 44.9229 5.77981 43.7531 7.07807 41.8058L10.9219 36.0399C12.2202 34.0926 14.4058 32.9229 16.7463 32.9229L17 32.9229" stroke="#C6CED9" stroke-width="1.5" stroke-miterlimit="10" stroke-linecap="round" stroke-linejoin="round"/>
<path d="M39 27.9229H47" stroke="#FF5416" stroke-width="1.5" stroke-miterlimit="10" stroke-linecap="round" stroke-linejoin="round"/>
<rect x="20" y="12.9229" width="6" height="24" rx="2" stroke="#C6CED9" stroke-width="1.5" stroke-miterlimit="10" stroke-linecap="round" stroke-linejoin="round"/>
<path d="M26 15.9229L34.5747 18.4953C35.4207 18.7491 36 19.5277 36 20.4109V29.4348C36 30.318 35.4207 31.0967 34.5747 31.3504L26 33.9229" stroke="#C6CED9" stroke-width="1.5" stroke-miterlimit="10" stroke-linecap="round" stroke-linejoin="round"/>
</svg>
