<svg width="48" height="48" viewBox="0 0 48 48" fill="none" xmlns="http://www.w3.org/2000/svg">
	<path fill-rule="evenodd" clip-rule="evenodd" d="M5 7.25C2.37665 7.25 0.25 9.37665 0.25 12V36C0.25 38.6234 2.37665 40.75 5 40.75H43C45.6234 40.75 47.75 38.6234 47.75 36V12C47.75 9.37665 45.6234 7.25 43 7.25H5ZM3.36577 9.19015C3.84588 8.91031 4.40422 8.75 5 8.75H43C43.6017 8.75 44.1653 8.91353 44.6486 9.19858L24.6531 24.0753L3.36577 9.19015ZM2.26183 10.2486C1.93785 10.754 1.75 11.3551 1.75 12V36C1.75 37.7949 3.20507 39.25 5 39.25H43C44.7949 39.25 46.25 37.7949 46.25 36V12C46.25 11.3577 46.0637 10.7588 45.7421 10.2547L25.1144 25.6017C24.8552 25.7945 24.5016 25.7997 24.2369 25.6146L2.26183 10.2486Z" fill="currentColor" />
</svg>
