<svg width="48" height="49" viewBox="0 0 48 49" fill="none" xmlns="http://www.w3.org/2000/svg">
<path fill-rule="evenodd" clip-rule="evenodd" d="M10.917 17.5732H3.79837L0 36.6182H3.69212L4.70147 31.5714H7.88892C8.96894 31.5714 10.0139 31.4476 11.0232 31.1995C12.0326 30.9515 12.9798 30.3671 13.8654 29.4465C14.5916 28.7203 15.1579 27.9059 15.5653 27.0028C15.9903 26.0996 16.265 25.179 16.3888 24.2403C16.7075 22.186 16.3978 20.5657 15.4591 19.3795C14.5204 18.1932 13.0064 17.5908 10.917 17.5732ZM6.90086 20.6281L6.90617 20.6015L6.87961 20.6281H6.90086ZM6.90086 20.6281L5.31245 28.5701C5.4187 28.5876 5.52495 28.5967 5.63119 28.5967H6.00306C7.70303 28.6142 9.11984 28.4463 10.253 28.092C11.3861 27.7201 12.1479 26.4276 12.5373 24.2139C12.8561 22.3546 12.5373 21.2831 11.5811 20.9999C10.6424 20.7168 9.46514 20.584 8.04834 20.6015C7.83584 20.619 7.63236 20.6281 7.43741 20.6281H6.90086Z" fill="black"/>
<path d="M20.5945 12.5H24.26L23.2241 17.5733H26.5178C28.324 17.6089 29.6696 17.9808 30.5552 18.6889C31.4583 19.3971 31.7239 20.7432 31.3521 22.7264L29.5724 31.5715H25.8537L27.5537 23.1248C27.7306 22.2392 27.6775 21.6108 27.3943 21.2389C27.1112 20.867 26.5002 20.6811 25.5616 20.6811L22.6132 20.6545L20.4351 31.5715H16.7695L20.5945 12.5Z" fill="black"/>
<path fill-rule="evenodd" clip-rule="evenodd" d="M42.4072 17.5732H35.2886L31.4902 36.6182H35.1824L36.1917 31.5714H39.3791C40.4592 31.5714 41.5041 31.4476 42.5135 31.1995C43.5228 30.9515 44.47 30.3671 45.3556 29.4465C46.0818 28.7203 46.6481 27.9059 47.0556 27.0028C47.4806 26.0996 47.7552 25.179 47.879 24.2403C48.1977 22.186 47.888 20.5657 46.9493 19.3795C46.0106 18.1932 44.4966 17.5908 42.4072 17.5732ZM38.3911 20.6281L38.3964 20.6015L38.3699 20.6281H38.3911ZM38.3911 20.6281L36.8027 28.5701C36.909 28.5876 37.0152 28.5967 37.1214 28.5967H37.4933C39.1933 28.6142 40.6101 28.4463 41.7432 28.092C42.8764 27.7201 43.6382 26.4276 44.0276 24.2139C44.3463 22.3546 44.0276 21.2831 43.0713 20.9999C42.1326 20.7168 40.9554 20.584 39.5386 20.6015C39.3261 20.619 39.1226 20.6281 38.9277 20.6281H38.3911Z" fill="black"/>
</svg>
