<svg width="48" height="48" viewBox="0 0 48 48" fill="none" xmlns="http://www.w3.org/2000/svg">
<g clip-path="url(#clip0_1031_2045)">
<path d="M43.6501 2.52391C42.9778 4.1358 42.117 5.66242 41.0858 7.07191C38.8346 4.8113 36.1564 3.02076 33.2071 1.80441C30.2577 0.588062 27.0959 -0.029834 23.9056 -0.0133506C20.7153 0.00313282 17.5601 0.653667 14.6234 1.90043C11.6868 3.14719 9.02727 4.9653 6.79954 7.24906C4.5718 9.53282 2.82029 12.2367 1.64683 15.2034C0.473373 18.1701 -0.0986129 21.3405 -0.035872 24.5302C0.0268688 27.7199 0.723085 30.8654 2.0123 33.7836C3.30151 36.7019 5.15799 39.3348 7.47381 41.5292L8.36331 42.3144C11.7577 45.1746 15.8772 47.04 20.2659 47.7042C24.6547 48.3685 29.1417 47.8058 33.2305 46.0783C37.3193 44.3508 40.8505 41.5258 43.4334 37.916C46.0164 34.3062 47.5504 30.0522 47.8658 25.6247C48.5221 19.4972 46.7228 11.7422 43.6508 2.52466L43.6501 2.52391ZM10.8976 41.6687C10.6414 41.9851 10.2972 42.2185 9.90836 42.3393C9.51954 42.4601 9.10363 42.4629 8.71325 42.3472C8.32288 42.2316 7.97558 42.0027 7.71529 41.6896C7.45501 41.3766 7.29343 40.9933 7.25102 40.5884C7.20861 40.1834 7.28725 39.775 7.47701 39.4148C7.66677 39.0546 7.95912 38.7587 8.31706 38.5647C8.675 38.3707 9.08244 38.2872 9.48785 38.3248C9.89326 38.3624 10.2784 38.5194 10.5946 38.7759C11.018 39.1195 11.2878 39.6172 11.3446 40.1596C11.4014 40.702 11.2406 41.2447 10.8976 41.6687ZM43.5511 34.4612C37.6111 42.3737 24.9286 39.7037 16.7971 40.0877C16.7971 40.0877 15.3556 40.1724 13.9043 40.4102C13.9043 40.4102 14.4518 40.1777 15.1516 39.9129C20.8621 37.9254 23.5613 37.5429 27.0301 35.7579C33.5611 32.4377 40.0216 25.1664 41.3641 17.6079C38.8793 24.8792 31.3343 31.1319 24.4666 33.6714C19.7596 35.4062 11.2561 37.0959 11.2561 37.0959L10.9133 36.9122C5.12781 34.0997 4.94931 21.5694 15.4711 17.5284C20.0783 15.7539 24.4861 16.7282 29.4616 15.5409C34.7746 14.2787 40.9216 10.2984 43.4228 5.10391C46.2203 13.4139 49.5908 26.4204 43.5473 34.4664L43.5511 34.4612Z" fill="#68BD45"/>
</g>
<defs>
<clipPath id="clip0_1031_2045">
<rect width="48" height="48" fill="white"/>
</clipPath>
</defs>
</svg>
