<svg width="48" height="48" viewBox="0 0 48 48" fill="none" xmlns="http://www.w3.org/2000/svg">
<path fill-rule="evenodd" clip-rule="evenodd" d="M42.2796 21.9705L42.338 20.7449C42.338 14.2569 36.7463 9.00031 29.8925 9.00031C27.9427 8.98422 26.0157 9.41681 24.2621 10.2643C22.5084 11.1117 20.9759 12.351 19.7842 13.8852C18.2736 13.0032 16.552 12.5417 14.8002 12.5493C9.61749 12.5493 5.39304 16.5455 5.39304 21.4536V22.1564C1.88727 23.8525 0 26.6579 0 30.1662C0 35.69 4.70941 39.9999 10.7276 39.9999H37.2722C43.2904 39.9999 47.9998 35.69 47.9998 30.1662C48.0232 26.5243 45.9606 23.6085 42.2796 21.9705Z" fill="#59B4D9"/>
<path fill-rule="evenodd" clip-rule="evenodd" d="M31.8405 24.1449C31.8405 26.523 29.9012 28.4509 27.5089 28.4509C25.1166 28.4509 23.1772 26.523 23.1772 24.1449C23.1772 21.7667 25.1166 19.8388 27.5089 19.8388C29.9012 19.8388 31.8405 21.7667 31.8405 24.1449ZM34.4006 24.1449C34.4006 27.9286 31.3151 30.9959 27.5089 30.9959C26.3666 30.9959 25.2893 30.7197 24.3408 30.2308C24.3141 30.2607 24.2862 30.2901 24.2573 30.3188L19.5545 34.9905C18.7687 35.7712 17.495 35.7707 16.7098 34.9895C15.9245 34.2084 15.9249 32.9422 16.7108 32.1616L21.4136 27.4899C21.4306 27.473 21.4478 27.4565 21.4653 27.4403C20.9246 26.4626 20.6171 25.3394 20.6171 24.1449C20.6171 20.3611 23.7026 17.2938 27.5089 17.2938C31.3151 17.2938 34.4006 20.3611 34.4006 24.1449Z" fill="white"/>
</svg>
