<svg width="18" height="16" viewBox="0 0 18 16" fill="none" xmlns="http://www.w3.org/2000/svg">
<path d="M4 3.73167V3C4 2.50272 4.19754 2.02581 4.54917 1.67417C4.90081 1.32254 5.37772 1.125 5.875 1.125H12.125C12.6223 1.125 13.0992 1.32254 13.4508 1.67417C13.8025 2.02581 14 2.50272 14 3V3.73167M4 3.73167C4.19583 3.6625 4.40583 3.625 4.625 3.625H13.375C13.5942 3.625 13.8042 3.6625 14 3.73167M4 3.73167C3.63434 3.86095 3.31777 4.10043 3.09391 4.41713C2.87004 4.73383 2.74988 5.11216 2.75 5.5V6.23167M14 3.73167C14.3657 3.86095 14.6822 4.10043 14.9061 4.41713C15.13 4.73383 15.2501 5.11216 15.25 5.5V6.23167M2.75 6.23167C2.94583 6.1625 3.15583 6.125 3.375 6.125H14.625C14.8379 6.12475 15.0492 6.16083 15.25 6.23167M2.75 6.23167C2.02167 6.48917 1.5 7.18333 1.5 8V13C1.5 13.4973 1.69754 13.9742 2.04917 14.3258C2.40081 14.6775 2.87772 14.875 3.375 14.875H14.625C15.1223 14.875 15.5992 14.6775 15.9508 14.3258C16.3025 13.9742 16.5 13.4973 16.5 13V8C16.5001 7.61216 16.38 7.23383 16.1561 6.91713C15.9322 6.60043 15.6157 6.36095 15.25 6.23167" stroke="#03020D" stroke-width="1.25" stroke-linecap="round" stroke-linejoin="round"/>
</svg>
