<svg width="48" height="49" viewBox="0 0 48 49" fill="none" xmlns="http://www.w3.org/2000/svg">
<g clip-path="url(#clip0_3698_16301)">
<path d="M31.9325 16.1529L36.1049 11.9805L36.3821 10.2244C28.78 3.30994 16.6945 4.09491 9.83922 11.8599C7.93498 14.016 6.52374 16.7052 5.77051 19.4832L7.26427 19.2716L15.609 17.8964L16.2522 17.2383C19.9634 13.1612 26.241 12.6132 30.5255 16.081L31.9325 16.1529Z" fill="#EA4335"/>
<path d="M42.0496 19.3582C41.0912 15.827 39.1214 12.6511 36.3835 10.2222L30.5269 16.0787C33.0003 18.0993 34.4073 21.1419 34.3481 24.3346V25.3735C37.2256 25.3735 39.5593 27.7072 39.5593 30.5848C39.5593 33.4623 37.2256 35.7389 34.3481 35.7389H23.9108L22.8867 36.8518V43.104L23.9108 44.0858H34.3481C41.8338 44.145 47.9506 38.1805 48.0099 30.6948C48.0458 26.1564 45.8073 21.9015 42.0496 19.3582Z" fill="#4285F4"/>
<path d="M13.4867 44.0858H23.9113V35.741H13.4867C12.7483 35.741 12.0204 35.5802 11.3497 35.2734L9.87077 35.7262L5.66877 39.8986L5.30273 41.3183C7.65975 43.0977 10.5351 44.0985 13.4867 44.0858Z" fill="#34A853"/>
<path d="M13.4866 17.0162C5.99874 17.0606 -0.033446 23.1669 0.0109861 30.6547C0.0363758 34.8356 1.98927 38.771 5.30263 41.3205L11.3496 35.2735C8.72602 34.0887 7.56021 31.0017 8.74506 28.3781C9.92992 25.7545 13.0169 24.5887 15.6405 25.7735C16.7957 26.2962 17.7225 27.2208 18.2451 28.3781L24.2921 22.3311C21.7192 18.967 17.7203 17.0014 13.4866 17.0162Z" fill="#FBBC05"/>
</g>
<defs>
<clipPath id="clip0_3698_16301">
<rect width="48" height="48" fill="white" transform="translate(0 0.5)"/>
</clipPath>
</defs>
</svg>
