<svg width="24" height="24" viewBox="0 0 24 24" fill="none" xmlns="http://www.w3.org/2000/svg">
  <path fill-rule="evenodd" clip-rule="evenodd" d="M5 1.5C4.30964 1.5 3.75 2.05964 3.75 2.75V3.75H5C5.41421 3.75 5.75 4.08579 5.75 4.5C5.75 4.91421 5.41421 5.25 5 5.25H3.75V6.75H5C5.41421 6.75 5.75 7.08579 5.75 7.5C5.75 7.91421 5.41421 8.25 5 8.25H3.75V9.75H5C5.41421 9.75 5.75 10.0858 5.75 10.5C5.75 10.9142 5.41421 11.25 5 11.25H3.75V12.75H5C5.41421 12.75 5.75 13.0858 5.75 13.5C5.75 13.9142 5.41421 14.25 5 14.25H3.75V15.75H5C5.41421 15.75 5.75 16.0858 5.75 16.5C5.75 16.9142 5.41421 17.25 5 17.25H3.75V18.75H5C5.41421 18.75 5.75 19.0858 5.75 19.5C5.75 19.9142 5.41421 20.25 5 20.25H3.75V21.25C3.75 21.9404 4.30964 22.5 5 22.5H18.5C19.1904 22.5 19.75 21.9404 19.75 21.25V19.75H12C10.4812 19.75 9.25 18.5188 9.25 17V12C9.25 10.4812 10.4812 9.25 12 9.25H19.75V3.75C19.75 2.50736 18.7426 1.5 17.5 1.5H5ZM2.25 2.75V3.75H1C0.585786 3.75 0.25 4.08579 0.25 4.5C0.25 4.91421 0.585786 5.25 1 5.25H2.25V6.75H1C0.585786 6.75 0.25 7.08579 0.25 7.5C0.25 7.91421 0.585786 8.25 1 8.25H2.25V9.75H1C0.585786 9.75 0.25 10.0858 0.25 10.5C0.25 10.9142 0.585786 11.25 1 11.25H2.25V12.75H1C0.585786 12.75 0.25 13.0858 0.25 13.5C0.25 13.9142 0.585786 14.25 1 14.25H2.25V15.75H1C0.585786 15.75 0.25 16.0858 0.25 16.5C0.25 16.9142 0.585786 17.25 1 17.25H2.25V18.75H1C0.585786 18.75 0.25 19.0858 0.25 19.5C0.25 19.9142 0.585786 20.25 1 20.25H2.25V21.25C2.25 22.7688 3.48122 24 5 24H18.5C20.0188 24 21.25 22.7688 21.25 21.25V19.7388C22.6516 19.6125 23.75 18.4345 23.75 17V12C23.75 10.5655 22.6516 9.38752 21.25 9.26121V3.75C21.25 1.67893 19.5711 0 17.5 0H5C3.48122 0 2.25 1.23122 2.25 2.75ZM20.5 10.75H12C11.3096 10.75 10.75 11.3096 10.75 12V17C10.75 17.6904 11.3096 18.25 12 18.25H20.5H21C21.6904 18.25 22.25 17.6904 22.25 17V12C22.25 11.3096 21.6904 10.75 21 10.75H20.5ZM12.5 4.25C12.5 3.42157 13.1716 2.75 14 2.75H17C17.8284 2.75 18.5 3.42157 18.5 4.25V5.25C18.5 6.07843 17.8284 6.75 17 6.75H14C13.1716 6.75 12.5 6.07843 12.5 5.25V4.25ZM14 3.75C13.7239 3.75 13.5 3.97386 13.5 4.25V5.25C13.5 5.52614 13.7239 5.75 14 5.75H17C17.2761 5.75 17.5 5.52614 17.5 5.25V4.25C17.5 3.97386 17.2761 3.75 17 3.75H14ZM15.5 13.2582L17.4746 14.4992L15.5 15.7402V13.2582ZM18.0421 15.3236C18.6526 14.9399 18.6526 14.0585 18.0421 13.6747L16.0176 12.4024C15.377 11.9998 14.5 12.4363 14.5 13.2268V15.7716C14.5 16.5621 15.377 16.9986 16.0176 16.596L18.0421 15.3236Z" fill="currentColor" />
</svg>
