<svg width="48" height="48" viewBox="0 0 48 48" fill="none" xmlns="http://www.w3.org/2000/svg">
<g clip-path="url(#clip0_2352_19)">
<rect width="48" height="48" rx="12" fill="#A5B1B7"/>
<path d="M9.23438 32V20.6348H10.6523V32H9.23438ZM9.94336 18.4326C9.67839 18.4326 9.44564 18.3359 9.24512 18.1426C9.05176 17.9492 8.95508 17.7201 8.95508 17.4551C8.95508 17.1758 9.05176 16.943 9.24512 16.7568C9.44564 16.5635 9.67839 16.4668 9.94336 16.4668C10.2227 16.4668 10.4554 16.5635 10.6416 16.7568C10.835 16.943 10.9316 17.1758 10.9316 17.4551C10.9316 17.7201 10.835 17.9492 10.6416 18.1426C10.4554 18.3359 10.2227 18.4326 9.94336 18.4326Z" fill="white"/>
<path d="M19.6925 32.2793C18.2459 32.2793 16.9963 31.9535 15.9435 31.3018C14.8908 30.6429 14.0815 29.7155 13.5158 28.5195C12.95 27.3164 12.6671 25.8949 12.6671 24.2549V24.2334C12.6671 22.5934 12.9536 21.1755 13.5265 19.9795C14.0994 18.7764 14.9087 17.849 15.9543 17.1973C17.007 16.5456 18.2531 16.2197 19.6925 16.2197C21.1392 16.2197 22.3852 16.5456 23.4308 17.1973C24.4836 17.849 25.2928 18.7764 25.8586 19.9795C26.4315 21.1755 26.7179 22.5934 26.7179 24.2334V24.2549C26.7179 25.8949 26.4351 27.3164 25.8693 28.5195C25.3035 29.7155 24.4943 30.6429 23.4416 31.3018C22.396 31.9535 21.1463 32.2793 19.6925 32.2793ZM19.6925 30.9258C20.8312 30.9258 21.8123 30.6501 22.6359 30.0986C23.4666 29.5472 24.1076 28.7738 24.5588 27.7783C25.0099 26.7757 25.2355 25.6012 25.2355 24.2549V24.2334C25.2355 22.8727 25.0099 21.6947 24.5588 20.6992C24.1076 19.7038 23.4666 18.9339 22.6359 18.3896C21.8052 17.8454 20.824 17.5732 19.6925 17.5732C18.561 17.5732 17.5799 17.8454 16.7492 18.3896C15.9256 18.9339 15.2847 19.7038 14.8263 20.6992C14.3752 21.6947 14.1496 22.8727 14.1496 24.2334V24.2549C14.1496 25.6084 14.3752 26.7865 14.8263 27.7891C15.2775 28.7845 15.9185 29.5579 16.7492 30.1094C17.5799 30.6536 18.561 30.9258 19.6925 30.9258Z" fill="white"/>
<path d="M33.8245 32.2793C32.7288 32.2793 31.7656 32.1038 30.9349 31.7529C30.1042 31.3949 29.4417 30.8936 28.9476 30.249C28.4606 29.6045 28.1813 28.8597 28.1097 28.0146L28.0989 27.8857H29.5599L29.5706 28.0146C29.6351 28.5947 29.8571 29.1032 30.2366 29.54C30.6162 29.9769 31.1175 30.3171 31.7405 30.5605C32.3708 30.804 33.0905 30.9258 33.8997 30.9258C34.6946 30.9258 35.3929 30.8005 35.9945 30.5498C36.596 30.2992 37.0651 29.9518 37.4017 29.5078C37.7383 29.0566 37.9066 28.5374 37.9066 27.9502V27.9287C37.9066 27.1911 37.6416 26.5859 37.1116 26.1133C36.5817 25.6406 35.7187 25.2682 34.5228 24.9961L32.8792 24.6309C31.3538 24.2871 30.2402 23.7786 29.5384 23.1055C28.8366 22.4251 28.4857 21.5443 28.4857 20.4629V20.4521C28.4928 19.6286 28.722 18.9017 29.1732 18.2715C29.6243 17.6341 30.2474 17.1328 31.0423 16.7676C31.8372 16.4023 32.7467 16.2197 33.7708 16.2197C34.7734 16.2197 35.665 16.3988 36.4456 16.7568C37.2262 17.1149 37.8493 17.6055 38.3148 18.2285C38.7803 18.8516 39.0417 19.5605 39.0989 20.3555L39.1097 20.5059H37.6488L37.638 20.3662C37.5592 19.8076 37.3515 19.3206 37.015 18.9053C36.6784 18.4899 36.2308 18.1641 35.6722 17.9277C35.1136 17.6842 34.4691 17.5661 33.7386 17.5732C33.0081 17.5732 32.36 17.6914 31.7943 17.9277C31.2285 18.1641 30.7845 18.4971 30.4622 18.9268C30.14 19.3493 29.9788 19.8434 29.9788 20.4092V20.4307C29.9788 21.1325 30.2366 21.709 30.7523 22.1602C31.2751 22.6113 32.1094 22.9694 33.2552 23.2344L34.8988 23.5996C35.9658 23.8359 36.8288 24.1439 37.4876 24.5234C38.1465 24.8958 38.6299 25.3542 38.9378 25.8984C39.2458 26.4355 39.3997 27.0729 39.3997 27.8105V27.832C39.3997 28.7272 39.167 29.5078 38.7015 30.1738C38.2432 30.8398 37.595 31.359 36.7571 31.7314C35.9264 32.0967 34.9489 32.2793 33.8245 32.2793Z" fill="white"/>
</g>
<defs>
<clipPath id="clip0_2352_19">
<rect width="48" height="48" fill="white"/>
</clipPath>
</defs>
</svg>
