<svg width="24" height="25" viewBox="0 0 24 25" xmlns="http://www.w3.org/2000/svg">
<path d="M24 13C24 6.37258 18.6274 1 12 1C5.37258 1 0 6.37258 0 13C0 18.9895 4.3882 23.954 10.125 24.8542V16.4688H7.07812V13H10.125V10.3563C10.125 7.34875 11.9166 5.6875 14.6576 5.6875C15.9701 5.6875 17.3438 5.92188 17.3438 5.92188V8.875H15.8306C14.34 8.875 13.875 9.80008 13.875 10.75V13H17.2031L16.6711 16.4688H13.875V24.8542C19.6118 23.954 24 18.9895 24 13Z" fill="currentColor"/>
<path d="M16.6711 16.4688L17.2031 13H13.875V10.75C13.875 9.80102 14.34 8.875 15.8306 8.875H17.3438V5.92188C17.3438 5.92188 15.9705 5.6875 14.6576 5.6875C11.9166 5.6875 10.125 7.34875 10.125 10.3563V13H7.07812V16.4688H10.125V24.8542C11.3674 25.0486 12.6326 25.0486 13.875 24.8542V16.4688H16.6711Z" fill="none"/>
</svg>
