<svg width="48" height="49" viewBox="0 0 48 49" fill="none" xmlns="http://www.w3.org/2000/svg">
<path fill-rule="evenodd" clip-rule="evenodd" d="M5.74876 25.2295C5.65527 25.2295 5.6319 25.1593 5.67864 25.0892L6.00583 24.505C6.05257 24.4349 6.14605 24.3647 6.23953 24.3647H10.9136C11.0071 24.3647 11.0538 24.4349 11.0538 24.5283L11.0071 25.0892C11.0071 25.1827 10.9136 25.2528 10.8435 25.2528L5.74876 25.2295Z" fill="#00ACD7"/>
<path fill-rule="evenodd" clip-rule="evenodd" d="M0.0934817 23.08C0 23.08 -0.0233704 23.0333 0.0233704 22.9632L0.514149 22.3322C0.56089 22.2621 0.677742 22.2153 0.771224 22.2153H11.4281C11.5216 22.2153 11.5684 22.2854 11.545 22.3556L11.358 22.9164C11.3347 23.0099 11.2412 23.0567 11.1477 23.0567L0.0934817 23.08Z" fill="#00ACD7"/>
<path fill-rule="evenodd" clip-rule="evenodd" d="M3.62278 20.9296C3.5293 20.9296 3.50593 20.8829 3.55267 20.8128L4.04345 20.1818C4.09019 20.1117 4.20704 20.0649 4.30052 20.0649H12.6438C12.7372 20.0649 12.7606 20.1351 12.7139 20.2052L12.3166 20.8128C12.2698 20.8829 12.153 20.953 12.0829 20.953L3.62278 20.9296Z" fill="#00ACD7"/>
<path fill-rule="evenodd" clip-rule="evenodd" d="M30.0075 20.5093C28.5352 20.8832 27.5302 21.1637 26.0813 21.5376C25.7307 21.6311 25.7073 21.6544 25.4035 21.3039C25.053 20.9066 24.7959 20.6495 24.3051 20.4158C22.8328 19.6913 21.4072 19.9017 20.0751 20.7664C18.4859 21.7947 17.6679 23.3137 17.6913 25.2067C17.7146 27.0764 19 28.6188 20.8463 28.8759C22.4355 29.0862 23.7676 28.5254 24.8193 27.3335C25.0296 27.0764 25.2166 26.7959 25.4503 26.4688C24.6089 26.4688 23.5573 26.4688 20.9398 26.4688C20.449 26.4688 20.3321 26.1649 20.4957 25.7676C20.7995 25.0432 21.3604 23.8279 21.6876 23.2203C21.7577 23.08 21.9213 22.8463 22.2719 22.8463H30.7787C30.732 23.4773 30.732 24.1083 30.6385 24.7393C30.3814 26.422 29.7504 27.9645 28.7221 29.3199C27.0394 31.5401 24.8426 32.919 22.0615 33.2929C19.7712 33.5967 17.6445 33.1527 15.7749 31.7505C14.0455 30.4417 13.0639 28.7123 12.8069 26.5622C12.503 24.0149 13.2509 21.7246 14.7933 19.7147C16.4526 17.5412 18.6495 16.1624 21.3371 15.6716C23.5339 15.2743 25.6372 15.5314 27.5302 16.8168C28.7689 17.6347 29.6569 18.7565 30.2412 20.112C30.3814 20.3223 30.2879 20.4392 30.0075 20.5093Z" fill="#00ACD7"/>
<path fill-rule="evenodd" clip-rule="evenodd" d="M37.7435 33.433C35.6168 33.3863 33.677 32.7787 32.0411 31.3764C30.6623 30.1846 29.7976 28.6655 29.5171 26.866C29.0964 24.2251 29.8209 21.8881 31.4101 19.8081C33.1162 17.5645 35.1728 16.396 37.9538 15.9052C40.3376 15.4846 42.5812 15.7183 44.6144 17.0971C46.4607 18.3591 47.6058 20.0652 47.9096 22.3087C48.3069 25.4637 47.3955 28.0345 45.222 30.2313C43.6796 31.7971 41.7866 32.7787 39.6131 33.2227C38.9821 33.3396 38.3511 33.3629 37.7435 33.433ZM43.3057 23.9915C43.2823 23.6877 43.2823 23.454 43.2356 23.2203C42.8149 20.9066 40.6882 19.5979 38.468 20.112C36.2945 20.6028 34.8923 21.9817 34.3782 24.1785C33.9575 26.0014 34.8456 27.8477 36.5282 28.5955C37.8136 29.1564 39.099 29.0863 40.3376 28.4553C42.1839 27.4971 43.1888 26.0014 43.3057 23.9915Z" fill="#00ACD7"/>
</svg>
