<svg width="28" height="28" viewBox="0 0 28 28" fill="none" xmlns="http://www.w3.org/2000/svg">
<g clip-path="url(#clip0_4274_848)">
<path fill-rule="evenodd" clip-rule="evenodd" d="M2.29597 17.3082L12.4591 1.0472C12.9028 0.337222 13.9991 0.651625 13.9991 1.48887V18.5832H3.00263C2.3481 18.5832 1.94907 17.8632 2.29597 17.3082ZM13.9991 18.5832L13.9991 26.5109C13.9991 27.3481 15.0954 27.6626 15.5391 26.9526L25.7022 10.6916C26.0491 10.1365 25.6501 9.41657 24.9956 9.41657L13.9991 9.41657L13.9991 18.5832Z" fill="black"/>
<path fill-rule="evenodd" clip-rule="evenodd" d="M2.29597 17.3082L12.4591 1.0472C12.9028 0.337222 13.9991 0.651625 13.9991 1.48887V18.5832H3.00263C2.3481 18.5832 1.94907 17.8632 2.29597 17.3082ZM13.9991 18.5832L13.9991 26.5109C13.9991 27.3481 15.0954 27.6626 15.5391 26.9526L25.7022 10.6916C26.0491 10.1365 25.6501 9.41657 24.9956 9.41657L13.9991 9.41657L13.9991 18.5832Z" fill="url(#paint0_linear_4274_848)"/>
</g>
<defs>
<linearGradient id="paint0_linear_4274_848" x1="13.9991" y1="5.04679" x2="13.9991" y2="25.3093" gradientUnits="userSpaceOnUse">
<stop stop-color="#FF5416"/>
<stop offset="1" stop-color="#FF2739"/>
</linearGradient>
<clipPath id="clip0_4274_848">
<rect width="26.6667" height="26.6667" fill="white" transform="translate(0.666016 0.666626)"/>
</clipPath>
</defs>
</svg>
