<svg width="24" height="24" viewBox="0 0 24 24" fill="none" xmlns="http://www.w3.org/2000/svg">
<path fill-rule="evenodd" clip-rule="evenodd" d="M2 12C2 6.47715 6.47715 2 12 2C17.5228 2 22 6.47715 22 12C22 17.5228 17.5228 22 12 22C6.47715 22 2 17.5228 2 12ZM12 0C5.37258 0 0 5.37258 0 12C0 18.6274 5.37258 24 12 24C18.6274 24 24 18.6274 24 12C24 5.37258 18.6274 0 12 0ZM17.7071 16.2928L13.4142 12L17.7071 7.70706L16.2929 6.29285L12 10.5857L7.70711 6.29285L6.29289 7.70706L10.5858 12L6.29289 16.2928L7.70711 17.7071L12 13.4142L16.2929 17.7071L17.7071 16.2928Z" fill="currentColor"/>
</svg>
