<svg width="48" height="48" viewBox="0 0 48 48" fill="none" xmlns="http://www.w3.org/2000/svg">
<g clip-path="url(#clip0_1031_1968)">
<path d="M30.0044 2.22756V0.85172C30.0046 0.619987 29.9102 0.398198 29.7431 0.237582C29.576 0.0769656 29.3505 -0.00858746 29.1189 0.000681923C19.8069 0.460975 12.3832 7.94346 12.0011 17.254C12.0001 17.456 12.0822 17.6494 12.2283 17.7889C12.3743 17.9285 12.5714 18.0018 12.7731 17.9916H14.1923C14.6304 17.9956 14.9953 17.6569 15.0239 17.22C15.426 9.5465 21.5605 3.41521 29.2381 3.01336C29.8228 2.9396 30.0101 2.61904 30.0101 2.2304L30.0044 2.22756ZM17.3541 18.0058H18.6995C19.1308 18.007 19.4899 17.6753 19.5226 17.2455C19.8954 12.016 24.072 7.86342 29.3062 7.51818C29.7174 7.48936 30.0288 7.13514 30.0044 6.72388V5.35371C29.9993 5.12389 29.9015 4.90591 29.7331 4.74935C29.5647 4.59279 29.34 4.51098 29.1103 4.52253C22.3487 4.96978 16.963 10.3514 16.514 17.1094C16.5024 17.339 16.5843 17.5634 16.7409 17.7318C16.8976 17.9001 17.1157 17.9979 17.3456 18.003L17.3541 18.0058ZM30.0044 9.87272V11.2486C30.0006 11.6599 29.6874 12.0023 29.2778 12.0429C26.5442 12.3774 24.3877 14.5258 24.044 17.2569C23.9918 17.677 23.6387 17.9949 23.2152 18.003H22.026C21.3788 18.003 20.99 17.5831 21.0382 17.098C21.4697 12.8389 24.8403 9.4713 29.1018 9.04154C29.3344 9.02163 29.5646 9.10033 29.7363 9.25842C29.908 9.4165 30.0053 9.63942 30.0044 9.87272ZM45.7796 29.9714C45.3908 29.9714 45.0701 29.7842 44.9963 29.1998C44.5992 21.5167 38.4551 15.3771 30.7679 14.9818C30.3307 14.9532 29.992 14.5885 29.9959 14.1506V12.7322C29.9858 12.5305 30.0591 12.3336 30.1987 12.1876C30.3383 12.0417 30.5318 11.9596 30.7339 11.9606C40.0505 12.3411 47.5385 19.7612 47.9992 29.0693C48.0092 29.2984 47.9262 29.5218 47.7691 29.689C47.6121 29.8561 47.3941 29.9528 47.1647 29.9572L45.7796 29.9714ZM30.0044 17.3221C30.0095 17.0918 30.1077 16.8734 30.2768 16.7167C30.4458 16.5601 30.6711 16.4786 30.9013 16.491C37.6609 16.9394 43.0446 22.3191 43.4948 29.075C43.5072 29.305 43.4257 29.5302 43.2689 29.6992C43.1122 29.8681 42.8937 29.9663 42.6632 29.9714H41.2923C40.8777 29.9956 40.522 29.6794 40.4976 29.265C40.1496 24.0368 35.9971 19.8659 30.7679 19.4923C30.3379 19.4596 30.006 19.1007 30.0072 18.6696L30.0044 17.3221ZM38.139 29.9685H36.7596C36.348 29.9648 36.0054 29.6517 35.9648 29.2423C35.6298 26.5092 33.4788 24.3536 30.7452 24.0113C30.3249 23.9592 30.0068 23.6062 29.9987 23.1829V21.844C29.9978 21.6101 30.0955 21.3867 30.2678 21.2285C30.4401 21.0704 30.6711 20.992 30.9042 21.0128C35.1657 21.4426 38.5362 24.8101 38.9677 29.0693C38.9877 29.3017 38.9089 29.5318 38.7508 29.7034C38.5926 29.875 38.3695 29.9722 38.1361 29.9714L38.139 29.9685ZM2.21184 18.0001C2.60068 18.0001 2.92141 18.1874 2.99521 18.7717C3.39269 26.4579 9.54155 32.5986 17.2321 32.9897C17.6693 33.0183 18.0081 33.3831 18.0041 33.8209V35.2393C18.0142 35.441 17.9409 35.6379 17.8013 35.7839C17.6617 35.9298 17.4682 36.0119 17.2662 36.0109C7.94952 35.6304 0.461456 28.2103 0.000807439 18.9022C-0.00917667 18.6731 0.0737685 18.4497 0.230853 18.2825C0.387938 18.1154 0.605866 18.0187 0.835266 18.0143L2.21184 18.0001ZM17.9956 30.638C17.9905 30.8684 17.8923 31.0868 17.7232 31.2435C17.5542 31.4001 17.3289 31.4816 17.0987 31.4692C10.3433 31.0199 4.96215 25.6453 4.50802 18.8937C4.49567 18.6637 4.57717 18.4384 4.73389 18.2695C4.89062 18.1005 5.10918 18.0023 5.33964 17.9973H6.71053C7.12512 17.9731 7.48089 18.2893 7.50526 18.7036C7.8517 23.932 12.003 28.1041 17.2321 28.4792C17.6621 28.5119 17.994 28.8708 17.9928 29.3019L17.9956 30.638ZM9.85253 18.0001H11.2291C11.6407 18.0039 11.9833 18.317 12.0238 18.7263C12.3589 21.4594 14.5098 23.6151 17.2434 23.9574C17.6638 24.0095 17.9818 24.3625 17.9899 24.7857V26.1275C17.9883 26.3588 17.8904 26.579 17.7196 26.7351C17.5489 26.8912 17.3208 26.9692 17.0902 26.9502C12.8286 26.5204 9.45808 23.1529 9.02658 18.8937C9.00925 18.6637 9.08836 18.4367 9.245 18.2673C9.40164 18.0978 9.6217 18.001 9.85253 18.0001ZM17.9928 45.7808C17.9928 45.3922 18.1801 45.0716 18.7648 44.9979C26.452 44.6025 32.596 38.4629 32.9931 30.7799C33.0217 30.3429 33.3867 30.0043 33.8248 30.0083H35.2439C35.4457 29.9981 35.6427 30.0714 35.7888 30.211C35.9348 30.3505 36.017 30.5439 36.0159 30.7458C35.6337 40.0575 28.2084 47.5403 18.8953 47.9992C18.6661 48.0092 18.4426 47.9263 18.2753 47.7693C18.1081 47.6123 18.0113 47.3945 18.0069 47.1652L17.9928 45.7808ZM30.6487 30.0054C30.8792 30.0105 31.0977 30.1087 31.2544 30.2776C31.4112 30.4466 31.4927 30.6718 31.4803 30.9019C31.0301 37.6577 25.6464 43.0374 18.8868 43.4859C18.6566 43.4982 18.4313 43.4167 18.2623 43.2601C18.0932 43.1035 17.995 42.885 17.9899 42.6547V41.2845C17.9657 40.8701 18.2821 40.5146 18.6966 40.4902C23.9277 40.1439 28.1021 35.9949 28.4774 30.7685C28.5101 30.3387 28.8692 30.007 29.3005 30.0083L30.6487 30.0054ZM17.9984 38.1357V36.7598C18.0022 36.3485 18.3155 36.0061 18.725 35.9655C21.4587 35.6309 23.6152 33.4826 23.9588 30.7515C24.011 30.3314 24.3642 30.0135 24.7876 30.0054H25.9769C26.624 30.0054 27.0129 30.4253 26.9646 30.9104C26.5331 35.1695 23.1626 38.5371 18.901 38.9668C18.6684 38.9868 18.4382 38.9081 18.2665 38.75C18.0949 38.5919 17.9976 38.369 17.9984 38.1357ZM17.9984 45.7808C17.9984 45.3922 18.1858 45.0716 18.7704 44.9979C26.4577 44.6025 32.6017 38.4629 32.9988 30.7799C33.0274 30.3429 33.3923 30.0043 33.8304 30.0083H35.2496C35.4513 29.9981 35.6484 30.0714 35.7944 30.211C35.9405 30.3505 36.0226 30.5439 36.0216 30.7458C35.6394 40.0575 28.2141 47.5403 18.901 47.9992C18.6718 48.0092 18.4482 47.9263 18.281 47.7693C18.1138 47.6123 18.017 47.3945 18.0126 47.1652L17.9984 45.7808ZM30.6544 30.0054C30.8848 30.0105 31.1034 30.1087 31.2601 30.2776C31.4168 30.4466 31.4984 30.6718 31.486 30.9019C31.0358 37.6577 25.652 43.0374 18.8925 43.4859C18.6623 43.4982 18.437 43.4167 18.2679 43.2601C18.0989 43.1035 18.0006 42.885 17.9956 42.6547V41.2845C17.9714 40.8701 18.2877 40.5146 18.7023 40.4902C23.9334 40.1439 28.1077 35.9949 28.4831 30.7685C28.5158 30.3387 28.8749 30.007 29.3062 30.0083L30.6544 30.0054ZM17.9984 38.1357V36.7598C18.0022 36.3485 18.3155 36.0061 18.725 35.9655C21.4587 35.6309 23.6152 33.4826 23.9588 30.7515C24.011 30.3314 24.3642 30.0135 24.7876 30.0054H25.9769C26.624 30.0054 27.0129 30.4253 26.9646 30.9104C26.5331 35.1695 23.1626 38.5371 18.901 38.9668C18.6684 38.9868 18.4382 38.9081 18.2665 38.75C18.0949 38.5919 17.9976 38.369 17.9984 38.1357Z" fill="#FF5C00"/>
</g>
<defs>
<clipPath id="clip0_1031_1968">
<rect width="48" height="48" fill="white" transform="translate(0 48) rotate(-90)"/>
</clipPath>
</defs>
</svg>
