<svg width="48" height="49" viewBox="0 0 48 49" fill="none" xmlns="http://www.w3.org/2000/svg">
<rect x="0.5" y="0.922852" width="47" height="47" rx="11.5" fill="url(#paint0_linear_3704_19672)"/>
<rect x="0.5" y="0.922852" width="47" height="47" rx="11.5" stroke="url(#paint1_linear_3704_19672)"/>
<g filter="url(#filter0_b_3704_19672)">
<rect x="19.3333" y="19.7563" width="9.33333" height="9.33333" rx="2.66667" fill="url(#paint2_linear_3704_19672)"/>
</g>
<path fill-rule="evenodd" clip-rule="evenodd" d="M21.3334 39.0894L29.703 39.0894C30.0195 39.0894 30.1578 38.6895 29.9089 38.4939L21.8727 32.1797C21.654 32.0079 21.3334 32.1637 21.3334 32.4418L21.3334 35.756L19.3334 35.756C15.6515 35.756 12.6667 32.7713 12.6667 29.0894L12.6667 19.756L9.3334 19.756L9.33341 29.0894C9.33341 34.6122 13.8106 39.0894 19.3334 39.0894L21.3334 39.0894L21.3334 39.0894Z" fill="url(#paint3_linear_3704_19672)"/>
<path fill-rule="evenodd" clip-rule="evenodd" d="M9.33334 21.7564L9.33334 30.126C9.33334 30.4425 9.73321 30.5808 9.92878 30.3319L16.243 22.2957C16.4148 22.077 16.259 21.7564 15.9809 21.7564L12.6667 21.7564L12.6667 19.7564C12.6667 16.0745 15.6514 13.0897 19.3333 13.0897L28.6667 13.0897L28.6667 9.75641L19.3333 9.75641C13.8105 9.75641 9.33334 14.2336 9.33334 19.7564L9.33334 21.7564Z" fill="url(#paint4_linear_3704_19672)"/>
<path fill-rule="evenodd" clip-rule="evenodd" d="M38.6667 27.0893L38.6667 18.7197C38.6667 18.4032 38.2668 18.2649 38.0712 18.5138L31.757 26.55C31.5852 26.7687 31.741 27.0893 32.0191 27.0893L35.3333 27.0893L35.3333 29.0893C35.3333 32.7712 32.3486 35.756 28.6667 35.756L19.3333 35.756L19.3333 39.0893L28.6667 39.0893C34.1895 39.0893 38.6667 34.6121 38.6667 29.0893L38.6667 27.0893Z" fill="url(#paint5_linear_3704_19672)"/>
<path fill-rule="evenodd" clip-rule="evenodd" d="M26.6666 9.75635L18.297 9.75635C17.9805 9.75635 17.8422 10.1562 18.0911 10.3518L26.1273 16.666C26.346 16.8378 26.6666 16.682 26.6666 16.4039V13.0897H28.6666C32.3485 13.0897 35.3333 16.0745 35.3333 19.7563V29.0897H38.6666V19.7563C38.6666 14.2335 34.1894 9.75635 28.6666 9.75635H26.6666V9.75635Z" fill="url(#paint6_linear_3704_19672)"/>
<defs>
<filter id="filter0_b_3704_19672" x="16.6667" y="17.0897" width="14.6667" height="14.6668" filterUnits="userSpaceOnUse" color-interpolation-filters="sRGB">
<feFlood flood-opacity="0" result="BackgroundImageFix"/>
<feGaussianBlur in="BackgroundImageFix" stdDeviation="1.33333"/>
<feComposite in2="SourceAlpha" operator="in" result="effect1_backgroundBlur_3704_19672"/>
<feBlend mode="normal" in="SourceGraphic" in2="effect1_backgroundBlur_3704_19672" result="shape"/>
</filter>
<linearGradient id="paint0_linear_3704_19672" x1="7.07692" y1="3.49977" x2="42.7692" y2="45.6536" gradientUnits="userSpaceOnUse">
<stop stop-color="#202531" stop-opacity="0.75"/>
<stop offset="1" stop-color="#03020D"/>
</linearGradient>
<linearGradient id="paint1_linear_3704_19672" x1="24" y1="0.422852" x2="24" y2="48.4229" gradientUnits="userSpaceOnUse">
<stop stop-color="#39414E"/>
<stop offset="1" stop-color="#39414E" stop-opacity="0"/>
</linearGradient>
<linearGradient id="paint2_linear_3704_19672" x1="19.8824" y1="21.1111" x2="25.9098" y2="27.7987" gradientUnits="userSpaceOnUse">
<stop stop-color="#FF5416"/>
<stop offset="1" stop-color="#FF5416" stop-opacity="0.5"/>
</linearGradient>
<linearGradient id="paint3_linear_3704_19672" x1="21" y1="34.9227" x2="11.6063" y2="27.7617" gradientUnits="userSpaceOnUse">
<stop stop-color="#F8C100"/>
<stop offset="1" stop-color="#E8A700" stop-opacity="0"/>
</linearGradient>
<linearGradient id="paint4_linear_3704_19672" x1="12.3333" y1="21.423" x2="20.7343" y2="12.6807" gradientUnits="userSpaceOnUse">
<stop stop-color="#B986F8"/>
<stop offset="1" stop-color="#B986F8" stop-opacity="0.4"/>
</linearGradient>
<linearGradient id="paint5_linear_3704_19672" x1="35" y1="26.9227" x2="29.0457" y2="39.1117" gradientUnits="userSpaceOnUse">
<stop stop-color="#D400AB"/>
<stop offset="1" stop-color="#D400AB" stop-opacity="0"/>
</linearGradient>
<linearGradient id="paint6_linear_3704_19672" x1="28.3333" y1="12.2563" x2="37.355" y2="18.1795" gradientUnits="userSpaceOnUse">
<stop stop-color="#00C008"/>
<stop offset="1" stop-color="#00C008" stop-opacity="0"/>
</linearGradient>
</defs>
</svg>
