<svg width="48" height="48" viewBox="0 0 48 48" fill="none" xmlns="http://www.w3.org/2000/svg">
<g clip-path="url(#clip0_1031_2008)">
<path fill-rule="evenodd" clip-rule="evenodd" d="M44 2H4C2.89543 2 2 2.89543 2 4V44C2 45.1046 2.89543 46 4 46H44C45.1046 46 46 45.1046 46 44V4C46 2.89543 45.1046 2 44 2ZM4 0C1.79086 0 0 1.79086 0 4V44C0 46.2091 1.79086 48 4 48H44C46.2091 48 48 46.2091 48 44V4C48 1.79086 46.2091 0 44 0H4Z" fill="#03020D"/>
<path d="M13.0199 30.9998L16.5199 25.4598L20.0399 30.9998H23.1199L18.2599 23.6398L22.7399 16.7998H19.6999L16.5199 21.8398L13.3399 16.7998H10.2999L14.7799 23.6398L9.93994 30.9998H13.0199Z" fill="black"/>
<path d="M27.2268 30.9998V25.0398H34.4268V30.9998H37.0068V16.7998H34.4268V22.6998H27.2268V16.7998H24.6468V30.9998H27.2268Z" fill="black"/>
</g>
<defs>
<clipPath id="clip0_1031_2008">
<rect width="48" height="48" fill="white"/>
</clipPath>
</defs>
</svg>
