<svg width="48" height="48" viewBox="0 0 48 48" fill="none" xmlns="http://www.w3.org/2000/svg">
	<path fill-rule="evenodd" clip-rule="evenodd" d="M46.5 40V12.75H1.5V40C1.5 40.2761 1.72386 40.5 2 40.5H46C46.2761 40.5 46.5 40.2761 46.5 40ZM46.5 8V11.25H1.5V8C1.5 7.72386 1.72386 7.5 2 7.5H46C46.2761 7.5 46.5 7.72386 46.5 8ZM48 8V40C48 41.1046 47.1046 42 46 42H2C0.895432 42 0 41.1046 0 40V8C0 6.89543 0.895431 6 2 6H46C47.1046 6 48 6.89543 48 8ZM4.25 9.25C4.25 9.80228 3.80228 10.25 3.25 10.25C2.69772 10.25 2.25 9.80228 2.25 9.25C2.25 8.69772 2.69772 8.25 3.25 8.25C3.80228 8.25 4.25 8.69772 4.25 9.25ZM6.25 10.25C6.80228 10.25 7.25 9.80228 7.25 9.25C7.25 8.69772 6.80228 8.25 6.25 8.25C5.69772 8.25 5.25 8.69772 5.25 9.25C5.25 9.80228 5.69772 10.25 6.25 10.25ZM10.25 9.25C10.25 9.80228 9.80228 10.25 9.25 10.25C8.69771 10.25 8.25 9.80228 8.25 9.25C8.25 8.69772 8.69771 8.25 9.25 8.25C9.80228 8.25 10.25 8.69772 10.25 9.25ZM24.75 29.7993C25.1984 29.54 25.5 29.0552 25.5 28.5C25.5 27.6716 24.8284 27 24 27C23.1716 27 22.5 27.6716 22.5 28.5C22.5 29.0552 22.8016 29.54 23.25 29.7993V33.5H24.75V29.7993ZM17 24.25C16.5858 24.25 16.25 24.5858 16.25 25V30.205L16.25 30.2421C16.2498 31.0676 16.2495 32.6758 17.0154 34.0849C17.4144 34.8189 18.0189 35.498 18.9172 35.9873C19.81 36.4735 20.9514 36.75 22.3949 36.75H25.6051C27.048 36.75 28.1892 36.4751 29.0819 35.9904C29.9804 35.5025 30.5854 34.8247 30.9846 34.0902C31.7506 32.681 31.7502 31.0674 31.75 30.2226L31.75 30.1839V25C31.75 24.5858 31.4142 24.25 31 24.25H29.75V21.1841C29.75 19.3825 29.1112 18.087 27.9744 17.2764C26.8851 16.4997 25.4495 16.25 24 16.25C22.5484 16.25 21.1133 16.5046 20.0247 17.2833C18.8896 18.0953 18.25 19.3896 18.25 21.1841V24.25H17ZM28.25 21.1841V24.25H19.75V21.1841C19.75 19.7819 20.2251 18.9842 20.8974 18.5033C21.6161 17.9891 22.6811 17.75 24 17.75C25.321 17.75 26.3855 17.9857 27.1035 18.4977C27.7741 18.9758 28.25 19.7723 28.25 21.1841ZM29 25.75H19H17.75V30.205C17.75 31.0561 17.7622 32.3179 18.3333 33.3686C18.6087 33.8753 19.0157 34.3328 19.6347 34.67C20.2593 35.0102 21.141 35.25 22.3949 35.25H25.6051C26.8596 35.25 27.7416 35.0113 28.3662 34.6721C28.985 34.3362 29.3916 33.88 29.6667 33.3739C30.2376 32.3236 30.25 31.0573 30.25 30.1839V25.75H29Z" fill="#03020D" />
</svg>
