<svg width="48" height="48" viewBox="0 0 48 48" fill="none" xmlns="http://www.w3.org/2000/svg">
<g clip-path="url(#clip0_1031_1921)">
<path d="M46 0H2C0.895431 0 0 0.895432 0 2V46C0 47.1046 0.895432 48 2 48H46C47.1046 48 48 47.1046 48 46V2C48 0.895431 47.1046 0 46 0Z" fill="#512BD4"/>
<path d="M8.55507 30.6667C8.21568 30.6667 7.9272 30.5537 7.68962 30.3274C7.45204 30.0954 7.33325 29.82 7.33325 29.501C7.33325 29.1762 7.45204 28.8979 7.68962 28.6659C7.9272 28.4339 8.21568 28.3179 8.55507 28.3179C8.90013 28.3179 9.19144 28.4339 9.42902 28.6659C9.67225 28.8979 9.79387 29.1762 9.79387 29.501C9.79387 29.82 9.67225 30.0954 9.42902 30.3274C9.19144 30.5537 8.90013 30.6667 8.55507 30.6667Z" fill="white"/>
<path d="M41.3333 19.7574H37.8375V30.4753H35.8181V19.7574H32.3308V18H41.3333V19.7574Z" fill="white"/>
<path d="M31.6262 30.4753H24.7959V18H31.3548V19.7574H26.8154V23.2894H30.9984V25.038H26.8154V28.7266H31.6262V30.4753Z" fill="white"/>
<path d="M22.1229 30.4753H19.9168L14.1046 21.3059C13.9576 21.0739 13.8359 20.8332 13.7398 20.5838H13.6889C13.7341 20.8506 13.7568 21.4219 13.7568 22.2976V30.4753H11.8052V18H14.1555L19.7725 26.9519C20.0101 27.3232 20.1629 27.5783 20.2308 27.7175H20.2646C20.2081 27.3869 20.1798 26.8273 20.1798 26.0384V18H22.1229V30.4753Z" fill="white"/>
</g>
<defs>
<clipPath id="clip0_1031_1921">
<rect width="48" height="48" fill="white"/>
</clipPath>
</defs>
</svg>
