<svg width="48" height="48" viewBox="0 0 48 48" fill="none" xmlns="http://www.w3.org/2000/svg">
<g clip-path="url(#clip0_1031_1905)">
<path d="M48 0H0V48H48V0Z" fill="url(#paint0_linear_1031_1905)"/>
<path d="M13.8816 14.08C15.5802 12.3846 17.681 11.1475 19.9875 10.4843C22.294 9.82118 24.7311 9.75367 27.0708 10.2881C29.4105 10.8225 31.5765 11.9414 33.3664 13.5403C35.1563 15.1391 36.5116 17.1656 37.3056 19.4304L38.5152 19.008C37.4559 15.9785 35.481 13.3533 32.8638 11.4958C30.2465 9.63832 27.1166 8.6405 23.9072 8.6405C20.6978 8.6405 17.5679 9.63832 14.9506 11.4958C12.3334 13.3533 10.3585 15.9785 9.29919 19.008L10.5088 19.4304C11.2095 17.4127 12.3633 15.5824 13.8816 14.08Z" fill="white"/>
<path d="M33.92 33.92C31.2573 36.5791 27.648 38.0727 23.8848 38.0727C20.1217 38.0727 16.5124 36.5791 13.8496 33.92C12.3292 32.4043 11.1756 30.5611 10.4768 28.5312L9.26721 28.9536C10.1273 31.429 11.602 33.6455 13.553 35.3952C15.5039 37.1449 17.8673 38.3705 20.4214 38.957C22.9755 39.5436 25.6368 39.4719 28.1556 38.7487C30.6745 38.0255 32.9685 36.6745 34.8224 34.8224C36.4955 33.1607 37.7615 31.1346 38.5216 28.9024L37.312 28.4928C36.6129 30.5383 35.4523 32.3953 33.92 33.92Z" fill="white"/>
<path d="M12.896 23.9745C12.8973 23.1095 12.5986 22.2708 12.0507 21.6014C11.5029 20.9321 10.7399 20.4734 9.89168 20.3037C9.04351 20.134 8.16274 20.2637 7.39952 20.6708C6.6363 21.0778 6.03789 21.737 5.70631 22.5359C5.37472 23.3348 5.3305 24.224 5.58117 25.0518C5.83184 25.8797 6.36189 26.595 7.08096 27.0758C7.80002 27.5565 8.66357 27.773 9.52439 27.6883C10.3852 27.6036 11.19 27.223 11.8016 26.6113C12.1496 26.2662 12.4255 25.8553 12.6134 25.4027C12.8013 24.95 12.8973 24.4645 12.896 23.9745ZM10.88 25.7088C10.4126 26.1523 9.79299 26.3994 9.14877 26.3994C8.50456 26.3994 7.88491 26.1523 7.41757 25.7088C7.07688 25.3661 6.8451 24.9303 6.75138 24.4562C6.65767 23.9821 6.70619 23.4908 6.89085 23.0442C7.07551 22.5976 7.38807 22.2156 7.78925 21.9461C8.19042 21.6766 8.6623 21.5317 9.14557 21.5297C9.79549 21.5311 10.4186 21.7887 10.88 22.2465C11.3384 22.706 11.5959 23.3286 11.5959 23.9777C11.5959 24.6267 11.3384 25.2493 10.88 25.7088Z" fill="white"/>
<path d="M41.472 21.3825C40.9511 20.8615 40.2874 20.5067 39.5649 20.3629C38.8423 20.2191 38.0933 20.2928 37.4127 20.5747C36.732 20.8566 36.1503 21.3341 35.7409 21.9466C35.3316 22.5592 35.1132 23.2793 35.1132 24.0161C35.1132 24.7528 35.3316 25.473 35.7409 26.0855C36.1503 26.6981 36.732 27.1755 37.4127 27.4574C38.0933 27.7393 38.8423 27.813 39.5649 27.6692C40.2874 27.5255 40.9511 27.1706 41.472 26.6497C42.1704 25.9511 42.5628 25.0038 42.5628 24.0161C42.5628 23.0283 42.1704 22.081 41.472 21.3825ZM40.5632 25.7409C40.1048 26.1989 39.4833 26.4562 38.8352 26.4562C38.1872 26.4562 37.5656 26.1989 37.1072 25.7409C36.8797 25.5143 36.6991 25.245 36.5759 24.9485C36.4527 24.6519 36.3892 24.334 36.3892 24.0129C36.3892 23.6917 36.4527 23.3738 36.5759 23.0772C36.6991 22.7807 36.8797 22.5114 37.1072 22.2849C37.3316 22.047 37.6015 21.8565 37.9009 21.7248C38.2002 21.593 38.523 21.5227 38.85 21.5179C39.177 21.5132 39.5016 21.5741 39.8047 21.697C40.1078 21.82 40.3831 22.0025 40.6143 22.2337C40.8456 22.465 41.0281 22.7403 41.1511 23.0434C41.274 23.3464 41.3349 23.6711 41.3301 23.9981C41.3254 24.3251 41.2551 24.6479 41.1233 24.9472C40.9916 25.2466 40.8011 25.5164 40.5632 25.7409Z" fill="white"/>
<path d="M18.6752 30.1952C21.2992 27.5712 26.6432 27.5712 29.2672 30.1952C29.3864 30.3134 29.5473 30.3801 29.7152 30.3808C29.8849 30.3808 30.0477 30.3134 30.1677 30.1934C30.2877 30.0733 30.3552 29.9106 30.3552 29.7408C30.3557 29.6566 30.3395 29.5731 30.3077 29.4951C30.2758 29.4171 30.2289 29.3462 30.1696 29.2864C28.863 27.8405 28.1739 25.9409 28.2496 23.9936C28.1746 22.0464 28.8636 20.1471 30.1696 18.7008C30.2888 18.5809 30.3557 18.4187 30.3557 18.2496C30.3557 18.0805 30.2888 17.9183 30.1696 17.7984C30.0497 17.6792 29.8875 17.6123 29.7184 17.6123C29.5493 17.6123 29.3871 17.6792 29.2672 17.7984C26.6432 20.416 21.2992 20.416 18.6752 17.7984C18.5553 17.6792 18.3931 17.6123 18.224 17.6123C18.0549 17.6123 17.8927 17.6792 17.7728 17.7984C17.6536 17.9183 17.5867 18.0805 17.5867 18.2496C17.5867 18.4187 17.6536 18.5809 17.7728 18.7008C19.0903 20.1421 19.791 22.042 19.7248 23.9936C19.7917 25.9453 19.0909 27.8455 17.7728 29.2864C17.7135 29.3462 17.6665 29.4171 17.6347 29.4951C17.6028 29.5731 17.5867 29.6566 17.5872 29.7408C17.5867 29.825 17.6028 29.9085 17.6347 29.9865C17.6665 30.0645 17.7135 30.1354 17.7728 30.1952C17.8927 30.3144 18.0549 30.3813 18.224 30.3813C18.3931 30.3813 18.5553 30.3144 18.6752 30.1952ZM20.3328 20.3648C22.672 21.2802 25.2703 21.2802 27.6096 20.3648C26.7135 22.7032 26.7135 25.2904 27.6096 27.6288C25.2703 26.7134 22.672 26.7134 20.3328 27.6288C21.2288 25.2904 21.2288 22.7032 20.3328 20.3648Z" fill="white"/>
<path d="M31.7632 26.6177L33.92 24.4353C34.0392 24.3154 34.1061 24.1532 34.1061 23.9841C34.1061 23.815 34.0392 23.6528 33.92 23.5329L31.7504 21.3633L30.8416 22.2657L31.936 23.3537H29.0432V24.6337H31.936L30.8544 25.7153L31.7632 26.6177Z" fill="white"/>
<path d="M16.2944 26.6305L18.4768 24.4481C18.596 24.3282 18.6629 24.166 18.6629 23.9969C18.6629 23.8278 18.596 23.6656 18.4768 23.5457L16.2944 21.3633L15.392 22.2657L16.48 23.3537H13.6832V24.6337H16.48L15.392 25.7281L16.2944 26.6305Z" fill="white"/>
</g>
<defs>
<linearGradient id="paint0_linear_1031_1905" x1="-11.622" y1="56.0721" x2="59.6227" y2="-8.07662" gradientUnits="userSpaceOnUse">
<stop stop-color="#B0084D"/>
<stop offset="1" stop-color="#FF4F8B"/>
</linearGradient>
<clipPath id="clip0_1031_1905">
<rect width="48" height="48" fill="white"/>
</clipPath>
</defs>
</svg>
