<svg width="48" height="48" viewBox="0 0 48 48" fill="none" xmlns="http://www.w3.org/2000/svg">
<g clip-path="url(#clip0_1031_1981)">
<path d="M4.06745 47.862C4.06745 47.5624 14.0901 35.5179 14.3015 35.5636C14.4222 35.5898 18.8987 37.4916 24.2493 39.7899C33.3873 43.7152 33.9936 43.9472 34.2407 43.6162C34.6144 43.1153 35.9014 40.423 36.5822 38.7182L37.1598 37.2715L36.1867 36.7395C34.8078 35.9855 32.7852 34.306 31.5188 32.8634C30.3631 31.5471 28.2784 28.3708 28.2784 27.9261C28.2784 27.7791 28.9409 28.4481 29.7505 29.413C32.0244 32.1233 37.2646 36.3643 37.5937 35.7608C37.9843 35.0447 38.2367 32.9302 38.2241 30.4803C38.2088 27.4893 37.8168 25.1608 36.7873 21.9468L36.2103 20.1459L33.3581 19.2493C31.7894 18.7562 30.2167 18.2618 29.8634 18.1507C28.6311 17.7634 29.402 17.7842 31.2062 18.1871C33.3633 18.6688 35.5543 19.0756 36.9111 19.2464C38.1058 19.3967 38.3686 19.1623 38.4964 17.8329C38.6593 16.1378 37.5654 11.4564 36.4618 9.12557C36.0213 8.19531 35.8226 7.99473 34.9407 7.591C32.0052 6.24712 22.817 4.98844 18.9153 5.39568C17.2286 5.57175 15.4961 5.98161 14.9561 6.33228C14.8039 6.43112 15.8917 6.71137 17.7646 7.05576C19.4459 7.36495 20.671 7.64731 20.4871 7.68322C20.3033 7.71913 17.6615 7.42879 14.6163 7.03804C9.27018 6.35206 9.06626 6.3396 8.6939 6.6766C7.91754 7.37918 6.80054 9.29968 6.57057 10.3273C6.34793 11.3221 6.3636 11.4374 6.85893 12.4499C7.70324 14.1756 9.27324 15.4313 12.8458 17.2382C14.5352 18.0927 15.8764 18.8327 15.8263 18.8828C15.7762 18.9329 14.3346 18.3946 12.6226 17.6866L9.5099 16.3994L4.94237 17.6776C2.43022 18.3806 0.290497 18.9558 0.187418 18.9558C0.0696134 18.9558 0 15.9209 0 10.7852C0 2.9172 0.014852 2.58398 0.401118 1.78604C0.636581 1.29965 1.09653 0.774453 1.51482 0.514348L2.22741 0.0712461L23.1457 0.0130332C34.6508 -0.0189834 44.5294 0.0100485 45.0981 0.0775487C46.3797 0.22966 47.5364 1.16814 47.8425 2.30413C47.9742 2.79386 48.0238 10.2418 47.9895 24.4122L47.9378 45.7816L47.4946 46.4942C47.2345 46.9126 46.7094 47.3724 46.223 47.6079C45.4008 48.0059 45.2345 48.009 24.7309 48.009C13.366 48.009 4.06745 47.9428 4.06745 47.862Z" fill="#333333"/>
</g>
<defs>
<clipPath id="clip0_1031_1981">
<rect width="48" height="48" fill="white"/>
</clipPath>
</defs>
</svg>
