<svg width="18" height="18" viewBox="0 0 18 18" fill="none" xmlns="http://www.w3.org/2000/svg">
  <path d="M17.6483 7.36875H9.1803V10.8492H14.0178C13.8092 11.9742 13.1764 12.9258 12.2225 13.5633C11.4162 14.1023 10.3873 14.4211 9.17795 14.4211C6.83655 14.4211 4.85608 12.8391 4.14827 10.7133C3.97014 10.1742 3.86702 9.59766 3.86702 9.00469C3.86702 8.41172 3.97014 7.83516 4.14827 7.29609C4.85842 5.17266 6.83889 3.59063 9.1803 3.59063C10.4998 3.59063 11.6834 4.04531 12.6162 4.93594L15.1944 2.35547C13.6358 0.902344 11.6037 0.0117188 9.1803 0.0117188C5.66702 0.0117188 2.62717 2.02734 1.14827 4.96641C0.538892 6.18047 0.192017 7.55391 0.192017 9.00703C0.192017 10.4602 0.538892 11.8312 1.14827 13.0453C2.62717 15.9844 5.66702 18 9.1803 18C11.6084 18 13.6428 17.1938 15.1287 15.8203C16.828 14.2547 17.81 11.9484 17.81 9.20859C17.81 8.57109 17.7537 7.95937 17.6483 7.36875Z" fill="currentColor" />
</svg>
