<svg width="48" height="48" viewBox="0 0 48 48" fill="none" xmlns="http://www.w3.org/2000/svg">
<g clip-path="url(#clip0_1031_1967)">
<path d="M24 48C37.2548 48 48 37.2548 48 24C48 10.7452 37.2548 0 24 0C10.7452 0 0 10.7452 0 24C0 37.2548 10.7452 48 24 48Z" fill="url(#paint0_linear_1031_1967)"/>
<path d="M38.8501 38.8499H38.8495C30.6493 47.0501 17.3521 47.0501 9.15126 38.8499C0.949256 30.6479 0.949256 17.3519 9.15126 9.14991C17.3521 0.949706 30.6481 0.949706 38.8501 9.14991C47.0503 17.3519 47.0503 30.6479 38.8501 38.8499ZM37.1521 37.1519C44.4163 29.8883 44.4163 18.1115 37.1521 10.8479C29.8885 3.58431 18.1117 3.58431 10.8481 10.8479C3.58446 18.1115 3.58446 29.8883 10.8481 37.1519C18.1117 44.4161 29.8885 44.4161 37.1521 37.1519Z" fill="white"/>
<path d="M28.668 37.1521C33.588 32.2321 33.588 24.2539 28.668 19.3333C23.7468 14.4133 15.768 14.4133 10.848 19.3333C5.92796 24.2533 5.92796 32.2315 10.848 37.1521C15.768 42.0721 23.7468 42.0721 28.668 37.1521ZM30.3642 38.8501C24.5064 44.7073 15.009 44.7073 9.15116 38.8501C3.29336 32.9917 3.29336 23.4943 9.15116 17.6365C15.009 11.7781 24.5064 11.7781 30.3642 17.6365C36.222 23.4943 36.222 32.9917 30.3642 38.8495V38.8501Z" fill="white"/>
<path d="M20.1816 37.1521C22.7592 34.5751 22.7592 30.3961 20.1816 27.8185C17.6046 25.2409 13.4256 25.2409 10.848 27.8185C8.27044 30.3961 8.27044 34.5745 10.848 37.1521C13.4256 39.7297 17.604 39.7297 20.1816 37.1521ZM21.8796 38.8501C18.3636 42.3643 12.666 42.3643 9.15124 38.8501C5.63644 35.3341 5.63644 29.6365 9.15124 26.1217C12.666 22.6069 18.3642 22.6069 21.879 26.1217C25.3938 29.6365 25.3938 35.3347 21.879 38.8495L21.8796 38.8501Z" fill="white"/>
</g>
<defs>
<linearGradient id="paint0_linear_1031_1967" x1="24" y1="0" x2="24" y2="48" gradientUnits="userSpaceOnUse">
<stop stop-color="#4BC0CE"/>
<stop offset="1" stop-color="#4BA898"/>
</linearGradient>
<clipPath id="clip0_1031_1967">
<rect width="48" height="48" fill="white" transform="translate(0 48) rotate(-90)"/>
</clipPath>
</defs>
</svg>
