<svg width="48" height="48" viewBox="0 0 48 48" fill="none" xmlns="http://www.w3.org/2000/svg">
<g clip-path="url(#clip0_1031_1949)">
<path d="M22.4955 20.73C20.4989 24.0864 18.586 27.3368 16.6332 30.5626C16.1317 31.3908 15.8835 32.0654 16.2841 33.1181C17.3903 36.0263 15.8299 38.8564 12.8972 39.6246C10.1315 40.3493 7.43685 38.5316 6.8881 35.5706C6.40183 32.9497 8.43573 30.3804 11.3255 29.9708C11.5675 29.9361 11.8148 29.9322 12.2216 29.9017L16.6172 22.5309C13.8526 19.7819 12.2071 16.5687 12.5713 12.5867C12.8287 9.77202 13.9356 7.33955 15.9586 5.34593C19.8333 1.52805 25.7445 0.909868 30.3069 3.84027C34.6885 6.65513 36.6953 12.1381 34.9847 16.8308C33.6949 16.4812 32.3961 16.1285 30.9683 15.7412C31.5054 13.132 31.1082 10.7892 29.3484 8.78199C28.1858 7.45679 26.6939 6.76221 24.9976 6.50628C21.5968 5.99253 18.2578 8.17735 17.267 11.5154C16.1424 15.3035 17.8446 18.3982 22.4955 20.7302V20.73Z" fill="#C73A63"/>
<path d="M28.1977 16.7607C29.6044 19.2423 31.0327 21.7613 32.4482 24.2572C39.603 22.0436 44.9974 26.0043 46.9327 30.2446C49.2703 35.3668 47.6723 41.4335 43.0815 44.5937C38.3694 47.8376 32.4102 47.2834 28.2353 43.1162C29.2993 42.2256 30.3686 41.3309 31.511 40.3751C35.6345 43.0459 39.2411 42.9201 41.9186 39.7575C44.2018 37.0595 44.1523 33.0367 41.8028 30.3954C39.0915 27.3473 35.4597 27.2544 31.0697 30.1803C29.2487 26.9495 27.396 23.7446 25.6325 20.4905C25.0379 19.3937 24.3815 18.7573 23.0412 18.5253C20.8032 18.1372 19.3583 16.2153 19.2715 14.0621C19.1863 11.9326 20.4409 10.0077 22.4018 9.25777C24.3442 8.51463 26.6237 9.11437 27.9303 10.7659C28.998 12.1152 29.3373 13.6338 28.7754 15.2979C28.6192 15.762 28.4169 16.211 28.1977 16.7609V16.7607Z" fill="#4B4B4B"/>
<path d="M31.5597 37.0468H22.9465C22.121 40.4424 20.3377 43.1838 17.2653 44.9272C14.8766 46.2821 12.3023 46.7415 9.56231 46.299C4.51747 45.4855 0.392479 40.9441 0.0292839 35.8304C-0.38171 30.0373 3.60008 24.888 8.90743 23.7314C9.27383 25.0621 9.64417 26.4055 10.0106 27.733C5.14112 30.2174 3.45574 33.3477 4.81857 37.2619C6.01824 40.7064 9.42607 42.5945 13.1263 41.8643C16.9051 41.1187 18.8102 37.9783 18.5776 32.9384C22.1599 32.9384 25.7452 32.9013 29.3279 32.9566C30.7268 32.9786 31.8068 32.8335 32.8606 31.6002C34.5957 29.5708 37.7894 29.7539 39.658 31.6706C41.5677 33.6294 41.4763 36.7811 39.4554 38.6573C37.5056 40.4676 34.4252 40.3709 32.6009 38.4202C32.2261 38.0182 31.9306 37.5408 31.5597 37.0468Z" fill="#4A4A4A"/>
</g>
<defs>
<clipPath id="clip0_1031_1949">
<rect width="48" height="48" fill="white"/>
</clipPath>
</defs>
</svg>
