<svg width="24" height="24" viewBox="0 0 24 24" fill="none" xmlns="http://www.w3.org/2000/svg">
<path fill-rule="evenodd" clip-rule="evenodd" d="M22.3939 2.24805H1.68174ZM1.68174 2.24805L1.68052 2.24805ZM22.3939 2.24805C22.6536 2.24792 22.904 2.32367 23.1187 2.46046C23.3329 2.59689 23.5017 2.78725 23.6159 3.00505C23.7296 3.22241 23.7879 3.46429 23.7888 3.70656C23.7898 3.94884 23.7336 4.1907 23.6217 4.40889L23.618 4.41617L21.547 8.34759C21.4172 8.59388 21.1618 8.74805 20.8834 8.74805H3.19524C2.91687 8.74805 2.66141 8.59388 2.53167 8.34759L0.458326 4.41162C0.345422 4.19369 0.288491 3.95179 0.28882 3.70936C0.289149 3.46693 0.346753 3.22517 0.460294 3.00753C0.573964 2.78964 0.74233 2.59905 0.95601 2.46221C1.17049 2.32486 1.42057 2.24847 1.68052 2.24805M22.2745 3.74805H1.80416L3.64786 7.24805H20.4308L22.2745 3.74805ZM22.395 3.74805C22.3953 3.74805 22.3947 3.74805 22.395 3.74805Z" fill="#03020D"/>
<path fill-rule="evenodd" clip-rule="evenodd" d="M3.56484 10.248H20.511C20.7467 10.2479 20.9747 10.3151 21.171 10.4374C21.367 10.5595 21.5228 10.7307 21.6285 10.9279C21.7338 11.1246 21.7879 11.3441 21.7888 11.5642C21.7897 11.7844 21.7375 12.0038 21.6339 12.2013L21.63 12.2086L19.9356 15.3538C19.8047 15.5966 19.5512 15.748 19.2753 15.748H4.80316C4.52731 15.748 4.27372 15.5966 4.14289 15.3538L2.446 12.204C2.34146 12.0067 2.28851 11.7872 2.28882 11.5669C2.28913 11.3465 2.3427 11.1271 2.44783 10.9301C2.55309 10.7328 2.70836 10.5615 2.90396 10.439C3.10014 10.3161 3.32782 10.2484 3.56365 10.248L3.56484 10.248Z" fill="#03020D"/>
<path fill-rule="evenodd" clip-rule="evenodd" d="M5.4468 17.248L5.44795 17.248L18.6282 17.248C18.6283 17.248 18.6281 17.248 18.6282 17.248C18.8377 17.248 19.0419 17.3055 19.2194 17.4121C19.3969 17.5187 19.5404 17.6697 19.6388 17.8468C19.7369 18.0234 19.788 18.2218 19.7888 18.4218C19.7896 18.6218 19.7404 18.8202 19.6439 18.9976L19.6399 19.005L18.3219 21.3638C18.1894 21.6011 17.9389 21.748 17.6672 21.748H6.41109C6.13935 21.748 5.88888 21.6011 5.75634 21.3638L4.43588 19.0004C4.33849 18.8231 4.28853 18.6246 4.28882 18.4244C4.28911 18.2241 4.33965 18.0258 4.43757 17.8488C4.5356 17.6716 4.67873 17.5204 4.85584 17.4135C5.03324 17.3063 5.23713 17.2484 5.4468 17.248ZM18.0651 18.748H6.01314L6.85118 20.248H17.2271L18.0651 18.748Z" fill="#03020D"/>
</svg>
