<svg width="48" height="49" viewBox="0 0 48 49" fill="none" xmlns="http://www.w3.org/2000/svg">
<g clip-path="url(#clip0_3698_15485)">
<path fill-rule="evenodd" clip-rule="evenodd" d="M15.4871 38.4872C16.0249 38.0548 16.6912 37.8325 17.3462 37.6455C17.1356 37.844 16.7614 38.0897 16.9254 38.4287C17.2411 38.8384 17.8255 38.885 18.2934 38.9905C20.2691 39.2356 22.2685 39.3992 24.2446 39.2471C25.7411 39.1538 27.2139 38.885 28.6758 38.6275C29.5172 39.1186 30.3944 39.5395 31.2942 39.9137C29.9147 40.5333 28.4301 40.9308 26.9455 41.2117C24.4434 41.6555 21.8592 41.7143 19.3453 41.3168C18.2346 41.118 17.1005 40.8608 16.0952 40.3112C15.7092 40.0894 15.3001 39.8319 15.1365 39.3992C15.0078 39.0602 15.218 38.6981 15.4871 38.4872Z" fill="#0B6FB6"/>
<path fill-rule="evenodd" clip-rule="evenodd" d="M8.99834 41.796C10.0742 41.4337 11.185 41.1413 12.3191 41.1064C12.7751 41.0946 13.2426 41.118 13.6401 41.3519C12.2839 41.4337 10.9275 41.7727 9.71157 42.3923C9.44282 42.5444 9.13862 42.7199 9.03349 43.0356C9.03349 43.3976 9.44282 43.5149 9.71157 43.6315C11.4071 44.263 13.219 44.4617 14.9966 44.649C20.2928 45.0932 25.6242 44.9762 30.9207 44.4969C32.9201 44.2748 34.931 44.0527 36.872 43.5031C37.4916 43.2925 38.193 43.0822 38.6023 42.5326C38.848 42.2054 38.6847 41.796 38.439 41.5155C38.8362 41.7379 39.3977 42.0184 39.3162 42.5562C39.1641 43.1174 38.5905 43.4095 38.123 43.6785C36.6265 44.4387 34.9777 44.8244 33.3409 45.1634C28.5825 46.0985 23.7069 46.3093 18.8663 46.1691C15.2184 46.04 11.5707 45.6894 7.9694 45.0701C7.32646 44.918 6.60171 44.789 6.1339 44.2866C5.83 43.9357 6.09875 43.4446 6.39083 43.1877C7.1277 42.5096 8.07484 42.1351 8.99834 41.796Z" fill="#0B6FB6"/>
<path fill-rule="evenodd" clip-rule="evenodd" d="M38.1347 45.7949C39.3161 45.3856 40.5783 44.9529 41.4552 44.0176C41.3031 45.0347 40.4262 45.7364 39.5609 46.1921C37.9011 47.0578 36.0417 47.455 34.1947 47.7822C30.2892 48.4021 26.3261 48.5539 22.3621 48.4842C19.6613 48.4021 16.9371 48.297 14.283 47.7355C13.6515 47.5604 12.9734 47.4432 12.4238 47.0693C14.7856 47.4668 17.1829 47.6307 19.5798 47.724C23.5198 47.8407 27.4717 47.6892 31.3887 47.1974C33.6569 46.882 35.9366 46.4963 38.1347 45.7949Z" fill="#0B6FB6"/>
<path fill-rule="evenodd" clip-rule="evenodd" d="M38.1347 45.7949C39.3161 45.3856 40.5783 44.9529 41.4552 44.0176C41.3031 45.0347 40.4262 45.7364 39.5609 46.1921C37.9011 47.0578 36.0417 47.455 34.1947 47.7822C30.2892 48.4021 26.3261 48.5539 22.3621 48.4842C19.6613 48.4021 16.9371 48.297 14.283 47.7355C13.6515 47.5604 12.9734 47.4432 12.4238 47.0693C14.7856 47.4668 17.1829 47.6307 19.5798 47.724C23.5198 47.8407 27.4717 47.6892 31.3887 47.1974C33.6569 46.882 35.9366 46.4963 38.1347 45.7949Z" stroke="#0B6FB6" stroke-width="0.705882"/>
<path fill-rule="evenodd" clip-rule="evenodd" d="M14.1306 33.3899C14.7387 32.9106 15.4638 32.6415 16.1885 32.3843C15.9549 32.6648 15.6274 32.9339 15.6041 33.3196C15.5923 33.565 15.7913 33.7523 15.9898 33.8692C16.3755 34.0677 16.8081 34.138 17.2411 34.1964C19.4856 34.4304 21.7538 34.5591 24.0223 34.407C26.0914 34.3016 28.1496 33.9625 30.1959 33.6002C30.7571 34.1265 31.4233 34.4888 32.1251 34.8045C29.6575 35.5293 27.1206 35.9504 24.5719 36.1492C22.1634 36.3128 19.7199 36.3013 17.3226 35.915C16.3755 35.7399 15.4053 35.5411 14.5403 35.0966C14.1894 34.9097 13.7919 34.6643 13.6865 34.2549C13.6165 33.9041 13.8737 33.5883 14.1306 33.3899Z" fill="#0B6FB6"/>
<path fill-rule="evenodd" clip-rule="evenodd" d="M28.5593 0.5C29.6577 1.75103 30.0203 3.54018 29.7049 5.15358C29.3653 6.96575 28.36 8.56764 27.1792 9.94745C26.2324 11.0582 25.1447 12.0402 24.0109 12.9522C22.6896 14.016 21.3916 15.1619 20.5617 16.6586C19.86 17.8745 19.6963 19.371 20.1757 20.6923C20.9589 22.9605 22.7832 24.6442 23.777 26.7838C22.6777 25.8134 21.6021 24.8081 20.5965 23.744C19.5442 22.6214 18.5504 21.4289 17.8957 20.0257C17.4515 19.0437 17.2527 17.8978 17.5918 16.8574C17.9308 15.7933 18.6907 14.9398 19.4509 14.1447C21.567 12.0284 24.1742 10.4734 26.2436 8.32222C27.3901 7.14118 28.3369 5.72653 28.6642 4.10131C28.9332 2.90875 28.8041 1.68104 28.5593 0.5Z" fill="#E11F22"/>
<path fill-rule="evenodd" clip-rule="evenodd" d="M26.8286 13.8177C29.0968 12.1456 31.751 11.0818 34.44 10.3101C32.3127 11.6662 30.0912 12.9054 28.2554 14.6476C27.5885 15.2906 26.9577 16.0274 26.6653 16.9276C26.4429 17.5942 26.5362 18.3307 26.8056 18.9622C27.2967 20.0844 28.1263 20.9964 28.7578 22.0254C29.2959 22.9022 29.3892 24.0248 28.9804 24.9719C28.3602 26.3629 27.1446 27.3804 25.8818 28.1869C25.7179 28.2805 25.5776 28.456 25.3788 28.4793C26.2208 27.7194 26.8753 26.6438 26.8523 25.4861C26.8286 24.6211 26.3493 23.8612 25.7882 23.2413C24.6308 21.8618 23.66 20.1078 23.8591 18.2489C24.0578 16.3898 25.3907 14.8933 26.8286 13.8177Z" fill="#E11F22"/>
<path fill-rule="evenodd" clip-rule="evenodd" d="M34.8729 27.3335C35.3634 26.7375 36.1469 26.5854 36.8599 26.4918C38.0997 26.3282 39.4207 26.6439 40.356 27.4974C41.1278 28.187 41.5604 29.2629 41.3965 30.3034C41.2214 31.5078 40.4142 32.5134 39.5028 33.2733C37.8543 34.5943 35.8197 35.366 33.7852 35.8805C33.9024 35.7517 34.0306 35.6347 34.1827 35.5414C35.7261 34.7112 37.2577 33.7408 38.3921 32.3846C39.0814 31.5429 39.6195 30.4437 39.3974 29.3329C39.1638 28.0467 37.9128 27.1114 36.6381 27.0414C36.0297 26.9829 35.4573 27.2168 34.8729 27.3335Z" fill="#0B6FB6"/>
<path fill-rule="evenodd" clip-rule="evenodd" d="M11.3719 28.3975C13.5231 27.4737 15.8615 26.8777 18.2115 26.9126C16.8435 27.3101 15.4407 27.6491 14.1545 28.2572C13.8503 28.4209 13.4998 28.573 13.3243 28.8887C13.231 29.1341 13.4879 29.2977 13.6749 29.3795C14.4699 29.707 15.3471 29.7537 16.2006 29.8358C19.1935 30.0346 22.1985 29.9176 25.1805 29.7304C28.1262 29.5434 31.0497 29.1459 33.9605 28.6781C33.3179 28.982 32.6628 29.2862 32.0668 29.6719C31.7626 29.8825 31.3887 29.9409 31.0497 30.0227C27.4717 30.8178 23.8001 31.0632 20.1524 31.1217C18.7375 31.1335 17.3347 31.1102 15.9318 31.0165C14.3651 30.9114 12.7865 30.7945 11.2549 30.3851C10.8104 30.2564 10.3429 30.1161 9.99207 29.8004C9.81664 29.6604 9.81664 29.3795 9.96874 29.2159C10.3544 28.8184 10.8925 28.6314 11.3719 28.3975Z" fill="#0B6FB6"/>
</g>
<defs>
<clipPath id="clip0_3698_15485">
<rect width="48" height="48" fill="white" transform="translate(0 0.5)"/>
</clipPath>
</defs>
</svg>
