<svg width="48" height="49" viewBox="0 0 48 49" fill="none" xmlns="http://www.w3.org/2000/svg">
<path d="M48 18.3336H36.2675C33.0964 12.2343 29.7443 7.5 25.1803 7.5C19.2393 7.5 16.4459 12.6998 13.7469 17.7576L13.5108 18.1995H0V21.2057H7.86885C10.6466 21.2057 11.2131 22.1447 11.2131 22.1447C9.03344 25.5376 6.41311 28.891 2.0459 28.891H0V32.0472H2.06164C10.5285 32.0472 14.2269 25.1589 17.1934 19.6276C19.9161 14.5304 21.8125 11.4452 25.1803 11.4452C28.6741 11.4452 32.3489 19.0674 35.583 25.798C36.0551 26.7764 36.5351 27.7785 37.0229 28.7727C24.6216 29.1672 18.7121 32.0788 13.9043 34.4538C10.3869 36.1897 7.60918 38.3438 3.03738 38.3438H0V41.5H3.01377C8.52197 41.5 11.9528 39.7957 15.6039 37.9887C20.6636 35.4954 26.4 32.6706 39.9187 32.6706H47.7325V29.5144H43.318C43.1506 29.5144 42.6204 29.5144 42.2985 29.1983C40.3707 26.9101 39.8479 25.6481 39.1082 24.07L38.0852 21.9711C38.0852 21.9711 38.8171 21.1821 40.8472 21.1821H48V18.3336Z" fill="#188FFF"/>
</svg>
