<svg width="48" height="48" viewBox="0 0 48 48" fill="none" xmlns="http://www.w3.org/2000/svg">
<g clip-path="url(#clip0_2276_25)">
<g clip-path="url(#clip1_2276_25)">
<mask id="mask0_2276_25" style="mask-type:alpha" maskUnits="userSpaceOnUse" x="0" y="0" width="48" height="48">
<path d="M24 48C37.2548 48 48 37.2548 48 24C48 10.7452 37.2548 0 24 0C10.7452 0 0 10.7452 0 24C0 37.2548 10.7452 48 24 48Z" fill="black"/>
</mask>
<g mask="url(#mask0_2276_25)">
<path d="M24 48C37.2548 48 48 37.2548 48 24C48 10.7452 37.2548 0 24 0C10.7452 0 0 10.7452 0 24C0 37.2548 10.7452 48 24 48Z" fill="black"/>
<path d="M39.8687 42.0052L18.4378 14.3999H14.3999V33.5919H17.6302V18.5022L37.333 43.9586C38.222 43.3636 39.069 42.7106 39.8687 42.0052Z" fill="url(#paint0_linear_2276_25)"/>
<path d="M33.8667 14.3999H30.6667V33.5999H33.8667V14.3999Z" fill="url(#paint1_linear_2276_25)"/>
</g>
</g>
</g>
<defs>
<linearGradient id="paint0_linear_2276_25" x1="29.0666" y1="31.0666" x2="38.5332" y2="42.7999" gradientUnits="userSpaceOnUse">
<stop stop-color="white"/>
<stop offset="1" stop-color="white" stop-opacity="0"/>
</linearGradient>
<linearGradient id="paint1_linear_2276_25" x1="32.2667" y1="14.3999" x2="32.2131" y2="28.4999" gradientUnits="userSpaceOnUse">
<stop stop-color="white"/>
<stop offset="1" stop-color="white" stop-opacity="0"/>
</linearGradient>
<clipPath id="clip0_2276_25">
<rect width="48" height="48" fill="white"/>
</clipPath>
<clipPath id="clip1_2276_25">
<rect width="48" height="48" fill="white"/>
</clipPath>
</defs>
</svg>
