<svg width="24" height="24" viewBox="0 0 24 24" fill="none" xmlns="http://www.w3.org/2000/svg">
<g clip-path="url(#clip0)">
<path fill-rule="evenodd" clip-rule="evenodd" d="M10.6508 0.240762C10.2315 -0.118661 9.60017 -0.0700991 9.24075 0.349227C8.88132 0.768553 8.92989 1.39985 9.34921 1.75927L10.8721 3.06461C5.91928 3.63496 2 7.90866 2 13C2 18.4723 6.52771 23 12 23C17.4723 23 22 18.4723 22 13C22 12.4477 21.5523 12 21 12C20.4477 12 20 12.4477 20 13C20 17.3677 16.3677 21 12 21C7.63228 21 4 17.3677 4 13C4 8.96189 7.10476 5.5524 11.025 5.06081L9.2929 6.79291C8.90237 7.18344 8.90237 7.8166 9.2929 8.20712C9.68342 8.59765 10.3166 8.59765 10.7071 8.20712L14.2071 4.70713C14.4041 4.51016 14.51 4.23998 14.4993 3.96164C14.4886 3.6833 14.3623 3.42204 14.1508 3.24076L10.6508 0.240762Z" fill="currentColor"/>
</g>
<defs>
<clipPath id="clip0">
<rect width="24" height="24" fill="currentColor"/>
</clipPath>
</defs>
</svg>
