<svg width="48" height="48" viewBox="0 0 48 48" fill="none" xmlns="http://www.w3.org/2000/svg">
<path fill-rule="evenodd" clip-rule="evenodd" d="M4 8.5H44C45.3807 8.5 46.5 9.61929 46.5 11V19C46.5 20.3807 45.3807 21.5 44 21.5H4C2.61929 21.5 1.5 20.3807 1.5 19V11C1.5 9.61929 2.61929 8.5 4 8.5ZM0 11C0 8.79086 1.79086 7 4 7H44C46.2091 7 48 8.79086 48 11V19C48 21.2091 46.2091 23 44 23H4C1.79086 23 0 21.2091 0 19V11ZM4 26.5H44C45.3807 26.5 46.5 27.6193 46.5 29V37C46.5 38.3807 45.3807 39.5 44 39.5H4C2.61929 39.5 1.5 38.3807 1.5 37V29C1.5 27.6193 2.61929 26.5 4 26.5ZM0 29C0 26.7909 1.79086 25 4 25H44C46.2091 25 48 26.7909 48 29V37C48 39.2091 46.2091 41 44 41H4C1.79086 41 0 39.2091 0 37V29ZM6.75 30C6.75 29.5858 6.41421 29.25 6 29.25C5.58579 29.25 5.25 29.5858 5.25 30V36C5.25 36.4142 5.58579 36.75 6 36.75C6.41421 36.75 6.75 36.4142 6.75 36V30ZM9 29.25C9.41421 29.25 9.75 29.5858 9.75 30V36C9.75 36.4142 9.41421 36.75 9 36.75C8.58579 36.75 8.25 36.4142 8.25 36V30C8.25 29.5858 8.58579 29.25 9 29.25ZM41 34C41.5523 34 42 33.5523 42 33C42 32.4477 41.5523 32 41 32C40.4477 32 40 32.4477 40 33C40 33.5523 40.4477 34 41 34ZM36 33C36 33.5523 35.5523 34 35 34C34.4477 34 34 33.5523 34 33C34 32.4477 34.4477 32 35 32C35.5523 32 36 32.4477 36 33ZM6 11.25C6.41421 11.25 6.75 11.5858 6.75 12V18C6.75 18.4142 6.41421 18.75 6 18.75C5.58579 18.75 5.25 18.4142 5.25 18V12C5.25 11.5858 5.58579 11.25 6 11.25ZM9.75 12C9.75 11.5858 9.41421 11.25 9 11.25C8.58579 11.25 8.25 11.5858 8.25 12V18C8.25 18.4142 8.58579 18.75 9 18.75C9.41421 18.75 9.75 18.4142 9.75 18V12ZM42 15C42 15.5523 41.5523 16 41 16C40.4477 16 40 15.5523 40 15C40 14.4477 40.4477 14 41 14C41.5523 14 42 14.4477 42 15ZM35 16C35.5523 16 36 15.5523 36 15C36 14.4477 35.5523 14 35 14C34.4477 14 34 14.4477 34 15C34 15.5523 34.4477 16 35 16Z" fill="#03020D"/>
</svg>
