<svg width="24" height="24" viewBox="0 0 24 24" fill="none" xmlns="http://www.w3.org/2000/svg">
<path d="M8.72445 22H0V15.7188C0 13.1771 0.217335 11.1771 0.652005 9.71875C1.10737 8.23958 1.93532 6.91667 3.13583 5.75C4.33635 4.58333 5.86805 3.66667 7.73092 3L9.43855 6.625C7.69987 7.20833 6.44761 8.02083 5.68176 9.0625C4.93661 10.1042 4.54334 11.4896 4.50194 13.2188H8.72445V22ZM23.2859 22H14.5614V15.7188C14.5614 13.1562 14.7788 11.1458 15.2135 9.6875C15.6688 8.22917 16.4968 6.91667 17.6973 5.75C18.9185 4.58333 20.4502 3.66667 22.2924 3L24 6.625C22.2613 7.20833 21.0091 8.02083 20.2432 9.0625C19.4981 10.1042 19.1048 11.4896 19.0634 13.2188H23.2859V22Z" fill="currentColor"/>
</svg>
