<svg width="24" height="24" viewBox="0 0 24 24" fill="none" xmlns="http://www.w3.org/2000/svg">
<path fill-rule="evenodd" clip-rule="evenodd" d="M3 4C3 3.44772 3.44772 3 4 3H15C15.5523 3 16 2.55228 16 2C16 1.44772 15.5523 1 15 1H4C2.34315 1 1 2.34315 1 4V20C1 21.6569 2.34315 23 4 23H20C21.6569 23 23 21.6569 23 20V9.47619C23 8.92391 22.5523 8.47619 22 8.47619C21.4477 8.47619 21 8.92391 21 9.47619V20C21 20.5523 20.5523 21 20 21H4C3.44772 21 3 20.5523 3 20V4ZM20.8321 3.55468C21.1384 3.09516 21.0142 2.47429 20.5547 2.16793C20.0952 1.86158 19.4743 1.98576 19.168 2.44528L11.9266 13.3074L8.78088 9.37529C8.43587 8.94403 7.80657 8.87411 7.37531 9.21912C6.94405 9.56413 6.87413 10.1934 7.21914 10.6247L11.2191 15.6247C11.4184 15.8738 11.7246 16.0129 12.0434 15.999C12.3621 15.9852 12.6551 15.8201 12.8321 15.5547L20.8321 3.55468Z" fill="currentColor"/>
</svg>
