<svg width="48" height="48" viewBox="0 0 48 48" fill="none" xmlns="http://www.w3.org/2000/svg">
	<path fill-rule="evenodd" clip-rule="evenodd" d="M26 5.25C28.6234 5.25 30.75 7.37664 30.75 10V17.25H40C42.6234 17.25 44.75 19.3766 44.75 22V39.6756C44.75 41.2119 42.912 42.0026 41.7966 40.9462L37.8512 37.2095H22C19.3766 37.2095 17.25 35.0828 17.25 32.4595V25.2095H10.1488L6.20337 28.9462C5.08797 30.0026 3.25 29.2119 3.25 27.6756V10C3.25 7.37665 5.37665 5.25 8 5.25H26ZM18.75 25.2095V32.4595C18.75 34.2544 20.2051 35.7095 22 35.7095H38.4488L42.8281 39.8571C42.9874 40.008 43.25 39.8951 43.25 39.6756V22C43.25 20.2051 41.7949 18.75 40 18.75H30.75V20.4595C30.75 23.0828 28.6234 25.2095 26 25.2095H18.75ZM29.25 18.75V20.4595C29.25 22.2544 27.7949 23.7095 26 23.7095H18.75V22C18.75 20.2051 20.2051 18.75 22 18.75H29.25ZM29.25 17.25H22C19.3766 17.25 17.25 19.3766 17.25 22V23.7095H9.55121L5.17191 27.8571C5.01257 28.008 4.75 27.895 4.75 27.6756V10C4.75 8.20507 6.20507 6.75 8 6.75H26C27.7949 6.75 29.25 8.20507 29.25 10V17.25Z" fill="#03020D" />
</svg>
