<svg width="16" height="16" viewBox="0 0 16 16" fill="none" xmlns="http://www.w3.org/2000/svg">
<path d="M1.125 3C1.125 2.50272 1.32254 2.02581 1.67417 1.67417C2.02581 1.32254 2.50272 1.125 3 1.125H4.875C5.37228 1.125 5.84919 1.32254 6.20082 1.67417C6.55246 2.02581 6.75 2.50272 6.75 3V4.875C6.75 5.37228 6.55246 5.84919 6.20082 6.20082C5.84919 6.55246 5.37228 6.75 4.875 6.75H3C2.50272 6.75 2.02581 6.55246 1.67417 6.20082C1.32254 5.84919 1.125 5.37228 1.125 4.875V3ZM1.125 11.125C1.125 10.6277 1.32254 10.1508 1.67417 9.79917C2.02581 9.44754 2.50272 9.25 3 9.25H4.875C5.37228 9.25 5.84919 9.44754 6.20082 9.79917C6.55246 10.1508 6.75 10.6277 6.75 11.125V13C6.75 13.4973 6.55246 13.9742 6.20082 14.3258C5.84919 14.6775 5.37228 14.875 4.875 14.875H3C2.50272 14.875 2.02581 14.6775 1.67417 14.3258C1.32254 13.9742 1.125 13.4973 1.125 13V11.125ZM9.25 3C9.25 2.50272 9.44754 2.02581 9.79917 1.67417C10.1508 1.32254 10.6277 1.125 11.125 1.125H13C13.4973 1.125 13.9742 1.32254 14.3258 1.67417C14.6775 2.02581 14.875 2.50272 14.875 3V4.875C14.875 5.37228 14.6775 5.84919 14.3258 6.20082C13.9742 6.55246 13.4973 6.75 13 6.75H11.125C10.6277 6.75 10.1508 6.55246 9.79917 6.20082C9.44754 5.84919 9.25 5.37228 9.25 4.875V3ZM9.25 11.125C9.25 10.6277 9.44754 10.1508 9.79917 9.79917C10.1508 9.44754 10.6277 9.25 11.125 9.25H13C13.4973 9.25 13.9742 9.44754 14.3258 9.79917C14.6775 10.1508 14.875 10.6277 14.875 11.125V13C14.875 13.4973 14.6775 13.9742 14.3258 14.3258C13.9742 14.6775 13.4973 14.875 13 14.875H11.125C10.6277 14.875 10.1508 14.6775 9.79917 14.3258C9.44754 13.9742 9.25 13.4973 9.25 13V11.125Z" stroke="#03020D" stroke-width="1.25" stroke-linecap="round" stroke-linejoin="round"/>
</svg>
