<svg width="16" height="16" viewBox="0 0 16 16" fill="none" xmlns="http://www.w3.org/2000/svg">
<path fill-rule="evenodd" clip-rule="evenodd" d="M6.96781 2.7027C7.40521 1.94089 8.59522 1.9409 9.03262 2.7027L14.595 12.3906C15.0039 13.1027 14.4406 13.9581 13.5626 13.9581H2.43779C1.55986 13.9581 0.996492 13.1027 1.40538 12.3906L6.96781 2.7027Z" fill="currentColor"/>
<path d="M8.66634 11.2083C8.66634 11.5458 8.36786 11.8194 7.99967 11.8194C7.63148 11.8194 7.33301 11.5458 7.33301 11.2083C7.33301 10.8708 7.63148 10.5972 7.99967 10.5972C8.36786 10.5972 8.66634 10.8708 8.66634 11.2083Z" fill="white"/>
<path fill-rule="evenodd" clip-rule="evenodd" d="M7.99967 6.16602C8.36786 6.16602 8.66634 6.43962 8.66634 6.77713V9.3745C8.66634 9.71201 8.36786 9.98561 7.99967 9.98561C7.63148 9.98561 7.33301 9.71201 7.33301 9.3745V6.77713C7.33301 6.43962 7.63148 6.16602 7.99967 6.16602Z" fill="white"/>
</svg>
