<svg width="48" height="48" viewBox="0 0 48 48" fill="none" xmlns="http://www.w3.org/2000/svg">
<path fill-rule="evenodd" clip-rule="evenodd" d="M22.9305 1.25L22.928 1.25001C19.1663 1.26263 16.3209 2.16727 14.179 3.58598C12.0396 5.00308 10.6518 6.89994 9.74914 8.81907C8.26167 11.9815 8.06171 15.3211 7.9923 16.6843C3.42863 17.5061 0 21.7056 0 26.6695C0 32.2864 4.35972 36.25 9.678 36.25C10.0922 36.25 10.428 35.9142 10.428 35.5C10.428 35.0858 10.0922 34.75 9.678 34.75C5.13828 34.75 1.5 31.409 1.5 26.6695C1.5 22.1862 4.72837 18.5284 8.78309 18.0846C9.1279 18.0469 9.40186 17.7776 9.44553 17.4335C9.46441 17.2847 9.47723 17.0562 9.49373 16.7619C9.57379 15.3345 9.7405 12.3616 11.1065 9.45752C11.9185 7.73117 13.1435 6.0711 15.0074 4.83653C16.8686 3.60372 19.4169 2.762 22.9317 2.75C28.6269 2.75058 33.8404 6.66921 35.7011 12.4871C35.7964 12.7851 36.0667 12.9926 36.3792 13.0077C41.9981 13.2802 46.5 18.103 46.5 24.1293C46.5 30.207 41.9083 34.6131 36.1651 34.7502C35.751 34.7601 35.4233 35.1038 35.4332 35.5179C35.4431 35.932 35.7868 36.2597 36.2009 36.2498C42.7337 36.0938 48 31.0459 48 24.1293C48 17.5374 43.19 12.1193 36.9665 11.5457C34.791 5.41533 29.1621 1.25 22.9305 1.25ZM33 26.5H13C12.1716 26.5 11.5 27.1716 11.5 28V32C11.5 32.8284 12.1716 33.5 13 33.5H33C33.8284 33.5 34.5 32.8284 34.5 32V28C34.5 27.1716 33.8284 26.5 33 26.5ZM13 25C11.3431 25 10 26.3431 10 28V32C10 33.6569 11.3431 35 13 35H33C34.6569 35 36 33.6569 36 32V28C36 26.3431 34.6569 25 33 25H13ZM14 27.75C14.4142 27.75 14.75 28.0858 14.75 28.5V31.5C14.75 31.9142 14.4142 32.25 14 32.25C13.5858 32.25 13.25 31.9142 13.25 31.5V28.5C13.25 28.0858 13.5858 27.75 14 27.75ZM17.25 28.5C17.25 28.0858 16.9142 27.75 16.5 27.75C16.0858 27.75 15.75 28.0858 15.75 28.5V31.5C15.75 31.9142 16.0858 32.25 16.5 32.25C16.9142 32.25 17.25 31.9142 17.25 31.5V28.5ZM33 30C33 30.5523 32.5523 31 32 31C31.4477 31 31 30.5523 31 30C31 29.4477 31.4477 29 32 29C32.5523 29 33 29.4477 33 30ZM29 31C29.5523 31 30 30.5523 30 30C30 29.4477 29.5523 29 29 29C28.4477 29 28 29.4477 28 30C28 30.5523 28.4477 31 29 31ZM33 37.5H13C12.1716 37.5 11.5 38.1716 11.5 39V43C11.5 43.8284 12.1716 44.5 13 44.5H33C33.8284 44.5 34.5 43.8284 34.5 43V39C34.5 38.1716 33.8284 37.5 33 37.5ZM13 36C11.3431 36 10 37.3431 10 39V43C10 44.6569 11.3431 46 13 46H33C34.6569 46 36 44.6569 36 43V39C36 37.3431 34.6569 36 33 36H13ZM14.75 39.5C14.75 39.0858 14.4142 38.75 14 38.75C13.5858 38.75 13.25 39.0858 13.25 39.5V42.5C13.25 42.9142 13.5858 43.25 14 43.25C14.4142 43.25 14.75 42.9142 14.75 42.5V39.5ZM16.5 38.75C16.9142 38.75 17.25 39.0858 17.25 39.5V42.5C17.25 42.9142 16.9142 43.25 16.5 43.25C16.0858 43.25 15.75 42.9142 15.75 42.5V39.5C15.75 39.0858 16.0858 38.75 16.5 38.75ZM32 42C32.5523 42 33 41.5523 33 41C33 40.4477 32.5523 40 32 40C31.4477 40 31 40.4477 31 41C31 41.5523 31.4477 42 32 42ZM30 41C30 41.5523 29.5523 42 29 42C28.4477 42 28 41.5523 28 41C28 40.4477 28.4477 40 29 40C29.5523 40 30 40.4477 30 41Z" fill="currentColor"/>
</svg>
