<svg width="48" height="48" viewBox="0 0 48 48" fill="none" xmlns="http://www.w3.org/2000/svg">
	<path fill-rule="evenodd" clip-rule="evenodd" d="M38.5 42C38.5 42.2761 38.2761 42.5 38 42.5H10C9.72386 42.5 9.5 42.2761 9.5 42V6C9.5 5.72386 9.72386 5.5 10 5.5H30.3431C31.0062 5.5 31.6421 5.76339 32.1109 6.23223L37.7678 11.8891C38.2366 12.3579 38.5 12.9938 38.5 13.6569V42ZM10 44H38C39.1046 44 40 43.1046 40 42V13.6569C40 12.596 39.5786 11.5786 38.8284 10.8284L33.1716 5.17157C32.4214 4.42143 31.404 4 30.3431 4H10C8.89543 4 8 4.89543 8 6V42C8 43.1046 8.89543 44 10 44ZM24 19.6933L25.3733 22.7833L28.8177 23.2139L26.3807 25.7118L27.015 29.0567L24.1 27.366L21.1132 29.0983L21.7103 25.5754L19.2775 23.202L22.6267 22.7833L24 19.6933ZM29.1 32L28 26.2L32 22.1L26.4 21.4L24 16L21.6 21.4L16 22.1L20.1 26.1L19.1 32L24.1 29.1L29.1 32Z" fill="currentColor" />
</svg>
