<svg width="40" height="41" viewBox="0 0 40 41" fill="none" xmlns="http://www.w3.org/2000/svg">
<path d="M34.1667 8.83334C35.8333 8.83334 37.5 10.5 37.5 12.1667C37.5 13.8333 37.5 27.1667 37.5 28.8333C37.5 30.5 35.8333 32.1667 34.1667 32.1667C33.3681 32.1667 27.2124 32.1667 20.8333 32.1667M5.83333 32.1667C4.16667 32.1667 2.5 30.5 2.5 28.8333C2.5 27.1667 2.5 13.8333 2.5 12.1667C2.5 10.5 4.16667 8.83334 5.83333 8.83334C6.52662 8.83334 11.2574 8.83334 16.6667 8.83334" stroke="#03020D" stroke-width="1.5" stroke-linecap="round"/>
<ellipse cx="12.5001" cy="32.1667" rx="5.83333" ry="5.83333" fill="white" stroke="#03020D" stroke-width="1.5"/>
<path fill-rule="evenodd" clip-rule="evenodd" d="M12.5134 29.9141C13.3192 29.2628 14.5059 29.3095 15.2571 30.0543C16.061 30.8514 16.061 32.1454 15.2571 32.9424L13.1534 35.0282C12.7991 35.3795 12.2277 35.3795 11.8733 35.0282L9.7697 32.9424C8.96577 32.1454 8.96576 30.8514 9.7697 30.0543C10.5208 29.3095 11.7076 29.2628 12.5134 29.9141Z" fill="#FF5416"/>
<path d="M27.4999 25.9157C27.4997 26.2453 27.5973 26.5677 27.7803 26.8419C27.9633 27.1161 28.2236 27.3299 28.5281 27.4562C28.8326 27.5825 29.1678 27.6156 29.4911 27.5514C29.8145 27.4872 30.1115 27.3286 30.3447 27.0955C30.5779 26.8625 30.7368 26.5655 30.8012 26.2422C30.8655 25.9189 30.8326 25.5837 30.7065 25.2791C30.5803 24.9745 30.3667 24.7141 30.0926 24.531C29.8185 24.3478 29.4963 24.25 29.1666 24.25C28.7248 24.25 28.301 24.4255 27.9884 24.7378C27.6759 25.0501 27.5002 25.4738 27.4999 25.9157Z" stroke="#03020D" stroke-width="1.5" stroke-miterlimit="10" stroke-linecap="round"/>
<path d="M23.5417 23.8333C23.5417 23.0279 24.1947 22.375 25.0001 22.375H33.3334C34.1388 22.375 34.7917 23.0279 34.7917 23.8333V28C34.7917 28.8054 34.1388 29.4583 33.3334 29.4583H25.0001C24.1947 29.4583 23.5417 28.8054 23.5417 28V23.8333Z" stroke="#03020D" stroke-width="1.5"/>
<path d="M5.83342 26.2603C5.83342 25.111 6.25621 24.0088 7.00884 23.1962C7.76148 22.3835 8.7822 21.927 9.84658 21.927H15.1535C16.2179 21.927 17.2387 22.3835 17.9913 23.1962C18.744 24.0088 19.1667 25.111 19.1667 26.2603" stroke="#03020D" stroke-width="1.5" stroke-miterlimit="10" stroke-linecap="round"/>
<path d="M27.4999 16.749C27.4997 17.0787 27.5973 17.401 27.7803 17.6752C27.9633 17.9494 28.2236 18.1632 28.5281 18.2895C28.8326 18.4158 29.1678 18.449 29.4911 18.3848C29.8145 18.3206 30.1115 18.1619 30.3447 17.9289C30.5779 17.6958 30.7368 17.3989 30.8012 17.0755C30.8655 16.7522 30.8326 16.417 30.7065 16.1124C30.5803 15.8078 30.3667 15.5475 30.0926 15.3643C29.8185 15.1811 29.4963 15.0833 29.1666 15.0833C28.7248 15.0833 28.301 15.2588 27.9884 15.5711C27.6759 15.8835 27.5002 16.3071 27.4999 16.749Z" stroke="#03020D" stroke-width="1.5" stroke-miterlimit="10" stroke-linecap="round"/>
<path d="M23.5417 14.6667C23.5417 13.8613 24.1947 13.2083 25.0001 13.2083H33.3334C34.1388 13.2083 34.7917 13.8613 34.7917 14.6667V18.8333C34.7917 19.6388 34.1388 20.2917 33.3334 20.2917H25.0001C24.1947 20.2917 23.5417 19.6388 23.5417 18.8333V14.6667Z" stroke="#03020D" stroke-width="1.5"/>
<path d="M8.79636 15.977C8.7959 16.7312 9.01916 17.4685 9.43781 18.0958C9.85647 18.7231 10.4518 19.2121 11.1484 19.5011C11.845 19.79 12.6117 19.8658 13.3514 19.719C14.0912 19.5721 14.7707 19.2092 15.3041 18.6761C15.8375 18.143 16.2009 17.4636 16.3482 16.724C16.4955 15.9843 16.4201 15.2176 16.1316 14.5208C15.8431 13.824 15.3544 13.2284 14.7274 12.8094C14.1004 12.3903 13.3632 12.1667 12.6091 12.1667C11.5983 12.1667 10.6288 12.568 9.9139 13.2825C9.19897 13.9971 8.79698 14.9662 8.79636 15.977Z" stroke="#03020D" stroke-width="1.5" stroke-miterlimit="10" stroke-linecap="round"/>
<path d="M22.3206 10.617L22.4004 10.5355H30.6239C31.1366 10.5355 31.6009 10.2795 31.9255 9.94802C32.2501 9.61641 32.5 9.14275 32.5 8.62046V4.0817C32.5 3.55941 32.2501 3.08575 31.9255 2.75414C31.6009 2.42262 31.1366 2.16667 30.6239 2.16667H20.2095C19.6967 2.16667 19.2324 2.42262 18.9079 2.75414C18.5832 3.08575 18.3333 3.55941 18.3333 4.0817V11.7259C18.3333 12.2003 18.5691 12.6864 19.0289 12.8993C19.5289 13.131 20.067 12.9451 20.4684 12.5236C20.7528 12.2251 21.2768 11.6862 21.7319 11.2196C21.959 10.9868 22.1682 10.7728 22.3206 10.617Z" fill="#FF5416"/>
</svg>
