<svg width="49" height="49" viewBox="0 0 49 49" fill="none" xmlns="http://www.w3.org/2000/svg">
<path d="M46.499 8.92285L46.499 40.9229" stroke="#C6CED9" stroke-width="1.5" stroke-linecap="round" stroke-linejoin="round"/>
<path d="M42.499 12.9229L42.499 36.9229" stroke="#C6CED9" stroke-width="1.5" stroke-linecap="round" stroke-linejoin="round"/>
<path d="M38.499 15.9229L38.499 33.9229" stroke="#C6CED9" stroke-width="1.5" stroke-linecap="round" stroke-linejoin="round"/>
<path d="M34.499 19.9229L34.499 29.9229" stroke="#C6CED9" stroke-width="1.5" stroke-linecap="round" stroke-linejoin="round"/>
<path d="M30.499 21.9229L30.499 27.9229" stroke="#FF5416" stroke-width="1.5" stroke-linecap="round" stroke-linejoin="round"/>
<path d="M26.499 22.9229L26.499 26.9229" stroke="#FF5416" stroke-width="1.5" stroke-linecap="round" stroke-linejoin="round"/>
<path d="M2.49902 40.9229L2.49902 8.92285" stroke="#C6CED9" stroke-width="1.5" stroke-linecap="round" stroke-linejoin="round"/>
<path d="M6.49902 36.9229L6.49902 12.9229" stroke="#C6CED9" stroke-width="1.5" stroke-linecap="round" stroke-linejoin="round"/>
<path d="M10.499 33.9229L10.499 15.9229" stroke="#C6CED9" stroke-width="1.5" stroke-linecap="round" stroke-linejoin="round"/>
<path d="M14.499 29.9229L14.499 19.9229" stroke="#C6CED9" stroke-width="1.5" stroke-linecap="round" stroke-linejoin="round"/>
<path d="M18.499 27.9229L18.499 21.9229" stroke="#FF5416" stroke-width="1.5" stroke-linecap="round" stroke-linejoin="round"/>
<path d="M22.499 26.9229L22.499 22.9229" stroke="#FF5416" stroke-width="1.5" stroke-linecap="round" stroke-linejoin="round"/>
<path fill-rule="evenodd" clip-rule="evenodd" d="M23.7521 4.38731C24.0437 4.10137 24.5105 4.10137 24.8022 4.38731L28.0241 7.5462C28.2417 7.75951 28.3086 8.08326 28.1934 8.36533C28.0782 8.64741 27.8037 8.83174 27.499 8.83174L26.1778 8.83174L26.1778 14.1811L27.499 14.1811C27.8075 14.1811 28.0844 14.3699 28.1971 14.6569C28.3099 14.944 28.2354 15.2708 28.0094 15.4807L24.7875 18.4724C24.4997 18.7397 24.0545 18.7397 23.7668 18.4724L20.5449 15.4807C20.3189 15.2708 20.2444 14.944 20.3571 14.6569C20.4698 14.3699 20.7468 14.1811 21.0552 14.1811L22.3764 14.1811L22.3764 8.83174L21.0552 8.83174C20.7505 8.83174 20.4761 8.64741 20.3609 8.36533C20.2457 8.08326 20.3126 7.75951 20.5301 7.5462L23.7521 4.38731Z" fill="#FF5416"/>
<path d="M23.7521 31.3873C24.0437 31.1014 24.5105 31.1014 24.8022 31.3873L28.0241 34.5462C28.2417 34.7595 28.3086 35.0833 28.1934 35.3653C28.0782 35.6474 27.8037 35.8317 27.499 35.8317L26.1778 35.8317L26.1778 41.1811L27.499 41.1811C27.8075 41.1811 28.0844 41.3699 28.1971 41.6569C28.3099 41.944 28.2354 42.2708 28.0094 42.4807L24.7875 45.4724C24.4997 45.7397 24.0545 45.7397 23.7668 45.4724L20.5449 42.4807C20.3189 42.2708 20.2444 41.944 20.3571 41.6569C20.4698 41.3699 20.7468 41.1811 21.0552 41.1811L22.3764 41.1811L22.3764 35.8317L21.0552 35.8317C20.7505 35.8317 20.4761 35.6474 20.3609 35.3653C20.2457 35.0833 20.3126 34.7595 20.5301 34.5462L23.7521 31.3873Z" fill="#FF5416"/>
</svg>
