<svg xmlns="http://www.w3.org/2000/svg" fill="none" viewBox="0 0 16 16">
  <g fill="#03020D" clip-path="url(#a)">
    <path d="M7.65 10.994a2.697 2.697 0 0 1-.434-.148l-2.338 2.338a1.683 1.683 0 0 1-2.38-2.38l3.57-3.57c.154-.157.341-.279.547-.357a.626.626 0 0 1 .208-.078 1.701 1.701 0 0 1 .964.024c.248.086.474.226.66.41.157.155.281.339.364.542.011 0 .03-.006.041-.006a.823.823 0 0 0 .488-.238l.815-.815a3.447 3.447 0 0 0-.517-.672 3.358 3.358 0 0 0-1.684-.91.693.693 0 0 0-.226-.036 1.87 1.87 0 0 0-.203-.024 1.359 1.359 0 0 0-.309-.012c-.141 0-.282.01-.423.03h-.011l-.167.024a3.81 3.81 0 0 0-.875.303c-.319.16-.61.371-.862.625l-3.57 3.57a3.366 3.366 0 0 0 4.76 4.76L9.34 11.1a4.266 4.266 0 0 1-1.69-.107Z" />
    <path d="M14.695.986a3.365 3.365 0 0 0-4.76 0L6.663 4.26a4.287 4.287 0 0 1 2.136.244l2.326-2.327a1.683 1.683 0 1 1 2.38 2.38L11.18 6.883l-.333.333-.34.34-.57.57a1.65 1.65 0 0 1-1.435.47 1.31 1.31 0 0 1-.404-.107 1.683 1.683 0 0 1-.905-.904.842.842 0 0 0-.53.244l-.814.815a3.29 3.29 0 0 0 1.588 1.386c.142.066.29.118.44.155a3.36 3.36 0 0 0 2.993-.637l.006-.006c.084-.07.173-.148.25-.226l3.57-3.57a3.365 3.365 0 0 0 0-4.76Z" />
  </g>
  <defs>
    <clipPath id="a">
      <path fill="#fff" d="M0 0h16v16H0z" />
    </clipPath>
  </defs>
</svg>