<svg width="48" height="48" viewBox="0 0 48 48" fill="none" xmlns="http://www.w3.org/2000/svg">
<g clip-path="url(#clip0_1031_1916)">
<path fill-rule="evenodd" clip-rule="evenodd" d="M48 24C48 37.2548 37.2548 48 24 48C10.7452 48 0 37.2548 0 24C0 10.7452 10.7452 0 24 0C37.2548 0 48 10.7452 48 24ZM28.3029 12.1512C29.8848 10.295 32.01 8.95306 34.4448 8.86812H34.4447C36.878 8.78843 38.7159 9.89 38.7759 11.6337C38.8003 12.3759 38.3733 13.8209 36.8891 13.8689C35.7806 13.9089 35.0141 13.2464 34.9794 12.2384C34.9676 11.8685 35.0628 11.5466 35.3154 11.1684C35.3581 11.085 35.3949 11.0143 35.4267 10.9534C35.5798 10.6601 35.6148 10.5929 35.6094 10.4174C35.5871 9.78312 34.6278 9.758 34.3657 9.77131C30.7687 9.88944 29.8205 14.7455 29.0518 18.6933L28.6751 20.7751C30.7466 21.0792 32.2175 20.705 33.038 20.174C33.7368 19.7214 33.472 19.2607 33.1948 18.7784C33.0137 18.4635 32.8274 18.1393 32.9006 17.8021C33.0903 16.9321 33.8807 16.5134 34.5097 16.4956C35.3885 16.475 36.0163 17.3862 35.9962 18.3123C35.966 19.8425 33.9345 21.9462 29.873 21.8606C29.3782 21.8487 28.9233 21.8148 28.4979 21.7638L27.7321 25.9931L27.7112 26.0908C27.0274 29.2851 26.1011 33.612 22.8731 37.3912C20.0713 40.7217 17.2284 41.24 15.9553 41.2837C13.5736 41.3641 11.9939 40.094 11.9371 38.3992C11.8826 36.7584 13.3344 35.8619 14.2869 35.8295C15.5585 35.7873 16.4383 36.7081 16.472 37.7701C16.5039 38.6688 16.035 38.9493 15.7248 39.1184C15.6946 39.1427 15.6622 39.167 15.6289 39.192C15.4333 39.339 15.2067 39.5091 15.2175 39.8259C15.2248 39.9841 15.3954 40.3473 15.9234 40.331C16.9 40.2974 17.558 39.8285 18.0232 39.497C18.0377 39.4866 18.0521 39.4763 18.0663 39.4662C20.3866 37.5322 21.2795 34.1634 22.4491 28.0282L22.6927 26.5411L22.7138 26.4358C23.108 24.4683 23.5459 22.2832 24.2096 20.1061C23.7111 19.7311 23.2734 19.3286 22.8436 18.9333C21.8626 18.0312 20.9224 17.1666 19.3927 16.7512C17.8856 16.3413 16.9653 16.6899 16.3192 17.5066C15.5535 18.4749 15.8075 19.7347 16.5474 20.4738L17.7688 21.8246C19.2678 23.5561 20.0861 24.9024 19.7782 26.7146C19.2894 29.6079 15.843 31.8262 11.7688 30.5744C8.29138 29.5023 7.64226 27.0403 8.05944 25.6837C8.42732 24.4895 9.37626 24.2643 10.3036 24.5486C11.2978 24.8551 11.6861 26.0626 11.4018 26.9907C11.3987 27.0002 11.3955 27.0103 11.392 27.021C11.3597 27.121 11.3097 27.2758 11.2149 27.4758C11.1671 27.5835 11.1021 27.6852 11.0358 27.7887C10.9433 27.9331 10.8485 28.0813 10.7947 28.2549C10.5712 28.9839 11.5694 29.5016 12.2643 29.7134C13.8202 30.1934 15.3371 29.3787 15.7233 28.1206C16.0807 26.9634 15.3496 26.1562 15.0461 25.8468L13.5736 24.2688C12.9001 23.5177 11.4174 21.4257 12.1402 19.0751C12.4194 18.1706 13.0064 17.2083 13.8586 16.5717C15.6575 15.2315 17.6137 15.0106 19.4761 15.5454C21.2871 16.0676 22.3915 17.0975 23.4661 18.0996C23.8213 18.4308 24.1732 18.7589 24.5463 19.0647C25.386 16.6006 26.5513 14.1866 28.3029 12.1512Z" fill="#1A171B"/>
</g>
<defs>
<clipPath id="clip0_1031_1916">
<rect width="48" height="48" fill="white"/>
</clipPath>
</defs>
</svg>
