<svg width="48" height="48" viewBox="0 0 48 48" fill="none" xmlns="http://www.w3.org/2000/svg">
<path fill-rule="evenodd" clip-rule="evenodd" d="M44 34H4C2.89543 34 2 34.8954 2 36V44C2 45.1046 2.89543 46 4 46H44C45.1046 46 46 45.1046 46 44V36C46 34.8954 45.1046 34 44 34ZM4 32C1.79086 32 0 33.7909 0 36V44C0 46.2091 1.79086 48 4 48H44C46.2091 48 48 46.2091 48 44V36C48 33.7909 46.2091 32 44 32H4Z" fill="#03020D"/>
<path d="M38 40C38 38.9091 38.9091 38 40 38C41.0909 38 42 38.9091 42 40C42 41.0909 41.0909 42 40 42C38.9091 42 38 41.0909 38 40Z" fill="#03020D"/>
<path d="M33 40C33 38.9091 33.9091 38 35 38C36.0909 38 37 38.9091 37 40C37 41.0909 36.0909 42 35 42C33.9091 42 33 41.0909 33 40Z" fill="#03020D"/>
<path fill-rule="evenodd" clip-rule="evenodd" d="M11 37C11.5523 37 12 37.4477 12 38L12 42C12 42.5523 11.5523 43 11 43C10.4477 43 10 42.5523 10 42L10 38C10 37.4477 10.4477 37 11 37Z" fill="#03020D"/>
<path fill-rule="evenodd" clip-rule="evenodd" d="M7 37C7.55228 37 8 37.4477 8 38L8 42C8 42.5523 7.55228 43 7 43C6.44772 43 6 42.5523 6 42L6 38C6 37.4477 6.44772 37 7 37Z" fill="#03020D"/>
<path d="M35.0102 22.9998C35.0102 23.5521 34.5625 23.9998 34.0102 23.9998H33.99C33.4377 23.9998 32.99 23.5521 32.99 22.9998V11.8786L28.1415 16.7271C27.751 17.1176 27.1179 17.1176 26.7273 16.7271L26.7072 16.707C26.3167 16.3164 26.3167 15.6833 26.7072 15.2927L33.293 8.70696C33.6835 8.31643 34.3167 8.31643 34.7072 8.70696L41.293 15.2927C41.6835 15.6833 41.6835 16.3164 41.293 16.707L41.2729 16.7271C40.8823 17.1176 40.2492 17.1176 39.8586 16.7271L35.0102 11.8786V22.9998Z" fill="#03020D"/>
<path d="M15.0102 22.9998C15.0102 23.5521 14.5625 23.9998 14.0102 23.9998H13.99C13.4377 23.9998 12.99 23.5521 12.99 22.9998V11.8786L8.14154 16.7271C7.75102 17.1176 7.11785 17.1176 6.72733 16.7271L6.7072 16.707C6.31668 16.3164 6.31668 15.6833 6.7072 15.2927L13.293 8.70696C13.6835 8.31643 14.3167 8.31643 14.7072 8.70696L21.293 15.2927C21.6835 15.6833 21.6835 16.3164 21.293 16.707L21.2729 16.7271C20.8823 17.1176 20.2492 17.1176 19.8586 16.7271L15.0102 11.8786V22.9998Z" fill="#03020D"/>
</svg>
