<svg width="48" height="48" viewBox="0 0 48 48" fill="none" xmlns="http://www.w3.org/2000/svg">
<g clip-path="url(#clip0_1031_2004)">
<path d="M24.9181 7.64315C24.3333 6.60856 23.3962 6.59356 22.7964 7.64315L20.4873 12.8161L24.9406 21.8052L29.7462 17.3369L24.9181 7.64315Z" fill="#FFA000"/>
<path d="M7 38.4939L24.948 21.7978L20.4948 12.8088L7 38.4939Z" fill="#F57F17"/>
<path d="M7 38.4938L22.369 47.5503C22.8713 47.8427 24.1758 48.0001 24.1758 48.0001C24.1758 48.0001 25.6153 47.8727 26.1551 47.5728L41.6441 38.2764L36.9734 11.1294C36.7485 9.95989 35.8563 9.68249 35.0016 10.5072L7 38.4938Z" fill="#FFCA28"/>
<circle cx="37" cy="37" r="11" fill="#757575"/>
<path fill-rule="evenodd" clip-rule="evenodd" d="M34.5413 33.9037C34.0363 34.3546 33.7144 34.8969 33.5803 35.2321L33.4616 35.5288L33.1545 35.6056L33.1479 35.6074C33.1398 35.6097 33.1253 35.614 33.1053 35.6204C33.0651 35.6333 33.0036 35.6548 32.9279 35.6863C32.7748 35.7501 32.5733 35.8513 32.375 36C31.9887 36.2897 31.625 36.7455 31.625 37.5C31.625 38.3233 31.9246 38.7729 32.2192 39.0255C32.5437 39.3036 32.8995 39.375 33 39.375H35.4996L35.5 40.625H33C32.6005 40.625 31.9563 40.4464 31.4058 39.9745C30.8254 39.4771 30.375 38.6767 30.375 37.5C30.375 36.2545 31.0113 35.4603 31.625 35C31.9267 34.7737 32.2252 34.6249 32.4471 34.5325C32.4806 34.5185 32.5126 34.5057 32.5427 34.4941C32.773 34.03 33.1608 33.4605 33.7087 32.9713C34.3789 32.373 35.3129 31.875 36.5 31.875C37.9892 31.875 39.035 32.63 39.6875 33.5C40.148 34.1139 40.4343 34.8121 40.5564 35.3977C40.8838 35.429 41.2958 35.5031 41.6913 35.6789C42.0507 35.8386 42.4178 36.0909 42.693 36.4873C42.9709 36.8874 43.125 37.391 43.125 38H41.875C41.875 37.609 41.7791 37.3626 41.6663 37.2002C41.551 37.0341 41.3868 36.9114 41.1837 36.8211C40.7555 36.6308 40.2535 36.625 40 36.625H39.375V36C39.375 35.6511 39.179 34.9053 38.6875 34.25C38.215 33.62 37.5108 33.125 36.5 33.125C35.6871 33.125 35.0378 33.4604 34.5413 33.9037Z" fill="white"/>
<path d="M37 39.5V37.5L43 40L37 42.5V40.5L41 40L37 39.5Z" fill="white"/>
<path d="M14.4896 0.708354C13.8973 -0.326244 13.2301 -0.213788 13.0127 0.955758L7 38.4937L20.4873 12.8087L14.4896 0.708354Z" fill="#FFA000"/>
</g>
<defs>
<clipPath id="clip0_1031_2004">
<rect width="48" height="48" fill="white"/>
</clipPath>
</defs>
</svg>
