<svg width="48" height="48" viewBox="0 0 48 48" fill="none" xmlns="http://www.w3.org/2000/svg">
<path d="M29.7808 37.8765H31.9746L38.0092 47.9942H35.8604L29.7808 37.8765ZM29.7808 47.9942V38.5532L31.9577 42.2078L32.0592 47.9942H29.7808ZM35.742 37.8765H38.0035V47.2498L35.8266 43.5839L35.742 37.8765Z" fill="#253A7E"/>
<path d="M19.8943 47.9942V37.8765H22.1897V47.9942H19.8943ZM22.545 43.7982V41.3054L25.7427 37.8821H28.6923L24.0621 42.4672L28.9179 47.9998H26.0924L22.545 43.7982Z" fill="#253A7E"/>
<path d="M9.46069 37.8765H11.6546L17.6891 47.9942H15.5404L9.46069 37.8765ZM9.46069 47.9942V38.5532L11.6376 42.2078L11.7392 47.9942H9.46069ZM15.4219 37.8765H17.6835V47.2498L15.5065 43.5839L15.4219 37.8765Z" fill="#253A7E"/>
<path d="M24.1919 25.4524C24.1919 25.4524 24.9927 28.9039 28.1341 30.3702C31.2754 31.8366 34.1179 30.2969 34.1179 30.2969C34.1179 30.2969 33.5821 27.1105 30.4915 25.537C27.4066 23.9578 24.1919 25.4524 24.1919 25.4524Z" fill="#253A7E"/>
<path d="M14.277 22.6379C14.277 22.6379 11.7447 22.5025 10.1148 24.3749C8.48496 26.2474 8.98126 28.5033 8.98126 28.5033C8.98126 28.5033 11.2766 28.7627 12.9742 26.9523C14.6661 25.142 14.277 22.6379 14.277 22.6379Z" fill="#253A7E"/>
<path d="M24.2087 23.1513C24.2087 23.1513 29.1097 24.3582 32.9955 21.3071C36.8813 18.256 36.7572 13.654 36.7572 13.654C36.7572 13.654 32.3638 12.2835 28.3709 15.1936C24.3779 18.1037 24.2087 23.1513 24.2087 23.1513Z" fill="#253A7E"/>
<path d="M31.5798 23.9577C31.5798 23.9577 33.2774 25.8414 35.7476 25.6722C38.2235 25.503 39.4699 23.5573 39.4699 23.5573C39.4699 23.5573 38.0317 21.7469 35.5502 21.8315C33.0744 21.9104 31.5798 23.9577 31.5798 23.9577Z" fill="#253A7E"/>
<path d="M20.0578 17.9966C20.0578 17.9966 15.7377 20.6078 15.1512 25.5144C14.5646 30.421 17.9034 33.5849 17.9034 33.5849C17.9034 33.5849 21.9753 31.4418 22.7423 26.5634C23.5036 21.685 20.0578 17.9966 20.0578 17.9966Z" fill="#253A7E"/>
<path d="M18.4448 16.3609C18.4448 16.3609 15.4388 14.4829 12.1791 15.6728C8.91928 16.8572 8 19.9534 8 19.9534C8 19.9534 10.6338 21.8258 13.9274 20.7599C17.221 19.694 18.4448 16.3609 18.4448 16.3609Z" fill="#253A7E"/>
<path d="M29.1039 12.0578C29.1039 12.0578 26.4927 7.73769 21.5861 7.15116C16.6795 6.56462 13.5156 9.90336 13.5156 9.90336C13.5156 9.90336 15.6587 13.9753 20.5371 14.7423C25.4099 15.5093 29.1039 12.0578 29.1039 12.0578Z" fill="#253A7E"/>
<path d="M24.4568 6.27699C24.4568 6.27699 24.5922 3.74474 22.7198 2.11485C20.8474 0.484956 18.5915 0.981255 18.5915 0.981255C18.5915 0.981255 18.3321 3.27664 20.1424 4.97421C21.9528 6.67178 24.4568 6.27699 24.4568 6.27699Z" fill="#253A7E"/>
<path d="M30.7396 10.4448C30.7396 10.4448 32.6176 7.43885 31.4276 4.17906C30.2433 0.919282 27.147 0 27.147 0C27.147 0 25.2746 2.63377 26.3406 5.92739C27.4065 9.22101 30.7396 10.4448 30.7396 10.4448Z" fill="#253A7E"/>
</svg>
