<svg width="48" height="48" viewBox="0 0 48 48" fill="none" xmlns="http://www.w3.org/2000/svg">
	<path fill-rule="evenodd" clip-rule="evenodd" d="M18.1447 6.66702C16.7178 8.01383 15.75 10.2678 15.75 13.9372V22.37H32.25V13.9372C32.25 10.2467 31.2817 7.994 29.8562 6.65295C28.4223 5.30391 26.3916 4.75 24 4.75C21.6111 4.75 19.5797 5.31256 18.1447 6.66702ZM14.25 13.9372V22.37H10C9.58579 22.37 9.25001 22.7058 9.25001 23.12L9.25 32.6242C9.24988 34.1303 9.24966 36.9376 10.705 39.3717C12.2206 41.9066 15.1988 43.87 20.7898 43.87H27.2102C32.7996 43.87 35.7787 41.9173 37.295 39.3813C38.7504 36.9472 38.7501 34.1301 38.75 32.5877V32.5877L38.75 23.12C38.75 22.7058 38.4142 22.37 38 22.37H33.75V13.9372C33.75 9.99596 32.7119 7.28005 30.884 5.56044C29.0647 3.84881 26.5954 3.25 24 3.25C21.4019 3.25 18.9333 3.86003 17.1151 5.57618C15.2887 7.29998 14.25 10.0147 14.25 13.9372ZM10.75 32.5836V23.87H37.25V32.5453C37.25 34.116 37.2362 36.5566 36.0076 38.6115C34.8264 40.587 32.4106 42.37 27.2102 42.37H20.7898C15.591 42.37 13.1743 40.5786 11.9924 38.602C10.7635 36.5466 10.75 34.1146 10.75 32.5836ZM23 32.8925V37.04H25V32.8925C25.5978 32.5467 26 31.9003 26 31.16C26 30.0555 25.1046 29.16 24 29.16C22.8954 29.16 22 30.0555 22 31.16C22 31.9003 22.4022 32.5467 23 32.8925Z" fill="currentColor" />
</svg>
