<svg width="48" height="48" viewBox="0 0 48 48" fill="none" xmlns="http://www.w3.org/2000/svg">
<path fill-rule="evenodd" clip-rule="evenodd" d="M25.9081 17.0727C25.8471 18.1268 25.3874 19.1193 24.6208 19.8524C23.7948 20.5242 22.7452 20.8656 21.6783 20.8094C20.8724 20.8256 20.0805 20.5991 19.4074 20.1597C18.7342 19.7204 18.2114 19.0888 17.9081 18.3487C17.5271 17.5035 17.3387 16.5856 17.3564 15.6601V14.1563C17.3387 13.2308 17.5271 12.3129 17.9081 11.4678C18.2332 10.7187 18.7778 10.0836 19.4714 9.64501C20.1787 9.2223 20.9902 9.00152 21.8162 9.00704C22.892 8.94415 23.9493 9.3044 24.7587 10.0096C25.5193 10.7236 25.9653 11.7059 26.0001 12.7437H25.0346C24.8047 10.7842 23.7472 9.82728 21.8622 9.82728C21.3826 9.81128 20.9062 9.91071 20.4738 10.117C20.0414 10.3234 19.6659 10.6305 19.3794 11.0121C18.7357 11.7867 18.4599 12.8804 18.4599 14.2475V15.6601C18.4062 16.7802 18.7297 17.8863 19.3794 18.8043C19.6598 19.1812 20.0276 19.4856 20.4517 19.6918C20.8759 19.8981 21.3439 20 21.8162 19.9891C22.8277 19.9891 23.6093 19.7613 24.115 19.26C24.6687 18.6546 25.0077 17.8866 25.0806 17.0727H25.9081ZM29.0665 20.6279V16.0254H32.0228C33.0625 16.0963 34.0925 15.7885 34.9193 15.1596C35.2675 14.8443 35.5393 14.4552 35.7144 14.0212C35.8896 13.5872 35.9636 13.1196 35.9308 12.6534C35.9499 12.1831 35.8637 11.7146 35.6785 11.2813C35.4933 10.848 35.2136 10.4606 34.8596 10.1471C34.0527 9.50998 33.0394 9.18599 32.009 9.23569H28.101V20.6279H29.0665ZM32.009 15.1596H29.0665V9.96479H32.055C32.8282 9.9303 33.5852 10.1913 34.1699 10.6939C34.4181 10.9461 34.6115 11.246 34.738 11.5752C34.8645 11.9044 34.9216 12.2559 34.9055 12.6078C34.9301 12.9538 34.8769 13.3008 34.7497 13.6239C34.6225 13.947 34.4244 14.2381 34.1699 14.4761C33.5651 14.971 32.7912 15.2158 32.009 15.1596ZM43.0436 17.437H37.8022L36.6068 20.6724H35.5953L39.9769 9.23462H40.8965L45.2643 20.6724H44.239L43.0436 17.437ZM38.1379 16.6168H42.7815L40.4827 10.3738L38.1379 16.6168ZM38.3216 35.6643C38.2605 36.7184 37.8009 37.7109 37.0342 38.444C36.2083 39.1158 35.1587 39.4571 34.0917 39.4009C33.2859 39.4172 32.494 39.1907 31.8208 38.7513C31.1476 38.3119 30.6249 37.6804 30.3216 36.9402C29.9406 36.0951 29.7522 35.1771 29.7699 34.2516V32.7479C29.7522 31.8224 29.9406 30.9044 30.3216 30.0593C30.6466 29.3102 31.1913 28.6752 31.8848 28.2366C32.5922 27.8139 33.4037 27.5931 34.2296 27.5986C35.3054 27.5357 36.3628 27.896 37.1722 28.6011C37.9328 29.3151 38.3788 30.2975 38.4136 31.3352H37.3423C37.1124 29.3758 36.0549 28.4188 34.1699 28.4188C33.6903 28.4028 33.2139 28.5023 32.7815 28.7086C32.3491 28.9149 31.9736 29.222 31.6871 29.6036C31.0434 30.3783 30.7676 31.4719 30.7676 32.839V34.2516C30.714 35.3718 31.0374 36.4778 31.6871 37.3959C31.9675 37.7728 32.3353 38.0772 32.7594 38.2834C33.1836 38.4896 33.6516 38.5916 34.1239 38.5807C35.1354 38.5807 35.917 38.3528 36.4228 37.8516C36.9764 37.2462 37.3154 36.4782 37.3883 35.6643H38.3216ZM27.8389 34.1159C27.8562 35.0708 27.6681 36.0183 27.2871 36.8956C26.9621 37.6447 26.4175 38.2797 25.7239 38.7183C25.0166 39.141 24.2051 39.3618 23.3791 39.3563C22.7627 39.3799 22.149 39.2651 21.5837 39.0205C21.0184 38.7759 20.5162 38.4077 20.1147 37.9437C19.2872 36.9867 18.8734 35.7108 18.8734 34.0703V32.8855C18.8517 31.9316 19.0351 30.9841 19.4113 30.1058C19.7504 29.3532 20.291 28.7071 20.9745 28.2375C21.6843 27.8204 22.4942 27.6003 23.3193 27.6003C24.1445 27.6003 24.9544 27.8204 25.6642 28.2375C26.3556 28.6584 26.901 29.2784 27.2274 30.0147C27.6026 30.8633 27.8057 31.7769 27.8251 32.7033V34.1159H27.8389ZM26.8734 32.8855C26.9415 31.7285 26.6 30.5843 25.9078 29.6501C25.6024 29.2664 25.2103 28.9593 24.763 28.7534C24.3158 28.5476 23.826 28.4489 23.3331 28.4654C22.8411 28.4546 22.3532 28.5558 21.9069 28.7612C21.4605 28.9666 21.0676 29.2707 20.7584 29.6501C20.1147 30.4248 19.7929 31.5185 19.7929 32.9311V34.1159C19.732 35.272 20.0728 36.4139 20.7584 37.3513C21.0676 37.7307 21.4605 38.0348 21.9069 38.2402C22.3532 38.4456 22.8411 38.5468 23.3331 38.5361C23.8266 38.5573 24.3181 38.4608 24.7661 38.2546C25.2142 38.0484 25.6057 37.7386 25.9078 37.3513C26.5702 36.3876 26.8934 35.2344 26.8274 34.0703L26.8734 32.8855ZM16.2277 35.5621C16.3476 35.8234 16.4035 36.109 16.3908 36.3958H16.377C16.3851 36.7091 16.3136 37.0194 16.169 37.2981C16.0243 37.5768 15.8113 37.815 15.5495 37.9907C14.916 38.4216 14.1554 38.6301 13.3885 38.5831C12.5224 38.6279 11.6657 38.3876 10.9518 37.8996C10.6535 37.6783 10.4139 37.3885 10.2537 37.0551C10.0936 36.7217 10.0175 36.3547 10.0322 35.9857H9.0667C9.03629 36.6168 9.2138 37.2406 9.57245 37.7629C9.95135 38.3245 10.4979 38.7547 11.1357 38.9932C11.8529 39.2726 12.6179 39.4119 13.3885 39.4034C14.4036 39.4454 15.4046 39.1573 16.2391 38.5831C16.5901 38.3363 16.8744 38.0077 17.0668 37.6262C17.2593 37.2447 17.354 36.8222 17.3426 36.3958C17.3597 35.8648 17.2156 35.3409 16.9288 34.892C16.6225 34.4395 16.213 34.0648 15.7334 33.7984C14.9889 33.4191 14.2019 33.1285 13.3885 32.9326C12.5836 32.7568 11.8193 32.4321 11.1357 31.9756C10.9177 31.8105 10.7427 31.5961 10.6252 31.3504C10.5076 31.1047 10.4509 30.8348 10.4598 30.563C10.4587 30.2622 10.5289 29.9653 10.6646 29.6962C10.8004 29.4271 10.9979 29.1933 11.2414 29.0137C11.8606 28.5891 12.6046 28.3807 13.3564 28.4213C14.1423 28.3945 14.911 28.6538 15.5173 29.1504C15.7895 29.3789 16.0056 29.6659 16.149 29.9897C16.2924 30.3135 16.3594 30.6654 16.3449 31.0187H17.3104C17.3133 30.4053 17.1377 29.8041 16.8046 29.2871C16.4571 28.7511 15.9627 28.3243 15.3793 28.0567C14.739 27.7357 14.0276 27.579 13.3104 27.601C12.3096 27.5585 11.323 27.8471 10.5058 28.4213C10.1571 28.6703 9.87465 28.9997 9.68281 29.3809C9.49098 29.7621 9.39547 30.1838 9.40452 30.6097C9.41357 31.0356 9.52689 31.453 9.73475 31.8259C9.9426 32.1988 10.2388 32.516 10.5977 32.7503C11.3979 33.268 12.2856 33.6385 13.2184 33.844C14.1055 34.0343 14.9481 34.3899 15.7012 34.892C15.9275 35.0712 16.1079 35.3007 16.2277 35.5621ZM13.7703 9.23462H14.7358V20.6724H13.7703V9.23462ZM9.81577 17.437H4.57439L3.37899 20.6724H2.36749L6.73531 9.23462H7.65485L12.0227 20.6724H11.0112L9.81577 17.437ZM4.89623 16.6168H9.53991L7.24106 10.3738L4.89623 16.6168ZM2 24.1128C1.86193 24.1128 1.75 24.2247 1.75 24.3628C1.75 24.5009 1.86193 24.6128 2 24.6128H46C46.1381 24.6128 46.25 24.5009 46.25 24.3628C46.25 24.2247 46.1381 24.1128 46 24.1128H2Z" fill="#03020D"/>
</svg>
