<svg width="24" height="24" viewBox="0 0 24 24" fill="none" xmlns="http://www.w3.org/2000/svg">
<path d="M8.79981 0C7.47434 0 6.39997 1.07465 6.39997 2.39992C6.39966 2.71476 6.46148 3.02659 6.58191 3.31759C6.70234 3.60859 6.87903 3.87307 7.10187 4.09592C7.32472 4.31878 7.58936 4.49564 7.8807 4.61642C8.17203 4.7372 8.48435 4.79952 8.79981 4.79984H11.2001V2.39992C11.2006 1.76402 10.948 1.15395 10.4979 0.703892C10.0478 0.253831 9.43697 0.000637801 8.79981 0ZM8.79981 6.39978H2.39984C1.07436 6.39978 1.46517e-06 7.47443 1.46517e-06 8.8001C1.46517e-06 10.1254 1.07436 11.2 2.39984 11.2H8.80022C10.1253 11.2 11.2001 10.1254 11.2001 8.8001C11.2001 7.47443 10.1253 6.39978 8.79981 6.39978Z" fill="currentColor"/>
<path d="M24 8.8001C24 7.47443 22.9252 6.39978 21.5998 6.39978C20.2743 6.39978 19.1999 7.47443 19.1999 8.8001V11.2H21.5998C22.2369 11.1994 22.8477 10.9462 23.2978 10.4961C23.748 10.0461 24.0005 9.436 24 8.8001ZM17.6 8.8001V2.39992C17.6006 1.76402 17.348 1.15395 16.8979 0.703892C16.4477 0.253831 15.8369 0.000637801 15.1998 0C13.8743 0 12.7999 1.07465 12.7999 2.39992V8.7997C12.7999 10.1258 13.8743 11.2004 15.1998 11.2004C15.8369 11.1998 16.4477 10.9466 16.8979 10.4965C17.348 10.0465 17.6006 9.436 17.6 8.8001Z" fill="currentColor"/>
<path d="M15.1998 24C15.8369 23.9994 16.4477 23.7462 16.8979 23.2961C17.348 22.846 17.6006 22.236 17.6 21.6001C17.6006 20.9642 17.348 20.3541 16.8979 19.9041C16.4477 19.454 15.8369 19.2008 15.1998 19.2002H12.7999V21.6001C12.7999 22.9254 13.8743 24 15.1998 24ZM15.1998 17.6002H21.6002C22.9252 17.6002 24 16.5256 24 15.1999C24.0005 14.564 23.748 13.9539 23.2978 13.5039C22.8477 13.0538 22.2369 12.8006 21.5998 12.8H15.1998C13.8743 12.8 12.7999 13.8746 12.7999 15.1999C12.7996 15.5147 12.8615 15.8266 12.9819 16.1176C13.1023 16.4086 13.279 16.673 13.5018 16.8959C13.7247 17.1188 13.9893 17.2956 14.2807 17.4164C14.572 17.5372 14.8843 17.5999 15.1998 17.6002Z" fill="currentColor"/>
<path d="M1.2109e-06 15.1999C-0.000315524 15.5147 0.0615069 15.8266 0.181939 16.1176C0.302371 16.4086 0.479053 16.673 0.701899 16.8959C0.924745 17.1188 1.18939 17.2956 1.48072 17.4164C1.77206 17.5372 2.08437 17.5995 2.39984 17.5998C3.03699 17.5992 3.6478 17.346 4.09792 16.8959C4.54804 16.4459 4.80061 15.8358 4.80008 15.1999V12.8H2.39984C1.07436 12.8 1.2109e-06 13.8746 1.2109e-06 15.1999ZM6.39997 15.1999V21.5997C6.39997 22.9254 7.47434 24 8.79981 24C9.43697 23.9994 10.0478 23.7462 10.4979 23.2961C10.948 22.846 11.2006 22.236 11.2001 21.6001V15.1999C11.2004 14.885 11.1385 14.5732 11.0181 14.2821C10.8976 13.9911 10.7209 13.7266 10.498 13.5038C10.2751 13.2809 10.0104 13.104 9.71905 12.9833C9.42768 12.8625 9.11532 12.8002 8.79981 12.8C7.47434 12.8 6.39997 13.8746 6.39997 15.1999Z" fill="currentColor"/>
</svg>
