<svg width="24" height="24" viewBox="0 0 24 24" fill="none" xmlns="http://www.w3.org/2000/svg">
  <path fill-rule="evenodd" clip-rule="evenodd" d="M17 10.5C17 14.0899 14.0899 17 10.5 17C6.91015 17 4 14.0899 4 10.5C4 6.91015 6.91015 4 10.5 4C14.0899 4 17 6.91015 17 10.5ZM15.7618 17.1761C14.3145 18.3183 12.4869 19 10.5 19C5.80558 19 2 15.1944 2 10.5C2 5.80558 5.80558 2 10.5 2C15.1944 2 19 5.80558 19 10.5C19 12.4869 18.3183 14.3146 17.176 15.7619L22.7071 21.293L21.2929 22.7072L15.7618 17.1761ZM9.5 9.5V6.5H11.5V9.5H14.5V11.5H11.5V14.5H9.5V11.5H6.5V9.5H9.5Z" fill="currentColor"/>
</svg>
