<svg width="48" height="48" viewBox="0 0 48 48" fill="none" xmlns="http://www.w3.org/2000/svg">
<path fill-rule="evenodd" clip-rule="evenodd" d="M0.25 7C0.25 6.58579 0.585786 6.25 1 6.25H2.08733C4.7875 6.25 7.33642 7.49664 8.99416 9.62802L11.1899 12.4511C12.5634 14.2171 14.6754 15.25 16.9127 15.25H18C18.4142 15.25 18.75 15.5858 18.75 16C18.75 16.4142 18.4142 16.75 18 16.75H16.9127C14.2125 16.75 11.6636 15.5034 10.0058 13.372L7.81013 10.5489C6.43658 8.78293 4.32461 7.75 2.08733 7.75H1C0.585786 7.75 0.25 7.41421 0.25 7ZM22 11.25C21.0335 11.25 20.25 12.0335 20.25 13V35C20.25 35.9665 21.0335 36.75 22 36.75H26C26.9665 36.75 27.75 35.9665 27.75 35V33.5422L37.5493 30.3028C38.266 30.0658 38.75 29.396 38.75 28.6412V19.3592C38.75 18.6044 38.266 17.9346 37.5493 17.6976L27.75 14.4582V13C27.75 12.0335 26.9665 11.25 26 11.25H22ZM26.25 14.9838C26.2498 14.9949 26.2498 15.0058 26.25 15.0168V32.9836L26.2498 32.9964L26.25 33.0166V35C26.25 35.1381 26.1381 35.25 26 35.25H22C21.8619 35.25 21.75 35.1381 21.75 35V13C21.75 12.8619 21.8619 12.75 22 12.75H26C26.1381 12.75 26.25 12.8619 26.25 13V14.9838ZM27.75 31.9624V16.038L37.0785 19.1218C37.1809 19.1557 37.25 19.2514 37.25 19.3592V28.6412C37.25 28.749 37.1809 28.8447 37.0785 28.8786L27.75 31.9624ZM1 15.25C0.585786 15.25 0.25 15.5858 0.25 16C0.25 16.4142 0.585786 16.75 1 16.75H3.87548C5.13718 16.75 6.37703 17.0793 7.47249 17.7052L10.7833 19.5971C12.1054 20.3526 13.6018 20.75 15.1245 20.75H18C18.4142 20.75 18.75 20.4142 18.75 20C18.75 19.5858 18.4142 19.25 18 19.25H15.1245C13.8628 19.25 12.623 18.9207 11.5275 18.2948L8.2167 16.4029C6.8946 15.6474 5.39822 15.25 3.87548 15.25H1ZM0.25 32C0.25 32.4142 0.585786 32.75 1 32.75H3.92869C5.41452 32.75 6.87588 32.3716 8.17502 31.6506L11.7597 29.661C12.8361 29.0635 14.047 28.75 15.2781 28.75H18C18.4142 28.75 18.75 28.4142 18.75 28C18.75 27.5858 18.4142 27.25 18 27.25H15.2781C13.7922 27.25 12.3309 27.6284 11.0318 28.3494L7.44708 30.339C6.37065 30.9365 5.15981 31.25 3.92869 31.25H1C0.585786 31.25 0.25 31.5858 0.25 32ZM1 41.8154C0.585786 41.8154 0.25 41.4796 0.25 41.0654C0.25 40.6512 0.585786 40.3154 1 40.3154H2.06098C4.30479 40.3154 6.42216 39.2765 7.79518 37.5018L10.0048 34.6458C11.6619 32.5039 14.2173 31.25 16.9254 31.25H18C18.4142 31.25 18.75 31.5858 18.75 32C18.75 32.4142 18.4142 32.75 18 32.75H16.9254C14.6816 32.75 12.5642 33.7889 11.1912 35.5636L8.98157 38.4197C7.32448 40.5615 4.76903 41.8154 2.06098 41.8154H1ZM0.25 24C0.25 23.5858 0.585786 23.25 1 23.25L18 23.25C18.4142 23.25 18.75 23.5858 18.75 24C18.75 24.4142 18.4142 24.75 18 24.75L1 24.75C0.585787 24.75 0.25 24.4142 0.25 24ZM41 20.25C40.5858 20.25 40.25 20.5858 40.25 21C40.25 21.4142 40.5858 21.75 41 21.75H47C47.4142 21.75 47.75 21.4142 47.75 21C47.75 20.5858 47.4142 20.25 47 20.25H41ZM40.25 24C40.25 23.5858 40.5858 23.25 41 23.25H47C47.4142 23.25 47.75 23.5858 47.75 24C47.75 24.4142 47.4142 24.75 47 24.75H41C40.5858 24.75 40.25 24.4142 40.25 24ZM41 26.25C40.5858 26.25 40.25 26.5858 40.25 27C40.25 27.4142 40.5858 27.75 41 27.75H47C47.4142 27.75 47.75 27.4142 47.75 27C47.75 26.5858 47.4142 26.25 47 26.25H41Z" fill="#03020D"/>
</svg>
