<svg width="48" height="48" viewBox="0 0 48 48" fill="none" xmlns="http://www.w3.org/2000/svg">
<path d="M23.603 47.9925L21.6256 45.3515C20.8371 44.0505 20.3566 42.6325 20.0494 41.1627C19.8954 40.4474 20.1033 40.2254 20.8779 40.2254H27.2097C27.9843 40.2254 28.1183 40.3949 27.9797 41.1747C27.5654 43.4641 26.6306 45.5067 25.0275 47.2501C24.8134 47.4841 24.6402 47.745 24.44 48H23.603V47.9925ZM36.5745 27.6989C36.5344 32.3691 35.8799 36.0974 34.1697 39.5888C33.7023 40.5516 33.5822 40.5906 32.6336 40.0702C32.5535 40.0312 32.4596 39.9922 32.3933 39.9404C31.0712 38.8996 29.5482 38.8216 27.9319 38.8606C24.8196 38.9259 21.6934 38.8996 18.581 38.8606C17.8064 38.8479 17.138 39.0106 16.5235 39.4455C16.2032 39.6667 15.8559 39.8227 15.5225 40.0177C14.4268 40.6551 14.4006 40.6551 13.8516 39.51C13.0046 37.7276 12.4225 35.8679 12.0082 33.9295C11.2867 30.5604 11.3406 27.1912 11.808 23.8213C12.1022 21.6617 12.6897 19.5471 13.3973 17.485C14.6262 13.8946 16.3495 10.5382 18.3931 7.31231C19.9424 4.87975 21.6256 2.56417 23.4959 0.353563C23.9633 -0.193839 24.2305 -0.0498646 24.6047 0.406053C27.0095 3.28104 29.1601 6.32474 31.0166 9.56416C33.0602 13.141 34.7034 16.8881 35.6251 20.8871C36.1995 23.3977 36.6669 25.9217 36.5737 27.6906L36.5745 27.6989ZM24.0573 35.7974H31.4185C31.8805 35.7974 32.1531 35.7075 32.3133 35.199C32.9809 33.1444 33.2758 31.0223 33.3551 28.8777C33.5422 24.5195 32.7275 20.318 31.1113 16.259C29.482 12.1489 27.2505 8.36812 24.4992 4.87525C24.125 4.40658 23.8317 4.49807 23.5244 4.888C22.8299 5.79833 22.0814 6.68317 21.4454 7.646C18.9814 11.4178 16.9301 15.3996 15.7412 19.7563C15.0328 22.3449 14.5654 25.0054 14.5523 27.6659C14.5392 30.163 14.9666 32.615 15.6742 35.0296C15.8344 35.589 16.1016 35.7794 16.6752 35.7794L24.0488 35.7922L24.0573 35.7974ZM9.10377 40.3694H6.62435C6.22395 40.3694 5.94289 40.2524 6.00988 39.7845L6.48575 37.013C6.64591 35.9332 7.54066 35.3858 8.20902 34.6711C8.60942 34.2422 9.07759 33.8913 9.53112 33.5014C9.66433 33.3844 9.8114 33.2411 10.0124 33.3191C10.2264 33.3971 10.2395 33.5793 10.2526 33.7691C10.4066 35.8897 11.0272 37.8798 12.0829 39.7402C12.3632 40.2216 12.1499 40.3904 11.6556 40.3904L9.10377 40.3694ZM38.8722 40.3694H36.4674C35.8399 40.3566 35.7329 40.1609 36.027 39.6195C36.8686 38.0845 37.4962 36.4716 37.6563 34.7154C37.6858 34.4924 37.7443 34.2739 37.8303 34.0653C37.9381 33.805 37.7503 33.3889 38.0844 33.2854C38.4186 33.1954 38.6188 33.5583 38.8545 33.7541L40.5508 35.3153C41.2184 35.8357 41.4994 36.5248 41.5795 37.2664C41.6719 38.086 41.926 38.8666 41.9938 39.6862C42.0338 40.1677 41.886 40.3499 41.4062 40.3499L38.8806 40.3626L38.8722 40.3694ZM25.6473 31.9401C25.6342 31.6282 25.7274 31.29 25.7674 30.9256C25.8598 30.3144 25.3532 29.8008 24.7926 29.9762C23.3758 30.4449 22.1346 29.989 20.9056 29.4168C20.2511 29.1049 20.2511 29.0914 20.1356 29.833C20.0278 30.6399 19.6413 31.3027 18.8266 31.5765C17.9981 31.8494 17.1973 31.7264 16.5828 31.0043C16.0885 30.4322 15.9822 29.6515 16.3426 28.9497C16.7029 28.2598 17.6116 27.7274 18.293 27.8046C19.1346 27.9096 19.2417 27.6996 19.0399 26.8808C18.7727 25.762 18.7319 24.6312 19.294 23.5514C19.6813 22.8015 19.5343 22.3666 18.7596 21.9767C18.5725 21.8867 18.3854 21.8207 18.1975 21.7427C17.4629 21.4428 16.9963 20.6367 17.1688 19.9603C17.3428 19.2449 18.1575 18.6203 18.8782 18.6465C19.679 18.6728 20.3612 19.2839 20.4544 20.0518C20.4675 20.2077 20.4544 20.3637 20.4814 20.5204C20.5892 21.1968 21.149 21.4698 21.7904 21.2358C22.9793 20.8069 24.1681 20.6637 25.3971 21.1578C26.0647 21.4308 26.4119 21.1706 26.3719 20.4814C26.2918 19.0762 27.2405 17.9184 28.6026 17.7369C29.8192 17.581 31.0605 18.4868 31.3808 19.7616C31.7411 21.1923 29.9178 22.845 28.3885 22.4806C28.1483 22.4281 27.9212 22.2594 27.7071 22.5331C27.493 22.8068 27.6532 23.0407 27.7872 23.2829C28.6157 24.7272 28.6557 26.2097 27.8411 27.6277C27.3329 28.499 27.7079 29.0329 28.6881 29.0194C29.5145 28.9864 30.3191 29.2825 30.9165 29.8397C31.5139 30.3968 31.8525 31.1669 31.8543 31.9724C31.8813 33.7158 30.4653 35.1466 28.7281 35.1339C27.0187 35.1211 25.6288 33.7286 25.6288 31.9596L25.6473 31.9401ZM27.1704 25.4163C27.1704 23.5941 25.5811 21.9819 23.7639 22.0082C21.6803 22.0344 20.2373 23.4914 20.1834 25.3826C20.1433 27.1777 21.8389 28.8042 23.683 28.8042C25.6065 28.7915 27.1481 27.282 27.1696 25.4088L27.1704 25.4163ZM22.4734 25.6623C22.4464 25.9487 22.153 26.1872 21.6726 26.1572C21.2106 26.1309 20.9642 25.8572 20.9911 25.4028C21.0311 24.9214 21.3653 24.6874 21.8196 24.7002C22.3009 24.7264 22.5142 25.0121 22.4741 25.663L22.4734 25.6623ZM23.603 26.1902C23.1887 26.1377 22.8561 25.9172 22.8283 25.5003C22.8014 25.0451 23.1363 24.7729 23.5983 24.7324C24.0603 24.6919 24.3683 24.9536 24.373 25.3961C24.3776 25.8385 24.0788 26.0987 23.603 26.1894V26.1902ZM25.4471 26.1902C25.0245 26.1915 24.6736 25.8727 24.6455 25.4621C24.6055 24.9806 24.9797 24.7467 25.434 24.7122C25.8614 24.6994 26.1424 24.9461 26.1555 25.3623C26.1825 25.831 25.8614 26.0777 25.4471 26.1819V26.1902Z" fill="#D77310"/>
</svg>
