<svg width="48" height="48" viewBox="0 0 48 48" fill="none" xmlns="http://www.w3.org/2000/svg">
<path d="M48 0H0V48H48V0Z" fill="#D86613"/>
<path d="M38.7136 25.92H35.5136V24.64H38.7136V9.28H23.3536V12.48H22.0736V9.28C22.0736 8.94052 22.2085 8.61495 22.4485 8.3749C22.6886 8.13486 23.0141 8 23.3536 8H38.7136C39.0531 8 39.3787 8.13486 39.6187 8.3749C39.8587 8.61495 39.9936 8.94052 39.9936 9.28V24.64C39.9936 24.9795 39.8587 25.3051 39.6187 25.5451C39.3787 25.7851 39.0531 25.92 38.7136 25.92Z" fill="white"/>
<path d="M24.6337 40.0001H9.27365C8.93418 40.0001 8.6086 39.8652 8.36856 39.6252C8.12851 39.3851 7.99365 39.0596 7.99365 38.7201V23.3601C7.99365 23.0206 8.12851 22.695 8.36856 22.455C8.6086 22.2149 8.93418 22.0801 9.27365 22.0801H12.4737V23.3601H9.27365V38.7201H24.6337V35.5201H25.9137V38.7201C25.9137 39.0596 25.7788 39.3851 25.5387 39.6252C25.2987 39.8652 24.9731 40.0001 24.6337 40.0001Z" fill="white"/>
<path d="M34.24 18.2401V16.9601H32.32C32.2937 16.6294 32.1503 16.3189 31.9158 16.0844C31.6812 15.8498 31.3707 15.7065 31.04 15.6801V13.7601H29.76V15.6801H27.84V13.7601H26.56V15.6801H24.64V13.7601H23.36V15.6801H21.44V13.7601H20.16V15.6801H18.24V13.7601H16.96V15.6801C16.6293 15.7065 16.3188 15.8498 16.0842 16.0844C15.8497 16.3189 15.7064 16.6294 15.68 16.9601H13.76V18.2401H15.68V20.1601H13.76V21.4401H15.68V23.3601H13.76V24.6401H15.68V26.5601H13.76V27.8401H15.68V29.7601H13.76V31.0401H15.68C15.7064 31.3708 15.8497 31.6813 16.0842 31.9159C16.3188 32.1505 16.6293 32.2938 16.96 32.3201V34.2401H18.24V32.3201H20.16V34.2401H21.44V32.3201H23.36V34.2401H24.64V32.3201H26.56V34.2401H27.84V32.3201H29.76V34.2401H31.04V32.3201C31.3707 32.2938 31.6812 32.1505 31.9158 31.9159C32.1503 31.6813 32.2937 31.3708 32.32 31.0401H34.24V29.7601H32.32V27.8401H34.24V26.5601H32.32V24.6401H34.24V23.3601H32.32V21.4401H34.24V20.1601H32.32V18.2401H34.24ZM31.04 30.9249C31.04 30.9555 31.0279 30.9848 31.0063 31.0064C30.9847 31.028 30.9554 31.0401 30.9248 31.0401H17.0752C17.0447 31.0401 17.0154 31.028 16.9938 31.0064C16.9721 30.9848 16.96 30.9555 16.96 30.9249V17.0753C16.96 17.0448 16.9721 17.0155 16.9938 16.9939C17.0154 16.9723 17.0447 16.9601 17.0752 16.9601H30.9248C30.9554 16.9601 30.9847 16.9723 31.0063 16.9939C31.0279 17.0155 31.04 17.0448 31.04 17.0753V30.9249Z" fill="white"/>
</svg>
