<svg xmlns="http://www.w3.org/2000/svg" width="48" height="49" fill="none"><g clip-path="url(#a)"><path fill="url(#b)" d="M37.174 32.082 9.779 48.349l35.471-2.407 2.732-35.767-10.808 21.907Z"/><path fill="url(#c)" d="M45.308 45.917 42.26 24.875l-8.305 10.966 11.353 10.076Z"/><path fill="url(#d)" d="m45.35 45.917-22.336-1.753-13.117 4.139 35.452-2.386Z"/><path fill="url(#e)" d="m9.93 48.308 5.58-18.28-12.28 2.626 6.7 15.653Z"/><path fill="url(#f)" d="m0 38.785 3.422-6.24-2.768-7.436L0 38.785Z"/><path fill="url(#g)" d="m33.953 35.901-5.134-20.11-14.693 13.773L33.953 35.9Z"/><path fill="url(#h)" d="M46.817 16.074 32.928 4.73l-3.867 12.504 17.756-1.16Z"/><path fill="url(#i)" d="m40.322.686-8.168 4.515L27 .626l13.322.06Z"/><path fill="#fff" d="m.47 24.875 2.785 7.9 12.101-2.715 13.816-12.84 3.9-12.385L26.931.5 16.494 4.406c-3.288 3.059-9.67 9.11-9.9 9.225-.227.116-4.214 7.65-6.124 11.244Z"/><path fill="url(#j)" d="M10.25 10.683C17.376 3.617 26.564-.559 30.09 3c3.525 3.558-.212 12.203-7.34 19.268C15.623 29.33 6.55 33.736 3.025 30.178c-3.526-3.555.097-12.43 7.224-19.495Z"/><path fill="url(#k)" d="m9.93 48.3 5.536-18.337 18.386 5.907C27.204 42.102 19.81 47.373 9.93 48.3Z"/><path fill="#9E1209" d="M0 38.704c.262 9.408 7.05 9.548 9.941 9.631L3.262 32.736 0 38.704Z"/><path fill="url(#l)" d="M3.233 32.755 2.185 45.241c1.978 2.703 4.7 2.938 7.555 2.728-2.065-5.142-6.192-15.422-6.507-15.214Z"/><path fill="url(#m)" d="m29.196 17.183 4.72 18.696C39.47 30.04 44.453 23.763 46.894 16l-17.697 1.184Z"/><path fill="url(#n)" d="m15.458 29.963 7.4 14.279c4.377-2.374 7.804-5.265 10.942-8.363l-18.342-5.916Z"/><path fill="url(#o)" d="M46.846 16.094c1.89-5.701 2.325-13.88-6.582-15.398l-7.309 4.037 13.892 11.36Z"/><path fill="url(#p)" d="M29.223 17.213c4.267 2.622 12.867 7.89 13.041 7.987.271.152 3.708-5.796 4.488-9.157l-17.53 1.17Z"/><path fill="url(#q)" d="m32.911 4.765 14.703 2.063c-.785-3.325-3.195-5.47-7.302-6.141l-7.4 4.078Z"/></g><defs><linearGradient id="b" x1="51.112" x2="41.001" y1="47.678" y2="29.774" gradientUnits="userSpaceOnUse"><stop stop-color="#FB7655"/><stop stop-color="#FB7655"/><stop offset=".41" stop-color="#E42B1E"/><stop offset=".99" stop-color="#900"/><stop offset="1" stop-color="#900"/></linearGradient><linearGradient id="c" x1="67.988" x2="22.822" y1="-3.843" y2="-6.411" gradientUnits="userSpaceOnUse"><stop stop-color="#871101"/><stop stop-color="#871101"/><stop offset=".99" stop-color="#911209"/><stop offset="1" stop-color="#911209"/></linearGradient><linearGradient id="d" x1="2787.28" x2="2787.1" y1="559.652" y2="-82.588" gradientUnits="userSpaceOnUse"><stop stop-color="#871101"/><stop stop-color="#871101"/><stop offset=".99" stop-color="#911209"/><stop offset="1" stop-color="#911209"/></linearGradient><linearGradient id="e" x1="4.959" x2="12.911" y1="34.687" y2="45.208" gradientUnits="userSpaceOnUse"><stop stop-color="#fff"/><stop stop-color="#fff"/><stop offset=".23" stop-color="#E57252"/><stop offset=".46" stop-color="#DE3B20"/><stop offset=".99" stop-color="#A60003"/><stop offset="1" stop-color="#A60003"/></linearGradient><linearGradient id="f" x1="-11.51" x2="1.418" y1="53.252" y2="53.759" gradientUnits="userSpaceOnUse"><stop stop-color="#fff"/><stop stop-color="#fff"/><stop offset=".31" stop-color="#DE4024"/><stop offset=".99" stop-color="#BF190B"/><stop offset="1" stop-color="#BF190B"/></linearGradient><linearGradient id="g" x1="16.647" x2="17.435" y1="19.467" y2="32.88" gradientUnits="userSpaceOnUse"><stop stop-color="#fff"/><stop stop-color="#fff"/><stop offset=".23" stop-color="#E4714E"/><stop offset=".56" stop-color="#BE1A0D"/><stop offset=".99" stop-color="#A80D00"/><stop offset="1" stop-color="#A80D00"/></linearGradient><linearGradient id="h" x1="21.858" x2="22.968" y1="3.092" y2="22.543" gradientUnits="userSpaceOnUse"><stop stop-color="#fff"/><stop stop-color="#fff"/><stop offset=".18" stop-color="#E46342"/><stop offset=".4" stop-color="#C82410"/><stop offset=".99" stop-color="#A80D00"/><stop offset="1" stop-color="#A80D00"/></linearGradient><linearGradient id="i" x1="88.161" x2="89.301" y1="7.802" y2="-33.194" gradientUnits="userSpaceOnUse"><stop stop-color="#fff"/><stop stop-color="#fff"/><stop offset=".54" stop-color="#C81F11"/><stop offset=".99" stop-color="#BF0905"/><stop offset="1" stop-color="#BF0905"/></linearGradient><linearGradient id="j" x1="14.71" x2="51.846" y1="56.693" y2="18.288" gradientUnits="userSpaceOnUse"><stop stop-color="#BD0012"/><stop stop-color="#BD0012"/><stop offset=".07" stop-color="#fff"/><stop offset=".17" stop-color="#fff"/><stop offset=".27" stop-color="#C82F1C"/><stop offset=".33" stop-color="#820C01"/><stop offset=".46" stop-color="#A31601"/><stop offset=".72" stop-color="#B31301"/><stop offset=".99" stop-color="#E82609"/><stop offset="1" stop-color="#E82609"/></linearGradient><linearGradient id="k" x1="27.063" x2="17.423" y1="39.583" y2="32.693" gradientUnits="userSpaceOnUse"><stop stop-color="#8C0C01"/><stop stop-color="#8C0C01"/><stop offset=".54" stop-color="#990C00"/><stop offset=".99" stop-color="#A80D0E"/><stop offset="1" stop-color="#A80D0E"/></linearGradient><linearGradient id="l" x1="11.381" x2="-7.149" y1="31.599" y2="27.836" gradientUnits="userSpaceOnUse"><stop stop-color="#8B2114"/><stop stop-color="#8B2114"/><stop offset=".43" stop-color="#9E100A"/><stop offset=".99" stop-color="#B3100C"/><stop offset="1" stop-color="#B3100C"/></linearGradient><linearGradient id="m" x1="48.563" x2="35.214" y1="21.422" y2="13.908" gradientUnits="userSpaceOnUse"><stop stop-color="#7E110B"/><stop stop-color="#7E110B"/><stop offset=".99" stop-color="#9E0C00"/><stop offset="1" stop-color="#9E0C00"/></linearGradient><linearGradient id="o" x1="49.815" x2="44.461" y1="9.431" y2="4.27" gradientUnits="userSpaceOnUse"><stop stop-color="#79130D"/><stop stop-color="#79130D"/><stop offset=".99" stop-color="#9E120B"/><stop offset="1" stop-color="#9E120B"/></linearGradient><linearGradient id="q" x1="10.024" x2="11.639" y1=".58" y2="24.005" gradientUnits="userSpaceOnUse"><stop stop-color="#B31000"/><stop stop-color="#B31000"/><stop offset=".44" stop-color="#910F08"/><stop offset=".99" stop-color="#791C12"/><stop offset="1" stop-color="#791C12"/></linearGradient><radialGradient id="n" cx="0" cy="0" r="1" gradientTransform="matrix(16.212 0 0 12.6203 17.943 35.797)" gradientUnits="userSpaceOnUse"><stop stop-color="#A30C00"/><stop stop-color="#A30C00"/><stop offset=".99" stop-color="#800E08"/><stop offset="1" stop-color="#800E08"/></radialGradient><radialGradient id="p" cx="0" cy="0" r="1" gradientTransform="matrix(12.1954 0 0 6.37254 34.832 19.726)" gradientUnits="userSpaceOnUse"><stop stop-color="#A80D00"/><stop stop-color="#A80D00"/><stop offset=".99" stop-color="#7E0E08"/><stop offset="1" stop-color="#7E0E08"/></radialGradient><clipPath id="a"><path fill="#fff" d="M0 .5h48v48H0z"/></clipPath></defs></svg>