<svg width="31" height="30" viewBox="0 0 31 30" fill="none" xmlns="http://www.w3.org/2000/svg">
    <path d="M19 5.3335L3.92308 5.3335C1.97436 5.33331 1 6.33331 1 8.33331V26.3335C1 28.3335 1.97436 29.3335 3.92308 29.3335H23.4103C25.359 29.3335 26.3333 28.3335 26.3333 26.3335V11.6668" stroke="#03020D" stroke-linecap="round"/>
    <path fill-rule="evenodd" clip-rule="evenodd" d="M19 6.66683C19 3.72131 21.3878 1.3335 24.3333 1.3335C27.2789 1.3335 29.6667 3.72131 29.6667 6.66683C29.6667 9.61235 27.2789 12.0002 24.3333 12.0002C21.3878 12.0002 19 9.61235 19 6.66683Z" stroke="#03020D"/>
    <path d="M25 4.3335V9.00016H24.0525V5.27002H24.0263L23 5.93994V5.06494L24.1094 4.3335H25Z" fill="#03020D"/>
    <path d="M18.1684 12.6665H8.5032C8.10446 12.6665 7.722 12.8212 7.44005 13.0963C7.15809 13.3714 6.99984 13.7443 6.99984 14.1333V20.3203C6.99984 20.7094 7.15809 21.0828 7.44005 21.3579C7.722 21.633 8.10446 21.7877 8.5032 21.7877H17.4649L19.0331 23.2335C19.0865 23.2826 19.1535 23.3153 19.2258 23.3276C19.2981 23.34 19.3723 23.3315 19.4397 23.3031C19.5071 23.2747 19.5646 23.2279 19.6049 23.168C19.6452 23.1081 19.6666 23.0381 19.6665 22.9664V14.1333C19.6665 13.7452 19.5089 13.3727 19.2281 13.0978C18.9473 12.8228 18.5662 12.6679 18.1684 12.6665Z" stroke="#03020D"/>
</svg>
