<svg width="48" height="48" viewBox="0 0 48 48" fill="none" xmlns="http://www.w3.org/2000/svg">
<g clip-path="url(#clip0_1031_1909)">
<path d="M39.8092 13.2501C41.0406 4.7703 36.2011 0.25 25.9999 0.25C21.8859 0.25 17.8663 2.76226 12.9391 7.68938L5.69434 16.0413L15.0605 9.81071C19.4667 5.40445 22.9138 3.25002 25.9999 3.25002C35.0852 3.25002 38.3085 6.74196 36.5383 14.4128L36.1143 16.2501H40.3727C43.61 16.8179 45 18.2381 45 20.7501C45 23.2621 43.61 24.6823 40.3727 25.2501H30.9999L27.6385 28.2297L40.4999 28.2501L40.7465 28.2297C45.424 27.4502 48 24.8742 48 20.7501C48 16.626 45.424 14.0501 40.7465 13.2705L40.4999 13.2501H39.8092Z" fill="#184E90"/>
<path d="M31.8987 28.25H27.5799L19.0687 35.25H31.8987L16.8999 47.7501H21.5728L40.3485 32.25H27.1785L31.8987 28.25Z" fill="#EB9A35"/>
<path d="M8.27621 24.4398L17.875 16.7684H13.063L0 27.4194L18.0001 27.4398L18.2467 27.4194C26.8848 25.9797 31.5002 22.9028 31.5002 17.9397C31.5002 11.4755 27.5154 8.44043 20.0475 8.44043C17.4768 8.44043 12.0688 8.87679 10.1417 10.9636C9.21611 11.9658 5.69461 16.0415 5.69461 16.0415C10.1139 12.8848 16.3179 11.3241 19.9528 11.4389C25.9783 11.6293 28.5001 13.3964 28.5001 17.9397C28.5001 20.9599 25.1527 23.2083 17.875 24.4398H8.27621Z" fill="#2D8FC2"/>
<path fill-rule="evenodd" clip-rule="evenodd" d="M31.0003 25.25L27.5802 28.25H31.8991L35.249 25.25H31.0003Z" fill="#787372"/>
<path d="M16.1926 8.71191C13.8123 9.02336 11.3452 9.65991 10.1414 10.9635C9.21584 11.9657 5.69434 16.0414 5.69434 16.0414C8.29823 14.2501 10.3698 13.3442 13.2769 12.4587C14.3449 10.6915 15.2728 9.68289 16.1926 8.71191Z" fill="#186EAB"/>
</g>
<defs>
<clipPath id="clip0_1031_1909">
<rect width="48" height="48" fill="white"/>
</clipPath>
</defs>
</svg>
