<svg width="48" height="48" viewBox="0 0 48 48" fill="none" xmlns="http://www.w3.org/2000/svg">
<g clip-path="url(#clip0_1031_2040)">
<path fill-rule="evenodd" clip-rule="evenodd" d="M47.6158 32.0746C46.8673 32.8789 45.8891 32.1895 45.8891 32.1895L24.0191 8.64415L47.7885 30.4667C47.7885 30.4667 48.3643 31.2711 47.6158 32.0746ZM45.1704 24.4452L35.2583 13.7411L46.11 23.6373C46.11 23.6373 46.3949 24.0143 46.0241 24.3912C45.6542 24.7673 45.1704 24.4452 45.1704 24.4452ZM46.791 38.6462C45.72 39.7979 44.3202 38.8116 44.3202 38.8116L13.0158 5.10979L47.0382 36.3454C47.0382 36.3454 47.8621 37.4962 46.791 38.6462ZM43.5787 44.3186C42.5077 45.4694 41.1071 44.4831 41.1071 44.4831L0 1L43.8259 42.0169C43.8259 42.0169 44.6489 43.1678 43.5787 44.3186ZM37.6476 47.4421C36.5765 48.5929 35.1759 47.6066 35.1759 47.6066L3.8723 13.9048L37.8947 45.1404C37.8947 45.1404 38.7178 46.2912 37.6476 47.4421ZM30.4814 47.5283C29.7329 48.3318 28.7548 47.6432 28.7548 47.6432L6.88477 24.0979L30.6541 45.9204C30.6541 45.9204 31.2291 46.7248 30.4814 47.5283ZM23.1234 45.5983C22.7535 45.9752 22.2697 45.6523 22.2697 45.6523L12.3575 34.9482L23.2093 44.8444C23.2093 44.8444 23.4932 45.2213 23.1234 45.5983Z" fill="#FF6A3E"/>
</g>
<defs>
<clipPath id="clip0_1031_2040">
<rect width="48" height="48" fill="white" transform="translate(0 48) rotate(-90)"/>
</clipPath>
</defs>
</svg>
