<svg width="48" height="48" viewBox="0 0 48 48" fill="none" xmlns="http://www.w3.org/2000/svg">
<g clip-path="url(#clip0_2566_140)">
<path d="M23.8529 47.8494C37.0273 47.8494 47.7065 37.1385 47.7065 23.9247C47.7065 10.7109 37.0273 0 23.8529 0C10.6792 0 0 10.7109 0 23.9247C0 37.1385 10.6792 47.8494 23.8529 47.8494Z" fill="#F4FFA0"/>
<path d="M29.0392 33.3249C27.9722 33.3249 26.8401 33.1799 25.6591 32.8861C21.9689 31.9704 18.2883 29.8127 15.0742 26.5892L17.2177 24.4396C21.0029 28.2367 25.4938 30.2795 29.0318 30.2817C30.6824 30.2817 32.0975 29.8105 33.0891 28.8167C34.5466 27.3547 34.9459 25.5475 34.3118 23.2883C33.6237 20.8428 31.7172 18.0028 28.7942 15.0707L30.9391 12.9189C34.2746 16.2655 36.3909 19.4758 37.2312 22.4609C38.1658 25.7787 37.4733 28.7203 35.2347 30.9663C33.6822 32.5254 31.5446 33.3249 29.0392 33.3249Z" fill="black"/>
<path d="M15.0887 26.606C13.085 24.5956 11.4629 22.3798 10.5474 20.3951C9.10377 17.2599 9.78973 15.6087 10.6227 14.7754C11.4534 13.9421 13.0996 13.2516 16.2259 14.7018C18.2034 15.6183 20.3951 17.2297 22.3996 19.2409L20.2568 21.3926C18.6253 19.7562 16.8578 18.4171 15.2745 17.6191C13.7526 16.8521 12.965 16.8742 12.7734 16.9345C12.7135 17.1259 12.6908 17.9165 13.4557 19.444C14.2507 21.0312 15.6028 22.8215 17.2344 24.4565L15.0887 26.606Z" fill="black"/>
<path d="M20.5852 36.883C19.7366 36.8771 18.8915 36.7728 18.0666 36.5723C15.2409 35.9024 12.3434 34.1894 9.91406 31.7521L12.059 29.6003C14.0964 31.6446 16.4782 33.0705 18.7635 33.6123C21.4979 34.2608 22.8705 33.3885 23.4475 32.8106C24.0231 32.2335 24.8933 30.8547 24.2468 28.1126C23.7064 25.8195 22.2943 23.4366 20.2569 21.3915L22.3937 19.2346C24.826 21.6742 26.5307 24.5783 27.1976 27.4132C27.9268 30.5087 27.3578 33.1905 25.591 34.9609C24.3266 36.2286 22.5978 36.883 20.5852 36.883ZM30.3291 22.2889H27.2978V11.6509H37.9032V14.6919H30.3291V22.2889Z" fill="black"/>
</g>
<defs>
<clipPath id="clip0_2566_140">
<rect width="48" height="48" fill="white"/>
</clipPath>
</defs>
</svg>
