<svg width="48" height="49" viewBox="0 0 48 49" fill="none" xmlns="http://www.w3.org/2000/svg">
<g clip-path="url(#clip0_3698_16314)">
<path d="M32.3062 27.086C30.437 27.086 28.7612 27.9141 27.6137 29.2179L24.6732 27.1362C24.9853 26.2768 25.1645 25.354 25.1645 24.3881C25.1645 23.4389 24.9915 22.5316 24.6897 21.6849L27.6236 19.6252C28.7711 20.9225 30.4424 21.7461 32.3062 21.7461C35.7562 21.7461 38.5635 18.9393 38.5635 15.4888C38.5635 12.0382 35.7562 9.23143 32.3062 9.23143C28.8562 9.23143 26.0489 12.0382 26.0489 15.4888C26.0489 16.1064 26.1422 16.7019 26.3097 17.2659L23.3737 19.3266C22.1473 17.8051 20.3815 16.7428 18.3696 16.4185V12.8801C21.204 12.2848 23.3396 9.76646 23.3396 6.75732C23.3396 3.30681 20.5323 0.5 17.0823 0.5C13.6322 0.5 10.825 3.30681 10.825 6.75732C10.825 9.72616 12.9053 12.2134 15.683 12.8512V16.4356C11.8921 17.101 9 20.4094 9 24.3881C9 28.3862 11.9208 31.7067 15.739 32.3495V36.1343C12.9329 36.7511 10.825 39.2536 10.825 42.2427C10.825 45.6932 13.6322 48.5 17.0823 48.5C20.5323 48.5 23.3396 45.6932 23.3396 42.2427C23.3396 39.2536 21.2317 36.7511 18.4256 36.1343V32.3494C20.3979 32.0172 22.1313 30.9759 23.3451 29.4882L26.3053 31.5834C26.1409 32.1423 26.0489 32.732 26.0489 33.3433C26.0489 36.7938 28.8562 39.6007 32.3062 39.6007C35.7562 39.6007 38.5635 36.7938 38.5635 33.3433C38.5635 29.8928 35.7562 27.086 32.3062 27.086ZM32.3062 12.4549C33.9792 12.4549 35.3399 13.8162 35.3399 15.4888C35.3399 17.1613 33.9792 18.5225 32.3062 18.5225C30.6332 18.5225 29.2725 17.1613 29.2725 15.4888C29.2725 13.8162 30.6332 12.4549 32.3062 12.4549ZM14.0484 6.75732C14.0484 5.08479 15.4093 3.72359 17.0823 3.72359C18.7553 3.72359 20.116 5.08479 20.116 6.75732C20.116 8.42986 18.7553 9.79106 17.0823 9.79106C15.4093 9.79106 14.0484 8.42986 14.0484 6.75732ZM20.116 42.2427C20.116 43.9152 18.7553 45.2764 17.0823 45.2764C15.4093 45.2764 14.0484 43.9152 14.0484 42.2427C14.0484 40.5701 15.4093 39.2089 17.0823 39.2089C18.7553 39.2089 20.116 40.5701 20.116 42.2427ZM17.082 28.6192C14.7487 28.6192 12.8505 26.7213 12.8505 24.3881C12.8505 22.0548 14.7487 20.1566 17.082 20.1566C19.4152 20.1566 21.3134 22.0548 21.3134 24.3881C21.3134 26.7213 19.4152 28.6192 17.082 28.6192ZM32.3062 36.3772C30.6332 36.3772 29.2725 35.0159 29.2725 33.3433C29.2725 31.6708 30.6332 30.3096 32.3062 30.3096C33.9792 30.3096 35.3399 31.6708 35.3399 33.3433C35.3399 35.0159 33.9792 36.3772 32.3062 36.3772Z" fill="#03020D"/>
</g>
<defs>
<clipPath id="clip0_3698_16314">
<rect width="48" height="48" fill="white" transform="translate(0 0.5)"/>
</clipPath>
</defs>
</svg>
