<svg width="48" height="49" viewBox="0 0 48 49" fill="none" xmlns="http://www.w3.org/2000/svg">
<g clip-path="url(#clip0_3698_15477)">
<path d="M46 0.5H2C0.895431 0.5 0 1.39543 0 2.5V46.5C0 47.6046 0.895432 48.5 2 48.5H46C47.1046 48.5 48 47.6046 48 46.5V2.5C48 1.39543 47.1046 0.5 46 0.5Z" fill="#F7DF1E"/>
<path d="M32.244 38.0003C33.2109 39.579 34.4688 40.7394 36.6935 40.7394C38.5625 40.7394 39.7564 39.8053 39.7564 38.5146C39.7564 36.9679 38.5297 36.4201 36.4726 35.5203L35.345 35.0365C32.0901 33.6498 29.9278 31.9127 29.9278 28.2403C29.9278 24.8575 32.5053 22.2822 36.5335 22.2822C39.4013 22.2822 41.4631 23.2803 42.9488 25.8937L39.4364 28.1489C38.6631 26.7622 37.8288 26.2159 36.5335 26.2159C35.2124 26.2159 34.3751 27.054 34.3751 28.1489C34.3751 29.502 35.2132 30.0498 37.1484 30.8879L38.276 31.371C42.1084 33.0144 44.2722 34.6898 44.2722 38.4567C44.2722 42.5177 41.0821 44.7424 36.7979 44.7424C32.609 44.7424 29.9027 42.7462 28.5785 40.1298L32.244 38.0003ZM16.3103 38.3912C17.0189 39.6483 17.6634 40.7112 19.2131 40.7112C20.6951 40.7112 21.6299 40.1314 21.6299 37.8769V22.5397H26.1404V37.9378C26.1404 42.6083 23.4021 44.734 19.4051 44.734C15.7937 44.734 13.7023 42.8651 12.6387 40.614L16.3103 38.3912Z" fill="black"/>
</g>
<defs>
<clipPath id="clip0_3698_15477">
<rect width="48" height="48" fill="white" transform="translate(0 0.5)"/>
</clipPath>
</defs>
</svg>
