<svg width="48" height="49" viewBox="0 0 48 49" fill="none" xmlns="http://www.w3.org/2000/svg">
<g clip-path="url(#clip0_3698_15854)">
<path d="M45.6794 14.6008C45.6794 13.7987 45.5085 13.0756 45.1535 12.4707C44.8116 11.8659 44.2988 11.3663 43.6152 10.9719C37.9351 7.6979 32.2419 4.424 26.5618 1.15005C25.0234 0.269103 23.5508 0.295411 22.0256 1.18948C19.7641 2.5175 8.43024 9.01273 5.0643 10.9719C3.67054 11.7739 3 13.0098 3 14.6139V34.389C3 35.1779 3.17092 35.8747 3.49962 36.4796C3.84151 37.0976 4.36745 37.6235 5.0643 38.0311C8.44342 39.9902 19.7641 46.4723 22.0256 47.8134C23.5508 48.7073 25.0365 48.7468 26.5618 47.8529C32.2419 44.5658 37.9351 41.305 43.6152 38.0311C44.3251 37.6235 44.8379 37.1107 45.1798 36.4796C45.5085 35.8747 45.6794 35.1779 45.6794 34.389V14.6008Z" fill="#9A4993"/>
<path d="M24.3926 24.4224L3.47363 36.4662C3.81552 37.0842 4.34146 37.6101 5.0383 38.0177C8.41743 39.9768 19.7381 46.4589 21.9996 47.8001C23.5248 48.6942 25.0106 48.7336 26.5358 47.8395C32.2159 44.5524 37.9091 41.2916 43.5892 38.0177C44.2991 37.6101 44.812 37.0974 45.1538 36.4662L24.3926 24.4224Z" fill="#6A1577"/>
<path d="M18.1992 27.9855C19.4221 30.1156 21.7098 31.5488 24.3264 31.5488C26.9692 31.5488 29.2701 30.1024 30.4798 27.9461L24.3921 24.4224L18.1992 27.9855Z" fill="#6A1577"/>
<path d="M45.6797 14.6007C45.6797 13.7987 45.5087 13.0756 45.1538 12.4707L24.3926 24.4225L45.18 36.4664C45.5087 35.8616 45.6797 35.1647 45.6797 34.3758V14.6007Z" fill="#813084"/>
<path fill-rule="evenodd" clip-rule="evenodd" d="M30.48 27.9463C29.2704 30.0895 26.9695 31.549 24.3266 31.549C21.697 31.549 19.4092 30.1158 18.1996 27.9858C17.6079 26.9471 17.266 25.7637 17.266 24.4883C17.266 20.5833 20.4216 17.4277 24.3266 17.4277C26.93 17.4277 29.2047 18.8477 30.4275 20.9514L36.594 17.4014C34.1353 13.1676 29.5597 10.3145 24.3135 10.3145C16.4771 10.3145 10.1396 16.6651 10.1396 24.4883C10.1396 27.0522 10.8233 29.4716 12.0198 31.549C14.4654 35.7959 19.0673 38.6622 24.3266 38.6622C29.5992 38.6622 34.2011 35.7827 36.6466 31.5095L30.48 27.9463ZM38.2771 21.1348H36.8702V27.9325H38.2771V21.1348ZM39.9862 21.1348H41.393V27.9325H39.9862V21.1348Z" fill="white"/>
<path fill-rule="evenodd" clip-rule="evenodd" d="M35.7393 22.2788H42.5369V23.6857H35.7393V22.2788ZM35.7393 25.382H42.537V26.7889H35.7393V25.382Z" fill="white"/>
</g>
<defs>
<clipPath id="clip0_3698_15854">
<rect width="48" height="48" fill="white" transform="translate(0 0.5)"/>
</clipPath>
</defs>
</svg>
