<svg width="48" height="48" viewBox="0 0 48 48" fill="none" xmlns="http://www.w3.org/2000/svg">
<g clip-path="url(#clip0_1031_1896)">
<path d="M48 0H0V48H48V0Z" fill="#CC2264"/>
<path d="M34.9312 32.5887V33.1199C34.9312 33.0559 34.9312 32.9919 34.9312 32.9279C34.9183 32.8152 34.9183 32.7014 34.9312 32.5887Z" fill="white"/>
<path d="M26.528 19.84L26.464 19.9616C26.4896 19.9221 26.509 19.879 26.5216 19.8336L26.528 19.84Z" fill="white"/>
<path d="M20.9792 17.6192C20.4096 17.6192 15.3792 17.5744 15.3792 19.4752C15.377 19.5956 15.3987 19.7153 15.4432 19.8272C15.4619 19.8732 15.4833 19.9181 15.5072 19.9616L18.9888 27.6416V31.616C18.9888 32.0192 19.1552 32.256 19.5072 32.256H19.6736C20.4782 32.0455 21.2258 31.6585 21.8624 31.1232L22.2912 30.8224C22.3825 30.7654 22.4579 30.6862 22.5105 30.5922C22.5631 30.4982 22.5911 30.3925 22.592 30.2848V27.6608L26.464 19.9808C26.4896 19.9414 26.509 19.8982 26.5216 19.8528C26.566 19.7409 26.5878 19.6212 26.5856 19.5008C26.5856 17.5744 21.5552 17.6192 20.9792 17.6192ZM20.9792 18.7968C23.2384 18.7968 24.6912 19.1936 25.1776 19.4752C24.6912 19.7568 23.2576 20.1536 20.9792 20.1536C18.7008 20.1536 17.2736 19.7568 16.7872 19.4752C17.28 19.2 18.72 18.7968 20.9792 18.7968ZM21.4464 27.1168C21.4464 27.2064 21.4464 27.3664 21.4464 27.5328V30.0352L21.1968 30.1888C20.832 30.4 20.512 30.5472 20.1472 30.7392V27.52C20.1456 27.4323 20.1283 27.3456 20.096 27.264L17.3696 21.0304C18.5546 21.2944 19.7651 21.4275 20.9792 21.4272C22.158 21.4263 23.3335 21.3019 24.4864 21.056L21.4464 27.1168Z" fill="white"/>
<path d="M32.64 35.3088C30.1348 37.122 27.1182 38.0925 24.0256 38.08C17.0624 38.08 11.1232 33.5552 9.72803 26.88C10.3564 26.8501 10.9579 26.6157 11.4408 26.2125C11.9237 25.8093 12.2617 25.2594 12.4032 24.6464H15.6672V23.4368H12.416C12.2926 22.8075 11.9622 22.2375 11.4774 21.8177C10.9926 21.3979 10.3813 21.1523 9.74083 21.12C10.3114 18.8061 11.4352 16.6653 13.0158 14.8816C14.5964 13.0979 16.5864 11.7247 18.8148 10.8799C21.0433 10.0351 23.4436 9.744 25.8093 10.0316C28.1751 10.3193 30.4357 11.177 32.3968 12.5312L33.1264 11.52C30.9557 10.0201 28.4478 9.08035 25.826 8.78435C23.2042 8.48836 20.5499 8.84534 18.0994 9.82349C15.6489 10.8016 13.4784 12.3706 11.7811 14.3907C10.0838 16.4108 8.9124 18.8192 8.37123 21.4016C7.87489 21.6315 7.45468 21.9986 7.16019 22.4596C6.8657 22.9206 6.70923 23.4562 6.70923 24.0032C6.70923 24.5502 6.8657 25.0858 7.16019 25.5468C7.45468 26.0077 7.87489 26.3749 8.37123 26.6048C9.11709 30.2062 11.0809 33.4407 13.9321 35.7638C16.7833 38.087 20.3478 39.357 24.0256 39.36C27.3764 39.3666 30.6432 38.3113 33.3568 36.3456L32.64 35.3088ZM8.00003 24C7.99719 23.6069 8.13915 23.2265 8.39884 22.9314C8.65853 22.6363 9.01777 22.4472 9.40803 22.4H9.60003C9.91675 22.3987 10.2267 22.4915 10.4907 22.6665C10.7546 22.8416 10.9607 23.091 11.0828 23.3832C11.2049 23.6755 11.2375 23.9974 11.1765 24.3082C11.1154 24.619 10.9636 24.9047 10.7401 25.1291C10.5166 25.3535 10.2315 25.5065 9.92093 25.5688C9.61039 25.631 9.28835 25.5997 8.99562 25.4788C8.70288 25.3579 8.45262 25.1528 8.27653 24.8896C8.10043 24.6263 8.00643 24.3167 8.00643 24H8.00003Z" fill="white"/>
<path d="M38.4 26.88C38.9442 26.8803 39.4773 26.7265 39.9377 26.4363C40.398 26.1461 40.7667 25.7314 41.0011 25.2403C41.2354 24.7491 41.3258 24.2017 41.2618 23.6612C41.1978 23.1208 40.982 22.6096 40.6394 22.1868C40.2968 21.764 39.8415 21.447 39.3261 21.2723C38.8107 21.0977 38.2563 21.0726 37.7273 21.2001C37.1982 21.3276 36.7161 21.6023 36.3368 21.9925C35.9575 22.3827 35.6965 22.8724 35.584 23.4048H32.256V15.488H33.984C34.0775 16.2009 34.4343 16.853 34.9842 17.3162C35.5342 17.7794 36.2374 18.0201 36.9558 17.9911C37.6742 17.962 38.3558 17.6653 38.8666 17.1593C39.3773 16.6532 39.6803 15.9744 39.716 15.2563C39.7517 14.5382 39.5175 13.8327 39.0594 13.2786C38.6013 12.7244 37.9525 12.3616 37.2405 12.2615C36.5286 12.1614 35.8049 12.3312 35.2117 12.7376C34.6186 13.1439 34.1989 13.7575 34.0352 14.4576L31.68 14.4256C31.599 14.4083 31.5151 14.4103 31.4349 14.4313C31.3548 14.4522 31.2807 14.4916 31.2185 14.5464C31.1563 14.6011 31.1078 14.6696 31.0768 14.7464C31.0458 14.8232 31.0332 14.9062 31.04 14.9888V23.3856H26.1184V24.5696H31.04V32.9408C31.04 33.1105 31.1074 33.2733 31.2275 33.3933C31.3475 33.5134 31.5103 33.5808 31.68 33.5808H33.6896C33.8301 34.2814 34.2261 34.9047 34.8005 35.3297C35.375 35.7547 36.0869 35.9509 36.798 35.8803C37.509 35.8097 38.1684 35.4773 38.6481 34.9476C39.1277 34.418 39.3934 33.7289 39.3934 33.0144C39.3934 32.2998 39.1277 31.6108 38.6481 31.0812C38.1684 30.5515 37.509 30.2191 36.798 30.1485C36.0869 30.0779 35.375 30.2741 34.8005 30.6991C34.2261 31.1241 33.8301 31.7474 33.6896 32.448H32.2944L32.2624 24.5632H35.584C35.7151 25.2144 36.0668 25.8005 36.5798 26.2226C37.0928 26.6447 37.7357 26.8768 38.4 26.88ZM38.4 22.4C38.7165 22.4 39.0258 22.4938 39.2889 22.6696C39.552 22.8454 39.7571 23.0953 39.8782 23.3877C39.9993 23.6801 40.031 24.0018 39.9693 24.3121C39.9075 24.6225 39.7551 24.9076 39.5314 25.1314C39.3076 25.3551 39.0225 25.5075 38.7121 25.5692C38.4018 25.631 38.0801 25.5993 37.7877 25.4782C37.4954 25.3571 37.2455 25.152 37.0697 24.8889C36.8938 24.6258 36.8 24.3164 36.8 24C36.8 23.5756 36.9686 23.1687 37.2686 22.8686C37.5687 22.5686 37.9757 22.4 38.4 22.4ZM36.8 13.4976C37.1155 13.4989 37.4234 13.5937 37.6849 13.7702C37.9464 13.9466 38.1497 14.1967 38.2689 14.4888C38.3882 14.7808 38.418 15.1017 38.3548 15.4107C38.2915 15.7198 38.138 16.0031 37.9136 16.2248C37.6892 16.4465 37.404 16.5966 37.0942 16.6562C36.7844 16.7157 36.464 16.6819 36.1734 16.5591C35.8828 16.4364 35.6352 16.2301 35.4619 15.9665C35.2886 15.7029 35.1975 15.3938 35.2 15.0784C35.2 14.868 35.2416 14.6598 35.3225 14.4656C35.4034 14.2714 35.5219 14.0951 35.6713 13.947C35.8206 13.7988 35.9978 13.6817 36.1926 13.6024C36.3875 13.5231 36.5961 13.4831 36.8064 13.4848L36.8 13.4976ZM36.48 31.36C36.7883 31.3587 37.0904 31.4464 37.3499 31.6127C37.6095 31.779 37.8155 32.0168 37.9432 32.2974C38.0709 32.578 38.1148 32.8895 38.0696 33.1944C38.0244 33.4994 37.8921 33.7848 37.6886 34.0163C37.4851 34.2478 37.219 34.4157 36.9223 34.4996C36.6257 34.5835 36.3112 34.5799 36.0165 34.4893C35.7218 34.3987 35.4596 34.2248 35.2614 33.9887C35.0632 33.7526 34.9374 33.4643 34.8992 33.1584C34.8992 33.0944 34.8992 33.0304 34.8992 32.9664C34.899 32.8522 34.9119 32.7384 34.9376 32.6272C35.0141 32.273 35.2081 31.955 35.4881 31.7249C35.7681 31.4949 36.1177 31.3663 36.48 31.36Z" fill="white"/>
</g>
<defs>
<clipPath id="clip0_1031_1896">
<rect width="48" height="48" fill="white"/>
</clipPath>
</defs>
</svg>
