<svg width="16" height="16" viewBox="0 0 16 16" xmlns="http://www.w3.org/2000/svg">
<path fill-rule="evenodd" clip-rule="evenodd" d="M1.33333 8C1.33333 4.3181 4.3181 1.33333 8 1.33333C11.6819 1.33333 14.6667 4.3181 14.6667 8C14.6667 11.6819 11.6819 14.6667 8 14.6667C4.3181 14.6667 1.33333 11.6819 1.33333 8ZM8 0C3.58172 0 0 3.58172 0 8C0 12.4183 3.58172 16 8 16C12.4183 16 16 12.4183 16 8C16 3.58172 12.4183 0 8 0ZM8.66667 3.33333C8.66667 2.96514 8.36819 2.66667 8 2.66667C7.63181 2.66667 7.33333 2.96514 7.33333 3.33333V7.38675C7.33333 7.9706 7.58846 8.5253 8.03175 8.90527L9.89947 10.5062C10.179 10.7458 10.5999 10.7134 10.8395 10.4339C11.0791 10.1543 11.0467 9.73344 10.7672 9.49383L8.89947 7.89292C8.75171 7.76627 8.66667 7.58137 8.66667 7.38675V3.33333Z" fill="currentColor"/>
</svg>
