<svg width="48" height="48" viewBox="0 0 48 48" fill="none" xmlns="http://www.w3.org/2000/svg">
<path d="M32.3062 26.586C30.437 26.586 28.7612 27.4141 27.6137 28.7179L24.6732 26.6362C24.9853 25.7768 25.1645 24.854 25.1645 23.8881C25.1645 22.9389 24.9915 22.0316 24.6897 21.1849L27.6236 19.1252C28.7711 20.4225 30.4424 21.2461 32.3062 21.2461C35.7562 21.2461 38.5635 18.4393 38.5635 14.9888C38.5635 11.5382 35.7562 8.73143 32.3062 8.73143C28.8562 8.73143 26.0489 11.5382 26.0489 14.9888C26.0489 15.6064 26.1422 16.2019 26.3097 16.7659L23.3737 18.8266C22.1473 17.3051 20.3815 16.2428 18.3696 15.9185V12.3801C21.204 11.7848 23.3396 9.26646 23.3396 6.25732C23.3396 2.80681 20.5323 0 17.0823 0C13.6322 0 10.825 2.80681 10.825 6.25732C10.825 9.22616 12.9053 11.7134 15.683 12.3512V15.9356C11.8921 16.601 9 19.9094 9 23.8881C9 27.8862 11.9208 31.2067 15.739 31.8495V35.6343C12.9329 36.2511 10.825 38.7536 10.825 41.7427C10.825 45.1932 13.6322 48 17.0823 48C20.5323 48 23.3396 45.1932 23.3396 41.7427C23.3396 38.7536 21.2317 36.2511 18.4256 35.6343V31.8494C20.3979 31.5172 22.1313 30.4759 23.3451 28.9882L26.3053 31.0834C26.1409 31.6423 26.0489 32.232 26.0489 32.8433C26.0489 36.2938 28.8562 39.1007 32.3062 39.1007C35.7562 39.1007 38.5635 36.2938 38.5635 32.8433C38.5635 29.3928 35.7562 26.586 32.3062 26.586ZM32.3062 11.9549C33.9792 11.9549 35.3399 13.3162 35.3399 14.9888C35.3399 16.6613 33.9792 18.0225 32.3062 18.0225C30.6332 18.0225 29.2725 16.6613 29.2725 14.9888C29.2725 13.3162 30.6332 11.9549 32.3062 11.9549ZM14.0484 6.25732C14.0484 4.58479 15.4093 3.22359 17.0823 3.22359C18.7553 3.22359 20.116 4.58479 20.116 6.25732C20.116 7.92986 18.7553 9.29106 17.0823 9.29106C15.4093 9.29106 14.0484 7.92986 14.0484 6.25732ZM20.116 41.7427C20.116 43.4152 18.7553 44.7764 17.0823 44.7764C15.4093 44.7764 14.0484 43.4152 14.0484 41.7427C14.0484 40.0701 15.4093 38.7089 17.0823 38.7089C18.7553 38.7089 20.116 40.0701 20.116 41.7427ZM17.082 28.1192C14.7487 28.1192 12.8505 26.2213 12.8505 23.8881C12.8505 21.5548 14.7487 19.6566 17.082 19.6566C19.4152 19.6566 21.3134 21.5548 21.3134 23.8881C21.3134 26.2213 19.4152 28.1192 17.082 28.1192ZM32.3062 35.8772C30.6332 35.8772 29.2725 34.5159 29.2725 32.8433C29.2725 31.1708 30.6332 29.8096 32.3062 29.8096C33.9792 29.8096 35.3399 31.1708 35.3399 32.8433C35.3399 34.5159 33.9792 35.8772 32.3062 35.8772Z" fill="#03020D"/>
</svg>
