<svg width="48" height="49" viewBox="0 0 48 49" fill="none" xmlns="http://www.w3.org/2000/svg">
<g clip-path="url(#clip0_3698_16307)">
<path d="M48 0.5H0V48.5H48V0.5Z" fill="url(#paint0_linear_3698_16307)"/>
<path d="M40.0187 21.3V22.58H34.3739C19.5963 22.58 8.01873 16.756 8.01873 9.3064C8.01664 9.03673 8.03375 8.76724 8.06992 8.5H9.34992C9.30635 8.76657 9.28495 9.03629 9.28593 9.3064C9.28593 15.9176 20.5371 21.3 34.3739 21.3H40.0187Z" fill="white"/>
<path d="M40.0191 23.86V25.14H32.1855C19.6607 25.14 10.6559 27.1688 8.01909 30.5736V28.8584C10.8159 26.4136 15.9999 25.1464 21.0623 24.5C15.9871 23.86 10.8223 22.58 8.0127 20.1928V18.324C10.6175 21.7416 19.4495 23.796 31.7567 23.86H40.0191Z" fill="white"/>
<path d="M40.0194 26.4202V27.7002H34.3746C20.5314 27.7002 9.2738 33.1018 9.2738 39.713C9.27364 39.9764 9.29289 40.2395 9.3314 40.5002H8.0514C8.01503 40.2394 7.99792 39.9763 8.0002 39.713C8.0002 32.257 19.5906 26.4202 34.3874 26.4202H40.0194Z" fill="white"/>
<path d="M40.0196 28.98V30.26H37.37C25.4788 30.26 16.5124 34.1 16.5124 39.2648C16.5124 39.5144 16.5124 40.2376 16.5124 40.5H15.2324C15.2324 40.0776 15.2324 39.2776 15.2324 39.2648C15.2324 33.3 24.5508 28.98 37.3828 28.98H40.0196Z" fill="white"/>
<path d="M40.019 18.7337V20.0137H37.3694C24.5182 20.0137 15.1934 15.6617 15.1934 9.66485C15.1934 9.66485 15.1934 8.92885 15.1934 8.49365H16.5438C16.5438 8.80085 16.5438 9.43445 16.5438 9.66485C16.5438 14.7849 25.5038 18.7337 37.3758 18.7337H40.019Z" fill="white"/>
</g>
<defs>
<linearGradient id="paint0_linear_3698_16307" x1="-9.9392" y1="58.4392" x2="57.9392" y2="-9.4392" gradientUnits="userSpaceOnUse">
<stop stop-color="#4D27A8"/>
<stop offset="1" stop-color="#A166FF"/>
</linearGradient>
<clipPath id="clip0_3698_16307">
<rect width="48" height="48" fill="white" transform="translate(0 0.5)"/>
</clipPath>
</defs>
</svg>
