<svg width="40" height="40" viewBox="0 0 40 40" fill="none" xmlns="http://www.w3.org/2000/svg">
<path d="M10 0.375H30C35.3157 0.375 39.625 4.68426 39.625 10V30C39.625 35.3157 35.3157 39.625 30 39.625H10C4.68426 39.625 0.375 35.3157 0.375 30V10C0.375 4.68426 4.68426 0.375 10 0.375Z" fill="#202531"/>
<path d="M10 0.375H30C35.3157 0.375 39.625 4.68426 39.625 10V30C39.625 35.3157 35.3157 39.625 30 39.625H10C4.68426 39.625 0.375 35.3157 0.375 30V10C0.375 4.68426 4.68426 0.375 10 0.375Z" stroke="url(#paint0_linear_4209_14088)" stroke-width="0.75"/>
<path fill-rule="evenodd" clip-rule="evenodd" d="M22.0833 10.8333H20V17.0247C20 17.7219 19.1948 18.1108 18.6486 17.6774L8.74746 9.81933C8.12916 9.32862 8.47615 8.33325 9.2655 8.33325H18.75H20H22.0833C27.3761 8.33325 31.6667 12.6239 31.6667 17.9166V21.2499C31.6667 21.9403 31.107 22.4999 30.4167 22.4999C29.7263 22.4999 29.1667 21.9403 29.1667 21.2499V17.9166C29.1667 14.0046 25.9954 10.8333 22.0833 10.8333ZM17.9154 29.1667H19.9987V22.9753C19.9987 22.278 20.8039 21.8891 21.3501 22.3225L31.2512 30.1806C31.8695 30.6713 31.5226 31.6667 30.7332 31.6667H21.2487H19.9987H17.9154C12.6226 31.6667 8.33203 27.3761 8.33203 22.0833V18.75C8.33203 18.0596 8.89168 17.5 9.58203 17.5C10.2724 17.5 10.832 18.0596 10.832 18.75V22.0833C10.832 25.9954 14.0033 29.1667 17.9154 29.1667Z" fill="url(#paint1_linear_4209_14088)"/>
<defs>
<linearGradient id="paint0_linear_4209_14088" x1="20" y1="0" x2="20" y2="40" gradientUnits="userSpaceOnUse">
<stop stop-color="#39414E"/>
<stop offset="1" stop-color="#39414E" stop-opacity="0"/>
</linearGradient>
<linearGradient id="paint1_linear_4209_14088" x1="20.0479" y1="8.33325" x2="20.0479" y2="22.5" gradientUnits="userSpaceOnUse">
<stop stop-color="#00E80B"/>
<stop offset="1" stop-color="#00C008"/>
</linearGradient>
</defs>
</svg>
