<svg width="49" height="49" viewBox="0 0 49 49" fill="none" xmlns="http://www.w3.org/2000/svg">
<rect x="5.66663" y="17.5227" width="38" height="28" rx="3.98571" stroke="#C6CED9" stroke-width="1.5" stroke-linejoin="round"/>
<path fill-rule="evenodd" clip-rule="evenodd" d="M26.1611 21.4231L26.1811 26.803L24.6766 28.8629L23.1721 26.803L23.1721 26.8021L23.1521 21.4231H26.1611ZM19.9825 22.4422L23.1721 26.8021V29.342L20.7248 28.5621L17.5553 24.2022L19.9825 22.4422ZM23.1722 41.4231V36.0233L24.6767 33.9633L26.1812 36.0233V41.4231H23.1722ZM26.1812 36.0228L29.3507 40.3827L31.7779 38.6227L28.6084 34.2628L26.1812 33.4828V36.0228ZM20.7248 28.5624L15.5894 26.9025L14.6666 29.7424L19.802 31.4224L22.2293 30.6224L20.7248 28.5624ZM28.6085 34.2623L27.1039 32.2024L29.5312 31.4224L34.6666 33.0824L33.7439 35.9223L28.6085 34.2623ZM29.5312 31.4224L34.6666 29.7424L33.7439 26.9025L28.6085 28.5624L27.1039 30.6224L29.5312 31.4224ZM14.6666 33.0824L19.802 31.4224L22.2293 32.2024L20.7248 34.2623L15.5894 35.9223L14.6666 33.0824ZM20.7248 34.2628L17.5553 38.6227L19.9826 40.3827L23.1721 36.0228V33.4828L20.7248 34.2628ZM31.778 24.2022L28.6085 28.5621L26.1812 29.342V26.8021L29.3507 22.4422L31.778 24.2022Z" fill="#FF5416"/>
<path d="M33.6666 17.4231V12.3322V12.3322C33.6666 7.41183 29.6779 3.4231 24.7575 3.4231H24.5757C19.6554 3.4231 15.6666 7.41183 15.6666 12.3322V12.3322V17.4231" stroke="#C6CED9" stroke-width="1.5" stroke-linejoin="round"/>
</svg>
