<svg width="48" height="48" viewBox="0 0 48 48" fill="none" xmlns="http://www.w3.org/2000/svg">
<g clip-path="url(#clip0_3578_76)">
<path fill-rule="evenodd" clip-rule="evenodd" d="M29.396 0.9447C29.6163 0.77818 29.9298 0.821766 30.0963 1.04205L47.3775 23.9028C47.652 24.266 47.6466 24.7687 47.3643 25.1259L30.0753 47.0028C29.904 47.2194 29.5896 47.2563 29.373 47.0851L26.627 44.9149C26.4103 44.7437 26.3735 44.4293 26.5447 44.2126L41.9167 24.7615C42.0578 24.5829 42.0605 24.3316 41.9233 24.15L26.5066 3.75565C26.3401 3.53537 26.3837 3.2218 26.6039 3.05528L29.396 0.9447Z" fill="#2151CD"/>
<path fill-rule="evenodd" clip-rule="evenodd" d="M20.396 0.9447C20.6163 0.77818 20.9298 0.821766 21.0963 1.04205L38.6105 24.2111C38.7478 24.3927 38.7451 24.6441 38.604 24.8227L21.0753 47.0028C20.904 47.2194 20.5896 47.2563 20.373 47.0851L17.627 44.9149C17.4103 44.7437 17.3735 44.4293 17.5447 44.2126L32.9167 24.7615C33.0578 24.5829 33.0605 24.3316 32.9233 24.15L17.5066 3.75565C17.3401 3.53537 17.3837 3.2218 17.6039 3.05528L20.396 0.9447Z" fill="#2151CD"/>
<path fill-rule="evenodd" clip-rule="evenodd" d="M15.0822 5.82883C14.8822 5.56402 14.4845 5.56395 14.2844 5.82868L0.389153 24.2113C0.251949 24.3928 0.254601 24.6441 0.395605 24.8226L14.2333 42.3477C14.4333 42.6009 14.8172 42.6013 15.0176 42.3484L17.2581 39.5211C17.4022 39.3393 17.4023 39.0824 17.2585 38.9005L6.08318 24.7615C5.94202 24.583 5.93931 24.3316 6.0766 24.15L17.276 9.33654C17.4109 9.15821 17.4109 8.91205 17.2762 8.73366L15.0822 5.82883Z" fill="#2151CD"/>
</g>
<defs>
<clipPath id="clip0_3578_76">
<rect width="48" height="48" fill="white"/>
</clipPath>
</defs>
</svg>
