<svg width="40" height="40" viewBox="0 0 40 40" fill="none" xmlns="http://www.w3.org/2000/svg">
<path d="M10 0.375H30C35.3157 0.375 39.625 4.68426 39.625 10V30C39.625 35.3157 35.3157 39.625 30 39.625H10C4.68426 39.625 0.375 35.3157 0.375 30V10C0.375 4.68426 4.68426 0.375 10 0.375Z" fill="#202531"/>
<path d="M10 0.375H30C35.3157 0.375 39.625 4.68426 39.625 10V30C39.625 35.3157 35.3157 39.625 30 39.625H10C4.68426 39.625 0.375 35.3157 0.375 30V10C0.375 4.68426 4.68426 0.375 10 0.375Z" stroke="url(#paint0_linear_4209_14075)" stroke-width="0.75"/>
<g clip-path="url(#clip0_4209_14075)">
<path d="M15.55 31.5454L9.22463 10.7853C8.93307 9.82838 9.82777 8.93368 10.7847 9.22524L31.5448 15.5506C32.7015 15.903 32.7336 17.5288 31.5918 17.9267L22.2181 21.1933C21.7377 21.3607 21.3601 21.7383 21.1927 22.2187L17.9261 31.5924C17.5282 32.7342 15.9024 32.7021 15.55 31.5454Z" fill="url(#paint1_linear_4209_14075)"/>
</g>
<defs>
<linearGradient id="paint0_linear_4209_14075" x1="20" y1="0" x2="20" y2="40" gradientUnits="userSpaceOnUse">
<stop stop-color="#39414E"/>
<stop offset="1" stop-color="#39414E" stop-opacity="0"/>
</linearGradient>
<linearGradient id="paint1_linear_4209_14075" x1="21.8743" y1="8.54163" x2="21.8743" y2="35.2083" gradientUnits="userSpaceOnUse">
<stop stop-color="#FF17D2"/>
<stop offset="1" stop-color="#D400AB"/>
</linearGradient>
<clipPath id="clip0_4209_14075">
<rect width="26.6667" height="26.6667" fill="white" transform="translate(6.66602 6.66663)"/>
</clipPath>
</defs>
</svg>
