<svg width="40" height="40" viewBox="0 0 40 40" fill="none" xmlns="http://www.w3.org/2000/svg">
<path d="M10 0.375H30C35.3157 0.375 39.625 4.68426 39.625 10V30C39.625 35.3157 35.3157 39.625 30 39.625H10C4.68426 39.625 0.375 35.3157 0.375 30V10C0.375 4.68426 4.68426 0.375 10 0.375Z" fill="#202531"/>
<path d="M10 0.375H30C35.3157 0.375 39.625 4.68426 39.625 10V30C39.625 35.3157 35.3157 39.625 30 39.625H10C4.68426 39.625 0.375 35.3157 0.375 30V10C0.375 4.68426 4.68426 0.375 10 0.375Z" stroke="url(#paint0_linear_4209_14062)" stroke-width="0.75"/>
<g clip-path="url(#clip0_4209_14062)">
<path d="M11.6673 8.33337H28.334C30.1749 8.33337 31.6673 9.82576 31.6673 11.6667V30.4918C31.6673 31.5795 30.3744 32.1482 29.5727 31.4133L24.4063 26.6774C24.2526 26.5365 24.0517 26.4584 23.8432 26.4584H11.6673C9.82637 26.4584 8.33398 24.966 8.33398 23.125V11.6667C8.33398 9.82576 9.82637 8.33337 11.6673 8.33337Z" fill="url(#paint1_linear_4209_14062)"/>
</g>
<defs>
<linearGradient id="paint0_linear_4209_14062" x1="20" y1="0" x2="20" y2="40" gradientUnits="userSpaceOnUse">
<stop stop-color="#39414E"/>
<stop offset="1" stop-color="#39414E" stop-opacity="0"/>
</linearGradient>
<linearGradient id="paint1_linear_4209_14062" x1="20.0007" y1="8.33337" x2="20.0007" y2="32.0834" gradientUnits="userSpaceOnUse">
<stop stop-color="#4AD4FF"/>
<stop offset="1" stop-color="#2CC0FF"/>
</linearGradient>
<clipPath id="clip0_4209_14062">
<rect width="26.6667" height="26.6667" fill="white" transform="translate(6.66602 6.66663)"/>
</clipPath>
</defs>
</svg>
