<svg width="24" height="20" viewBox="0 0 24 20" xmlns="http://www.w3.org/2000/svg">
<path d="M24 2.304C23.1129 2.7 22.1658 2.964 21.1708 3.084C22.1898 2.472 22.969 1.512 23.3287 0.36C22.3816 0.924 21.3267 1.332 20.1998 1.56C19.3007 0.6 18.03 0 16.6034 0C13.8821 0 11.6883 2.208 11.6883 4.92C11.6883 5.304 11.7363 5.676 11.8202 6.048C7.73227 5.844 4.11189 3.888 1.67832 0.9C1.25874 1.632 1.00699 2.472 1.00699 3.372C1.00699 5.076 1.87013 6.588 3.2008 7.476C2.3976 7.452 1.63037 7.224 0.971029 6.864C0.971029 6.888 0.971029 6.9 0.971029 6.924C0.971029 9.312 2.66134 11.304 4.91509 11.748C4.50749 11.856 4.06394 11.916 3.62038 11.916C3.30869 11.916 2.997 11.88 2.6973 11.832C3.32068 13.788 5.14286 15.216 7.28871 15.252C5.61039 16.572 3.48851 17.364 1.17483 17.364C0.779221 17.364 0.383616 17.34 0 17.292C2.18182 18.684 4.75924 19.5 7.54046 19.5C16.5914 19.5 21.5305 12 21.5305 5.496C21.5305 5.28 21.5305 5.076 21.5185 4.86C22.5015 4.164 23.3407 3.3 24 2.304Z" />
</svg>
