<svg width="48" height="48" viewBox="0 0 48 48" fill="none" xmlns="http://www.w3.org/2000/svg">
<path d="M2.96017 0.0589305H46.1041C46.4867 0.0589305 46.987 7.12797e-05 47.3107 0.206079C47.5756 0.382656 47.5462 0.647523 47.5462 0.912389V10.271C47.5462 10.5359 47.5168 10.8007 47.3107 10.9773C47.0753 11.2128 46.8104 11.2128 46.4867 11.2128H42.3371C41.984 11.2128 41.6308 11.1833 41.3954 10.9185C41.1894 10.683 41.1894 10.3593 41.1894 10.065V6.3863H7.6395V10.1533C7.6395 10.4476 7.61007 10.7419 7.40406 10.9773C7.16862 11.2128 6.87432 11.2128 6.58003 11.2128H2.22443C1.93013 11.2128 1.63584 11.2128 1.4004 10.9773C1.16496 10.7419 1.16496 10.477 1.13553 10.1533V1.67756C1.13553 1.35383 1.1061 1.00068 1.16496 0.676952C1.22382 0.382656 1.48869 0.147219 1.78298 0.0883601C2.195 0.0295009 2.57759 0.0589305 2.96017 0.0589305Z" fill="#006FD4"/>
<path d="M11.9069 11.1244H17.6162C17.9694 11.1244 18.3814 11.1538 18.6168 11.4481C18.8228 11.6836 18.8228 11.9778 18.8228 12.2721V16.51C18.8228 16.8337 18.8228 17.128 18.5874 17.3929C18.352 17.6283 18.0282 17.6283 17.7045 17.6283H12.4955C12.1129 17.6283 11.7009 17.6578 11.3477 17.5695C10.9946 17.4223 10.8474 17.0986 10.8474 16.716V12.2721C10.8474 11.9484 10.8474 11.6541 11.0534 11.4187C11.2889 11.1538 11.6126 11.1244 11.9069 11.1244ZM23.149 16.1863H28.976C29.2703 16.1863 29.5352 16.1863 29.7706 16.3923C30.0061 16.5983 30.0355 16.8632 30.0355 17.1575V21.513C30.0355 21.8662 29.9178 22.1605 29.5941 22.3371C29.2409 22.4842 28.77 22.4254 28.3874 22.4254H23.2667C22.943 22.4254 22.6487 22.4254 22.4132 22.1899C22.1778 21.9545 22.1778 21.6308 22.1778 21.3365V17.3046C22.1778 16.9809 22.2072 16.6866 22.4427 16.4512C22.6192 16.2157 22.8547 16.2157 23.149 16.1863ZM12.5249 20.895H17.7339C18.0282 20.895 18.2931 20.9245 18.4991 21.1305C18.7345 21.3659 18.7345 21.6896 18.7345 21.9839V26.1335C18.7345 26.4278 18.7051 26.6632 18.4991 26.8692C18.2637 27.1047 17.9694 27.1047 17.6456 27.1047H11.9363C11.642 27.1047 11.3771 27.1047 11.1417 26.8987C10.9063 26.6927 10.8768 26.4278 10.8474 26.1335V21.9839C10.8474 21.6602 10.8474 21.3365 11.1123 21.101C11.436 20.8067 12.0835 20.9245 12.5249 20.895ZM34.2734 20.895H40.1887C40.483 20.895 40.7479 20.9245 40.9539 21.1305C41.2187 21.3659 41.1893 21.6896 41.1893 22.0133V26.1629C41.1893 26.4572 41.1599 26.7221 40.9244 26.9281C40.689 27.1635 40.3947 27.1635 40.071 27.1635H35.0385C34.6265 27.1635 34.1851 27.193 33.8025 27.1047C33.4493 26.9575 33.3022 26.6338 33.3022 26.2806V22.0428C33.3022 21.7191 33.3022 21.4542 33.5376 21.1893C33.7436 20.9539 34.0085 20.895 34.2734 20.895ZM23.149 25.7215H28.976C29.2703 25.7215 29.5352 25.7215 29.7706 25.9275C30.0061 26.1335 30.0355 26.4278 30.0355 26.7221V31.0777C30.0355 31.4014 29.9178 31.6663 29.6529 31.8428C29.2998 32.0194 28.7995 31.9606 28.3874 31.9606H23.2667C22.943 31.9606 22.6487 31.9606 22.4132 31.7251C22.1778 31.4897 22.1778 31.1954 22.1484 30.8717V26.8398C22.1484 26.5161 22.1484 26.1924 22.3838 25.9863C22.5898 25.7509 22.8547 25.7509 23.149 25.7215ZM12.5249 30.4302H17.7634C18.0577 30.4302 18.3225 30.4597 18.5285 30.6951C18.7345 30.9305 18.7345 31.1954 18.7345 31.4897V35.6393C18.7345 35.9336 18.7345 36.1984 18.5285 36.4339C18.3225 36.6693 18.0282 36.6987 17.7339 36.6987H11.9069C11.5832 36.6987 11.2594 36.6987 11.0534 36.4044C10.8474 36.1396 10.8474 35.8453 10.8474 35.5215V31.372C10.8474 30.9894 10.9946 30.6657 11.3477 30.5185C11.7009 30.4008 12.1423 30.4597 12.5249 30.4302ZM2.3717 36.787H6.60956C6.93328 36.787 7.25701 36.8165 7.49244 37.0813C7.69845 37.3168 7.66902 37.5816 7.69845 37.8759V41.6135H41.3659V37.9642C41.3659 37.6699 41.3659 37.3756 41.6013 37.1402C41.8662 36.8753 42.1605 36.8753 42.5136 36.8753H46.4572C46.7515 36.8753 47.1046 36.8753 47.3401 37.0519C47.6049 37.2579 47.7227 37.611 47.7227 37.9348V46.9108C47.7227 47.2345 47.6932 47.4994 47.4578 47.7054C47.1635 47.9997 46.6338 47.882 46.2512 47.9114H2.31284C2.04797 47.9114 1.81254 47.882 1.63596 47.7054C1.40052 47.4994 1.37109 47.2051 1.37109 46.9108V37.8465C1.37109 37.4933 1.42995 37.1696 1.69482 36.9342C1.84197 36.787 2.10683 36.8165 2.3717 36.787Z" fill="#006FD4"/>
</svg>
