<svg width="48" height="48" viewBox="0 0 48 48" fill="none" xmlns="http://www.w3.org/2000/svg">
	<path fill-rule="evenodd" clip-rule="evenodd" d="M8 3.5H24C25.3807 3.5 26.5 4.61929 26.5 6V42C26.5 43.3807 25.3807 44.5 24 44.5H8C6.61929 44.5 5.5 43.3807 5.5 42V6C5.5 4.61929 6.61929 3.5 8 3.5ZM4 6C4 3.79086 5.79086 2 8 2H24C26.2091 2 28 3.79086 28 6V42C28 44.2091 26.2091 46 24 46H8C5.79086 46 4 44.2091 4 42V6ZM31 21.75C32.2426 21.75 33.25 22.7574 33.25 24C33.25 25.2426 32.2426 26.25 31 26.25V27.75C33.0711 27.75 34.75 26.0711 34.75 24C34.75 21.9289 33.0711 20.25 31 20.25V21.75ZM38.25 24C38.25 19.9959 35.0041 16.75 31 16.75V15.25C35.8325 15.25 39.75 19.1675 39.75 24C39.75 28.8325 35.8325 32.75 31 32.75V31.25C35.0041 31.25 38.25 28.0041 38.25 24ZM31 11.75C37.7655 11.75 43.25 17.2345 43.25 24C43.25 30.7655 37.7655 36.25 31 36.25V37.75C38.5939 37.75 44.75 31.5939 44.75 24C44.75 16.4061 38.5939 10.25 31 10.25V11.75ZM11 41C11 40.5858 11.3358 40.25 11.75 40.25H20.25C20.6642 40.25 21 40.5858 21 41C21 41.4142 20.6642 41.75 20.25 41.75H11.75C11.3358 41.75 11 41.4142 11 41ZM16 7C16.5523 7 17 6.55228 17 6C17 5.44772 16.5523 5 16 5C15.4477 5 15 5.44772 15 6C15 6.55228 15.4477 7 16 7Z" fill="#03020D" />
</svg>
