<svg width="10" height="10" viewBox="0 0 10 10" fill="none" xmlns="http://www.w3.org/2000/svg">
    <path d="M3.5 5.375L5 6.875M5 6.875L6.5 5.375M5 6.875V3.125M9.5 5C9.5 5.59095 9.3836 6.17611 9.15746 6.72208C8.93131 7.26804 8.59984 7.76412 8.18198 8.18198C7.76412 8.59984 7.26804 8.93131 6.72208 9.15746C6.17611 9.3836 5.59095 9.5 5 9.5C4.40905 9.5 3.82389 9.3836 3.27792 9.15746C2.73196 8.93131 2.23588 8.59984 1.81802 8.18198C1.40016 7.76412 1.06869 7.26804 0.842542 6.72208C0.616396 6.17611 0.5 5.59095 0.5 5C0.5 3.80653 0.974106 2.66193 1.81802 1.81802C2.66193 0.974106 3.80653 0.5 5 0.5C6.19347 0.5 7.33807 0.974106 8.18198 1.81802C9.02589 2.66193 9.5 3.80653 9.5 5Z" stroke="currentColor" stroke-linecap="round" stroke-linejoin="round"/>
</svg>
