<svg width="48" height="49" viewBox="0 0 48 49" fill="none" xmlns="http://www.w3.org/2000/svg">
<g clip-path="url(#clip0_3698_15653)">
<path d="M46 0.5H2C0.895431 0.5 0 1.39543 0 2.5V46.5C0 47.6046 0.895432 48.5 2 48.5H46C47.1046 48.5 48 47.6046 48 46.5V2.5C48 1.39543 47.1046 0.5 46 0.5Z" fill="#512BD4"/>
<path d="M8.55483 31.1667C8.21544 31.1667 7.92696 31.0537 7.68938 30.8274C7.4518 30.5954 7.33301 30.32 7.33301 30.001C7.33301 29.6762 7.4518 29.3979 7.68938 29.1659C7.92696 28.9339 8.21544 28.8179 8.55483 28.8179C8.89988 28.8179 9.1912 28.9339 9.42878 29.1659C9.67201 29.3979 9.79363 29.6762 9.79363 30.001C9.79363 30.32 9.67201 30.5954 9.42878 30.8274C9.1912 31.0537 8.89988 31.1667 8.55483 31.1667Z" fill="white"/>
<path d="M41.3336 20.2574H37.8378V30.9753H35.8183V20.2574H32.3311V18.5H41.3336V20.2574Z" fill="white"/>
<path d="M31.6262 30.9753H24.7959V18.5H31.3548V20.2574H26.8154V23.7894H30.9984V25.538H26.8154V29.2266H31.6262V30.9753Z" fill="white"/>
<path d="M22.1224 30.9753H19.9163L14.1042 21.8059C13.9571 21.5739 13.8354 21.3332 13.7393 21.0838H13.6884C13.7336 21.3506 13.7563 21.9219 13.7563 22.7976V30.9753H11.8047V18.5H14.155L19.7721 27.4519C20.0096 27.8232 20.1624 28.0783 20.2303 28.2175H20.2642C20.2076 27.8869 20.1793 27.3273 20.1793 26.5384V18.5H22.1224V30.9753Z" fill="white"/>
</g>
<defs>
<clipPath id="clip0_3698_15653">
<rect width="48" height="48" fill="white" transform="translate(0 0.5)"/>
</clipPath>
</defs>
</svg>
