<svg width="20" height="20" viewBox="0 0 20 20" fill="none" xmlns="http://www.w3.org/2000/svg">
<path d="M11.2825 18.1596L10.9102 17.8258L10.9102 17.8258L11.2825 18.1596ZM8.71755 18.1596L9.08979 17.8258L9.08979 17.8258L8.71755 18.1596ZM16.5312 8.28125C16.5312 8.95001 16.3254 9.73701 15.9583 10.5982C15.5932 11.4546 15.0812 12.3551 14.4993 13.2427C13.3353 15.018 11.9168 16.7034 10.9102 17.8258L11.6547 18.4935C12.6764 17.3542 14.1322 15.6264 15.3356 13.791C15.9374 12.8732 16.4823 11.9189 16.8782 10.9904C17.272 10.0666 17.5312 9.13852 17.5312 8.28125H16.5312ZM10 1.75C13.6071 1.75 16.5312 4.67414 16.5312 8.28125H17.5312C17.5312 4.12186 14.1594 0.75 10 0.75V1.75ZM3.46875 8.28125C3.46875 4.67414 6.39289 1.75 10 1.75V0.75C5.84061 0.75 2.46875 4.12186 2.46875 8.28125H3.46875ZM9.08979 17.8258C8.08324 16.7034 6.66466 15.018 5.50069 13.2427C4.91878 12.3551 4.40684 11.4546 4.04172 10.5982C3.67456 9.73701 3.46875 8.95001 3.46875 8.28125H2.46875C2.46875 9.13852 2.728 10.0666 3.12183 10.9904C3.51769 11.9189 4.06265 12.8732 4.6644 13.791C5.86776 15.6264 7.32358 17.3542 8.34531 18.4935L9.08979 17.8258ZM10.9102 17.8258C10.4159 18.377 9.58405 18.377 9.08979 17.8258L8.34531 18.4935C9.23698 19.4877 10.763 19.4877 11.6547 18.4935L10.9102 17.8258ZM12.3125 8.28125C12.3125 9.55841 11.2772 10.5938 10 10.5938V11.5938C11.8294 11.5938 13.3125 10.1107 13.3125 8.28125H12.3125ZM10 5.96875C11.2772 5.96875 12.3125 7.00409 12.3125 8.28125H13.3125C13.3125 6.45181 11.8294 4.96875 10 4.96875V5.96875ZM7.6875 8.28125C7.6875 7.00409 8.72284 5.96875 10 5.96875V4.96875C8.17056 4.96875 6.6875 6.45181 6.6875 8.28125H7.6875ZM10 10.5938C8.72284 10.5938 7.6875 9.55841 7.6875 8.28125H6.6875C6.6875 10.1107 8.17056 11.5938 10 11.5938V10.5938Z" fill="#03020D"/>
</svg>
