<svg width="48" height="48" viewBox="0 0 48 48" fill="none" xmlns="http://www.w3.org/2000/svg">
<path fill-rule="evenodd" clip-rule="evenodd" d="M11.3513 21.1912V27.5028C12.3462 29.2178 13.7577 30.6541 15.4551 31.6786V21.1912H11.3513Z" fill="#AECBFA"/>
<path fill-rule="evenodd" clip-rule="evenodd" d="M18.9351 15.3831V33.4541C19.8183 33.5669 20.7086 33.615 21.5989 33.5981C22.3981 33.6481 23.1996 33.6481 23.9988 33.5981V15.3831H18.9351Z" fill="#669DF6"/>
<path fill-rule="evenodd" clip-rule="evenodd" d="M27.9346 23.6631V31.5587C29.6411 30.4702 31.0446 28.9676 32.0144 27.1909V23.6631H27.9346Z" fill="#AECBFA"/>
<path fill-rule="evenodd" clip-rule="evenodd" d="M37.7741 34.366L34.3663 37.7738C34.2705 37.8677 34.1944 37.9797 34.1424 38.1033C34.0905 38.2269 34.0637 38.3597 34.0637 38.4938C34.0637 38.6279 34.0905 38.7606 34.1424 38.8843C34.1944 39.0079 34.2705 39.1199 34.3663 39.2138L42.8618 47.7093C43.0504 47.8954 43.3048 47.9998 43.5698 47.9998C43.8348 47.9998 44.0891 47.8954 44.2777 47.7093L47.7096 44.2775C47.8957 44.0889 48 43.8345 48 43.5695C48 43.3045 47.8957 43.0502 47.7096 42.8616L39.214 34.366C39.1201 34.2702 39.0081 34.1941 38.8845 34.1422C38.7609 34.0902 38.6281 34.0635 38.494 34.0635C38.3599 34.0635 38.2272 34.0902 38.1036 34.1422C37.9799 34.1941 37.8679 34.2702 37.7741 34.366Z" fill="#4285F4"/>
<path fill-rule="evenodd" clip-rule="evenodd" d="M21.5989 0C17.327 0 13.1511 1.26675 9.59919 3.64007C6.04727 6.01338 3.27889 9.38666 1.64413 13.3333C0.00935834 17.28 -0.418371 21.6228 0.415026 25.8126C1.24842 30.0024 3.30552 33.8509 6.32617 36.8716C9.34683 39.8922 13.1954 41.9493 17.3851 42.7827C21.5749 43.6161 25.9177 43.1884 29.8644 41.5536C33.8111 39.9189 37.1844 37.1505 39.5577 33.5986C41.931 30.0466 43.1977 25.8707 43.1977 21.5989C43.1977 18.7625 42.6391 15.9538 41.5536 13.3333C40.4682 10.7128 38.8772 8.3318 36.8716 6.32616C34.8659 4.32052 32.4849 2.72956 29.8644 1.64412C27.2439 0.558671 24.4353 0 21.5989 0ZM21.5989 37.654C18.4303 37.6493 15.3341 36.7056 12.7015 34.9423C10.0689 33.1789 8.01783 30.675 6.80744 27.7467C5.59706 24.8183 5.28161 21.597 5.90094 18.4895C6.52027 15.382 8.0466 12.5277 10.2872 10.2871C12.5277 8.04659 15.382 6.52026 18.4895 5.90093C21.597 5.2816 24.8183 5.59705 27.7467 6.80743C30.675 8.01782 33.179 10.0688 34.9423 12.7015C36.7057 15.3341 37.6493 18.4303 37.654 21.5989C37.6572 23.7082 37.2441 25.7973 36.4383 27.7467C35.6326 29.696 34.4501 31.4671 32.9586 32.9586C31.4671 34.4501 29.696 35.6326 27.7467 36.4383C25.7973 37.2441 23.7082 37.6572 21.5989 37.654Z" fill="#669DF6"/>
</svg>
