<svg width="48" height="49" viewBox="0 0 48 49" fill="none" xmlns="http://www.w3.org/2000/svg">
<g clip-path="url(#clip0_3698_16320)">
<path d="M29.9998 24.5105C30.0006 26.2412 29.6884 27.9579 29.0783 29.5775C27.458 30.1876 25.741 30.5003 24.0098 30.5006H23.9895C22.2068 30.4983 20.4986 30.1724 18.9225 29.5783C18.3119 27.9584 17.9994 26.2416 18 24.5105V24.4895C17.9992 22.7591 18.3111 21.0427 18.9206 19.4233C20.5407 18.812 22.2581 18.4992 23.9897 18.5H24.0099C25.7413 18.4992 27.4585 18.8119 29.0784 19.4231C29.6887 21.0424 30.0009 22.7588 30 24.4893V24.5103L29.9998 24.5105ZM47.6666 20.5001H33.6574L43.5628 10.5939C42.7853 9.50172 41.9181 8.47635 40.9701 7.52844V7.52769C40.022 6.58079 38.9969 5.71431 37.9054 4.93719L27.9992 14.8434V0.834125C26.6817 0.612487 25.348 0.500727 24.012 0.5L23.9872 0.5C22.6283 0.50075 21.2972 0.61625 20.0001 0.834125V14.8434L10.0939 4.93719C9.00214 5.7141 7.97749 6.5812 7.03069 7.52938L7.02544 7.53312C6.07904 8.47985 5.21299 9.50363 4.43625 10.5939L14.3432 20.5001H0.334125C0.334125 20.5001 0 23.1313 0 24.4918V24.5083C0 25.8688 0.115312 27.2021 0.334125 28.4999H14.3434L4.43644 38.4061C5.99487 40.5931 7.90687 42.5051 10.0939 44.0636L20.0001 34.1566V48.1666C21.3161 48.3872 22.6481 48.4987 23.9826 48.5H24.0165C25.3509 48.4988 26.683 48.3873 27.999 48.1666V34.1566L37.9061 44.0636C38.9975 43.2862 40.0223 42.4194 40.9701 41.4723L40.9723 41.4701C41.919 40.5221 42.7855 39.4973 43.5628 38.4061L33.6559 28.4999H47.6666C47.8847 27.2043 47.9985 25.8749 48 24.5174V24.4826C47.9985 23.1251 47.8847 21.7957 47.6666 20.5001Z" fill="#FF4A00"/>
</g>
<defs>
<clipPath id="clip0_3698_16320">
<rect width="48" height="48" fill="white" transform="translate(0 0.5)"/>
</clipPath>
</defs>
</svg>
