<svg width="24" height="24" viewBox="0 0 24 24" fill="none" xmlns="http://www.w3.org/2000/svg">
<path fill-rule="evenodd" clip-rule="evenodd" d="M20 22H4V2L14.7658 2C15.2821 2 15.7784 2.19967 16.1508 2.55723L19.3851 5.6621C19.7779 6.03924 20 6.56028 20 7.10487V22ZM4 24H20C21.1046 24 22 23.1046 22 22V7.10487C22 6.01569 21.5558 4.97361 20.7701 4.21932L17.5359 1.11445C16.791 0.399335 15.7984 0 14.7658 0H4C2.89543 0 2 0.89543 2 2V22C2 23.1046 2.89543 24 4 24ZM7 11H17V9H7V11ZM17 15H7V13H17V15ZM7 19H14V17H7V19Z" fill="currentColor"/>
</svg>
