<svg width="48" height="48" viewBox="0 0 48 48" fill="none" xmlns="http://www.w3.org/2000/svg">
<path d="M26.5 8L7.38462 8C4.46154 7.99973 3 9.49973 3 12.4997V39.5C3 42.5 4.46154 44 7.38462 44H36.6154C39.5385 44 41 42.5 41 39.5V21.5" stroke="#03020D" stroke-width="1.5" stroke-linecap="round"/>
<path fill-rule="evenodd" clip-rule="evenodd" d="M29.25 10C29.25 5.16751 33.1675 1.25 38 1.25C42.8325 1.25 46.75 5.16751 46.75 10C46.75 14.8325 42.8325 18.75 38 18.75C33.1675 18.75 29.25 14.8325 29.25 10Z" fill="#FF5416"/>
<path d="M39 6.5V13.5H37.5788V7.90479H37.5394L36 8.90967V7.59717L37.6641 6.5H39Z" fill="white"/>
<path d="M28.7528 19H14.2551C13.6569 19 13.0832 19.232 12.6603 19.6446C12.2374 20.0573 12 20.6166 12 21.2002V30.4808C12 31.0643 12.2374 31.6245 12.6603 32.0371C13.0832 32.4498 13.6569 32.6817 14.2551 32.6817H27.6977L30.0498 34.8505C30.13 34.9242 30.2304 34.9731 30.3389 34.9917C30.4474 35.0103 30.5587 34.9975 30.6598 34.9549C30.7609 34.9122 30.8471 34.8421 30.9076 34.7523C30.968 34.6625 31.0001 34.5573 31 34.4499V21.2002C31 20.618 30.7636 20.0594 30.3424 19.6469C29.9212 19.2345 29.3495 19.0021 28.7528 19Z" stroke="#03020D" stroke-width="1.5"/>
</svg>
