<svg width="48" height="48" viewBox="0 0 48 48" fill="none" xmlns="http://www.w3.org/2000/svg">
<g clip-path="url(#clip0_1031_1893)">
<path d="M22.4633 42.4633L28.0001 48.0001H42.7811L29.8547 35.0737" fill="#0D47A1"/>
<path fill-rule="evenodd" clip-rule="evenodd" d="M4 23.9981L11.3915 31.3895L42.781 0H28L4 23.9981ZM28.0001 22.1449H42.7811L29.8547 35.0732L22.4632 27.6817L28.0001 22.1449Z" fill="#42A5F5" fill-opacity="0.8"/>
<path d="M15.0894 35.0771L22.4692 27.6953L29.849 35.0752L22.4692 42.4569L15.0894 35.0771Z" fill="#42A5F5"/>
<path d="M22.4691 42.4575L29.849 35.0776L30.8791 36.1078L23.4993 43.4876L22.4691 42.4575Z" fill="url(#paint0_linear_1031_1893)"/>
<path d="M22.4633 42.4633L33.4302 38.6744L29.8547 35.0718" fill="url(#paint1_linear_1031_1893)"/>
</g>
<defs>
<linearGradient id="paint0_linear_1031_1893" x1="25.6453" y1="39.2813" x2="26.6756" y2="40.3115" gradientUnits="userSpaceOnUse">
<stop offset="0.2" stop-opacity="0.15"/>
<stop offset="0.85" stop-color="#616161" stop-opacity="0.01"/>
</linearGradient>
<linearGradient id="paint1_linear_1031_1893" x1="22.4659" y1="42.4634" x2="33.4326" y2="42.4634" gradientUnits="userSpaceOnUse">
<stop offset="0.2" stop-opacity="0.55"/>
<stop offset="0.85" stop-color="#616161" stop-opacity="0.01"/>
</linearGradient>
<clipPath id="clip0_1031_1893">
<rect width="48" height="48" fill="white"/>
</clipPath>
</defs>
</svg>
