<svg width="48" height="48" viewBox="0 0 48 48" fill="none" xmlns="http://www.w3.org/2000/svg">
	<path fill-rule="evenodd" clip-rule="evenodd" d="M16.75 4C17.1642 4 17.5 4.33579 17.5 4.75V6.25H31V4.75C31 4.33579 31.3358 4 31.75 4C32.1642 4 32.5 4.33579 32.5 4.75V6.25H40C42.6234 6.25 44.75 8.37665 44.75 11V37C44.75 39.6234 42.6234 41.75 40 41.75H8C5.37665 41.75 3.25 39.6234 3.25 37V11C3.25 8.37665 5.37665 6.25 8 6.25H16V4.75C16 4.33579 16.3358 4 16.75 4ZM31 7.75V9.25C31 9.66421 31.3358 10 31.75 10C32.1642 10 32.5 9.66421 32.5 9.25V7.75H40C41.7949 7.75 43.25 9.20507 43.25 11V17.25H4.75V11C4.75 9.20507 6.20507 7.75 8 7.75H16V9.25C16 9.66421 16.3358 10 16.75 10C17.1642 10 17.5 9.66421 17.5 9.25V7.75H31ZM4.75 18.75V37C4.75 38.7949 6.20508 40.25 8 40.25H40C41.7949 40.25 43.25 38.7949 43.25 37V18.75H4.75Z" fill="currentColor" />
</svg>
