<svg width="49" height="49" viewBox="0 0 49 49" fill="none" xmlns="http://www.w3.org/2000/svg">
<g clip-path="url(#clip0_3563_10779)">
<path d="M42.7475 28.4231C44.3843 23.7313 44.2523 20.2554 44.2523 20.2554V5.51106C37.3292 6.47513 30.2831 5.03007 24.3147 1.4231C18.2437 4.80509 11.244 6.18718 4.32837 5.36816L4.39264 21.574C5.24345 39.8006 24.3147 47.4359 24.3147 47.4359C26.7072 46.343 28.813 45.1376 30.6663 43.8606" stroke="#C6CED9" stroke-width="1.5" stroke-linecap="round" stroke-linejoin="round"/>
<path fill-rule="evenodd" clip-rule="evenodd" d="M31.8966 37.8398C31.8966 33.8707 35.1142 30.6531 39.0834 30.6531C43.0525 30.6531 46.2701 33.8707 46.2701 37.8398C46.2701 41.809 43.0525 45.0266 39.0834 45.0266C35.1142 45.0266 31.8966 41.809 31.8966 37.8398Z" fill="#FF5416"/>
<path d="M36.1647 37.4845L38.4753 39.7486L42.0664 36.0227" stroke="#03020D" stroke-width="1.5" stroke-linecap="round" stroke-linejoin="round"/>
<path d="M23.1009 34.4231V16.1509L18.6666 18.8023V14.0106L23.1009 11.4231H27.6666V34.4231H23.1009Z" stroke="#C6CED9" stroke-width="1.5" stroke-linecap="round"/>
</g>
<defs>
<clipPath id="clip0_3563_10779">
<rect width="48" height="48" fill="white" transform="translate(0.666626 0.423096)"/>
</clipPath>
</defs>
</svg>
