<svg width="48" height="48" viewBox="0 0 48 48" fill="none" xmlns="http://www.w3.org/2000/svg">
<g clip-path="url(#clip0_1031_2023)">
<path d="M19.3153 35.1433L22.008 28.5935H27.8978C30.0585 28.5935 31.9638 27.0522 32.2846 24.9154C32.378 24.2971 32.3371 23.6659 32.1646 23.0648C31.9921 22.4638 31.6921 21.9069 31.2849 21.4323C30.8778 20.9577 30.3731 20.5764 29.8053 20.3144C29.2375 20.0525 28.6199 19.916 27.9946 19.9143H8.46629L19.3153 9.06523V13.3105H27.9625C33.1278 13.3105 38.1038 17.4709 38.8453 22.5828C39.0775 24.0923 38.9883 25.634 38.5836 27.1067C38.1788 28.5794 37.4675 29.9501 36.4964 31.1289C35.5253 32.3078 34.3161 33.2683 32.9481 33.9475C31.5801 34.6267 30.0841 35.0094 28.558 35.0705L37.4366 43.9493C42.147 40.6748 45.5287 35.8214 46.9689 30.2684C48.4091 24.7154 47.8126 18.8302 45.2875 13.6791C42.7624 8.52805 38.4757 4.45184 33.2041 2.18905C27.9325 -0.0737436 22.0248 -0.373414 16.5513 1.34433C11.0778 3.06208 6.40058 6.6836 3.36719 11.5527C0.333804 16.4219 -0.855133 22.2165 0.0157955 27.8867C0.886724 33.5569 3.75991 38.7276 8.11476 42.462C12.4696 46.1963 18.018 48.2472 23.7548 48.2431C26.3045 48.2466 28.8372 47.8286 31.2506 47.0059L19.3153 35.1433Z" fill="#59B4D9"/>
</g>
<defs>
<clipPath id="clip0_1031_2023">
<rect width="48" height="48" fill="white"/>
</clipPath>
</defs>
</svg>
