<svg width="40" height="40" viewBox="0 0 40 40" fill="none" xmlns="http://www.w3.org/2000/svg">
<path d="M10 0.375H30C35.3157 0.375 39.625 4.68426 39.625 10V30C39.625 35.3157 35.3157 39.625 30 39.625H10C4.68426 39.625 0.375 35.3157 0.375 30V10C0.375 4.68426 4.68426 0.375 10 0.375Z" fill="#202531"/>
<path d="M10 0.375H30C35.3157 0.375 39.625 4.68426 39.625 10V30C39.625 35.3157 35.3157 39.625 30 39.625H10C4.68426 39.625 0.375 35.3157 0.375 30V10C0.375 4.68426 4.68426 0.375 10 0.375Z" stroke="url(#paint0_linear_4209_14107)" stroke-width="0.75"/>
<path fill-rule="evenodd" clip-rule="evenodd" d="M21.7099 30.8795C24.4143 27.864 29.375 21.7778 29.375 17.7084C29.375 12.5307 25.1777 8.33337 20 8.33337C14.8223 8.33337 10.625 12.5307 10.625 17.7084C10.625 21.7778 15.5857 27.864 18.2901 30.8795C19.214 31.9098 20.786 31.9098 21.7099 30.8795ZM20 21.4583C22.0711 21.4583 23.75 19.7794 23.75 17.7083C23.75 15.6373 22.0711 13.9583 20 13.9583C17.9289 13.9583 16.25 15.6373 16.25 17.7083C16.25 19.7794 17.9289 21.4583 20 21.4583Z" fill="url(#paint1_linear_4209_14107)"/>
<defs>
<linearGradient id="paint0_linear_4209_14107" x1="20" y1="0" x2="20" y2="40" gradientUnits="userSpaceOnUse">
<stop stop-color="#39414E"/>
<stop offset="1" stop-color="#39414E" stop-opacity="0"/>
</linearGradient>
<linearGradient id="paint1_linear_4209_14107" x1="20" y1="8.33337" x2="20" y2="31.6523" gradientUnits="userSpaceOnUse">
<stop stop-color="#B986F8"/>
<stop offset="1" stop-color="#9951F5"/>
</linearGradient>
</defs>
</svg>
