<svg width="48" height="49" viewBox="0 0 48 49" fill="none" xmlns="http://www.w3.org/2000/svg">
<g clip-path="url(#clip0_3698_15482)">
<path d="M48 24.8779C48 21.6981 44.0179 18.6847 37.9128 16.8159C39.3216 10.5934 38.6955 5.64268 35.9364 4.05768C35.3004 3.68589 34.5569 3.50978 33.7448 3.50978V5.6916C34.1949 5.6916 34.5569 5.77966 34.8602 5.94598C36.1908 6.70913 36.768 9.61496 36.318 13.3524C36.2104 14.2721 36.0342 15.2407 35.819 16.2289C33.9013 15.7593 31.8076 15.3973 29.6062 15.1625C28.2854 13.3524 26.9156 11.7087 25.5361 10.2705C28.7256 7.30595 31.7195 5.68182 33.7546 5.68182V3.5C31.064 3.5 27.5418 5.41765 23.9804 8.74419C20.4191 5.43722 16.8969 3.53914 14.2063 3.53914V5.72095C16.2316 5.72095 19.2352 7.3353 22.4248 10.2803C21.055 11.7185 19.6853 13.3524 18.384 15.1625C16.1729 15.3973 14.0791 15.7593 12.1614 16.2387C11.9364 15.2603 11.7701 14.3113 11.6527 13.4013C11.1928 9.66388 11.7603 6.75805 13.0811 5.98512C13.3746 5.80901 13.7562 5.73074 14.2063 5.73074V3.54892C13.3844 3.54892 12.6408 3.72503 11.9951 4.09682C9.24582 5.68182 8.62943 10.6227 10.0481 16.8257C3.96249 18.7042 0 21.7079 0 24.8779C0 28.0577 3.98206 31.0711 10.0872 32.9399C8.67835 39.1625 9.30453 44.1131 12.0636 45.6981C12.6996 46.0699 13.4431 46.246 14.265 46.246C16.9556 46.246 20.4778 44.3284 24.0391 41.0018C27.6005 44.3088 31.1227 46.2069 33.8133 46.2069C34.6351 46.2069 35.3787 46.0308 36.0245 45.659C38.7738 44.074 39.3901 39.1331 37.9715 32.9301C44.0375 31.0614 48 28.0479 48 24.8779ZM35.2613 18.352C34.8993 19.6141 34.4492 20.9154 33.9405 22.2167C33.5393 21.434 33.1186 20.6512 32.6588 19.8685C32.2087 19.0858 31.7293 18.3227 31.2499 17.5791C32.6392 17.7846 33.9796 18.0389 35.2613 18.352ZM30.7803 28.7719C30.0171 30.0927 29.2344 31.3451 28.4223 32.5094C26.9645 32.6366 25.4872 32.7051 24 32.7051C22.5226 32.7051 21.0453 32.6366 19.5972 32.5192C18.7852 31.3549 17.9927 30.1123 17.2295 28.8013C16.4859 27.5196 15.8108 26.2183 15.1945 24.9073C15.8011 23.5962 16.4859 22.2852 17.2197 21.0035C17.9829 19.6826 18.7656 18.4303 19.5777 17.266C21.0355 17.1388 22.5128 17.0703 24 17.0703C25.4774 17.0703 26.9548 17.1388 28.4028 17.2562C29.2148 18.4205 30.0073 19.6631 30.7705 20.9741C31.5141 22.2558 32.1892 23.5571 32.8055 24.8681C32.1892 26.1792 31.5141 27.4902 30.7803 28.7719ZM33.9405 27.5C34.4688 28.8111 34.9189 30.1221 35.2907 31.394C34.009 31.7071 32.6588 31.9713 31.2597 32.1767C31.7391 31.4234 32.2185 30.6504 32.6686 29.8579C33.1186 29.0752 33.5393 28.2827 33.9405 27.5ZM24.0196 37.9395C23.1097 37.0002 22.1998 35.9533 21.2996 34.8086C22.1802 34.8477 23.0803 34.8771 23.9902 34.8771C24.9099 34.8771 25.8198 34.8575 26.7102 34.8086C25.8296 35.9533 24.9197 37.0002 24.0196 37.9395ZM16.7403 32.1767C15.351 31.9713 14.0106 31.7169 12.7289 31.4038C13.0909 30.1417 13.541 28.8404 14.0497 27.5391C14.4509 28.3219 14.8716 29.1046 15.3314 29.8873C15.7913 30.67 16.2609 31.4331 16.7403 32.1767ZM23.9707 11.8163C24.8806 12.7556 25.7905 13.8025 26.6906 14.9472C25.81 14.9081 24.9099 14.8787 24 14.8787C23.0803 14.8787 22.1704 14.8983 21.2801 14.9472C22.1606 13.8025 23.0705 12.7556 23.9707 11.8163ZM16.7305 17.5791C16.2511 18.3325 15.7717 19.1054 15.3216 19.8979C14.8716 20.6806 14.4509 21.4633 14.0497 22.246C13.5214 20.935 13.0713 19.6239 12.6996 18.352C13.9812 18.0487 15.3314 17.7846 16.7305 17.5791ZM7.87607 29.8286C4.41256 28.3512 2.17203 26.414 2.17203 24.8779C2.17203 23.3418 4.41256 21.3948 7.87607 19.9272C8.71749 19.5652 9.63718 19.2424 10.5862 18.9391C11.1439 20.8567 11.8777 22.8526 12.7876 24.8975C11.8875 26.9325 11.1635 28.9187 10.6156 30.8265C9.64697 30.5232 8.72727 30.1906 7.87607 29.8286ZM13.1398 43.8098C11.8092 43.0467 11.232 40.1409 11.682 36.4034C11.7896 35.4837 11.9658 34.5151 12.181 33.5269C14.0987 33.9965 16.1924 34.3585 18.3938 34.5934C19.7146 36.4034 21.0844 38.0471 22.4639 39.4853C19.2744 42.4499 16.2805 44.074 14.2454 44.074C13.8051 44.0642 13.4333 43.9762 13.1398 43.8098ZM36.3473 36.3545C36.8072 40.0919 36.2397 42.9978 34.9189 43.7707C34.6254 43.9468 34.2438 44.0251 33.7937 44.0251C31.7684 44.0251 28.7648 42.4107 25.5752 39.4658C26.945 38.0275 28.3147 36.3936 29.616 34.5836C31.8272 34.3488 33.9209 33.9868 35.8386 33.5073C36.0636 34.4955 36.2397 35.4446 36.3473 36.3545ZM40.1141 29.8286C39.2727 30.1906 38.353 30.5135 37.404 30.8168C36.8463 28.8991 36.1125 26.9032 35.2026 24.8583C36.1027 22.8233 36.8267 20.8371 37.3746 18.9293C38.3433 19.2326 39.2629 19.5652 40.1239 19.9272C43.5874 21.4046 45.828 23.3418 45.828 24.8779C45.8182 26.414 43.5777 28.361 40.1141 29.8286Z" fill="#61DAFB"/>
<path d="M23.9898 29.3493C26.4592 29.3493 28.4611 27.3474 28.4611 24.878C28.4611 22.4086 26.4592 20.4067 23.9898 20.4067C21.5204 20.4067 19.5186 22.4086 19.5186 24.878C19.5186 27.3474 21.5204 29.3493 23.9898 29.3493Z" fill="#61DAFB"/>
</g>
<defs>
<clipPath id="clip0_3698_15482">
<rect width="48" height="48" fill="white" transform="translate(0 0.5)"/>
</clipPath>
</defs>
</svg>
