<svg width="12" height="12" viewBox="0 0 12 12" fill="none" xmlns="http://www.w3.org/2000/svg">
    <path d="M4.5 6.375L5.625 7.5L7.5 4.875M10.5 6C10.5 6.634 10.185 7.195 9.7035 7.534C9.75538 7.83038 9.73507 8.13491 9.64429 8.42178C9.55351 8.70865 9.39494 8.96942 9.182 9.182C8.96942 9.39494 8.70865 9.55351 8.42178 9.64429C8.13491 9.73507 7.83038 9.75538 7.534 9.7035C7.36111 9.94974 7.13143 10.1507 6.8644 10.2893C6.59738 10.428 6.30087 10.5002 6 10.5C5.366 10.5 4.805 10.185 4.466 9.7035C4.16962 9.75533 3.86511 9.735 3.57824 9.64423C3.29138 9.55345 3.03061 9.3949 2.818 9.182C2.60506 8.96942 2.44649 8.70865 2.35571 8.42178C2.26493 8.13491 2.24462 7.83038 2.2965 7.534C2.05026 7.36111 1.84931 7.13143 1.71066 6.8644C1.57202 6.59738 1.49976 6.30087 1.5 6C1.5 5.366 1.815 4.805 2.2965 4.466C2.24462 4.16962 2.26493 3.86509 2.35571 3.57822C2.44649 3.29135 2.60506 3.03059 2.818 2.818C3.03061 2.6051 3.29138 2.44655 3.57824 2.35577C3.86511 2.265 4.16962 2.24467 4.466 2.2965C4.63892 2.05029 4.86861 1.84936 5.13563 1.71072C5.40265 1.57208 5.69913 1.4998 6 1.5C6.634 1.5 7.195 1.815 7.534 2.2965C7.83038 2.24467 8.13489 2.265 8.42176 2.35577C8.70862 2.44655 8.96939 2.6051 9.182 2.818C9.3949 3.03061 9.55345 3.29138 9.64423 3.57824C9.735 3.86511 9.75534 4.16962 9.7035 4.466C9.94974 4.63889 10.1507 4.86858 10.2893 5.1356C10.428 5.40262 10.5002 5.69913 10.5 6Z" stroke="currentColor" stroke-linecap="round" stroke-linejoin="round"/>
</svg>
