<svg width="48" height="48" viewBox="0 0 48 48" fill="none" xmlns="http://www.w3.org/2000/svg">
<g clip-path="url(#clip0_1031_1935)">
<path fill-rule="evenodd" clip-rule="evenodd" d="M24 48C37.2548 48 48 37.2548 48 24C48 10.7452 37.2548 0 24 0C10.7452 0 0 10.7452 0 24C0 37.2548 10.7452 48 24 48ZM24 39C32.2843 39 39 32.2843 39 24C39 15.7157 32.2843 9 24 9C15.7157 9 9 15.7157 9 24C9 32.2843 15.7157 39 24 39Z" fill="#FF0000"/>
<rect x="1" y="41" width="56" height="9" transform="rotate(-45 1 41)" fill="#FF0000"/>
</g>
<defs>
<clipPath id="clip0_1031_1935">
<rect width="48" height="48" fill="white"/>
</clipPath>
</defs>
</svg>
