<svg width="48" height="49" viewBox="0 0 48 49" fill="none" xmlns="http://www.w3.org/2000/svg">
<g clip-path="url(#clip0_3698_15488)">
<path fill-rule="evenodd" clip-rule="evenodd" d="M23.8946 48.7183C16.8218 48.7183 11.0879 47.6063 11.0879 46.2349C11.0879 44.8638 16.8218 43.7515 23.8946 43.7515C30.968 43.7515 36.7019 44.8638 36.7019 46.2349C36.7019 47.6063 30.968 48.7183 23.8946 48.7183Z" fill="url(#paint0_radial_3698_15488)"/>
<path fill-rule="evenodd" clip-rule="evenodd" d="M23.8946 48.7183C16.8218 48.7183 11.0879 47.6063 11.0879 46.2349C11.0879 44.8638 16.8218 43.7515 23.8946 43.7515C30.968 43.7515 36.7019 44.8638 36.7019 46.2349C36.7019 47.6063 30.968 48.7183 23.8946 48.7183Z" fill="url(#paint1_radial_3698_15488)"/>
<path fill-rule="evenodd" clip-rule="evenodd" d="M29.1553 33.9789C30.1459 33.9789 30.9485 34.7904 30.9485 35.7939C30.9485 36.8014 30.1459 37.6209 29.1553 37.6209C28.1682 37.6209 27.3621 36.8014 27.3621 35.7939C27.3621 34.7904 28.1682 33.9789 29.1553 33.9789ZM34.5238 10.9331V15.1768C34.5238 18.4673 31.7346 21.236 28.5539 21.236H19.0079C16.3934 21.236 14.2295 23.4741 14.2295 26.0926V35.1929C14.2295 37.7825 16.4814 39.3064 19.0079 40.0491C22.033 40.9388 24.9337 41.0997 28.5539 40.0491C30.9596 39.3527 33.3319 37.9505 33.3319 35.1929V31.5505H23.7862V30.3363H38.1102C40.8878 30.3363 41.9229 28.3991 42.889 25.4913C43.8868 22.4977 43.8441 19.6188 42.889 15.7781C42.2024 13.0134 40.8914 10.9331 38.1102 10.9331H34.5238Z" fill="url(#paint2_linear_3698_15488)"/>
<path fill-rule="evenodd" clip-rule="evenodd" d="M4 20.6488V20.5968C4.00261 19.091 4.2318 17.6073 4.67285 15.7781C5.43369 12.6023 7.86554 10.9331 10.6431 10.9331H23.7863V9.71896H14.2296V6.07652C14.2296 3.31891 14.9638 1.82345 19.008 1.10883C20.3808 0.866177 21.9411 0.72663 23.5748 0.719075C25.2085 0.71152 26.9119 0.835512 28.554 1.10883C31.1472 1.54125 33.332 3.4869 33.332 6.07652V15.1768C33.332 17.8456 31.2107 20.0334 28.554 20.0334H19.008C15.7673 20.0334 13.0377 22.8155 13.0377 25.9699V30.3363H9.75209C6.97448 30.3363 5.35192 28.3205 4.67285 25.4913C4.22224 23.6222 4.00255 22.1229 4 20.6488H4ZM18.4067 3.64795C17.4157 3.64795 16.6135 4.46745 16.6135 5.47495C16.6135 6.47844 17.4157 7.29039 18.4067 7.29039C19.3938 7.29039 20.1999 6.47844 20.1999 5.47495C20.1999 4.46745 19.3938 3.64795 18.4067 3.64795Z" fill="#4786CF"/>
</g>
<defs>
<radialGradient id="paint0_radial_3698_15488" cx="0" cy="0" r="1" gradientUnits="userSpaceOnUse" gradientTransform="translate(23.8947 46.2349) rotate(-90) scale(2.48291 56.2936)">
<stop stop-color="#C6C6C6"/>
<stop offset="1" stop-color="white"/>
</radialGradient>
<radialGradient id="paint1_radial_3698_15488" cx="0" cy="0" r="1" gradientUnits="userSpaceOnUse" gradientTransform="translate(23.8947 46.2349) rotate(-90) scale(2.48291 56.2936)">
<stop stop-color="#C6C6C6"/>
<stop offset="1" stop-color="white"/>
</radialGradient>
<linearGradient id="paint2_linear_3698_15488" x1="38.8273" y1="28.3769" x2="30.8628" y2="17.341" gradientUnits="userSpaceOnUse">
<stop stop-color="#FFD33A"/>
<stop offset="1" stop-color="#FFE873"/>
</linearGradient>
<clipPath id="clip0_3698_15488">
<rect width="48" height="48" fill="white" transform="translate(0 0.5)"/>
</clipPath>
</defs>
</svg>
