<svg width="48" height="48" viewBox="0 0 48 48" fill="none" xmlns="http://www.w3.org/2000/svg">
<g>
<path d="M5 34V10C5 8.89543 5.89543 8 7 8H41C42.1046 8 43 8.89543 43 10V34" stroke="#03020D" stroke-width="1.5"/>
<path d="M0.75 35C0.75 34.8619 0.861929 34.75 1 34.75H17.0949C17.3567 34.75 17.6119 34.8322 17.8245 34.985L18.8653 35.733C19.3329 36.0692 19.8943 36.25 20.4703 36.25H27.5297C28.1057 36.25 28.6671 36.0692 29.1347 35.733L30.1755 34.985C30.3881 34.8322 30.6433 34.75 30.9051 34.75H47C47.1381 34.75 47.25 34.8619 47.25 35V38C47.25 38.1381 47.1381 38.25 47 38.25H0.999999C0.861929 38.25 0.75 38.1381 0.75 38V35Z" stroke="#03020D" stroke-width="1.5"/>
<path d="M20 18C20.5523 18 21 17.5523 21 17C21 16.4477 20.5523 16 20 16C19.4477 16 19 16.4477 19 17C19 17.5523 19.4477 18 20 18Z" fill="#03020D"/>
<path d="M28 18C28.5523 18 29 17.5523 29 17C29 16.4477 28.5523 16 28 16C27.4477 16 27 16.4477 27 17C27 17.5523 27.4477 18 28 18Z" fill="#03020D"/>
<path d="M32 22C30.8706 25.5 27.6706 28 24 28C20.3294 28 17.1294 25.5 16 22" stroke="#03020D" stroke-width="1.5" stroke-miterlimit="10" stroke-linecap="round" stroke-linejoin="round"/>
</g>
</svg>


