<svg width="48" height="48" viewBox="0 0 48 48" fill="none" xmlns="http://www.w3.org/2000/svg">
<path d="M47.25 8V40C47.25 40.6904 46.6904 41.25 46 41.25H2C1.30964 41.25 0.75 40.6904 0.75 40V8C0.75 7.30964 1.30964 6.75 2 6.75H46C46.6904 6.75 47.25 7.30964 47.25 8Z" stroke="#03020D" stroke-width="1.5"/>
<path d="M0.5 12H47.5" stroke="#03020D" stroke-width="1.5"/>
<path d="M3.25 10.25C3.80228 10.25 4.25 9.80228 4.25 9.25C4.25 8.69772 3.80228 8.25 3.25 8.25C2.69772 8.25 2.25 8.69772 2.25 9.25C2.25 9.80228 2.69772 10.25 3.25 10.25Z" fill="#03020D"/>
<path d="M6.25 10.25C6.80228 10.25 7.25 9.80228 7.25 9.25C7.25 8.69772 6.80228 8.25 6.25 8.25C5.69772 8.25 5.25 8.69772 5.25 9.25C5.25 9.80228 5.69772 10.25 6.25 10.25Z" fill="#03020D"/>
<path d="M9.25 10.25C9.80228 10.25 10.25 9.80228 10.25 9.25C10.25 8.69772 9.80228 8.25 9.25 8.25C8.69772 8.25 8.25 8.69772 8.25 9.25C8.25 9.80228 8.69772 10.25 9.25 10.25Z" fill="#03020D"/>
<path d="M24 29V33.5" stroke="#03020D" stroke-width="1.5" stroke-miterlimit="10" stroke-linejoin="bevel"/>
<path d="M25.6051 36H22.3949C17 36 17 31.8697 17 30.205V25H31V30.1839C31 31.8908 31 36 25.6051 36Z" stroke="#03020D" stroke-width="1.5" stroke-miterlimit="10" stroke-linecap="round" stroke-linejoin="round"/>
<path d="M19 25V21.1841C19 17.9874 21.2294 17 24 17C26.7706 17 29 17.9707 29 21.1841V25" stroke="#03020D" stroke-width="1.5" stroke-miterlimit="10" stroke-linecap="round" stroke-linejoin="round"/>
<path d="M24 30C24.8284 30 25.5 29.3284 25.5 28.5C25.5 27.6716 24.8284 27 24 27C23.1716 27 22.5 27.6716 22.5 28.5C22.5 29.3284 23.1716 30 24 30Z" fill="#03020D"/>
</svg>
