<svg width="48" height="48" viewBox="0 0 48 48" fill="none" xmlns="http://www.w3.org/2000/svg">
<path d="M40 18H22C19.7909 18 18 19.7909 18 22V32.4595C18 34.6686 19.7909 36.4595 22 36.4595H38.15L42.3124 40.4016C42.9497 41.0053 44 40.5534 44 39.6756V22C44 19.7909 42.2091 18 40 18Z" stroke="#03020D" stroke-width="1.5"/>
<path d="M8 6H26C28.2091 6 30 7.79086 30 10V20.4595C30 22.6686 28.2091 24.4595 26 24.4595H9.85L5.68764 28.4016C5.05027 29.0053 4 28.5534 4 27.6756V10C4 7.79086 5.79086 6 8 6Z" stroke="#03020D" stroke-width="1.5"/>
</svg>
