<svg width="48" height="42" viewBox="0 0 48 42" fill="none" xmlns="http://www.w3.org/2000/svg">
  <path fill-rule="evenodd" clip-rule="evenodd" d="M34.6654 23.0921L24.5365 17.7703L0.841309 30.2199L24.5365 42.8736L48.2317 30.2199L35.0096 23.2729L34.8557 22.9869L34.6654 23.0921ZM32.5886 24.24L24.5365 20.0094L15.947 24.5224L24.2312 28.8595L32.5886 24.24ZM13.814 25.6431L5.07579 30.2342L13.5536 34.7615L22.1523 30.0086L13.814 25.6431ZM15.6371 35.8742L24.5365 40.6266L33.3962 35.8953L24.2562 31.1101L15.6371 35.8742ZM35.5119 34.7655L43.9972 30.2342L34.6888 25.3435L26.335 29.961L35.5119 34.7655Z" fill="url(#paint0_linear)"/>
  <path d="M0.99707 24.2554L24.5366 11.9324L48.0762 24.2554L24.5366 36.7805L0.99707 24.2554Z" fill="url(#paint0_linear)" fill-opacity="0.75"/>
  <path fill-rule="evenodd" clip-rule="evenodd" d="M24.5365 5.84314L48.2317 18.2927L24.5365 30.9464L0.841309 18.2927L24.5365 5.84314ZM5.07579 18.3071L24.5365 28.6995L43.9972 18.3071L24.5365 8.08229L5.07579 18.3071Z" fill="#4B3B35"/>
  <path fill-rule="evenodd" clip-rule="evenodd" d="M25.1461 0.873535L26.4966 1.58312L25.5937 3.34787L25.1461 3.11268L24.6985 3.34787L23.7956 1.58312L25.1461 0.873535ZM22.9003 4.29263L21.1022 5.2374L20.1992 3.47265L21.9974 2.52788L22.9003 4.29263ZM29.19 5.2374L27.3919 4.29263L28.2948 2.52788L30.093 3.47265L29.19 5.2374ZM32.7864 7.12693L30.9882 6.18216L31.8911 4.41742L33.6893 5.36218L32.7864 7.12693ZM19.304 6.18217L17.5058 7.12693L16.6029 5.36218L18.4011 4.41742L19.304 6.18217ZM36.3827 9.01646L34.5845 8.0717L35.4874 6.30695L37.2856 7.25171L36.3827 9.01646ZM15.7077 8.0717L13.9095 9.01646L13.0066 7.25171L14.8048 6.30695L15.7077 8.0717ZM12.1114 9.96123L10.3132 10.906L9.41027 9.14125L11.2084 8.19648L12.1114 9.96123ZM39.979 10.906L38.1808 9.96123L39.0838 8.19648L40.8819 9.14125L39.979 10.906ZM8.51503 11.8508L6.71687 12.7955L5.81395 11.0308L7.61211 10.086L8.51503 11.8508ZM43.5753 12.7955L41.7772 11.8508L42.6801 10.086L44.4782 11.0308L43.5753 12.7955ZM4.34688 12.6227L4.01579 11.9755L1.45093 13.3231L4.00999 14.6897L4.34772 14.0403L4.91871 13.7403L4.7129 13.338L4.92451 12.9311L4.34688 12.6227ZM45.9445 14.0403L45.3735 13.7403L45.5793 13.338L45.3677 12.9311L45.9453 12.6227L46.2764 11.9755L48.8413 13.3231L46.2822 14.6897L45.9445 14.0403ZM41.7714 14.8516L43.5695 13.8914L44.484 15.65L42.6859 16.6102L41.7714 14.8516ZM6.72267 13.8914L8.52083 14.8516L7.60631 16.6102L5.80815 15.65L6.72267 13.8914ZM38.175 16.7721L39.9732 15.8119L40.8877 17.5705L39.0896 18.5307L38.175 16.7721ZM10.319 15.8119L12.1172 16.7721L11.2026 18.5307L9.40447 17.5705L10.319 15.8119ZM34.5787 18.6926L36.3769 17.7324L37.2914 19.491L35.4932 20.4513L34.5787 18.6926ZM13.9153 17.7324L15.7135 18.6927L14.799 20.4513L13.0008 19.491L13.9153 17.7324ZM17.5116 19.6529L19.3098 20.6132L18.3953 22.3718L16.5971 21.4115L17.5116 19.6529ZM30.9824 20.6132L32.7806 19.6529L33.6951 21.4115L31.8969 22.3718L30.9824 20.6132ZM21.108 21.5734L22.9061 22.5337L21.9916 24.2923L20.1934 23.332L21.108 21.5734ZM27.3861 22.5337L29.1842 21.5734L30.0988 23.332L28.3006 24.2923L27.3861 22.5337ZM25.1461 23.7299L24.7043 23.4939L23.7898 25.2525L25.1461 25.9768L26.5024 25.2525L25.5879 23.4939L25.1461 23.7299Z" fill="#ADA6A3"/>
  <defs>
    <linearGradient id="paint0_linear" x1="35.3254" y1="25.3504" x2="14.0934" y2="28.7416" gradientUnits="userSpaceOnUse">
      <stop stop-color="#FF0000"/>
      <stop offset="1" stop-color="#FB5519"/>
    </linearGradient>
  </defs>
</svg>

