<svg width="25" height="19" viewBox="0 0 25 19" fill="none" xmlns="http://www.w3.org/2000/svg">
<path d="M8.78125 19H0V12.7188C0 10.1771 0.21875 8.17708 0.65625 6.71875C1.11458 5.23958 1.94792 3.91667 3.15625 2.75C4.36458 1.58333 5.90625 0.666667 7.78125 0L9.5 3.625C7.75 4.20833 6.48958 5.02083 5.71875 6.0625C4.96875 7.10417 4.57292 8.48958 4.53125 10.2188H8.78125V19ZM23.4375 19H14.6562V12.7188C14.6562 10.1562 14.875 8.14583 15.3125 6.6875C15.7708 5.22917 16.6042 3.91667 17.8125 2.75C19.0417 1.58333 20.5833 0.666667 22.4375 0L24.1562 3.625C22.4062 4.20833 21.1458 5.02083 20.375 6.0625C19.625 7.10417 19.2292 8.48958 19.1875 10.2188H23.4375V19Z" fill="#FF5416"/>
</svg>
