<svg width="48" height="48" viewBox="0 0 48 48" fill="none" xmlns="http://www.w3.org/2000/svg">
<path d="M40 6H8C5.79086 6 4 7.79086 4 10V32C4 34.2091 5.79086 36 8 36H35L42.3861 41.7447C43.0429 42.2556 44 41.7875 44 40.9554V10C44 7.79086 42.2091 6 40 6Z" stroke="#03020D" stroke-width="1.5"/>
<path d="M33.1667 18.9167H32.0833C31.9167 18.1667 31.5833 17.4167 31.1667 16.75L31.9167 16C32.25 15.6667 32.25 15.1667 31.9167 14.8333L30.1667 13.0833C29.8333 12.75 29.3333 12.75 29 13.0833L28.25 13.8333C27.5833 13.4167 26.8333 13.1667 26.0833 12.9167V11.8333C26.0833 11.4167 25.6667 11 25.25 11H22.75C22.3333 11 21.9167 11.4167 21.9167 11.8333V12.9167C21.1667 13.1667 20.4167 13.4167 19.75 13.8333L19 13.0833C18.6667 12.75 18.1667 12.75 17.8333 13.0833L16.0833 14.8333C15.75 15.1667 15.75 15.6667 16.0833 16L16.8333 16.75C16.4167 17.4167 16.1667 18.1667 15.9167 18.9167H14.8333C14.4167 18.9167 14 19.3333 14 19.75V22.25C14 22.6667 14.4167 23.0833 14.8333 23.0833H15.9167C16.0833 23.8333 16.4167 24.5833 16.8333 25.25L16.0833 26C15.75 26.3333 15.75 26.8333 16.0833 27.1667L17.8333 28.9167C18.1667 29.25 18.6667 29.25 19 28.9167L19.75 28.1667C20.4167 28.5833 21.1667 28.8333 21.9167 29.0833V30.1667C21.9167 30.5833 22.3333 31 22.75 31H25.25C25.6667 31 26.0833 30.5833 26.0833 30.1667V29.0833C26.8333 28.9167 27.5833 28.5833 28.25 28.1667L29 28.9167C29.3333 29.25 29.8333 29.25 30.1667 28.9167L31.9167 27.1667C32.25 26.8333 32.25 26.3333 31.9167 26L31.1667 25.25C31.5833 24.5833 31.8333 23.8333 32.0833 23.0833H33.1667C33.5833 23.0833 34 22.6667 34 22.25V19.75C34 19.3333 33.5833 18.9167 33.1667 18.9167Z" stroke="#03020D" stroke-width="1.5" stroke-miterlimit="10"/>
<circle cx="24" cy="21" r="2.25" stroke="#03020D" stroke-width="1.5"/>
</svg>
