<svg width="32" height="22" viewBox="0 0 32 22" fill="none" xmlns="http://www.w3.org/2000/svg">
  <g clip-path="url(#clip0_1509_18255)">
    <path d="M30.525 3.44433C30.1655 2.09844 29.113 1.03726 27.778 0.6749C25.3391 0.00195312 15.5834 0.00195312 15.5834 0.00195312C15.5834 0.00195312 5.82773 0.00195312 3.38881 0.649017C2.0795 1.01137 1.00124 2.09844 0.64182 3.44433C0 5.90318 0 11.002 0 11.002C0 11.002 0 16.1268 0.64182 18.5597C1.00124 19.9056 2.05382 20.9668 3.38881 21.3292C5.8534 22.0021 15.5834 22.0021 15.5834 22.0021C15.5834 22.0021 25.3391 22.0021 27.778 21.3551C29.113 20.9927 30.1655 19.9315 30.525 18.5856C31.1668 16.1268 31.1668 11.0279 31.1668 11.0279C31.1668 11.0279 31.1925 5.90318 30.525 3.44433Z" fill="currentColor"/>
    <path d="M20.5892 11.0021L12.4766 6.2915V15.7128L20.5892 11.0021Z" fill="white"/>
  </g>
  <defs>
    <clipPath id="clip0_1509_18255">
      <rect width="31.1667" height="22" fill="white"/>
    </clipPath>
  </defs>
</svg>
