<svg width="64" height="77" viewBox="0 0 64 77" fill="none" xmlns="http://www.w3.org/2000/svg">
    <g filter="url(#filter0_dddd_1324_11888)">
        <path d="M8.92578 50.659L32.9418 62.8798L56.0458 50.659V2.87024H8.92578V50.659Z" fill="white"/>
        <path d="M56.5303 3.05286L8.4375 51.5105L33.3655 63.8529L56.5303 51.9969V3.05286Z" fill="#F2F3F2"/>
        <path d="M7.34375 18.8001V51.6929L8.19495 52.1185L32.211 64.3393L32.9405 64.7041L33.6702 64.3393L56.835 52.1185L57.6862 51.6929V1.28967H7.34375V18.8001ZM8.92455 50.7809V2.87047H56.1054V50.7809L32.9405 63.0017L8.92455 50.7809Z" fill="#DCDEDC"/>
        <path d="M32.5181 3.66087C32.7613 3.66087 33.0045 3.66087 33.2477 3.72167L32.5181 5.12007C31.4237 5.05927 30.4509 5.91047 30.3901 7.00487C30.3293 8.09927 31.1805 9.07207 32.2749 9.13287H32.5181C33.0045 9.13287 33.4909 8.95047 33.8557 8.64647L34.6461 9.98407C34.0381 10.4097 33.3085 10.6529 32.5181 10.6529C30.5725 10.7137 28.9309 9.25447 28.8701 7.30887C28.8093 5.36327 30.2685 3.72167 32.2141 3.66087H32.5181ZM35.0109 6.64007L35.9229 8.16007L35.0109 9.61927L34.1597 8.16007H32.3965L33.3085 6.64007H35.0109ZM33.5517 6.09287C33.5517 5.84967 33.6125 5.60647 33.7341 5.42407C33.8557 5.24167 34.0989 5.05927 34.2813 4.93767L34.4029 4.87687C34.6461 4.75527 34.7069 4.69447 34.7069 4.57287C34.7069 4.45127 34.5245 4.32967 34.4029 4.32967C34.1597 4.32967 33.9773 4.45127 33.8557 4.69447L33.5517 4.39047C33.6125 4.26887 33.7341 4.14727 33.8557 4.02567C34.0381 3.90407 34.2205 3.90407 34.4029 3.90407C34.5853 3.90407 34.8285 3.96487 34.9501 4.08647C35.0717 4.20807 35.1933 4.39047 35.1933 4.57287C35.1933 4.87687 35.0109 5.12007 34.6461 5.24167L34.4637 5.36327C34.2813 5.48487 34.1597 5.54567 34.0989 5.72807H35.1933V6.15367L33.5517 6.09287ZM32.5181 13.6929L38.2941 10.4097V1.28967H26.6813V10.3489L32.5181 13.6929ZM58.8445 35.2161H6.19169L4.24609 39.4721L6.19169 43.7281H58.8445L60.7293 39.4721L58.8445 35.2161Z" fill="#FF492C"/>
        <path d="M14.5172 26.0898C14.9185 26.0898 15.2711 26.1709 15.5751 26.333C15.8791 26.4951 16.1142 26.7282 16.2804 27.0322C16.4466 27.3321 16.5297 27.6767 16.5297 28.0658C16.5297 28.4509 16.4446 28.7893 16.2743 29.0812C16.1 29.3689 15.8568 29.5939 15.5447 29.756C15.2326 29.9182 14.8719 29.9992 14.4625 29.9992H13.1675C13.1391 29.9992 13.1249 30.0154 13.1249 30.0479V32.3704C13.1249 32.4029 13.1127 32.4292 13.0884 32.4495C13.0682 32.4697 13.0418 32.4799 13.0094 32.4799H11.9454C11.913 32.4799 11.8866 32.4697 11.8663 32.4495C11.8461 32.4292 11.8359 32.4029 11.8359 32.3704V26.1992C11.8359 26.1668 11.8461 26.1405 11.8663 26.1202C11.8866 26.0999 11.913 26.0898 11.9454 26.0898H14.5172ZM14.3227 28.9717C14.6064 28.9717 14.8314 28.8906 14.9975 28.7285C15.1678 28.5664 15.2529 28.3556 15.2529 28.0962C15.2529 27.8246 15.1678 27.6078 14.9975 27.4456C14.8314 27.2794 14.6064 27.1964 14.3227 27.1964H13.1675C13.1391 27.1964 13.1249 27.2126 13.1249 27.245V28.9231C13.1249 28.9555 13.1391 28.9717 13.1675 28.9717H14.3227ZM21.1323 29.6527C21.1647 29.8837 21.1748 30.1411 21.1627 30.4248C21.1586 30.5018 21.1201 30.5404 21.0471 30.5404H18.2321C18.1956 30.5404 18.1814 30.5545 18.1895 30.5829C18.2098 30.7045 18.2443 30.8261 18.2929 30.9477C18.451 31.2882 18.7732 31.4584 19.2596 31.4584C19.6487 31.4544 19.9548 31.2963 20.1777 30.9842C20.2061 30.9477 20.2344 30.9295 20.2628 30.9295C20.279 30.9295 20.2993 30.9416 20.3236 30.9659L20.9803 31.6104C21.0127 31.6429 21.0289 31.6712 21.0289 31.6955C21.0289 31.7077 21.0167 31.732 20.9924 31.7685C20.7898 32.0198 20.5324 32.2123 20.2203 32.3461C19.9 32.4839 19.5515 32.5528 19.1745 32.5528C18.6557 32.5528 18.2139 32.4353 17.8491 32.2002C17.4883 31.961 17.2289 31.6287 17.0708 31.2031C16.9411 30.8991 16.8763 30.5018 16.8763 30.0114C16.8763 29.675 16.9229 29.3791 17.0161 29.1237C17.158 28.6941 17.4032 28.3516 17.7518 28.0962C18.1004 27.8408 18.5138 27.7132 18.9921 27.7132C19.6001 27.7132 20.0885 27.8895 20.4574 28.2421C20.8262 28.5947 21.0512 29.0649 21.1323 29.6527ZM19.0043 28.8258C18.6192 28.8258 18.3659 29.0041 18.2443 29.3608C18.2199 29.4419 18.1997 29.5392 18.1835 29.6527C18.1835 29.681 18.1997 29.6952 18.2321 29.6952H19.8068C19.8433 29.6952 19.8555 29.681 19.8433 29.6527C19.8109 29.4784 19.7947 29.3933 19.7947 29.3973C19.742 29.2149 19.6467 29.073 19.5089 28.9717C19.3751 28.8744 19.2069 28.8258 19.0043 28.8258ZM24.2939 27.7314C24.5127 27.7314 24.687 27.774 24.8167 27.8591C24.8613 27.8834 24.8775 27.928 24.8654 27.9928L24.6769 29.0325C24.6728 29.1055 24.6303 29.1278 24.5492 29.0994C24.456 29.067 24.3506 29.0508 24.2331 29.0508C24.1844 29.0508 24.1155 29.0568 24.0263 29.069C23.8115 29.0893 23.6271 29.1703 23.4731 29.3122C23.3231 29.4541 23.2481 29.6446 23.2481 29.8837V32.3704C23.2481 32.4029 23.2359 32.4292 23.2116 32.4495C23.1914 32.4697 23.167 32.4799 23.1387 32.4799H22.0686C22.0402 32.4799 22.0139 32.4697 21.9895 32.4495C21.9693 32.4292 21.9591 32.4029 21.9591 32.3704V27.9016C21.9591 27.8733 21.9693 27.8469 21.9895 27.8226C22.0139 27.8023 22.0402 27.7922 22.0686 27.7922H23.1387C23.167 27.7922 23.1914 27.8023 23.2116 27.8226C23.2359 27.8469 23.2481 27.8733 23.2481 27.9016V28.2482C23.2481 28.2644 23.2542 28.2766 23.2663 28.2847C23.2744 28.2928 23.2826 28.2887 23.2907 28.2725C23.542 27.9118 23.8764 27.7314 24.2939 27.7314ZM28.179 27.7861C28.2114 27.7861 28.2378 27.7962 28.258 27.8165C28.2783 27.8368 28.2884 27.8631 28.2884 27.8955V28.7589C28.2884 28.7913 28.2783 28.8177 28.258 28.8379C28.2378 28.8582 28.2114 28.8684 28.179 28.8684H27.2974C27.265 28.8684 27.2487 28.8825 27.2487 28.9109V32.3704C27.2487 32.4029 27.2386 32.4292 27.2183 32.4495C27.1981 32.4697 27.1717 32.4799 27.1393 32.4799H26.0753C26.0429 32.4799 26.0165 32.4697 25.9963 32.4495C25.976 32.4292 25.9659 32.4029 25.9659 32.3704V28.9109C25.9659 28.8825 25.9496 28.8684 25.9172 28.8684H25.3822C25.3498 28.8684 25.3234 28.8582 25.3031 28.8379C25.2829 28.8177 25.2727 28.7913 25.2727 28.7589V27.8955C25.2727 27.8631 25.2829 27.8368 25.3031 27.8165C25.3234 27.7962 25.3498 27.7861 25.3822 27.7861H25.9172C25.9496 27.7861 25.9659 27.7699 25.9659 27.7375V27.5368C25.9659 27.1599 26.0226 26.866 26.1361 26.6552C26.2536 26.4485 26.4401 26.3006 26.6955 26.2114C26.9549 26.1222 27.3136 26.0837 27.7716 26.0959H28.1182C28.1466 26.0959 28.1709 26.106 28.1911 26.1263C28.2155 26.1506 28.2276 26.1769 28.2276 26.2053V26.941C28.2276 26.9734 28.2155 26.9998 28.1911 27.02C28.1709 27.0444 28.1466 27.0565 28.1182 27.0565H27.8142C27.6034 27.0606 27.4555 27.1031 27.3703 27.1842C27.2893 27.2693 27.2487 27.4213 27.2487 27.6402V27.7375C27.2487 27.7699 27.265 27.7861 27.2974 27.7861H28.179ZM30.8238 32.5528C30.3131 32.5528 29.8753 32.4191 29.5105 32.1516C29.1457 31.884 28.8964 31.5192 28.7627 31.0572C28.6775 30.7734 28.635 30.4633 28.635 30.1269C28.635 29.7702 28.6775 29.448 28.7627 29.1602C28.9045 28.7103 29.1579 28.3576 29.5227 28.1023C29.8875 27.8469 30.3252 27.7192 30.8359 27.7192C31.3304 27.7192 31.756 27.8449 32.1127 28.0962C32.4613 28.3516 32.7086 28.7042 32.8545 29.1541C32.9558 29.4581 33.0065 29.7763 33.0065 30.1087C33.0065 30.437 32.9639 30.745 32.8788 31.0328C32.7451 31.5071 32.4958 31.878 32.131 32.1455C31.7702 32.417 31.3345 32.5528 30.8238 32.5528ZM30.8238 31.4524C31.0224 31.4524 31.1926 31.3915 31.3345 31.2699C31.4764 31.1483 31.5777 30.9801 31.6385 30.7653C31.6831 30.5708 31.7054 30.358 31.7054 30.1269C31.7054 29.8716 31.6831 29.6567 31.6385 29.4824C31.5696 29.2757 31.4662 29.1136 31.3284 28.996C31.1866 28.8825 31.0143 28.8258 30.8116 28.8258C30.609 28.8258 30.4387 28.8825 30.3009 28.996C30.1631 29.1136 30.0638 29.2757 30.003 29.4824C29.9543 29.6243 29.93 29.8391 29.93 30.1269C29.93 30.4025 29.9523 30.6153 29.9969 30.7653C30.0577 30.9801 30.159 31.1483 30.3009 31.2699C30.4428 31.3915 30.6171 31.4524 30.8238 31.4524ZM36.1681 27.7314C36.387 27.7314 36.5613 27.774 36.691 27.8591C36.7396 27.8834 36.7558 27.928 36.7396 27.9928L36.5511 29.0325C36.5471 29.1055 36.5045 29.1278 36.4235 29.0994C36.3302 29.067 36.2248 29.0508 36.1073 29.0508C36.0587 29.0508 35.9918 29.0568 35.9067 29.069C35.6878 29.0893 35.5013 29.1703 35.3473 29.3122C35.1973 29.4541 35.1223 29.6446 35.1223 29.8837V32.3704C35.1223 32.4029 35.1102 32.4292 35.0859 32.4495C35.0656 32.4697 35.0392 32.4799 35.0068 32.4799H33.9428C33.9144 32.4799 33.8881 32.4697 33.8638 32.4495C33.8435 32.4292 33.8334 32.4029 33.8334 32.3704V27.9016C33.8334 27.8733 33.8435 27.8469 33.8638 27.8226C33.8881 27.8023 33.9144 27.7922 33.9428 27.7922H35.0068C35.0392 27.7922 35.0656 27.8023 35.0859 27.8226C35.1102 27.8469 35.1223 27.8733 35.1223 27.9016V28.2482C35.1223 28.2644 35.1264 28.2766 35.1345 28.2847C35.1507 28.2928 35.1608 28.2887 35.1649 28.2725C35.4162 27.9118 35.7506 27.7314 36.1681 27.7314ZM42.5217 27.7192C42.9959 27.7192 43.3668 27.8611 43.6343 28.1448C43.9019 28.4326 44.0356 28.8359 44.0356 29.3548V32.3704C44.0356 32.4029 44.0255 32.4292 44.0052 32.4495C43.985 32.4697 43.9606 32.4799 43.9323 32.4799H42.8622C42.8338 32.4799 42.8075 32.4697 42.7831 32.4495C42.7629 32.4292 42.7527 32.4029 42.7527 32.3704V29.6344C42.7527 29.3872 42.6899 29.1906 42.5643 29.0447C42.4346 28.8987 42.2623 28.8258 42.0475 28.8258C41.8367 28.8258 41.6644 28.8987 41.5307 29.0447C41.3969 29.1906 41.33 29.3852 41.33 29.6284V32.3704C41.33 32.4029 41.3199 32.4292 41.2996 32.4495C41.2753 32.4697 41.249 32.4799 41.2206 32.4799H40.1627C40.1302 32.4799 40.1039 32.4697 40.0836 32.4495C40.0634 32.4292 40.0532 32.4029 40.0532 32.3704V29.6344C40.0532 29.3912 39.9863 29.1946 39.8526 29.0447C39.7188 28.8987 39.5445 28.8258 39.3297 28.8258C39.1392 28.8258 38.9771 28.8825 38.8433 28.996C38.7136 29.1136 38.6366 29.2757 38.6123 29.4824V32.3704C38.6123 32.4029 38.6021 32.4292 38.5819 32.4495C38.5575 32.4697 38.5312 32.4799 38.5028 32.4799H37.4388C37.4064 32.4799 37.38 32.4697 37.3598 32.4495C37.3395 32.4292 37.3294 32.4029 37.3294 32.3704V27.9016C37.3294 27.8733 37.3395 27.8469 37.3598 27.8226C37.38 27.8023 37.4064 27.7922 37.4388 27.7922H38.5028C38.5312 27.7922 38.5575 27.8023 38.5819 27.8226C38.6021 27.8469 38.6123 27.8733 38.6123 27.9016V28.2604C38.6123 28.2766 38.6183 28.2887 38.6305 28.2968C38.6427 28.3009 38.6548 28.2928 38.667 28.2725C38.9183 27.9037 39.3054 27.7192 39.8283 27.7192C40.1323 27.7192 40.3978 27.7841 40.6247 27.9138C40.8517 28.0394 41.026 28.2218 41.1476 28.461C41.1638 28.4975 41.1861 28.4975 41.2145 28.461C41.3442 28.2097 41.5246 28.0232 41.7556 27.9016C41.9826 27.78 42.238 27.7192 42.5217 27.7192ZM49.0638 29.6527C49.1003 29.8837 49.1124 30.1411 49.1003 30.4248C49.0922 30.5018 49.0516 30.5404 48.9787 30.5404H46.1636C46.1271 30.5404 46.115 30.5545 46.1271 30.5829C46.1434 30.7045 46.1758 30.8261 46.2244 30.9477C46.3825 31.2882 46.7047 31.4584 47.1911 31.4584C47.5803 31.4544 47.8883 31.2963 48.1153 30.9842C48.1396 30.9477 48.166 30.9295 48.1943 30.9295C48.2146 30.9295 48.2369 30.9416 48.2612 30.9659L48.9179 31.6104C48.9462 31.6429 48.9604 31.6712 48.9604 31.6955C48.9604 31.7077 48.9483 31.732 48.9239 31.7685C48.7253 32.0198 48.4679 32.2123 48.1518 32.3461C47.8356 32.4839 47.4891 32.5528 47.1121 32.5528C46.5892 32.5528 46.1474 32.4353 45.7867 32.2002C45.4219 31.961 45.1604 31.6287 45.0023 31.2031C44.8767 30.8991 44.8139 30.5018 44.8139 30.0114C44.8139 29.675 44.8584 29.3791 44.9476 29.1237C45.0895 28.6941 45.3347 28.3516 45.6833 28.0962C46.0319 27.8408 46.4474 27.7132 46.9297 27.7132C47.5377 27.7132 48.0261 27.8895 48.395 28.2421C48.7638 28.5947 48.9868 29.0649 49.0638 29.6527ZM46.9358 28.8258C46.5548 28.8258 46.3035 29.0041 46.1819 29.3608C46.1575 29.4419 46.1352 29.5392 46.115 29.6527C46.115 29.681 46.1312 29.6952 46.1636 29.6952H47.7383C47.7748 29.6952 47.787 29.681 47.7748 29.6527C47.7464 29.4784 47.7323 29.3933 47.7323 29.3973C47.6755 29.2149 47.5803 29.073 47.4465 28.9717C47.3087 28.8744 47.1384 28.8258 46.9358 28.8258ZM52.2254 27.7314C52.4443 27.7314 52.6186 27.774 52.7483 27.8591C52.7969 27.8834 52.8151 27.928 52.803 27.9928L52.6145 29.0325C52.6064 29.1055 52.5618 29.1278 52.4807 29.0994C52.3916 29.067 52.2862 29.0508 52.1646 29.0508C52.1159 29.0508 52.0491 29.0568 51.9639 29.069C51.7451 29.0893 51.5586 29.1703 51.4046 29.3122C51.2546 29.4541 51.1796 29.6446 51.1796 29.8837V32.3704C51.1796 32.4029 51.1695 32.4292 51.1492 32.4495C51.1249 32.4697 51.0986 32.4799 51.0702 32.4799H50.0001C49.9717 32.4799 49.9474 32.4697 49.9271 32.4495C49.9028 32.4292 49.8907 32.4029 49.8907 32.3704V27.9016C49.8907 27.8733 49.9028 27.8469 49.9271 27.8226C49.9474 27.8023 49.9717 27.7922 50.0001 27.7922H51.0702C51.0986 27.7922 51.1249 27.8023 51.1492 27.8226C51.1695 27.8469 51.1796 27.8733 51.1796 27.9016V28.2482C51.1796 28.2644 51.1857 28.2766 51.1979 28.2847C51.21 28.2928 51.2202 28.2887 51.2283 28.2725C51.4755 27.9118 51.8079 27.7314 52.2254 27.7314ZM27.1393 17.0853C27.1393 17.0569 27.1494 17.0306 27.1697 17.0063C27.19 16.986 27.2143 16.9759 27.2427 16.9759H28.3127C28.3411 16.9759 28.3675 16.986 28.3918 17.0063C28.412 17.0306 28.4222 17.0569 28.4222 17.0853V23.2504C28.4222 23.2829 28.412 23.3092 28.3918 23.3295C28.3675 23.3497 28.3411 23.3599 28.3127 23.3599H27.2427C27.2143 23.3599 27.19 23.3497 27.1697 23.3295C27.1494 23.3092 27.1393 23.2829 27.1393 23.2504V20.7333C27.1393 20.7049 27.1231 20.6908 27.0907 20.6908H25.0721C25.0437 20.6908 25.0295 20.7049 25.0295 20.7333V23.2504C25.0295 23.2829 25.0194 23.3092 24.9991 23.3295C24.9748 23.3497 24.9485 23.3599 24.9201 23.3599H23.85C23.8216 23.3599 23.7973 23.3497 23.7771 23.3295C23.7527 23.3092 23.7406 23.2829 23.7406 23.2504V17.0853C23.7406 17.0569 23.7527 17.0306 23.7771 17.0063C23.7973 16.986 23.8216 16.9759 23.85 16.9759H24.9201C24.9485 16.9759 24.9748 16.986 24.9991 17.0063C25.0194 17.0306 25.0295 17.0569 25.0295 17.0853V19.5356C25.0295 19.568 25.0437 19.5842 25.0721 19.5842H27.0907C27.1231 19.5842 27.1393 19.568 27.1393 19.5356V17.0853ZM30.082 18.1432C29.8753 18.1432 29.703 18.0743 29.5652 17.9365C29.4274 17.8028 29.3585 17.6325 29.3585 17.4258C29.3585 17.211 29.4254 17.0367 29.5591 16.9029C29.6929 16.7692 29.8672 16.7023 30.082 16.7023C30.2968 16.7023 30.4711 16.7692 30.6049 16.9029C30.7387 17.0367 30.8055 17.211 30.8055 17.4258C30.8055 17.6325 30.7366 17.8028 30.5988 17.9365C30.461 18.0743 30.2887 18.1432 30.082 18.1432ZM29.5348 23.3599C29.5064 23.3599 29.4801 23.3497 29.4558 23.3295C29.4355 23.3092 29.4254 23.2829 29.4254 23.2504V18.7756C29.4254 18.7431 29.4355 18.7168 29.4558 18.6965C29.4801 18.6762 29.5064 18.6661 29.5348 18.6661H30.6049C30.6333 18.6661 30.6576 18.6762 30.6779 18.6965C30.7022 18.7168 30.7143 18.7431 30.7143 18.7756V23.2504C30.7143 23.2829 30.7022 23.3092 30.6779 23.3295C30.6576 23.3497 30.6333 23.3599 30.6049 23.3599H29.5348ZM34.5751 18.7816C34.5751 18.7533 34.5873 18.7269 34.6116 18.7026C34.6319 18.6823 34.6562 18.6722 34.6846 18.6722H35.7547C35.783 18.6722 35.8094 18.6823 35.8337 18.7026C35.854 18.7269 35.8641 18.7533 35.8641 18.7816V22.9404C35.8641 23.7348 35.6351 24.3023 35.1771 24.6428C34.719 24.9873 34.1272 25.1595 33.4017 25.1595C33.1869 25.1595 32.9498 25.1433 32.6903 25.1109C32.6295 25.1028 32.5991 25.0643 32.5991 24.9954L32.6356 24.053C32.6356 23.9719 32.6782 23.9375 32.7633 23.9496C32.9822 23.9861 33.1828 24.0044 33.3652 24.0044C33.7543 24.0044 34.0543 23.9213 34.2651 23.7551C34.4718 23.5808 34.5751 23.3072 34.5751 22.9343C34.5751 22.914 34.5691 22.9018 34.5569 22.8978C34.5447 22.8937 34.5326 22.8998 34.5204 22.916C34.2894 23.1633 33.953 23.2869 33.5111 23.2869C33.1139 23.2869 32.7511 23.1917 32.4228 23.0012C32.0904 22.8106 31.8533 22.5026 31.7115 22.077C31.6223 21.7973 31.5777 21.4345 31.5777 20.9887C31.5777 20.5144 31.6324 20.1294 31.7419 19.8335C31.8675 19.4606 32.0823 19.1626 32.3863 18.9397C32.6903 18.7127 33.045 18.5992 33.4503 18.5992C33.9165 18.5992 34.2732 18.7391 34.5204 19.0188C34.5326 19.0309 34.5447 19.035 34.5569 19.0309C34.5691 19.0269 34.5751 19.0167 34.5751 19.0005V18.7816ZM34.5022 21.7244C34.5508 21.546 34.5751 21.2967 34.5751 20.9765C34.5751 20.7901 34.5691 20.6462 34.5569 20.5448C34.5447 20.4394 34.5245 20.3401 34.4961 20.2469C34.4394 20.0848 34.3482 19.953 34.2225 19.8517C34.0968 19.7544 33.9388 19.7058 33.7483 19.7058C33.5659 19.7058 33.4118 19.7544 33.2862 19.8517C33.1565 19.953 33.0612 20.0848 33.0004 20.2469C32.9153 20.4293 32.8727 20.6766 32.8727 20.9887C32.8727 21.3291 32.9092 21.5724 32.9822 21.7183C33.0349 21.8845 33.1301 22.0162 33.2679 22.1135C33.4058 22.2148 33.5679 22.2655 33.7543 22.2655C33.9489 22.2655 34.111 22.2148 34.2407 22.1135C34.3664 22.0162 34.4535 21.8865 34.5022 21.7244ZM39.2324 18.5992C39.7188 18.5992 40.11 18.7492 40.4059 19.0492C40.7018 19.345 40.8497 19.7484 40.8497 20.2591V23.2504C40.8497 23.2829 40.8396 23.3092 40.8193 23.3295C40.799 23.3497 40.7747 23.3599 40.7463 23.3599H39.6763C39.6479 23.3599 39.6215 23.3497 39.5972 23.3295C39.577 23.3092 39.5668 23.2829 39.5668 23.2504V20.5205C39.5668 20.2814 39.4979 20.0848 39.3601 19.9308C39.2263 19.7808 39.046 19.7058 38.819 19.7058C38.596 19.7058 38.4157 19.7808 38.2779 19.9308C38.14 20.0848 38.0711 20.2814 38.0711 20.5205V23.2504C38.0711 23.2829 38.061 23.3092 38.0407 23.3295C38.0205 23.3497 37.9941 23.3599 37.9617 23.3599H36.8977C36.8653 23.3599 36.8389 23.3497 36.8187 23.3295C36.7984 23.3092 36.7883 23.2829 36.7883 23.2504V17.0853C36.7883 17.0569 36.7984 17.0306 36.8187 17.0063C36.8389 16.986 36.8653 16.9759 36.8977 16.9759H37.9617C37.9941 16.9759 38.0205 16.986 38.0407 17.0063C38.061 17.0306 38.0711 17.0569 38.0711 17.0853V19.1039C38.0711 19.1201 38.0772 19.1322 38.0894 19.1404C38.1015 19.1444 38.1096 19.1404 38.1137 19.1282C38.365 18.7756 38.7379 18.5992 39.2324 18.5992Z" fill="#252530"/>
        <path d="M24.1485 41.8919C23.8323 41.8919 23.5567 41.8412 23.3216 41.7399C23.0865 41.6385 22.9041 41.4967 22.7744 41.3143C22.6488 41.1319 22.5859 40.917 22.5859 40.6698V40.5178C22.5859 40.4975 22.594 40.4793 22.6103 40.4631C22.6224 40.4509 22.6386 40.4448 22.6589 40.4448H23.2C23.2203 40.4448 23.2385 40.4509 23.2547 40.4631C23.2669 40.4793 23.273 40.4975 23.273 40.5178V40.6333C23.273 40.8198 23.3561 40.9738 23.5223 41.0954C23.6884 41.221 23.9154 41.2839 24.2032 41.2839C24.4505 41.2839 24.6369 41.2312 24.7626 41.1258C24.8882 41.0204 24.9511 40.8846 24.9511 40.7184C24.9511 40.6049 24.9166 40.5076 24.8477 40.4266C24.7788 40.3496 24.6815 40.2786 24.5559 40.2138C24.4262 40.1489 24.2336 40.0679 23.9783 39.9706C23.6905 39.8652 23.4574 39.7659 23.2791 39.6727C23.1007 39.5794 22.9528 39.4517 22.8352 39.2896C22.7136 39.1315 22.6528 38.9329 22.6528 38.6938C22.6528 38.3371 22.7825 38.0554 23.0419 37.8487C23.3014 37.6419 23.6479 37.5386 24.0816 37.5386C24.3856 37.5386 24.6552 37.5913 24.8903 37.6967C25.1213 37.802 25.3017 37.95 25.4314 38.1405C25.5611 38.3269 25.6259 38.5438 25.6259 38.7911V38.8944C25.6259 38.9147 25.6178 38.9329 25.6016 38.9491C25.5895 38.9613 25.5732 38.9674 25.553 38.9674H25.0058C24.9855 38.9674 24.9693 38.9613 24.9571 38.9491C24.9409 38.9329 24.9328 38.9147 24.9328 38.8944V38.8275C24.9328 38.637 24.8558 38.4769 24.7018 38.3472C24.5437 38.2135 24.3268 38.1466 24.0512 38.1466C23.8283 38.1466 23.656 38.1932 23.5344 38.2864C23.4088 38.3796 23.3459 38.5114 23.3459 38.6816C23.3459 38.8032 23.3784 38.9025 23.4432 38.9795C23.5081 39.0565 23.6054 39.1255 23.7351 39.1863C23.8648 39.2511 24.0654 39.3322 24.337 39.4295C24.6248 39.5389 24.8558 39.6382 25.0301 39.7274C25.2003 39.8165 25.3483 39.9402 25.4739 40.0983C25.5955 40.2604 25.6563 40.461 25.6563 40.7002C25.6563 41.065 25.5206 41.3548 25.249 41.5696C24.9815 41.7844 24.6146 41.8919 24.1485 41.8919ZM28.0762 37.5811C28.3315 37.5811 28.5565 37.6338 28.7511 37.7392C28.9456 37.8446 29.0956 37.9925 29.201 38.1831C29.3104 38.3776 29.3651 38.6005 29.3651 38.8519C29.3651 39.0991 29.3104 39.318 29.201 39.5085C29.0915 39.699 28.9375 39.8449 28.7389 39.9463C28.5362 40.0516 28.3032 40.1043 28.0397 40.1043H27.0669C27.0466 40.1043 27.0365 40.1145 27.0365 40.1347V41.7703C27.0365 41.7905 27.0304 41.8067 27.0183 41.8189C27.002 41.8351 26.9838 41.8432 26.9635 41.8432H26.4042C26.3839 41.8432 26.3677 41.8351 26.3555 41.8189C26.3393 41.8067 26.3312 41.7905 26.3312 41.7703V37.6541C26.3312 37.6338 26.3393 37.6156 26.3555 37.5994C26.3677 37.5872 26.3839 37.5811 26.4042 37.5811H28.0762ZM27.9728 39.5328C28.1795 39.5328 28.3457 39.472 28.4714 39.3504C28.597 39.2288 28.6599 39.0687 28.6599 38.8701C28.6599 38.6674 28.597 38.5033 28.4714 38.3776C28.3457 38.252 28.1795 38.1891 27.9728 38.1891H27.0669C27.0466 38.1891 27.0365 38.1993 27.0365 38.2195V39.5024C27.0365 39.5227 27.0466 39.5328 27.0669 39.5328H27.9728ZM32.3747 41.8432C32.3342 41.8432 32.3058 41.825 32.2896 41.7885L31.4871 40.0375C31.479 40.0212 31.4668 40.0131 31.4506 40.0131H30.721C30.7007 40.0131 30.6906 40.0233 30.6906 40.0435V41.7703C30.6906 41.7905 30.6825 41.8067 30.6663 41.8189C30.6541 41.8351 30.6379 41.8432 30.6176 41.8432H30.0583C30.038 41.8432 30.0218 41.8351 30.0096 41.8189C29.9934 41.8067 29.9853 41.7905 29.9853 41.7703V37.6602C29.9853 37.6399 29.9934 37.6237 30.0096 37.6115C30.0218 37.5953 30.038 37.5872 30.0583 37.5872H31.7303C31.9775 37.5872 32.1964 37.6379 32.3869 37.7392C32.5774 37.8446 32.7253 37.9905 32.8307 38.177C32.9361 38.3675 32.9888 38.5843 32.9888 38.8275C32.9888 39.1072 32.9179 39.3443 32.776 39.5389C32.6301 39.7375 32.4295 39.8753 32.1741 39.9523C32.166 39.9523 32.1599 39.9564 32.1559 39.9645C32.1518 39.9726 32.1518 39.9807 32.1559 39.9888L33.0131 41.7581C33.0212 41.7743 33.0253 41.7865 33.0253 41.7946C33.0253 41.827 33.003 41.8432 32.9584 41.8432H32.3747ZM30.721 38.1952C30.7007 38.1952 30.6906 38.2053 30.6906 38.2256V39.4355C30.6906 39.4558 30.7007 39.4659 30.721 39.4659H31.633C31.8275 39.4659 31.9836 39.4072 32.1011 39.2896C32.2227 39.1761 32.2835 39.0241 32.2835 38.8336C32.2835 38.6431 32.2227 38.4891 32.1011 38.3715C31.9836 38.254 31.8275 38.1952 31.633 38.1952H30.721ZM33.7853 41.8432C33.765 41.8432 33.7468 41.8351 33.7306 41.8189C33.7184 41.8067 33.7123 41.7905 33.7123 41.7703V37.6602C33.7123 37.6399 33.7184 37.6237 33.7306 37.6115C33.7468 37.5953 33.765 37.5872 33.7853 37.5872H34.3447C34.3649 37.5872 34.3811 37.5953 34.3933 37.6115C34.4095 37.6237 34.4176 37.6399 34.4176 37.6602V41.7703C34.4176 41.7905 34.4095 41.8067 34.3933 41.8189C34.3811 41.8351 34.3649 41.8432 34.3447 41.8432H33.7853ZM37.7799 37.6602C37.7799 37.6399 37.788 37.6237 37.8042 37.6115C37.8163 37.5953 37.8326 37.5872 37.8528 37.5872H38.4122C38.4324 37.5872 38.4507 37.5953 38.4669 37.6115C38.4791 37.6237 38.4851 37.6399 38.4851 37.6602V41.7703C38.4851 41.7905 38.4791 41.8067 38.4669 41.8189C38.4507 41.8351 38.4324 41.8432 38.4122 41.8432H37.8711C37.8305 41.8432 37.8022 41.827 37.7859 41.7946L36.0349 38.9248C36.0268 38.9127 36.0187 38.9066 36.0106 38.9066C36.0025 38.9106 35.9984 38.9208 35.9984 38.937L36.0106 41.7703C36.0106 41.7905 36.0025 41.8067 35.9863 41.8189C35.9741 41.8351 35.9579 41.8432 35.9376 41.8432H35.3783C35.358 41.8432 35.3418 41.8351 35.3296 41.8189C35.3134 41.8067 35.3053 41.7905 35.3053 41.7703V37.6602C35.3053 37.6399 35.3134 37.6237 35.3296 37.6115C35.3418 37.5953 35.358 37.5872 35.3783 37.5872H35.9194C35.9599 37.5872 35.9883 37.6034 36.0045 37.6359L37.7495 40.5056C37.7576 40.5178 37.7657 40.5218 37.7738 40.5178C37.7819 40.5178 37.7859 40.5097 37.7859 40.4935L37.7799 37.6602ZM40.7955 41.8919C40.4915 41.8919 40.224 41.8331 39.993 41.7155C39.7619 41.5939 39.5836 41.4237 39.4579 41.2048C39.3323 40.9859 39.2695 40.7346 39.2695 40.4509V38.9795C39.2695 38.6917 39.3323 38.4384 39.4579 38.2195C39.5836 38.0047 39.7619 37.8365 39.993 37.7149C40.224 37.5973 40.4915 37.5386 40.7955 37.5386C41.0955 37.5386 41.361 37.5973 41.592 37.7149C41.819 37.8324 41.9953 37.9925 42.121 38.1952C42.2466 38.3979 42.3095 38.6269 42.3095 38.8823V38.9309C42.3095 38.9512 42.3034 38.9674 42.2912 38.9795C42.275 38.9957 42.2568 39.0039 42.2365 39.0039H41.6832C41.663 39.0039 41.6467 38.9957 41.6346 38.9795C41.6184 38.9674 41.6103 38.9512 41.6103 38.9309V38.9005C41.6103 38.6816 41.5353 38.5012 41.3853 38.3594C41.2394 38.2175 41.0428 38.1466 40.7955 38.1466C40.5483 38.1466 40.3497 38.2216 40.1997 38.3715C40.0497 38.5175 39.9747 38.712 39.9747 38.9552V40.4752C39.9747 40.7184 40.0538 40.915 40.2119 41.065C40.3699 41.2109 40.5746 41.2839 40.8259 41.2839C41.0691 41.2839 41.2617 41.219 41.4035 41.0893C41.5414 40.9636 41.6103 40.7893 41.6103 40.5664V40.1895C41.6103 40.1692 41.6001 40.1591 41.5799 40.1591H40.832C40.8118 40.1591 40.7935 40.1509 40.7773 40.1347C40.7651 40.1226 40.7591 40.1064 40.7591 40.0861V39.6362C40.7591 39.6159 40.7651 39.5997 40.7773 39.5875C40.7935 39.5713 40.8118 39.5632 40.832 39.5632H42.2365C42.2568 39.5632 42.275 39.5713 42.2912 39.5875C42.3034 39.5997 42.3095 39.6159 42.3095 39.6362V40.4144C42.3095 40.8805 42.1737 41.2433 41.9021 41.5027C41.6265 41.7621 41.2576 41.8919 40.7955 41.8919Z" fill="white"/>
        <path d="M24.3682 52.8237C24.356 52.8358 24.352 52.848 24.356 52.8602C24.3641 52.8723 24.3763 52.8784 24.3925 52.8784H26.782C26.8103 52.8784 26.8346 52.8885 26.8549 52.9088C26.8792 52.9291 26.8914 52.9534 26.8914 52.9818V53.839C26.8914 53.8674 26.8792 53.8917 26.8549 53.912C26.8346 53.9323 26.8103 53.9424 26.782 53.9424H22.8178C22.7854 53.9424 22.759 53.9323 22.7388 53.912C22.7185 53.8917 22.7084 53.8674 22.7084 53.839V53.0243C22.7084 52.9716 22.7266 52.927 22.7631 52.8906C23.0509 52.6109 23.3447 52.3049 23.6447 51.9725C23.9446 51.6401 24.1331 51.4334 24.2101 51.3523C24.3722 51.1578 24.5384 50.9713 24.7087 50.793C25.2437 50.2012 25.5112 49.7614 25.5112 49.4736C25.5112 49.2669 25.4383 49.0966 25.2924 48.9629C25.1464 48.8332 24.9559 48.7683 24.7208 48.7683C24.4857 48.7683 24.2952 48.8332 24.1493 48.9629C23.9993 49.0966 23.9244 49.273 23.9244 49.4918V49.7107C23.9244 49.7391 23.9142 49.7634 23.894 49.7837C23.8737 49.8039 23.8494 49.8141 23.821 49.8141H22.7813C22.7529 49.8141 22.7286 49.8039 22.7084 49.7837C22.684 49.7634 22.6719 49.7391 22.6719 49.7107V49.2973C22.6921 48.9811 22.7935 48.6994 22.9759 48.4522C23.1583 48.209 23.3994 48.0225 23.6994 47.8928C24.0034 47.7631 24.3439 47.6982 24.7208 47.6982C25.1383 47.6982 25.5011 47.7773 25.8092 47.9354C26.1172 48.0894 26.3543 48.2981 26.5205 48.5616C26.6908 48.8291 26.7759 49.123 26.7759 49.4432C26.7759 49.6905 26.713 49.9438 26.5874 50.2032C26.4658 50.4626 26.2814 50.7423 26.0341 51.0422C25.8517 51.2692 25.6551 51.4962 25.4444 51.7232C25.2336 51.9461 24.9194 52.2684 24.502 52.6899L24.3682 52.8237ZM29.7551 54.0397C29.1065 54.0397 28.5958 53.8593 28.2229 53.4986C27.846 53.1378 27.6575 52.6453 27.6575 52.0211V49.6925C27.6575 49.0804 27.846 48.5961 28.2229 48.2394C28.5958 47.8786 29.1065 47.6982 29.7551 47.6982C30.3996 47.6982 30.9123 47.8786 31.2933 48.2394C31.6703 48.5961 31.8588 49.0804 31.8588 49.6925V52.0211C31.8588 52.6453 31.6703 53.1378 31.2933 53.4986C30.9123 53.8593 30.3996 54.0397 29.7551 54.0397ZM29.7551 52.9757C30.0185 52.9757 30.2273 52.8946 30.3813 52.7325C30.5394 52.5703 30.6184 52.3535 30.6184 52.0819V49.656C30.6184 49.3885 30.5394 49.1737 30.3813 49.0115C30.2273 48.8494 30.0185 48.7683 29.7551 48.7683C29.4957 48.7683 29.2889 48.8494 29.1349 49.0115C28.9768 49.1737 28.8978 49.3885 28.8978 49.656V52.0819C28.8978 52.3535 28.9768 52.5703 29.1349 52.7325C29.2889 52.8946 29.4957 52.9757 29.7551 52.9757ZM34.3272 52.8237C34.3151 52.8358 34.313 52.848 34.3212 52.8602C34.3252 52.8723 34.3374 52.8784 34.3576 52.8784H36.7471C36.7754 52.8784 36.7998 52.8885 36.82 52.9088C36.8403 52.9291 36.8504 52.9534 36.8504 52.9818V53.839C36.8504 53.8674 36.8403 53.8917 36.82 53.912C36.7998 53.9323 36.7754 53.9424 36.7471 53.9424H32.7768C32.7485 53.9424 32.7241 53.9323 32.7039 53.912C32.6836 53.8917 32.6735 53.8674 32.6735 53.839V53.0243C32.6735 52.9716 32.6897 52.927 32.7221 52.8906C33.014 52.6109 33.3078 52.3049 33.6037 51.9725C33.9037 51.6401 34.0921 51.4334 34.1692 51.3523C34.3353 51.1578 34.5036 50.9713 34.6738 50.793C35.2088 50.2012 35.4764 49.7614 35.4764 49.4736C35.4764 49.2669 35.4034 49.0966 35.2575 48.9629C35.1075 48.8332 34.915 48.7683 34.6799 48.7683C34.4448 48.7683 34.2543 48.8332 34.1084 48.9629C33.9624 49.0966 33.8895 49.273 33.8895 49.4918V49.7107C33.8895 49.7391 33.8793 49.7634 33.8591 49.7837C33.8388 49.8039 33.8125 49.8141 33.78 49.8141H32.7404C32.712 49.8141 32.6877 49.8039 32.6674 49.7837C32.6471 49.7634 32.637 49.7391 32.637 49.7107V49.2973C32.6532 48.9811 32.7525 48.6994 32.9349 48.4522C33.1173 48.209 33.3605 48.0225 33.6645 47.8928C33.9685 47.7631 34.307 47.6982 34.6799 47.6982C35.0974 47.6982 35.4601 47.7773 35.7682 47.9354C36.0803 48.0894 36.3194 48.2981 36.4856 48.5616C36.6518 48.8291 36.7349 49.123 36.7349 49.4432C36.7349 49.6905 36.6741 49.9438 36.5525 50.2032C36.4269 50.4626 36.2404 50.7423 35.9932 51.0422C35.8108 51.2692 35.6142 51.4962 35.4034 51.7232C35.1926 51.9461 34.8785 52.2684 34.461 52.6899L34.3272 52.8237ZM42.0245 51.255C42.0529 51.255 42.0792 51.2652 42.1036 51.2854C42.1238 51.3057 42.134 51.33 42.134 51.3584V52.2522C42.134 52.2805 42.1238 52.3049 42.1036 52.3251C42.0792 52.3454 42.0529 52.3555 42.0245 52.3555H41.6476C41.6192 52.3555 41.605 52.3697 41.605 52.3981V53.839C41.605 53.8674 41.5949 53.8917 41.5746 53.912C41.5503 53.9323 41.5239 53.9424 41.4956 53.9424H40.468C40.4356 53.9424 40.4093 53.9323 40.389 53.912C40.3687 53.8917 40.3586 53.8674 40.3586 53.839V52.3981C40.3586 52.3697 40.3444 52.3555 40.316 52.3555H37.6104C37.5821 52.3555 37.5557 52.3454 37.5314 52.3251C37.5111 52.3049 37.501 52.2805 37.501 52.2522V51.5469C37.501 51.5104 37.5111 51.4658 37.5314 51.4131L39.1183 47.8502C39.1426 47.7975 39.1831 47.7712 39.2399 47.7712H40.3404C40.3809 47.7712 40.4093 47.7813 40.4255 47.8016C40.4417 47.8219 40.4397 47.8523 40.4194 47.8928L38.948 51.2003C38.944 51.2125 38.944 51.2246 38.948 51.2368C38.9561 51.249 38.9663 51.255 38.9784 51.255H40.316C40.3444 51.255 40.3586 51.2388 40.3586 51.2064V50.1181C40.3586 50.0857 40.3687 50.0593 40.389 50.039C40.4093 50.0188 40.4356 50.0086 40.468 50.0086H41.4956C41.5239 50.0086 41.5503 50.0188 41.5746 50.039C41.5949 50.0593 41.605 50.0857 41.605 50.1181V51.2064C41.605 51.2388 41.6192 51.255 41.6476 51.255H42.0245Z" fill="#252530"/>
    </g>
    <defs>
        <filter id="filter0_dddd_1324_11888" x="0.733083" y="0.406015" width="63.5338" height="76.1767" filterUnits="userSpaceOnUse" color-interpolation-filters="sRGB">
            <feFlood flood-opacity="0" result="BackgroundImageFix"/>
            <feColorMatrix in="SourceAlpha" type="matrix" values="0 0 0 0 0 0 0 0 0 0 0 0 0 0 0 0 0 0 127 0" result="hardAlpha"/>
            <feOffset dy="0.593985"/>
            <feGaussianBlur stdDeviation="0.593985"/>
            <feColorMatrix type="matrix" values="0 0 0 0 0.0117647 0 0 0 0 0.00784314 0 0 0 0 0.0509804 0 0 0 0.06 0"/>
            <feBlend mode="normal" in2="BackgroundImageFix" result="effect1_dropShadow_1324_11888"/>
            <feColorMatrix in="SourceAlpha" type="matrix" values="0 0 0 0 0 0 0 0 0 0 0 0 0 0 0 0 0 0 127 0" result="hardAlpha"/>
            <feOffset dy="2.07895"/>
            <feGaussianBlur stdDeviation="1.03947"/>
            <feColorMatrix type="matrix" values="0 0 0 0 0.0117647 0 0 0 0 0.00784314 0 0 0 0 0.0509804 0 0 0 0.05 0"/>
            <feBlend mode="normal" in2="effect1_dropShadow_1324_11888" result="effect2_dropShadow_1324_11888"/>
            <feColorMatrix in="SourceAlpha" type="matrix" values="0 0 0 0 0 0 0 0 0 0 0 0 0 0 0 0 0 0 127 0" result="hardAlpha"/>
            <feOffset dy="4.75188"/>
            <feGaussianBlur stdDeviation="1.33647"/>
            <feColorMatrix type="matrix" values="0 0 0 0 0.0117647 0 0 0 0 0.00784314 0 0 0 0 0.0509804 0 0 0 0.03 0"/>
            <feBlend mode="normal" in2="effect2_dropShadow_1324_11888" result="effect3_dropShadow_1324_11888"/>
            <feColorMatrix in="SourceAlpha" type="matrix" values="0 0 0 0 0 0 0 0 0 0 0 0 0 0 0 0 0 0 127 0" result="hardAlpha"/>
            <feOffset dy="8.31579"/>
            <feGaussianBlur stdDeviation="1.63346"/>
            <feColorMatrix type="matrix" values="0 0 0 0 0.0117647 0 0 0 0 0.00784314 0 0 0 0 0.0509804 0 0 0 0.01 0"/>
            <feBlend mode="normal" in2="effect3_dropShadow_1324_11888" result="effect4_dropShadow_1324_11888"/>
            <feBlend mode="normal" in="SourceGraphic" in2="effect4_dropShadow_1324_11888" result="shape"/>
        </filter>
    </defs>
</svg>
