<svg width="64" height="77" viewBox="0 0 64 77" fill="none" xmlns="http://www.w3.org/2000/svg">
    <g filter="url(#filter0_dddd_1324_11879)">
        <path d="M8.92578 50.659L32.9418 62.8798L56.0458 50.659V2.87024H8.92578V50.659Z" fill="white"/>
        <path d="M56.5303 3.05286L8.4375 51.5105L33.3655 63.8529L56.5303 51.9969V3.05286Z" fill="#F2F3F2"/>
        <path d="M7.34375 18.8001V51.6929L8.19495 52.1185L32.211 64.3393L32.9405 64.7041L33.6702 64.3393L56.835 52.1185L57.6862 51.6929V1.28967H7.34375V18.8001ZM8.92455 50.7809V2.87047H56.1054V50.7809L32.9405 63.0017L8.92455 50.7809Z" fill="#DCDEDC"/>
        <path d="M32.5126 3.66087C32.7558 3.66087 32.999 3.66087 33.2422 3.72167L32.5126 5.12007C31.4182 5.05927 30.4454 5.91047 30.3846 7.00487C30.3238 8.09927 31.175 9.07207 32.2694 9.13287H32.5126C32.999 9.13287 33.4854 8.95047 33.8502 8.64647L34.6406 9.98407C34.0326 10.4097 33.303 10.6529 32.5126 10.6529C30.567 10.7137 28.9254 9.25447 28.8646 7.30887C28.8038 5.36327 30.263 3.72167 32.2086 3.66087H32.5126ZM35.0054 6.64007L35.9174 8.16007L35.0054 9.61927L34.1542 8.16007H32.391L33.303 6.64007H35.0054ZM33.5462 6.09287C33.5462 5.84967 33.607 5.60647 33.7286 5.42407C33.8502 5.24167 34.0934 5.05927 34.2758 4.93767L34.3974 4.87687C34.6406 4.75527 34.7014 4.69447 34.7014 4.57287C34.7014 4.45127 34.519 4.32967 34.3974 4.32967C34.1542 4.32967 33.9718 4.45127 33.8502 4.69447L33.5462 4.39047C33.607 4.26887 33.7286 4.14727 33.8502 4.02567C34.0326 3.90407 34.215 3.90407 34.3974 3.90407C34.5798 3.90407 34.823 3.96487 34.9446 4.08647C35.0662 4.20807 35.1878 4.39047 35.1878 4.57287C35.1878 4.87687 35.0054 5.12007 34.6406 5.24167L34.4582 5.36327C34.2758 5.48487 34.1542 5.54567 34.0934 5.72807H35.1878V6.15367L33.5462 6.09287ZM32.5126 13.6929L38.2886 10.4097V1.28967H26.6758V10.3489L32.5126 13.6929Z" fill="#FF492C"/>
        <path d="M58.8445 35.2158H6.19169L4.24609 39.4718L6.19169 43.7278H58.8445L60.7293 39.4718L58.8445 35.2158Z" fill="#23CCA2"/>
        <path d="M18.7263 32.5529C18.2399 32.5529 17.8163 32.4759 17.4555 32.3219C17.0867 32.1638 16.805 31.9409 16.6104 31.6531C16.4118 31.3653 16.3125 31.0309 16.3125 30.6499V30.4492C16.3125 30.4168 16.3226 30.3905 16.3429 30.3702C16.3672 30.3499 16.3936 30.3398 16.4219 30.3398H17.4616C17.49 30.3398 17.5163 30.3499 17.5407 30.3702C17.5609 30.3905 17.5711 30.4168 17.5711 30.4492V30.583C17.5711 30.8262 17.6846 31.0309 17.9115 31.1971C18.1345 31.3673 18.4385 31.4524 18.8235 31.4524C19.1438 31.4524 19.3829 31.3835 19.541 31.2457C19.6991 31.1079 19.7781 30.9397 19.7781 30.7411C19.7781 30.5911 19.7295 30.4675 19.6322 30.3702C19.5349 30.2689 19.4032 30.1797 19.237 30.1027C19.0667 30.0297 18.8012 29.9264 18.4405 29.7926C18.0311 29.6507 17.6846 29.5068 17.4008 29.3609C17.1211 29.215 16.884 29.0164 16.6895 28.7651C16.499 28.5138 16.4037 28.2017 16.4037 27.8288C16.4037 27.464 16.499 27.1458 16.6895 26.8742C16.8759 26.5986 17.1353 26.3878 17.4677 26.2419C17.8041 26.096 18.1912 26.023 18.629 26.023C19.0911 26.023 19.5025 26.1061 19.8632 26.2723C20.224 26.4344 20.5077 26.6634 20.7144 26.9593C20.9171 27.2512 21.0184 27.5937 21.0184 27.9868V28.1206C21.0184 28.153 21.0083 28.1794 20.988 28.1996C20.9637 28.2199 20.9374 28.23 20.909 28.23H19.8632C19.8308 28.23 19.8044 28.2199 19.7842 28.1996C19.7599 28.1794 19.7477 28.153 19.7477 28.1206V28.0476C19.7477 27.7923 19.6443 27.5754 19.4376 27.3971C19.2268 27.2187 18.9391 27.1296 18.5743 27.1296C18.2865 27.1296 18.0635 27.1904 17.9055 27.312C17.7433 27.4295 17.6623 27.5957 17.6623 27.8105C17.6623 27.9645 17.7089 28.0922 17.8021 28.1936C17.8994 28.2989 18.0392 28.3922 18.2216 28.4732C18.4081 28.5543 18.6959 28.6658 19.085 28.8076C19.5187 28.9657 19.8571 29.1056 20.1003 29.2272C20.3476 29.3488 20.5705 29.5291 20.7691 29.7683C20.9678 30.0074 21.0671 30.3195 21.0671 30.7046C21.0671 31.2761 20.8563 31.726 20.4347 32.0544C20.0172 32.3867 19.4478 32.5529 18.7263 32.5529ZM24.6178 27.9017C24.6178 27.8733 24.6299 27.847 24.6543 27.8227C24.6745 27.8024 24.6988 27.7923 24.7272 27.7923H25.7973C25.8257 27.7923 25.852 27.8024 25.8763 27.8227C25.8966 27.847 25.9067 27.8733 25.9067 27.9017V32.3705C25.9067 32.4029 25.8966 32.4293 25.8763 32.4496C25.852 32.4698 25.8257 32.48 25.7973 32.48H24.7272C24.6988 32.48 24.6745 32.4698 24.6543 32.4496C24.6299 32.4293 24.6178 32.4029 24.6178 32.3705V32.0604C24.6178 32.0442 24.6117 32.0341 24.5995 32.03C24.5874 32.026 24.5752 32.0341 24.5631 32.0544C24.3199 32.3786 23.9429 32.5408 23.4322 32.5408C22.9701 32.5408 22.5911 32.4029 22.2952 32.1273C21.9953 31.8476 21.8453 31.4545 21.8453 30.9478V27.9017C21.8453 27.8733 21.8575 27.847 21.8818 27.8227C21.902 27.8024 21.9264 27.7923 21.9547 27.7923H23.0127C23.0451 27.7923 23.0714 27.8024 23.0917 27.8227C23.112 27.847 23.1221 27.8733 23.1221 27.9017V30.6316C23.1221 30.8748 23.189 31.0714 23.3227 31.2214C23.4524 31.3754 23.6328 31.4524 23.8639 31.4524C24.0706 31.4524 24.2408 31.3896 24.3746 31.264C24.5083 31.1383 24.5894 30.9762 24.6178 30.7776V27.9017ZM31.0383 29.0508C31.1477 29.3589 31.2024 29.7237 31.2024 30.1452C31.2024 30.5668 31.1457 30.9478 31.0322 31.2883C30.8903 31.6774 30.6694 31.9854 30.3695 32.2124C30.0695 32.4394 29.6966 32.5529 29.2507 32.5529C28.813 32.5529 28.4725 32.4009 28.2293 32.0969C28.2171 32.0807 28.205 32.0746 28.1928 32.0787C28.1807 32.0827 28.1746 32.0949 28.1746 32.1152V34.0668C28.1746 34.0993 28.1644 34.1256 28.1442 34.1459C28.1239 34.1661 28.0976 34.1763 28.0651 34.1763H27.0011C26.9687 34.1763 26.9424 34.1661 26.9221 34.1459C26.9018 34.1256 26.8917 34.0993 26.8917 34.0668V27.9017C26.8917 27.8733 26.9018 27.847 26.9221 27.8227C26.9424 27.8024 26.9687 27.7923 27.0011 27.7923H28.0651C28.0976 27.7923 28.1239 27.8024 28.1442 27.8227C28.1644 27.847 28.1746 27.8733 28.1746 27.9017V28.1996C28.1746 28.2199 28.1807 28.2321 28.1928 28.2361C28.205 28.2402 28.2171 28.2361 28.2293 28.224C28.4847 27.8875 28.8373 27.7193 29.2872 27.7193C29.7088 27.7193 30.0736 27.8369 30.3816 28.072C30.6856 28.307 30.9045 28.6333 31.0383 29.0508ZM29.6459 31.0937C29.7959 30.8586 29.8709 30.5364 29.8709 30.127C29.8709 29.746 29.8081 29.442 29.6824 29.215C29.5406 28.9556 29.3156 28.8259 29.0075 28.8259C28.7279 28.8259 28.5171 28.9556 28.3752 29.215C28.2496 29.4339 28.1867 29.7419 28.1867 30.1392C28.1867 30.5445 28.2536 30.8606 28.3874 31.0876C28.5252 31.3308 28.7319 31.4524 29.0075 31.4524C29.2791 31.4524 29.4919 31.3329 29.6459 31.0937ZM36.2184 29.0508C36.3279 29.3589 36.3826 29.7237 36.3826 30.1452C36.3826 30.5668 36.3258 30.9478 36.2123 31.2883C36.0705 31.6774 35.8496 31.9854 35.5496 32.2124C35.2497 32.4394 34.8768 32.5529 34.4309 32.5529C33.9931 32.5529 33.6527 32.4009 33.4095 32.0969C33.3973 32.0807 33.3851 32.0746 33.373 32.0787C33.3608 32.0827 33.3547 32.0949 33.3547 32.1152V34.0668C33.3547 34.0993 33.3446 34.1256 33.3243 34.1459C33.3041 34.1661 33.2777 34.1763 33.2453 34.1763H32.1813C32.1489 34.1763 32.1225 34.1661 32.1023 34.1459C32.082 34.1256 32.0719 34.0993 32.0719 34.0668V27.9017C32.0719 27.8733 32.082 27.847 32.1023 27.8227C32.1225 27.8024 32.1489 27.7923 32.1813 27.7923H33.2453C33.2777 27.7923 33.3041 27.8024 33.3243 27.8227C33.3446 27.847 33.3547 27.8733 33.3547 27.9017V28.1996C33.3547 28.2199 33.3608 28.2321 33.373 28.2361C33.3851 28.2402 33.3973 28.2361 33.4095 28.224C33.6648 27.8875 34.0175 27.7193 34.4674 27.7193C34.8889 27.7193 35.2537 27.8369 35.5618 28.072C35.8658 28.307 36.0847 28.6333 36.2184 29.0508ZM34.8261 31.0937C34.9761 30.8586 35.0511 30.5364 35.0511 30.127C35.0511 29.746 34.9882 29.442 34.8626 29.215C34.7207 28.9556 34.4958 28.8259 34.1877 28.8259C33.908 28.8259 33.6972 28.9556 33.5554 29.215C33.4297 29.4339 33.3669 29.7419 33.3669 30.1392C33.3669 30.5445 33.4338 30.8606 33.5675 31.0876C33.7054 31.3308 33.9121 31.4524 34.1877 31.4524C34.4593 31.4524 34.6721 31.3329 34.8261 31.0937ZM39.2584 32.5529C38.7477 32.5529 38.3099 32.4192 37.9451 32.1516C37.5803 31.8841 37.3311 31.5193 37.1973 31.0572C37.1122 30.7735 37.0696 30.4634 37.0696 30.127C37.0696 29.7703 37.1122 29.4481 37.1973 29.1603C37.3351 28.7104 37.5864 28.3577 37.9512 28.1024C38.316 27.847 38.7558 27.7193 39.2706 27.7193C39.7651 27.7193 40.1887 27.845 40.5413 28.0963C40.898 28.3516 41.1493 28.7043 41.2952 29.1542C41.3884 29.4582 41.4351 29.7764 41.4351 30.1088C41.4351 30.4371 41.3945 30.7451 41.3135 31.0329C41.1756 31.5072 40.9264 31.878 40.5656 32.1456C40.2049 32.4171 39.7691 32.5529 39.2584 32.5529ZM39.2584 31.4524C39.457 31.4524 39.6273 31.3916 39.7691 31.27C39.907 31.1484 40.0063 30.9802 40.0671 30.7654C40.1157 30.5708 40.14 30.358 40.14 30.127C40.14 29.8716 40.1157 29.6568 40.0671 29.4825C40.0022 29.2758 39.8988 29.1137 39.757 28.9961C39.6192 28.8826 39.451 28.8259 39.2523 28.8259C39.0416 28.8259 38.8693 28.8826 38.7355 28.9961C38.5977 29.1137 38.4984 29.2758 38.4376 29.4825C38.389 29.6244 38.3647 29.8392 38.3647 30.127C38.3647 30.4026 38.3849 30.6154 38.4255 30.7654C38.4863 30.9802 38.5896 31.1484 38.7355 31.27C38.8774 31.3916 39.0517 31.4524 39.2584 31.4524ZM44.6027 27.7315C44.8216 27.7315 44.9959 27.774 45.1256 27.8592C45.1743 27.8835 45.1925 27.9281 45.1803 27.9929L44.9858 29.0326C44.9817 29.1056 44.9392 29.1278 44.8581 29.0995C44.7689 29.067 44.6635 29.0508 44.5419 29.0508C44.4892 29.0508 44.4224 29.0569 44.3413 29.0691C44.1224 29.0893 43.936 29.1704 43.7819 29.3123C43.632 29.4541 43.557 29.6446 43.557 29.8838V32.3705C43.557 32.4029 43.5448 32.4293 43.5205 32.4496C43.5002 32.4698 43.4759 32.48 43.4475 32.48H42.3775C42.3491 32.48 42.3227 32.4698 42.2984 32.4496C42.2782 32.4293 42.268 32.4029 42.268 32.3705V27.9017C42.268 27.8733 42.2782 27.847 42.2984 27.8227C42.3227 27.8024 42.3491 27.7923 42.3775 27.7923H43.4475C43.4759 27.7923 43.5002 27.8024 43.5205 27.8227C43.5448 27.847 43.557 27.8733 43.557 27.9017V28.2483C43.557 28.2645 43.5631 28.2766 43.5752 28.2848C43.5874 28.2929 43.5955 28.2888 43.5995 28.2726C43.8508 27.9118 44.1852 27.7315 44.6027 27.7315ZM48.5061 28.7164C48.5061 28.7448 48.496 28.7691 48.4757 28.7894C48.4554 28.8137 48.4291 28.8259 48.3967 28.8259H47.5211C47.4928 28.8259 47.4786 28.8401 47.4786 28.8684V30.8019C47.4786 31.0005 47.5191 31.1505 47.6002 31.2518C47.6812 31.3491 47.813 31.3977 47.9954 31.3977H48.2994C48.3278 31.3977 48.3521 31.4078 48.3723 31.4281C48.3967 31.4484 48.4088 31.4747 48.4088 31.5072V32.3705C48.4088 32.4394 48.3723 32.4779 48.2994 32.486C48.044 32.4982 47.8616 32.5043 47.7522 32.5043C47.2455 32.5043 46.8686 32.4212 46.6213 32.255C46.37 32.0888 46.2423 31.7747 46.2383 31.3126V28.8684C46.2383 28.8401 46.222 28.8259 46.1896 28.8259H45.6728C45.6404 28.8259 45.614 28.8137 45.5938 28.7894C45.5735 28.7691 45.5634 28.7448 45.5634 28.7164V27.9017C45.5634 27.8733 45.5735 27.847 45.5938 27.8227C45.614 27.8024 45.6404 27.7923 45.6728 27.7923H46.1896C46.222 27.7923 46.2383 27.7761 46.2383 27.7436V26.6614C46.2383 26.633 46.2484 26.6067 46.2687 26.5824C46.2889 26.5621 46.3153 26.552 46.3477 26.552H47.3691C47.3975 26.552 47.4218 26.5621 47.4421 26.5824C47.4664 26.6067 47.4786 26.633 47.4786 26.6614V27.7436C47.4786 27.7761 47.4928 27.7923 47.5211 27.7923H48.3967C48.4291 27.7923 48.4554 27.8024 48.4757 27.8227C48.496 27.847 48.5061 27.8733 48.5061 27.9017V28.7164ZM27.2079 20.0342C27.1714 20.0504 27.1714 20.0686 27.2079 20.0889C27.7834 20.3848 28.0712 20.8793 28.0712 21.5724C28.0712 22.1642 27.8706 22.6101 27.4693 22.91C27.068 23.21 26.5431 23.36 25.8946 23.36H23.5295C23.5011 23.36 23.4768 23.3498 23.4565 23.3296C23.4322 23.3093 23.42 23.2829 23.42 23.2505V17.0854C23.42 17.057 23.4322 17.0307 23.4565 17.0064C23.4768 16.9861 23.5011 16.976 23.5295 16.976H25.8216C27.2606 16.976 27.98 17.5596 27.98 18.727C27.98 19.335 27.7226 19.7707 27.2079 20.0342ZM24.7515 18.0764C24.7232 18.0764 24.709 18.0926 24.709 18.1251V19.5478C24.709 19.5802 24.7232 19.5964 24.7515 19.5964H25.8216C26.1054 19.5964 26.3283 19.5296 26.4904 19.3958C26.6444 19.262 26.7215 19.0796 26.7215 18.8486C26.7215 18.6094 26.6444 18.421 26.4904 18.2832C26.3283 18.1453 26.1054 18.0764 25.8216 18.0764H24.7515ZM25.8946 22.2473C26.1743 22.2473 26.3931 22.1764 26.5512 22.0345C26.7093 21.8926 26.7883 21.6961 26.7883 21.4448C26.7883 21.1975 26.7093 21.0009 26.5512 20.855C26.3931 20.7131 26.1702 20.6422 25.8824 20.6422H24.7515C24.7232 20.6422 24.709 20.6584 24.709 20.6908V22.1987C24.709 22.2311 24.7232 22.2473 24.7515 22.2473H25.8946ZM33.1419 20.5328C33.1784 20.7638 33.1906 21.0212 33.1784 21.3049C33.1744 21.3819 33.1359 21.4204 33.0629 21.4204H30.2418C30.2053 21.4204 30.1931 21.4346 30.2053 21.463C30.2256 21.5846 30.26 21.7062 30.3087 21.8278C30.4667 22.1683 30.789 22.3385 31.2754 22.3385C31.6645 22.3345 31.9705 22.1764 32.1935 21.8643C32.2178 21.8278 32.2462 21.8096 32.2786 21.8096C32.2948 21.8096 32.3151 21.8217 32.3394 21.846L32.996 22.4905C33.0284 22.5229 33.0447 22.5513 33.0447 22.5756C33.0447 22.5878 33.0325 22.6121 33.0082 22.6486C32.8055 22.8999 32.5461 23.0924 32.2299 23.2262C31.9178 23.364 31.5713 23.4329 31.1903 23.4329C30.6674 23.4329 30.2256 23.3154 29.8648 23.0803C29.5041 22.8411 29.2447 22.5088 29.0866 22.0832C28.9569 21.7792 28.892 21.3819 28.892 20.8915C28.892 20.555 28.9386 20.2592 29.0319 20.0038C29.1697 19.5741 29.4149 19.2316 29.7675 18.9763C30.1161 18.7209 30.5296 18.5932 31.0079 18.5932C31.6159 18.5932 32.1043 18.7696 32.4731 19.1222C32.842 19.4748 33.0649 19.945 33.1419 20.5328ZM31.02 19.7059C30.635 19.7059 30.3816 19.8842 30.26 20.2409C30.2357 20.322 30.2154 20.4193 30.1992 20.5328C30.1992 20.5611 30.2134 20.5753 30.2418 20.5753H31.8226C31.8591 20.5753 31.8712 20.5611 31.8591 20.5328C31.8266 20.3585 31.8104 20.2733 31.8104 20.2774C31.7577 20.095 31.6625 19.9531 31.5247 19.8518C31.3868 19.7545 31.2186 19.7059 31.02 19.7059ZM35.7807 23.4208C35.3713 23.4208 35.0146 23.364 34.7106 23.2505C34.4066 23.137 34.1715 22.9769 34.0053 22.7702C33.8391 22.5635 33.756 22.3284 33.756 22.0649V21.9737C33.756 21.9453 33.7662 21.919 33.7864 21.8947C33.8067 21.8744 33.833 21.8643 33.8655 21.8643H34.8747C34.9072 21.8643 34.9335 21.8744 34.9538 21.8947C34.974 21.919 34.9842 21.9453 34.9842 21.9737V21.9798C34.9842 22.1176 35.0592 22.2331 35.2091 22.3264C35.3591 22.4196 35.5456 22.4662 35.7685 22.4662C35.9752 22.4662 36.1434 22.4257 36.2731 22.3446C36.3988 22.2595 36.4616 22.1581 36.4616 22.0406C36.4616 21.9312 36.4069 21.8481 36.2975 21.7913C36.188 21.7386 36.0097 21.6819 35.7624 21.6211C35.4746 21.5481 35.2497 21.4772 35.0875 21.4083C34.6984 21.2745 34.3883 21.1104 34.1573 20.9158C33.9263 20.7212 33.8107 20.4416 33.8107 20.0768C33.8107 19.6268 33.985 19.2701 34.3336 19.0067C34.6822 18.7432 35.1463 18.6115 35.7259 18.6115C36.1151 18.6115 36.4555 18.6723 36.7474 18.7939C37.0392 18.9195 37.2662 19.0958 37.4283 19.3228C37.5864 19.5458 37.6655 19.8011 37.6655 20.0889C37.6655 20.1173 37.6553 20.1416 37.6351 20.1619C37.6148 20.1821 37.5884 20.1923 37.556 20.1923H36.5832C36.5508 20.1923 36.5244 20.1821 36.5042 20.1619C36.4839 20.1416 36.4738 20.1173 36.4738 20.0889C36.4738 19.9552 36.4049 19.8417 36.2671 19.7484C36.1292 19.6552 35.9489 19.6086 35.7259 19.6086C35.5233 19.6086 35.3591 19.6471 35.2335 19.7241C35.1038 19.7971 35.0389 19.8964 35.0389 20.022C35.0389 20.1436 35.1017 20.2348 35.2274 20.2956C35.353 20.3564 35.5618 20.4213 35.8536 20.4902C35.9185 20.5064 35.9935 20.5246 36.0786 20.5449C36.1637 20.5652 36.2549 20.5915 36.3522 20.624C36.7859 20.7537 37.1264 20.9178 37.3736 21.1164C37.6249 21.3191 37.7506 21.6109 37.7506 21.992C37.7506 22.4419 37.5722 22.7925 37.2155 23.0438C36.8588 23.2951 36.3806 23.4208 35.7807 23.4208ZM41.1675 19.5964C41.1675 19.6248 41.1574 19.6491 41.1371 19.6694C41.1169 19.6937 41.0905 19.7059 41.0581 19.7059H40.1826C40.1542 19.7059 40.14 19.7201 40.14 19.7484V21.6819C40.14 21.8805 40.1806 22.0305 40.2616 22.1318C40.3427 22.2291 40.4764 22.2777 40.6629 22.2777H40.9608C40.9892 22.2777 41.0155 22.2878 41.0399 22.3081C41.0601 22.3284 41.0703 22.3547 41.0703 22.3872V23.2505C41.0703 23.3194 41.0338 23.3579 40.9608 23.366C40.7055 23.3782 40.5231 23.3843 40.4136 23.3843C39.907 23.3843 39.53 23.3012 39.2827 23.135C39.0314 22.9688 38.9038 22.6547 38.8997 22.1926V19.7484C38.8997 19.7201 38.8835 19.7059 38.8511 19.7059H38.3343C38.3018 19.7059 38.2755 19.6937 38.2552 19.6694C38.235 19.6491 38.2248 19.6248 38.2248 19.5964V18.7817C38.2248 18.7533 38.235 18.727 38.2552 18.7027C38.2755 18.6824 38.3018 18.6723 38.3343 18.6723H38.8511C38.8835 18.6723 38.8997 18.6561 38.8997 18.6236V17.5414C38.8997 17.513 38.9098 17.4867 38.9301 17.4624C38.9504 17.4421 38.9767 17.432 39.0091 17.432H40.0306C40.059 17.432 40.0853 17.4421 40.1096 17.4624C40.1299 17.4867 40.14 17.513 40.14 17.5414V18.6236C40.14 18.6561 40.1542 18.6723 40.1826 18.6723H41.0581C41.0905 18.6723 41.1169 18.6824 41.1371 18.7027C41.1574 18.727 41.1675 18.7533 41.1675 18.7817V19.5964Z" fill="#252530"/>
        <path d="M24.1524 41.8919C23.8362 41.8919 23.5606 41.8412 23.3255 41.7399C23.0904 41.6385 22.908 41.4967 22.7783 41.3143C22.6527 41.1319 22.5898 40.917 22.5898 40.6698V40.5178C22.5898 40.4975 22.598 40.4793 22.6142 40.4631C22.6263 40.4509 22.6425 40.4448 22.6628 40.4448H23.2039C23.2242 40.4448 23.2424 40.4509 23.2586 40.4631C23.2708 40.4793 23.2769 40.4975 23.2769 40.5178V40.6333C23.2769 40.8198 23.36 40.9738 23.5262 41.0954C23.6924 41.221 23.9193 41.2839 24.2071 41.2839C24.4544 41.2839 24.6408 41.2312 24.7665 41.1258C24.8921 41.0204 24.955 40.8846 24.955 40.7184C24.955 40.6049 24.9205 40.5076 24.8516 40.4266C24.7827 40.3496 24.6854 40.2786 24.5598 40.2138C24.4301 40.1489 24.2375 40.0679 23.9822 39.9706C23.6944 39.8652 23.4613 39.7659 23.283 39.6727C23.1046 39.5794 22.9567 39.4517 22.8391 39.2896C22.7175 39.1315 22.6567 38.9329 22.6567 38.6938C22.6567 38.3371 22.7864 38.0554 23.0458 37.8487C23.3053 37.6419 23.6518 37.5386 24.0855 37.5386C24.3895 37.5386 24.6591 37.5913 24.8942 37.6967C25.1252 37.802 25.3056 37.95 25.4353 38.1405C25.565 38.3269 25.6298 38.5438 25.6298 38.7911V38.8944C25.6298 38.9147 25.6217 38.9329 25.6055 38.9491C25.5934 38.9613 25.5772 38.9674 25.5569 38.9674H25.0097C24.9894 38.9674 24.9732 38.9613 24.961 38.9491C24.9448 38.9329 24.9367 38.9147 24.9367 38.8944V38.8275C24.9367 38.637 24.8597 38.4769 24.7057 38.3472C24.5476 38.2135 24.3308 38.1466 24.0551 38.1466C23.8322 38.1466 23.6599 38.1932 23.5383 38.2864C23.4127 38.3796 23.3498 38.5114 23.3498 38.6816C23.3498 38.8032 23.3823 38.9025 23.4471 38.9795C23.512 39.0565 23.6093 39.1255 23.739 39.1863C23.8687 39.2511 24.0693 39.3322 24.3409 39.4295C24.6287 39.5389 24.8597 39.6382 25.034 39.7274C25.2042 39.8165 25.3522 39.9402 25.4778 40.0983C25.5994 40.2604 25.6602 40.461 25.6602 40.7002C25.6602 41.065 25.5245 41.3548 25.2529 41.5696C24.9854 41.7844 24.6185 41.8919 24.1524 41.8919ZM28.0801 37.5811C28.3354 37.5811 28.5604 37.6338 28.755 37.7392C28.9495 37.8446 29.0995 37.9925 29.2049 38.1831C29.3143 38.3776 29.369 38.6005 29.369 38.8519C29.369 39.0991 29.3143 39.318 29.2049 39.5085C29.0954 39.699 28.9414 39.8449 28.7428 39.9463C28.5401 40.0516 28.3071 40.1043 28.0436 40.1043H27.0708C27.0505 40.1043 27.0404 40.1145 27.0404 40.1347V41.7703C27.0404 41.7905 27.0343 41.8067 27.0222 41.8189C27.006 41.8351 26.9877 41.8432 26.9674 41.8432H26.4081C26.3878 41.8432 26.3716 41.8351 26.3594 41.8189C26.3432 41.8067 26.3351 41.7905 26.3351 41.7703V37.6541C26.3351 37.6338 26.3432 37.6156 26.3594 37.5994C26.3716 37.5872 26.3878 37.5811 26.4081 37.5811H28.0801ZM27.9767 39.5328C28.1834 39.5328 28.3496 39.472 28.4753 39.3504C28.6009 39.2288 28.6638 39.0687 28.6638 38.8701C28.6638 38.6674 28.6009 38.5033 28.4753 38.3776C28.3496 38.252 28.1834 38.1891 27.9767 38.1891H27.0708C27.0505 38.1891 27.0404 38.1993 27.0404 38.2195V39.5024C27.0404 39.5227 27.0505 39.5328 27.0708 39.5328H27.9767ZM32.3786 41.8432C32.3381 41.8432 32.3097 41.825 32.2935 41.7885L31.491 40.0375C31.4829 40.0212 31.4707 40.0131 31.4545 40.0131H30.7249C30.7046 40.0131 30.6945 40.0233 30.6945 40.0435V41.7703C30.6945 41.7905 30.6864 41.8067 30.6702 41.8189C30.658 41.8351 30.6418 41.8432 30.6215 41.8432H30.0622C30.0419 41.8432 30.0257 41.8351 30.0135 41.8189C29.9973 41.8067 29.9892 41.7905 29.9892 41.7703V37.6602C29.9892 37.6399 29.9973 37.6237 30.0135 37.6115C30.0257 37.5953 30.0419 37.5872 30.0622 37.5872H31.7342C31.9814 37.5872 32.2003 37.6379 32.3908 37.7392C32.5813 37.8446 32.7293 37.9905 32.8346 38.177C32.94 38.3675 32.9927 38.5843 32.9927 38.8275C32.9927 39.1072 32.9218 39.3443 32.7799 39.5389C32.634 39.7375 32.4334 39.8753 32.178 39.9523C32.1699 39.9523 32.1638 39.9564 32.1598 39.9645C32.1557 39.9726 32.1557 39.9807 32.1598 39.9888L33.017 41.7581C33.0252 41.7743 33.0292 41.7865 33.0292 41.7946C33.0292 41.827 33.0069 41.8432 32.9623 41.8432H32.3786ZM30.7249 38.1952C30.7046 38.1952 30.6945 38.2053 30.6945 38.2256V39.4355C30.6945 39.4558 30.7046 39.4659 30.7249 39.4659H31.6369C31.8314 39.4659 31.9875 39.4072 32.105 39.2896C32.2266 39.1761 32.2874 39.0241 32.2874 38.8336C32.2874 38.6431 32.2266 38.4891 32.105 38.3715C31.9875 38.254 31.8314 38.1952 31.6369 38.1952H30.7249ZM33.7892 41.8432C33.7689 41.8432 33.7507 41.8351 33.7345 41.8189C33.7223 41.8067 33.7162 41.7905 33.7162 41.7703V37.6602C33.7162 37.6399 33.7223 37.6237 33.7345 37.6115C33.7507 37.5953 33.7689 37.5872 33.7892 37.5872H34.3486C34.3688 37.5872 34.385 37.5953 34.3972 37.6115C34.4134 37.6237 34.4215 37.6399 34.4215 37.6602V41.7703C34.4215 41.7905 34.4134 41.8067 34.3972 41.8189C34.385 41.8351 34.3688 41.8432 34.3486 41.8432H33.7892ZM37.7838 37.6602C37.7838 37.6399 37.7919 37.6237 37.8081 37.6115C37.8202 37.5953 37.8365 37.5872 37.8567 37.5872H38.4161C38.4363 37.5872 38.4546 37.5953 38.4708 37.6115C38.483 37.6237 38.489 37.6399 38.489 37.6602V41.7703C38.489 41.7905 38.483 41.8067 38.4708 41.8189C38.4546 41.8351 38.4363 41.8432 38.4161 41.8432H37.875C37.8344 41.8432 37.8061 41.827 37.7898 41.7946L36.0388 38.9248C36.0307 38.9127 36.0226 38.9066 36.0145 38.9066C36.0064 38.9106 36.0023 38.9208 36.0023 38.937L36.0145 41.7703C36.0145 41.7905 36.0064 41.8067 35.9902 41.8189C35.978 41.8351 35.9618 41.8432 35.9415 41.8432H35.3822C35.3619 41.8432 35.3457 41.8351 35.3335 41.8189C35.3173 41.8067 35.3092 41.7905 35.3092 41.7703V37.6602C35.3092 37.6399 35.3173 37.6237 35.3335 37.6115C35.3457 37.5953 35.3619 37.5872 35.3822 37.5872H35.9233C35.9638 37.5872 35.9922 37.6034 36.0084 37.6359L37.7534 40.5056C37.7615 40.5178 37.7696 40.5218 37.7777 40.5178C37.7858 40.5178 37.7898 40.5097 37.7898 40.4935L37.7838 37.6602ZM40.7994 41.8919C40.4954 41.8919 40.2279 41.8331 39.9969 41.7155C39.7658 41.5939 39.5875 41.4237 39.4618 41.2048C39.3362 40.9859 39.2734 40.7346 39.2734 40.4509V38.9795C39.2734 38.6917 39.3362 38.4384 39.4618 38.2195C39.5875 38.0047 39.7658 37.8365 39.9969 37.7149C40.2279 37.5973 40.4954 37.5386 40.7994 37.5386C41.0994 37.5386 41.3649 37.5973 41.5959 37.7149C41.8229 37.8324 41.9992 37.9925 42.1249 38.1952C42.2505 38.3979 42.3134 38.6269 42.3134 38.8823V38.9309C42.3134 38.9512 42.3073 38.9674 42.2951 38.9795C42.2789 38.9957 42.2607 39.0039 42.2404 39.0039H41.6871C41.6669 39.0039 41.6506 38.9957 41.6385 38.9795C41.6223 38.9674 41.6142 38.9512 41.6142 38.9309V38.9005C41.6142 38.6816 41.5392 38.5012 41.3892 38.3594C41.2433 38.2175 41.0467 38.1466 40.7994 38.1466C40.5522 38.1466 40.3536 38.2216 40.2036 38.3715C40.0536 38.5175 39.9786 38.712 39.9786 38.9552V40.4752C39.9786 40.7184 40.0577 40.915 40.2158 41.065C40.3738 41.2109 40.5785 41.2839 40.8298 41.2839C41.073 41.2839 41.2656 41.219 41.4074 41.0893C41.5453 40.9636 41.6142 40.7893 41.6142 40.5664V40.1895C41.6142 40.1692 41.604 40.1591 41.5838 40.1591H40.8359C40.8157 40.1591 40.7974 40.1509 40.7812 40.1347C40.769 40.1226 40.763 40.1064 40.763 40.0861V39.6362C40.763 39.6159 40.769 39.5997 40.7812 39.5875C40.7974 39.5713 40.8157 39.5632 40.8359 39.5632H42.2404C42.2607 39.5632 42.2789 39.5713 42.2951 39.5875C42.3073 39.5997 42.3134 39.6159 42.3134 39.6362V40.4144C42.3134 40.8805 42.1776 41.2433 41.906 41.5027C41.6304 41.7621 41.2615 41.8919 40.7994 41.8919Z" fill="#242530"/>
        <path d="M24.3643 52.8233C24.3521 52.8355 24.3481 52.8476 24.3521 52.8598C24.3602 52.872 24.3724 52.878 24.3886 52.878H26.778C26.8064 52.878 26.8307 52.8882 26.851 52.9084C26.8753 52.9287 26.8875 52.953 26.8875 52.9814V53.8387C26.8875 53.867 26.8753 53.8914 26.851 53.9116C26.8307 53.9319 26.8064 53.942 26.778 53.942H22.8139C22.7815 53.942 22.7551 53.9319 22.7348 53.9116C22.7146 53.8914 22.7044 53.867 22.7044 53.8387V53.024C22.7044 52.9713 22.7227 52.9267 22.7592 52.8902C23.047 52.6105 23.3408 52.3045 23.6408 51.9721C23.9407 51.6397 24.1292 51.433 24.2062 51.352C24.3683 51.1574 24.5345 50.9709 24.7048 50.7926C25.2398 50.2008 25.5073 49.761 25.5073 49.4732C25.5073 49.2665 25.4344 49.0963 25.2884 48.9625C25.1425 48.8328 24.952 48.768 24.7169 48.768C24.4818 48.768 24.2913 48.8328 24.1454 48.9625C23.9954 49.0963 23.9204 49.2726 23.9204 49.4915V49.7104C23.9204 49.7387 23.9103 49.763 23.89 49.7833C23.8698 49.8036 23.8455 49.8137 23.8171 49.8137H22.7774C22.749 49.8137 22.7247 49.8036 22.7044 49.7833C22.6801 49.763 22.668 49.7387 22.668 49.7104V49.2969C22.6882 48.9808 22.7896 48.699 22.972 48.4518C23.1544 48.2086 23.3955 48.0221 23.6955 47.8924C23.9995 47.7627 24.34 47.6979 24.7169 47.6979C25.1344 47.6979 25.4972 47.7769 25.8052 47.935C26.1133 48.089 26.3504 48.2978 26.5166 48.5612C26.6868 48.8288 26.772 49.1226 26.772 49.4428C26.772 49.6901 26.7091 49.9434 26.5835 50.2028C26.4619 50.4623 26.2775 50.7419 26.0302 51.0419C25.8478 51.2689 25.6512 51.4959 25.4404 51.7228C25.2297 51.9458 24.9155 52.268 24.498 52.6896L24.3643 52.8233ZM29.7512 54.0393C29.1026 54.0393 28.5919 53.8589 28.219 53.4982C27.842 53.1374 27.6536 52.645 27.6536 52.0208V49.6921C27.6536 49.0801 27.842 48.5957 28.219 48.239C28.5919 47.8782 29.1026 47.6979 29.7512 47.6979C30.3956 47.6979 30.9084 47.8782 31.2894 48.239C31.6664 48.5957 31.8548 49.0801 31.8548 49.6921V52.0208C31.8548 52.645 31.6664 53.1374 31.2894 53.4982C30.9084 53.8589 30.3956 54.0393 29.7512 54.0393ZM29.7512 52.9753C30.0146 52.9753 30.2234 52.8942 30.3774 52.7321C30.5355 52.57 30.6145 52.3531 30.6145 52.0816V49.6556C30.6145 49.3881 30.5355 49.1733 30.3774 49.0112C30.2234 48.849 30.0146 48.768 29.7512 48.768C29.4918 48.768 29.285 48.849 29.131 49.0112C28.9729 49.1733 28.8939 49.3881 28.8939 49.6556V52.0816C28.8939 52.3531 28.9729 52.57 29.131 52.7321C29.285 52.8942 29.4918 52.9753 29.7512 52.9753ZM34.3233 52.8233C34.3112 52.8355 34.3091 52.8476 34.3172 52.8598C34.3213 52.872 34.3335 52.878 34.3537 52.878H36.7432C36.7715 52.878 36.7959 52.8882 36.8161 52.9084C36.8364 52.9287 36.8465 52.953 36.8465 52.9814V53.8387C36.8465 53.867 36.8364 53.8914 36.8161 53.9116C36.7959 53.9319 36.7715 53.942 36.7432 53.942H32.7729C32.7446 53.942 32.7202 53.9319 32.7 53.9116C32.6797 53.8914 32.6696 53.867 32.6696 53.8387V53.024C32.6696 52.9713 32.6858 52.9267 32.7182 52.8902C33.01 52.6105 33.3039 52.3045 33.5998 51.9721C33.8998 51.6397 34.0882 51.433 34.1652 51.352C34.3314 51.1574 34.4996 50.9709 34.6699 50.7926C35.2049 50.2008 35.4724 49.761 35.4724 49.4732C35.4724 49.2665 35.3995 49.0963 35.2536 48.9625C35.1036 48.8328 34.9111 48.768 34.676 48.768C34.4409 48.768 34.2504 48.8328 34.1044 48.9625C33.9585 49.0963 33.8856 49.2726 33.8856 49.4915V49.7104C33.8856 49.7387 33.8754 49.763 33.8552 49.7833C33.8349 49.8036 33.8086 49.8137 33.7761 49.8137H32.7364C32.7081 49.8137 32.6838 49.8036 32.6635 49.7833C32.6432 49.763 32.6331 49.7387 32.6331 49.7104V49.2969C32.6493 48.9808 32.7486 48.699 32.931 48.4518C33.1134 48.2086 33.3566 48.0221 33.6606 47.8924C33.9646 47.7627 34.3031 47.6979 34.676 47.6979C35.0935 47.6979 35.4562 47.7769 35.7643 47.935C36.0764 48.089 36.3155 48.2978 36.4817 48.5612C36.6479 48.8288 36.731 49.1226 36.731 49.4428C36.731 49.6901 36.6702 49.9434 36.5486 50.2028C36.423 50.4623 36.2365 50.7419 35.9892 51.0419C35.8068 51.2689 35.6103 51.4959 35.3995 51.7228C35.1887 51.9458 34.8746 52.268 34.4571 52.6896L34.3233 52.8233ZM42.0206 51.2547C42.049 51.2547 42.0753 51.2648 42.0996 51.2851C42.1199 51.3053 42.13 51.3297 42.13 51.358V52.2518C42.13 52.2802 42.1199 52.3045 42.0996 52.3248C42.0753 52.345 42.049 52.3552 42.0206 52.3552H41.6436C41.6153 52.3552 41.6011 52.3693 41.6011 52.3977V53.8387C41.6011 53.867 41.591 53.8914 41.5707 53.9116C41.5464 53.9319 41.52 53.942 41.4916 53.942H40.4641C40.4317 53.942 40.4054 53.9319 40.3851 53.9116C40.3648 53.8914 40.3547 53.867 40.3547 53.8387V52.3977C40.3547 52.3693 40.3405 52.3552 40.3121 52.3552H37.6065C37.5782 52.3552 37.5518 52.345 37.5275 52.3248C37.5072 52.3045 37.4971 52.2802 37.4971 52.2518V51.5465C37.4971 51.51 37.5072 51.4654 37.5275 51.4128L39.1144 47.8499C39.1387 47.7972 39.1792 47.7708 39.236 47.7708H40.3364C40.377 47.7708 40.4054 47.781 40.4216 47.8012C40.4378 47.8215 40.4358 47.8519 40.4155 47.8924L38.9441 51.2C38.9401 51.2121 38.9401 51.2243 38.9441 51.2364C38.9522 51.2486 38.9624 51.2547 38.9745 51.2547H40.3121C40.3405 51.2547 40.3547 51.2385 40.3547 51.206V50.1177C40.3547 50.0853 40.3648 50.0589 40.3851 50.0387C40.4054 50.0184 40.4317 50.0083 40.4641 50.0083H41.4916C41.52 50.0083 41.5464 50.0184 41.5707 50.0387C41.591 50.0589 41.6011 50.0853 41.6011 50.1177V51.206C41.6011 51.2385 41.6153 51.2547 41.6436 51.2547H42.0206Z" fill="#252530"/>
    </g>
    <defs>
        <filter id="filter0_dddd_1324_11879" x="0.733083" y="0.406015" width="63.5338" height="76.1767" filterUnits="userSpaceOnUse" color-interpolation-filters="sRGB">
            <feFlood flood-opacity="0" result="BackgroundImageFix"/>
            <feColorMatrix in="SourceAlpha" type="matrix" values="0 0 0 0 0 0 0 0 0 0 0 0 0 0 0 0 0 0 127 0" result="hardAlpha"/>
            <feOffset dy="0.593985"/>
            <feGaussianBlur stdDeviation="0.593985"/>
            <feColorMatrix type="matrix" values="0 0 0 0 0.0117647 0 0 0 0 0.00784314 0 0 0 0 0.0509804 0 0 0 0.06 0"/>
            <feBlend mode="normal" in2="BackgroundImageFix" result="effect1_dropShadow_1324_11879"/>
            <feColorMatrix in="SourceAlpha" type="matrix" values="0 0 0 0 0 0 0 0 0 0 0 0 0 0 0 0 0 0 127 0" result="hardAlpha"/>
            <feOffset dy="2.07895"/>
            <feGaussianBlur stdDeviation="1.03947"/>
            <feColorMatrix type="matrix" values="0 0 0 0 0.0117647 0 0 0 0 0.00784314 0 0 0 0 0.0509804 0 0 0 0.05 0"/>
            <feBlend mode="normal" in2="effect1_dropShadow_1324_11879" result="effect2_dropShadow_1324_11879"/>
            <feColorMatrix in="SourceAlpha" type="matrix" values="0 0 0 0 0 0 0 0 0 0 0 0 0 0 0 0 0 0 127 0" result="hardAlpha"/>
            <feOffset dy="4.75188"/>
            <feGaussianBlur stdDeviation="1.33647"/>
            <feColorMatrix type="matrix" values="0 0 0 0 0.0117647 0 0 0 0 0.00784314 0 0 0 0 0.0509804 0 0 0 0.03 0"/>
            <feBlend mode="normal" in2="effect2_dropShadow_1324_11879" result="effect3_dropShadow_1324_11879"/>
            <feColorMatrix in="SourceAlpha" type="matrix" values="0 0 0 0 0 0 0 0 0 0 0 0 0 0 0 0 0 0 127 0" result="hardAlpha"/>
            <feOffset dy="8.31579"/>
            <feGaussianBlur stdDeviation="1.63346"/>
            <feColorMatrix type="matrix" values="0 0 0 0 0.0117647 0 0 0 0 0.00784314 0 0 0 0 0.0509804 0 0 0 0.01 0"/>
            <feBlend mode="normal" in2="effect3_dropShadow_1324_11879" result="effect4_dropShadow_1324_11879"/>
            <feBlend mode="normal" in="SourceGraphic" in2="effect4_dropShadow_1324_11879" result="shape"/>
        </filter>
    </defs>
</svg>
