<svg width="64" height="77" viewBox="0 0 64 77" fill="none" xmlns="http://www.w3.org/2000/svg">
    <g filter="url(#filter0_dddd_1324_11896)">
        <path d="M8.92578 50.4831L32.9418 62.7039L56.0458 50.4831V2.69434H8.92578V50.4831Z" fill="white"/>
        <path d="M56.5303 2.87708L8.4375 51.3347L33.3655 63.6771L56.5303 51.8211V2.87708Z" fill="#F2F3F2"/>
        <path d="M7.34375 18.6243V51.5171L8.19495 51.9427L32.211 64.1635L32.9405 64.5283L33.6702 64.1635L56.835 51.9427L57.6862 51.5171V1.11389H7.34375V18.6243ZM8.92455 50.6051V2.69469H56.1054V50.6051L32.9405 62.8259L8.92455 50.6051Z" fill="#DCDEDC"/>
        <path d="M32.5126 3.48509C32.7558 3.48509 32.999 3.48509 33.2422 3.54589L32.5126 4.94429C31.4182 4.88349 30.4454 5.73469 30.3846 6.82909C30.3238 7.92349 31.175 8.89629 32.2694 8.95709H32.5126C32.999 8.95709 33.4854 8.77469 33.8502 8.47069L34.6406 9.80829C34.0326 10.2339 33.303 10.4771 32.5126 10.4771C30.567 10.5379 28.9254 9.07869 28.8646 7.13309C28.8038 5.18749 30.263 3.54589 32.2086 3.48509H32.5126ZM35.0054 6.46429L35.9174 7.98429L35.0054 9.44349L34.1542 7.98429H32.391L33.303 6.46429H35.0054ZM33.5462 5.91709C33.5462 5.67389 33.607 5.43069 33.7286 5.24829C33.8502 5.06589 34.0934 4.88349 34.2758 4.76189L34.3974 4.70109C34.6406 4.57949 34.7014 4.51869 34.7014 4.39709C34.7014 4.27549 34.519 4.15389 34.3974 4.15389C34.1542 4.15389 33.9718 4.27549 33.8502 4.51869L33.5462 4.21469C33.607 4.09309 33.7286 3.97149 33.8502 3.84989C34.0326 3.72829 34.215 3.72829 34.3974 3.72829C34.5798 3.72829 34.823 3.78909 34.9446 3.91069C35.0662 4.03229 35.1878 4.21469 35.1878 4.39709C35.1878 4.70109 35.0054 4.94429 34.6406 5.06589L34.4582 5.18749C34.2758 5.30909 34.1542 5.36989 34.0934 5.55229H35.1878V5.97789L33.5462 5.91709ZM32.5126 13.5171L38.2886 10.2339V1.11389H26.6758V10.1731L32.5126 13.5171Z" fill="#FF492C"/>
        <path d="M58.8445 35.04H6.19169L4.24609 39.296L6.19169 43.552H58.8445L60.7293 39.296L58.8445 35.04Z" fill="#2690CE"/>
        <path d="M21.3446 32.3043C21.2959 32.3043 21.2655 32.28 21.2533 32.2314L21.0345 31.5139C21.0223 31.4977 21.0101 31.4896 20.998 31.4896H19.1983C19.1862 31.4896 19.174 31.4977 19.1618 31.5139L18.9551 32.2314C18.9389 32.28 18.9065 32.3043 18.8578 32.3043H17.9337C17.9012 32.3043 17.879 32.2962 17.8668 32.28C17.8506 32.2638 17.8485 32.2375 17.8607 32.201L19.4354 27.2701C19.4476 27.2215 19.478 27.1971 19.5266 27.1971H20.6757C20.7244 27.1971 20.7548 27.2215 20.7669 27.2701L22.3477 32.201C22.3518 32.2131 22.3538 32.2253 22.3538 32.2374C22.3538 32.282 22.3275 32.3043 22.2748 32.3043H21.3446ZM19.4293 30.6506C19.4212 30.6789 19.4294 30.6931 19.4537 30.6931H20.7426C20.771 30.6931 20.7791 30.6789 20.7669 30.6506L20.1103 28.48C20.1063 28.4597 20.1002 28.4516 20.0921 28.4557C20.0799 28.4597 20.0718 28.4678 20.0677 28.48L19.4293 30.6506ZM25.1324 27.2823C25.1324 27.2579 25.1405 27.2377 25.1567 27.2214C25.1729 27.2052 25.1932 27.1971 25.2175 27.1971H26.0748C26.0991 27.1971 26.1194 27.2052 26.1356 27.2214C26.1518 27.2377 26.1599 27.2579 26.1599 27.2823V32.2192C26.1599 32.2435 26.1518 32.2638 26.1356 32.28C26.1194 32.2962 26.0991 32.3043 26.0748 32.3043H25.2175C25.1932 32.3043 25.1729 32.2962 25.1567 32.28C25.1405 32.2638 25.1324 32.2435 25.1324 32.2192V31.976C25.1324 31.9598 25.1283 31.9517 25.1202 31.9517C25.1081 31.9476 25.0979 31.9517 25.0898 31.9638C24.8831 32.2314 24.6034 32.3651 24.2508 32.3651C23.9103 32.3651 23.6164 32.2699 23.3692 32.0794C23.126 31.8889 22.9497 31.6274 22.8402 31.295C22.7592 31.0437 22.7186 30.7499 22.7186 30.4134C22.7186 30.0689 22.7612 29.7669 22.8463 29.5075C22.9598 29.1995 23.1361 28.9542 23.3753 28.7718C23.6185 28.5894 23.9164 28.4983 24.269 28.4983C24.6217 28.4983 24.8953 28.6199 25.0898 28.863C25.0979 28.8752 25.1081 28.8793 25.1202 28.8752C25.1283 28.8712 25.1324 28.861 25.1324 28.8448V27.2823ZM24.9804 31.1674C25.0777 30.985 25.1263 30.7397 25.1263 30.4317C25.1263 30.1034 25.0716 29.848 24.9621 29.6656C24.8527 29.4751 24.6906 29.3798 24.4757 29.3798C24.2488 29.3798 24.0765 29.4751 23.959 29.6656C23.8374 29.8521 23.7765 30.1094 23.7765 30.4378C23.7765 30.7296 23.8272 30.9728 23.9285 31.1674C24.0501 31.3741 24.2305 31.4774 24.4697 31.4774C24.6885 31.4774 24.8588 31.3741 24.9804 31.1674ZM28.5919 32.3651C28.1825 32.3651 27.8319 32.2577 27.5401 32.0429C27.2482 31.8281 27.0496 31.5362 26.9442 31.1674C26.8753 30.9363 26.8409 30.6871 26.8409 30.4195C26.8409 30.1358 26.8753 29.8784 26.9442 29.6474C27.0537 29.2866 27.2543 29.0049 27.5461 28.8023C27.838 28.5996 28.1886 28.4983 28.598 28.4983C28.9952 28.4983 29.3357 28.5976 29.6194 28.7962C29.9032 28.9988 30.1018 29.2805 30.2153 29.6413C30.2963 29.8845 30.3369 30.1399 30.3369 30.4074C30.3369 30.6708 30.3024 30.9161 30.2335 31.143C30.1241 31.5241 29.9255 31.822 29.6377 32.0368C29.3499 32.2557 29.0013 32.3651 28.5919 32.3651ZM28.5919 31.4774C28.75 31.4774 28.8858 31.4288 28.9993 31.3315C29.1128 31.2343 29.1938 31.1005 29.2425 30.9303C29.2789 30.7762 29.2972 30.606 29.2972 30.4195C29.2972 30.2169 29.2789 30.0446 29.2425 29.9027C29.1857 29.7365 29.1026 29.6089 28.9932 29.5197C28.8797 29.4265 28.7439 29.3798 28.5858 29.3798C28.4196 29.3798 28.2818 29.4265 28.1724 29.5197C28.0629 29.6089 27.9839 29.7365 27.9353 29.9027C27.8947 30.0203 27.8745 30.1925 27.8745 30.4195C27.8745 30.6384 27.8927 30.8087 27.9292 30.9303C27.9778 31.1005 28.0589 31.2343 28.1724 31.3315C28.2859 31.4288 28.4257 31.4774 28.5919 31.4774ZM34.3497 29.5623C34.4348 29.8095 34.4773 30.1013 34.4773 30.4378C34.4773 30.7742 34.4307 31.0782 34.3375 31.3498C34.2281 31.6619 34.0517 31.9091 33.8085 32.0915C33.5694 32.2739 33.2715 32.3651 32.9148 32.3651C32.5662 32.3651 32.2946 32.2435 32.1001 32.0003C32.092 31.9841 32.0818 31.978 32.0697 31.9821C32.0616 31.9861 32.0575 31.9963 32.0575 32.0125V33.575C32.0575 33.5994 32.0494 33.6196 32.0332 33.6358C32.0129 33.6521 31.9906 33.6602 31.9663 33.6602H31.1151C31.0908 33.6602 31.0705 33.6521 31.0543 33.6358C31.0381 33.6196 31.03 33.5994 31.03 33.575V28.6442C31.03 28.6198 31.0381 28.5976 31.0543 28.5773C31.0705 28.5611 31.0908 28.553 31.1151 28.553H31.9663C31.9906 28.553 32.0129 28.5611 32.0332 28.5773C32.0494 28.5976 32.0575 28.6198 32.0575 28.6442V28.8813C32.0575 28.8975 32.0616 28.9056 32.0697 28.9056C32.0818 28.9097 32.092 28.9076 32.1001 28.8995C32.3027 28.632 32.5844 28.4983 32.9452 28.4983C33.2816 28.4983 33.5735 28.5915 33.8207 28.7779C34.0639 28.9644 34.2402 29.2258 34.3497 29.5623ZM33.2309 31.1978C33.3525 31.0073 33.4133 30.7479 33.4133 30.4195C33.4133 30.1155 33.3627 29.8723 33.2613 29.6899C33.1479 29.4832 32.9675 29.3798 32.7202 29.3798C32.4973 29.3798 32.3291 29.4832 32.2156 29.6899C32.1143 29.8683 32.0636 30.1155 32.0636 30.4317C32.0636 30.756 32.1163 31.0073 32.2217 31.1856C32.3352 31.3802 32.5014 31.4774 32.7202 31.4774C32.9391 31.4774 33.1094 31.3842 33.2309 31.1978ZM37.2924 29.2887C37.2924 29.313 37.2843 29.3353 37.2681 29.3555C37.2519 29.3717 37.2316 29.3798 37.2073 29.3798H36.5081C36.4837 29.3798 36.4716 29.392 36.4716 29.4163V30.9607C36.4716 31.1228 36.504 31.2424 36.5689 31.3194C36.6337 31.3964 36.7391 31.4349 36.885 31.4349H37.1282C37.1525 31.4349 37.1728 31.443 37.189 31.4592C37.2052 31.4795 37.2133 31.5018 37.2133 31.5261V32.2192C37.2133 32.2719 37.185 32.3023 37.1282 32.3104C36.9215 32.3226 36.7756 32.3287 36.6905 32.3287C36.2851 32.3287 35.9832 32.2618 35.7845 32.128C35.5859 31.9942 35.4846 31.7409 35.4805 31.368V29.4163C35.4805 29.392 35.4684 29.3798 35.4441 29.3798H35.0245C35.0002 29.3798 34.98 29.3717 34.9637 29.3555C34.9475 29.3353 34.9394 29.313 34.9394 29.2887V28.6442C34.9394 28.6198 34.9475 28.5976 34.9637 28.5773C34.98 28.5611 35.0002 28.553 35.0245 28.553H35.4441C35.4684 28.553 35.4805 28.5408 35.4805 28.5165V27.647C35.4805 27.6227 35.4887 27.6025 35.5049 27.5863C35.5211 27.57 35.5413 27.5619 35.5657 27.5619H36.3804C36.4047 27.5619 36.427 27.57 36.4473 27.5863C36.4635 27.6025 36.4716 27.6227 36.4716 27.647V28.5165C36.4716 28.5408 36.4837 28.553 36.5081 28.553H37.2073C37.2316 28.553 37.2519 28.5611 37.2681 28.5773C37.2843 28.5976 37.2924 28.6198 37.2924 28.6442V29.2887ZM38.4719 28.1334C38.3057 28.1334 38.1679 28.0787 38.0585 27.9693C37.949 27.8598 37.8943 27.722 37.8943 27.5558C37.8943 27.3856 37.947 27.2458 38.0524 27.1363C38.1618 27.0309 38.3017 26.9783 38.4719 26.9783C38.6421 26.9783 38.78 27.0309 38.8853 27.1363C38.9907 27.2458 39.0434 27.3856 39.0434 27.5558C39.0434 27.722 38.9887 27.8598 38.8793 27.9693C38.7698 28.0787 38.634 28.1334 38.4719 28.1334ZM38.0341 32.3043C38.0098 32.3043 37.9875 32.2962 37.9673 32.28C37.9511 32.2638 37.9429 32.2435 37.9429 32.2192V28.632C37.9429 28.6077 37.9511 28.5874 37.9673 28.5712C37.9875 28.555 38.0098 28.5469 38.0341 28.5469H38.8853C38.9097 28.5469 38.9299 28.555 38.9461 28.5712C38.9624 28.5874 38.9705 28.6077 38.9705 28.632V32.2192C38.9705 32.2435 38.9624 32.2638 38.9461 32.28C38.9299 32.2962 38.9097 32.3043 38.8853 32.3043H38.0341ZM41.4329 32.3651C41.0235 32.3651 40.6729 32.2577 40.381 32.0429C40.0892 31.8281 39.8906 31.5362 39.7852 31.1674C39.7163 30.9363 39.6818 30.6871 39.6818 30.4195C39.6818 30.1358 39.7163 29.8784 39.7852 29.6474C39.8946 29.2866 40.0953 29.0049 40.3871 28.8023C40.6789 28.5996 41.0296 28.4983 41.4389 28.4983C41.8362 28.4983 42.1767 28.5976 42.4604 28.7962C42.7441 28.9988 42.9427 29.2805 43.0562 29.6413C43.1373 29.8845 43.1778 30.1399 43.1778 30.4074C43.1778 30.6708 43.1434 30.9161 43.0745 31.143C42.965 31.5241 42.7664 31.822 42.4786 32.0368C42.1908 32.2557 41.8423 32.3651 41.4329 32.3651ZM41.4329 31.4774C41.5909 31.4774 41.7267 31.4288 41.8402 31.3315C41.9537 31.2343 42.0348 31.1005 42.0834 30.9303C42.1199 30.7762 42.1381 30.606 42.1381 30.4195C42.1381 30.2169 42.1199 30.0446 42.0834 29.9027C42.0267 29.7365 41.9436 29.6089 41.8341 29.5197C41.7207 29.4265 41.5849 29.3798 41.4268 29.3798C41.2606 29.3798 41.1228 29.4265 41.0133 29.5197C40.9039 29.6089 40.8249 29.7365 40.7762 29.9027C40.7357 30.0203 40.7154 30.1925 40.7154 30.4195C40.7154 30.6384 40.7337 30.8087 40.7701 30.9303C40.8188 31.1005 40.8999 31.2343 41.0133 31.3315C41.1268 31.4288 41.2667 31.4774 41.4329 31.4774ZM45.7922 28.4983C46.1813 28.4983 46.4955 28.6158 46.7346 28.8509C46.9738 29.09 47.0933 29.4143 47.0933 29.8237V32.2192C47.0933 32.2435 47.0852 32.2638 47.069 32.28C47.0528 32.2962 47.0325 32.3043 47.0082 32.3043H46.1509C46.1266 32.3043 46.1064 32.2962 46.0901 32.28C46.0739 32.2638 46.0658 32.2435 46.0658 32.2192V30.0365C46.0658 29.8419 46.0111 29.6839 45.9017 29.5623C45.7922 29.4407 45.6463 29.3798 45.4639 29.3798C45.2856 29.3798 45.1417 29.4407 45.0322 29.5623C44.9228 29.6839 44.8681 29.8419 44.8681 30.0365V32.2192C44.8681 32.2435 44.86 32.2638 44.8437 32.28C44.8275 32.2962 44.8073 32.3043 44.7829 32.3043H43.9257C43.9013 32.3043 43.8811 32.2962 43.8649 32.28C43.8487 32.2638 43.8405 32.2435 43.8405 32.2192V28.6442C43.8405 28.6198 43.8487 28.5976 43.8649 28.5773C43.8811 28.5611 43.9013 28.553 43.9257 28.553H44.7829C44.8073 28.553 44.8275 28.5611 44.8437 28.5773C44.86 28.5976 44.8681 28.6198 44.8681 28.6442V28.8995C44.8681 28.9117 44.8721 28.9198 44.8802 28.9238C44.8924 28.932 44.9005 28.9299 44.9045 28.9178C45.1032 28.6381 45.3991 28.4983 45.7922 28.4983ZM14.6748 19.9863C14.6748 19.9619 14.6829 19.9417 14.6991 19.9254C14.7153 19.9092 14.7356 19.9011 14.7599 19.9011H15.6111C15.6354 19.9011 15.6577 19.9092 15.678 19.9254C15.6942 19.9417 15.7023 19.9619 15.7023 19.9863V24.9232C15.7023 24.9475 15.6942 24.9678 15.678 24.984C15.6577 25.0002 15.6354 25.0083 15.6111 25.0083H14.7599C14.7356 25.0083 14.7153 25.0002 14.6991 24.984C14.6829 24.9678 14.6748 24.9475 14.6748 24.9232V22.9047C14.6748 22.8803 14.6626 22.8682 14.6383 22.8682H13.021C12.9967 22.8682 12.9846 22.8803 12.9846 22.9047V24.9232C12.9846 24.9475 12.9764 24.9678 12.9602 24.984C12.944 25.0002 12.9238 25.0083 12.8994 25.0083H12.0482C12.0239 25.0083 12.0016 25.0002 11.9814 24.984C11.9651 24.9678 11.957 24.9475 11.957 24.9232V19.9863C11.957 19.9619 11.9651 19.9417 11.9814 19.9254C12.0016 19.9092 12.0239 19.9011 12.0482 19.9011H12.8994C12.9238 19.9011 12.944 19.9092 12.9602 19.9254C12.9764 19.9417 12.9846 19.9619 12.9846 19.9863V21.9501C12.9846 21.9744 12.9967 21.9866 13.021 21.9866H14.6383C14.6626 21.9866 14.6748 21.9744 14.6748 21.9501V19.9863ZM17.0278 20.8374C16.8616 20.8374 16.7238 20.7827 16.6143 20.6733C16.5049 20.5638 16.4502 20.426 16.4502 20.2598C16.4502 20.0896 16.5049 19.9498 16.6143 19.8403C16.7197 19.7349 16.8575 19.6823 17.0278 19.6823C17.198 19.6823 17.3378 19.7349 17.4473 19.8403C17.5527 19.9498 17.6054 20.0896 17.6054 20.2598C17.6054 20.426 17.5506 20.5638 17.4412 20.6733C17.3318 20.7827 17.1939 20.8374 17.0278 20.8374ZM16.59 25.0083C16.5657 25.0083 16.5454 25.0002 16.5292 24.984C16.513 24.9678 16.5049 24.9475 16.5049 24.9232V21.336C16.5049 21.3117 16.513 21.2914 16.5292 21.2752C16.5454 21.259 16.5657 21.2509 16.59 21.2509H17.4473C17.4716 21.2509 17.4919 21.259 17.5081 21.2752C17.5243 21.2914 17.5324 21.3117 17.5324 21.336V24.9232C17.5324 24.9475 17.5243 24.9678 17.5081 24.984C17.4919 25.0002 17.4716 25.0083 17.4473 25.0083H16.59ZM20.6271 21.3482C20.6271 21.3238 20.6352 21.3016 20.6514 21.2813C20.6676 21.2651 20.6879 21.257 20.7122 21.257H21.5695C21.5938 21.257 21.6141 21.2651 21.6303 21.2813C21.6465 21.3016 21.6546 21.3238 21.6546 21.3482V24.6739C21.6546 25.3103 21.4702 25.7643 21.1013 26.0358C20.7365 26.3074 20.2643 26.4432 19.6847 26.4432C19.5145 26.4432 19.324 26.431 19.1132 26.4067C19.0646 26.4027 19.0402 26.3723 19.0402 26.3155L19.0706 25.5616C19.0706 25.5008 19.1051 25.4745 19.174 25.4826C19.3483 25.5109 19.5084 25.5251 19.6543 25.5251C19.9664 25.5251 20.2056 25.4583 20.3717 25.3245C20.542 25.1867 20.6271 24.9678 20.6271 24.6678C20.6271 24.6516 20.621 24.6415 20.6089 24.6374C20.6008 24.6374 20.5927 24.6415 20.5846 24.6496C20.3981 24.8482 20.1265 24.9475 19.7698 24.9475C19.4537 24.9475 19.1639 24.8725 18.9004 24.7226C18.6369 24.5685 18.4484 24.3213 18.335 23.9808C18.262 23.7579 18.2255 23.4681 18.2255 23.1114C18.2255 22.7304 18.2701 22.4223 18.3593 22.1872C18.4606 21.8873 18.6329 21.6481 18.8761 21.4698C19.1193 21.2914 19.401 21.2023 19.7212 21.2023C20.0941 21.2023 20.3819 21.3137 20.5846 21.5367C20.5927 21.5448 20.6008 21.5488 20.6089 21.5488C20.621 21.5448 20.6271 21.5346 20.6271 21.5184V21.3482ZM20.5663 23.7011C20.6068 23.5552 20.6271 23.3566 20.6271 23.1053C20.6271 22.9553 20.621 22.8378 20.6089 22.7527C20.6008 22.6716 20.5845 22.5946 20.5602 22.5216C20.5156 22.3878 20.4427 22.2825 20.3413 22.2054C20.24 22.1244 20.1144 22.0838 19.9644 22.0838C19.8185 22.0838 19.6928 22.1244 19.5874 22.2054C19.4861 22.2825 19.4111 22.3878 19.3625 22.5216C19.2936 22.6675 19.2591 22.8641 19.2591 23.1114C19.2591 23.3829 19.2895 23.5775 19.3503 23.695C19.3949 23.8248 19.4719 23.9301 19.5813 24.0112C19.6908 24.0923 19.8205 24.1328 19.9705 24.1328C20.1245 24.1328 20.2522 24.0923 20.3535 24.0112C20.4589 23.9301 20.5298 23.8268 20.5663 23.7011ZM24.3481 21.2023C24.7372 21.2023 25.0513 21.3198 25.2905 21.5549C25.5256 21.794 25.6431 22.1183 25.6431 22.5277V24.9232C25.6431 24.9475 25.635 24.9678 25.6188 24.984C25.6026 25.0002 25.5823 25.0083 25.558 25.0083H24.7068C24.6825 25.0083 24.6602 25.0002 24.6399 24.984C24.6237 24.9678 24.6156 24.9475 24.6156 24.9232V22.7405C24.6156 22.5459 24.5609 22.3879 24.4514 22.2663C24.342 22.1447 24.1981 22.0838 24.0197 22.0838C23.8373 22.0838 23.6914 22.1447 23.582 22.2663C23.4725 22.3879 23.4178 22.5459 23.4178 22.7405V24.9232C23.4178 24.9475 23.4097 24.9678 23.3935 24.984C23.3773 25.0002 23.357 25.0083 23.3327 25.0083H22.4815C22.4572 25.0083 22.4349 25.0002 22.4146 24.984C22.3984 24.9678 22.3903 24.9475 22.3903 24.9232V19.9863C22.3903 19.9619 22.3984 19.9417 22.4146 19.9254C22.4349 19.9092 22.4572 19.9011 22.4815 19.9011H23.3327C23.357 19.9011 23.3773 19.9092 23.3935 19.9254C23.4097 19.9417 23.4178 19.9619 23.4178 19.9863V21.6035C23.4178 21.6157 23.4239 21.6238 23.4361 21.6278C23.4442 21.636 23.4503 21.6339 23.4543 21.6218C23.657 21.3421 23.9549 21.2023 24.3481 21.2023ZM29.6802 22.7466C29.7086 22.933 29.7187 23.1397 29.7106 23.3667C29.7066 23.4235 29.6741 23.4518 29.6133 23.4518H27.3577C27.3293 23.4518 27.3212 23.464 27.3334 23.4883C27.3455 23.5856 27.3719 23.6829 27.4124 23.7802C27.538 24.0558 27.7954 24.1936 28.1845 24.1936C28.4967 24.1855 28.7419 24.0578 28.9202 23.8106C28.9405 23.7822 28.9628 23.768 28.9871 23.768C29.0033 23.768 29.0195 23.7781 29.0357 23.7984L29.5647 24.3152C29.589 24.3395 29.6012 24.3618 29.6012 24.3821C29.6012 24.3902 29.5911 24.4084 29.5708 24.4368C29.4087 24.6395 29.2019 24.7955 28.9506 24.905C28.6993 25.0144 28.4217 25.0691 28.1177 25.0691C27.7002 25.0691 27.3475 24.9739 27.0597 24.7834C26.7679 24.5929 26.5592 24.3274 26.4335 23.9869C26.3322 23.7437 26.2815 23.4255 26.2815 23.0323C26.2815 22.7648 26.318 22.5277 26.391 22.321C26.5004 21.9764 26.695 21.7028 26.9746 21.5002C27.2543 21.2934 27.5867 21.1901 27.9717 21.1901C28.4581 21.1901 28.8493 21.332 29.1452 21.6157C29.437 21.8994 29.6154 22.2764 29.6802 22.7466ZM27.9778 22.0838C27.6738 22.0838 27.4732 22.2277 27.3759 22.5155C27.3556 22.5763 27.3374 22.6533 27.3212 22.7466C27.3212 22.7709 27.3333 22.7831 27.3577 22.7831H28.6223C28.6507 22.7831 28.6608 22.7709 28.6527 22.7466C28.6284 22.6047 28.6162 22.5358 28.6162 22.5398C28.5716 22.3939 28.4946 22.2825 28.3852 22.2054C28.2757 22.1244 28.14 22.0838 27.9778 22.0838ZM31.79 25.057C31.4617 25.057 31.1759 25.0124 30.9327 24.9232C30.6895 24.83 30.501 24.7003 30.3673 24.5341C30.2335 24.3679 30.1666 24.1814 30.1666 23.9747V23.9018C30.1666 23.8774 30.1768 23.8552 30.197 23.8349C30.2132 23.8187 30.2335 23.8106 30.2578 23.8106H31.0665C31.0908 23.8106 31.1111 23.8187 31.1273 23.8349C31.1435 23.8552 31.1516 23.8774 31.1516 23.9018V23.9078C31.1516 24.0132 31.2124 24.1044 31.334 24.1814C31.4515 24.2544 31.6015 24.2909 31.7839 24.2909C31.946 24.2909 32.0798 24.2585 32.1852 24.1936C32.2865 24.1288 32.3372 24.0477 32.3372 23.9504C32.3372 23.8612 32.2926 23.7964 32.2034 23.7558C32.1183 23.7113 31.9744 23.6646 31.7717 23.616C31.5448 23.5552 31.3664 23.4985 31.2367 23.4458C30.9246 23.3404 30.6753 23.2086 30.4889 23.0506C30.3065 22.8965 30.2153 22.6736 30.2153 22.3818C30.2153 22.021 30.3551 21.7353 30.6348 21.5245C30.9145 21.3137 31.2853 21.2083 31.7474 21.2083C32.0555 21.2083 32.3271 21.257 32.5621 21.3543C32.7972 21.4556 32.9776 21.5954 33.1033 21.7738C33.233 21.9562 33.2978 22.1609 33.2978 22.3878C33.2978 22.4122 33.2897 22.4324 33.2735 22.4487C33.2573 22.4689 33.237 22.479 33.2127 22.479H32.4284C32.4041 22.479 32.3838 22.4689 32.3676 22.4487C32.3514 22.4324 32.3433 22.4122 32.3433 22.3878C32.3433 22.2825 32.2885 22.1933 32.1791 22.1203C32.0697 22.0474 31.9258 22.0109 31.7474 22.0109C31.5853 22.0109 31.4536 22.0393 31.3522 22.096C31.2509 22.1568 31.2002 22.2379 31.2002 22.3392C31.2002 22.4365 31.2489 22.5095 31.3461 22.5581C31.4475 22.6067 31.6137 22.6574 31.8447 22.7101C31.9015 22.7263 31.9623 22.7425 32.0271 22.7587C32.096 22.7749 32.169 22.7952 32.246 22.8195C32.5946 22.9209 32.8682 23.0526 33.0668 23.2147C33.2654 23.3728 33.3647 23.6059 33.3647 23.9139C33.3647 24.2747 33.2228 24.5564 32.9391 24.759C32.6554 24.9577 32.2723 25.057 31.79 25.057ZM36.1007 21.9927C36.1007 22.017 36.0926 22.0393 36.0764 22.0595C36.0602 22.0757 36.0399 22.0838 36.0156 22.0838H35.3103C35.286 22.0838 35.2738 22.096 35.2738 22.1203V23.6647C35.2738 23.8268 35.3083 23.9464 35.3772 24.0234C35.442 24.1004 35.5474 24.1389 35.6933 24.1389H35.9305C35.9548 24.1389 35.9771 24.147 35.9973 24.1632C36.0136 24.1835 36.0217 24.2058 36.0217 24.2301V24.9232C36.0217 24.9759 35.9913 25.0063 35.9305 25.0144C35.7278 25.0266 35.5819 25.0327 35.4927 25.0327C35.0914 25.0327 34.7915 24.9658 34.5929 24.832C34.3902 24.6982 34.2868 24.4449 34.2828 24.072V22.1203C34.2828 22.096 34.2706 22.0838 34.2463 22.0838H33.8329C33.8085 22.0838 33.7883 22.0757 33.7721 22.0595C33.7518 22.0393 33.7417 22.017 33.7417 21.9927V21.3482C33.7417 21.3238 33.7518 21.3016 33.7721 21.2813C33.7883 21.2651 33.8085 21.257 33.8329 21.257H34.2463C34.2706 21.257 34.2828 21.2448 34.2828 21.2205V20.3511C34.2828 20.3267 34.2909 20.3065 34.3071 20.2903C34.3274 20.274 34.3497 20.2659 34.374 20.2659H35.1887C35.213 20.2659 35.2333 20.274 35.2495 20.2903C35.2657 20.3065 35.2738 20.3267 35.2738 20.3511V21.2205C35.2738 21.2448 35.286 21.257 35.3103 21.257H36.0156C36.0399 21.257 36.0602 21.2651 36.0764 21.2813C36.0926 21.3016 36.1007 21.3238 36.1007 21.3482V21.9927ZM40.1013 25.0691C39.7244 25.0691 39.394 24.9962 39.1103 24.8503C38.8266 24.7043 38.6057 24.4976 38.4476 24.2301C38.2895 23.9666 38.2105 23.6626 38.2105 23.3181V19.9863C38.2105 19.9619 38.2186 19.9417 38.2348 19.9254C38.251 19.9092 38.2713 19.9011 38.2956 19.9011H39.1529C39.1772 19.9011 39.1975 19.9092 39.2137 19.9254C39.2299 19.9417 39.238 19.9619 39.238 19.9863V23.3242C39.238 23.5795 39.317 23.7862 39.4751 23.9443C39.6332 24.1024 39.8419 24.1814 40.1013 24.1814C40.3567 24.1814 40.5634 24.1024 40.7215 23.9443C40.8796 23.7862 40.9586 23.5795 40.9586 23.3242V19.9863C40.9586 19.9619 40.9667 19.9417 40.9829 19.9254C41.0032 19.9092 41.0255 19.9011 41.0498 19.9011H41.901C41.9253 19.9011 41.9456 19.9092 41.9618 19.9254C41.978 19.9417 41.9861 19.9619 41.9861 19.9863V23.3181C41.9861 23.6626 41.9071 23.9666 41.749 24.2301C41.5909 24.4976 41.37 24.7043 41.0863 24.8503C40.8026 24.9962 40.4743 25.0691 40.1013 25.0691ZM44.2661 25.057C43.9378 25.057 43.6521 25.0124 43.4089 24.9232C43.1657 24.83 42.9772 24.7003 42.8434 24.5341C42.7097 24.3679 42.6428 24.1814 42.6428 23.9747V23.9018C42.6428 23.8774 42.6529 23.8552 42.6732 23.8349C42.6894 23.8187 42.7097 23.8106 42.734 23.8106H43.5426C43.5669 23.8106 43.5872 23.8187 43.6034 23.8349C43.6196 23.8552 43.6277 23.8774 43.6277 23.9018V23.9078C43.6277 24.0132 43.6885 24.1044 43.8101 24.1814C43.9277 24.2544 44.0777 24.2909 44.2601 24.2909C44.4222 24.2909 44.556 24.2585 44.6613 24.1936C44.7627 24.1288 44.8133 24.0477 44.8133 23.9504C44.8133 23.8612 44.7688 23.7964 44.6796 23.7558C44.5945 23.7113 44.4506 23.6646 44.2479 23.616C44.0209 23.5552 43.8426 23.4985 43.7129 23.4458C43.4008 23.3404 43.1515 23.2086 42.965 23.0506C42.7826 22.8965 42.6914 22.6736 42.6914 22.3818C42.6914 22.021 42.8313 21.7353 43.1109 21.5245C43.3906 21.3137 43.7615 21.2083 44.2236 21.2083C44.5316 21.2083 44.8032 21.257 45.0383 21.3543C45.2734 21.4556 45.4538 21.5954 45.5794 21.7738C45.7091 21.9562 45.774 22.1609 45.774 22.3878C45.774 22.4122 45.7659 22.4324 45.7497 22.4487C45.7335 22.4689 45.7132 22.479 45.6889 22.479H44.9045C44.8802 22.479 44.86 22.4689 44.8437 22.4487C44.8275 22.4324 44.8194 22.4122 44.8194 22.3878C44.8194 22.2825 44.7647 22.1933 44.6553 22.1203C44.5458 22.0474 44.4019 22.0109 44.2236 22.0109C44.0615 22.0109 43.9297 22.0393 43.8284 22.096C43.7271 22.1568 43.6764 22.2379 43.6764 22.3392C43.6764 22.4365 43.725 22.5095 43.8223 22.5581C43.9236 22.6067 44.0898 22.6574 44.3209 22.7101C44.3776 22.7263 44.4384 22.7425 44.5033 22.7587C44.5722 22.7749 44.6451 22.7952 44.7221 22.8195C45.0707 22.9209 45.3443 23.0526 45.5429 23.2147C45.7416 23.3728 45.8409 23.6059 45.8409 23.9139C45.8409 24.2747 45.699 24.5564 45.4153 24.759C45.1315 24.9577 44.7485 25.057 44.2661 25.057ZM49.7503 22.7466C49.7787 22.933 49.7888 23.1397 49.7807 23.3667C49.7767 23.4235 49.7442 23.4518 49.6834 23.4518H47.4338C47.4014 23.4518 47.3913 23.464 47.4034 23.4883C47.4156 23.5856 47.4419 23.6829 47.4825 23.7802C47.6081 24.0558 47.8655 24.1936 48.2546 24.1936C48.5667 24.1855 48.812 24.0578 48.9903 23.8106C49.0106 23.7822 49.0329 23.768 49.0572 23.768C49.0734 23.768 49.0916 23.7781 49.1119 23.7984L49.6348 24.3152C49.6591 24.3395 49.6713 24.3618 49.6713 24.3821C49.6713 24.3902 49.6611 24.4084 49.6409 24.4368C49.4828 24.6395 49.2761 24.7955 49.0207 24.905C48.7694 25.0144 48.4917 25.0691 48.1877 25.0691C47.7703 25.0691 47.4176 24.9739 47.1298 24.7834C46.838 24.5929 46.6292 24.3274 46.5036 23.9869C46.4023 23.7437 46.3516 23.4255 46.3516 23.0323C46.3516 22.7648 46.3881 22.5277 46.461 22.321C46.5745 21.9764 46.7711 21.7028 47.0508 21.5002C47.3305 21.2934 47.6608 21.1901 48.0418 21.1901C48.5282 21.1901 48.9194 21.332 49.2153 21.6157C49.5112 21.8994 49.6895 22.2764 49.7503 22.7466ZM48.054 22.0838C47.7459 22.0838 47.5433 22.2277 47.446 22.5155C47.4257 22.5763 47.4095 22.6533 47.3973 22.7466C47.3973 22.7709 47.4095 22.7831 47.4338 22.7831H48.6924C48.7208 22.7831 48.7309 22.7709 48.7228 22.7466C48.6985 22.6047 48.6863 22.5358 48.6863 22.5398C48.6417 22.3939 48.5647 22.2825 48.4553 22.2054C48.3458 22.1244 48.2121 22.0838 48.054 22.0838ZM52.2857 21.2083C52.46 21.2083 52.5978 21.2428 52.6991 21.3117C52.7396 21.3279 52.7538 21.3644 52.7417 21.4211L52.5897 22.248C52.5856 22.3088 52.5512 22.327 52.4863 22.3027C52.4133 22.2784 52.3282 22.2663 52.2309 22.2663C52.1945 22.2663 52.1418 22.2703 52.0729 22.2784C51.8986 22.2946 51.7506 22.3595 51.629 22.473C51.5074 22.5865 51.4466 22.7385 51.4466 22.929V24.9232C51.4466 24.9475 51.4365 24.9678 51.4162 24.984C51.4 25.0002 51.3797 25.0083 51.3554 25.0083H50.5042C50.4799 25.0083 50.4596 25.0002 50.4434 24.984C50.4232 24.9678 50.413 24.9475 50.413 24.9232V21.3482C50.413 21.3238 50.4232 21.3016 50.4434 21.2813C50.4596 21.2651 50.4799 21.257 50.5042 21.257H51.3554C51.3797 21.257 51.4 21.2651 51.4162 21.2813C51.4365 21.3016 51.4466 21.3238 51.4466 21.3482V21.6218C51.4466 21.638 51.4507 21.6481 51.4588 21.6522C51.4669 21.6562 51.475 21.6542 51.4831 21.6461C51.6817 21.3543 51.9492 21.2083 52.2857 21.2083Z" fill="#252530"/>
        <path d="M24.1524 41.7161C23.8362 41.7161 23.5606 41.6654 23.3255 41.5641C23.0904 41.4627 22.908 41.3209 22.7783 41.1385C22.6527 40.9561 22.5898 40.7412 22.5898 40.494V40.342C22.5898 40.3217 22.598 40.3035 22.6142 40.2873C22.6263 40.2751 22.6425 40.269 22.6628 40.269H23.2039C23.2242 40.269 23.2424 40.2751 23.2586 40.2873C23.2708 40.3035 23.2769 40.3217 23.2769 40.342V40.4575C23.2769 40.644 23.36 40.798 23.5262 40.9196C23.6924 41.0452 23.9193 41.1081 24.2071 41.1081C24.4544 41.1081 24.6408 41.0554 24.7665 40.95C24.8921 40.8446 24.955 40.7088 24.955 40.5426C24.955 40.4291 24.9205 40.3319 24.8516 40.2508C24.7827 40.1738 24.6854 40.1028 24.5598 40.038C24.4301 39.9731 24.2375 39.8921 23.9822 39.7948C23.6944 39.6894 23.4613 39.5901 23.283 39.4969C23.1046 39.4036 22.9567 39.276 22.8391 39.1138C22.7175 38.9558 22.6567 38.7571 22.6567 38.518C22.6567 38.1613 22.7864 37.8796 23.0458 37.6729C23.3053 37.4662 23.6518 37.3628 24.0855 37.3628C24.3895 37.3628 24.6591 37.4155 24.8942 37.5209C25.1252 37.6263 25.3056 37.7742 25.4353 37.9647C25.565 38.1512 25.6298 38.368 25.6298 38.6153V38.7186C25.6298 38.7389 25.6217 38.7571 25.6055 38.7734C25.5934 38.7855 25.5772 38.7916 25.5569 38.7916H25.0097C24.9894 38.7916 24.9732 38.7855 24.961 38.7734C24.9448 38.7571 24.9367 38.7389 24.9367 38.7186V38.6518C24.9367 38.4612 24.8597 38.3011 24.7057 38.1714C24.5476 38.0377 24.3308 37.9708 24.0551 37.9708C23.8322 37.9708 23.6599 38.0174 23.5383 38.1106C23.4127 38.2039 23.3498 38.3356 23.3498 38.5058C23.3498 38.6274 23.3823 38.7267 23.4471 38.8038C23.512 38.8808 23.6093 38.9497 23.739 39.0105C23.8687 39.0753 24.0693 39.1564 24.3409 39.2537C24.6287 39.3631 24.8597 39.4624 25.034 39.5516C25.2042 39.6408 25.3522 39.7644 25.4778 39.9225C25.5994 40.0846 25.6602 40.2852 25.6602 40.5244C25.6602 40.8892 25.5245 41.179 25.2529 41.3938C24.9854 41.6087 24.6185 41.7161 24.1524 41.7161ZM28.0801 37.4054C28.3354 37.4054 28.5604 37.458 28.755 37.5634C28.9495 37.6688 29.0995 37.8168 29.2049 38.0073C29.3143 38.2018 29.369 38.4248 29.369 38.6761C29.369 38.9233 29.3143 39.1422 29.2049 39.3327C29.0954 39.5232 28.9414 39.6691 28.7428 39.7705C28.5401 39.8759 28.3071 39.9286 28.0436 39.9286H27.0708C27.0505 39.9286 27.0404 39.9387 27.0404 39.959V41.5945C27.0404 41.6147 27.0343 41.631 27.0222 41.6431C27.006 41.6593 26.9877 41.6674 26.9674 41.6674H26.4081C26.3878 41.6674 26.3716 41.6593 26.3594 41.6431C26.3432 41.631 26.3351 41.6147 26.3351 41.5945V37.4783C26.3351 37.458 26.3432 37.4398 26.3594 37.4236C26.3716 37.4114 26.3878 37.4054 26.4081 37.4054H28.0801ZM27.9767 39.357C28.1834 39.357 28.3496 39.2962 28.4753 39.1746C28.6009 39.053 28.6638 38.8929 28.6638 38.6943C28.6638 38.4916 28.6009 38.3275 28.4753 38.2018C28.3496 38.0762 28.1834 38.0134 27.9767 38.0134H27.0708C27.0505 38.0134 27.0404 38.0235 27.0404 38.0438V39.3266C27.0404 39.3469 27.0505 39.357 27.0708 39.357H27.9767ZM32.3786 41.6674C32.3381 41.6674 32.3097 41.6492 32.2935 41.6127L31.491 39.8617C31.4829 39.8455 31.4707 39.8374 31.4545 39.8374H30.7249C30.7046 39.8374 30.6945 39.8475 30.6945 39.8678V41.5945C30.6945 41.6147 30.6864 41.631 30.6702 41.6431C30.658 41.6593 30.6418 41.6674 30.6215 41.6674H30.0622C30.0419 41.6674 30.0257 41.6593 30.0135 41.6431C29.9973 41.631 29.9892 41.6147 29.9892 41.5945V37.4844C29.9892 37.4641 29.9973 37.4479 30.0135 37.4358C30.0257 37.4195 30.0419 37.4114 30.0622 37.4114H31.7342C31.9814 37.4114 32.2003 37.4621 32.3908 37.5634C32.5813 37.6688 32.7293 37.8147 32.8346 38.0012C32.94 38.1917 32.9927 38.4086 32.9927 38.6518C32.9927 38.9314 32.9218 39.1686 32.7799 39.3631C32.634 39.5617 32.4334 39.6995 32.178 39.7766C32.1699 39.7766 32.1638 39.7806 32.1598 39.7887C32.1557 39.7968 32.1557 39.8049 32.1598 39.813L33.017 41.5823C33.0252 41.5985 33.0292 41.6107 33.0292 41.6188C33.0292 41.6512 33.0069 41.6674 32.9623 41.6674H32.3786ZM30.7249 38.0194C30.7046 38.0194 30.6945 38.0296 30.6945 38.0498V39.2598C30.6945 39.28 30.7046 39.2902 30.7249 39.2902H31.6369C31.8314 39.2902 31.9875 39.2314 32.105 39.1138C32.2266 39.0003 32.2874 38.8483 32.2874 38.6578C32.2874 38.4673 32.2266 38.3133 32.105 38.1958C31.9875 38.0782 31.8314 38.0194 31.6369 38.0194H30.7249ZM33.7892 41.6674C33.7689 41.6674 33.7507 41.6593 33.7345 41.6431C33.7223 41.631 33.7162 41.6147 33.7162 41.5945V37.4844C33.7162 37.4641 33.7223 37.4479 33.7345 37.4358C33.7507 37.4195 33.7689 37.4114 33.7892 37.4114H34.3486C34.3688 37.4114 34.385 37.4195 34.3972 37.4358C34.4134 37.4479 34.4215 37.4641 34.4215 37.4844V41.5945C34.4215 41.6147 34.4134 41.631 34.3972 41.6431C34.385 41.6593 34.3688 41.6674 34.3486 41.6674H33.7892ZM37.7838 37.4844C37.7838 37.4641 37.7919 37.4479 37.8081 37.4358C37.8202 37.4195 37.8365 37.4114 37.8567 37.4114H38.4161C38.4363 37.4114 38.4546 37.4195 38.4708 37.4358C38.483 37.4479 38.489 37.4641 38.489 37.4844V41.5945C38.489 41.6147 38.483 41.631 38.4708 41.6431C38.4546 41.6593 38.4363 41.6674 38.4161 41.6674H37.875C37.8344 41.6674 37.8061 41.6512 37.7898 41.6188L36.0388 38.749C36.0307 38.7369 36.0226 38.7308 36.0145 38.7308C36.0064 38.7348 36.0023 38.745 36.0023 38.7612L36.0145 41.5945C36.0145 41.6147 36.0064 41.631 35.9902 41.6431C35.978 41.6593 35.9618 41.6674 35.9415 41.6674H35.3822C35.3619 41.6674 35.3457 41.6593 35.3335 41.6431C35.3173 41.631 35.3092 41.6147 35.3092 41.5945V37.4844C35.3092 37.4641 35.3173 37.4479 35.3335 37.4358C35.3457 37.4195 35.3619 37.4114 35.3822 37.4114H35.9233C35.9638 37.4114 35.9922 37.4276 36.0084 37.4601L37.7534 40.3298C37.7615 40.342 37.7696 40.346 37.7777 40.342C37.7858 40.342 37.7898 40.3339 37.7898 40.3177L37.7838 37.4844ZM40.7994 41.7161C40.4954 41.7161 40.2279 41.6573 39.9969 41.5398C39.7658 41.4182 39.5875 41.2479 39.4618 41.029C39.3362 40.8102 39.2734 40.5588 39.2734 40.2751V38.8038C39.2734 38.516 39.3362 38.2626 39.4618 38.0438C39.5875 37.8289 39.7658 37.6607 39.9969 37.5391C40.2279 37.4216 40.4954 37.3628 40.7994 37.3628C41.0994 37.3628 41.3649 37.4216 41.5959 37.5391C41.8229 37.6567 41.9992 37.8168 42.1249 38.0194C42.2505 38.2221 42.3134 38.4511 42.3134 38.7065V38.7551C42.3134 38.7754 42.3073 38.7916 42.2951 38.8038C42.2789 38.82 42.2607 38.8281 42.2404 38.8281H41.6871C41.6669 38.8281 41.6506 38.82 41.6385 38.8038C41.6223 38.7916 41.6142 38.7754 41.6142 38.7551V38.7247C41.6142 38.5058 41.5392 38.3255 41.3892 38.1836C41.2433 38.0417 41.0467 37.9708 40.7994 37.9708C40.5522 37.9708 40.3536 38.0458 40.2036 38.1958C40.0536 38.3417 39.9786 38.5362 39.9786 38.7794V40.2994C39.9786 40.5426 40.0577 40.7392 40.2158 40.8892C40.3738 41.0351 40.5785 41.1081 40.8298 41.1081C41.073 41.1081 41.2656 41.0432 41.4074 40.9135C41.5453 40.7879 41.6142 40.6136 41.6142 40.3906V40.0137C41.6142 39.9934 41.604 39.9833 41.5838 39.9833H40.8359C40.8157 39.9833 40.7974 39.9752 40.7812 39.959C40.769 39.9468 40.763 39.9306 40.763 39.9103V39.4604C40.763 39.4401 40.769 39.4239 40.7812 39.4118C40.7974 39.3955 40.8157 39.3874 40.8359 39.3874H42.2404C42.2607 39.3874 42.2789 39.3955 42.2951 39.4118C42.3073 39.4239 42.3134 39.4401 42.3134 39.4604V40.2386C42.3134 40.7048 42.1776 41.0675 41.906 41.327C41.6304 41.5864 41.2615 41.7161 40.7994 41.7161Z" fill="white"/>
        <path d="M24.3643 52.6475C24.3521 52.6597 24.3481 52.6719 24.3521 52.684C24.3602 52.6962 24.3724 52.7023 24.3886 52.7023H26.778C26.8064 52.7023 26.8307 52.7124 26.851 52.7327C26.8753 52.7529 26.8875 52.7772 26.8875 52.8056V53.6629C26.8875 53.6913 26.8753 53.7156 26.851 53.7359C26.8307 53.7561 26.8064 53.7663 26.778 53.7663H22.8139C22.7815 53.7663 22.7551 53.7561 22.7348 53.7359C22.7146 53.7156 22.7044 53.6913 22.7044 53.6629V52.8482C22.7044 52.7955 22.7227 52.7509 22.7592 52.7144C23.047 52.4347 23.3408 52.1287 23.6408 51.7963C23.9407 51.464 24.1292 51.2572 24.2062 51.1762C24.3683 50.9816 24.5345 50.7952 24.7048 50.6168C25.2398 50.025 25.5073 49.5852 25.5073 49.2975C25.5073 49.0907 25.4344 48.9205 25.2884 48.7867C25.1425 48.657 24.952 48.5922 24.7169 48.5922C24.4818 48.5922 24.2913 48.657 24.1454 48.7867C23.9954 48.9205 23.9204 49.0968 23.9204 49.3157V49.5346C23.9204 49.5629 23.9103 49.5873 23.89 49.6075C23.8698 49.6278 23.8455 49.6379 23.8171 49.6379H22.7774C22.749 49.6379 22.7247 49.6278 22.7044 49.6075C22.6801 49.5873 22.668 49.5629 22.668 49.5346V49.1211C22.6882 48.805 22.7896 48.5233 22.972 48.276C23.1544 48.0328 23.3955 47.8464 23.6955 47.7167C23.9995 47.5869 24.34 47.5221 24.7169 47.5221C25.1344 47.5221 25.4972 47.6011 25.8052 47.7592C26.1133 47.9132 26.3504 48.122 26.5166 48.3855C26.6868 48.653 26.772 48.9468 26.772 49.2671C26.772 49.5143 26.7091 49.7676 26.5835 50.0271C26.4619 50.2865 26.2775 50.5661 26.0302 50.8661C25.8478 51.0931 25.6512 51.3201 25.4404 51.5471C25.2297 51.77 24.9155 52.0922 24.498 52.5138L24.3643 52.6475ZM29.7512 53.8635C29.1026 53.8635 28.5919 53.6832 28.219 53.3224C27.842 52.9617 27.6536 52.4692 27.6536 51.845V49.5163C27.6536 48.9043 27.842 48.4199 28.219 48.0632C28.5919 47.7025 29.1026 47.5221 29.7512 47.5221C30.3956 47.5221 30.9084 47.7025 31.2894 48.0632C31.6664 48.4199 31.8548 48.9043 31.8548 49.5163V51.845C31.8548 52.4692 31.6664 52.9617 31.2894 53.3224C30.9084 53.6832 30.3956 53.8635 29.7512 53.8635ZM29.7512 52.7995C30.0146 52.7995 30.2234 52.7185 30.3774 52.5563C30.5355 52.3942 30.6145 52.1773 30.6145 51.9058V49.4799C30.6145 49.2123 30.5355 48.9975 30.3774 48.8354C30.2234 48.6732 30.0146 48.5922 29.7512 48.5922C29.4918 48.5922 29.285 48.6732 29.131 48.8354C28.9729 48.9975 28.8939 49.2123 28.8939 49.4799V51.9058C28.8939 52.1773 28.9729 52.3942 29.131 52.5563C29.285 52.7185 29.4918 52.7995 29.7512 52.7995ZM34.3233 52.6475C34.3112 52.6597 34.3091 52.6719 34.3172 52.684C34.3213 52.6962 34.3335 52.7023 34.3537 52.7023H36.7432C36.7715 52.7023 36.7959 52.7124 36.8161 52.7327C36.8364 52.7529 36.8465 52.7772 36.8465 52.8056V53.6629C36.8465 53.6913 36.8364 53.7156 36.8161 53.7359C36.7959 53.7561 36.7715 53.7663 36.7432 53.7663H32.7729C32.7446 53.7663 32.7202 53.7561 32.7 53.7359C32.6797 53.7156 32.6696 53.6913 32.6696 53.6629V52.8482C32.6696 52.7955 32.6858 52.7509 32.7182 52.7144C33.01 52.4347 33.3039 52.1287 33.5998 51.7963C33.8998 51.464 34.0882 51.2572 34.1652 51.1762C34.3314 50.9816 34.4996 50.7952 34.6699 50.6168C35.2049 50.025 35.4724 49.5852 35.4724 49.2975C35.4724 49.0907 35.3995 48.9205 35.2536 48.7867C35.1036 48.657 34.9111 48.5922 34.676 48.5922C34.4409 48.5922 34.2504 48.657 34.1044 48.7867C33.9585 48.9205 33.8856 49.0968 33.8856 49.3157V49.5346C33.8856 49.5629 33.8754 49.5873 33.8552 49.6075C33.8349 49.6278 33.8086 49.6379 33.7761 49.6379H32.7364C32.7081 49.6379 32.6838 49.6278 32.6635 49.6075C32.6432 49.5873 32.6331 49.5629 32.6331 49.5346V49.1211C32.6493 48.805 32.7486 48.5233 32.931 48.276C33.1134 48.0328 33.3566 47.8464 33.6606 47.7167C33.9646 47.5869 34.3031 47.5221 34.676 47.5221C35.0935 47.5221 35.4562 47.6011 35.7643 47.7592C36.0764 47.9132 36.3155 48.122 36.4817 48.3855C36.6479 48.653 36.731 48.9468 36.731 49.2671C36.731 49.5143 36.6702 49.7676 36.5486 50.0271C36.423 50.2865 36.2365 50.5661 35.9892 50.8661C35.8068 51.0931 35.6103 51.3201 35.3995 51.5471C35.1887 51.77 34.8746 52.0922 34.4571 52.5138L34.3233 52.6475ZM42.0206 51.0789C42.049 51.0789 42.0753 51.089 42.0996 51.1093C42.1199 51.1296 42.13 51.1539 42.13 51.1823V52.076C42.13 52.1044 42.1199 52.1287 42.0996 52.149C42.0753 52.1692 42.049 52.1794 42.0206 52.1794H41.6436C41.6153 52.1794 41.6011 52.1936 41.6011 52.2219V53.6629C41.6011 53.6913 41.591 53.7156 41.5707 53.7359C41.5464 53.7561 41.52 53.7663 41.4916 53.7663H40.4641C40.4317 53.7663 40.4054 53.7561 40.3851 53.7359C40.3648 53.7156 40.3547 53.6913 40.3547 53.6629V52.2219C40.3547 52.1936 40.3405 52.1794 40.3121 52.1794H37.6065C37.5782 52.1794 37.5518 52.1692 37.5275 52.149C37.5072 52.1287 37.4971 52.1044 37.4971 52.076V51.3707C37.4971 51.3343 37.5072 51.2897 37.5275 51.237L39.1144 47.6741C39.1387 47.6214 39.1792 47.5951 39.236 47.5951H40.3364C40.377 47.5951 40.4054 47.6052 40.4216 47.6255C40.4378 47.6457 40.4358 47.6761 40.4155 47.7167L38.9441 51.0242C38.9401 51.0363 38.9401 51.0485 38.9441 51.0607C38.9522 51.0728 38.9624 51.0789 38.9745 51.0789H40.3121C40.3405 51.0789 40.3547 51.0627 40.3547 51.0303V49.9419C40.3547 49.9095 40.3648 49.8832 40.3851 49.8629C40.4054 49.8426 40.4317 49.8325 40.4641 49.8325H41.4916C41.52 49.8325 41.5464 49.8426 41.5707 49.8629C41.591 49.8832 41.6011 49.9095 41.6011 49.9419V51.0303C41.6011 51.0627 41.6153 51.0789 41.6436 51.0789H42.0206Z" fill="#252530"/>
    </g>
    <defs>
        <filter id="filter0_dddd_1324_11896" x="0.733083" y="0.406015" width="63.5338" height="76.1767" filterUnits="userSpaceOnUse" color-interpolation-filters="sRGB">
            <feFlood flood-opacity="0" result="BackgroundImageFix"/>
            <feColorMatrix in="SourceAlpha" type="matrix" values="0 0 0 0 0 0 0 0 0 0 0 0 0 0 0 0 0 0 127 0" result="hardAlpha"/>
            <feOffset dy="0.593985"/>
            <feGaussianBlur stdDeviation="0.593985"/>
            <feColorMatrix type="matrix" values="0 0 0 0 0.0117647 0 0 0 0 0.00784314 0 0 0 0 0.0509804 0 0 0 0.06 0"/>
            <feBlend mode="normal" in2="BackgroundImageFix" result="effect1_dropShadow_1324_11896"/>
            <feColorMatrix in="SourceAlpha" type="matrix" values="0 0 0 0 0 0 0 0 0 0 0 0 0 0 0 0 0 0 127 0" result="hardAlpha"/>
            <feOffset dy="2.07895"/>
            <feGaussianBlur stdDeviation="1.03947"/>
            <feColorMatrix type="matrix" values="0 0 0 0 0.0117647 0 0 0 0 0.00784314 0 0 0 0 0.0509804 0 0 0 0.05 0"/>
            <feBlend mode="normal" in2="effect1_dropShadow_1324_11896" result="effect2_dropShadow_1324_11896"/>
            <feColorMatrix in="SourceAlpha" type="matrix" values="0 0 0 0 0 0 0 0 0 0 0 0 0 0 0 0 0 0 127 0" result="hardAlpha"/>
            <feOffset dy="4.75188"/>
            <feGaussianBlur stdDeviation="1.33647"/>
            <feColorMatrix type="matrix" values="0 0 0 0 0.0117647 0 0 0 0 0.00784314 0 0 0 0 0.0509804 0 0 0 0.03 0"/>
            <feBlend mode="normal" in2="effect2_dropShadow_1324_11896" result="effect3_dropShadow_1324_11896"/>
            <feColorMatrix in="SourceAlpha" type="matrix" values="0 0 0 0 0 0 0 0 0 0 0 0 0 0 0 0 0 0 127 0" result="hardAlpha"/>
            <feOffset dy="8.31579"/>
            <feGaussianBlur stdDeviation="1.63346"/>
            <feColorMatrix type="matrix" values="0 0 0 0 0.0117647 0 0 0 0 0.00784314 0 0 0 0 0.0509804 0 0 0 0.01 0"/>
            <feBlend mode="normal" in2="effect3_dropShadow_1324_11896" result="effect4_dropShadow_1324_11896"/>
            <feBlend mode="normal" in="SourceGraphic" in2="effect4_dropShadow_1324_11896" result="shape"/>
        </filter>
    </defs>
</svg>
