<svg width="24" height="24" viewBox="0 0 24 24" fill="none" xmlns="http://www.w3.org/2000/svg">
<path d="M17.122 20.5734H3.5C3.5 22.4677 5.0222 24 6.90634 24H17.122C19.0027 24 20.5249 22.4643 20.5249 20.5734V6.49471C20.5249 6.42706 20.4708 6.36617 20.4032 6.36617H17.2438C17.1761 6.36617 17.122 6.42368 17.122 6.49133V20.57V20.5734ZM17.122 0C19.0027 0 20.5249 1.53573 20.5249 3.43002H6.90634V17.5087C6.90634 17.5763 6.84884 17.6338 6.78118 17.6338H3.62516C3.55751 17.6338 3.5 17.5763 3.5 17.5087V3.43002C3.5 1.53573 5.0222 0 6.90634 0H17.122Z" fill="currentColor"/>
</svg>
