<svg width="24" height="24" viewBox="0 0 24 24" fill="none" xmlns="http://www.w3.org/2000/svg">
<path d="M23.4985 6.63136C23.2225 5.59556 22.4093 4.77991 21.3766 4.5031C19.505 4.00001 12 4.00001 12 4.00001C12 4.00001 4.495 4.00001 2.62335 4.5031C1.59076 4.77991 0.777485 5.59556 0.501509 6.63136C0 8.50866 0 12.4255 0 12.4255C0 12.4255 0 16.3424 0.501509 18.2198C0.777485 19.2555 1.59076 20.0712 2.62335 20.3481C4.495 20.8511 12 20.8511 12 20.8511C12 20.8511 19.505 20.8511 21.3766 20.3481C22.4093 20.0712 23.2225 19.2555 23.4985 18.2198C24 16.3424 24 12.4255 24 12.4255C24 12.4255 24 8.50866 23.4985 6.63136Z" fill="currentColor"/>
<path d="M9.54541 15.9818L15.8181 12.4258L9.54541 8.86937V15.9818Z" fill="white"/>
</svg>
