<svg width="24" height="24" viewBox="0 0 24 24" fill="currentColor" xmlns="http://www.w3.org/2000/svg">
<path d="M22.5615 11.8081L16.0195 15.5923V8.02002L22.5615 4.22803V11.8081ZM17.5195 8.8833V12.9907L21.0615 10.9419V6.83057L17.5195 8.8833Z" fill="#03020D"/>
<path d="M15.3018 8.02002V15.5923L8.75977 11.8042V4.22803L15.3018 8.02002ZM10.2598 10.939L13.8018 12.9907V8.88428L10.2598 6.83057V10.939Z" fill="#03020D"/>
<path d="M15.3018 16.4238V24L8.75977 20.2119V12.6357L15.3018 16.4238ZM10.2598 19.3467L13.8018 21.3984V17.2881L10.2598 15.2373V19.3467ZM8.04199 3.78809V11.3643L1.5 7.57617V0L8.04199 3.78809ZM3 6.71094L6.54199 8.7627V4.65234L3 2.60156V6.71094Z" fill="#03020D"/>
</svg>
