<svg width="48" height="48" viewBox="0 0 48 48" fill="none" xmlns="http://www.w3.org/2000/svg">
  <defs>
    <linearGradient id="paint0_linear_1031_1997" x1="12.515" y1="40.8659" x2="34.7732" y2="16.1448"
      gradientUnits="userSpaceOnUse">
      <stop stop-color="#FF5416" />
      <stop offset="0.254" stop-color="#FF5115" />
      <stop offset="0.461" stop-color="#FF4712" />
      <stop offset="0.652" stop-color="#FF350E" />
      <stop offset="0.833" stop-color="#FF1E08" />
      <stop offset="1" stop-color="#FF0000" />
    </linearGradient>
    <linearGradient id="paint1_linear_1031_1997" x1="16.8321" y1="42.4636" x2="29.9877" y2="27.8529"
      gradientUnits="userSpaceOnUse">
      <stop stop-color="#FF5416" />
      <stop offset="0.254" stop-color="#FF5115" />
      <stop offset="0.461" stop-color="#FF4712" />
      <stop offset="0.652" stop-color="#FF350E" />
      <stop offset="0.833" stop-color="#FF1E08" />
      <stop offset="1" stop-color="#FF0000" />
    </linearGradient>
    <clipPath id="clip0_1031_1997">
      <rect width="48" height="48" fill="white" />
    </clipPath>
  </defs>
  <g clip-path="url(#clip0_1031_1997)">
    <path
      d="M23.9072 10L10.5965 34.3623L8 32.5411L20.316 10H23.9072ZM24.0928 10L37.4035 34.3623L40 32.5411L27.6832 10H24.092H24.0928Z"
      fill="url(#paint0_linear_1031_1997)" />
    <path
      d="M37.218 34.505L23.9997 24.1537L10.7821 34.505L13.4793 36.3938L23.9997 28.1581L34.5201 36.3938L37.2172 34.505H37.218Z"
      fill="url(#paint1_linear_1031_1997)" />
    <path fill-rule="evenodd" clip-rule="evenodd"
      d="M44 2H4C2.89543 2 2 2.89543 2 4V44C2 45.1046 2.89543 46 4 46H44C45.1046 46 46 45.1046 46 44V4C46 2.89543 45.1046 2 44 2ZM4 0C1.79086 0 0 1.79086 0 4V44C0 46.2091 1.79086 48 4 48H44C46.2091 48 48 46.2091 48 44V4C48 1.79086 46.2091 0 44 0H4Z"
      fill="#03020D" />
  </g>
</svg>