<svg width="48" height="48" viewBox="0 0 48 48" fill="none" xmlns="http://www.w3.org/2000/svg">
  <defs>
    <clipPath id="clip0_1031_1957">
      <rect width="48" height="48" fill="white" />
    </clipPath>
  </defs>
  <g clip-path="url(#clip0_1031_1957)">
    <path
      d="M13.8499 3C12.5535 3.00281 11.2845 3.73875 10.632 4.86131L0.481922 22.4931C-0.160641 23.6186 -0.160641 25.0899 0.481922 26.2155L10.632 43.8474C11.2845 44.97 12.5535 45.7061 13.8499 45.7088H34.1502C35.4465 45.7059 36.7155 44.97 37.368 43.8474L47.5182 26.2155C48.1607 25.0899 48.1605 23.6186 47.5182 22.4931L37.368 4.86131C36.7155 3.73856 35.4465 3.00263 34.1502 3H13.8499ZM14.0342 13.3149C14.0622 13.3121 14.0914 13.3121 14.1194 13.3149H17.6207C17.6985 13.3175 17.7744 13.3396 17.8414 13.3794C17.9083 13.4191 17.9641 13.4751 18.0036 13.5422L23.9434 24.1269C23.9734 24.1794 23.9925 24.2376 23.9997 24.2976C24.0072 24.2376 24.0263 24.1794 24.0563 24.1269L29.9819 13.5422C30.0227 13.4732 30.0807 13.416 30.1503 13.3761C30.2199 13.3363 30.2986 13.3152 30.3788 13.3149H33.8804C34.1903 13.3176 34.4226 13.7081 34.2773 13.9826L28.4792 24.3544L34.2773 34.7119C34.4363 34.9879 34.1986 35.3964 33.8804 35.3938H30.3788C30.2972 35.3921 30.2176 35.3689 30.1479 35.3264C30.0782 35.284 30.0209 35.224 29.9819 35.1523L24.0563 24.5674C24.0263 24.5151 24.0072 24.4568 23.9999 24.3969C23.9926 24.457 23.9734 24.515 23.9434 24.5676L18.0034 35.1523C17.9657 35.2219 17.9107 35.2807 17.8437 35.323C17.7767 35.3653 17.7 35.3897 17.6209 35.3938H14.1192C13.801 35.3966 13.5632 34.9879 13.7222 34.7119L19.5203 24.3544L13.7222 13.9826C13.5833 13.7321 13.7528 13.3684 14.034 13.3149H14.0342Z"
      fill="#3498DB" />
  </g>
</svg>