<svg width="48" height="48" viewBox="0 0 48 48" fill="none" xmlns="http://www.w3.org/2000/svg">
<path fill-rule="evenodd" clip-rule="evenodd" d="M21.2722 36.108H42.057L48 42.0197H18.7723L12.0589 35.3062L16.2568 31.1085L5.943 20.7947V14.946H11.9017V18.3263L16.2568 22.6813L22.6243 16.3138L18.2693 11.9587H5.943V11.943L0 6H20.7534L31.0828 16.3766L28.9918 18.4678L33.0795 22.5555V30.9986L24.7626 22.6815L22.6401 24.804L30.957 33.1367H22.5142L18.4108 29.0333L16.3039 31.14L21.2722 36.108ZM42.0412 33.121H36.0825V33.1208V21.282L31.1143 16.3138L35.3278 12.1003L42.0412 18.8136V33.121Z" fill="#231F20"/>
</svg>
