<svg width="48" height="48" viewBox="0 0 48 48" fill="none" xmlns="http://www.w3.org/2000/svg">
<path d="M46.11 35.561C43.5489 36.8959 30.2818 42.3509 27.4573 43.8234C24.6329 45.2962 23.0638 45.2819 20.8324 44.2152C18.6013 43.1486 4.48277 37.4456 1.93948 36.2299C0.668489 35.6225 0 35.1096 0 34.6252V29.7744C0 29.7744 18.3806 25.773 21.348 24.7084C24.3151 23.6438 25.3447 23.6054 27.8698 24.5303C30.3952 25.4557 45.4945 28.1799 47.9902 29.0939L47.9891 33.8761C47.9895 34.3556 47.4136 34.8817 46.11 35.561Z" fill="#912626"/>
<path d="M46.109 30.7388C43.5481 32.0731 30.2814 37.5283 27.4569 39.0006C24.6326 40.4735 23.0636 40.4591 20.8324 39.3924C18.601 38.3265 4.48311 32.6226 1.94 31.4076C-0.603107 30.192 -0.656346 29.3553 1.84177 28.3771C4.33989 27.3986 18.3804 21.89 21.3481 20.8254C24.3153 19.7612 25.3446 19.7224 27.8697 20.6477C30.395 21.5726 43.5826 26.8218 46.0779 27.7356C48.5741 28.6506 48.6699 29.4041 46.109 30.7388Z" fill="#C6302B"/>
<path d="M46.11 27.7122C43.5489 29.0473 30.2818 34.5021 27.4573 35.9752C24.6329 37.4473 23.0638 37.433 20.8324 36.3664C18.6011 35.3003 4.48277 29.5968 1.93948 28.3811C0.668489 27.7737 0 27.2616 0 26.777V21.9256C0 21.9256 18.3806 17.9245 21.348 16.8599C24.3151 15.7953 25.3447 15.7567 27.8698 16.6818C30.3954 17.6069 45.4947 20.3305 47.9902 21.2448L47.9891 26.0275C47.9895 26.5068 47.4136 27.0329 46.11 27.7122Z" fill="#912626"/>
<path d="M46.109 22.89C43.5481 24.2248 30.2814 29.6795 27.4569 31.1524C24.6326 32.6247 23.0636 32.6103 20.8324 31.5436C18.601 30.4777 4.48311 24.774 1.94 23.5589C-0.603107 22.3436 -0.656346 21.5068 1.84177 20.5282C4.33989 19.5502 18.3806 14.0413 21.3481 12.9769C24.3153 11.9125 25.3446 11.8739 27.8697 12.799C30.395 13.7239 43.5826 18.9727 46.0779 19.8869C48.5741 20.8017 48.6699 21.5553 46.109 22.89Z" fill="#C6302B"/>
<path d="M46.11 19.5722C43.5489 20.9069 30.2818 26.3621 27.4573 27.8351C24.6329 29.3075 23.0638 29.293 20.8324 28.2264C18.6011 27.1603 4.48277 21.4566 1.93948 20.2414C0.668489 19.6335 0 19.1212 0 18.6371V13.7856C0 13.7856 18.3806 9.78462 21.348 8.72021C24.3151 7.65543 25.3447 7.61718 27.8698 8.54212C30.3954 9.46724 45.4947 12.1909 47.9902 13.1051L47.9891 17.8877C47.9895 18.3666 47.4136 18.8926 46.11 19.5722Z" fill="#912626"/>
<path d="M46.109 14.7502C43.5481 16.0849 30.2814 21.5401 27.457 23.0124C24.6327 24.4847 23.0636 24.4703 20.8324 23.4042C18.6013 22.3375 4.48314 16.6342 1.94022 15.4189C-0.603078 14.2037 -0.65613 13.3667 1.8418 12.3884C4.33991 11.4102 18.3806 5.90198 21.3481 4.8372C24.3153 3.7726 25.3446 3.73436 27.8697 4.65949C30.395 5.58461 43.5826 10.8334 46.0779 11.7476C48.5742 12.6617 48.6699 13.4155 46.109 14.7502Z" fill="#C6302B"/>
<path d="M34.7357 10.6389L41.2662 13.2195L34.7413 15.7976L34.7357 10.6387" fill="#621B1C"/>
<path d="M29.8596 10.0308L25.7335 10.4592L24.8099 12.6817L23.318 10.2016L18.5537 9.77346L22.1087 8.49141L21.0421 6.52344L24.3705 7.82517L27.5082 6.79788L26.6601 8.83278L29.8596 10.0308ZM24.5635 20.8133L16.8632 17.6195L27.8972 15.9258L24.5635 20.8133ZM13.8876 11.2662C17.1447 11.2662 19.7851 12.2898 19.7851 13.5521C19.7851 14.8149 17.1447 15.8382 13.8876 15.8382C10.6304 15.8382 7.98999 14.8147 7.98999 13.5521C7.98999 12.2898 10.6304 11.2662 13.8876 11.2662Z" fill="white"/>
<path d="M27.511 13.4965L34.7358 10.6387L34.7414 15.7974L34.033 16.0745L27.511 13.4965Z" fill="#9A2928"/>
</svg>
