<svg width="48" height="48" viewBox="0 0 48 48" fill="none" xmlns="http://www.w3.org/2000/svg">
<path fill-rule="evenodd" clip-rule="evenodd" d="M41.7846 12.5772L25 2.8866C24.3812 2.52934 23.6188 2.52934 23 2.8866L6.21539 12.5772C5.59659 12.9345 5.21539 13.5947 5.21539 14.3093V33.6904C5.21539 34.405 5.59659 35.0652 6.21539 35.4225L23 45.1131C23.6188 45.4704 24.3812 45.4704 25 45.1131L41.7846 35.4225C42.4034 35.0652 42.7846 34.405 42.7846 33.6904V14.3093C42.7846 13.5947 42.4034 12.9345 41.7846 12.5772ZM26 1.15455C24.7624 0.44002 23.2376 0.440019 22 1.15455L5.21539 10.8451C3.97779 11.5597 3.21539 12.8802 3.21539 14.3093V33.6904C3.21539 35.1195 3.97779 36.44 5.21539 37.1546L22 46.8451C23.2376 47.5597 24.7624 47.5597 26 46.8451L42.7846 37.1546C44.0222 36.44 44.7846 35.1195 44.7846 33.6904V14.3093C44.7846 12.8802 44.0222 11.5597 42.7846 10.8451L26 1.15455Z" fill="#03020D"/>
<path fill-rule="evenodd" clip-rule="evenodd" d="M36.5885 15.5772L25 8.8866C24.3812 8.52934 23.6188 8.52934 23 8.8866L11.4116 15.5772C10.7928 15.9345 10.4116 16.5947 10.4116 17.3093V30.6904C10.4116 31.405 10.7928 32.0652 11.4116 32.4225L23 39.1131C23.6188 39.4704 24.3812 39.4704 25 39.1131L36.5885 32.4225C37.2073 32.0652 37.5885 31.405 37.5885 30.6904V17.3093C37.5885 16.5947 37.2073 15.9345 36.5885 15.5772ZM26 7.15455C24.7624 6.44002 23.2376 6.44002 22 7.15455L10.4116 13.8451C9.17396 14.5597 8.41156 15.8802 8.41156 17.3093V30.6904C8.41156 32.1195 9.17395 33.44 10.4116 34.1545L22 40.8451C23.2376 41.5597 24.7624 41.5597 26 40.8451L37.5885 34.1546C38.8261 33.44 39.5885 32.1195 39.5885 30.6904V17.3093C39.5885 15.8802 38.8261 14.5597 37.5885 13.8451L26 7.15455Z" fill="#03020D"/>
<path fill-rule="evenodd" clip-rule="evenodd" d="M31.3923 18.5772L25 14.8866C24.3812 14.5293 23.6188 14.5293 23 14.8866L16.6077 18.5772C15.9889 18.9345 15.6077 19.5947 15.6077 20.3093V27.6904C15.6077 28.405 15.9889 29.0652 16.6077 29.4225L23 33.1131C23.6188 33.4704 24.3812 33.4704 25 33.1131L31.3923 29.4225C32.0111 29.0652 32.3923 28.405 32.3923 27.6904V20.3093C32.3923 19.5947 32.0111 18.9345 31.3923 18.5772ZM26 13.1546C24.7624 12.44 23.2376 12.44 22 13.1546L15.6077 16.8451C14.3701 17.5597 13.6077 18.8802 13.6077 20.3093V27.6904C13.6077 29.1195 14.3701 30.44 15.6077 31.1546L22 34.8451C23.2376 35.5597 24.7624 35.5597 26 34.8451L32.3923 31.1546C33.6299 30.44 34.3923 29.1195 34.3923 27.6904V20.3093C34.3923 18.8802 33.6299 17.5597 32.3923 16.8451L26 13.1546Z" fill="#03020D"/>
<path d="M22 19.1546C23.2376 18.44 24.7624 18.44 26 19.1546L27.1961 19.8451C28.4337 20.5597 29.1961 21.8802 29.1961 23.3093V24.6904C29.1961 26.1195 28.4337 27.44 27.1961 28.1546L26 28.8451C24.7624 29.5597 23.2376 29.5597 22 28.8451L20.8038 28.1546C19.5662 27.44 18.8038 26.1195 18.8038 24.6904V23.3093C18.8038 21.8802 19.5662 20.5597 20.8038 19.8451L22 19.1546Z" fill="#03020D"/>
</svg>
