<svg width="48" height="48" viewBox="0 0 48 48" fill="none" xmlns="http://www.w3.org/2000/svg">
<path d="M21.1898 3.48999C18.186 3.48999 15.4907 5.33657 14.4039 8.13905L0.317261 44.4656H11.0183L22.1062 15.8722H22.1109C22.3891 15.1753 23.0699 14.6829 23.8656 14.6829C24.6613 14.6829 25.342 15.1753 25.6203 15.8722H27.0976V10.0722H24.3553L26.9078 3.48999H21.1898Z" fill="#213ED7"/>
<path d="M14.4046 8.13906C15.4472 5.4505 17.9702 3.6417 20.8258 3.49909L20.8222 3.48999H26.7233C29.7271 3.48999 32.4223 5.33657 33.5091 8.13905L47.5958 44.4656H36.7117L23.0517 9.23933C22.2696 7.51296 20.5326 6.31212 18.5152 6.31212C16.493 6.31212 14.7523 7.51886 13.973 9.25209L14.4046 8.13906Z" fill="#566DE8"/>
</svg>
