<svg width="48" height="48" viewBox="0 0 48 48" fill="none" xmlns="http://www.w3.org/2000/svg">
<path d="M26.6398 36.7608C26.6398 42.7254 21.8049 47.561 15.8403 47.561C9.8749 47.561 5.04004 42.7254 5.04004 36.7608C5.04004 30.7962 9.8749 25.9605 15.8403 25.9605C21.8049 25.9605 26.6398 30.7962 26.6398 36.7608Z" fill="#FF6600"/>
<path d="M48 21.6407C48 27.6045 43.1651 32.4409 37.2005 32.4409C31.2351 32.4409 26.4003 27.6045 26.4003 21.6407C26.4003 15.6761 31.2351 10.8396 37.2005 10.8396C43.1651 10.8396 48 15.6761 48 21.6407Z" fill="#FFCC00"/>
<path d="M43.2004 36.7608C43.2004 42.7254 38.3655 47.561 32.3993 47.561C26.4355 47.561 21.5999 42.7254 21.5999 36.7608C21.5999 30.7962 26.4355 25.9605 32.3993 25.9605C38.3655 25.9605 43.2004 30.7962 43.2004 36.7608Z" fill="#009939"/>
<path d="M21.5997 21.4009C21.5997 27.3647 16.7649 32.2012 10.7995 32.2012C4.83565 32.2012 0 27.3647 0 21.4009C0 15.4363 4.83565 10.5999 10.7995 10.5999C16.7649 10.5999 21.5997 15.4363 21.5997 21.4009Z" fill="#0089CC"/>
<path d="M34.8002 11.8003C34.8002 17.7649 29.9646 22.6006 24 22.6006C18.0354 22.6006 13.1997 17.7649 13.1997 11.8003C13.1997 5.83573 18.0354 1.00008 24 1.00008C29.9646 1.00008 34.8002 5.83573 34.8002 11.8003Z" fill="#BF0000"/>
<path d="M21.5997 36.7606C21.5997 39.3993 22.5482 41.8139 24.1205 43.6895C25.6912 41.8139 26.6396 39.3993 26.6396 36.7606C26.6396 34.1219 25.6912 31.7072 24.1205 29.8317C22.5482 31.7072 21.5997 34.1219 21.5997 36.7606Z" fill="#0F7504"/>
<path d="M26.4001 21.6407C26.4001 21.8679 26.4199 22.0904 26.4342 22.3145C31.2247 21.2093 34.8 16.9262 34.8 11.8C34.8 11.5728 34.7802 11.3495 34.7659 11.1255C29.9754 12.2315 26.4001 16.5145 26.4001 21.6407Z" fill="#FC0007"/>
<path d="M27.8251 26.9885C29.6863 30.2424 33.184 32.4409 37.2011 32.4409C38.8383 32.4409 40.3845 32.0657 41.7755 31.4133C39.915 28.1595 36.4173 25.9609 32.3995 25.9609C30.7622 25.9609 29.2161 26.3362 27.8251 26.9885Z" fill="#1CD306"/>
<path d="M6.52356 31.3169C7.83539 31.8837 9.27944 32.2012 10.7995 32.2012C14.7769 32.2012 18.2422 30.0454 20.1169 26.8446C18.8051 26.2777 17.3602 25.9611 15.841 25.9611C11.8635 25.9611 8.39749 28.1168 6.52356 31.3169Z" fill="#0C5E87"/>
<path d="M13.2461 10.889C13.2207 11.1898 13.1993 11.4923 13.1993 11.8002C13.1993 16.9225 16.7691 21.2016 21.5541 22.3115C21.5786 22.0107 21.6 21.7083 21.6 21.4011C21.6 16.2788 18.031 11.9982 13.2461 10.889Z" fill="#6B0001"/>
<path d="M14.2541 35.4246H12.5646C11.0731 35.4246 9.86023 34.2157 9.86023 32.7281V17.4358C9.86023 15.9483 11.0731 14.7385 12.5646 14.7385H33.7495C35.2411 14.7385 36.4531 15.9483 36.4531 17.4358V32.7281C36.4531 34.2157 35.2411 35.4246 33.7495 35.4246H26.5325L12.0524 42.5229L14.2541 35.4246Z" fill="white"/>
</svg>
