<svg width="48" height="48" viewBox="0 0 48 48" fill="none" xmlns="http://www.w3.org/2000/svg">
<path d="M48 0H0V48H48V0Z" fill="#3B48CC"/>
<path d="M16.2432 18.8992C11.2832 18.8992 6.00317 17.3952 6.00317 14.6112C6.00317 11.8272 11.2704 10.3232 16.2432 10.3232C21.216 10.3232 26.4832 11.8272 26.4832 14.6112C26.4832 17.3952 21.1968 18.8992 16.2432 18.8992ZM16.2432 11.6032C11.1232 11.6032 7.28317 13.1904 7.28317 14.6112C7.28317 16.032 11.1232 17.6192 16.2432 17.6192C21.3632 17.6192 25.2032 16.032 25.2032 14.6112C25.2032 13.1904 21.3568 11.6032 16.2432 11.6032Z" fill="white"/>
<path d="M26.5024 14.8032H25.2224V25.6832H26.5024V14.8032Z" fill="white"/>
<path d="M16.2367 39.68C11.2831 39.68 5.9967 38.1952 5.9967 35.4368V14.8032H7.2767V35.4496C7.2767 36.8576 11.1167 38.4256 16.2367 38.4256C21.3567 38.4256 25.1967 36.8576 25.1967 35.4496V33.3632H26.4767V35.4496C26.5023 38.208 21.1967 39.68 16.2367 39.68Z" fill="white"/>
<path d="M16.2432 26.1313C11.2896 26.1313 6.00317 24.6273 6.00317 21.8433H7.28317C7.28317 23.2641 11.1232 24.8513 16.2432 24.8513C21.3632 24.8513 25.2032 23.2641 25.2032 21.8433H26.4832C26.4704 24.6273 21.2032 26.1313 16.2432 26.1313Z" fill="white"/>
<path d="M16.288 33.1713C11.3344 33.1713 6.04797 31.6673 6.04797 28.8833H7.32797C7.32797 30.3041 11.168 31.8913 16.288 31.8913C18.3831 31.9195 20.4695 31.6171 22.4704 30.9953L22.88 32.2049C20.7475 32.8731 18.5226 33.1993 16.288 33.1713Z" fill="white"/>
<path d="M31.2639 40.2368C31.0942 40.2368 30.9314 40.1694 30.8114 40.0494C30.6914 39.9293 30.6239 39.7666 30.6239 39.5968C30.6239 35.2 25.5999 30.1632 21.1839 30.1632C21.0142 30.1632 20.8514 30.0958 20.7314 29.9758C20.6114 29.8558 20.5439 29.693 20.5439 29.5232C20.5439 29.3535 20.6114 29.1907 20.7314 29.0707C20.8514 28.9507 21.0142 28.8832 21.1839 28.8832C25.5935 28.8832 30.6239 23.8528 30.6239 19.4432C30.6239 19.2735 30.6914 19.1107 30.8114 18.9907C30.9314 18.8707 31.0942 18.8032 31.2639 18.8032C31.4337 18.8032 31.5965 18.8707 31.7165 18.9907C31.8365 19.1107 31.9039 19.2735 31.9039 19.4432C31.9039 23.8528 36.9279 28.8832 41.3439 28.8832C41.5137 28.8832 41.6765 28.9507 41.7965 29.0707C41.9165 29.1907 41.9839 29.3535 41.9839 29.5232C41.9839 29.693 41.9165 29.8558 41.7965 29.9758C41.6765 30.0958 41.5137 30.1632 41.3439 30.1632C36.9279 30.1632 31.9039 35.1872 31.9039 39.5968C31.9039 39.7666 31.8365 39.9293 31.7165 40.0494C31.5965 40.1694 31.4337 40.2368 31.2639 40.2368ZM24.3199 29.5232C27.4479 30.8559 29.9371 33.3496 31.2639 36.48C32.5931 33.3445 35.0904 30.8495 38.2271 29.5232C35.09 28.1943 32.5929 25.6971 31.2639 22.56C29.9373 25.6921 27.4483 28.1879 24.3199 29.5232Z" fill="white"/>
<path d="M35.4624 14.1631H34.1824V18.0031H35.4624V14.1631Z" fill="white"/>
<path d="M36.7423 15.4434H32.9023V16.7234H36.7423V15.4434Z" fill="white"/>
<path d="M28.4223 7.76318H27.1423V11.6032H28.4223V7.76318Z" fill="white"/>
<path d="M29.7023 9.04297H25.8623V10.323H29.7023V9.04297Z" fill="white"/>
</svg>
