<svg width="50" height="50" viewBox="0 0 50 50" fill="none" xmlns="http://www.w3.org/2000/svg">
<path d="M41.9741 25.1447C41.9741 34.7483 34.3063 42.5208 24.8634 42.5208C15.4204 42.5208 7.75269 34.7483 7.75269 25.1447C7.75269 15.541 15.4204 7.76855 24.8634 7.76855C34.3063 7.76855 41.9741 15.541 41.9741 25.1447Z" fill="#0072C6" stroke="#0072C6"/>
<path d="M38.7778 44.0817C41.1318 44.0817 43.6915 42.4578 43.6915 39.0708C43.7671 40.7271 44.8569 44.0259 48.6012 44.081C48.6335 44.0809 48.6654 44.0812 48.6966 44.0817C48.6646 44.0817 48.6328 44.0815 48.6012 44.081C46.9119 44.0873 43.7095 45.0666 43.6915 48.9999C43.5635 45.0654 40.3624 44.0817 38.7778 44.0817Z" fill="#59B4D9" stroke="#59B4D9" stroke-linejoin="round"/>
<path fill-rule="evenodd" clip-rule="evenodd" d="M15.6302 26.9551C15.6302 27.1488 15.6146 27.3424 15.5846 27.5348C15.6327 27.5333 15.6809 27.5326 15.7293 27.5326C18.3279 27.5326 20.4344 29.6709 20.4344 32.3086C20.4344 34.8705 18.4472 36.9613 15.9521 37.0794V37.0845H15.7588C15.749 37.0846 15.7391 37.0846 15.7293 37.0846C15.7195 37.0846 15.7097 37.0846 15.6999 37.0845H11.7423C8.99345 33.9676 8.15155 30.9511 7.7801 29.4932C7.74719 29.364 7.72167 29.2464 7.70256 29.1394C7.50224 28.4599 7.40869 27.7079 7.40869 26.9551C7.40869 24.5256 8.90319 22.5562 11.2966 22.5562C13.69 22.5562 15.6302 24.5256 15.6302 26.9551Z" fill="white"/>
<path fill-rule="evenodd" clip-rule="evenodd" d="M35.726 22.8451C38.4545 22.8451 40.6664 20.5999 40.6664 17.8303C40.2454 16.2718 39.7749 15.2411 38.233 13.5081C37.4981 13.068 36.6411 12.8154 35.726 12.8154C32.9975 12.8154 30.7856 15.0606 30.7856 17.8303C30.7856 17.8406 30.7857 17.8509 30.7857 17.8612C30.6028 17.8403 30.4169 17.8296 30.2284 17.8296C27.5 17.8296 25.2881 20.0748 25.2881 22.8444C25.2881 25.614 27.5 27.8592 30.2284 27.8592C32.9569 27.8592 35.1688 25.614 35.1688 22.8444C35.1688 22.8341 35.1688 22.8238 35.1687 22.8135C35.3516 22.8344 35.5376 22.8451 35.726 22.8451Z" fill="white"/>
<path d="M42.276 27.8847H30.2161L31.9991 22.3295L35.1193 16.0704L38.289 13.6572C39.4529 14.8889 41.048 16.891 41.9293 20.4693C42.8106 24.0477 42.5236 25.6978 42.276 27.8847Z" fill="white"/>
<path d="M1.30762 7.54011C4.37998 7.54011 7.72079 5.42063 7.72079 1C7.81939 3.16177 9.24179 7.46721 14.1287 7.5392C14.1709 7.53904 14.2125 7.53935 14.2533 7.54011C14.2115 7.54011 14.17 7.5398 14.1287 7.5392C11.9239 7.54734 7.74421 8.82546 7.72079 13.9591C7.55375 8.82391 3.37574 7.54011 1.30762 7.54011Z" fill="#59B4D9" stroke="#59B4D9" stroke-linejoin="round"/>
<path d="M31.3022 35.1445C44.0863 27.3301 51.6305 16.243 48.1527 10.3806C45.791 6.39949 39.0211 5.82809 30.8724 8.33367L31.9992 8.79242L33.0949 9.33915L34.0545 9.88588L34.9575 10.5C40.1329 9.25728 44.1149 9.66279 45.4942 11.9878C48.0129 16.2334 40.8985 25.2718 29.6039 32.1758C18.3092 39.0797 7.1113 41.2347 4.59264 36.9891C3.32226 34.8477 4.51149 31.4589 7.44282 27.7677L7.30972 26.5768L7.26019 25.5305V24.2768L7.35923 23.0576C1.91958 28.9371 -0.398076 34.8766 1.85753 38.6788C5.33532 44.5412 18.5182 42.9588 31.3022 35.1445Z" fill="#59B4D9"/>
</svg>
