<svg width="48" height="48" viewBox="0 0 48 48" fill="none" xmlns="http://www.w3.org/2000/svg">
  <defs>
    <clipPath id="clip0_1031_2006">
      <rect width="48" height="48" fill="white" />
    </clipPath>
  </defs>
  <g clip-path="url(#clip0_1031_2006)">
    <path
      d="M31.3387 23.2216C29.1898 23.1575 27.0284 23.1326 24.8795 23.1202C24.8795 20.9713 24.867 18.8099 24.803 16.661L24.7034 12.9858C24.682 12.5766 24.6642 12.1657 24.6465 11.7548C24.6091 10.9401 24.5735 10.1253 24.5148 9.31592H23.4813C23.4226 10.1253 23.387 10.9401 23.3496 11.7548C23.3319 12.1657 23.3141 12.5766 23.2927 12.9858L23.1913 16.6539C23.1664 17.6465 23.154 18.6534 23.1415 19.646V19.6833C23.0241 19.4112 22.9085 19.1497 22.7857 18.8686C22.5029 18.2122 22.2218 17.5558 21.9283 16.9118L20.4322 13.5693C20.2295 13.1423 20.0302 12.7136 19.831 12.2867C19.5126 11.6054 19.1941 10.9223 18.8615 10.2516L17.9062 10.6536C18.1837 11.4755 18.4808 12.292 18.7779 13.1103C18.8965 13.4412 19.0151 13.7732 19.1337 14.1065L20.4572 17.5415C20.8218 18.4826 21.199 19.4254 21.5761 20.3558C20.8645 19.6442 20.1316 18.9486 19.4023 18.2442L16.7339 15.7182C16.4279 15.4442 16.1255 15.1667 15.8213 14.8892C15.2236 14.3413 14.6241 13.7916 14.0069 13.258L13.2775 13.9873C13.7472 14.521 14.2292 15.0546 14.7131 15.5883C15.0564 15.9637 15.4015 16.339 15.7413 16.7215L18.2656 19.3898C18.9575 20.1192 19.6602 20.8467 20.3771 21.5636L19.7456 21.2986C19.0162 21.0051 18.2922 20.7151 17.5593 20.4305L14.1278 19.1248L13.1317 18.769C12.3116 18.4719 11.4951 18.1748 10.6732 17.8973L10.2783 18.8561C10.9685 19.2119 11.6676 19.5303 12.3685 19.8541C12.7777 20.0427 13.1868 20.2336 13.5959 20.4269L16.9385 21.923C17.5878 22.2165 18.2442 22.4976 18.8953 22.7804L19.7082 23.1362H19.6709C18.6765 23.1486 17.6714 23.1611 16.6788 23.186L13.0107 23.2874C12.6015 23.3087 12.1906 23.3265 11.7797 23.3443C10.965 23.3817 10.1502 23.4172 9.34082 23.4759V24.5059C10.1502 24.5646 10.965 24.6002 11.7797 24.6358C12.1906 24.6554 12.6015 24.6731 13.0107 24.6945L16.6788 24.7941C18.4683 24.8475 20.2668 24.8564 22.0599 24.8653H23.1273C23.1397 27.0124 23.1522 29.1702 23.2287 31.3173L23.3407 34.9854C23.3621 35.3946 23.3799 35.8055 23.3977 36.2164C23.435 37.0294 23.4706 37.8459 23.5293 38.6553H24.4721C24.5308 37.8459 24.5664 37.0294 24.602 36.2164C24.6216 35.8055 24.6393 35.3946 24.6607 34.9854L24.7728 31.3173C24.8101 30.2927 24.8243 29.2556 24.8368 28.2309V28.2132L25.109 28.8411C25.4274 29.5811 25.7458 30.3158 26.0785 31.0487L27.587 34.3913C27.7649 34.7595 27.9428 35.1295 28.1082 35.4995C28.4551 36.2378 28.8002 36.9778 29.1755 37.7071L30.0419 37.3513C29.8035 36.6398 29.5509 35.9282 29.3001 35.2273C29.14 34.7791 28.9799 34.3379 28.8233 33.8843L27.5283 30.4528C27.1725 29.4851 26.7883 28.5173 26.3987 27.5621L26.9572 28.0957C27.5123 28.6294 28.0691 29.1738 28.633 29.6968L31.3013 32.2103L32.1178 32.9539C32.7476 33.5303 33.3773 34.1084 34.0266 34.6617L34.6937 33.9946C34.1209 33.3328 33.5338 32.6889 32.9504 32.0467L32.2388 31.2675L29.727 28.5992C29.1933 28.0353 28.6597 27.4785 28.126 26.9235L27.5834 26.3631L28.6508 26.7811C29.2591 27.0231 29.8657 27.2632 30.4759 27.4927L33.9074 28.7877C34.3343 28.9354 34.7613 29.0901 35.1864 29.2449C35.9122 29.5064 36.638 29.7697 37.3745 30.0063L37.7303 29.14C37.0009 28.7699 36.2627 28.4284 35.5226 28.0726C35.1503 27.8995 34.7802 27.7251 34.4126 27.5496L31.0701 26.0429C30.129 25.616 29.1738 25.2015 28.2238 24.7977H28.2843C29.309 24.7852 30.3443 24.7728 31.3689 24.7354L35.037 24.6233C35.4461 24.602 35.8571 24.5842 36.268 24.5646C37.0827 24.5291 37.8975 24.4935 38.7069 24.4348V23.492C37.8975 23.4333 37.0827 23.3977 36.268 23.3603C35.8571 23.3425 35.4461 23.3247 35.037 23.3034L31.3387 23.2216Z"
      fill="#173361" />
    <path fill-rule="evenodd" clip-rule="evenodd"
      d="M0 24.0009C0 10.7694 10.7694 0 24.0009 0C37.2323 0 48.016 10.7694 48 24.0009C47.984 37.2323 37.2323 48 24.0009 48C10.7694 48 0 37.2323 0 24.0009ZM2.23607 24.0009C2.23607 28.3056 3.51256 32.5136 5.90411 36.0928C8.29566 39.672 11.6949 42.4616 15.6719 44.109C19.6489 45.7563 24.025 46.1873 28.247 45.3475C32.469 44.5077 36.3471 42.4348 39.3909 39.3909C42.4348 36.3471 44.5077 32.469 45.3475 28.247C46.1873 24.025 45.7563 19.6489 44.109 15.6719C42.4616 11.6949 39.672 8.29566 36.0928 5.90411C32.5136 3.51256 28.3056 2.23607 24.0009 2.23607C18.2305 2.24267 12.6984 4.53786 8.61812 8.61812C4.53786 12.6984 2.24267 18.2305 2.23607 24.0009Z"
      fill="#173361" />
  </g>
</svg>