<svg width="48" height="48" viewBox="0 0 48 48" fill="none" xmlns="http://www.w3.org/2000/svg">
<path d="M0 15H48V41C48 42.1046 47.1046 43 46 43H2C0.895431 43 0 42.1046 0 41V15Z" fill="#0078D4"/>
<rect x="3.5" y="18.5" width="41" height="21" rx="1" fill="#3888D6" stroke="#3888D6"/>
<path fill-rule="evenodd" clip-rule="evenodd" d="M10.9395 29.3638C10.7442 29.1685 10.7442 28.852 10.9395 28.6567L17.3035 22.2927C17.4987 22.0975 17.8153 22.0975 18.0106 22.2927L18.7204 23.0025C18.9146 23.1967 18.9158 23.5112 18.723 23.7069L13.6729 28.8348C13.577 28.9321 13.577 29.0884 13.6729 29.1857L18.723 34.3136C18.9158 34.5093 18.9146 34.8238 18.7204 35.018L18.0106 35.7278C17.8153 35.923 17.4987 35.923 17.3035 35.7278L10.9395 29.3638Z" fill="#D7E7F7"/>
<path fill-rule="evenodd" clip-rule="evenodd" d="M37.2885 29.3638C37.4838 29.1685 37.4838 28.852 37.2885 28.6567L30.9246 22.2927C30.7293 22.0975 30.4127 22.0975 30.2175 22.2927L29.5077 23.0025C29.3135 23.1967 29.3123 23.5112 29.505 23.7069L34.5551 28.8348C34.651 28.9321 34.651 29.0884 34.5551 29.1857L29.505 34.3136C29.3123 34.5093 29.3135 34.8238 29.5077 35.018L30.2175 35.7278C30.4127 35.923 30.7293 35.923 30.9246 35.7278L37.2885 29.3638Z" fill="#D7E7F7"/>
<path fill-rule="evenodd" clip-rule="evenodd" d="M29.5082 23.0025C29.3138 23.1968 29.3128 23.5116 29.5058 23.7072L36.188 30.48L37.3578 29.3558C37.5607 29.1609 37.5628 28.837 37.3625 28.6394L30.9247 22.2883C30.7291 22.0952 30.4144 22.0963 30.22 22.2906L29.5082 23.0025Z" fill="white"/>
<path fill-rule="evenodd" clip-rule="evenodd" d="M18.7199 23.0025C18.9142 23.1968 18.9153 23.5116 18.7222 23.7072L12.04 30.48L10.8702 29.3558C10.6674 29.1609 10.6653 28.837 10.8656 28.6394L17.3033 22.2883C17.4989 22.0952 17.8137 22.0963 18.008 22.2906L18.7199 23.0025Z" fill="white"/>
<rect x="26" y="20.1382" width="2" height="18" rx="0.5" transform="rotate(18.2112 26 20.1382)" fill="white"/>
<path d="M0 6.99988C0 5.89531 0.895431 4.99988 2 4.99988H46C47.1046 4.99988 48 5.89531 48 6.99988V14.9999H0V6.99988Z" fill="#005BA1"/>
<circle cx="19.25" cy="10" r="2.25" fill="white"/>
<circle cx="12.75" cy="10" r="2.25" fill="white"/>
<circle cx="6.25" cy="10" r="2.25" fill="white"/>
</svg>
