<svg width="48" height="48" viewBox="0 0 48 48" fill="none" xmlns="http://www.w3.org/2000/svg">
  <defs>
    <clipPath id="clip0_1031_2002">
      <rect width="48" height="48" fill="white" />
    </clipPath>
  </defs>
  <g clip-path="url(#clip0_1031_2002)">
    <path fill-rule="evenodd" clip-rule="evenodd"
      d="M11.3145 24.0024C11.319 19.7088 13.4544 15.923 16.7097 13.6289C17.4216 14.0415 18.0699 14.5266 18.6004 15.0843C19.6477 16.1543 20.8174 18.5164 21.629 20.5521C21.8375 21.0644 22.0325 21.5813 22.2229 22.1027C21.3297 23.9183 20.5275 25.4563 19.8218 26.8094C18.2137 29.8928 17.1067 32.0154 16.5647 34.2716C13.391 31.9684 11.3235 28.2279 11.3145 24.0024ZM22.2319 26.151C22.4858 25.5752 22.7443 25.004 23.0072 24.4327C24.5125 29.7917 25.4646 32.979 27.1693 35.1553C27.4277 35.4817 27.7088 35.7674 28.0035 36.0394C26.7114 36.4701 25.3603 36.6877 24.0001 36.6923C22.5085 36.6923 21.0305 36.4248 19.6295 35.9124C19.6023 35.5588 19.5842 35.2142 19.5842 34.8833C19.5842 34.049 19.6703 33.3009 19.8109 32.6934C20.2008 30.9932 21.2662 28.3364 22.2319 26.151Z"
      fill="#91DC47" />
    <path
      d="M35.0581 38.5561C33.3761 38.3475 31.9887 38.0891 30.7782 37.6629C28.6744 38.7102 26.3531 39.2498 24.0046 39.2498C15.5852 39.2498 8.75718 32.4263 8.75718 24.0024C8.75718 19.4323 10.7702 15.3337 13.9575 12.5408C13.1052 12.3368 12.2165 12.2144 11.3097 12.2144C6.83482 12.2552 2.11507 14.7306 0.147377 21.4181C-0.0385117 22.3929 0.00682694 23.1274 0.00682694 23.9979C0.00682694 37.2549 10.7521 48.0001 24.0091 48.0001C32.1247 48.0001 39.2973 43.965 43.6407 37.7989C41.2922 38.3838 39.0343 38.6649 37.0984 38.6694C36.3684 38.674 35.6883 38.6332 35.0581 38.5561Z"
      fill="#63B132" />
    <path
      d="M30.5468 33.9042C30.6964 33.9768 31.0319 34.0992 31.4989 34.2307C34.6454 31.9229 36.6857 28.2052 36.6947 23.9978C36.6811 16.9929 31.0093 11.3256 23.9999 11.312C22.6443 11.3165 21.3023 11.5342 20.0146 11.9604C22.5899 14.8983 23.8322 19.0967 25.0291 23.6849V23.6895C25.0336 23.694 25.4145 24.9635 26.0674 26.6501C26.7157 28.3367 27.6451 30.4177 28.6517 31.9411C29.3227 32.9612 30.0481 33.6912 30.5468 33.9042Z"
      fill="#90B4FE" />
    <path
      d="M24.0048 0C15.9663 0 8.85265 3.95806 4.49561 10.0244C6.76254 8.60527 9.07481 8.09294 11.0969 8.11108C13.8852 8.12015 16.0796 8.98611 17.1315 9.57552C17.3808 9.7206 17.6257 9.87475 17.8614 10.0425C19.7929 9.19014 21.883 8.75035 23.9957 8.75489C32.4197 8.75489 39.2431 15.5829 39.2477 24.0023C39.2477 28.2505 37.5112 32.0861 34.7093 34.8518C35.3984 34.9289 36.1284 34.9787 36.8764 34.9742C39.5333 34.9742 42.4078 34.3893 44.5613 32.5758C45.9668 31.3925 47.1411 29.6605 47.794 27.0626C47.9209 26.0606 47.9935 25.0405 47.9935 24.0023C48.0025 10.7453 37.2573 0 24.0048 0"
      fill="#5881D8" />
  </g>
</svg>