<svg width="48" height="48" viewBox="0 0 48 48" fill="none" xmlns="http://www.w3.org/2000/svg">
  <defs>
    <clipPath id="clip0_1031_2024">
      <rect width="48" height="48" fill="white" />
    </clipPath>
  </defs>
  <g clip-path="url(#clip0_1031_2024)">
    <path
      d="M22.4147 0.0713719C14.4664 1.12799 10.8476 5.22695 9.32261 7.89744C9.11782 8.25607 9.18074 8.69866 9.45802 9.00471C12.9496 12.8586 19.5874 20.3224 21.5 23.0001C24.8636 27.7091 23 30.5 22.5 32C22 33.5 20.5 38 19 39.5C17.5 41 13 40.0001 12.5 42.5001C12.1078 44.4613 13.9751 48.0001 19 48.0001C25 48.0001 28.1609 44.3477 29.5 41C31.5 36 36 34.5 38.5 30.5C41 26.5 33.875 22 32 19.5C30.2026 17.1035 25.8781 4.59843 23.3209 0.484407C23.1297 0.176729 22.7738 0.0236326 22.4147 0.0713719Z"
      fill="#03020D" />
  </g>
</svg>