<svg width="48" height="48" viewBox="0 0 48 48" fill="none" xmlns="http://www.w3.org/2000/svg">
  <defs>
    <clipPath id="clip0_1031_1959">
      <rect width="48" height="48" fill="white" />
    </clipPath>
  </defs>
  <g clip-path="url(#clip0_1031_1959)">
    <path fill-rule="evenodd" clip-rule="evenodd"
      d="M44 2H4C2.89543 2 2 2.89543 2 4V44C2 45.1046 2.89543 46 4 46H44C45.1046 46 46 45.1046 46 44V4C46 2.89543 45.1046 2 44 2ZM4 0C1.79086 0 0 1.79086 0 4V44C0 46.2091 1.79086 48 4 48H44C46.2091 48 48 46.2091 48 44V4C48 1.79086 46.2091 0 44 0H4Z"
      fill="#03020D" />
    <path
      d="M15.6864 31.0001L18.3264 20.9401L20.9864 31.0001H23.4664L27.3464 16.8001H24.7064L22.2264 27.0001L19.5664 16.8001H17.1064L14.4264 27.0001L11.9664 16.8001H9.32642L13.2064 31.0001H15.6864Z"
      fill="#03020D" />
    <path
      d="M37.2453 27.1601C37.2453 22.3001 30.9653 22.9401 30.9653 20.3001C30.9653 19.4201 31.6453 18.7801 32.7653 18.7801L36.3853 19.9801V17.3001C35.3053 16.8801 34.0653 16.5601 32.7053 16.5601C30.1853 16.5601 28.4453 18.1001 28.4453 20.3401C28.4453 25.2201 34.6853 24.1801 34.6853 27.1801C34.6853 28.3801 33.8253 29.0001 32.5053 29.0001L28.4053 27.6001V30.3001C29.8053 30.7801 31.1253 31.2401 32.5853 31.2401C35.3053 31.2401 37.2453 29.6801 37.2453 27.1601Z"
      fill="#03020D" />
  </g>
</svg>