<svg width="48" height="48" viewBox="0 0 48 48" fill="none" xmlns="http://www.w3.org/2000/svg">
<rect x="3.84009" y="6.83545" width="41.4918" height="35.9622" fill="white"/>
<path d="M44.4847 3.51606C46.7422 5.77359 47.9143 8.60151 48 12V36.0006C47.9143 39.3981 46.7424 42.227 44.4847 44.4845C42.2272 46.742 39.3983 47.9141 36 48.0006H12C8.60151 47.9143 5.77359 46.7422 3.51606 44.4845C1.25852 42.2272 0.0862513 39.3983 0 36.0008V12.0002C0.0862513 8.6017 1.25833 5.77378 3.51606 3.51624C5.77359 1.25852 8.60151 0.0862513 12 0H36C39.3983 0.0862513 42.2272 1.25833 44.4847 3.51606ZM41.1743 22.8289C40.42 22.0785 40.0279 21.1368 39.9968 20.0039V12.0002C39.9728 10.8673 39.5839 9.92416 38.8304 9.17058C38.0766 8.41626 37.1327 8.02813 36 8.00431H32.0039V27.997L15.9968 8.00394H12C10.8671 8.02794 9.92397 8.41607 9.17039 9.17039C8.41607 9.92416 8.02794 10.8673 8.00413 11.9998V20.0039C7.97281 21.1368 7.58074 22.0785 6.82642 22.8289C6.07266 23.5783 5.12952 23.9689 3.99681 24C5.12952 24.0319 6.07284 24.4224 6.82623 25.1719C7.58074 25.9223 7.97281 26.8639 8.00394 27.9968V36.0006C8.02794 37.1325 8.41607 38.0766 9.17039 38.8302C9.92416 39.5839 10.8673 39.9726 11.9998 39.9964H15.9968V20.0041L32.0039 39.997H36C37.1327 39.973 38.0768 39.5841 38.8304 38.8305C39.5841 38.0768 39.9728 37.1329 39.9966 36.0011V27.997C40.0279 26.8641 40.42 25.9225 41.1743 25.1721C41.9281 24.4226 42.8712 24.0321 44.0039 24.0002C42.8712 23.9689 41.9279 23.5785 41.1745 22.829L41.1743 22.8289Z" fill="#76ABEB"/>
</svg>
