<svg width="48" height="48" viewBox="0 0 48 48" fill="none" xmlns="http://www.w3.org/2000/svg">
  <defs>
    <clipPath id="clip0_1031_2036">
      <rect width="48" height="48" fill="white" />
    </clipPath>
  </defs>
  <g clip-path="url(#clip0_1031_2036)">
    <path
      d="M23.04 18.08C23.04 20.8 20.8 23.04 18.08 23.04C15.36 23.04 13.12 20.8 13.12 18.08C13.12 15.36 15.36 13.12 18.08 13.12C20.8 13.12 23.04 15.36 23.04 18.08ZM18.08 24.96C15.36 24.96 13.12 27.2 13.12 29.92C13.12 32.64 15.36 34.88 18.08 34.88C20.8 34.88 23.04 32.64 23.04 29.92C23.04 27.2 20.8 24.96 18.08 24.96ZM48 24C48 37.28 37.28 48 24 48C10.72 48 0 37.28 0 24C0 10.72 10.72 0 24 0C37.28 0 48 10.72 48 24ZM41.6 24C41.6 14.24 33.76 6.4 24 6.4C14.24 6.4 6.4 14.24 6.4 24C6.4 33.76 14.24 41.6 24 41.6C33.76 41.6 41.6 33.76 41.6 24ZM29.92 24.96C27.2 24.96 24.96 27.2 24.96 29.92C24.96 32.64 27.2 34.88 29.92 34.88C32.64 34.88 34.88 32.64 34.88 29.92C34.88 27.2 32.64 24.96 29.92 24.96ZM29.92 13.12C27.2 13.12 24.96 15.36 24.96 18.08C24.96 20.8 27.2 23.04 29.92 23.04C32.64 23.04 34.88 20.8 34.88 18.08C34.88 15.36 32.64 13.12 29.92 13.12Z"
      fill="#F22F46" />
  </g>
</svg>