<svg width="48" height="48" viewBox="0 0 48 48" fill="none" xmlns="http://www.w3.org/2000/svg">
<path d="M13.9643 10.3226C17.979 8.29416 18.9236 8.45863 21.9304 11.7986C22.6558 12.6041 23.204 13.7047 24.6041 13.2071C24.6631 13.186 24.7939 13.1902 24.8065 13.2198C25.6963 15.4 28.8718 13.827 29.8038 16.3573C30.099 17.1628 32.0009 17.3483 33.1438 17.8797C33.633 18.1074 34.198 18.3773 34.2149 19.0563C34.2276 19.6973 33.7131 19.8154 33.2408 19.963C31.9124 20.3805 32.216 21.8016 31.8828 22.6746C31.5961 23.4168 33.11 23.5475 33.8396 23.6403C35.362 23.8343 36.9097 23.8132 38.4489 23.5264C43.4631 22.5944 48.6291 27.5201 47.9375 32.5637C47.8194 33.4283 47.2543 34.044 46.588 34.6133C44.3276 36.5405 41.6919 37.755 38.7947 37.9954C34.3288 38.3707 29.8333 38.4213 25.3505 38.5732C24.5535 38.6027 23.6426 38.7629 23.4022 37.5399C23.3094 37.0676 22.7022 37.1815 22.2973 37.152C20.6189 37.0297 18.9405 36.861 17.2621 36.8315C16.3638 36.8146 15.0818 36.2664 15.0143 38.0502C14.9932 38.5858 14.2342 38.5521 13.7661 38.6111C9.62484 39.1256 5.54687 38.8262 1.49843 37.7635C0.275459 37.443 -0.0787748 36.8526 0.0140021 35.6971C0.473669 29.9618 0.899597 24.2223 1.3424 18.4827C1.43095 17.361 1.34661 16.2898 1.0219 15.1765C0.296549 12.6968 1.18636 11.5962 3.76724 11.5118C6.8331 11.4106 9.93268 11.8661 12.9564 10.9805C13.901 10.7696 14.1414 11.4907 14.4534 12.1149C17.3211 17.8417 21.981 21.7552 27.4 24.897C28.623 25.6055 29.4243 25.6983 30.702 25.3482C30.9719 25.2639 30.5502 24.9476 30.7105 25.1796C30.7611 25.2555 30.7147 25.2808 30.6219 25.3356C29.7026 25.8669 28.7917 25.5338 28.0242 25.1121C21.9389 21.7805 16.8699 17.4242 13.9685 10.9299C13.8715 10.7359 13.8841 10.525 13.9643 10.3226Z" fill="#010101"/>
<path d="M21.9136 35.448C19.531 35.448 17.532 35.5028 15.5416 35.4143C14.9301 35.389 14.1583 35.3552 14.0824 35.8528C13.7999 37.6746 12.4251 37.177 11.3624 37.2825C8.5116 37.565 5.69456 37.2192 2.88595 36.7258C1.30875 36.4475 1.13163 35.4269 1.32562 34.1154C1.55334 32.5888 2.6751 33.2003 3.4384 33.3057C8.62546 34.0226 13.8421 34.3811 19.0629 34.7184C19.9189 34.7775 20.8003 34.7943 21.9136 35.448Z" fill="#471717"/>
<path d="M22.7358 35.3262C26.8265 35.4527 30.9002 36.0262 34.8854 35.4274C38.879 34.8286 42.5226 32.914 46.1325 31.0205C46.7102 32.273 46.2084 33.011 45.3101 33.7869C43.0371 35.7521 40.296 36.4943 37.4494 36.7474C33.907 37.0594 30.3182 36.9076 26.7843 37.3082C24.8486 37.5233 24.5619 34.9888 22.7358 35.3262Z" fill="#4A1B1C"/>
<path d="M27.8472 34.2886C30.4913 33.8205 33.1987 34.5501 35.8555 33.6898C39.2882 32.5849 42.586 31.2059 45.8501 29.6582C44.5133 31.0836 42.683 31.7246 40.9962 32.5301C37.1333 34.373 33.03 35.0603 28.7581 34.6935C28.3954 34.6639 28.0665 34.5965 27.864 34.2591L27.8472 34.2886Z" fill="#333133"/>
<path d="M27.864 34.2676C26.0253 34.2676 24.1824 34.2676 22.3438 34.2676C24.1866 34.0694 26.0548 33.3525 27.8471 34.2887L27.864 34.2676Z" fill="#343133"/>
<path d="M17.3464 33.5166C18.4387 33.5166 19.5309 33.5166 20.6231 33.5166C20.6231 33.5883 20.6274 33.6558 20.6274 33.7275C19.5351 33.7275 18.4387 33.7275 17.3464 33.7275C17.3507 33.66 17.3507 33.5883 17.3464 33.5166Z" fill="#333333"/>
<path d="M16.7012 27.3428C21.5551 28.0049 26.3247 29.4598 31.3641 28.4519C28.817 30.1387 19.2778 29.4935 16.7012 27.3428Z" fill="#333132"/>
<path d="M2.67921 24.2729C3.75036 26.2044 2.3798 28.6883 4.68235 30.0799C2.39245 30.101 2.22798 29.6076 2.67921 24.2729Z" fill="#D7D6D6"/>
<path d="M13.9644 10.3228C15.8663 13.8356 18.1098 17.0449 21.1335 19.7523C23.3475 21.7343 25.7639 23.3242 28.3069 24.7749C29.6142 25.5213 30.698 25.0574 31.7733 23.4929C31.1323 26.0695 30.4829 26.6051 28.8256 25.905C22.2595 23.1217 17.2453 18.5968 13.9813 12.2205C13.7114 11.6933 13.4794 11.2421 12.9438 10.9891C13.1716 10.5842 13.5216 10.3818 13.9644 10.3228Z" fill="#333133"/>
<path d="M30.837 22.0295C30.0737 22.6621 29.6267 23.8639 28.3615 24.0959C27.9145 24.176 27.7501 23.7163 27.9314 23.4043C28.4838 22.447 29.167 21.5698 30.2761 21.2325C30.6303 21.1228 30.9087 21.418 30.837 22.0295Z" fill="#5E5A5C"/>
<path d="M24.4143 21.0046C24.5324 19.5665 25.0637 18.799 26.2192 18.5881C26.3921 18.5586 26.8265 18.9171 26.8012 19.0225C26.5566 20.1696 25.7005 20.6503 24.4143 21.0046Z" fill="#5A5358"/>
<path d="M32.7262 18.7526C32.6293 18.9677 32.6082 19.0605 32.5829 19.0605C31.5201 19.1069 30.3731 19.5454 29.5381 18.5038C29.42 18.3604 29.5423 17.7827 29.5929 17.7785C30.7906 17.6477 31.7184 18.2887 32.7262 18.7526Z" fill="#F0EFEF"/>
<path d="M25.3926 16.8889C26.2866 15.649 27.1849 15.0418 28.7199 16.328C27.4885 16.5178 26.5902 17.1208 25.3926 16.8889Z" fill="#EAEAEA"/>
<path d="M24.7939 14.3921C23.7607 16.0199 22.8455 17.1121 21.0659 17.6814C21.4539 15.6066 22.563 14.7084 24.7939 14.3921Z" fill="#5E585C"/>
</svg>
