<svg width="48" height="48" viewBox="0 0 48 48" fill="none" xmlns="http://www.w3.org/2000/svg">
  <defs>
    <clipPath id="clip0_1031_2016">
      <rect width="48" height="48" fill="white" />
    </clipPath>
  </defs>
  <g clip-path="url(#clip0_1031_2016)">
    <path
      d="M24.9181 7.64315C24.3333 6.60856 23.3962 6.59356 22.7964 7.64315L20.4873 12.8161L24.9406 21.8052L29.7462 17.3369L24.9181 7.64315Z"
      fill="#FFA000" />
    <path d="M7 38.4939L24.948 21.7978L20.4948 12.8088L7 38.4939Z" fill="#F57F17" />
    <path
      d="M7 38.4938L22.369 47.5503C22.8713 47.8427 24.1758 48.0001 24.1758 48.0001C24.1758 48.0001 25.6153 47.8727 26.1551 47.5728L41.6441 38.2764L36.9734 11.1294C36.7485 9.95989 35.8563 9.68249 35.0016 10.5072L7 38.4938Z"
      fill="#FFCA28" />
    <path
      d="M14.4896 0.708354C13.8973 -0.326244 13.2301 -0.213788 13.0127 0.955758L7 38.4937L20.4873 12.8087L14.4896 0.708354Z"
      fill="#FFA000" />
  </g>
</svg>