<svg width="48" height="48" viewBox="0 0 48 48" fill="none" xmlns="http://www.w3.org/2000/svg">
<path fill-rule="evenodd" clip-rule="evenodd" d="M8.93559 5L10.733 6.54848L18.6996 8.35766H29.297L37.3514 6.47593L39.0645 5L43.799 5.9377L44.5453 16.0522L47.1014 18.8207L48 24.5039L44.0558 28.3943L47.4482 34.2698L44.5733 33.6062L46.1145 37.4332L33.0869 41.7141L24.0001 42.3935L14.9133 41.7141L1.88546 37.4332L3.42672 33.6062L0.551791 34.2698L3.94419 28.3943L0 24.5039L0.898579 18.8207L3.45468 16.0522L4.20095 5.9377C5.89321 5.60248 6.9452 5.39401 8.93555 5L8.93559 5Z" fill="#310401"/>
<path fill-rule="evenodd" clip-rule="evenodd" d="M33.958 11.7302C45.1461 -1.64581 42.6955 29.5348 42.4639 27.9912L42.0325 28.1085L41.7639 27.751C38.7437 23.7321 30.9532 15.9709 33.958 11.7302L33.958 11.7302Z" fill="#310401"/>
<path fill-rule="evenodd" clip-rule="evenodd" d="M14.042 11.7302C2.85393 -1.64581 5.30469 29.5348 5.53612 27.9912L5.9675 28.1085L6.23606 27.751C9.25632 23.7321 17.0468 15.9709 14.042 11.7302L14.042 11.7302Z" fill="#310401"/>
<path fill-rule="evenodd" clip-rule="evenodd" d="M24 9.63232H29.4332L33.912 12.3698L36.8858 18.4337L38.4043 16.8271L38.0579 19.5523L40.5629 20.2156L38.4847 21.2031L45.0616 32.5948L42.6262 32.0328L44.5443 36.7942L32.8546 40.6352L24 41.2974L15.1455 40.6352L3.45571 36.7942L5.37348 32.0328L2.93823 32.5948L9.51523 21.2031L7.4368 20.2156L9.94201 19.5523L9.59584 16.8271L11.1142 18.4337L14.0879 12.3698L18.5666 9.63232H24Z" fill="#CB3805"/>
<path fill-rule="evenodd" clip-rule="evenodd" d="M29.2924 31.5361L32.5361 29.9657L33.8672 24.4038L37.2671 33.5917L32.8547 40.6356L24.0001 41.2978V29.7894L29.2924 31.5361Z" fill="#780500"/>
<path fill-rule="evenodd" clip-rule="evenodd" d="M18.7078 31.5361L15.4641 29.9657L14.1328 24.4038L10.7332 33.5917L15.1456 40.6356L24.0001 41.2978V29.7894L18.7078 31.5361Z" fill="#780500"/>
<path fill-rule="evenodd" clip-rule="evenodd" d="M24.0001 28.6704L25.8186 28.7323L29.2923 31.5357L31.8072 31.5322L33.5556 34.1882L27.8431 40.462L24.0001 41.2975L20.1571 40.462L14.4443 34.1882L16.1928 31.5322L18.7078 31.5357L22.1813 28.7323L24.0001 28.6704Z" fill="#FEE7D5"/>
<path fill-rule="evenodd" clip-rule="evenodd" d="M24.0001 39.623H27.0936L29.0645 35.3926L31.8449 36.0669L27.8431 40.4622L24.0001 41.2978L20.1571 40.4622L16.8016 36.7771L19.2802 36.1923L20.9065 39.623H24.0001Z" fill="#F0BC95"/>
<path fill-rule="evenodd" clip-rule="evenodd" d="M24.0001 32.594L26.3919 32.252L26.7114 32.8846L24.4225 34.8572L24.4026 36.1381L24.7503 36.4597L28.2686 35.9666L29.0645 35.3922L29.4301 35.7183L28.863 36.933L28.2231 36.6181L24.0001 37.0916H20.4873L19.8472 37.4065L19.2802 36.1919L19.6458 35.8657L20.4419 36.4401L23.2497 36.4597L23.5976 36.1381L23.5777 34.8572L21.2889 32.8846L21.6081 32.252L24.0001 32.594Z" fill="#310401"/>
<path fill-rule="evenodd" clip-rule="evenodd" d="M24.0001 32.6667L26.3919 32.2521L24.89 28.8921L24.0001 28.8925L23.1101 28.8921L21.6082 32.2521L24.0001 32.6667Z" fill="#F0BC95"/>
<path fill-rule="evenodd" clip-rule="evenodd" d="M24.0002 28.6703L25.8188 28.7322L25.1385 25.5078H24.0002H22.8616L22.1814 28.7322L24.0002 28.6703Z" fill="#ED6437"/>
<path fill-rule="evenodd" clip-rule="evenodd" d="M29.4158 30.2341L31.3287 29.1565L32.1306 26.8821L29.4617 25.4512L27.3951 26.6445L26.7871 29.3241L29.4158 30.2341Z" fill="#310401"/>
<path fill-rule="evenodd" clip-rule="evenodd" d="M29.4309 26.0103L27.7218 26.9711L27.6307 28.7525L29.3012 29.614L30.9717 28.7525L31.1023 26.9514L29.4309 26.0103Z" fill="#780500"/>
<path fill-rule="evenodd" clip-rule="evenodd" d="M29.3168 26.4385L28.1927 27.0705L28.1328 28.2422L29.2316 28.8088L30.3303 28.2422L30.4162 27.0576L29.3168 26.4385Z" fill="#310401"/>
<path fill-rule="evenodd" clip-rule="evenodd" d="M29.9103 26.1128L29.3459 26.4495L29.3217 27.1584L29.9466 27.4806L30.5716 27.1584L30.6204 26.4847L29.9103 26.1128Z" fill="#FEE7D5"/>
<path fill-rule="evenodd" clip-rule="evenodd" d="M31.833 21.109L29.8459 19.5273L30.1102 23.3902L31.6083 23.0791L31.833 21.109Z" fill="#F0BC95"/>
<path fill-rule="evenodd" clip-rule="evenodd" d="M26.1235 24.7686L25.2983 19.8133L28.8835 18.8159L29.2342 23.5186L26.1235 24.7686Z" fill="#F0BC95"/>
<path fill-rule="evenodd" clip-rule="evenodd" d="M36.2215 17.0789L36.8859 18.4338L38.4044 16.8271L38.058 19.5524L40.563 20.2156L38.4848 21.2031L45.0617 32.5949L42.6263 32.0329L44.5444 36.7943L39.1943 38.5521L42.7419 35.5897L36.1307 17.1191L36.2215 17.0789Z" fill="#ED6437"/>
<path fill-rule="evenodd" clip-rule="evenodd" d="M33.4416 15.2779L33.0454 11.8399L39.4004 6.36426L42.6847 7.01459L43.3949 16.6424L45.726 19.1671L43.6474 24.3979L46.1332 21.6441L46.7025 24.2117L43.2433 27.6234L39.6709 23.2583L42.5869 20.6615L40.715 17.2884L40.3973 11.3663L36.1307 17.119L33.4416 15.2779Z" fill="#FEE7D5"/>
<path fill-rule="evenodd" clip-rule="evenodd" d="M43.2432 27.6238L39.671 23.2587L42.5868 20.662L40.7149 17.2888L40.3973 11.3667L41.4952 17.2909L43.6357 19.6921L43.6473 24.3983L43.2432 27.6238L43.2432 27.6238ZM40.3973 11.3667L36.1306 17.1194L33.4417 15.2783L36.0139 15.7246L40.3973 11.3667V11.3667Z" fill="#F0BC95"/>
<path fill-rule="evenodd" clip-rule="evenodd" d="M36.7485 34.4189L32.8546 40.6356L39.1943 38.5525L40.8458 33.8859L38.9947 31.7889L40.7327 31.759L33.8672 24.4038L36.7485 34.4189Z" fill="#FEE7D5"/>
<path fill-rule="evenodd" clip-rule="evenodd" d="M32.8546 40.6353L34.2973 38.3317L37.9913 36.6861L39.3487 33.9712L38.9947 31.7886L40.8458 33.8856L39.1943 38.5522L32.8546 40.6353Z" fill="#F0BC95"/>
<path fill-rule="evenodd" clip-rule="evenodd" d="M18.5841 30.2341L16.6712 29.1565L15.8694 26.8821L18.5382 25.4512L20.6051 26.6445L21.2128 29.3241L18.5841 30.2341Z" fill="#310401"/>
<path fill-rule="evenodd" clip-rule="evenodd" d="M18.5692 26.0103L20.2781 26.9711L20.3692 28.7525L18.6988 29.614L17.0282 28.7525L16.8977 26.9514L18.5692 26.0103Z" fill="#780500"/>
<path fill-rule="evenodd" clip-rule="evenodd" d="M18.6831 26.4385L19.8072 27.0705L19.8671 28.2422L18.7686 28.8088L17.6696 28.2422L17.5837 27.0576L18.6831 26.4385Z" fill="#310401"/>
<path fill-rule="evenodd" clip-rule="evenodd" d="M18.0896 26.1128L18.6543 26.4495L18.6783 27.1584L18.0536 27.4806L17.4286 27.1584L17.3796 26.4847L18.0896 26.1128Z" fill="#FEE7D5"/>
<path fill-rule="evenodd" clip-rule="evenodd" d="M31.8327 21.1088L29.8459 19.5269L30.741 22.5834L31.8327 21.1088Z" fill="#FEE7D5"/>
<path fill-rule="evenodd" clip-rule="evenodd" d="M16.1672 20.6354L18.1541 19.0537L17.8899 22.9166L16.3921 22.6054L16.1672 20.6354Z" fill="#F0BC95"/>
<path fill-rule="evenodd" clip-rule="evenodd" d="M28.8837 18.8159L25.2983 19.813L26.0136 24.1082L27.6086 23.2618L28.8837 18.8159Z" fill="#FEE7D5"/>
<path fill-rule="evenodd" clip-rule="evenodd" d="M21.8765 23.8218L22.7016 18.8665L19.1165 17.8691L18.7657 22.5718L21.8765 23.8218Z" fill="#F0BC95"/>
<path fill-rule="evenodd" clip-rule="evenodd" d="M11.7785 17.0789L11.1142 18.4338L9.59584 16.8271L9.94201 19.5524L7.4368 20.2156L9.51523 21.2031L2.93823 32.5949L5.37348 32.0329L3.45571 36.7943L8.80565 38.5521L5.2581 35.5897L11.8692 17.1191L11.7785 17.0789Z" fill="#ED6437"/>
<path fill-rule="evenodd" clip-rule="evenodd" d="M11.2512 34.4189L15.1456 40.6356L8.80567 38.5525L7.15405 33.8859L9.00518 31.7889L7.26747 31.759L14.1327 24.4038L11.2512 34.4189Z" fill="#FEE7D5"/>
<path fill-rule="evenodd" clip-rule="evenodd" d="M15.1456 40.6353L13.7026 38.3317L10.0087 36.6861L8.6514 33.9712L9.00518 31.7886L7.15405 33.8856L8.80567 38.5522L15.1456 40.6353Z" fill="#F0BC95"/>
<path fill-rule="evenodd" clip-rule="evenodd" d="M27.3952 26.6445L26.7872 29.324L25.8187 28.7323L26.4787 25.6727L29.2454 24.2632L32.8476 25.8291L32.1307 26.882L29.4618 25.4511L27.3952 26.6445Z" fill="#FEE7D5"/>
<path fill-rule="evenodd" clip-rule="evenodd" d="M20.605 26.6445L21.2127 29.324L22.1812 28.7323L21.5215 25.6727L18.7545 24.2632L15.1523 25.8291L15.8693 26.882L18.5382 25.4511L20.605 26.6445Z" fill="#FEE7D5"/>
<path fill-rule="evenodd" clip-rule="evenodd" d="M16.1672 20.6352L18.1541 19.0532L17.2592 22.1098L16.1672 20.6352Z" fill="#FEE7D5"/>
<path fill-rule="evenodd" clip-rule="evenodd" d="M19.1165 17.8691L22.7016 18.8663L21.9866 23.1614L20.3913 22.3151L19.1165 17.8691Z" fill="#FEE7D5"/>
<path fill-rule="evenodd" clip-rule="evenodd" d="M24.0001 9.63232V14.3899L28.7577 9.63232H24.0001Z" fill="#ED6437"/>
<path fill-rule="evenodd" clip-rule="evenodd" d="M24.0002 9.63232V14.3899L19.2424 9.63232H24.0002Z" fill="#ED6437"/>
<path fill-rule="evenodd" clip-rule="evenodd" d="M33.0454 11.8403L29.4333 9.63276L37.8703 7.68262L33.0454 11.8403Z" fill="#780500"/>
<path fill-rule="evenodd" clip-rule="evenodd" d="M14.9547 11.8403L18.5667 9.63276L10.1296 7.68262L14.9547 11.8403Z" fill="#780500"/>
<path fill-rule="evenodd" clip-rule="evenodd" d="M14.5582 15.2779L14.9546 11.8399L8.59967 6.36426L5.31522 7.01459L4.605 16.6424L2.27398 19.1671L4.3526 24.3979L1.86665 21.6441L1.29761 24.2117L4.75667 27.6234L8.3289 23.2583L5.41311 20.6615L7.28502 17.2884L7.60254 11.3663L11.8693 17.119L14.5582 15.2779Z" fill="#FEE7D5"/>
<path fill-rule="evenodd" clip-rule="evenodd" d="M4.75671 27.6238L8.32897 23.2587L5.41317 20.662L7.28507 17.2888L7.60258 11.3667L6.50471 17.2909L4.36424 19.6921L4.35266 24.3983L4.75672 27.6238L4.75671 27.6238ZM7.60258 11.3667L11.8693 17.1194L14.5583 15.2783L11.986 15.7246L7.60258 11.3667V11.3667Z" fill="#F0BC95"/>
</svg>
