<svg width="48" height="48" viewBox="0 0 48 48" fill="none" xmlns="http://www.w3.org/2000/svg">
<path d="M46.4952 6.02148L38.2007 14.4237C35.026 9.48263 29.5432 6.22438 23.3342 6.22438C18.6013 6.22438 14.1494 8.12204 10.8223 11.5832C7.50695 15.0205 5.67938 19.5797 5.67938 24.4253C5.67938 25.6665 5.79653 26.8838 6.04256 28.0654C5.43336 28.698 4.36728 29.8557 3.39492 31.1805C1.27447 34.0926 0.805858 36.2766 2.00081 37.6611C2.17654 37.876 2.72715 38.4489 3.79323 38.5443C3.88695 38.5563 3.96896 38.5563 4.06268 38.5563C5.77311 38.5563 7.89355 37.2792 10.342 34.749L29.801 15.0921L28.442 13.6957L9.81485 32.5172C8.35045 30.0466 7.60067 27.3374 7.60067 24.4371C7.60067 20.1048 9.22908 16.0349 12.1931 12.9676C15.1569 9.88842 19.1167 8.19365 23.3342 8.19365C29.0161 8.19365 34.0067 11.249 36.795 15.8321L21.9869 30.8344C21.0263 31.813 19.8197 33.0185 18.941 34.3671C17.3477 36.7899 17.6992 38.592 18.0506 39.4394L18.0624 39.4633C18.4724 40.4062 19.1753 41.1581 20.1008 41.6594C21.1551 42.2203 22.2213 42.3039 23.2991 42.3396H23.3224H23.3459C28.1022 42.3277 32.5657 40.4658 35.9046 37.0763C39.2669 33.6868 41.1178 29.1516 41.1178 24.3298C41.1178 21.3938 40.4267 18.6248 39.2082 16.1782L47.8541 7.41788L46.4952 6.02148ZM4.06268 36.5989H4.05097C3.72294 36.5989 3.55893 36.4796 3.51206 36.4438L3.4652 36.3841C3.09033 35.9545 3.27777 34.6774 4.94132 32.3739C5.50366 31.5863 6.13628 30.8582 6.65174 30.2734C7.09691 31.5385 7.68268 32.7559 8.40903 33.9255C6.04256 36.229 4.68359 36.5989 4.06268 36.5989ZM34.5456 35.6919C31.57 38.6995 27.5868 40.3703 23.3576 40.3823C22.2915 40.3465 21.6355 40.263 21.0029 39.9169C20.464 39.6304 20.0773 39.2126 19.8313 38.6757C19.3627 37.4821 20.1828 36.026 20.5577 35.4532C21.3309 34.2716 22.4555 33.1378 23.3576 32.2307L37.7674 17.6462C38.6811 19.687 39.1966 21.9547 39.1966 24.3417C39.1731 28.6383 37.533 32.6723 34.5456 35.6919Z" fill="#1A1B21"/>
</svg>
