<svg width="48" height="48" viewBox="0 0 48 48" fill="none" xmlns="http://www.w3.org/2000/svg">
<path fill-rule="evenodd" clip-rule="evenodd" d="M32 15C32 13.3431 33.3431 12 35 12H45C46.6569 12 48 13.3431 48 15V38C48 39.6569 46.6569 41 45 41H35C33.3431 41 32 39.6569 32 38V15ZM35 14C34.4477 14 34 14.4477 34 15V38C34 38.5523 34.4477 39 35 39H45C45.5523 39 46 38.5523 46 38V15C46 14.4477 45.5523 14 45 14H35Z" fill="#03020D"/>
<path fill-rule="evenodd" clip-rule="evenodd" d="M44 36C44 36.5523 43.5523 37 43 37L37 37C36.4477 37 36 36.5523 36 36C36 35.4477 36.4477 35 37 35L43 35C43.5523 35 44 35.4477 44 36Z" fill="#03020D"/>
<circle cx="40" cy="16" r="1" fill="#03020D"/>
<path fill-rule="evenodd" clip-rule="evenodd" d="M38 4H6C3.79086 4 2 5.79086 2 8V29H33V31H2V32C2 34.2091 3.79086 36 6 36H16.9363H26.9325H33V38H28.9706C28.9713 38.0221 28.9717 38.0443 28.9717 38.0666C28.9714 39.1561 29.0602 40.6756 29.4328 41.6395C29.5125 41.8457 29.7437 42.1575 30.2123 42.5501C30.6632 42.9278 31.2525 43.3133 31.9194 43.6889C32.9267 44.2564 33.1067 45.3985 32.9439 46.1899C32.7817 46.9793 32.1424 48 30.9113 48H12.3666C11.1852 48 10.5285 47.0624 10.3538 46.2739C10.1797 45.4877 10.3716 44.395 11.3448 43.8338C12.0462 43.4293 12.6868 43.0098 13.1872 42.5997C13.7092 42.1719 13.984 41.8299 14.0823 41.6028C14.5128 40.6082 14.7667 39.0784 14.897 38H6C2.68629 38 0 35.3137 0 32V8C0 4.68629 2.68629 2 6 2H38C41.3137 2 44 4.68629 44 8V13H42V8C42 5.79086 40.2091 4 38 4ZM16.9363 38H26.9325L26.9345 38.0001L26.9358 38.0006C26.9377 38.0014 26.9429 38.0042 26.9494 38.0109C26.9635 38.0256 26.9717 38.0456 26.9717 38.0661C26.9714 39.1538 27.0465 41.0132 27.5673 42.3605C27.8284 43.036 28.3657 43.6122 28.9281 44.0834C29.5084 44.5694 30.213 45.0232 30.9378 45.4315C30.9418 45.4337 30.9445 45.4358 30.9489 45.4414C30.9543 45.4483 30.9653 45.4649 30.9759 45.4963C30.999 45.5646 31.0089 45.6704 30.9849 45.7871C30.9614 45.9013 30.9171 45.9716 30.8912 46H12.3786C12.3599 45.9794 12.3257 45.9277 12.3065 45.8413C12.2861 45.749 12.2942 45.667 12.3115 45.6164C12.325 45.577 12.3373 45.5701 12.3432 45.5668L12.3439 45.5663C13.0955 45.1329 13.8382 44.6521 14.455 44.1465C15.0503 43.6586 15.6268 43.0696 15.9178 42.3972C16.5038 41.0434 16.783 39.1228 16.9055 38.0447C16.9072 38.0295 16.9143 38.0162 16.9244 38.0069C16.9291 38.0027 16.9327 38.0009 16.934 38.0004L16.934 38.0004C16.9347 38.0001 16.935 38 16.9363 38Z" fill="black"/>
</svg>
