<svg width="48" height="48" viewBox="0 0 48 48" fill="none" xmlns="http://www.w3.org/2000/svg">
<path d="M23.8459 1.00262C23.4167 1.02783 22.997 1.13901 22.6116 1.32956L5.89728 9.30205C5.02444 9.71747 4.39006 10.5078 4.1726 11.4496L0.0813714 29.3428C-0.113592 30.1826 0.0438785 31.063 0.531287 31.7828C0.588276 31.8698 0.648265 31.9538 0.711253 32.0348L12.2591 46.3931C12.8695 47.1429 13.7858 47.5733 14.7516 47.5688H33.2731C34.2419 47.5703 35.1598 47.1189 35.7686 46.3796L47.3105 32.0183C47.9164 31.2684 48.1428 30.2786 47.9104 29.3398L43.7921 11.4317C43.5747 10.4898 42.9373 9.69948 42.0675 9.28406L25.3801 1.33106C24.8992 1.09389 24.3666 0.980971 23.8309 1.00262H23.8459Z" fill="#326CE5"/>
<path d="M23.5885 7.1001C23.0126 7.14059 22.5762 7.634 22.6062 8.20989V8.49184C22.6332 8.81128 22.6812 9.12772 22.7442 9.44116C22.8362 10.0414 22.8693 10.6491 22.8432 11.2558C22.7862 11.4553 22.6722 11.6352 22.5162 11.7732L22.4937 12.1961C21.8864 12.2471 21.2835 12.3401 20.6896 12.4751C18.1911 13.039 15.916 14.3347 14.1598 16.2019L13.7999 15.9469C13.6019 16.0069 13.389 15.9844 13.2075 15.8869C12.7207 15.5266 12.2702 15.1198 11.8622 14.6722C11.6573 14.4273 11.4385 14.1945 11.2069 13.9748L10.9849 13.7978C10.7869 13.6389 10.544 13.5474 10.2905 13.5354C10.1393 13.5274 9.98829 13.5552 9.84988 13.6168C9.71147 13.6783 9.58959 13.7717 9.49419 13.8893C9.15525 14.3647 9.26623 15.0231 9.74014 15.3635L9.9471 15.5285C10.2135 15.7058 10.4899 15.8675 10.7749 16.0129C11.3058 16.3084 11.8068 16.6548 12.2717 17.0627C12.3906 17.2323 12.4597 17.4318 12.4711 17.6386L12.7981 17.9386C11.0329 20.5871 10.3085 23.795 10.7615 26.9459L10.3415 27.0658C10.2321 27.2398 10.0866 27.3883 9.91261 27.4978C9.32674 27.6542 8.72702 27.7532 8.12195 27.7932C7.80083 27.7997 7.48036 27.8248 7.16213 27.8682L6.89668 27.9282H6.86668C6.68247 27.9537 6.50897 28.0299 6.36549 28.1483C6.22201 28.2666 6.11419 28.4224 6.05403 28.5984C5.99387 28.7744 5.98372 28.9636 6.02473 29.145C6.06574 29.3264 6.15629 29.4929 6.28629 29.6259C6.41752 29.7582 6.58295 29.8514 6.7641 29.8951C6.94525 29.9388 7.13499 29.9312 7.3121 29.8733H7.3316L7.60155 29.8433C7.90599 29.7533 8.20593 29.6423 8.49838 29.5164C9.06077 29.2914 9.64416 29.1189 10.241 29.0065C10.448 29.0185 10.646 29.089 10.8139 29.2089L11.2639 29.1339C12.2387 32.1589 14.2873 34.7219 17.0228 36.3371L16.8398 36.7195C16.9238 36.895 16.9553 37.0899 16.9298 37.2834C16.6823 37.8563 16.3794 38.4052 16.0255 38.9211C15.8313 39.177 15.652 39.4439 15.4886 39.7204L15.3611 39.9904C15.2686 40.1508 15.2222 40.3337 15.2271 40.5188C15.2321 40.704 15.288 40.8841 15.3889 41.0395C15.4897 41.1948 15.6315 41.3192 15.7987 41.399C15.9658 41.4788 16.1517 41.5108 16.3359 41.4916C16.5205 41.4709 16.6958 41.3993 16.8422 41.2849C16.9886 41.1706 17.1004 41.0178 17.1652 40.8437L17.2897 40.5888C17.4037 40.2888 17.4997 39.9829 17.5777 39.674C17.8431 39.0186 17.9871 38.3152 18.35 37.8803C18.4686 37.7688 18.6181 37.6956 18.7789 37.6703L19.0039 37.2609C21.9692 38.4007 25.2503 38.4087 28.2212 37.2834L28.4206 37.6658C28.6246 37.6958 28.8075 37.8083 28.9305 37.9733C29.2125 38.5102 29.4404 39.0726 29.6144 39.653C29.6937 39.9637 29.7909 40.2697 29.9053 40.5693L30.0298 40.8242C30.0953 40.9977 30.2074 41.1496 30.3539 41.2633C30.5004 41.3769 30.6754 41.4478 30.8597 41.4682C31.0439 41.4885 31.2302 41.4575 31.398 41.3785C31.5657 41.2995 31.7083 41.1757 31.81 41.0207C31.9107 40.8648 31.9663 40.684 31.9705 40.4984C31.9747 40.3129 31.9275 40.1298 31.834 39.9694L31.7035 39.6995C31.54 39.4239 31.3608 39.158 31.1666 38.9031C30.8217 38.4052 30.5247 37.8743 30.2668 37.3179C30.2427 37.2162 30.2393 37.1107 30.2568 37.0076C30.2744 36.9045 30.3124 36.8061 30.3688 36.718C30.3048 36.5872 30.2492 36.4525 30.2023 36.3146C32.9318 34.6874 34.9714 32.1154 35.9357 29.086L36.3616 29.1609C36.5146 29.0215 36.7156 28.948 36.921 28.954C37.5164 29.068 38.0998 29.2539 38.6637 29.4639C38.9561 29.5989 39.2561 29.7128 39.5605 29.8088C39.6325 29.8283 39.7375 29.8448 39.8185 29.8643H39.838C40.015 29.9215 40.2044 29.9284 40.3851 29.8843C40.5658 29.8401 40.7307 29.7467 40.8615 29.6144C40.9922 29.4821 41.0837 29.3161 41.1256 29.1349C41.1676 28.9537 41.1585 28.7644 41.0992 28.588C41.0386 28.4119 40.9302 28.256 40.7862 28.1379C40.6421 28.0198 40.468 27.9441 40.2834 27.9192L39.9924 27.8502C39.6742 27.8068 39.3537 27.7817 39.0326 27.7752C38.4267 27.7362 37.8269 27.6372 37.242 27.4798C37.062 27.3793 36.912 27.2293 36.81 27.0478L36.4051 26.9279C36.8369 23.7784 36.0972 20.5801 34.3265 17.9401L34.6804 17.6131C34.6654 17.4077 34.7329 17.2037 34.8664 17.0462C35.3268 16.6503 35.8262 16.3009 36.3511 16.0024C36.6361 15.8569 36.9125 15.6952 37.179 15.518L37.3979 15.341C37.5591 15.241 37.6887 15.0973 37.7717 14.9267C37.8547 14.756 37.8876 14.5654 37.8668 14.3768C37.8459 14.1882 37.772 14.0094 37.6538 13.861C37.5355 13.7126 37.3777 13.6008 37.1985 13.5384C37.0194 13.4761 36.8264 13.4657 36.6417 13.5084C36.457 13.5511 36.2882 13.6452 36.1547 13.7798L35.9327 13.9568C35.7011 14.1765 35.4823 14.4094 35.2773 14.6542C34.8814 15.1071 34.4435 15.5195 33.9681 15.8884C33.7762 15.9665 33.5664 15.9894 33.3622 15.9544L32.9828 16.2244C30.7932 13.9298 27.8432 12.5051 24.6818 12.2201C24.6818 12.0702 24.6623 11.8452 24.6593 11.7747C24.4899 11.6577 24.3714 11.4793 24.3324 11.2768C24.3116 10.6712 24.3498 10.0649 24.4464 9.46665C24.5109 9.15171 24.5559 8.83677 24.5843 8.51733V8.21739C24.6143 7.6415 24.1794 7.14809 23.602 7.1076L23.5885 7.1001ZM22.3378 14.8476L22.0378 20.0862H22.0153C22.0003 20.4101 21.8099 20.686 21.5174 20.842C21.225 20.998 20.8785 20.9515 20.6176 20.761L16.3209 17.7166C17.6885 16.3733 19.4042 15.4389 21.2745 15.0186C21.6254 14.9436 21.9793 14.8866 22.3348 14.8476H22.3378ZM24.8393 14.8476C27.0964 15.1281 29.1975 16.1419 30.8232 17.7331L26.567 20.758C26.3045 20.968 25.9446 21.01 25.6401 20.866C25.3357 20.722 25.1407 20.4161 25.1362 20.0802L24.8393 14.8476ZM14.7612 19.6872L18.6905 23.1936V23.2161C18.9349 23.429 19.0414 23.7605 18.9694 24.0769C18.8974 24.3933 18.6545 24.6438 18.344 24.7293V24.7443L13.302 26.1945C13.0525 23.9229 13.5664 21.6329 14.7627 19.6857L14.7612 19.6872ZM32.3874 19.6872C33.5812 21.6294 34.1091 23.9074 33.8901 26.1765L28.8405 24.7218V24.7023C28.5256 24.6168 28.2856 24.3663 28.2152 24.0499C28.1447 23.7335 28.2497 23.405 28.4941 23.1891L32.3934 19.6992L32.3874 19.6872ZM22.7832 23.4665H24.3909L25.3732 24.7143L25.0163 26.274L23.572 26.9684L22.1248 26.274L21.7844 24.7143L22.7832 23.4665ZM27.9332 27.7227C28.0007 27.7152 28.0832 27.7152 28.1357 27.7227L33.3352 28.6C32.5853 30.7596 31.1051 32.6043 29.1735 33.8386L27.1639 28.9735C27.1086 28.843 27.0855 28.7011 27.0965 28.5598C27.1076 28.4185 27.1524 28.2819 27.2272 28.1615C27.302 28.0411 27.4046 27.9405 27.5265 27.868C27.6483 27.7956 27.7857 27.7535 27.9272 27.7452L27.9332 27.7227ZM19.2004 27.7452C19.4943 27.7497 19.7658 27.9012 19.9262 28.1471C20.0867 28.3931 20.1122 28.702 19.9967 28.972V28.9915L17.9991 33.8176C16.0869 32.5923 14.6352 30.7701 13.8629 28.633L19.0174 27.7587C19.0744 27.7527 19.1329 27.7527 19.1914 27.7587L19.2004 27.7452ZM23.5555 29.8448C23.7194 29.8396 23.8815 29.8801 24.0237 29.9617C24.1659 30.0432 24.2826 30.1627 24.3609 30.3067H24.3804L26.9209 34.8914L25.9056 35.1913C24.0369 35.6187 22.0858 35.5182 20.2697 34.9004L22.8192 30.3157C22.9736 30.0458 23.2586 29.8808 23.569 29.8733L23.5555 29.8448Z" fill="white" stroke="white" stroke-width="0.11"/>
</svg>
