<svg width="48" height="48" viewBox="0 0 48 48" fill="none" xmlns="http://www.w3.org/2000/svg">
  <defs>
    <clipPath id="clip0_1031_1923">
      <rect width="48" height="48" fill="white" />
    </clipPath>
  </defs>
  <g clip-path="url(#clip0_1031_1923)">
    <path fill-rule="evenodd" clip-rule="evenodd"
      d="M15.4874 37.9872C16.0252 37.5548 16.6915 37.3325 17.3465 37.1455C17.136 37.344 16.7618 37.5897 16.9257 37.9287C17.2414 38.3384 17.8259 38.385 18.2937 38.4905C20.2695 38.7356 22.2689 38.8992 24.245 38.7471C25.7414 38.6538 27.2142 38.385 28.6762 38.1275C29.5175 38.6186 30.3947 39.0395 31.2946 39.4137C29.9151 40.0333 28.4304 40.4308 26.9458 40.7117C24.4437 41.1555 21.8595 41.2143 19.3457 40.8168C18.2349 40.618 17.1008 40.3608 16.0955 39.8112C15.7095 39.5894 15.3005 39.3319 15.1369 38.8992C15.0081 38.5602 15.2184 38.1981 15.4874 37.9872Z"
      fill="#0B6FB6" />
    <path fill-rule="evenodd" clip-rule="evenodd"
      d="M8.99834 41.296C10.0742 40.9337 11.185 40.6413 12.3191 40.6064C12.7751 40.5946 13.2426 40.618 13.6401 40.8519C12.2839 40.9337 10.9275 41.2727 9.71157 41.8923C9.44282 42.0444 9.13862 42.2199 9.03349 42.5356C9.03349 42.8976 9.44282 43.0149 9.71157 43.1315C11.4071 43.763 13.219 43.9617 14.9966 44.149C20.2928 44.5932 25.6242 44.4762 30.9207 43.9969C32.9201 43.7748 34.931 43.5527 36.872 43.0031C37.4916 42.7925 38.193 42.5822 38.6023 42.0326C38.848 41.7054 38.6847 41.296 38.439 41.0155C38.8362 41.2379 39.3977 41.5184 39.3162 42.0562C39.1641 42.6174 38.5905 42.9095 38.123 43.1785C36.6265 43.9387 34.9777 44.3244 33.3409 44.6634C28.5825 45.5985 23.7069 45.8093 18.8663 45.6691C15.2184 45.54 11.5707 45.1894 7.9694 44.5701C7.32646 44.418 6.60171 44.289 6.1339 43.7866C5.83 43.4357 6.09875 42.9446 6.39083 42.6877C7.1277 42.0096 8.07484 41.6351 8.99834 41.296Z"
      fill="#0B6FB6" />
    <path fill-rule="evenodd" clip-rule="evenodd"
      d="M38.1349 45.2949C39.3162 44.8856 40.5784 44.4529 41.4553 43.5176C41.3032 44.5347 40.4263 45.2364 39.561 45.6921C37.9012 46.5578 36.0418 46.955 34.1948 47.2822C30.2893 47.9021 26.3262 48.0539 22.3622 47.9842C19.6614 47.9021 16.9372 47.797 14.2831 47.2355C13.6517 47.0604 12.9736 46.9432 12.424 46.5693C14.7857 46.9668 17.183 47.1307 19.5799 47.224C23.52 47.3407 27.4718 47.1892 31.3888 46.6974C33.657 46.382 35.9367 45.9963 38.1349 45.2949Z"
      fill="#0B6FB6" />
    <path fill-rule="evenodd" clip-rule="evenodd"
      d="M38.1349 45.2949C39.3162 44.8856 40.5784 44.4529 41.4553 43.5176C41.3032 44.5347 40.4263 45.2364 39.561 45.6921C37.9012 46.5578 36.0418 46.955 34.1948 47.2822C30.2893 47.9021 26.3262 48.0539 22.3622 47.9842C19.6614 47.9021 16.9372 47.797 14.2831 47.2355C13.6517 47.0604 12.9736 46.9432 12.424 46.5693C14.7857 46.9668 17.183 47.1307 19.5799 47.224C23.52 47.3407 27.4718 47.1892 31.3888 46.6974C33.657 46.382 35.9367 45.9963 38.1349 45.2949Z"
      stroke="#0B6FB6" stroke-width="0.705882" />
    <path fill-rule="evenodd" clip-rule="evenodd"
      d="M14.1308 32.8899C14.7389 32.4106 15.464 32.1415 16.1887 31.8843C15.9551 32.1648 15.6276 32.4339 15.6043 32.8196C15.5924 33.065 15.7915 33.2523 15.99 33.3692C16.3757 33.5677 16.8083 33.638 17.2413 33.6964C19.4858 33.9304 21.754 34.0591 24.0225 33.907C26.0916 33.8016 28.1498 33.4625 30.1961 33.1002C30.7573 33.6265 31.4235 33.9888 32.1252 34.3045C29.6577 35.0293 27.1208 35.4504 24.5721 35.6492C22.1636 35.8128 19.72 35.8013 17.3228 35.415C16.3757 35.2399 15.4055 35.0411 14.5405 34.5966C14.1896 34.4097 13.7921 34.1643 13.6867 33.7549C13.6167 33.4041 13.8739 33.0883 14.1308 32.8899Z"
      fill="#0B6FB6" />
    <path fill-rule="evenodd" clip-rule="evenodd"
      d="M28.5595 0C29.6578 1.25103 30.0205 3.04018 29.7051 4.65358C29.3654 6.46575 28.3601 8.06764 27.1794 9.44745C26.2325 10.5582 25.1448 11.5402 24.011 12.4522C22.6897 13.516 21.3917 14.6619 20.5618 16.1586C19.8601 17.3745 19.6965 18.871 20.1758 20.1923C20.959 22.4605 22.7833 24.1442 23.7771 26.2838C22.6779 25.3134 21.6023 24.3081 20.5967 23.244C19.5444 22.1214 18.5506 20.9289 17.8958 19.5257C17.4517 18.5437 17.2529 17.3978 17.5919 16.3574C17.931 15.2933 18.6909 14.4398 19.4511 13.6447C21.5671 11.5284 24.1743 9.97343 26.2437 7.82222C27.3903 6.64118 28.3371 5.22653 28.6643 3.60131C28.9334 2.40875 28.8043 1.18104 28.5595 0Z"
      fill="#E11F22" />
    <path fill-rule="evenodd" clip-rule="evenodd"
      d="M26.8284 13.3177C29.0966 11.6456 31.7508 10.5818 34.4398 9.81006C32.3125 11.1662 30.091 12.4054 28.2552 14.1476C27.5883 14.7906 26.9575 15.5274 26.6651 16.4276C26.4427 17.0942 26.5361 17.8307 26.8054 18.4622C27.2966 19.5844 28.1261 20.4964 28.7576 21.5254C29.2957 22.4022 29.389 23.5248 28.9803 24.4719C28.36 25.8629 27.1445 26.8804 25.8816 27.6869C25.7177 27.7805 25.5774 27.956 25.3787 27.9793C26.2207 27.2194 26.8751 26.1438 26.8521 24.9861C26.8284 24.1211 26.3491 23.3612 25.788 22.7413C24.6306 21.3618 23.6598 19.6078 23.8589 17.7489C24.0576 15.8898 25.3905 14.3933 26.8284 13.3177Z"
      fill="#E11F22" />
    <path fill-rule="evenodd" clip-rule="evenodd"
      d="M34.8733 26.8335C35.3638 26.2375 36.1473 26.0854 36.8603 25.9918C38.1001 25.8282 39.4211 26.1439 40.3564 26.9974C41.1281 27.687 41.5608 28.7629 41.3969 29.8034C41.2218 31.0078 40.4146 32.0134 39.5032 32.7733C37.8547 34.0943 35.8201 34.866 33.7856 35.3805C33.9028 35.2517 34.031 35.1347 34.1831 35.0414C35.7265 34.2112 37.2581 33.2408 38.3925 31.8846C39.0818 31.0429 39.6199 29.9437 39.3978 28.8329C39.1642 27.5467 37.9131 26.6114 36.6385 26.5414C36.0301 26.4829 35.4577 26.7168 34.8733 26.8335Z"
      fill="#0B6FB6" />
    <path fill-rule="evenodd" clip-rule="evenodd"
      d="M11.3719 27.8975C13.5231 26.9737 15.8616 26.3777 18.2116 26.4126C16.8436 26.8101 15.4407 27.1491 14.1546 27.7572C13.8504 27.9209 13.4998 28.073 13.3244 28.3887C13.2311 28.6341 13.488 28.7977 13.6749 28.8795C14.47 29.207 15.3471 29.2537 16.2006 29.3358C19.1936 29.5346 22.1986 29.4176 25.1806 29.2304C28.1262 29.0434 31.0497 28.6459 33.9605 28.1781C33.3179 28.482 32.6629 28.7862 32.0669 29.1719C31.7627 29.3825 31.3888 29.4409 31.0497 29.5227C27.4718 30.3178 23.8002 30.5632 20.1525 30.6217C18.7376 30.6335 17.3347 30.6102 15.9319 30.5165C14.3651 30.4114 12.7866 30.2945 11.255 29.8851C10.8105 29.7564 10.343 29.6161 9.99213 29.3004C9.8167 29.1604 9.8167 28.8795 9.9688 28.7159C10.3545 28.3184 10.8926 28.1314 11.3719 27.8975Z"
      fill="#0B6FB6" />
  </g>
</svg>