<svg width="48" height="48" viewBox="0 0 48 48" fill="none" xmlns="http://www.w3.org/2000/svg">
  <defs>
    <clipPath id="clip0_1031_1925">
      <rect width="48" height="48" fill="white" />
    </clipPath>
  </defs>
  <g clip-path="url(#clip0_1031_1925)">
    <path d="M48 0H0V48H48V0Z" fill="#693CC5" />
    <path
      d="M31.0464 39.36C30.9109 39.3605 30.7786 39.3179 30.6688 39.2384C30.5861 39.1795 30.5186 39.1018 30.4719 39.0116C30.4251 38.9215 30.4005 38.8215 30.4 38.72V9.27997C30.4005 9.1706 30.429 9.06317 30.4827 8.96794C30.5365 8.8727 30.6138 8.79284 30.7072 8.73597C30.8017 8.67485 30.9106 8.63972 31.0229 8.6341C31.1353 8.62848 31.2471 8.65258 31.3472 8.70397L39.6672 12.768C39.774 12.8203 39.864 12.9013 39.9273 13.0019C39.9906 13.1025 40.0247 13.2187 40.0256 13.3376V35.9552C40.0325 36.0955 39.993 36.2343 39.9132 36.3499C39.8334 36.4656 39.7177 36.5518 39.584 36.5952L31.264 39.36C31.1919 39.3704 31.1186 39.3704 31.0464 39.36ZM31.6864 10.3104V37.8304L38.7264 35.4944V13.7344L31.6864 10.3104Z"
      fill="white" />
    <path
      d="M16.96 39.36C16.8921 39.3692 16.8232 39.3692 16.7552 39.36L8.43522 36.5952C8.30275 36.5506 8.1885 36.464 8.10991 36.3484C8.03133 36.2328 7.99273 36.0947 8.00002 35.9552V13.3376C8.00097 13.2187 8.035 13.1025 8.0983 13.0019C8.16161 12.9013 8.25168 12.8203 8.35842 12.768L16.6784 8.70397C16.7785 8.65258 16.8903 8.62848 17.0027 8.6341C17.1151 8.63972 17.224 8.67485 17.3184 8.73597C17.4106 8.79361 17.4867 8.87381 17.5393 8.96899C17.5919 9.06418 17.6194 9.1712 17.6192 9.27997V38.72C17.6187 38.8215 17.5941 38.9215 17.5474 39.0116C17.5006 39.1017 17.4331 39.1795 17.3504 39.2384C17.2385 39.3232 17.1004 39.3663 16.96 39.36ZM9.28002 35.52L16.32 37.856V10.336L9.28002 13.7728V35.52Z"
      fill="white" />
    <path
      d="M30.4 31.68H28.48V30.4H30.4V31.68ZM26.56 31.68H24.64V30.4H26.56V31.68ZM22.72 31.68H20.8V30.4H22.72V31.68ZM18.88 31.68H16.96V30.4H18.88V31.68Z"
      fill="white" />
    <path
      d="M26.8161 26.2016L25.9841 25.2288L27.8145 23.68L25.9777 22.1184L26.8097 21.12L29.2161 23.168C29.2863 23.2281 29.3427 23.3027 29.3814 23.3866C29.4201 23.4706 29.4401 23.5619 29.4401 23.6544C29.4401 23.7468 29.4201 23.8382 29.3814 23.9222C29.3427 24.0061 29.2863 24.0807 29.2161 24.1408L26.8161 26.2016Z"
      fill="white" />
    <path
      d="M21.1904 26.2016L18.784 24.1472C18.7137 24.0871 18.6573 24.0125 18.6186 23.9286C18.58 23.8446 18.5599 23.7532 18.5599 23.6608C18.5599 23.5683 18.58 23.477 18.6186 23.393C18.6573 23.3091 18.7137 23.2345 18.784 23.1744L21.184 21.12L22.016 22.0928L20.1856 23.68L22.016 25.248L21.1904 26.2016Z"
      fill="white" />
    <path d="M24.6615 20.0273L22.1177 27.5513L23.3302 27.9612L25.8741 20.4372L24.6615 20.0273Z"
      fill="white" />
    <path
      d="M30.4 17.5999H28.48V16.3199H30.4V17.5999ZM26.56 17.5999H24.64V16.3199H26.56V17.5999ZM22.72 17.5999H20.8V16.3199H22.72V17.5999ZM18.88 17.5999H16.96V16.3199H18.88V17.5999Z"
      fill="white" />
  </g>
</svg>