<svg width="48" height="48" viewBox="0 0 48 48" fill="none" xmlns="http://www.w3.org/2000/svg">
  <defs>
    <clipPath id="clip0_1031_2025">
      <rect width="48" height="48" fill="white" transform="translate(0 48) rotate(-90)" />
    </clipPath>
  </defs>
  <g clip-path="url(#clip0_1031_2025)">
    <path fill-rule="evenodd" clip-rule="evenodd"
      d="M46 24C46 17.9249 41.0751 13 35 13C28.9249 13 24 17.9249 24 24C24 30.0751 28.9249 35 35 35C41.0751 35 46 30.0751 46 24ZM48 24C48 16.8203 42.1797 11 35 11C27.8203 11 22 16.8203 22 24C22 31.1797 27.8203 37 35 37C42.1797 37 48 31.1797 48 24Z"
      fill="#03020D" />
    <path
      d="M11.6497 44.9218C11.2592 45.3123 11.2592 45.9455 11.6497 46.336L11.664 46.3503C12.0545 46.7408 12.6877 46.7408 13.0782 46.3503L20.9421 38.4864L20.9421 45.3431C20.9421 45.8954 21.3898 46.3431 21.9421 46.3431L21.9706 46.3431C22.5229 46.3431 22.9706 45.8954 22.9706 45.3431L22.9706 36.0294C22.9706 35.4771 22.5229 35.0294 21.9706 35.0294L12.6569 35.0294C12.1046 35.0294 11.6569 35.4771 11.6569 36.0294V36.0579C11.6569 36.6102 12.1046 37.0579 12.6569 37.0579L19.5136 37.0579L11.6497 44.9218Z"
      fill="#03020D" />
    <path
      d="M2 25.0101C1.44771 25.0101 1 24.5624 1 24.0101L1 23.9899C1 23.4376 1.44772 22.9899 2 22.9899L13.1212 22.9899L8.27276 18.1415C7.88224 17.7509 7.88224 17.1178 8.27276 16.7272L8.29289 16.7071C8.68342 16.3166 9.31658 16.3166 9.70711 16.7071L16.2929 23.2929C16.6834 23.6834 16.6834 24.3166 16.2929 24.7071L9.70711 31.2929C9.31658 31.6834 8.68342 31.6834 8.29289 31.2929L8.27276 31.2728C7.88224 30.8822 7.88224 30.2491 8.27276 29.8585L13.1212 25.0101L2 25.0101Z"
      fill="#03020D" />
    <path fill-rule="evenodd" clip-rule="evenodd"
      d="M40 22C40 22.5523 39.5523 23 39 23L31 23C30.4477 23 30 22.5523 30 22C30 21.4477 30.4477 21 31 21L39 21C39.5523 21 40 21.4477 40 22Z"
      fill="#03020D" />
    <path fill-rule="evenodd" clip-rule="evenodd"
      d="M40 26C40 26.5523 39.5523 27 39 27L31 27C30.4477 27 30 26.5523 30 26C30 25.4477 30.4477 25 31 25L39 25C39.5523 25 40 25.4477 40 26Z"
      fill="#03020D" />
    <path
      d="M11.6497 3.45078C11.2592 3.06026 11.2592 2.42709 11.6497 2.03657L11.664 2.02228C12.0545 1.63176 12.6877 1.63176 13.0782 2.02228L20.9421 9.88617L20.9421 3.02943C20.9421 2.47714 21.3898 2.02943 21.9421 2.02943L21.9706 2.02943C22.5229 2.02943 22.9706 2.47714 22.9706 3.02943L22.9706 12.3431C22.9706 12.8954 22.5229 13.3431 21.9706 13.3431L12.6569 13.3431C12.1046 13.3431 11.6569 12.8954 11.6569 12.3431V12.3147C11.6569 11.7624 12.1046 11.3147 12.6569 11.3147L19.5136 11.3147L11.6497 3.45078Z"
      fill="#03020D" />
  </g>
</svg>