<svg width="48" height="48" viewBox="0 0 48 48" fill="none" xmlns="http://www.w3.org/2000/svg">
  <defs>
    <clipPath id="clip0_1031_1979">
      <rect width="48" height="48" fill="white" transform="translate(0 48) rotate(-90)" />
    </clipPath>
  </defs>
  <g clip-path="url(#clip0_1031_1979)">
    <path
      d="M25.6942 6.71703C29.8045 7.17296 33.3531 8.80637 36.2729 11.7257C39.1928 14.6451 40.8267 18.1926 41.2836 22.3055H47.9975C47.3076 10.5387 37.5915 0.714142 25.6942 0.00012207V6.71703ZM25.6942 41.2852V47.9966C37.3756 47.3288 47.2609 37.6745 47.9985 25.6933H41.2841C40.8282 29.8032 39.1948 33.3517 36.2759 36.272C33.3571 39.1924 29.8081 40.8268 25.6977 41.2837L25.6942 41.2852ZM6.71741 22.306C7.17183 18.1971 8.80474 14.6506 11.7236 11.7287C14.6424 8.80687 18.2035 7.16894 22.3083 6.71703V0.00464119C10.7008 0.666942 0.742139 10.248 0 22.306H6.71741ZM0.00401708 25.6943C0.674352 37.3797 10.3237 47.259 22.3058 47.9981V41.2832C18.1965 40.8268 14.6479 39.1939 11.7276 36.275C8.80725 33.3562 7.17334 29.8077 6.71741 25.6943H0.00401708ZM13.9595 35.6394C19.7184 40.7655 28.6567 40.516 34.0239 35.6469L30.0119 31.6344C25.9993 34.3921 21.9867 34.3881 17.974 31.6224L13.9595 35.6394ZM16.3898 18.0148L12.3447 13.9707C6.99559 20.0554 7.73923 29.0404 12.3512 34.0054L16.3858 29.9719C15.0441 28.2677 14.3148 26.1616 14.3156 23.9926C14.3163 21.8237 15.0469 19.7181 16.3898 18.0148ZM34.045 12.3689C28.4594 7.35021 19.5216 7.36979 13.9681 12.3584L17.9785 16.3754C22.0032 13.6067 26.0212 13.6088 30.0325 16.3819L34.045 12.3689Z"
      fill="white" />
    <path
      d="M0.00390625 25.6945H6.7173C7.17423 29.8079 8.80814 33.3559 11.7285 36.2752C14.6488 39.1946 18.1973 40.827 22.3067 41.2834V47.9983C10.3235 47.2592 0.674241 37.3799 0.00390625 25.6945Z"
      fill="black" />
    <path
      d="M25.6978 41.2839C29.8101 40.827 33.3587 39.1926 36.278 36.2722C39.1973 33.3519 40.8303 29.8034 41.2862 25.6935H48.0001C47.2625 37.6747 37.3771 47.329 25.6978 47.9968V41.2839Z"
      fill="black" />
    <path
      d="M6.71741 22.3058H0C0.742139 10.2478 10.7008 0.666818 22.3083 0.0045166V6.7169C18.2035 7.16882 14.6474 8.80323 11.7236 11.7286C8.79972 14.654 7.17183 18.197 6.71741 22.3058Z"
      fill="black" />
    <path
      d="M13.9595 35.6392L17.9765 31.6222C21.9934 34.3869 26.0061 34.3906 30.0144 31.6332L34.0263 35.6457C28.6566 40.5143 19.7183 40.7639 13.9595 35.6392Z"
      fill="#ED2939" />
    <path
      d="M25.6943 6.71703V0.00012207C37.5917 0.715648 47.3077 10.5387 47.9977 22.3055H41.2838C40.8268 18.1926 39.1934 14.6441 36.2731 11.7242C33.3527 8.80436 29.8047 7.17145 25.6943 6.71703Z"
      fill="black" />
    <path
      d="M16.39 18.0149C15.0475 19.7181 14.3171 21.8234 14.3163 23.992C14.3156 26.1607 15.0446 28.2665 16.386 29.9705L12.3514 34.0056C7.73938 29.0406 6.99574 20.0556 12.3449 13.9708L16.39 18.0149Z"
      fill="#ED2939" />
    <path
      d="M34.0452 12.369L30.0327 16.3815C26.0214 13.6078 22.0034 13.6056 17.9787 16.375L13.9683 12.358C19.5217 7.3699 28.4595 7.35032 34.0452 12.369Z"
      fill="#ED2939" />
  </g>
</svg>