<svg xmlns="http://www.w3.org/2000/svg" width="48" height="48" viewBox="0 0 48 48" fill="none"><g clip-path="url(#a)"><path fill="currentColor" d="M44.24 19.645a11.955 11.955 0 0 0-1.027-9.821 12.094 12.094 0 0 0-13.027-5.802A11.958 11.958 0 0 0 21.168 0 12.095 12.095 0 0 0 9.631 8.373a11.961 11.961 0 0 0-7.997 5.801 12.096 12.096 0 0 0 1.488 14.181 11.958 11.958 0 0 0 1.027 9.822 12.095 12.095 0 0 0 13.026 5.803 11.96 11.96 0 0 0 9.02 4.02 12.094 12.094 0 0 0 11.54-8.378 11.962 11.962 0 0 0 7.997-5.8 12.096 12.096 0 0 0-1.492-14.177ZM26.2 44.865a8.97 8.97 0 0 1-5.76-2.082c.074-.04.202-.11.285-.16l9.557-5.52a1.552 1.552 0 0 0 .786-1.362V22.266l4.04 2.333a.144.144 0 0 1 .079.11v11.16a9.007 9.007 0 0 1-8.989 8.995l.002.001ZM6.87 36.61a8.965 8.965 0 0 1-1.073-6.028c.072.043.194.119.284.17l9.557 5.52a1.556 1.556 0 0 0 1.57 0l11.67-6.738V34.2a.144.144 0 0 1-.058.124l-9.662 5.579a9.005 9.005 0 0 1-12.288-3.293ZM4.357 15.745A8.963 8.963 0 0 1 9.04 11.8c0 .082-.004.228-.004.33v11.04a1.553 1.553 0 0 0 .784 1.36l11.668 6.736L17.45 33.6a.144.144 0 0 1-.137.012L7.648 28.03a9.005 9.005 0 0 1-3.291-12.284Zm33.19 7.725L25.878 16.73l4.04-2.331a.146.146 0 0 1 .136-.012l9.663 5.577a8.998 8.998 0 0 1-1.39 16.235V24.828a1.553 1.553 0 0 0-.78-1.358Zm4.02-6.052a8.874 8.874 0 0 0-.283-.17l-9.558-5.52a1.557 1.557 0 0 0-1.57 0l-11.668 6.737V13.8a.144.144 0 0 1 .058-.124l9.66-5.574a8.996 8.996 0 0 1 13.362 9.316Zm-25.276 8.315-4.04-2.333a.145.145 0 0 1-.079-.11V12.13a8.996 8.996 0 0 1 14.753-6.907c-.096.052-.19.105-.284.16l-9.558 5.52a1.553 1.553 0 0 0-.785 1.36l-.007 13.47ZM18.486 21 23.682 18l5.199 3v6l-5.198 3-5.197-3v-5.999Z"/></g></svg>