<svg width="48" height="48" viewBox="0 0 48 48" fill="none" xmlns="http://www.w3.org/2000/svg">
  <defs>
    <clipPath id="clip0_1031_1941">
      <rect width="48" height="48" fill="white" />
    </clipPath>
  </defs>
  <g clip-path="url(#clip0_1031_1941)">
    <path fill-rule="evenodd" clip-rule="evenodd"
      d="M44.3171 24C44.3171 22.4732 43.0764 21.2308 41.5518 21.2308C40.0272 21.2308 38.7865 22.4732 38.7865 24C38.7865 25.5268 40.0272 26.7692 41.5518 26.7692C43.0764 26.7692 44.3171 25.5268 44.3171 24ZM39.0335 29.9483C37.2839 29.2006 35.9548 27.6905 35.3999 25.8462H33.2558V36.744C35.6653 35.1065 37.7448 32.6751 39.0335 29.9483ZM29.5687 38.5015V24C29.5687 22.9809 30.3928 22.1538 31.4123 22.1538H35.3999C35.9621 20.2874 37.3171 18.7662 39.0999 18.0295C37.3946 14.0215 34.1278 10.1114 30.1402 8.72124C29.4341 10.5969 27.8892 12.0406 25.959 12.6222V39.0979C27.1776 38.9926 28.4884 38.7914 29.5687 38.5015ZM22.2719 39.0905V12.6222C20.3344 12.0388 18.7858 10.5858 18.0852 8.70092C14.0239 10.0615 10.6336 14.0492 8.91173 18.0314C10.6908 18.7698 12.0439 20.2892 12.6043 22.1538H16.592C17.6114 22.1538 18.4355 22.9809 18.4355 24V38.3668C19.479 38.6991 20.8801 38.9594 22.2719 39.0905ZM14.7484 36.504V25.8462H12.6043C12.0476 27.6942 10.7147 29.2099 8.9578 29.9539C10.2096 32.4739 12.3002 34.8332 14.7484 36.504ZM6.45243 26.7692C7.97705 26.7692 9.21774 25.5268 9.21774 24C9.21774 22.4732 7.97705 21.2308 6.45243 21.2308C4.92782 21.2308 3.6871 22.4732 3.6871 24C3.6871 25.5268 4.92782 26.7692 6.45243 26.7692ZM21.3502 6.46154C21.3502 7.98831 22.5909 9.23078 24.1155 9.23078C25.6401 9.23078 26.8808 7.98831 26.8808 6.46154C26.8808 4.93477 25.6401 3.69231 24.1155 3.69231C22.5909 3.69231 21.3502 4.93477 21.3502 6.46154ZM48.0042 24C48.0042 27.1126 45.7956 29.7157 42.8662 30.3249C41.0577 34.9274 37.4702 38.9132 33.2558 41.0031V48H29.5687V42.2935C28.3833 42.5464 27.1186 42.7181 25.959 42.8049V48H22.2719V42.7957C21.0331 42.696 19.6818 42.5022 18.4355 42.1994V48H14.7484V40.7945C10.4603 38.5735 6.8193 34.6172 5.10664 30.3157C2.19383 29.6935 0 27.0997 0 24C0 20.9114 2.17907 18.3305 5.07344 17.6954C7.11425 12.1421 11.8835 6.43754 17.8714 4.90893C18.5701 2.09908 21.0939 0 24.1155 0C27.1408 0 29.6683 2.10462 30.3633 4.92185C36.4562 6.52616 40.9711 12.3138 42.9326 17.6954C45.827 18.3323 48.0042 20.9132 48.0042 24Z"
      fill="#232F3D" />
  </g>
</svg>