<svg width="48" height="48" viewBox="0 0 48 48" fill="none" xmlns="http://www.w3.org/2000/svg">
<path d="M34.7985 34.9363C35.1029 32.3922 35.0159 32.037 36.9077 32.4284L37.3933 32.4719C38.9228 32.5422 40.4503 32.2955 41.8798 31.7471C44.2862 30.6237 45.7213 28.7537 43.3294 29.2465C37.9007 30.37 37.531 28.5217 37.531 28.5217C43.257 20.027 45.6488 9.23469 43.5831 6.5964C37.9441 -0.608154 28.1883 2.79843 28.0288 2.8854H27.9708C26.7776 2.6443 25.5641 2.51809 24.3468 2.50851C22.2981 2.40235 20.2756 3.00655 18.6209 4.21905C18.6209 4.21905 1.22555 -2.94927 2.02284 13.2356C2.18954 16.6857 6.95875 39.3286 12.6412 32.4719C14.7142 29.9713 16.7219 27.8622 16.7219 27.8622C17.7341 28.5426 18.9503 28.8524 20.1647 28.7392L20.2662 28.6522C20.232 28.9784 20.2442 29.3079 20.3024 29.6307C18.8528 31.2615 19.2659 31.5514 16.3377 32.153C13.4095 32.7546 15.12 33.8491 16.258 34.1317C17.6351 34.4796 20.817 34.9653 22.9697 31.9573L22.8827 32.3052C23.4626 32.7618 23.4191 35.6031 23.4988 37.6398C23.4839 39.3519 23.6984 41.0583 24.1366 42.7134C24.5497 43.8296 25.0354 46.7071 28.8841 45.8808C32.095 45.1922 34.552 44.1993 34.7767 35.0087" fill="black"/>
<path d="M27.6302 47.9976C26.306 48.0385 25.0183 47.5598 24.0424 46.6639C23.23 45.8278 22.646 44.7971 22.3463 43.6705C22.3028 43.5545 22.2666 43.4386 22.2449 43.3661C21.7219 41.5252 21.4656 39.6189 21.4838 37.7053C21.4838 37.3429 21.4838 36.9805 21.4476 36.5602C21.4476 36.321 21.4476 36.0383 21.4476 35.7484C19.6509 36.4888 17.658 36.6061 15.7869 36.0818C15.2164 35.9388 14.6712 35.709 14.1705 35.4005C13.8466 35.2059 13.5555 34.9613 13.308 34.6757C12.7671 35.1711 12.1032 35.5125 11.3855 35.6642C10.6678 35.8159 9.92253 35.7724 9.22736 35.5382C7.69078 35.0236 6.32815 33.5957 5.03799 31.1894C3.97056 29.0659 3.10193 26.8482 2.4432 24.5646C1.29407 20.9072 0.486096 17.1511 0.0296133 13.3447C-0.224068 8.27104 1.15306 4.59628 4.12475 2.4726C6.58184 0.740322 9.92318 0.203966 14.1053 0.89253C15.5517 1.13511 16.9768 1.49136 18.3672 1.95799C20.205 0.920836 22.2964 0.418697 24.4048 0.508382C25.5661 0.52553 26.7244 0.632152 27.8693 0.827298C29.7912 0.259341 31.787 -0.0191404 33.791 0.0010212C38.5457 0.0517575 42.4887 1.90726 45.1849 5.35733C46.2069 6.66197 47.0839 9.5467 45.4458 15.8742C44.3459 19.9774 42.6901 23.9108 40.5244 27.5653C41.3341 27.5323 42.1394 27.428 42.9308 27.2537C43.4432 27.1313 43.9735 27.1019 44.4964 27.1667C44.9413 27.2146 45.3634 27.3878 45.7137 27.6663C46.064 27.9447 46.328 28.3169 46.4751 28.7395C47.2941 31.2111 43.8223 33.0449 42.7423 33.545C41.0205 34.242 39.1696 34.5632 37.3135 34.4872H37.2266H36.9004C36.9004 34.5669 36.9004 34.6539 36.9004 34.7337C36.9004 34.8134 36.9004 34.9801 36.8569 35.1178C36.7337 39.8145 36.0596 42.8007 34.6825 44.7794C33.2329 46.8741 31.1745 47.4612 29.3842 47.8454C28.8069 47.9607 28.2187 48.0118 27.6302 47.9976ZM24.1439 30.7182C25.2963 31.6387 25.3978 33.313 25.4847 36.4514C25.4847 36.8283 25.4847 37.1762 25.4847 37.5386C25.4907 39.029 25.6609 40.5141 25.9921 41.9672C26.0501 42.1122 26.1008 42.2644 26.1516 42.4166C26.5647 43.6995 26.7387 44.2286 28.4274 43.8662C29.9205 43.5473 30.6888 43.2646 31.2759 42.4166C32.1529 41.1627 32.6458 38.6259 32.7255 34.8714L34.7405 34.9221L32.74 34.6829C32.74 34.5162 32.7763 34.364 32.798 34.219C32.972 32.7187 33.1097 31.53 34.1824 30.7617C34.7961 30.3454 35.5428 30.1723 36.2771 30.2761C35.9316 29.8895 35.6985 29.4158 35.603 28.9062L35.4363 28.0727L35.9074 27.3479C38.4647 23.5149 40.3769 19.2889 41.5682 14.8378C42.8003 10.0831 42.2567 8.06809 42.0465 7.78542C37.5672 2.05946 29.7683 4.40058 28.9058 4.68326L28.7536 4.76299L28.0288 4.9007L27.6446 4.82097C26.5777 4.60708 25.4929 4.49544 24.4048 4.48756C22.8055 4.38978 21.2221 4.85099 19.9255 5.79221L18.9325 6.546L17.867 6.10387C15.7796 5.25585 9.64775 3.53807 6.44412 5.8067C4.67559 7.06062 3.87107 9.5322 4.05227 13.1635C4.5078 16.7222 5.28409 20.2324 6.37165 23.6514C8.29963 29.8775 9.99567 31.6242 10.4885 31.7475C10.7321 31.6148 10.9427 31.429 11.1046 31.2039C13.1993 28.6815 15.1925 26.5796 15.2795 26.4926L16.4464 25.2677L17.8526 26.2027C18.3198 26.5151 18.8583 26.7045 19.4181 26.7536L22.774 23.8978L22.2811 28.87C22.2631 29.0265 22.2631 29.1846 22.2811 29.3411L22.4261 30.2834L21.7882 31.0082L23.3538 31.733L24.1439 30.7182Z" fill="black"/>
<path d="M43.3439 29.2177C37.9152 30.3412 37.5455 28.4929 37.5455 28.4929C43.2715 19.9982 45.6633 9.20588 43.5976 6.56759C37.9586 -0.636962 28.2028 2.76962 28.0433 2.8566H27.9853C26.7911 2.62256 25.5782 2.49642 24.3613 2.4797C22.3121 2.37861 20.2905 2.9851 18.6354 4.19748C18.6354 4.19748 1.24005 -2.97083 2.03733 13.214C2.20404 16.6641 6.97325 39.307 12.6557 32.4504C14.7287 29.9498 16.7364 27.8406 16.7364 27.8406C17.7481 28.5221 18.9647 28.832 20.1792 28.7176L20.2734 28.6306C20.2455 28.9573 20.2602 29.2862 20.3169 29.6091C18.8673 31.2399 19.2804 31.5299 16.3522 32.1315C13.424 32.733 15.1345 33.8275 16.2725 34.1102C17.6496 34.4581 20.8315 34.9437 22.9842 31.9358L22.8972 32.2837C23.4698 32.7403 23.8757 35.2699 23.8105 37.5602C23.7452 39.8506 23.6945 41.4307 24.1439 42.6339C24.5933 43.837 25.0499 46.6275 28.8986 45.8013C32.1095 45.1127 33.7765 43.3297 34.0085 40.3507C34.1752 38.2343 34.5448 38.546 34.5666 36.6542L34.871 35.7555C35.2116 32.8563 34.9217 31.9575 36.9004 32.3924L37.386 32.4359C38.9155 32.5062 40.443 32.2594 41.8726 31.7111C44.2789 30.5876 45.7141 28.7176 43.3222 29.2105L43.3439 29.2177Z" fill="#336791"/>
<path d="M27.8404 46.7511C24.6077 46.7511 23.5785 44.1853 23.1581 43.1271C22.5493 41.5905 22.4333 35.879 22.5493 30.8054C22.5493 30.6266 22.6203 30.4552 22.7467 30.3288C22.8731 30.2024 23.0446 30.1313 23.2234 30.1313C23.4021 30.1313 23.5736 30.2024 23.7 30.3288C23.8264 30.4552 23.8974 30.6266 23.8974 30.8054C23.738 36.3864 23.9626 41.4383 24.412 42.5617C25.1006 44.294 26.1588 45.8161 29.1305 45.1783C32.1022 44.5405 33.0227 43.5257 33.4793 40.7497C33.849 38.6333 34.5738 32.5957 34.6608 31.407C34.6602 31.3141 34.6788 31.2222 34.7154 31.1368C34.752 31.0515 34.8059 30.9747 34.8736 30.9111C34.9414 30.8476 35.0215 30.7987 35.109 30.7676C35.1965 30.7365 35.2894 30.7238 35.3821 30.7303C35.4747 30.7368 35.565 30.7624 35.6473 30.8055C35.7296 30.8485 35.8021 30.9081 35.8602 30.9805C35.9184 31.0528 35.961 31.1365 35.9853 31.2261C36.0097 31.3157 36.0152 31.4094 36.0016 31.5012C35.9074 32.7479 35.1899 38.7493 34.8057 40.9817C34.2404 44.2723 32.769 45.7654 29.3914 46.4902C28.885 46.6314 28.3651 46.7188 27.8404 46.7511Z" fill="white"/>
<path d="M10.4596 34.3419C10.1738 34.3404 9.89008 34.2939 9.61878 34.2042C7.51684 33.4794 5.52364 30.1018 3.68988 24.0569C2.5694 20.5137 1.7808 16.8741 1.33427 13.1849C1.10233 8.5751 2.29101 5.31348 4.86406 3.48697C7.03848 1.95763 10.0537 1.49376 13.8589 2.10259C15.5707 2.38026 17.2491 2.83448 18.8673 3.45798C19.0228 3.53183 19.1441 3.66237 19.2064 3.82283C19.2687 3.98329 19.2673 4.16151 19.2024 4.32095C19.1375 4.48038 19.0141 4.60896 18.8575 4.6803C18.7008 4.75164 18.5228 4.76035 18.3599 4.70464C18.2802 4.70464 10.1261 1.40678 5.63961 4.58143C3.46519 6.12526 2.46497 8.99549 2.67516 13.1124C3.12438 16.6964 3.89331 20.233 4.97278 23.68C6.60359 29.0146 8.45184 32.3777 10.0464 32.914C10.2928 32.9938 11.0394 33.2474 12.1121 31.95C14.185 29.464 16.084 27.478 16.0985 27.4563C16.157 27.3834 16.23 27.3235 16.3128 27.2804C16.3957 27.2372 16.4866 27.2118 16.5798 27.2056C16.673 27.1994 16.7664 27.2127 16.8542 27.2446C16.942 27.2765 17.0223 27.3263 17.0898 27.3908C17.1574 27.4553 17.2107 27.5331 17.2466 27.6194C17.2825 27.7056 17.3 27.7984 17.2981 27.8918C17.2962 27.9852 17.275 28.0772 17.2357 28.1619C17.1963 28.2466 17.1399 28.3223 17.0698 28.384C17.0698 28.384 15.1853 30.3627 13.1486 32.8126C12.8471 33.2561 12.4479 33.6245 11.9817 33.8896C11.5156 34.1548 10.9948 34.3095 10.4596 34.3419Z" fill="white"/>
<path d="M37.502 29.1093C37.3705 29.1049 37.2428 29.0648 37.1323 28.9933C37.0583 28.9444 36.9949 28.8812 36.9456 28.8075C36.8963 28.7337 36.8622 28.6509 36.8454 28.5638C36.8285 28.4768 36.8291 28.3872 36.8473 28.3004C36.8655 28.2136 36.9008 28.1313 36.9511 28.0583C42.7496 19.4839 44.7645 9.13364 43.0323 6.92299C40.8578 4.13249 37.7774 2.68288 33.8852 2.57416C32.001 2.53354 30.1229 2.80289 28.326 3.37144L28.2245 3.41493C28.063 3.49375 27.8769 3.50519 27.707 3.44674C27.5371 3.38829 27.3973 3.26474 27.3185 3.10327C27.2397 2.94179 27.2282 2.75563 27.2867 2.58572C27.3451 2.41581 27.4687 2.27608 27.6302 2.19726C29.5746 1.50889 31.6273 1.17741 33.6895 1.21878C38.0383 1.26227 41.6261 2.93656 44.0687 6.06047C44.6776 6.83601 44.9675 8.10442 44.9458 9.82945C44.8704 11.7164 44.581 13.5888 44.0832 15.4105C42.8147 20.1691 40.7725 24.6869 38.0383 28.7831C37.9816 28.8765 37.9033 28.9549 37.81 29.0116C37.7166 29.0684 37.611 29.1019 37.502 29.1093Z" fill="white"/>
<path d="M37.7775 33.0808C36.9421 33.1309 36.1074 32.9714 35.3494 32.617C35.1551 32.5162 34.9898 32.3674 34.8693 32.1847C34.7488 32.002 34.677 31.7915 34.6608 31.5732C34.5158 28.9929 35.893 28.4856 36.6613 28.2609C36.5598 28.1232 36.4366 27.9637 36.2989 27.797C35.7059 27.0717 35.2269 26.2602 34.8782 25.3907C34.8058 25.224 34.5811 24.8253 34.3274 24.3614C32.9285 21.8536 30.0148 16.635 31.8993 13.9387C32.7618 12.7066 34.4724 12.2065 36.9729 12.4891C36.3552 10.7867 35.4343 9.21022 34.2549 7.83589C33.0498 6.36827 31.5372 5.18309 29.824 4.36403C28.1107 3.54497 26.2385 3.11199 24.3396 3.09567C23.2131 3.02965 22.0854 3.20067 21.0292 3.59769C19.973 3.99471 19.0118 4.60889 18.2077 5.40055C14.7287 8.9086 14.8591 15.2651 14.8591 15.3304C14.8419 15.4962 14.7638 15.6497 14.64 15.7613C14.5162 15.8729 14.3554 15.9346 14.1887 15.9346C14.022 15.9346 13.8612 15.8729 13.7374 15.7613C13.6136 15.6497 13.5355 15.4962 13.5182 15.3304C13.5182 15.0404 13.3805 8.32876 17.251 4.41481C18.1811 3.4944 19.2937 2.77898 20.5171 2.31459C21.7404 1.85021 23.0475 1.64717 24.3541 1.71854C26.4296 1.73254 28.4771 2.19816 30.3546 3.08306C32.2321 3.96797 33.8944 5.25095 35.2262 6.84291C37.4006 9.33624 38.4225 12.0905 38.5023 13.011C38.5269 13.1063 38.5318 13.2056 38.5168 13.3028C38.5017 13.4001 38.467 13.4933 38.4148 13.5767C38.3626 13.6601 38.2939 13.732 38.213 13.788C38.1321 13.844 38.0406 13.883 37.9442 13.9025H37.6977C34.6318 13.4096 33.4576 14.062 33.0155 14.6998C31.6166 16.7002 34.3491 21.5999 35.5161 23.6946C35.8132 24.231 36.0307 24.6224 36.1322 24.8615C36.4548 25.6056 36.8873 26.297 37.4151 26.9127C37.7587 27.3125 38.011 27.7825 38.1543 28.2899C38.2123 28.3841 38.9589 29.3988 43.17 28.5291C44.2717 28.2971 44.9385 28.5291 45.1487 29.1307C45.5474 30.3338 43.344 31.7254 42.119 32.2908C40.7384 32.8389 39.2627 33.1075 37.7775 33.0808ZM36.0017 31.4428C36.7013 31.7376 37.4683 31.8354 38.2196 31.7254C39.3555 31.6913 40.4766 31.4583 41.5319 31.0369C42.2297 30.7277 42.8752 30.312 43.4454 29.8047C40.6839 30.3701 38.727 30.2976 37.647 29.5728L37.4585 29.4351L37.1759 29.522C36.5308 29.7395 35.9437 29.8627 36.0234 31.4428H36.0017Z" fill="white"/>
<path d="M18.2077 34.9877C17.4863 34.9853 16.768 34.8928 16.0695 34.7122C15.8521 34.6615 13.9821 34.1542 14.0111 32.9582C14.0401 31.7623 15.5911 31.5086 16.1855 31.4216C18.2584 30.994 18.3599 30.8273 19.034 30.0083C19.2224 29.7691 19.4616 29.4647 19.7588 29.1095C20.0363 28.7224 20.4437 28.448 20.9068 28.3362C21.3698 28.2244 21.8575 28.2828 22.2811 28.5007C22.6372 28.6736 22.9514 28.9221 23.2017 29.2287C23.452 29.5354 23.6326 29.8929 23.7307 30.2764C23.8402 30.608 23.8716 30.9604 23.8226 31.3061C23.7735 31.6518 23.6454 31.9816 23.448 32.2697C22.8663 33.1195 22.0834 33.8124 21.1691 34.2866C20.2548 34.7608 19.2375 35.0016 18.2077 34.9877ZM15.4969 33.0235C15.7744 33.1981 16.0777 33.3277 16.3957 33.4076C18.186 33.857 20.6865 33.886 22.3971 31.4869C22.4725 31.3618 22.5195 31.2215 22.5345 31.0762C22.5495 30.9309 22.5323 30.784 22.484 30.6461C22.4337 30.4535 22.3431 30.2738 22.2181 30.1189C22.0932 29.964 21.9368 29.8373 21.7592 29.7473C21.3968 29.5951 21.1939 29.5082 20.759 30.001C20.4618 30.3344 20.2444 30.6026 20.0342 30.8418C19.2079 31.8855 18.831 32.2334 16.4102 32.7408C16.098 32.7988 15.7939 32.8937 15.5042 33.0235H15.4969Z" fill="white"/>
<path d="M20.1864 30.1964C20.026 30.1963 19.871 30.1383 19.7498 30.0332C19.6287 29.928 19.5495 29.7827 19.5269 29.6238C19.5194 29.5346 19.5194 29.4449 19.5269 29.3557C17.908 29.2983 16.3769 28.6056 15.265 27.4277C14.5315 26.6553 13.9843 25.7254 13.6652 24.7091C13.3461 23.6928 13.2636 22.6171 13.424 21.564C13.6554 19.7299 13.7015 17.8771 13.5617 16.0337C13.5617 15.7221 13.5255 15.4974 13.5617 15.3089C13.598 15.1205 13.5617 14.5841 15.3375 13.6564C16.3517 13.1372 17.4476 12.7964 18.5774 12.6489C20.8533 12.4097 22.3536 13.4317 22.8102 15.5481C24.0062 21.1074 22.9044 23.5645 22.0854 25.362C21.9332 25.6954 21.7955 26.0143 21.6795 26.3115L21.5853 26.5869C21.1499 27.469 20.9172 28.4373 20.904 29.4209C20.9174 29.5085 20.9133 29.5978 20.8922 29.6838C20.871 29.7699 20.8331 29.8509 20.7806 29.9222C20.7281 29.9936 20.662 30.0539 20.5862 30.0997C20.5103 30.1455 20.4262 30.1759 20.3386 30.1892L20.1864 30.1964ZM14.8519 15.5409C14.8519 15.6496 14.8519 15.7946 14.8519 15.954C14.9961 17.887 14.9451 19.8297 14.6997 21.7525C14.5712 22.6035 14.6382 23.4727 14.8956 24.294C15.1531 25.1153 15.5942 25.8672 16.1855 26.4927C16.625 26.9661 17.1562 27.3453 17.7468 27.6069C18.3374 27.8686 18.9751 28.0074 19.6211 28.0148C19.794 27.37 20.0045 26.7359 20.2517 26.1158L20.3459 25.8476C20.4764 25.4997 20.6286 25.1663 20.788 24.8111C21.5636 23.0933 22.5203 20.9624 21.4114 15.8308C21.3653 15.4108 21.1889 15.0157 20.9067 14.7011C20.6246 14.3865 20.2511 14.1682 19.8385 14.0768C18.012 13.6491 15.41 15.0408 14.8519 15.5409Z" fill="white"/>
<path d="M18.5484 15.2437C18.5484 15.4611 18.9543 16.0482 19.5196 16.128C19.7395 16.1577 19.9631 16.1151 20.1566 16.0066C20.3501 15.8981 20.5031 15.7295 20.5923 15.5264C20.5923 15.3089 20.1937 15.0625 19.6283 14.99C19.063 14.9175 18.5774 14.99 18.5484 15.2437Z" fill="white"/>
<path d="M19.6573 16.3672H19.4906C19.106 16.2976 18.7632 16.0821 18.5339 15.7656C18.4064 15.6161 18.3369 15.4258 18.3382 15.2293C18.3442 15.1722 18.3629 15.1171 18.393 15.0682C18.4231 15.0193 18.4638 14.9777 18.5121 14.9466C18.8637 14.7543 19.2729 14.6951 19.6646 14.7799C19.9404 14.8148 20.2078 14.8982 20.4546 15.0263C20.817 15.2293 20.8387 15.454 20.8242 15.5699C20.7579 15.8094 20.6022 16.0143 20.3894 16.1425C20.1727 16.2878 19.9181 16.3659 19.6573 16.3672ZM18.7803 15.2945C18.8515 15.4513 18.959 15.5889 19.0938 15.696C19.2287 15.8031 19.387 15.8767 19.5558 15.9106C19.7149 15.9247 19.8748 15.8958 20.0189 15.8269C20.163 15.7581 20.2859 15.6518 20.3748 15.5192C20.1596 15.3353 19.8893 15.2282 19.6066 15.2148C19.3275 15.1491 19.0346 15.1771 18.773 15.2945H18.7803Z" fill="white"/>
<path d="M35.7407 14.8014C35.777 15.0189 35.3421 15.606 34.7767 15.6857C34.556 15.7147 34.3318 15.6719 34.1373 15.5635C33.9428 15.4552 33.7883 15.2871 33.6968 15.0841C33.6968 14.8667 34.1027 14.6275 34.6608 14.5477C35.2189 14.468 35.7117 14.5477 35.7407 14.8014Z" fill="white"/>
<path d="M34.6463 15.8085C34.4177 15.8071 34.1948 15.7373 34.0062 15.6082C33.8176 15.479 33.672 15.2963 33.5881 15.0837C33.5373 14.7431 34.0882 14.4894 34.6463 14.4096C35.2044 14.3299 35.806 14.4096 35.8567 14.7648C35.8493 14.8769 35.8199 14.9865 35.7702 15.0872C35.7204 15.1879 35.6513 15.2779 35.5668 15.3519C35.3617 15.5737 35.089 15.7215 34.7912 15.7723L34.6463 15.8085ZM35.0159 14.6343H34.6825C34.0882 14.7141 33.791 14.9533 33.8055 15.0475C33.8966 15.2175 34.0362 15.3565 34.2066 15.4469C34.377 15.5372 34.5704 15.5748 34.7622 15.5548C35.0083 15.5102 35.2326 15.3853 35.4001 15.1997C35.5201 15.0937 35.6017 14.951 35.632 14.7938C35.603 14.7358 35.4001 14.6343 35.0159 14.6343Z" fill="white"/>
<path d="M36.5598 27.4712C36.4252 27.4719 36.2937 27.4314 36.1828 27.3552C36.1099 27.3064 36.0473 27.2435 35.9986 27.1704C35.95 27.0973 35.9163 27.0152 35.8995 26.929C35.8826 26.8428 35.883 26.7541 35.9005 26.6681C35.918 26.582 35.9524 26.5002 36.0016 26.4275C37.3135 24.4633 37.0744 22.4556 36.8352 20.5131C36.7161 19.6776 36.6579 18.8346 36.6612 17.9908C36.6957 17.2449 36.7755 16.5018 36.9004 15.7656C37.0529 14.9584 37.1161 14.1368 37.0888 13.3158C37.0841 13.2273 37.0968 13.1387 37.1263 13.0551C37.1558 12.9715 37.2014 12.8945 37.2607 12.8285C37.3199 12.7626 37.3915 12.7089 37.4715 12.6706C37.5514 12.6324 37.6382 12.6102 37.7267 12.6055C37.8152 12.6007 37.9038 12.6134 37.9874 12.6429C38.071 12.6724 38.148 12.718 38.2139 12.7773C38.2799 12.8365 38.3335 12.9081 38.3718 12.9881C38.4101 13.0681 38.4322 13.1548 38.437 13.2433C38.4652 14.1566 38.3948 15.0704 38.2268 15.9686C38.1126 16.6523 38.0376 17.342 38.0021 18.0342C38.0019 18.8106 38.0601 19.5859 38.1761 20.3536C38.4225 22.4338 38.7052 24.7967 37.1178 27.174C37.0558 27.265 36.9726 27.3395 36.8754 27.3913C36.7782 27.443 36.6699 27.4705 36.5598 27.4712Z" fill="white"/>
</svg>
