<svg width="48" height="48" viewBox="0 0 48 48" fill="none" xmlns="http://www.w3.org/2000/svg">
<path d="M48 17.8336H36.2675C33.0964 11.7343 29.7443 7 25.1803 7C19.2393 7 16.4459 12.1998 13.7469 17.2576L13.5108 17.6995H0V20.7057H7.86885C10.6466 20.7057 11.2131 21.6447 11.2131 21.6447C9.03344 25.0376 6.41311 28.391 2.0459 28.391H0V31.5472H2.06164C10.5285 31.5472 14.2269 24.6589 17.1934 19.1276C19.9161 14.0304 21.8125 10.9452 25.1803 10.9452C28.6741 10.9452 32.3489 18.5674 35.583 25.298C36.0551 26.2764 36.5351 27.2785 37.0229 28.2727C24.6216 28.6672 18.7121 31.5788 13.9043 33.9538C10.3869 35.6897 7.60918 37.8438 3.03738 37.8438H0V41H3.01377C8.52197 41 11.9528 39.2957 15.6039 37.4887C20.6636 34.9954 26.4 32.1706 39.9187 32.1706H47.7325V29.0144H43.318C43.1506 29.0144 42.6204 29.0144 42.2985 28.6983C40.3707 26.4101 39.8479 25.1481 39.1082 23.57L38.0852 21.4711C38.0852 21.4711 38.8171 20.6821 40.8472 20.6821H48V17.8336Z" fill="#188FFF"/>
</svg>
