<svg width="48" height="48" viewBox="0 0 48 48" fill="none" xmlns="http://www.w3.org/2000/svg">
<path fill-rule="evenodd" clip-rule="evenodd" d="M4 2H44C45.1046 2 46 2.89543 46 4V10H2V4C2 2.89543 2.89543 2 4 2ZM0 10V4C0 1.79086 1.79086 0 4 0H44C46.2091 0 48 1.79086 48 4V10V12V44C48 46.2091 46.2091 48 44 48H4C1.79086 48 0 46.2091 0 44V12V10ZM2 12V44C2 45.1046 2.89543 46 4 46H44C45.1046 46 46 45.1046 46 44V12H2Z" fill="#03020D"/>
<path d="M14.816 32.52L16.4 26.484L17.996 32.52H19.484L21.812 24H20.228L18.74 30.12L17.144 24H15.668L14.06 30.12L12.584 24H11L13.328 32.52H14.816Z" fill="#03020D"/>
<path d="M28.0251 32.52V31.116H24.4251V28.944H27.7611V27.54H24.4251V25.404H27.9651V24H22.9251V32.52H28.0251Z" fill="#03020D"/>
<path d="M33.0733 32.52C34.7653 32.52 35.7133 31.5 35.7133 30.156C35.7133 29.16 35.1733 28.344 34.1893 27.984C34.8013 27.588 35.1253 26.952 35.1253 26.208C35.1253 24.96 34.2253 24 32.6053 24H29.5813V32.52H33.0733ZM32.8573 28.944C33.5773 28.944 34.1293 29.28 34.1293 30.024C34.1293 30.768 33.5773 31.116 32.8573 31.116H31.1293V28.944H32.8573ZM32.4253 25.404C33.0493 25.404 33.5533 25.728 33.5533 26.448C33.5533 27.216 33.0493 27.54 32.4253 27.54H31.1293V25.404H32.4253Z" fill="#03020D"/>
<path d="M14 6C14 4.90909 14.9091 4 16 4C17.0909 4 18 4.90909 18 6C18 7.09091 17.0909 8 16 8C14.9091 8 14 7.09091 14 6Z" fill="#03020D"/>
<path d="M9 6C9 4.90909 9.90909 4 11 4C12.0909 4 13 4.90909 13 6C13 7.09091 12.0909 8 11 8C9.90909 8 9 7.09091 9 6Z" fill="#03020D"/>
<path d="M4 6C4 4.90909 4.90909 4 6 4C7.09091 4 8 4.90909 8 6C8 7.09091 7.09091 8 6 8C4.90909 8 4 7.09091 4 6Z" fill="#03020D"/>
</svg>
