<svg width="48" height="48" viewBox="0 0 48 48" fill="none" xmlns="http://www.w3.org/2000/svg">
<mask id="mask0_1031_1919" style="mask-type:luminance" maskUnits="userSpaceOnUse" x="0" y="3" width="48" height="43">
<path d="M48 3H0V45.2381H48V3Z" fill="white"/>
</mask>
<g mask="url(#mask0_1031_1919)">
<path d="M12.9724 38.2691H12.5192L10.2568 36.0067V35.5535L13.7154 32.095H16.1115L16.431 32.4144V34.8105L12.9724 38.2691Z" fill="#05BDBA"/>
<path d="M10.2568 12.6809V12.2277L12.5192 9.96533H12.9724L16.431 13.4239V15.82L16.1115 16.1395H13.7154L10.2568 12.6809Z" fill="#05BDBA"/>
<path d="M13.4405 26.0434H0.274901L0 25.7685V22.4697L0.274901 22.1948H13.4405L13.7154 22.4697V25.7685L13.4405 26.0434Z" fill="#05BDBA"/>
<path d="M47.7289 26.0434H34.5632L34.2883 25.7685V22.4697L34.5632 22.1948H47.7289L48.0037 22.4697V25.7685L47.7289 26.0434Z" fill="#05BDBA"/>
<path d="M22.1035 13.1491V3.2749L22.3784 3H25.6772L25.9521 3.2749V13.1491L25.6772 13.4239H22.3784L22.1035 13.1491Z" fill="#05BDBA"/>
<path d="M22.1035 44.9632V35.0891L22.3784 34.8142H25.6772L25.9521 35.0891V44.9632L25.6772 45.2381H22.3784L22.1035 44.9632Z" fill="#05BDBA"/>
<path d="M30.1722 30.9768H26.8808L26.6059 30.7019V22.9973C26.6059 21.6265 26.0673 20.564 24.4141 20.5269C23.5634 20.5046 22.5901 20.5269 21.55 20.5677L21.3939 20.7275V30.6982L21.119 30.9731H17.8276L17.5527 30.6982V17.5364L17.8276 17.2615H25.2351C28.1142 17.2615 30.4471 19.5944 30.4471 22.4735V30.7019L30.1722 30.9768Z" fill="#014847"/>
</g>
</svg>
