<svg width="48" height="48" viewBox="0 0 48 48" fill="none" xmlns="http://www.w3.org/2000/svg">
<path fill-rule="evenodd" clip-rule="evenodd" d="M28.3971 30.9605H36.9074C37.8993 30.9737 38.8841 30.7932 39.8056 30.4294C40.7271 30.0656 41.5671 29.5255 42.2776 28.8402C42.9882 28.1548 43.5553 27.3375 43.9467 26.435C44.338 25.5326 44.5459 24.5626 44.5584 23.5805C44.5584 19.4747 41.3089 16.1958 36.9074 16.1958C36.1442 16.1958 35.285 16.3764 34.325 16.4666L32.7026 16.9418L32.2226 15.3927C30.6962 10.6406 25.9107 7.73232 20.4628 7.73232C13.8677 7.73232 8.79895 12.5652 8.79895 18.8569C8.81994 19.8766 8.98143 20.8886 9.27894 21.865L9.95093 24.146L7.36857 23.8704H6.88858C5.99596 23.8662 5.13692 24.207 4.49419 24.8202C3.85147 25.4335 3.47577 26.2708 3.44702 27.1541C3.46413 27.9614 3.7727 28.7359 4.31686 29.3374C4.86101 29.9389 5.60476 30.3276 6.41338 30.433H14.9237C15.2688 28.189 16.3822 26.1306 18.0772 24.6022C20.2103 22.5666 23.0536 21.4229 26.0163 21.4088C28.0666 21.3887 30.0834 21.9245 31.8482 22.958L30.0291 25.6952C28.7403 24.9915 27.286 24.6389 25.8147 24.6735C23.7075 24.6735 21.6052 25.4005 20.266 26.9497C19.5213 27.6215 18.924 28.4377 18.5112 29.3475C18.0984 30.2573 17.8788 31.2414 17.866 32.2388C17.8387 33.2423 18.0403 34.239 18.4558 35.1547C18.8713 36.0704 19.4901 36.8816 20.266 37.5278C20.9837 38.2638 21.8466 38.8457 22.8012 39.2373C23.7558 39.6289 24.7816 39.8218 25.8147 39.8041C27.3129 39.802 28.7765 39.3587 30.0194 38.5305L31.8386 41.263C30.0195 42.2657 27.9171 42.9975 26.0019 42.9975C24.5379 43.0278 23.0825 42.7695 21.7203 42.2375C20.3582 41.7056 19.1165 40.9107 18.0676 39.8991C16.3097 38.2 15.1976 35.9526 14.9189 33.5361H6.02459C4.36667 33.4013 2.82233 32.6482 1.704 31.4289C0.585672 30.2097 -0.0231581 28.6155 0.00067414 26.9687C0.00067414 24.2363 2.67903 21.6844 5.83259 21.1379C5.65216 20.5783 5.58688 19.9885 5.64059 19.4034C5.64059 11.3819 11.5733 4.99988 21.0388 4.99988C27.0627 4.99988 32.4146 8.28356 34.613 13.5536C35.381 13.5536 35.9522 13.2827 36.8114 13.2827C43.0513 13.1877 48 17.7497 48 23.5853C48 29.3258 43.0273 33.883 37.0993 33.883H27.7347L28.4019 30.97L28.3971 30.9605Z" fill="#59B4D9"/>
<path fill-rule="evenodd" clip-rule="evenodd" d="M31.5745 32.1487C31.5627 31.4633 31.414 30.787 31.1369 30.1588C30.8598 29.5306 30.4599 28.9629 29.9601 28.4885C29.4604 28.014 28.8707 27.6422 28.2251 27.3944C27.5795 27.1467 26.8908 27.0279 26.1986 27.0449C25.5083 27.0304 24.8218 27.1511 24.1787 27.4001C23.5356 27.6491 22.9486 28.0213 22.4513 28.4956C21.9539 28.9699 21.5562 29.5367 21.2808 30.1636C21.0054 30.7905 20.8579 31.4651 20.8467 32.1487C20.8579 32.8322 21.0054 33.5068 21.2808 34.1337C21.5562 34.7606 21.9539 35.3275 22.4513 35.8017C22.9486 36.276 23.5356 36.6483 24.1787 36.8972C24.8218 37.1462 25.5083 37.2669 26.1986 37.2524C26.8908 37.2694 27.5795 37.1507 28.2251 36.9029C28.8707 36.6552 29.4604 36.2833 29.9601 35.8089C30.4599 35.3344 30.8598 34.7668 31.1369 34.1386C31.414 33.5103 31.5627 32.8341 31.5745 32.1487Z" fill="#68217A"/>
</svg>
