<svg width="48" height="48" viewBox="0 0 48 48" fill="none" xmlns="http://www.w3.org/2000/svg">
  <defs>
    <clipPath id="clip0_1031_1995">
      <rect width="48" height="48" fill="white" />
    </clipPath>
  </defs>
  <g clip-path="url(#clip0_1031_1995)">
    <path fill-rule="evenodd" clip-rule="evenodd"
      d="M44 2H4C2.89543 2 2 2.89543 2 4V10H46V4C46 2.89543 45.1046 2 44 2ZM4 0C1.79086 0 0 1.79086 0 4V12H48V4C48 1.79086 46.2091 0 44 0H4Z"
      fill="#03020D" />
    <path fill-rule="evenodd" clip-rule="evenodd"
      d="M46 12H2V44C2 45.1046 2.89543 46 4 46H44C45.1046 46 46 45.1046 46 44V12ZM0 10V44C0 46.2091 1.79086 48 4 48H44C46.2091 48 48 46.2091 48 44V10H0Z"
      fill="#03020D" />
    <path
      d="M8.93179 32.9999V29.4239H13.2518V32.9999H14.7998V24.4799H13.2518V28.0199H8.93179V24.4799H7.38379V32.9999H8.93179Z"
      fill="#03020D" />
    <path d="M19.8076 32.9999V25.8839H22.1236V24.4799H15.9436V25.8839H18.2596V32.9999H19.8076Z"
      fill="#03020D" />
    <path d="M26.3467 32.9999V25.8839H28.6627V24.4799H22.4827V25.8839H24.7987V32.9999H26.3467Z"
      fill="#03020D" />
    <path
      d="M31.3498 32.9999V29.4119H33.0178C34.7338 29.4119 35.7058 28.3199 35.7058 26.9399C35.7058 25.5239 34.7338 24.4799 33.0178 24.4799H29.8018V32.9999H31.3498ZM32.8978 25.8839C33.6058 25.8839 34.1338 26.2319 34.1338 26.9399C34.1338 27.6359 33.6058 28.0079 32.8978 28.0079H31.3498V25.8839H32.8978Z"
      fill="#03020D" />
    <path
      d="M42.147 31.5959H38.667L40.527 29.5439C41.547 28.4159 41.871 27.7319 41.871 26.7959C41.871 25.2959 40.671 24.3359 39.183 24.3359C38.367 24.3359 37.371 24.6599 36.531 24.9719V26.7359L39.027 25.7279C39.807 25.7279 40.311 26.0999 40.311 26.8199C40.311 27.3719 40.071 27.8759 39.219 28.8119L36.471 31.7999V32.9999H42.147V31.5959Z"
      fill="#03020D" />
    <path
      d="M14 6C14 4.90909 14.9091 4 16 4C17.0909 4 18 4.90909 18 6C18 7.09091 17.0909 8 16 8C14.9091 8 14 7.09091 14 6Z"
      fill="#03020D" />
    <path
      d="M9 6C9 4.90909 9.90909 4 11 4C12.0909 4 13 4.90909 13 6C13 7.09091 12.0909 8 11 8C9.90909 8 9 7.09091 9 6Z"
      fill="#03020D" />
    <path
      d="M4 6C4 4.90909 4.90909 4 6 4C7.09091 4 8 4.90909 8 6C8 7.09091 7.09091 8 6 8C4.90909 8 4 7.09091 4 6Z"
      fill="#03020D" />
  </g>
</svg>