<svg width="48" height="48" viewBox="0 0 48 48" fill="none" xmlns="http://www.w3.org/2000/svg">
  <defs>
    <clipPath id="clip0_1031_2000">
      <rect width="48" height="48" fill="white" />
    </clipPath>
  </defs>
  <g clip-path="url(#clip0_1031_2000)">
    <path
      d="M19.3153 35.1431L22.008 28.5933H27.8978C30.0585 28.5933 31.9638 27.0519 32.2846 24.9151C32.378 24.2968 32.3371 23.6656 32.1646 23.0646C31.9921 22.4635 31.6921 21.9067 31.2849 21.4321C30.8778 20.9574 30.3731 20.5761 29.8053 20.3142C29.2375 20.0522 28.6199 19.9157 27.9946 19.914H8.46629L19.3153 9.06498V13.3103H27.9625C33.1278 13.3103 38.1038 17.4706 38.8453 22.5825C39.0775 24.0921 38.9883 25.6337 38.5836 27.1065C38.1788 28.5792 37.4675 29.9498 36.4964 31.1287C35.5253 32.3075 34.3161 33.268 32.9481 33.9473C31.5801 34.6265 30.0841 35.0092 28.558 35.0702L37.4366 43.9491C42.147 40.6746 45.5287 35.8212 46.9689 30.2682C48.4091 24.7152 47.8126 18.83 45.2875 13.6789C42.7624 8.52781 38.4757 4.45159 33.2041 2.1888C27.9325 -0.0739877 22.0248 -0.373658 16.5513 1.34409C11.0778 3.06183 6.40058 6.68336 3.36719 11.5525C0.333804 16.4216 -0.855133 22.2163 0.0157955 27.8865C0.886724 33.5567 3.75991 38.7274 8.11476 42.4617C12.4696 46.196 18.018 48.247 23.7548 48.2428C26.3045 48.2463 28.8372 47.8283 31.2506 47.0057L19.3153 35.1431Z"
      fill="#59B4D9" />
  </g>
</svg>