<svg width="48" height="48" viewBox="0 0 48 48" fill="none" xmlns="http://www.w3.org/2000/svg">
<path d="M0 6.58595C0 5.71006 0.710997 5 1.58806 5H46.4119C47.289 5 48 5.71006 48 6.58596V41.414C48 42.2899 47.289 43 46.4119 43H1.58806C0.710997 43 0 42.2899 0 41.414V6.58595Z" fill="#3999C6"/>
<path d="M3 19.5507C3 18.6943 3.72673 18 4.62319 18H43.3768C44.2733 18 45 18.6943 45 19.5507V38.4493C45 39.3057 44.2733 40 43.3768 40H4.62319C3.72673 40 3 39.3057 3 38.4493V19.5507Z" fill="#59B4D9"/>
<path fill-rule="evenodd" clip-rule="evenodd" d="M17.7875 22.654C18.0976 22.9637 18.0976 23.4657 17.7875 23.7754L12.3987 29.1571L17.7875 34.5388C18.0976 34.8485 18.0976 35.3506 17.7875 35.6602C17.4774 35.9699 16.9747 35.9699 16.6646 35.6602L10.7143 29.7178C10.4042 29.4082 10.4042 28.9061 10.7143 28.5964L16.6646 22.654C16.9747 22.3443 17.4774 22.3443 17.7875 22.654Z" fill="white"/>
<path fill-rule="evenodd" clip-rule="evenodd" d="M29.3843 35.66C29.0743 35.3503 29.0743 34.8482 29.3843 34.5385L34.7732 29.1569L29.3843 23.7752C29.0742 23.4655 29.0742 22.9634 29.3843 22.6537C29.6944 22.3441 30.1972 22.3441 30.5073 22.6537L36.4575 28.5961C36.7676 28.9058 36.7676 29.4079 36.4575 29.7176L30.5073 35.66C30.1972 35.9697 29.6944 35.9697 29.3843 35.66Z" fill="white"/>
<path fill-rule="evenodd" clip-rule="evenodd" d="M26.3224 20.5417C26.7393 20.6774 26.9671 21.125 26.8312 21.5414L21.6993 37.2641C21.5634 37.6805 21.1152 37.908 20.6983 37.7723C20.2814 37.6366 20.0535 37.189 20.1895 36.7726L25.3213 21.0499C25.4572 20.6335 25.9054 20.406 26.3224 20.5417Z" fill="white"/>
<path d="M0 6.59494C0 5.71408 0.710997 5 1.58806 5H46.4119C47.289 5 48 5.71408 48 6.59494V7.56459V15H0V7.56459V6.59494Z" fill="#0072C6"/>
<path d="M19 10C19 11.1046 18.1046 12 17 12C15.8954 12 15 11.1046 15 10C15 8.89543 15.8954 8 17 8C18.1046 8 19 8.89543 19 10Z" fill="white"/>
<path d="M13 10C13 11.1046 12.1046 12 11 12C9.89543 12 9 11.1046 9 10C9 8.89543 9.89543 8 11 8C12.1046 8 13 8.89543 13 10Z" fill="white"/>
<path d="M7 10C7 11.1046 6.10457 12 5 12C3.89543 12 3 11.1046 3 10C3 8.89543 3.89543 8 5 8C6.10457 8 7 8.89543 7 10Z" fill="white"/>
</svg>
