<svg width="48" height="48" viewBox="0 0 48 48" fill="none" xmlns="http://www.w3.org/2000/svg">
<rect width="48" height="48" rx="4" fill="#144A34"/>
<path fill-rule="evenodd" clip-rule="evenodd" d="M26.5766 6H20.6904V14.9756C19.8108 14.7463 19.0847 14.6701 18.1291 14.6701C11.9754 14.6701 8 18.5686 8 24.5697C8 30.8004 11.7458 34.0488 18.932 34.0493C21.3402 34.0493 23.5572 33.8198 26.5766 33.2465V6ZM18.7027 19.4094C19.4291 19.4094 20.0024 19.4859 20.6904 19.715V29.1566C19.8496 29.2713 19.3142 29.3093 18.6645 29.3093C15.6448 29.3093 14.0011 27.5893 14.0011 24.4548C14.0011 21.2443 15.7213 19.4094 18.7027 19.4094ZM35.9408 28.736V15.0906H30.0546V26.7104C30.0546 31.8321 29.7868 33.7819 28.9457 35.4633C28.1431 37.1075 26.8818 38.1775 24.2826 39.4008L29.7486 42C32.3476 40.7 33.6091 39.5154 34.5649 37.6421C35.5966 35.6929 35.9408 33.4376 35.9408 28.736ZM35.9408 6.03164H30.0546V12.071H35.9408V6.03164Z" fill="white"/>
</svg>
