<svg width="48" height="48" viewBox="0 0 48 48" fill="none" xmlns="http://www.w3.org/2000/svg">
<path fill-rule="evenodd" clip-rule="evenodd" d="M3.53033 2.46967C3.23744 2.17678 2.76256 2.17678 2.46967 2.46967C2.17678 2.76256 2.17678 3.23744 2.46967 3.53033L6.49635 7.55701C1.22464 13.3277 0.867498 21.9272 6.02077 27.0805L9.74224 30.8019C10.0351 31.0948 10.51 31.0948 10.8029 30.8019L15.7273 25.8776L19.1149 29.2653C19.4078 29.5582 19.8827 29.5582 20.1756 29.2653C20.4685 28.9724 20.4685 28.4975 20.1756 28.2046L16.7879 24.8169L24.8181 16.7868L28.2057 20.1744C28.4986 20.4673 28.9735 20.4673 29.2664 20.1744C29.5593 19.8815 29.5593 19.4067 29.2664 19.1138L25.8787 15.7261L30.8026 10.8023C31.0954 10.5094 31.0954 10.0345 30.8026 9.74164L27.0811 6.02017C21.9276 0.866706 13.3277 1.22406 7.55699 6.49633L3.53033 2.46967ZM8.05706 8.09373C8.06335 8.08785 8.06957 8.08184 8.0757 8.0757C8.08185 8.06956 8.08787 8.06333 8.09375 8.05703C13.3774 2.79084 21.3958 2.45623 26.0204 7.08083L29.2116 10.272L10.2726 29.211L7.08143 26.0198C2.45701 21.3954 2.79142 13.3774 8.05706 8.09373ZM39.7299 39.7543L39.7417 39.7422L39.7539 39.7303C45.0257 34.4467 45.3623 26.424 40.736 21.7977L37.5449 18.6066L18.6059 37.5455L21.797 40.7367C26.4234 45.3631 34.4463 45.0264 39.7299 39.7543ZM40.2603 41.3214C34.4895 46.5935 25.8898 46.9508 20.7363 41.7973L17.0149 38.0759C16.722 37.783 16.722 37.3081 17.0149 37.0152L37.0145 17.0156C37.3074 16.7227 37.7823 16.7227 38.0752 17.0156L41.7967 20.737C46.95 25.8904 46.5928 34.4899 41.3209 40.2607L45.3478 44.2875C45.6407 44.5804 45.6407 45.0553 45.3478 45.3482C45.0549 45.6411 44.58 45.6411 44.2871 45.3482L40.2603 41.3214Z" fill="#03020D"/>
</svg>
