<svg width="48" height="48" viewBox="0 0 48 48" fill="none" xmlns="http://www.w3.org/2000/svg">
<path d="M30.4179 47.9218C29.9467 48.1296 29.3924 47.9079 29.1984 47.4367L28.3669 45.5243C28.159 45.0531 28.3808 44.4988 28.8519 44.3048C29.3231 44.0969 29.8775 44.3186 30.0715 44.7898L30.903 46.7022C31.097 47.1734 30.8891 47.7277 30.4179 47.9218Z" fill="#F3555F"/>
<path d="M11.1827 15.6323C11.0164 14.9394 11.4322 14.6899 11.9726 14.4682C15.4788 12.9992 18.9849 11.5164 22.4772 10.0197C23.0177 9.7841 23.3225 9.88111 23.6967 10.3107C27.9235 15.1334 31.1663 20.5381 33.5638 26.4833C34.6447 29.1579 35.795 31.8048 36.9313 34.4518C37.2224 35.1308 37.3748 35.8237 37.0561 36.5166C36.7096 37.2927 36.1137 37.75 35.2406 37.8055C34.3121 37.8747 33.6192 37.5006 33.1619 36.7107C32.9402 36.3365 32.8016 35.9069 32.6076 35.5188C32.275 34.8814 31.6375 34.6458 31.0416 34.9229C30.4873 35.1862 30.2378 35.8099 30.4873 36.4473C30.9584 37.6253 31.4573 38.7894 31.9562 39.9535C32.0255 40.1198 32.1225 40.2861 32.1641 40.4662C32.2888 41.0067 32.1225 41.4225 31.5821 41.6442C31.0554 41.8659 30.6674 41.6165 30.418 41.1869C30.1685 40.7434 30.0022 40.2584 29.7943 39.801C29.5449 39.2883 29.1291 39.0666 28.6025 39.3021C28.0898 39.5239 28.0343 39.9951 28.2145 40.4801C28.3669 40.8958 28.561 41.2839 28.7134 41.6996C28.949 42.3371 28.755 42.8637 28.2145 43.0716C27.7156 43.2656 27.2028 43.0439 26.9395 42.4341C26.4406 41.3116 25.9833 40.1891 25.4983 39.0666C25.4151 38.8725 25.3458 38.6785 25.235 38.4984C24.8885 37.9302 24.3065 37.7362 23.7521 37.9995C23.1978 38.2489 22.9207 38.831 23.1008 39.4407C23.1978 39.7733 23.3641 40.0782 23.4888 40.3969C23.9739 41.6996 23.5166 42.9053 22.3525 43.3903C21.1884 43.8754 19.9827 43.321 19.4284 42.0461C18.9433 40.9236 18.4583 39.801 18.001 38.6647C16.5597 35.117 15.0353 31.6108 13.7326 28.0077C12.43 24.4323 11.7371 20.6905 11.3629 16.8934C11.3074 16.4915 11.2382 16.0619 11.1827 15.6323ZM17.0586 17.032C17.0448 18.2653 18.0148 19.277 19.2066 19.2631C20.3707 19.2493 21.3408 18.2653 21.3408 17.0874C21.3408 15.8817 20.4123 14.9116 19.2205 14.8978C18.0426 14.8839 17.0725 15.8401 17.0586 17.032ZM23.5581 22.3674C23.572 21.134 22.6851 20.1916 21.4794 20.1639C20.2737 20.1362 19.3037 21.0508 19.2759 22.2427C19.2482 23.5176 20.1351 24.46 21.3824 24.4738C22.6019 24.4877 23.5443 23.573 23.5581 22.3674ZM25.7754 27.6058C25.7893 26.3724 24.9024 25.43 23.6967 25.4162C22.4356 25.3885 21.4933 26.3031 21.4933 27.5504C21.4933 28.7837 22.3802 29.6984 23.5997 29.6984C24.8469 29.7122 25.7616 28.8253 25.7754 27.6058Z" fill="#F3555F"/>
<path d="M32.4551 44.6789C31.9562 44.6373 31.5405 44.1384 31.5959 43.6118C31.6375 43.1268 32.1225 42.6972 32.5798 42.7249C33.0649 42.7526 33.5222 43.2654 33.4806 43.7643C33.4529 44.2909 32.9679 44.7205 32.4551 44.6789Z" fill="#F3555F"/>
<path d="M11.058 12.9575C10.864 8.53667 11.155 4.32377 11.9588 0C15.6451 2.38362 18.8463 5.16912 21.909 8.34266C18.292 9.88092 14.7581 11.3915 11.058 12.9575Z" fill="#F3555F"/>
</svg>
