<svg width="48" height="48" viewBox="0 0 48 48" fill="none" xmlns="http://www.w3.org/2000/svg">
<path d="M45.5 33.6V11.2L26.1 0V8.6L33.7 13C34 13.2 34 13.6 33.7 13.7L24.7 18.9C24.4 19.1 24.1 19 23.9 18.9L14.9 13.7C14.6 13.6 14.6 13.1 14.9 13L22.5 8.6V0L3 11.2V33.6V33.5V33.6L10.4 29.3V20.5C10.4 20.2 10.8 20 11 20.1L20 25.3C20.3 25.5 20.4 25.7 20.4 26V36.4C20.4 36.7 20 36.9 19.8 36.8L12.2 32.4L4.8 36.7L24.2 48L43.6 36.8L36.2 32.5L28.6 36.9C28.3 37.1 28 36.9 28 36.5V26.1C28 25.8 28.2 25.5 28.4 25.4L37.4 20.2C37.7 20 38 20.2 38 20.6V29.4L45.5 33.6Z" fill="#4C4C4C"/>
<path d="M24.2002 48.0002L43.6002 36.8002L36.2002 32.5002L28.6002 36.9002C28.3002 37.1002 28.0002 36.9002 28.0002 36.5002V26.1002C28.0002 25.8002 28.2002 25.5002 28.4002 25.4002L37.4002 20.2002C37.7002 20.0002 38.0002 20.2002 38.0002 20.6002V29.4002L45.4002 33.7002V11.2002L24.2002 23.5002V48.0002Z" fill="black"/>
<path d="M26.1 0V8.6L33.7 13C34 13.2 34 13.6 33.7 13.7L24.7 18.9C24.4 19.1 24.1 19 23.9 18.9L14.9 13.7C14.6 13.6 14.6 13.1 14.9 13L22.5 8.6V0L3 11.2L24.2 23.5L45.4 11.2L26.1 0Z" fill="#808080"/>
<path d="M19.9 36.9002L12.3 32.5002L4.9 36.8002L24.3 48.0002V23.5002L3 11.2002V33.6002V33.5002V33.6002L10.4 29.3002V20.5002C10.4 20.2002 10.8 20.0002 11 20.1002L20 25.3002C20.3 25.5002 20.4 25.7002 20.4 26.0002V36.4002C20.5 36.8002 20.2 37.1002 19.9 36.9002Z" fill="#4C4C4C"/>
</svg>
