<svg width="48" height="48" viewBox="0 0 48 48" fill="none" xmlns="http://www.w3.org/2000/svg">
<path d="M39.9 29.3904C39.9 35.1654 35.2219 39.8436 29.4469 39.8436H18.5531C12.7781 39.8436 8.1 35.1654 8.1 29.3904V25.6592H1.78125V29.9436C1.78125 38.8779 9.02813 46.1248 17.9625 46.1248H30.0375C38.9719 46.1248 46.2188 38.8779 46.2188 29.9436V25.6592H39.9V29.3904Z" fill="#FF0099"/>
<path d="M8.1 18.7031C8.1 12.9281 12.7781 8.25 18.5531 8.25H29.4469C35.2219 8.25 39.9 12.9281 39.9 18.7031V22.5469H46.2188V18.15C46.2188 9.21563 38.9719 1.96875 30.0375 1.96875H17.9625C9.02813 1.96875 1.78125 9.21563 1.78125 18.15V22.5469H8.1V18.7031Z" fill="#FF0099"/>
<path d="M30.2813 11.4941V28.9879C30.2813 29.8223 29.6063 30.4973 28.7719 30.4973C27.9375 30.4973 27.2625 29.8223 27.2625 28.9879V22.5473H20.7375V28.9879C20.7375 29.8223 20.0625 30.4973 19.2281 30.4973C18.3938 30.4973 17.7188 29.8223 17.7188 28.9879V11.4941C14.0531 12.1035 11.2594 15.2816 11.2594 19.116V28.9785C11.2594 33.2441 14.7188 36.7035 18.9844 36.7035H19.5281C20.5781 36.7035 21.5719 36.4973 22.4813 36.1129C23.0156 35.8879 23.5219 35.6066 23.9906 35.2785C24.4594 35.6066 24.9656 35.8879 25.5 36.1129C26.4094 36.4879 27.4125 36.7035 28.4531 36.7035H28.9969C33.2625 36.7035 36.7219 33.2441 36.7219 28.9785V19.116C36.7406 15.2816 33.9469 12.1035 30.2813 11.4941Z" fill="#FF0099"/>
</svg>
