<svg width="48" height="48" viewBox="0 0 48 48" fill="none" xmlns="http://www.w3.org/2000/svg">
  <defs>
    <clipPath id="clip0_1703_106">
      <rect width="48" height="48" fill="white" />
    </clipPath>
  </defs>
  <g clip-path="url(#clip0_1703_106)">
    <path fill-rule="evenodd" clip-rule="evenodd"
      d="M44 2H4C2.89543 2 2 2.89543 2 4V44C2 45.1046 2.89543 46 4 46H44C45.1046 46 46 45.1046 46 44V4C46 2.89543 45.1046 2 44 2ZM4 0C1.79086 0 0 1.79086 0 4V44C0 46.2091 1.79086 48 4 48H44C46.2091 48 48 46.2091 48 44V4C48 1.79086 46.2091 0 44 0H4Z"
      fill="#03020D" />
    <path
      d="M16.9882 33C15.2602 33 13.7802 32.624 12.5482 31.872C11.3162 31.112 10.3682 30.056 9.70421 28.704C9.04821 27.352 8.72021 25.784 8.72021 24C8.72021 22.216 9.04821 20.648 9.70421 19.296C10.3682 17.944 11.3162 16.892 12.5482 16.14C13.7802 15.38 15.2602 15 16.9882 15C18.9802 15 20.6402 15.5 21.9682 16.5C23.2962 17.492 24.2282 18.832 24.7642 20.52L21.8482 21.324C21.5122 20.196 20.9402 19.316 20.1322 18.684C19.3242 18.044 18.2762 17.724 16.9882 17.724C15.8282 17.724 14.8602 17.984 14.0842 18.504C13.3162 19.024 12.7362 19.756 12.3442 20.7C11.9602 21.636 11.7642 22.736 11.7562 24C11.7562 25.264 11.9482 26.368 12.3322 27.312C12.7242 28.248 13.3082 28.976 14.0842 29.496C14.8602 30.016 15.8282 30.276 16.9882 30.276C18.2762 30.276 19.3242 29.956 20.1322 29.316C20.9402 28.676 21.5122 27.796 21.8482 26.676L24.7642 27.48C24.2282 29.168 23.2962 30.512 21.9682 31.512C20.6402 32.504 18.9802 33 16.9882 33Z"
      fill="black" />
    <path
      d="M29.2428 27.1768V24.6543H26.7202V23.5089H29.2428V21H30.3881V23.5089H32.9039V24.6543H30.3881V27.1768H29.2428Z"
      fill="black" />
    <path
      d="M37.0591 27.1768V24.6543H34.5366V23.5089H37.0591V21H38.2045V23.5089H40.7202V24.6543H38.2045V27.1768H37.0591Z"
      fill="black" />
  </g>
</svg>