<svg width="48" height="48" viewBox="0 0 48 48" fill="none" xmlns="http://www.w3.org/2000/svg">
  <defs>
    <clipPath id="clip0_1031_1922">
      <rect width="48" height="48" fill="white" />
    </clipPath>
  </defs>
  <g clip-path="url(#clip0_1031_1922)">
    <path
      d="M46 0H2C0.895431 0 0 0.895432 0 2V46C0 47.1046 0.895432 48 2 48H46C47.1046 48 48 47.1046 48 46V2C48 0.895431 47.1046 0 46 0Z"
      fill="#F7DF1E" />
    <path
      d="M32.2438 37.5003C33.2107 39.079 34.4686 40.2394 36.6933 40.2394C38.5623 40.2394 39.7562 39.3053 39.7562 38.0146C39.7562 36.4679 38.5295 35.9201 36.4724 35.0203L35.3448 34.5365C32.0899 33.1498 29.9276 31.4127 29.9276 27.7403C29.9276 24.3575 32.5052 21.7822 36.5333 21.7822C39.4012 21.7822 41.4629 22.7803 42.9486 25.3937L39.4362 27.6489C38.6629 26.2622 37.8286 25.7159 36.5333 25.7159C35.2122 25.7159 34.3749 26.554 34.3749 27.6489C34.3749 29.002 35.213 29.5498 37.1482 30.3879L38.2758 30.871C42.1082 32.5144 44.272 34.1898 44.272 37.9567C44.272 42.0177 41.0819 44.2424 36.7977 44.2424C32.6088 44.2424 29.9025 42.2462 28.5783 39.6298L32.2438 37.5003ZM16.3101 37.8912C17.0187 39.1483 17.6633 40.2112 19.213 40.2112C20.6949 40.2112 21.6297 39.6314 21.6297 37.3769V22.0397H26.1402V37.4378C26.1402 42.1083 23.4019 44.234 19.405 44.234C15.7935 44.234 13.7021 42.3651 12.6385 40.114L16.3101 37.8912Z"
      fill="black" />
  </g>
</svg>