<svg width="48" height="48" viewBox="0 0 48 48" fill="none" xmlns="http://www.w3.org/2000/svg">
  <defs>
    <linearGradient id="paint0_linear_2566_117" x1="24.001" y1="14.4019" x2="24.001" y2="40.8846"
      gradientUnits="userSpaceOnUse">
      <stop stop-color="#F9CA96" />
      <stop offset="0.447917" stop-color="#F5569F" />
      <stop offset="1" stop-color="#5F24B1" />
    </linearGradient>
    <linearGradient id="paint1_linear_2566_117" x1="24.001" y1="6.24023" x2="24.001" y2="32.723"
      gradientUnits="userSpaceOnUse">
      <stop stop-color="#F9CA96" />
      <stop offset="0.447917" stop-color="#F5569F" />
      <stop offset="1" stop-color="#5F24B1" />
    </linearGradient>
    <clipPath id="clip0_2566_117">
      <rect width="48" height="48" fill="white" />
    </clipPath>
  </defs>
  <g clip-path="url(#clip0_2566_117)">
    <path
      d="M16.3464 34.3902L16.3434 34.3884L16.3403 34.3868L0.593066 25.9778C0.437013 25.8945 0.43228 25.6725 0.584632 25.5826L15.5464 16.7531C15.5467 16.7529 15.5471 16.7527 15.5474 16.7525C17.9854 15.3487 21.1653 14.6215 24.3367 14.5904C27.5091 14.5593 30.6481 15.2249 33.0051 16.5806C34.6154 17.5089 35.642 18.6302 36.1225 19.7977C36.6011 20.9604 36.5467 22.1883 35.9607 23.3601C35.7417 23.7979 36.002 24.3938 36.5414 24.4268L47.2914 25.0836C47.5176 25.0974 47.5861 25.3978 47.3879 25.508L23.8642 38.5948C23.7946 38.6335 23.7097 38.6329 23.6407 38.5931L17.8218 35.2377L16.3464 34.3902Z"
      fill="url(#paint0_linear_2566_117)" />
    <path
      d="M24.3339 14.4029C21.1312 14.4343 18.0278 15.164 15.646 16.481L15.4524 16.5903L0.488362 25.4211C0.209999 25.5854 0.218652 25.991 0.503801 26.1432L16.253 34.5533L17.7278 35.4005L23.5461 38.7555C23.6721 38.8282 23.8271 38.8294 23.9543 38.7587L47.4781 25.6718C47.8401 25.4706 47.7151 24.9216 47.3018 24.8964L36.5518 24.2397C36.1735 24.2165 35.956 23.7866 36.1274 23.444C36.7368 22.2254 36.7948 20.9409 36.295 19.7263C35.7806 18.4766 34.6924 17.3374 33.0976 16.4181C30.7672 15.0777 27.6239 14.3707 24.3339 14.4029ZM0.678953 25.7441L15.6303 16.9202C17.9878 15.5631 21.1094 14.8096 24.3376 14.7779C27.5646 14.7463 30.6425 15.4386 32.9105 16.743C34.4375 17.6233 35.4678 18.7019 35.9482 19.8691C36.4063 20.9823 36.3535 22.1536 35.792 23.2762C35.505 23.8501 35.871 24.5738 36.5289 24.614L47.2789 25.2707C47.3183 25.2731 47.3301 25.3251 47.2958 25.3441L23.7721 38.4309C23.76 38.4376 23.7453 38.4375 23.7334 38.4307L17.9135 35.0748L16.429 34.2221L0.68041 25.8124C0.653425 25.798 0.652606 25.7596 0.678953 25.7441Z"
      fill="#3F2BB4" />
    <path fill-rule="evenodd" clip-rule="evenodd"
      d="M47.0961 25.4195C47.3986 25.2472 47.774 25.4655 47.774 25.8135V27.207C47.774 27.3672 47.6897 27.5154 47.5518 27.5971L23.9186 41.6077C23.7759 41.6924 23.5982 41.6922 23.4555 41.6073L0.448893 27.9111C0.311562 27.8293 0.227417 27.6813 0.227417 27.5214V26.1286C0.227417 25.7804 0.603657 25.5621 0.905932 25.735L23.4622 38.6351C23.6015 38.7147 23.7725 38.7148 23.9119 38.6354L47.0961 25.4195Z"
      fill="white" />
    <path
      d="M48 27.207V25.8134H47.5466V27.207H48ZM24.0336 41.8027L47.6667 27.7921L47.4355 27.402L23.8024 41.4127L24.0336 41.8027ZM23.5707 41.4125L0.564154 27.7162L0.332218 28.1058L23.3388 41.8021L23.5707 41.4125ZM0.453416 27.5214V26.1286H0V27.5214H0.453416ZM0.792676 25.9317L23.349 38.8318L23.5741 38.4383L1.01777 25.5382L0.792676 25.9317ZM46.9834 25.2226L23.7989 38.4384L24.0234 38.8323L47.2079 25.6165L46.9834 25.2226ZM23.349 38.8318C23.5579 38.9513 23.8144 38.9515 24.0234 38.8323L23.7989 38.4384C23.7292 38.4781 23.6437 38.4781 23.5741 38.4383L23.349 38.8318ZM0.453416 26.1286C0.453416 25.9545 0.641539 25.8453 0.792676 25.9317L1.01777 25.5382C0.564363 25.2789 0 25.6062 0 26.1286H0.453416ZM0.564154 27.7162C0.495489 27.6754 0.453416 27.6013 0.453416 27.5214H0C0 27.7611 0.126218 27.9832 0.332218 28.1058L0.564154 27.7162ZM23.8024 41.4127C23.7309 41.455 23.6421 41.4549 23.5707 41.4125L23.3388 41.8021C23.5528 41.9294 23.8193 41.9297 24.0336 41.8027L23.8024 41.4127ZM48 25.8134C48 25.2916 47.4369 24.9641 46.9834 25.2226L47.2079 25.6165C47.3589 25.5303 47.5466 25.6395 47.5466 25.8134H48ZM47.5466 27.207C47.5466 27.2871 47.5044 27.3612 47.4355 27.402L47.6667 27.7921C47.8735 27.6696 48 27.4472 48 27.207H47.5466Z"
      fill="#3F2BB4" />
    <path
      d="M16.3464 26.2286L16.3434 26.2268L16.3403 26.2252L0.593066 17.8162C0.437013 17.7329 0.43228 17.5109 0.584632 17.421L15.5464 8.59149C15.5467 8.59129 15.5471 8.59109 15.5474 8.59089C17.9854 7.18707 21.1653 6.45987 24.3367 6.42878C27.5091 6.39767 30.6481 7.0633 33.0051 8.41894C34.6154 9.34723 35.642 10.4685 36.1225 11.6361C36.6011 12.7988 36.5467 14.0267 35.9607 15.1985C35.7417 15.6363 36.002 16.2322 36.5414 16.2652L47.2914 16.922C47.5176 16.9357 47.5861 17.2362 47.3879 17.3464L23.8642 30.4332C23.7946 30.4719 23.7097 30.4713 23.6407 30.4314L17.8218 27.0761L16.3464 26.2286Z"
      fill="url(#paint1_linear_2566_117)" />
    <path
      d="M24.3339 6.24129C21.1312 6.27269 18.0278 7.00232 15.6445 8.32026L15.4456 8.43275L0.488362 17.2595C0.209999 17.4238 0.218652 17.8294 0.503801 17.9816L16.253 26.3917L17.7278 27.2389L23.5461 30.5939C23.6721 30.6666 23.8271 30.6678 23.9543 30.5971L47.4781 17.5102C47.8401 17.3089 47.7151 16.76 47.3018 16.7348L36.5518 16.078C36.1735 16.0549 35.956 15.6249 36.1274 15.2824C36.7368 14.0638 36.7948 12.7793 36.295 11.5647C35.7806 10.315 34.6924 9.17574 33.0976 8.25642C30.7671 6.91604 27.6239 6.20904 24.3339 6.24129ZM0.678953 17.5825L15.6368 8.75518C17.9878 7.40147 21.1094 6.64792 24.3376 6.61627C27.5645 6.58464 30.6425 7.27695 32.9105 8.58139C34.4375 9.46165 35.4678 10.5403 35.9482 11.7075C36.4063 12.8206 36.3535 13.992 35.792 15.1146C35.505 15.6885 35.871 16.4121 36.5289 16.4523L47.2789 17.1091C47.3183 17.1115 47.3301 17.1635 47.2958 17.1825L23.7721 30.2693C23.76 30.276 23.7453 30.2759 23.7334 30.269L17.9135 26.9132L16.429 26.0605L0.68041 17.6508C0.653425 17.6364 0.652606 17.598 0.678953 17.5825Z"
      fill="#3F2BB4" />
    <path fill-rule="evenodd" clip-rule="evenodd"
      d="M47.0961 17.2579C47.3986 17.0856 47.774 17.3039 47.774 17.6519V19.0454C47.774 19.2056 47.6897 19.3538 47.5518 19.4355L23.9186 33.4461C23.7759 33.5308 23.5982 33.5306 23.4555 33.4457L0.448893 19.7494C0.311562 19.6677 0.227417 19.5197 0.227417 19.3598V17.967C0.227417 17.6188 0.603657 17.4005 0.905932 17.5734L23.4622 30.4735C23.6015 30.5531 23.7725 30.5532 23.9119 30.4738L47.0961 17.2579Z"
      fill="white" />
    <path
      d="M48 19.0459V17.6523H47.5466V19.0459H48ZM24.0336 33.6416L47.6667 19.6309L47.4355 19.2409L23.8024 33.2516L24.0336 33.6416ZM23.5707 33.2513L0.564154 19.5551L0.332218 19.9447L23.3388 33.6409L23.5707 33.2513ZM0.453416 19.3603V17.9674H0V19.3603H0.453416ZM0.792676 17.7706L23.349 30.6707L23.5741 30.2771L1.01777 17.377L0.792676 17.7706ZM46.9834 17.0615L23.7989 30.2773L24.0234 30.6712L47.2079 17.4553L46.9834 17.0615ZM23.349 30.6707C23.5579 30.7902 23.8144 30.7904 24.0234 30.6712L23.7989 30.2773C23.7292 30.317 23.6437 30.317 23.5741 30.2771L23.349 30.6707ZM0.453416 17.9674C0.453416 17.7933 0.641539 17.6842 0.792676 17.7706L1.01777 17.377C0.564363 17.1177 0 17.4451 0 17.9674H0.453416ZM0.564154 19.5551C0.495489 19.5142 0.453416 19.4402 0.453416 19.3603H0C0 19.6 0.126218 19.822 0.332218 19.9447L0.564154 19.5551ZM23.8024 33.2516C23.7309 33.2939 23.6421 33.2938 23.5707 33.2513L23.3388 33.6409C23.5528 33.7683 23.8193 33.7686 24.0336 33.6416L23.8024 33.2516ZM48 17.6523C48 17.1304 47.4369 16.803 46.9834 17.0615L47.2079 17.4553C47.3589 17.3692 47.5466 17.4783 47.5466 17.6523H48ZM47.5466 19.0459C47.5466 19.126 47.5044 19.2001 47.4355 19.2409L47.6667 19.6309C47.8735 19.5085 48 19.2861 48 19.0459H47.5466Z"
      fill="#3F2BB4" />
  </g>
</svg>