<svg width="48" height="48" viewBox="0 0 48 48" fill="none" xmlns="http://www.w3.org/2000/svg">
  <defs>
    <clipPath id="clip0_1031_1948">
      <rect width="48" height="48" fill="white" />
    </clipPath>
  </defs>
  <g clip-path="url(#clip0_1031_1948)">
    <path
      d="M24.5102 46.9999C24.5102 47.5521 24.0624 47.9999 23.5102 47.9999H23.49C22.9377 47.9999 22.49 47.5521 22.49 46.9998L22.49 36.8786L18.7071 40.6614C18.3166 41.052 17.6834 41.052 17.2929 40.6614L17.2728 40.6413C16.8822 40.2508 16.8822 39.6176 17.2728 39.2271L22.793 33.707C23.1835 33.3164 23.8166 33.3164 24.2072 33.707L29.7929 39.2927C30.1834 39.6833 30.1834 40.3164 29.7929 40.707L29.7728 40.7271C29.3823 41.1176 28.7491 41.1176 28.3586 40.7271L24.5102 36.8786L24.5102 46.9999Z"
      fill="#03020D" />
    <path fill-rule="evenodd" clip-rule="evenodd"
      d="M44 17H4C2.89543 17 2 17.8954 2 19V27C2 28.1046 2.89543 29 4 29H44C45.1046 29 46 28.1046 46 27V19C46 17.8954 45.1046 17 44 17ZM4 15C1.79086 15 0 16.7909 0 19V27C0 29.2091 1.79086 31 4 31H44C46.2091 31 48 29.2091 48 27V19C48 16.7909 46.2091 15 44 15H4Z"
      fill="#03020D" />
    <path
      d="M38 23C38 21.9091 38.9091 21 40 21C41.0909 21 42 21.9091 42 23C42 24.0909 41.0909 25 40 25C38.9091 25 38 24.0909 38 23Z"
      fill="#03020D" />
    <path
      d="M33 23C33 21.9091 33.9091 21 35 21C36.0909 21 37 21.9091 37 23C37 24.0909 36.0909 25 35 25C33.9091 25 33 24.0909 33 23Z"
      fill="#03020D" />
    <path fill-rule="evenodd" clip-rule="evenodd"
      d="M11 20C11.5523 20 12 20.4477 12 21L12 25C12 25.5523 11.5523 26 11 26C10.4477 26 10 25.5523 10 25L10 21C10 20.4477 10.4477 20 11 20Z"
      fill="#03020D" />
    <path fill-rule="evenodd" clip-rule="evenodd"
      d="M7 20C7.55228 20 8 20.4477 8 21L8 25C8 25.5523 7.55228 26 7 26C6.44772 26 6 25.5523 6 25L6 21C6 20.4477 6.44772 20 7 20Z"
      fill="#03020D" />
    <path
      d="M41.0057 10.9999C41.0057 11.5521 40.558 11.9999 40.0057 11.9999H39.9855C39.4332 11.9999 38.9855 11.5521 38.9855 10.9998L38.9855 3.87864L36.5713 6.29273C36.1808 6.68325 35.5477 6.68324 35.1571 6.29272L35.137 6.27259C34.7465 5.88206 34.7465 5.24889 35.137 4.85837L39.2885 0.706951C39.679 0.31643 40.3122 0.316433 40.7027 0.706959L44.8541 4.85837C45.2446 5.24889 45.2446 5.88205 44.8541 6.27258L44.8339 6.29271C44.4434 6.68323 43.8103 6.68323 43.4197 6.2927L41.0057 3.87864L41.0057 10.9999Z"
      fill="#03020D" />
    <path
      d="M25.0057 10.9999C25.0057 11.5521 24.558 11.9999 24.0057 11.9999H23.9855C23.4332 11.9999 22.9855 11.5521 22.9855 10.9998L22.9855 3.87864L20.5713 6.29273C20.1808 6.68325 19.5477 6.68324 19.1571 6.29272L19.137 6.27259C18.7465 5.88206 18.7465 5.24889 19.137 4.85837L23.2885 0.706951C23.679 0.31643 24.3122 0.316433 24.7027 0.706959L28.8541 4.85837C29.2446 5.24889 29.2446 5.88205 28.8541 6.27258L28.8339 6.29271C28.4434 6.68323 27.8103 6.68323 27.4197 6.2927L25.0057 3.87864L25.0057 10.9999Z"
      fill="#03020D" />
    <path
      d="M9.00569 10.9999C9.00569 11.5521 8.55798 11.9999 8.00569 11.9999H7.98549C7.4332 11.9999 6.98549 11.5521 6.98549 10.9998L6.9855 3.87864L4.57135 6.29273C4.18082 6.68325 3.54766 6.68324 3.15714 6.29272L3.13701 6.27259C2.74648 5.88206 2.74649 5.24889 3.13701 4.85837L7.28849 0.706951C7.67902 0.31643 8.31219 0.316433 8.70271 0.706959L12.8541 4.85837C13.2446 5.24889 13.2446 5.88205 12.8541 6.27258L12.8339 6.29271C12.4434 6.68323 11.8103 6.68323 11.4197 6.2927L9.00571 3.87864L9.00569 10.9999Z"
      fill="#03020D" />
  </g>
</svg>