<svg width="48" height="48" viewBox="0 0 48 48" fill="none" xmlns="http://www.w3.org/2000/svg">
<path fill-rule="evenodd" clip-rule="evenodd" d="M36.2784 32.5215C36.1682 32.2947 36.1229 32.1781 36.0646 32.068C34.5095 29.1134 32.961 26.1653 31.393 23.2173C31.2375 22.9192 31.2569 22.7443 31.4707 22.4916C33.9394 19.6083 36.395 16.712 38.8571 13.8158C38.9414 13.7121 39.0191 13.6084 39.0515 13.427L36.8939 13.9907C33.907 14.7812 30.9265 15.5717 27.946 16.3686C27.6674 16.4399 27.5443 16.3622 27.4017 16.1289C25.7042 13.2974 24.0066 10.4725 22.3025 7.6475C22.2118 7.49847 22.1211 7.35593 21.9332 7.23282C21.7972 7.98442 21.6546 8.7425 21.525 9.4941L20.1061 17.4831C20.0542 17.7682 19.983 18.0597 19.957 18.3448C19.9311 18.6169 19.7951 18.7206 19.5424 18.7984C16.0241 19.8998 12.5123 21.0143 9.00054 22.1287C8.84504 22.1806 8.69601 22.2389 8.52755 22.3879C11.4044 23.5283 14.2747 24.6751 17.1969 25.8349C17.0932 25.9191 17.0219 25.9839 16.9442 26.0357C15.1494 27.1955 13.3481 28.3553 11.5534 29.5281C11.3396 29.6706 11.1711 29.6901 10.9249 29.5799C8.78024 28.6145 6.62264 27.6685 4.47151 26.7031C3.5061 26.2755 2.63787 25.6988 1.96402 24.8759C0.434909 23.0034 0.739436 20.8782 2.77394 19.5824C3.4413 19.1547 4.19938 18.8372 4.95098 18.591C8.39797 17.4701 11.8514 16.3881 15.3049 15.2995C15.5965 15.2088 15.7261 15.0793 15.7844 14.7682C16.2444 12.1053 16.7239 9.44226 17.2033 6.77927C17.4625 5.35382 17.5986 3.89598 18.2919 2.59364C18.5575 2.09474 18.875 1.60231 19.2573 1.18116C20.6309 -0.34148 22.5423 -0.399794 23.9936 1.05157C24.4861 1.544 24.9072 2.12065 25.2701 2.71027C26.8704 5.31495 28.4384 7.93906 30.0064 10.5632C30.1878 10.8742 30.3563 10.939 30.6997 10.8418C34.5549 9.81158 38.4101 8.79433 42.2653 7.7706C43.0622 7.56326 43.8656 7.48551 44.682 7.63454C46.4574 7.96498 47.2349 9.31915 46.6388 11.0362C46.3667 11.8202 45.8937 12.4811 45.3624 13.1031C42.6735 16.2714 39.9845 19.4398 37.2827 22.5952C37.0624 22.8544 37.0559 23.0423 37.2114 23.3274C38.8247 26.3662 40.4187 29.405 42.019 32.4502C42.4013 33.1759 42.6929 33.934 42.7058 34.7698C42.7253 36.6683 41.3322 38.2233 39.4468 38.5019C38.3906 38.6574 37.4058 38.4306 36.4145 38.1261C33.9977 37.381 31.5809 36.6424 29.1576 35.9167C28.9309 35.8519 28.8466 35.7612 28.8078 35.5214C28.5291 33.8174 28.2246 32.1198 27.933 30.4158C27.9266 30.3704 27.9395 30.3186 27.946 30.2149C30.6997 30.9795 33.434 31.731 36.2784 32.5215Z" fill="#E25C26"/>
<path fill-rule="evenodd" clip-rule="evenodd" d="M18.6169 26.8792C17.9207 30.6105 17.498 34.6864 17.0066 38.5898C16.9855 38.7217 16.97 38.8503 17.0327 39.0236L18.6194 37.4567C20.8109 35.2786 26.1946 29.9156 26.1946 29.9156L26.9214 35.681C26.9214 35.681 19.9045 42.715 17.0777 45.5291C16.4912 46.1072 15.8343 46.5762 15.0528 46.8553C13.3501 47.4568 11.9996 46.6728 11.6573 44.8878C11.501 44.0728 11.6585 43.2567 11.7293 42.4596C12.0778 38.5403 12.4096 34.5681 13.1718 30.4845" fill="#3D3B3E"/>
</svg>
