<svg width="48" height="48" viewBox="0 0 48 48" fill="none" xmlns="http://www.w3.org/2000/svg">
  <defs>
    <clipPath id="clip0_1031_1954">
      <rect width="48" height="48" fill="white" />
    </clipPath>
  </defs>
  <g clip-path="url(#clip0_1031_1954)">
    <path fill-rule="evenodd" clip-rule="evenodd"
      d="M44 34H4C2.89543 34 2 34.8954 2 36V44C2 45.1046 2.89543 46 4 46H44C45.1046 46 46 45.1046 46 44V36C46 34.8954 45.1046 34 44 34ZM4 32C1.79086 32 0 33.7909 0 36V44C0 46.2091 1.79086 48 4 48H44C46.2091 48 48 46.2091 48 44V36C48 33.7909 46.2091 32 44 32H4Z"
      fill="#03020D" />
    <path
      d="M38 40C38 38.9091 38.9091 38 40 38C41.0909 38 42 38.9091 42 40C42 41.0909 41.0909 42 40 42C38.9091 42 38 41.0909 38 40Z"
      fill="#03020D" />
    <path
      d="M33 40C33 38.9091 33.9091 38 35 38C36.0909 38 37 38.9091 37 40C37 41.0909 36.0909 42 35 42C33.9091 42 33 41.0909 33 40Z"
      fill="#03020D" />
    <path fill-rule="evenodd" clip-rule="evenodd"
      d="M11 37C11.5523 37 12 37.4477 12 38L12 42C12 42.5523 11.5523 43 11 43C10.4477 43 10 42.5523 10 42L10 38C10 37.4477 10.4477 37 11 37Z"
      fill="#03020D" />
    <path fill-rule="evenodd" clip-rule="evenodd"
      d="M7 37C7.55228 37 8 37.4477 8 38L8 42C8 42.5523 7.55228 43 7 43C6.44772 43 6 42.5523 6 42L6 38C6 37.4477 6.44772 37 7 37Z"
      fill="#03020D" />
    <path
      d="M32.9899 13C32.9899 12.4477 33.4376 12 33.9899 12L34.0101 12C34.5624 12 35.0101 12.4477 35.0101 13L35.0101 24.1212L39.8585 19.2728C40.2491 18.8822 40.8822 18.8822 41.2728 19.2728L41.2929 19.2929C41.6834 19.6834 41.6834 20.3166 41.2929 20.7071L34.7071 27.2929C34.3166 27.6834 33.6834 27.6834 33.2929 27.2929L26.7071 20.7071C26.3166 20.3166 26.3166 19.6834 26.7071 19.2929L26.7272 19.2728C27.1178 18.8822 27.7509 18.8822 28.1415 19.2728L32.9899 24.1212L32.9899 13Z"
      fill="#03020D" />
    <path
      d="M15.0101 27C15.0101 27.5523 14.5624 28 14.0101 28H13.9899C13.4376 28 12.9899 27.5523 12.9899 27V15.8788L8.14145 20.7272C7.75093 21.1178 7.11776 21.1178 6.72724 20.7272L6.70711 20.7071C6.31658 20.3166 6.31658 19.6834 6.70711 19.2929L13.2929 12.7071C13.6834 12.3166 14.3166 12.3166 14.7071 12.7071L21.2929 19.2929C21.6834 19.6834 21.6834 20.3166 21.2929 20.7071L21.2728 20.7272C20.8822 21.1178 20.2491 21.1178 19.8585 20.7272L15.0101 15.8788V27Z"
      fill="#03020D" />
    <path fill-rule="evenodd" clip-rule="evenodd"
      d="M40 2H8C6.89543 2 6 2.89543 6 4C6 5.10457 6.89543 6 8 6H40C41.1046 6 42 5.10457 42 4C42 2.89543 41.1046 2 40 2ZM8 0C5.79086 0 4 1.79086 4 4C4 6.20914 5.79086 8 8 8H40C42.2091 8 44 6.20914 44 4C44 1.79086 42.2091 0 40 0H8Z"
      fill="#03020D" />
  </g>
</svg>