<svg width="48" height="48" viewBox="0 0 48 48" fill="none" xmlns="http://www.w3.org/2000/svg">
  <defs>
    <clipPath id="clip0_1031_2020">
      <rect width="48" height="48" fill="white" />
    </clipPath>
  </defs>
  <g clip-path="url(#clip0_1031_2020)">
    <path fill-rule="evenodd" clip-rule="evenodd"
      d="M24 48C37.2548 48 48 37.2548 48 24C48 10.7452 37.2548 0 24 0C10.7452 0 0 10.7452 0 24C0 33.24 5.22166 41.2604 12.8751 45.2714V31.5C12.8751 30.4293 13.557 29.4774 14.5708 29.1329C15.5846 28.7884 16.7053 29.1278 17.3576 29.9769C19.007 32.1238 21.5923 33.5 24.5 33.5C29.4706 33.5 33.5 29.4706 33.5 24.5C33.5 19.5294 29.4706 15.5 24.5 15.5C21.5923 15.5 19.007 16.8762 17.3576 19.0231C16.5164 20.118 14.9469 20.3237 13.852 19.4825C12.7571 18.6413 12.5515 17.0718 13.3927 15.9769C15.9477 12.6513 19.9732 10.5 24.5 10.5C32.232 10.5 38.5 16.768 38.5 24.5C38.5 32.232 32.232 38.5 24.5 38.5C22.1032 38.5 19.847 37.8969 17.8751 36.8358V47C17.8751 47.0704 17.8722 47.1402 17.8665 47.2091C19.8243 47.7251 21.8801 48 24 48ZM9 24.5C9 23.1193 10.1193 22 11.5 22H21.5C22.8807 22 24 23.1193 24 24.5C24 25.8807 22.8807 27 21.5 27H11.5C10.1193 27 9 25.8807 9 24.5Z"
      fill="#22AFEC" />
  </g>
</svg>