<svg width="48" height="48" viewBox="0 0 48 48" fill="none" xmlns="http://www.w3.org/2000/svg">
  <defs>
    <clipPath id="clip0_1031_1944">
      <rect width="48" height="48" fill="white" />
    </clipPath>
  </defs>
  <g clip-path="url(#clip0_1031_1944)">
    <path fill-rule="evenodd" clip-rule="evenodd"
      d="M38.9333 29.0002L32 23.8002L33.2 22.2002L41.2 28.2002C41.4518 28.3891 41.6 28.6854 41.6 29.0002C41.6 29.315 41.4518 29.6113 41.2 29.8002L33.2 35.8002L32 34.2002L38.9333 29.0002Z"
      fill="#03020D" />
    <path fill-rule="evenodd" clip-rule="evenodd"
      d="M14.6667 25.0002L21.6 19.8002L20.4 18.2002L12.4 24.2002C12.1482 24.3891 12 24.6854 12 25.0002C12 25.315 12.1482 25.6113 12.4 25.8002L20.4 31.8002L21.6 30.2002L14.6667 25.0002Z"
      fill="#03020D" />
    <path fill-rule="evenodd" clip-rule="evenodd"
      d="M30.96 15.2797L23.96 39.2797L22.04 38.7197L29.04 14.7197L30.96 15.2797Z" fill="#03020D" />
    <path fill-rule="evenodd" clip-rule="evenodd"
      d="M44 8H10C8.89543 8 8 8.89543 8 10V44C8 45.1046 8.89543 46 10 46H44C45.1046 46 46 45.1046 46 44V10C46 8.89543 45.1046 8 44 8ZM10 6C7.79086 6 6 7.79086 6 10V44C6 46.2091 7.79086 48 10 48H44C46.2091 48 48 46.2091 48 44V10C48 7.79086 46.2091 6 44 6H10Z"
      fill="#03020D" />
    <path fill-rule="evenodd" clip-rule="evenodd"
      d="M4 2C2.89543 2 2 2.89543 2 4V38C2 39.1046 2.89543 40 4 40H6.2381V42H4C1.79086 42 0 40.2091 0 38V4C0 1.79086 1.79086 0 4 0H38C40.2091 0 42 1.79086 42 4V6.2381H40V4C40 2.89543 39.1046 2 38 2H4Z"
      fill="#03020D" />
  </g>
</svg>