<svg width="48" height="48" viewBox="0 0 48 48" fill="none" xmlns="http://www.w3.org/2000/svg">
  <defs>
    <linearGradient id="paint0_linear_1031_1912" x1="2.81259" y1="-6.25877" x2="-6.25876"
      y2="45.1874" gradientUnits="userSpaceOnUse">
      <stop stop-color="#FAAE41" />
      <stop offset="1" stop-color="#EF3E31" />
    </linearGradient>
    <linearGradient id="paint1_linear_1031_1912" x1="4.87574" y1="-2.36515" x2="-1.22988"
      y2="35.3395" gradientUnits="userSpaceOnUse">
      <stop stop-color="#E29F3A" />
      <stop offset="1" stop-color="#D43929" />
    </linearGradient>
    <clipPath id="clip0_1031_1912">
      <rect width="48" height="48" fill="white" />
    </clipPath>
  </defs>
  <g clip-path="url(#clip0_1031_1912)">
    <path fill-rule="evenodd" clip-rule="evenodd"
      d="M10.6327 0C4.76041 0 0 4.76041 0 10.6327V37.3673C0 43.2396 4.76041 48 10.6327 48H37.3673C43.2396 48 48 43.2396 48 37.3673V10.6327C48 4.76041 43.2396 0 37.3673 0H10.6327Z"
      fill="url(#paint0_linear_1031_1912)" />
    <path fill-rule="evenodd" clip-rule="evenodd"
      d="M10.6242 0.0380859C4.75643 0.0380859 0 4.79452 0 10.6623V22.7544L4.92459 28.0554C4.92459 28.0554 4.92497 28.0554 4.92497 28.0558C4.97427 28.1429 11.3415 39.2834 24.7418 39.2834C30.7957 39.2834 32.5548 36.1791 35.5559 36.1791C38.6603 36.1791 40.5229 39.2834 40.5229 39.2834C42.3341 34.8335 37.8325 29.7629 37.8325 29.7629C37.8325 29.7629 42.955 17.9146 27.1227 7.15244C27.1223 7.1521 27.1223 7.15172 27.1219 7.15172L20.1073 0.0380859H10.6242Z"
      fill="url(#paint1_linear_1031_1912)" />
    <path fill-rule="evenodd" clip-rule="evenodd"
      d="M27.1599 7.15527C42.993 17.9176 37.8705 29.7665 37.8705 29.7665C37.8705 29.7665 42.3721 34.8372 40.5611 39.287C40.5611 39.287 38.6984 36.1825 35.5938 36.1825C32.5928 36.1825 30.8336 39.287 24.7798 39.287C11.3269 39.287 4.96265 28.059 4.96265 28.059C17.0757 36.0408 25.349 30.3874 25.349 30.3874C19.8845 27.2133 8.27415 12.0708 8.27415 12.0708C18.3942 20.6786 22.7619 22.9365 22.7619 22.9365C20.1472 20.7836 12.8274 10.2598 12.8274 10.2598C18.6842 16.1857 30.3162 24.4371 30.3162 24.4371C33.634 15.3161 27.1599 7.15527 27.1599 7.15527Z"
      fill="#FEFEFE" />
  </g>
</svg>