<svg width="48" height="48" viewBox="0 0 48 48" fill="none" xmlns="http://www.w3.org/2000/svg">
  <defs>
    <clipPath id="clip0_1031_1942">
      <rect width="48" height="48" fill="white" transform="translate(0 48) rotate(-90)" />
    </clipPath>
  </defs>
  <g clip-path="url(#clip0_1031_1942)">
    <rect width="48" height="48" fill="#136C7A" />
    <path
      d="M11.0004 39.322V37.1045C11.0004 36.6518 11.232 36.4256 11.6952 36.4256H14.1055V12.8926H11.6952C11.232 12.8926 11.0004 12.6665 11.0004 12.2142V9.95065C11.0004 9.49836 11.232 9.27221 11.6952 9.27221C15.6503 9.09088 18.941 9 21.567 9C29.6002 9 33.6166 11.8059 33.6166 17.4177C33.6166 19.3788 33.1071 21.1063 32.0873 22.5997C31.0678 24.0931 29.7083 25.2318 28.0087 26.0162L33.4313 36.4252H36.3048C36.768 36.4252 37 36.6514 37 37.1037V39.3216C37 39.7739 36.7684 40 36.3052 40H30.1869C29.7237 40 29.3836 39.804 29.1671 39.412L22.8648 27.2383H21.938C20.949 27.2383 20.0685 27.193 19.2961 27.1026V36.4248H22.2159C22.6791 36.4248 22.9111 36.6514 22.9111 37.1041V39.3216C22.9111 39.7739 22.6795 40 22.2163 40H11.6952C11.232 40 11 39.7739 11 39.3216L11.0004 39.322ZM19.2961 12.7565V23.6631C19.5436 23.6932 19.8987 23.7083 20.3623 23.7083C22.8648 23.7083 24.8114 23.2254 26.2014 22.2601C27.5918 21.2948 28.287 19.8466 28.287 17.9156C28.287 14.4761 25.8467 12.7565 20.9644 12.7565H19.2961Z"
      fill="white" />
  </g>
</svg>