<svg width="48" height="48" viewBox="0 0 48 48" fill="none" xmlns="http://www.w3.org/2000/svg">
  <defs>
    <linearGradient id="paint0_linear_1031_1994" x1="36.045" y1="44.8227" x2="12.6066" y2="4.3059"
      gradientUnits="userSpaceOnUse">
      <stop stop-color="white" stop-opacity="0" />
      <stop offset="0.4752" stop-color="#6466BB" />
      <stop offset="1" stop-color="white" stop-opacity="0" />
    </linearGradient>
    <clipPath id="clip0_1031_1994">
      <rect width="48" height="48" fill="white" />
    </clipPath>
  </defs>
  <g clip-path="url(#clip0_1031_1994)">
    <path opacity="0.5"
      d="M24 48C37.2548 48 48 37.2548 48 24C48 10.7452 37.2548 0 24 0C10.7452 0 0 10.7452 0 24C0 37.2548 10.7452 48 24 48Z"
      fill="url(#paint0_linear_1031_1994)" />
    <path
      d="M38.5501 15.6001L44.7938 12.0001C39.1688 2.25006 26.6813 -1.10619 16.9313 4.53756C7.1813 10.1626 3.82505 22.6501 9.4688 32.4001L3.2063 36.0001C8.8313 45.7501 21.3188 49.1063 31.0688 43.4626C40.8376 37.8376 44.1751 25.3501 38.5501 15.6001Z"
      fill="#6466BB" />
  </g>
</svg>