<svg width="48" height="48" viewBox="0 0 48 48" fill="none" xmlns="http://www.w3.org/2000/svg">
  <defs>
    <clipPath id="clip0_1031_1908">
      <rect width="48" height="48" fill="white" />
    </clipPath>
  </defs>
  <g clip-path="url(#clip0_1031_1908)">
    <path fill-rule="evenodd" clip-rule="evenodd"
      d="M0 9.00887C0 9.00887 7.12494 8.98892 10.4685 9.00887C12.0538 8.99319 13.6325 9.21589 15.1526 9.66962C17.9076 10.5373 19.5299 12.5371 19.8514 15.4319C20.0341 16.9274 19.9773 18.4428 19.6832 19.9201C19.1243 22.5631 17.4847 24.2188 14.9992 25.089C13.6053 25.5551 12.1449 25.7876 10.6763 25.7771C9.41385 25.7921 8.15143 25.7871 6.88753 25.7821H6.88716H6.88681C6.25437 25.7796 5.62156 25.7771 4.9882 25.7771H4.54057V38.9923H0V9.00887ZM4.55039 22.4607C4.60324 22.4607 4.64358 22.4655 4.67888 22.4696C4.70635 22.4728 4.73076 22.4757 4.75565 22.4757C5.24065 22.4757 5.72566 22.4776 6.21066 22.4796C7.47165 22.4846 8.73264 22.4896 9.99364 22.4607C10.7273 22.4392 11.4571 22.3448 12.1724 22.179C13.6563 21.8424 14.7419 21.0295 15.1401 19.4761C15.4686 18.2182 15.5168 16.9026 15.2811 15.6238C15.0041 14.1003 14.1336 13.0755 12.6324 12.7164C11.7305 12.4972 10.8094 12.3678 9.88235 12.33C8.71787 12.286 7.55217 12.2954 6.38611 12.3047C5.8979 12.3086 5.40962 12.3125 4.92135 12.3125C4.80017 12.3125 4.67404 12.3125 4.54297 12.33L4.55039 22.4607ZM43.7835 38.9946H47.9877L48.0001 9.03359H44.0086V35.1622C43.9138 35.1025 43.8389 35.0157 43.7934 34.9128C39.388 26.377 34.9884 17.8395 30.5946 9.30038C30.5205 9.10561 30.3254 8.98575 30.1198 9.00865H23.9173C23.8625 9.00865 23.8072 9.01306 23.7522 9.01745C23.6978 9.02179 23.6437 9.02611 23.5908 9.02611V38.9721H27.5477V12.9557C27.6399 13.0111 27.7139 13.0926 27.7604 13.1901L35.3355 27.9013C37.187 31.4919 39.0327 35.0857 40.8727 38.6829C40.9565 38.8988 41.1769 39.0279 41.4044 38.9946H43.7835Z"
      fill="#D02129" />
  </g>
</svg>