<svg width="48" height="48" viewBox="0 0 48 48" fill="none" xmlns="http://www.w3.org/2000/svg">
  <defs>
    <linearGradient id="paint0_linear_1031_1996" x1="17.8733" y1="33.5732" x2="17.8733" y2="11.0798"
      gradientUnits="userSpaceOnUse">
      <stop stop-color="#ED760A" />
      <stop offset="1" stop-color="#ED760A" stop-opacity="0" />
    </linearGradient>
    <linearGradient id="paint1_linear_1031_1996" x1="29.6734" y1="13.1069" x2="29.6734" y2="36.4802"
      gradientUnits="userSpaceOnUse">
      <stop stop-color="#00ADEE" />
      <stop offset="1" stop-color="#00ADEE" stop-opacity="0" />
    </linearGradient>
  </defs>
  <path
    d="M24.46 42.7598C18.5267 42.7598 13.1 40.5732 7.40667 35.8665C7.25521 35.7413 7.12989 35.5875 7.03787 35.4139C6.94585 35.2403 6.88893 35.0502 6.87036 34.8546C6.85179 34.659 6.87193 34.4616 6.92963 34.2738C6.98734 34.0859 7.08147 33.9113 7.20667 33.7598C7.33186 33.6084 7.48566 33.4831 7.65928 33.391C7.83291 33.299 8.02296 33.2421 8.21858 33.2235C8.4142 33.205 8.61157 33.2251 8.7994 33.2828C8.98724 33.3405 9.16188 33.4346 9.31333 33.5598C14.4467 37.7865 19.26 39.7598 24.46 39.7598C25.94 39.7598 30.7533 39.5065 30.7533 36.1732V35.9998C30.7533 34.2398 30.0733 32.9065 21.0067 30.5865C10.62 27.9998 2.00667 24.7732 2.00667 12.6665V12.5198C1.98695 12.311 2.01108 12.1003 2.07749 11.9013C2.14391 11.7023 2.25115 11.5193 2.39236 11.3642C2.53357 11.209 2.70562 11.085 2.8975 11.0002C3.08939 10.9154 3.29687 10.8716 3.50667 10.8716C3.71646 10.8716 3.92395 10.9154 4.11583 11.0002C4.30771 11.085 4.47977 11.209 4.62097 11.3642C4.76218 11.5193 4.86942 11.7023 4.93584 11.9013C5.00226 12.1003 5.02638 12.311 5.00667 12.5198V12.6665C5.00667 21.8798 10.18 24.7465 21.7533 27.7065C30.0467 29.8398 33.7533 31.5465 33.7533 36.0265V36.1732C33.7533 39.3598 31.34 42.7598 24.46 42.7598Z"
    fill="url(#paint0_linear_1031_1996)" />
  <path
    d="M24.3533 48C16.7799 47.9178 9.4972 45.073 3.87333 40C3.57275 39.7401 3.38773 39.3714 3.35897 38.9751C3.33022 38.5788 3.46008 38.1872 3.71999 37.8867C3.9799 37.5861 4.34858 37.4011 4.7449 37.3723C5.14123 37.3436 5.53275 37.4734 5.83333 37.7333C10.9215 42.3158 17.5062 44.8852 24.3533 44.96C32.0467 44.96 36.6467 41.44 36.6467 35.6267V35.4667C36.6467 31 34.66 28.2133 23.78 25.4C14.1933 22.92 7.89999 20.68 7.89999 12.1333V12C7.89999 4.94667 13.82 0 22.3133 0C28.8287 0.0880656 35.1309 2.33417 40.2333 6.38667C40.4122 6.49622 40.5663 6.64192 40.6857 6.81446C40.805 6.987 40.887 7.18256 40.9264 7.38862C40.9658 7.59468 40.9618 7.8067 40.9145 8.0111C40.8672 8.2155 40.7778 8.40778 40.6519 8.57561C40.526 8.74345 40.3665 8.88315 40.1835 8.98576C40.0005 9.08838 39.7981 9.15164 39.5893 9.17151C39.3804 9.19138 39.1697 9.16741 38.9707 9.10114C38.7716 9.03487 38.5886 8.92776 38.4333 8.78667C33.8459 5.13156 28.178 3.09695 22.3133 3C15.4867 3 10.9 6.66667 10.9 12V12.1333C10.9 18 14.3 19.8533 24.5267 22.4667C34.1 24.9467 39.6467 27.8 39.6467 35.44V35.6C39.6467 43.1333 33.6467 48 24.3533 48Z"
    fill="#F9A01B" />
  <path
    d="M44.0334 36.5202C43.6361 36.5167 43.2563 36.3564 42.9766 36.0743C42.697 35.7921 42.54 35.4109 42.5401 35.0136V34.8669C42.5401 27.1602 38.2067 23.1736 26.5401 20.2002C18.0067 17.9336 13.7934 16.6402 13.7934 11.6002V11.4402C13.7934 8.36023 16.4601 5.24023 22.2334 5.24023C26.8201 5.24023 31.6867 7.0669 37.1134 10.8269C37.4458 11.0532 37.6747 11.4023 37.7497 11.7974C37.8247 12.1925 37.7397 12.6012 37.5134 12.9336C37.2871 13.266 36.938 13.4949 36.5429 13.5699C36.1478 13.6449 35.7391 13.5599 35.4067 13.3336C30.5001 9.93357 26.1934 8.28023 22.2334 8.28023C18.9267 8.28023 16.7934 9.53357 16.7934 11.4802V11.6002C16.7934 13.7736 17.6601 14.7602 27.3001 17.2269C38.2467 20.0802 45.5401 24.1736 45.5401 34.8669V35.0136C45.5366 35.4121 45.3767 35.7933 45.0949 36.0751C44.8131 36.3569 44.4319 36.5168 44.0334 36.5202Z"
    fill="url(#paint1_linear_1031_1996)" />
</svg>