<svg width="48" height="48" viewBox="0 0 48 48" fill="none" xmlns="http://www.w3.org/2000/svg">
  <defs>
    <linearGradient id="paint0_linear_1031_1938" x1="-9.9392" y1="57.9392" x2="57.9392" y2="-9.9392"
      gradientUnits="userSpaceOnUse">
      <stop stop-color="#4D27A8" />
      <stop offset="1" stop-color="#A166FF" />
    </linearGradient>
    <clipPath id="clip0_1031_1938">
      <rect width="48" height="48" fill="white" />
    </clipPath>
  </defs>
  <g clip-path="url(#clip0_1031_1938)">
    <path d="M48 0H0V48H48V0Z" fill="url(#paint0_linear_1031_1938)" />
    <path
      d="M40.0192 20.8001V22.0801H34.3744C19.5968 22.0801 8.01921 16.2561 8.01921 8.80646C8.01713 8.53679 8.03424 8.26731 8.07041 8.00006H9.35041C9.30684 8.26663 9.28544 8.53635 9.28641 8.80646C9.28641 15.4177 20.5376 20.8001 34.3744 20.8001H40.0192Z"
      fill="white" />
    <path
      d="M40.0192 23.36V24.64H32.1856C19.6608 24.64 10.656 26.6688 8.01922 30.0736V28.3584C10.816 25.9136 16 24.6464 21.0624 24C15.9872 23.36 10.8224 22.08 8.01282 19.6928V17.824C10.6176 21.2416 19.4496 23.296 31.7568 23.36H40.0192Z"
      fill="white" />
    <path
      d="M40.0192 25.92V27.2H34.3744C20.5312 27.2 9.27356 32.6016 9.27356 39.2128C9.2734 39.4763 9.29265 39.7394 9.33116 40H8.05116C8.01479 39.7393 7.99768 39.4761 7.99996 39.2128C7.99996 31.7568 19.5904 25.92 34.3872 25.92H40.0192Z"
      fill="white" />
    <path
      d="M40.0191 28.48V29.76H37.3695C25.4783 29.76 16.5119 33.6 16.5119 38.7648C16.5119 39.0144 16.5119 39.7376 16.5119 40H15.2319C15.2319 39.5776 15.2319 38.7776 15.2319 38.7648C15.2319 32.8 24.5503 28.48 37.3823 28.48H40.0191Z"
      fill="white" />
    <path
      d="M40.0192 18.2337V19.5137H37.3696C24.5184 19.5137 15.1936 15.1617 15.1936 9.16485C15.1936 9.16485 15.1936 8.42885 15.1936 7.99365H16.544C16.544 8.30085 16.544 8.93445 16.544 9.16485C16.544 14.2849 25.504 18.2337 37.376 18.2337H40.0192Z"
      fill="white" />
  </g>
</svg>