<svg width="48" height="48" viewBox="0 0 48 48" fill="none" xmlns="http://www.w3.org/2000/svg">
  <defs>
    <clipPath id="clip0_1031_1904">
      <rect width="48" height="48" fill="white" transform="translate(0 48) rotate(-90)" />
    </clipPath>
  </defs>
  <g clip-path="url(#clip0_1031_1904)">
    <path
      d="M40.6025 39.9172C47.9067 45.7565 52.5863 28.3199 40.9483 25.1052C31.1822 22.3992 21.355 27.0381 11.5075 37.8622C11.5075 37.8622 29.6969 31.2091 40.6025 39.9172Z"
      fill="#0B5567" />
    <path
      d="M11.6703 37.7191C18.6693 30.4556 30.3073 22.3578 41.1518 25.3487C43.6747 26.0608 45.4652 27.5257 46.6249 29.2755L36.3705 8.58348C34.9055 6.24368 31.1618 6.73199 29.0459 8.52245L1.94484 31.2287C-0.51704 33.3447 -0.659463 37.1087 1.6193 39.3875C3.63357 41.4018 6.8279 41.5849 9.04563 39.7944L11.6703 37.7191Z"
      fill="#15A9CE" />
  </g>
</svg>