<svg width="48" height="48" viewBox="0 0 48 48" fill="none" xmlns="http://www.w3.org/2000/svg">
<path d="M35.9078 10.0688C32.9988 11.06 31.5981 12.8378 30.6438 15.6067C30.3976 16.3461 29.7819 17.1642 29.0893 17.7149L31.475 20.3265L23.9021 14.9145L3 0C3 0 4.50841 10.0059 5.03173 13.6874C5.40113 16.2831 6.03221 17.4473 8.03314 18.6274L8.83354 19.0678L12.2813 20.9244L10.2342 19.8388L19.6848 25.1091L19.6233 25.2508L9.4492 20.4366C9.98794 22.3246 11.0346 25.9587 11.4809 27.5635C11.9581 29.294 12.4968 29.9233 14.1437 30.5371L17.176 31.6698L19.0538 30.9145L16.6681 32.535L4.73928 48C12.6661 40.4799 19.3769 37.8054 24.287 35.6185C30.5515 32.8497 34.3225 31.0719 36.7852 24.6843C38.5399 20.2006 39.9096 14.4583 41.6492 12.2399L45.3586 7.39431C45.3586 7.39431 37.6778 9.47101 35.9078 10.0688Z" fill="#3A1AB6"/>
</svg>
