<svg width="48" height="48" viewBox="0 0 48 48" fill="none" xmlns="http://www.w3.org/2000/svg">
<path fill-rule="evenodd" clip-rule="evenodd" d="M24 46C25.1046 46 26 45.1046 26 44C26 42.8954 25.1046 42 24 42C22.8954 42 22 42.8954 22 44C22 45.1046 22.8954 46 24 46ZM24 48C26.2091 48 28 46.2091 28 44C28 41.7909 26.2091 40 24 40C21.7909 40 20 41.7909 20 44C20 46.2091 21.7909 48 24 48Z" fill="#03020D"/>
<path d="M46 35C46 37.2091 44.2091 39 42 39C39.7909 39 38 37.2091 38 35C38 32.7909 39.7909 31 42 31C44.2091 31 46 32.7909 46 35Z" fill="#03020D"/>
<path d="M10 35C10 37.2091 8.20914 39 6 39C3.79086 39 2 37.2091 2 35C2 32.7909 3.79086 31 6 31C8.20914 31 10 32.7909 10 35Z" fill="#03020D"/>
<path fill-rule="evenodd" clip-rule="evenodd" d="M25 30.0002L25 38.5002L23 38.5002L23 30.0002H25Z" fill="#03020D"/>
<path fill-rule="evenodd" clip-rule="evenodd" d="M32.3235 27.8327L42.5266 34.1494L41.4739 35.8499L31.2708 29.5332L32.3235 27.8327Z" fill="#03020D"/>
<path fill-rule="evenodd" clip-rule="evenodd" d="M16.7136 29.5436L6.52629 35.85L5.47358 34.1495L15.6608 27.843L16.7136 29.5436Z" fill="#03020D"/>
<path fill-rule="evenodd" clip-rule="evenodd" d="M18.9873 22.3139L10.5377 16.6808L11.6471 15.0167L20.0967 20.6498L18.9873 22.3139Z" fill="#03020D"/>
<path fill-rule="evenodd" clip-rule="evenodd" d="M28.4131 20.1102L36.4759 15.1485L37.5241 16.8518L29.4613 21.8135L28.4131 20.1102Z" fill="#03020D"/>
<path fill-rule="evenodd" clip-rule="evenodd" d="M24 29C26.7614 29 29 26.7614 29 24C29 21.2386 26.7614 19 24 19C21.2386 19 19 21.2386 19 24C19 26.7614 21.2386 29 24 29ZM24 31C27.866 31 31 27.866 31 24C31 20.134 27.866 17 24 17C20.134 17 17 20.134 17 24C17 27.866 20.134 31 24 31Z" fill="#03020D"/>
<path fill-rule="evenodd" clip-rule="evenodd" d="M42 15C43.1046 15 44 14.1046 44 13C44 11.8954 43.1046 11 42 11C40.8954 11 40 11.8954 40 13C40 14.1046 40.8954 15 42 15ZM42 17C44.2091 17 46 15.2091 46 13C46 10.7909 44.2091 9 42 9C39.7909 9 38 10.7909 38 13C38 15.2091 39.7909 17 42 17Z" fill="#03020D"/>
<path fill-rule="evenodd" clip-rule="evenodd" d="M6 15C7.10457 15 8 14.1046 8 13C8 11.8954 7.10457 11 6 11C4.89543 11 4 11.8954 4 13C4 14.1046 4.89543 15 6 15ZM6 17C8.20914 17 10 15.2091 10 13C10 10.7909 8.20914 9 6 9C3.79086 9 2 10.7909 2 13C2 15.2091 3.79086 17 6 17Z" fill="#03020D"/>
<path d="M28 4C28 6.20914 26.2091 8 24 8C21.7909 8 20 6.20914 20 4C20 1.79086 21.7909 0 24 0C26.2091 0 28 1.79086 28 4Z" fill="#03020D"/>
<path fill-rule="evenodd" clip-rule="evenodd" d="M23 14.9998L23 3.99984L25 3.99984L25 14.9998L23 14.9998Z" fill="#03020D"/>
</svg>
