<svg width="48" height="48" viewBox="0 0 48 48" fill="none" xmlns="http://www.w3.org/2000/svg">
  <defs>
    <clipPath id="clip0_1031_1964">
      <rect width="48" height="48" fill="white" />
    </clipPath>
  </defs>
  <g clip-path="url(#clip0_1031_1964)">
    <path fill-rule="evenodd" clip-rule="evenodd"
      d="M24 46C36.1503 46 46 36.1503 46 24C46 11.8497 36.1503 2 24 2C11.8497 2 2 11.8497 2 24C2 36.1503 11.8497 46 24 46ZM24 48C37.2548 48 48 37.2548 48 24C48 10.7452 37.2548 0 24 0C10.7452 0 0 10.7452 0 24C0 37.2548 10.7452 48 24 48Z"
      fill="#03020D" />
    <path
      d="M27.9813 7.63019C26.3574 7.33506 22.431 13.2963 21.1321 16.9262C21.0334 17.2015 20.8073 18.2099 20.8073 18.4754C20.8073 18.4754 21.8241 20.6628 22.1061 21.1756C21.6338 20.9297 20.6547 19.0348 20.6547 19.0348C20.1824 19.9348 19.7296 24.0676 19.8772 24.8349C19.8772 24.8349 20.9301 26.4008 21.3387 26.7923C20.7777 26.6054 19.8331 25.3364 19.8331 25.3364C19.656 25.8824 19.6904 27.0183 19.7741 27.4022C20.4826 28.435 21.4273 28.5532 21.4273 28.5532C21.4273 28.5532 20.3941 38.8525 21.9587 39.6196C22.9329 39.4131 23.1691 28.1103 23.1691 28.1103C23.1691 28.1103 24.35 28.1989 24.6157 27.9038C25.2161 27.4906 26.6125 23.2002 26.6331 22.5813C26.6331 22.5813 25.0124 22.885 24.222 23.1919C24.8176 22.6006 26.7206 22.2034 26.7206 22.2034C27.2366 21.5842 28.3228 17.3719 28.4321 16.0733C28.4596 15.7475 28.5229 15.3485 28.4739 14.7664C28.4739 14.7664 26.9262 15.1052 26.6036 14.988C26.9312 14.9512 28.5128 14.3438 28.5128 14.3438C28.7931 11.8208 28.8798 7.79353 27.9813 7.63019ZM22.3174 34.3492C22.1936 37.3832 22.1158 38.2404 21.9882 38.9557C21.9292 39.0891 21.8702 39.111 21.811 38.9409C21.2696 36.4522 21.3092 17.7081 27.4794 9.17946C23.8909 15.73 22.2584 28.2995 22.3174 34.3492Z"
      fill="#03020D" />
  </g>
</svg>