<svg width="48" height="48" viewBox="0 0 48 48" fill="none" xmlns="http://www.w3.org/2000/svg">
  <defs>
    <clipPath id="clip0_1031_1961">
      <rect width="48" height="48" fill="white" />
    </clipPath>
  </defs>
  <g clip-path="url(#clip0_1031_1961)">
    <path fill-rule="evenodd" clip-rule="evenodd"
      d="M44 2H4C2.89543 2 2 2.89543 2 4V10H46V4C46 2.89543 45.1046 2 44 2ZM4 0C1.79086 0 0 1.79086 0 4V12H48V4C48 1.79086 46.2091 0 44 0H4Z"
      fill="#03020D" />
    <path fill-rule="evenodd" clip-rule="evenodd"
      d="M46 12H2V44C2 45.1046 2.89543 46 4 46H44C45.1046 46 46 45.1046 46 44V12ZM0 10V44C0 46.2091 1.79086 48 4 48H44C46.2091 48 48 46.2091 48 44V10H0Z"
      fill="#03020D" />
    <path
      d="M8.93765 33V29.424H13.2576V33H14.8056V24.48H13.2576V28.02H8.93765V24.48H7.38965V33H8.93765Z"
      fill="#03020D" />
    <path d="M19.8135 33V25.884H22.1295V24.48H15.9495V25.884H18.2655V33H19.8135Z" fill="#03020D" />
    <path d="M26.3526 33V25.884H28.6686V24.48H22.4886V25.884H24.8046V33H26.3526Z" fill="#03020D" />
    <path
      d="M31.3556 33V29.412H33.0236C34.7396 29.412 35.7116 28.32 35.7116 26.94C35.7116 25.524 34.7396 24.48 33.0236 24.48H29.8076V33H31.3556ZM32.9036 25.884C33.6116 25.884 34.1396 26.232 34.1396 26.94C34.1396 27.636 33.6116 28.008 32.9036 28.008H31.3556V25.884H32.9036Z"
      fill="#03020D" />
    <path
      d="M38.9609 33.144C40.6409 33.144 42.0689 32.184 42.0689 30.3C42.0689 28.5 40.7009 27.564 39.4649 27.456L41.6729 25.656V24.48H36.6449V25.884H39.2969L36.9929 28.536L37.7009 29.4L39.0329 28.812C39.8249 28.812 40.5209 29.412 40.5209 30.276C40.5209 31.14 39.8369 31.74 38.9609 31.74C38.2409 31.74 37.7249 31.404 37.3169 30.84L36.2609 31.872C36.9209 32.76 37.8809 33.144 38.9609 33.144Z"
      fill="#03020D" />
    <path
      d="M14 6C14 4.90909 14.9091 4 16 4C17.0909 4 18 4.90909 18 6C18 7.09091 17.0909 8 16 8C14.9091 8 14 7.09091 14 6Z"
      fill="#03020D" />
    <path
      d="M9 6C9 4.90909 9.90909 4 11 4C12.0909 4 13 4.90909 13 6C13 7.09091 12.0909 8 11 8C9.90909 8 9 7.09091 9 6Z"
      fill="#03020D" />
    <path
      d="M4 6C4 4.90909 4.90909 4 6 4C7.09091 4 8 4.90909 8 6C8 7.09091 7.09091 8 6 8C4.90909 8 4 7.09091 4 6Z"
      fill="#03020D" />
  </g>
</svg>