<svg width="48" height="48" viewBox="0 0 48 48" fill="none" xmlns="http://www.w3.org/2000/svg">
<path fill-rule="evenodd" clip-rule="evenodd" d="M21.1057 4.2517C21.1226 4.25057 21.1396 4.25 21.1567 4.25H26.9955C27.2579 4.25 27.5011 4.38708 27.637 4.61148L47.6414 37.6422C47.717 37.767 47.7519 37.9051 47.7499 38.041C47.7482 38.1719 47.7123 38.3024 47.6423 38.4185L44.6467 43.3877C44.511 43.6128 44.2673 43.7505 44.0044 43.7505H4.19873C4.1786 43.7505 4.15865 43.7497 4.13892 43.7481C3.99347 43.7564 3.84409 43.7224 3.70991 43.6415C3.68657 43.6275 3.66427 43.6123 3.64304 43.5962C3.55534 43.537 3.47884 43.4582 3.42067 43.3615L0.35739 38.2713C0.213383 38.032 0.214267 37.7325 0.359684 37.4941L20.4148 4.60949C20.5517 4.38509 20.796 4.2487 21.0589 4.25001C21.0746 4.25009 21.0902 4.25066 21.1057 4.2517ZM45.6692 37.2812H14.4594L16.5704 33.7628H37.7593C38.0292 33.7628 38.2782 33.6178 38.4115 33.3832C38.5447 33.1486 38.5417 32.8604 38.4035 32.6287L22.3756 5.75H26.5729L45.6692 37.2812ZM12.7488 38.6747C12.8795 38.7531 13.0245 38.7871 13.1662 38.781L13.1855 38.7812H45.6721L43.5808 42.2505H5.42416L20.9559 16.484L23.0845 19.9894L12.4915 37.6457C12.2784 38.0009 12.3936 38.4616 12.7488 38.6747ZM23.9644 21.4384L17.4703 32.2628H30.5373L23.9644 21.4384ZM36.4389 32.2628H32.2921L21.5946 14.6459C21.4584 14.4215 21.2148 14.2847 20.9524 14.2852C20.6899 14.2856 20.4468 14.4232 20.3113 14.648L4.08806 41.5614L1.87689 37.8872L21.0479 6.45228L36.4389 32.2628Z" fill="#03020D"/>
</svg>
