<svg width="48" height="48" viewBox="0 0 48 48" fill="none" xmlns="http://www.w3.org/2000/svg">
  <defs>
    <linearGradient id="paint0_linear_1031_1898" x1="0.0372013" y1="3" x2="0.0372013" y2="45.6582"
      gradientUnits="userSpaceOnUse">
      <stop stop-color="#4387FD" />
      <stop offset="1" stop-color="#4683EA" />
    </linearGradient>
  </defs>
  <path
    d="M10.4216 43.5684L0.577713 26.5183C-0.192571 25.1841 -0.192571 23.5403 0.577713 22.2062L10.4216 5.15605C11.1919 3.82188 12.6155 3 14.1561 3H33.8439C35.3845 3 36.8081 3.82188 37.5784 5.15605L47.4223 22.2062C48.1926 23.5403 48.1926 25.1841 47.4223 26.5183L37.5784 43.5684C36.8081 44.9026 35.3845 45.7245 33.8439 45.7245H14.1561C12.6155 45.7245 11.192 44.9026 10.4216 43.5684Z"
    fill="url(#paint0_linear_1031_1898)" />
  <path opacity="0.07"
    d="M45.3952 30.2051L33.4568 18.2667L31.2601 18.7226L25.7841 13.2466L24.0318 16.5238L23.0813 20.3147L24.6897 21.9231L21.6006 22.5542L17.3644 18.318L14.4884 21.0832L19.7846 26.3794L14.1709 30.8417L29.2431 45.914L36.586 45.8427L45.3952 30.2051Z"
    fill="black" />
  <circle cx="23.9999" cy="33.6803" r="1.99675" fill="white" />
  <rect x="24.4602" y="23.5635" width="9.31798" height="1.84334"
    transform="rotate(30.0007 24.4602 23.5635)" fill="white" />
  <circle cx="32.0696" cy="29.021" r="2.5342" fill="white" />
  <rect x="24.4612" y="25.1611" width="9.31798" height="1.84334"
    transform="rotate(149.999 24.4612 25.1611)" fill="white" />
  <circle cx="15.9302" cy="29.021" r="2.5342" fill="white" />
  <circle cx="32.0697" cy="19.703" r="1.99642" fill="white" />
  <circle cx="15.9303" cy="19.703" r="1.99642" fill="white" />
  <rect x="23.0781" y="15.0439" width="1.84338" height="9.31818" fill="white" />
  <circle cx="24.0001" cy="24.3621" r="3.22589" fill="white" />
  <circle cx="24" cy="15.0439" r="2.53465" fill="white" />
</svg>