<svg width="48" height="48" viewBox="0 0 48 48" fill="none" xmlns="http://www.w3.org/2000/svg">
<path fill-rule="evenodd" clip-rule="evenodd" d="M44.2056 37.2244C41.5949 37.1516 39.5697 37.4192 37.8722 38.1333C37.3834 38.3296 36.599 38.3296 36.5346 38.9448C36.7959 39.2029 36.8273 39.6254 37.0563 39.9831C37.4478 40.6325 38.1341 41.5072 38.7538 41.961L40.8428 43.4538C42.1159 44.2318 43.5522 44.6863 44.7924 45.4651C45.5109 45.9195 46.2287 46.5034 46.9472 46.9906C47.313 47.2502 47.5347 47.6727 47.992 47.8341V47.736C47.7637 47.4451 47.6979 47.0234 47.4703 46.6976L46.4899 45.7574C45.5438 44.4922 44.368 43.3884 43.0949 42.4809C42.05 41.7668 39.7657 40.7939 39.3414 39.5941L39.277 39.5214C39.994 39.4487 40.8428 39.1964 41.5291 39.0015C42.6398 38.7106 43.651 38.7746 44.7924 38.483L46.3604 38.0286V37.7377C45.7728 37.1538 45.3485 36.3751 44.7287 35.8239C43.0642 34.3965 41.235 33.0011 39.3414 31.8333C38.3295 31.1847 37.0234 30.7622 35.9464 30.2118C35.5535 30.0169 34.9015 29.9195 34.6733 29.5952C34.0843 28.8826 33.7587 27.9409 33.3343 27.0967L30.6578 21.4519C30.0703 20.1867 29.7103 18.9214 28.9932 17.7536C25.6304 12.2382 21.9735 8.89702 16.3586 5.61978C15.1513 4.93845 13.715 4.64541 12.188 4.28911L9.73981 4.15822C9.21666 3.93136 8.69498 3.31474 8.23768 3.02243C6.37702 1.85463 1.57794 -0.675828 0.206038 2.65885C-0.675636 4.76757 1.51208 6.84357 2.25474 7.91465C2.81081 8.6607 3.52786 9.50419 3.92077 10.3477C4.14028 10.8988 4.21345 11.4835 4.44246 12.0674C4.96415 13.4948 5.45437 15.085 6.13996 16.4157C6.5058 17.097 6.88993 17.8118 7.34723 18.4277C7.60844 18.7913 8.06573 18.9469 8.16304 19.5308C7.70575 20.1801 7.67429 21.1523 7.41308 21.9645C6.23727 25.6308 6.69457 30.1725 8.35914 32.8717C8.88229 33.6824 10.1152 35.4676 11.7878 34.7855C13.257 34.2016 12.9292 32.3525 13.3536 30.7302C13.4524 30.3412 13.3865 30.0816 13.5819 29.8213V29.894L14.9208 32.5866C15.9328 34.1762 17.6961 35.8312 19.1646 36.935C19.9475 37.5189 20.5679 38.5252 21.5469 38.8815V38.7834H21.4825C21.2865 38.4925 20.9923 38.3616 20.7311 38.1347C20.1436 37.5508 19.4909 36.8368 19.0336 36.1882C17.6632 34.3718 16.4559 32.3598 15.3781 30.2838C14.855 29.2781 14.3977 28.1751 13.9748 27.1694C13.7772 26.7797 13.7772 26.195 13.4516 26.0016C12.9614 26.7142 12.2444 27.3323 11.8836 28.2078C11.2632 29.6024 11.1988 31.3221 10.9705 33.1065C10.8388 33.1393 10.8973 33.1065 10.8388 33.1793C9.79543 32.9204 9.43544 31.8486 9.04399 30.9411C8.06501 28.6375 7.90111 24.9393 8.74985 22.2787C8.97814 21.5973 9.95859 19.4559 9.56714 18.8073C9.36959 18.1906 8.71839 17.8343 8.3584 17.3472C7.93403 16.7305 7.4782 15.9525 7.18406 15.2712C6.40116 13.4533 6.00972 11.4428 5.16024 9.62562C4.76732 8.78213 4.08248 7.90592 3.52713 7.12788C2.90667 6.25167 2.22255 5.63505 1.73232 4.59742C1.56916 4.23385 1.34087 3.6565 1.60208 3.26675C1.66647 3.00716 1.79817 2.90317 2.05792 2.845C2.48229 2.48143 3.69102 2.94244 4.1154 3.13586C5.32267 3.62305 6.33458 4.07679 7.34649 4.75739C7.80379 5.0817 8.29402 5.69832 8.88156 5.8612H9.56787C10.6127 6.08807 11.7871 5.93391 12.7653 6.22477C14.4957 6.7774 16.0623 7.58743 17.4671 8.46437C21.743 11.157 25.2697 14.9854 27.6521 19.5606C28.0435 20.3066 28.2067 20.988 28.5667 21.7667C29.253 23.357 30.1017 24.9785 30.7858 26.5368C31.4722 28.0616 32.1248 29.6199 33.1038 30.8851C33.594 31.5665 35.552 31.9228 36.4329 32.2798C37.0863 32.5706 38.0975 32.8324 38.6865 33.1887C39.7957 33.87 40.9057 34.6488 41.9498 35.3949C42.4715 35.7832 44.1046 36.5947 44.2019 37.2418L44.2056 37.2244ZM10.9142 9.03154C10.4631 9.02758 10.0135 9.08209 9.57665 9.1937V9.26641H9.64104C9.90225 9.78559 10.3596 10.1426 10.6859 10.5971L11.4373 12.1546L11.5017 12.0819C11.959 11.7576 12.188 11.2384 12.188 10.4604C11.9919 10.2335 11.9597 10.0059 11.7966 9.77905C11.6005 9.45474 11.1761 9.29186 10.9142 9.033V9.03154Z" fill="#00678C"/>
</svg>
