<svg width="48" height="48" viewBox="0 0 48 48" fill="none" xmlns="http://www.w3.org/2000/svg">
  <defs>
    <clipPath id="clip0_1031_2038">
      <rect width="48" height="48" fill="white" />
    </clipPath>
  </defs>
  <g clip-path="url(#clip0_1031_2038)">
    <path fill-rule="evenodd" clip-rule="evenodd"
      d="M44 2H4C2.89543 2 2 2.89543 2 4V10H46V4C46 2.89543 45.1046 2 44 2ZM4 0C1.79086 0 0 1.79086 0 4V12H48V4C48 1.79086 46.2091 0 44 0H4Z"
      fill="#03020D" />
    <path fill-rule="evenodd" clip-rule="evenodd"
      d="M46 12H2V44C2 45.1046 2.89543 46 4 46H44C45.1046 46 46 45.1046 46 44V12ZM0 10V44C0 46.2091 1.79086 48 4 48H44C46.2091 48 48 46.2091 48 44V10H0Z"
      fill="#03020D" />
    <path
      d="M13.631 32.9999V29.3279L16.295 32.9999H18.263L15.851 29.7719L14.771 29.4119H15.071C16.787 29.4119 17.759 28.3199 17.759 26.9399C17.759 25.5239 16.787 24.4799 15.071 24.4799H12.083V32.9999H13.631ZM14.951 25.8839C15.659 25.8839 16.187 26.2319 16.187 26.9399C16.187 27.6359 15.659 28.0079 14.951 28.0079H13.631V25.8839H14.951Z"
      fill="#03020D" />
    <path
      d="M24.5424 32.9999V31.5959H20.9424V29.4239H24.2784V28.0199H20.9424V25.8839H24.4824V24.4799H19.4424V32.9999H24.5424Z"
      fill="#03020D" />
    <path
      d="M31.0186 30.6959C31.0186 27.7799 27.2506 28.1639 27.2506 26.5799C27.2506 26.0519 27.6586 25.6679 28.3306 25.6679L30.5026 26.3879V24.7799C29.8546 24.5279 29.1106 24.3359 28.2946 24.3359C26.7826 24.3359 25.7386 25.2599 25.7386 26.6039C25.7386 29.5319 29.4826 28.9079 29.4826 30.7079C29.4826 31.4279 28.9666 31.7999 28.1746 31.7999L25.7146 30.9599V32.5799C26.5546 32.8679 27.3466 33.1439 28.2226 33.1439C29.8546 33.1439 31.0186 32.2079 31.0186 30.6959Z"
      fill="#03020D" />
    <path d="M35.3819 32.9999V25.8839H37.6979V24.4799H31.5179V25.8839H33.8339V32.9999H35.3819Z"
      fill="#03020D" />
    <path
      d="M14 6C14 4.90909 14.9091 4 16 4C17.0909 4 18 4.90909 18 6C18 7.09091 17.0909 8 16 8C14.9091 8 14 7.09091 14 6Z"
      fill="#03020D" />
    <path
      d="M9 6C9 4.90909 9.90909 4 11 4C12.0909 4 13 4.90909 13 6C13 7.09091 12.0909 8 11 8C9.90909 8 9 7.09091 9 6Z"
      fill="#03020D" />
    <path
      d="M4 6C4 4.90909 4.90909 4 6 4C7.09091 4 8 4.90909 8 6C8 7.09091 7.09091 8 6 8C4.90909 8 4 7.09091 4 6Z"
      fill="#03020D" />
  </g>
</svg>