<svg width="48" height="48" viewBox="0 0 48 48" fill="none" xmlns="http://www.w3.org/2000/svg">
<path fill-rule="evenodd" clip-rule="evenodd" d="M17.8028 6.15509L16.2632 7.04398L15.7632 6.17795L17.3028 5.28906L17.8028 6.15509ZM31.9999 7.19604L30.4999 6.33001L30.9999 5.46399L32.4999 6.33001L31.9999 7.19604ZM13.1839 8.82175L11.6443 9.71064L11.1443 8.84462L12.6839 7.95573L13.1839 8.82175ZM36.4999 9.79412L34.9999 8.92809L35.4999 8.06206L36.9999 8.92809L36.4999 9.79412ZM42.5524 21.8054V19.861H43.5524V21.8054H42.5524ZM5.44727 20.3384V22.1618H4.44727L4.44727 20.3384H5.44727ZM42.5524 27.6387V25.6943H43.5524V27.6387H42.5524ZM5.44727 25.8085V27.6319H4.44727L4.44727 25.8085H5.44727ZM12.7221 40.066L11.1716 39.1708L11.6716 38.3048L13.2221 39.2L12.7221 40.066ZM36.4207 39.406L34.889 40.2903L34.389 39.4243L35.9207 38.54L36.4207 39.406ZM17.3736 42.7516L15.8231 41.8564L16.3231 40.9904L17.8736 41.8855L17.3736 42.7516ZM31.8256 42.059L30.294 42.9433L29.794 42.0773L31.3256 41.1929L31.8256 42.059Z" fill="#03020D"/>
<path fill-rule="evenodd" clip-rule="evenodd" d="M24 42C22.8954 42 22 42.8954 22 44C22 45.1046 22.8954 46 24 46C25.1046 46 26 45.1046 26 44C26 42.8954 25.1046 42 24 42ZM6 11C4.89543 11 4 11.8954 4 13C4 14.1046 4.89543 15 6 15C7.10457 15 8 14.1046 8 13C8 11.8954 7.10457 11 6 11ZM42 11C40.8954 11 40 11.8954 40 13C40 14.1046 40.8954 15 42 15C43.1046 15 44 14.1046 44 13C44 11.8954 43.1046 11 42 11ZM6 33C4.89543 33 4 33.8954 4 35C4 36.1046 4.89543 37 6 37C7.10457 37 8 36.1046 8 35C8 33.8954 7.10457 33 6 33ZM42 33C40.8954 33 40 33.8954 40 35C40 36.1046 40.8954 37 42 37C43.1046 37 44 36.1046 44 35C44 33.8954 43.1046 33 42 33ZM24 2C22.8954 2 22 2.89543 22 4C22 5.10457 22.8954 6 24 6C25.1046 6 26 5.10457 26 4C26 2.89543 25.1046 2 24 2ZM24 0C21.7909 0 20 1.79086 20 4C20 6.20914 21.7909 8 24 8C26.2091 8 28 6.20914 28 4C28 1.79086 26.2091 0 24 0ZM6 9C3.79086 9 2 10.7909 2 13C2 15.2091 3.79086 17 6 17C8.20914 17 10 15.2091 10 13C10 10.7909 8.20914 9 6 9ZM24 40C21.7909 40 20 41.7909 20 44C20 46.2091 21.7909 48 24 48C26.2091 48 28 46.2091 28 44C28 41.7909 26.2091 40 24 40ZM38 13C38 10.7909 39.7909 9 42 9C44.2091 9 46 10.7909 46 13C46 15.2091 44.2091 17 42 17C39.7909 17 38 15.2091 38 13ZM6 31C3.79086 31 2 32.7909 2 35C2 37.2091 3.79086 39 6 39C8.20914 39 10 37.2091 10 35C10 32.7909 8.20914 31 6 31ZM38 35C38 32.7909 39.7909 31 42 31C44.2091 31 46 32.7909 46 35C46 37.2091 44.2091 39 42 39C39.7909 39 38 37.2091 38 35Z" fill="#03020D"/>
<path fill-rule="evenodd" clip-rule="evenodd" d="M14 31.5294C14 27.9352 16.858 25 20.4318 25H27.5682C31.142 25 34 27.9352 34 31.5294V32C34 32.5523 33.5523 33 33 33C32.4477 33 32 32.5523 32 32V31.5294C32 29.006 30.004 27 27.5682 27H20.4318C17.996 27 16 29.006 16 31.5294V32C16 32.5523 15.5523 33 15 33C14.4477 33 14 32.5523 14 32V31.5294Z" fill="#03020D"/>
<path fill-rule="evenodd" clip-rule="evenodd" d="M24 14C21.8057 14 20 15.7846 20 18C20 20.2191 21.7809 22 24 22C26.2191 22 28 20.2191 28 18C28 15.7846 26.1943 14 24 14ZM18 18C18 14.6726 20.7086 12 24 12C27.2914 12 30 14.6726 30 18C30 21.3237 27.3237 24 24 24C20.6763 24 18 21.3237 18 18Z" fill="#03020D"/>
</svg>
