<svg width="48" height="48" viewBox="0 0 48 48" fill="none" xmlns="http://www.w3.org/2000/svg">
  <defs>
    <clipPath id="clip0_1031_1991">
      <rect width="48" height="48" fill="white" transform="translate(0 48) rotate(-90)" />
    </clipPath>
  </defs>
  <g clip-path="url(#clip0_1031_1991)">
    <path fill-rule="evenodd" clip-rule="evenodd"
      d="M30 24C30 31.732 23.732 38 16 38C8.26801 38 2 31.732 2 24C2 16.268 8.26801 10 16 10C23.732 10 30 16.268 30 24ZM32 24C32 32.8366 24.8366 40 16 40C7.16344 40 1.45047e-07 32.8366 2.50422e-07 24C3.47719e-07 15.8408 6.10738 9.10798 14 8.12379L14 6L13.5 6C12.6716 6 12 5.32843 12 4.5C12 3.67157 12.6716 3 13.5 3L18.5 3C19.3284 3 20 3.67157 20 4.5C20 5.32843 19.3284 6 18.5 6L18 6L18 8.12379C20.007 8.37406 21.8986 8.99606 23.6037 9.91871L24.8326 7.79012L23.866 7.23205C23.3877 6.95591 23.2239 6.34432 23.5 5.86602C23.7761 5.38773 24.3877 5.22386 24.866 5.5L28.3301 7.5C28.8084 7.77614 28.9723 8.38773 28.6962 8.86602C28.42 9.34432 27.8084 9.50819 27.3301 9.23205L26.5647 8.79012L25.3007 10.9794C29.3567 13.8818 32 18.6322 32 24ZM44 28C42.1362 28 40.5701 26.7252 40.126 25L34 25L34 23L40.126 23C40.5701 21.2748 42.1362 20 44 20C46.2091 20 48 21.7909 48 24C48 26.2091 46.2091 28 44 28ZM38.2954 10.6196C38.8125 10.8636 39.3903 11 40 11C42.2091 11 44 9.20914 44 7C44 4.79086 42.2091 3 40 3C37.7909 3 36 4.79086 36 7C36 7.87145 36.2787 8.67781 36.7518 9.33483L32.3181 13.7686L33.7323 15.1828L38.2954 10.6196ZM36 41C36 40.1291 36.2783 39.3232 36.7509 38.6664L32.3181 34.2335L33.7323 32.8193L38.294 37.381C38.8115 37.1366 39.3898 37 40 37C42.2091 37 44 38.7909 44 41C44 43.2091 42.2091 45 40 45C37.7909 45 36 43.2091 36 41ZM44 26C45.1046 26 46 25.1046 46 24C46 22.8954 45.1046 22 44 22C42.8954 22 42 22.8954 42 24C42 25.1046 42.8954 26 44 26ZM42 7C42 8.10457 41.1046 9 40 9C38.8954 9 38 8.10457 38 7C38 5.89543 38.8954 5 40 5C41.1046 5 42 5.89543 42 7ZM40 43C41.1046 43 42 42.1046 42 41C42 39.8954 41.1046 39 40 39C38.8954 39 38 39.8954 38 41C38 42.1046 38.8954 43 40 43ZM14.5085 25.8222C15.3416 26.6553 16.6924 26.6553 17.5255 25.8222C18.3586 24.9891 26.6553 15.3416 25.8222 14.5085C24.9891 13.6754 15.3416 21.9721 14.5085 22.8052C13.6754 23.6383 13.6754 24.9891 14.5085 25.8222Z"
      fill="#03020D" />
  </g>
</svg>