<svg width="48" height="48" viewBox="0 0 48 48" fill="none" xmlns="http://www.w3.org/2000/svg">
<g clip-path="url(#clip0_1031_2012)">
<path d="M48 0H0V48H48V0Z" fill="#D86613"/>
<path d="M38.7199 40H30.8351C30.7145 39.9997 30.5964 39.9652 30.4945 39.9007C30.3926 39.8361 30.311 39.7441 30.2591 39.6352L19.1103 16.32H14.3935C14.2238 16.32 14.061 16.2526 13.941 16.1325C13.821 16.0125 13.7535 15.8497 13.7535 15.68V8.64C13.7535 8.47026 13.821 8.30748 13.941 8.18745C14.061 8.06743 14.2238 8 14.3935 8H24.2495C24.3702 8.00034 24.4882 8.03477 24.5902 8.09931C24.6921 8.16386 24.7737 8.25589 24.8255 8.3648L35.9231 31.68H38.7199C38.8897 31.68 39.0525 31.7474 39.1725 31.8674C39.2925 31.9875 39.3599 32.1503 39.3599 32.32V39.36C39.3599 39.5297 39.2925 39.6925 39.1725 39.8125C39.0525 39.9326 38.8897 40 38.7199 40ZM31.2383 38.72H38.0799V32.96H35.5199C35.3993 32.9597 35.2812 32.9252 35.1793 32.8607C35.0774 32.7961 34.9958 32.7041 34.9439 32.5952L23.8463 9.28H15.0399V15.04H19.5199C19.6406 15.0403 19.7586 15.0748 19.8606 15.1393C19.9625 15.2039 20.0441 15.2959 20.0959 15.4048L31.2383 38.72Z" fill="white"/>
<path d="M17.5871 40H9.26715C9.15838 40.0002 9.05136 39.9727 8.95618 39.9201C8.86099 39.8675 8.78079 39.7915 8.72315 39.6992C8.66204 39.6048 8.6269 39.4959 8.62128 39.3835C8.61566 39.2712 8.63976 39.1593 8.69115 39.0592L17.3951 20.8768C17.447 20.7679 17.5286 20.6759 17.6305 20.6113C17.7324 20.5468 17.8505 20.5124 17.9711 20.512C18.0911 20.5118 18.2087 20.5453 18.3105 20.6086C18.4124 20.672 18.4944 20.7627 18.5471 20.8704L22.7136 29.44C22.7555 29.5268 22.7773 29.622 22.7773 29.7184C22.7773 29.8148 22.7555 29.91 22.7136 29.9968L18.1695 39.5968C18.1229 39.7139 18.0428 39.8146 17.9392 39.8863C17.8356 39.9581 17.7131 39.9976 17.5871 40ZM10.2911 38.72H17.1839L21.4271 29.76L17.9775 22.624L10.2911 38.72Z" fill="white"/>
</g>
<defs>
<clipPath id="clip0_1031_2012">
<rect width="48" height="48" fill="white"/>
</clipPath>
</defs>
</svg>
