<svg width="48" height="48" viewBox="0 0 48 48" fill="none" xmlns="http://www.w3.org/2000/svg">
<g clip-path="url(#clip0_4810_1924)">
<path d="M36 2H39C41.2091 2 43 3.79086 43 6V18.0921C43 19.0953 43.377 20.062 44.0563 20.8003L45.8173 22.7145C46.4948 23.4508 46.5238 24.5745 45.8853 25.3449L43.9203 27.7157C43.3255 28.4334 43 29.3362 43 30.2683V42C43 44.2091 41.2091 46 39 46H36" stroke="currentColor" stroke-width="3" stroke-linecap="round"/>
<path d="M12 2H9C6.79086 2 5 3.79086 5 6V18.0921C5 19.0953 4.62299 20.062 3.94372 20.8003L2.18266 22.7145C1.50522 23.4508 1.47618 24.5745 2.11468 25.3449L4.0797 27.7157C4.67449 28.4334 5 29.3362 5 30.2683V42C5 44.2091 6.79086 46 9 46H12" stroke="currentColor" stroke-width="3" stroke-linecap="round"/>
<path d="M26 40.9999V25.6699H29.213L33.476 38.0599C33.434 37.6119 33.385 37.0869 33.329 36.4849C33.287 35.8689 33.252 35.2459 33.224 34.6159C33.196 33.9719 33.182 33.4119 33.182 32.9359V25.6699H35.576V40.9999H32.363L28.142 28.6099C28.17 29.0159 28.205 29.5059 28.247 30.0799C28.289 30.6539 28.324 31.2419 28.352 31.8439C28.38 32.4459 28.394 32.9989 28.394 33.5029V40.9999H26Z" fill="currentColor"/>
<path d="M17.038 41.21C16.058 41.21 15.204 41.028 14.476 40.664C13.762 40.286 13.209 39.761 12.817 39.089C12.439 38.403 12.25 37.598 12.25 36.674V29.996C12.25 29.072 12.439 28.274 12.817 27.602C13.209 26.916 13.762 26.391 14.476 26.027C15.204 25.649 16.058 25.46 17.038 25.46C18.032 25.46 18.886 25.649 19.6 26.027C20.314 26.391 20.86 26.916 21.238 27.602C21.63 28.274 21.826 29.065 21.826 29.975V36.674C21.826 37.598 21.63 38.403 21.238 39.089C20.86 39.761 20.314 40.286 19.6 40.664C18.886 41.028 18.032 41.21 17.038 41.21ZM17.038 38.9C17.752 38.9 18.291 38.711 18.655 38.333C19.019 37.941 19.201 37.388 19.201 36.674V29.996C19.201 29.268 19.019 28.715 18.655 28.337C18.291 27.959 17.752 27.77 17.038 27.77C16.324 27.77 15.785 27.959 15.421 28.337C15.057 28.715 14.875 29.268 14.875 29.996V36.674C14.875 37.388 15.057 37.941 15.421 38.333C15.799 38.711 16.338 38.9 17.038 38.9Z" fill="currentColor"/>
<path d="M30.895 22.21C29.845 22.21 28.935 22.035 28.165 21.685C27.395 21.335 26.8 20.838 26.38 20.194C25.974 19.536 25.764 18.766 25.75 17.884H28.375C28.375 18.514 28.599 19.011 29.047 19.375C29.509 19.725 30.132 19.9 30.916 19.9C31.672 19.9 32.26 19.725 32.68 19.375C33.114 19.025 33.331 18.542 33.331 17.926C33.331 17.408 33.177 16.96 32.869 16.582C32.575 16.19 32.148 15.924 31.588 15.784L29.824 15.301C28.62 14.993 27.689 14.44 27.031 13.642C26.387 12.844 26.065 11.878 26.065 10.744C26.065 9.87596 26.261 9.11996 26.653 8.47596C27.045 7.83196 27.598 7.33496 28.312 6.98496C29.04 6.63496 29.894 6.45996 30.874 6.45996C32.358 6.45996 33.534 6.84496 34.402 7.61496C35.27 8.37096 35.711 9.39296 35.725 10.681H33.1C33.1 10.079 32.904 9.60996 32.512 9.27396C32.12 8.92396 31.567 8.74896 30.853 8.74896C30.167 8.74896 29.635 8.90996 29.257 9.23196C28.879 9.55396 28.69 10.009 28.69 10.597C28.69 11.129 28.83 11.584 29.11 11.962C29.404 12.326 29.824 12.585 30.37 12.739L32.197 13.243C33.415 13.551 34.346 14.104 34.99 14.902C35.634 15.686 35.956 16.659 35.956 17.821C35.956 18.689 35.746 19.459 35.326 20.131C34.906 20.789 34.318 21.3 33.562 21.664C32.806 22.028 31.917 22.21 30.895 22.21Z" fill="currentColor"/>
<path d="M17.04 22.2309C15.486 22.2309 14.254 21.8039 13.344 20.9499C12.448 20.0819 12 18.9199 12 17.4639H14.625C14.625 18.2339 14.842 18.8359 15.276 19.2699C15.71 19.7039 16.298 19.9209 17.04 19.9209C17.782 19.9209 18.37 19.7109 18.804 19.2909C19.238 18.8569 19.455 18.2549 19.455 17.4849V9.10592H15.885V6.66992H22.08V17.4849C22.08 18.9549 21.625 20.1169 20.715 20.9709C19.819 21.8109 18.594 22.2309 17.04 22.2309Z" fill="currentColor"/>
</g>
<defs>
<clipPath id="clip0_4810_1924">
<rect width="48" height="48" fill="white"/>
</clipPath>
</defs>
</svg>
