<svg width="48" height="49" viewBox="0 0 48 49" fill="none" xmlns="http://www.w3.org/2000/svg">
  <defs>
    <linearGradient id="paint0_linear_1031_1972" x1="0" y1="48.6" x2="48" y2="0.599976"
      gradientUnits="userSpaceOnUse">
      <stop stop-color="#B0084D" />
      <stop offset="1" stop-color="#FF4F8B" />
    </linearGradient>
  </defs>
  <path d="M48 0.599976H0V48.6H48V0.599976Z" fill="url(#paint0_linear_1031_1972)" />
  <path fill-rule="evenodd" clip-rule="evenodd"
    d="M32.1941 40.1999C30.9083 40.1999 29.8618 39.1481 29.8618 37.8545C29.8618 36.5609 30.9083 35.5091 32.1941 35.5091C33.4799 35.5091 34.5264 36.5609 34.5264 37.8545C34.5264 39.1481 33.4799 40.1999 32.1941 40.1999ZM27.0796 29.9999H20.8787L17.7779 24.5999L20.8787 19.1999H27.0796L30.1798 24.5999L27.0796 29.9999ZM16.5727 13.6907C15.2869 13.6907 14.2404 12.6389 14.2404 11.3453C14.2404 10.0517 15.2869 8.99993 16.5727 8.99993C17.8591 8.99993 18.9056 10.0517 18.9056 11.3453C18.9056 12.6389 17.8591 13.6907 16.5727 13.6907ZM32.1941 34.3091C31.7514 34.3091 31.329 34.3949 30.9382 34.5455L28.4042 30.2459L28.2705 30.3257L31.3856 24.8999C31.4918 24.7139 31.4918 24.4859 31.3856 24.2999L27.9406 18.2999C27.8338 18.1139 27.6369 17.9999 27.4239 17.9999H21.1549L21.1794 17.9855L18.8561 14.0423C19.615 13.3919 20.0989 12.4247 20.0989 11.3453C20.0989 9.39053 18.5172 7.79993 16.5727 7.79993C14.6288 7.79993 13.0471 9.39053 13.0471 11.3453C13.0471 13.3001 14.6288 14.8907 16.5727 14.8907C17.016 14.8907 17.4384 14.8049 17.8292 14.6543L19.998 18.3341L16.5721 24.2999C16.4659 24.4859 16.4659 24.7139 16.5721 24.8999L20.0177 30.8999C20.1245 31.0859 20.3214 31.1999 20.5344 31.1999H27.4239C27.4734 31.1999 27.5218 31.1921 27.5683 31.1807L29.9113 35.1575C29.1518 35.8079 28.6685 36.7751 28.6685 37.8545C28.6685 39.8093 30.2496 41.3999 32.1941 41.3999C34.1386 41.3999 35.7197 39.8093 35.7197 37.8545C35.7197 35.8997 34.1386 34.3091 32.1941 34.3091ZM35.7507 19.8623C34.4649 19.8623 33.419 18.8105 33.419 17.5169C33.419 16.2233 34.4649 15.1715 35.7507 15.1715C37.0365 15.1715 38.083 16.2233 38.083 17.5169C38.083 18.8105 37.0365 19.8623 35.7507 19.8623ZM40.1199 24.2999L37.8551 20.3549C38.716 19.7075 39.2763 18.6779 39.2763 17.5169C39.2763 15.5621 37.6952 13.9715 35.7507 13.9715C35.2561 13.9715 34.7847 14.0753 34.3569 14.2619L32.5103 11.0453C32.4041 10.8599 32.2066 10.7453 31.9936 10.7453H24.597V11.9453H31.6494L33.3576 14.9213C32.6631 15.5693 32.2257 16.4915 32.2257 17.5169C32.2257 19.4717 33.8068 21.0623 35.7507 21.0623C36.1129 21.0623 36.4631 21.0065 36.7924 20.9039L38.9147 24.5999L35.9351 29.7887L36.9685 30.3887L40.1199 24.8999C40.2267 24.7139 40.2267 24.4859 40.1199 24.2999ZM12.7374 33.7481C11.4511 33.7481 10.4046 32.6957 10.4046 31.4027C10.4046 30.1091 11.4511 29.0573 12.7374 29.0573C14.0232 29.0573 15.0697 30.1091 15.0697 31.4027C15.0697 32.6957 14.0232 33.7481 12.7374 33.7481ZM14.6861 34.3547C15.6354 33.7187 16.263 32.6333 16.263 31.4027C16.263 29.4479 14.6813 27.8573 12.7374 27.8573C12.1742 27.8573 11.6438 27.9941 11.1713 28.2311L9.08597 24.5999L12.5412 18.5825L11.5072 17.9825L7.88015 24.2999C7.77335 24.4859 7.77335 24.7139 7.88015 24.8999L10.2029 28.9439C9.59014 29.5823 9.21127 30.4481 9.21127 31.4027C9.21127 33.3575 10.793 34.9481 12.7374 34.9481C13.0304 34.9481 13.3138 34.9079 13.5865 34.8395L15.4898 38.1545C15.5966 38.3399 15.7935 38.4545 16.0065 38.4545H23.4037V37.2545H16.3507L14.6861 34.3547Z"
    fill="white" />
</svg>