<svg width="48" height="48" viewBox="0 0 48 48" fill="none" xmlns="http://www.w3.org/2000/svg">
<g clip-path="url(#clip0_1031_1978)">
<path fill-rule="evenodd" clip-rule="evenodd" d="M38.3462 20.8016C38.6998 24.7881 32.2267 28.5822 23.8897 29.2754C15.5527 29.9689 8.5076 27.2985 8.1549 23.3125C7.80178 19.3252 14.2745 15.5314 22.6118 14.8379C30.9488 14.1452 37.9939 16.8148 38.3462 20.8016Z" fill="#BBE6FB"/>
<path fill-rule="evenodd" clip-rule="evenodd" d="M22.5822 14.8578C20.8208 14.7498 17.7867 15.6686 15.2564 16.5853C14.8613 17.5158 14.6578 18.5163 14.6581 19.5272C14.6581 23.8019 18.534 27.2671 22.6339 27.2671C26.7071 27.2671 30.3103 23.7964 30.6092 19.5272C30.7066 18.1371 30.2282 16.8271 29.5634 15.6978C26.94 15.2359 24.156 14.9535 22.5822 14.8578Z" fill="#03020D"/>
<path fill-rule="evenodd" clip-rule="evenodd" d="M17.992 19.3456C18.2049 18.8738 18.4748 18.4299 18.7956 18.0237C18.7589 17.9262 18.74 17.823 18.7397 17.7188C18.7397 17.2417 19.1331 16.8483 19.6103 16.8483C19.7203 16.8483 19.8292 16.8695 19.9312 16.9105C20.6681 16.3469 21.5197 15.9518 22.4259 15.753C23.332 15.5541 24.2708 15.5564 25.176 15.7597C25.3483 15.7991 25.5194 15.8452 25.6883 15.8986C23.8041 15.6373 21.8573 16.2149 20.4126 17.3805C20.4579 17.4877 20.4812 17.6028 20.4812 17.7188C20.4801 17.9494 20.388 18.1702 20.225 18.3332C20.062 18.4962 19.8412 18.5883 19.6107 18.5894C19.5046 18.5893 19.3994 18.5698 19.3003 18.5318C18.9707 18.9738 18.7052 19.4602 18.5115 19.9765C19.1974 20.7157 20.04 21.3005 20.98 21.6519C20.9779 21.607 20.9732 21.563 20.9732 21.5168C20.9726 20.859 21.2193 20.225 21.6642 19.7405C22.1091 19.2559 22.7198 18.9562 23.3753 18.9008C24.0308 18.8454 24.6832 19.0383 25.2031 19.4413C25.723 19.8443 26.0726 20.4279 26.1824 21.0765C26.8339 20.6592 27.4094 20.1338 27.8841 19.523C27.7678 19.3834 27.7039 19.2076 27.7033 19.0259C27.7046 18.8167 27.7883 18.6164 27.9363 18.4686C28.0843 18.3207 28.2846 18.2372 28.4938 18.2362C28.5552 18.2362 28.6145 18.2451 28.6725 18.2587C28.9159 17.7587 29.098 17.2311 29.2149 16.6874C26.948 15.009 22.5623 15.2381 22.5623 15.2381C22.5623 15.2381 19.0721 15.056 16.7095 16.2077C16.867 17.3467 17.3217 18.4297 17.992 19.3456Z" fill="#1287B1"/>
<path fill-rule="evenodd" clip-rule="evenodd" d="M29.0206 18.442C29.1874 18.5902 29.2831 18.8027 29.284 19.0263C29.2829 19.2355 29.1993 19.4358 29.0513 19.5837C28.9034 19.7316 28.7031 19.8152 28.4939 19.8164C28.4502 19.8155 28.4068 19.8109 28.3639 19.8028C27.8721 20.5714 27.2216 21.2258 26.456 21.7221C27.586 21.8992 28.6477 22.3763 29.5304 23.1037C30.1925 21.9184 30.5393 20.583 30.5377 19.2253C30.5377 18.1532 30.0643 17.3678 29.35 16.7915C29.3139 17.3538 29.2031 17.9088 29.0206 18.442ZM19.4998 25.844C19.8938 24.7536 20.5781 23.7915 21.4788 23.0614C21.3448 22.8779 21.2352 22.6778 21.1528 22.4661C20.0575 22.1323 19.0726 21.5092 18.302 20.6623C18.2964 20.6865 18.2892 20.7102 18.2837 20.7343C18.1443 21.3623 18.1111 22.0092 18.1855 22.6481C18.4472 22.698 18.6834 22.8373 18.8536 23.0423C19.0238 23.2472 19.1174 23.505 19.1183 23.7714C19.1182 23.9293 19.0855 24.0854 19.0221 24.23C18.9587 24.3746 18.866 24.5045 18.7499 24.6115C18.9559 25.0474 19.2073 25.4604 19.4998 25.8436" fill="#1287B1"/>
<path fill-rule="evenodd" clip-rule="evenodd" d="M19.3076 26.4775C18.8423 26.0149 18.4511 25.4834 18.1479 24.9016C18.0904 24.9108 18.0324 24.9156 17.9743 24.916H17.9726C17.6698 24.9146 17.3798 24.7937 17.1657 24.5796C16.9516 24.3655 16.8307 24.0755 16.8294 23.7728C16.8294 23.3345 17.0809 22.9331 17.4755 22.743C17.3599 21.8077 17.4543 20.8588 17.7511 19.965C17.029 18.9097 16.6434 17.6604 16.6452 16.3817C16.6452 16.333 16.6477 16.2852 16.6486 16.2373C15.4702 16.828 14.5865 17.7595 14.5865 19.2253C14.5865 22.4682 16.5228 25.2568 19.3017 26.5038L19.3076 26.4775ZM26.072 22.3869C25.892 22.8995 25.5573 23.3436 25.1142 23.6578C24.671 23.9721 24.1413 24.1411 23.598 24.1415C23.0102 24.1418 22.4394 23.9439 21.978 23.5797C21.058 24.2961 20.3636 25.2725 19.9397 26.3645C20.1303 26.5694 20.3331 26.7629 20.5465 26.9441C21.2046 27.1151 21.8819 27.2015 22.5619 27.2011C25.3636 27.2011 27.827 25.7547 29.2497 23.5691C28.3038 22.9137 27.2063 22.4907 26.0716 22.3865" fill="#1287B1"/>
<mask id="mask0_1031_1978" style="mask-type:alpha" maskUnits="userSpaceOnUse" x="18" y="16" width="11" height="11">
<path d="M18.3578 16.5405H28.5887V26.7621H18.3578V16.5405Z" fill="white"/>
</mask>
<g mask="url(#mask0_1031_1978)">
<path fill-rule="evenodd" clip-rule="evenodd" d="M26.1638 21.7095L28.5887 21.1311L26.1549 21.007L28.1356 19.4933L25.8877 20.2991L27.4154 18.182L25.3055 19.5844L26.0435 17.1066L24.5946 19.1487L24.5612 16.568L23.6081 18.8671L22.8133 16.54L22.8561 19.2804L21.4826 16.8246L22.2256 19.4328L19.9977 17.8124L21.743 20.0057L18.9768 18.9882L21.1599 20.6035L18.3603 20.6895L21.2226 21.4283L18.3578 22.0482L21.1862 22.2531L18.8011 23.7799L21.2569 22.8895L19.5531 25.0476L21.7061 23.3112L20.9304 26.2065L22.5927 23.8502L22.3599 26.6333L23.3032 24.1106L24.1064 26.762L24.3016 24.1026L25.4935 26.3721L24.7894 23.7761L26.9721 25.4668L25.563 23.3112L27.9578 24.244L26.1265 22.4445L28.5823 22.6376L26.1638 21.7095Z" fill="#03020D"/>
</g>
<path fill-rule="evenodd" clip-rule="evenodd" d="M19.6344 14.8767C20.3559 14.7365 20.4923 13.1606 20.4923 13.1606C20.4923 13.1606 20.593 14.322 21.0978 14.4731C21.6029 14.6243 22.2587 12.6563 22.2587 12.6563C22.2587 12.6563 21.6533 14.4228 22.2587 14.5235C22.8642 14.6243 23.9748 12.8074 23.9748 12.8074C23.9748 12.8074 23.5209 14.3719 23.8232 14.4727C24.126 14.5739 25.6401 12.2015 25.6401 12.2015C25.6401 12.2015 24.7319 13.766 25.5897 13.9176C26.448 14.0692 27.7 12.8502 27.7 12.8502C27.7 12.8502 26.7156 13.9655 27.1542 14.1196C29.0223 14.7759 30.533 12.3485 30.533 12.3485C30.533 12.3485 30.1829 13.4129 29.2747 14.5739C31.2427 15.0782 32.7043 12.1131 32.7043 12.1131L31.2427 15.0782C31.9997 15.4821 35.028 12 35.028 12C35.028 12 33.4639 14.7251 32.5553 15.2802C33.06 15.6841 34.8768 14.0692 34.8768 14.0692C34.8768 14.0692 33.4131 15.8861 33.9686 15.9873C34.776 16.6435 37.7539 12.6055 37.7539 12.6055C37.7539 12.6055 37.0951 14.673 35.3794 16.5407C36.8135 17.2583 39.8739 12.9586 39.8739 12.9586C39.8739 12.9586 39.7727 14.4228 37.1988 16.7443C39.1169 16.492 41.5896 12.8574 41.5896 12.8574C41.5896 12.8574 40.6814 15.5833 38.511 17.5014C40.3943 17.3053 43.4064 12.6559 43.4064 12.6559C43.4064 12.6559 42.2459 15.8865 39.8739 17.7537C42.4982 18.3338 46.2839 14.4228 46.2839 14.4228C46.2839 14.4228 44.7948 17.1982 42.8513 18.3338C45.0222 19.1667 48 15.7345 48 15.7345C48 15.7345 45.0222 20.3276 40.277 20.1257C38.721 20.0592 34.0126 15.403 23.9244 15.7853C10.5997 16.29 7.77385 21.9425 0.656738 25.7786C8.17694 18.258 14.183 15.9369 19.6336 14.8767H19.6344Z" fill="#373535"/>
<path fill-rule="evenodd" clip-rule="evenodd" d="M0 26.718C3.97498 28.7122 7.6087 26.4157 12.1892 27.7062C15.6713 28.6877 19.9118 29.8978 25.6655 29.0649C31.4192 28.2321 36.3397 25.734 38.6875 21.2674C39.4191 19.2736 42.3966 21.7213 42.3966 21.7213C42.3966 21.7213 40.2266 20.8131 40.277 21.242C40.3278 21.6709 43.5326 23.1601 43.5326 23.1601C43.5326 23.1601 40.6301 22.2514 40.8071 22.9331C40.9836 23.614 44.4412 26.3395 44.4412 26.3395C44.4412 26.3395 40.5293 23.3616 40.2016 23.7655C39.8735 24.169 41.8669 25.8098 41.8669 25.8098C41.8669 25.8098 38.5609 23.7655 37.3999 24.368C36.5649 24.8016 40.8321 27.6016 40.8321 27.6016C40.8321 27.6016 38.0562 25.4816 37.3999 26.0363C36.7436 26.5918 40.5293 31.1342 40.5293 31.1342C40.5293 31.1342 36.2389 26.4906 35.81 26.718C35.3815 26.9449 36.9964 29.1653 36.9964 29.1653C36.9964 29.1653 34.8764 26.8437 34.2959 27.2477C33.7158 27.6512 37.3241 33.6827 37.3241 33.6827C37.3241 33.6827 33.4126 27.5004 31.7982 28.5353C34.3344 34.0997 33.3881 34.8949 33.3881 34.8949C33.3881 34.8949 33.0642 29.2178 29.9051 29.3681C28.3152 29.4439 30.6622 33.6077 30.6622 33.6077C30.6622 33.6077 28.5023 29.8042 27.0636 29.88C29.715 34.8983 28.7695 36.9391 28.7695 36.9391C28.7695 36.9391 29.2077 32.6534 25.6117 30.2687C26.9742 31.4792 24.7568 36.9391 24.7568 36.9391C24.7568 36.9391 26.7079 28.8943 23.3185 30.4283C22.7829 30.6705 23.2804 34.441 23.2804 34.441C23.2804 34.441 22.5987 30.1256 21.5774 30.3525C20.9813 30.4846 17.7913 36.3336 17.7913 36.3336C17.7913 36.3336 20.4038 30.0121 19.6086 30.2772C19.0298 30.4698 17.9429 33.078 17.9429 33.078C17.9429 33.078 18.473 30.5037 17.9429 30.3525C17.4132 30.201 14.4603 33.078 14.4603 33.078C14.4603 33.078 16.6561 30.5037 16.2768 29.974C15.7035 29.1708 15.0311 29.1335 14.233 29.4443C13.072 29.8965 11.5079 32.0182 11.5079 32.0182C11.5079 32.0182 13.0673 29.8699 12.7951 29.0654C12.3573 27.7727 7.87375 31.5635 7.87375 31.5635C7.87375 31.5635 10.5239 29.0654 9.91798 28.5357C9.3125 28.0056 6.02387 28.1694 4.99667 28.1665C1.96844 28.1567 0.919225 27.4467 0 26.7184" fill="#373535"/>
</g>
<defs>
<clipPath id="clip0_1031_1978">
<rect width="48" height="48" fill="white"/>
</clipPath>
</defs>
</svg>
