<svg width="48" height="48" viewBox="0 0 48 48" fill="none" xmlns="http://www.w3.org/2000/svg">
<path d="M28.3567 5.33126C26.3411 2.95974 24.6054 0.513519 24.2695 0.0280101C24.2321 -0.0093367 24.1761 -0.0093367 24.1388 0.0280101C23.7842 0.532192 22.0486 2.95974 20.033 5.34993C2.75098 27.4032 22.7578 42.2859 22.7578 42.2859L22.9257 42.398C23.075 44.6948 23.4483 48 23.4483 48H24.1948H24.9413C24.9413 48 25.3146 44.7135 25.4639 42.398L25.6319 42.2673C25.6319 42.2673 45.6386 27.4032 28.3567 5.33126ZM24.1948 41.9498C24.1948 41.9498 23.299 41.1842 23.0564 40.7921V40.7547L24.1388 16.7407C24.1388 16.666 24.2508 16.666 24.2508 16.7407L25.3146 40.736V40.7734C25.072 41.1842 24.1948 41.9498 24.1948 41.9498Z" fill="#001E2B"/>
</svg>
