<svg width="48" height="48" viewBox="0 0 48 48" fill="none" xmlns="http://www.w3.org/2000/svg">
<g clip-path="url(#clip0_1031_1953)">
<path fill-rule="evenodd" clip-rule="evenodd" d="M36.4733 3.47601C30.996 0.0924392 24.132 -0.836597 17.9216 0.757597C8.5599 3.086 1.13457 11.5745 0.183618 21.1982C-0.996453 30.3057 3.59819 39.7916 11.4705 44.4945C19.1936 49.3352 29.6551 49.1404 37.2181 44.0474C44.0131 39.6313 48.2413 31.5789 47.9893 23.4579C47.8746 15.4168 43.3715 7.60541 36.4733 3.47601ZM43.763 21.3754C42.5793 9.13019 28.5569 0.687525 17.1248 5.26013C8.97469 8.11523 3.28111 16.6802 4.07356 25.3126C4.37497 35.9743 14.6463 44.9742 25.2746 43.9151C36.4502 43.5914 45.6051 32.3943 43.763 21.3754Z" fill="#010101"/>
<path fill-rule="evenodd" clip-rule="evenodd" d="M22.4985 25.2402C24.9167 25.2402 27.3237 25.2402 29.7307 25.2746C24.4605 29.5294 19.3613 33.9895 14 38.1305C16.8061 33.8186 19.6924 29.5522 22.4985 25.2402Z" fill="#010101"/>
<path fill-rule="evenodd" clip-rule="evenodd" d="M18.0728 22.8559C23.3086 18.5783 28.4302 14.1522 33.7807 10C30.9742 14.3119 28.0883 18.5668 25.2822 22.8787C22.8752 22.8903 20.4682 22.8903 18.0728 22.8559Z" fill="#010101"/>
</g>
<defs>
<clipPath id="clip0_1031_1953">
<rect width="48" height="48" fill="white"/>
</clipPath>
</defs>
</svg>
