<svg width="48" height="48" viewBox="0 0 48 48" fill="none" xmlns="http://www.w3.org/2000/svg">
  <defs>
    <clipPath id="clip0_1031_1970">
      <rect width="48" height="48" fill="white" />
    </clipPath>
  </defs>
  <g clip-path="url(#clip0_1031_1970)">
    <path fill-rule="evenodd" clip-rule="evenodd"
      d="M16.8362 17.3228L6.67871 11.4738C5.25173 10.6499 4.75878 8.82962 5.5847 7.40618C6.41061 5.98274 8.23542 5.49532 9.66239 6.31919L15.4309 9.64054V2.96765C15.4309 1.32854 16.7627 0 18.4059 0C20.0447 0 21.3766 1.32854 21.3766 2.96765V14.6916C21.3766 15.5543 21.009 16.3307 20.4166 16.8742C19.4826 17.7843 18.021 18.0086 16.8362 17.3228ZM15.9887 24.0386C16.006 22.9818 15.4482 21.9984 14.5315 21.4678L4.37399 15.6188C3.93292 15.3643 3.42699 15.2306 2.92107 15.2306C1.87894 15.2306 0.910321 15.787 0.39142 16.6842C-0.412877 18.0732 0.0671074 19.8546 1.45949 20.6569L7.31443 24.0257L1.45949 27.3988C0.78492 27.787 0.300612 28.4125 0.101701 29.163C-0.101536 29.9135 0.00224443 30.6986 0.39142 31.3715C0.910321 32.2687 1.87894 32.8251 2.91674 32.8251C3.42699 32.8251 3.93292 32.6914 4.37399 32.4369L14.5315 26.5879C15.4396 26.0616 15.9974 25.0868 15.9887 24.0386ZM41.2505 36.5824L31.093 30.7291C29.666 29.9095 27.8412 30.3969 27.0153 31.8204C26.6953 32.3811 26.5699 32.9979 26.6305 33.5975V45.0368C26.6305 46.6716 27.9623 48.0001 29.6055 48.0001C31.2444 48.0001 32.5762 46.6716 32.5762 45.0368V38.4588L38.2668 41.737C39.6938 42.5608 41.5229 42.0691 42.3445 40.6457C43.1705 39.2222 42.6818 37.402 41.2505 36.5824ZM29.519 24.5131C29.519 24.7374 29.3893 25.048 29.2293 25.2119L25.2035 29.2277C25.0435 29.3873 24.7278 29.5167 24.503 29.5167H23.4781C23.2533 29.5167 22.9376 29.3873 22.7776 29.2277L18.7475 25.2119C18.5875 25.048 18.4578 24.7374 18.4578 24.5131V23.4909C18.4578 23.2622 18.5875 22.9517 18.7475 22.7921L22.7776 18.772C22.9376 18.6124 23.2533 18.483 23.4781 18.483H24.503C24.7278 18.483 25.0435 18.6124 25.2035 18.772L29.2293 22.7921C29.3893 22.9517 29.519 23.2622 29.519 23.4909V24.5131ZM25.9256 24.0214V23.9783C25.9256 23.8144 25.8305 23.5858 25.7137 23.465L24.5246 22.2831C24.4078 22.1623 24.1787 22.0674 24.01 22.0674H23.9668C23.8025 22.0674 23.5733 22.1623 23.4522 22.2831L22.2674 23.465C22.1506 23.5814 22.0555 23.8101 22.0555 23.9783V24.0214C22.0555 24.1896 22.1506 24.4182 22.2674 24.5347L23.4522 25.7209C23.5733 25.8374 23.8025 25.9323 23.9668 25.9323H24.01C24.1787 25.9323 24.4078 25.8374 24.5246 25.7209L25.7137 24.5347C25.8305 24.4182 25.9256 24.1896 25.9256 24.0214ZM41.2506 11.4738L31.0931 17.3228C29.6661 18.1467 27.8413 17.6592 27.0154 16.2358C26.6911 15.675 26.5744 15.0539 26.6306 14.4587V2.96765C26.6306 1.32854 27.9624 0 29.6056 0C31.2445 0 32.5763 1.32854 32.5763 2.96765V9.59741L38.2669 6.31919C39.6939 5.49532 41.5187 5.98274 42.3446 7.40618C43.1706 8.82962 42.6776 10.6542 41.2506 11.4738ZM18.8729 30.3839C18.1983 30.2545 17.4762 30.3623 16.8362 30.7289L6.67872 36.5823C5.25174 37.4018 4.75878 39.2221 5.5847 40.6455C6.41062 42.0733 8.23542 42.5607 9.6624 41.7369L15.4309 38.4155V45.0366C15.4309 46.6714 16.7627 48 18.4059 48C20.0448 48 21.3766 46.6714 21.3766 45.0366V33.3127C21.3766 31.8332 20.2912 30.6082 18.8729 30.3839ZM43.5207 15.5586C44.9477 14.7347 46.7768 15.2221 47.5984 16.6499C48.4244 18.0733 47.9357 19.8936 46.5044 20.7132L40.7533 24.0259L46.5044 27.3386C47.9314 28.1625 48.4244 29.9827 47.5984 31.4062C46.7725 32.8296 44.9477 33.317 43.5207 32.4975L33.3632 26.6441C32.3989 26.092 31.8627 25.0784 31.8714 24.0388C31.8541 22.995 32.3903 21.9684 33.3632 21.4076L43.5207 15.5586Z"
      fill="#29B5E8" />
  </g>
</svg>