<svg width="48" height="48" viewBox="0 0 48 48" fill="none" xmlns="http://www.w3.org/2000/svg">
<path d="M42.8277 45.896V2.05773H39.6799V1.00562H44.0494V46.9999H39.6799V45.9477L42.8277 45.896Z" fill="#040404"/>
<path d="M15.7057 15.9999V18.2133H15.7689C16.3223 17.4027 17.0524 16.7329 17.9105 16.2442C18.7442 15.78 19.7072 15.5471 20.7708 15.5471C21.8057 15.5471 22.7543 15.7483 23.6023 16.1508C24.4575 16.5518 25.1115 17.259 25.5571 18.278C26.0429 17.5594 26.7012 16.9255 27.5406 16.3808C28.3742 15.8303 29.366 15.5557 30.5014 15.5557C31.3667 15.5557 32.1687 15.6621 32.9018 15.872C33.6405 16.0847 34.273 16.4224 34.799 16.8881C35.3251 17.3524 35.7376 17.9604 36.0337 18.7135C36.3283 19.4638 36.4764 20.3665 36.4764 21.4301V32.3968H31.9776V23.1117C31.9776 22.5612 31.956 22.0438 31.9143 21.5594C31.8843 21.1182 31.7663 20.687 31.5665 20.2917C31.3753 19.9309 31.0836 19.6334 30.7271 19.4351C30.3577 19.2252 29.8561 19.1189 29.2179 19.1189C28.5855 19.1189 28.0738 19.241 27.68 19.4825C27.289 19.7268 26.9829 20.0431 26.7615 20.434C26.533 20.8465 26.3821 21.2993 26.3188 21.7664C26.2441 22.2652 26.2067 22.7682 26.2067 23.2756V32.4026H21.7079V23.2037C21.7079 22.7179 21.6979 22.2364 21.6777 21.7664C21.6613 21.3151 21.5701 20.871 21.4075 20.4498C21.2523 20.0517 20.9763 19.7139 20.617 19.4825C20.2462 19.241 19.7029 19.1189 18.9784 19.1189C18.6939 19.1308 18.4121 19.1792 18.139 19.2626C17.7682 19.3697 17.4233 19.5529 17.1257 19.8001C16.798 20.0646 16.5192 20.4455 16.2863 20.9414C16.0549 21.4387 15.9385 22.0884 15.9385 22.8961V32.4112H11.4397V16.0257L15.7057 15.9999Z" fill="#040404"/>
<path d="M5.22172 2.10386V45.9421H8.36945V46.9943H4V1H8.35508V2.05212L5.22172 2.10386Z" fill="#040404"/>
</svg>
