<svg width="48" height="48" viewBox="0 0 48 48" fill="none" xmlns="http://www.w3.org/2000/svg">
<g clip-path="url(#clip0_1031_1965)">
<path fill-rule="evenodd" clip-rule="evenodd" d="M44 2H4C2.89543 2 2 2.89543 2 4V44C2 45.1046 2.89543 46 4 46H44C45.1046 46 46 45.1046 46 44V4C46 2.89543 45.1046 2 44 2ZM4 0C1.79086 0 0 1.79086 0 4V44C0 46.2091 1.79086 48 4 48H44C46.2091 48 48 46.2091 48 44V4C48 1.79086 46.2091 0 44 0H4Z" fill="#03020D"/>
<path d="M15.62 30.9998L18.26 20.9398L20.92 30.9998H23.4L27.28 16.7998H24.64L22.16 26.9998L19.5 16.7998H17.04L14.36 26.9998L11.9 16.7998H9.26001L13.14 30.9998H15.62Z" fill="black"/>
<path d="M31.7152 30.9998V25.0198H34.4952C37.3552 25.0198 38.9752 23.1998 38.9752 20.8998C38.9752 18.5398 37.3552 16.7998 34.4952 16.7998H29.1352V30.9998H31.7152ZM34.2952 19.1398C35.4752 19.1398 36.3552 19.7198 36.3552 20.8998C36.3552 22.0598 35.4752 22.6798 34.2952 22.6798H31.7152V19.1398H34.2952Z" fill="black"/>
</g>
<defs>
<clipPath id="clip0_1031_1965">
<rect width="48" height="48" fill="white"/>
</clipPath>
</defs>
</svg>
