<svg width="48" height="48" viewBox="0 0 48 48" fill="none" xmlns="http://www.w3.org/2000/svg">
  <defs>
    <linearGradient id="paint0_linear_1031_1992" x1="-9.9392" y1="57.9392" x2="57.9392" y2="-9.9392"
      gradientUnits="userSpaceOnUse">
      <stop stop-color="#B0084D" />
      <stop offset="1" stop-color="#FF4F8B" />
    </linearGradient>
    <clipPath id="clip0_1031_1992">
      <rect width="48" height="48" fill="white" />
    </clipPath>
  </defs>
  <g clip-path="url(#clip0_1031_1992)">
    <path d="M48 0H0V48H48V0Z" fill="url(#paint0_linear_1031_1992)" />
    <path
      d="M24.0704 38.5474C21.6305 38.5465 19.2306 37.9278 17.0944 36.749L17.7344 35.629C20.297 37.0316 23.2515 37.5474 26.1377 37.096C29.024 36.6446 31.6799 35.2515 33.692 33.1335C35.7041 31.0156 36.9592 28.2917 37.2621 25.3861C37.5649 22.4806 36.8984 19.5564 35.3664 17.069L34.7264 20.269L33.4464 20.0194L34.3744 15.3602C34.4069 15.194 34.504 15.0475 34.6444 14.9527C34.7847 14.858 34.9569 14.8227 35.1232 14.8546L39.8208 15.7826L39.5712 17.0626L36.4352 16.4226C37.7808 18.6238 38.5165 21.1433 38.5669 23.7227C38.6173 26.3021 37.9805 28.8484 36.7219 31.1004C35.4634 33.3524 33.6283 35.2291 31.405 36.5378C29.1817 37.8465 26.6503 38.5401 24.0704 38.5474ZM12.9792 32.9666C12.9261 32.9729 12.8724 32.9729 12.8192 32.9666L8.1792 31.8018L8.4928 30.5602L11.4752 31.309C9.87556 28.5676 9.21814 25.3776 9.60353 22.2271C9.98893 19.0766 11.3959 16.1392 13.6092 13.8642C15.8225 11.5892 18.7202 10.102 21.8589 9.63013C24.9976 9.15828 28.2045 9.72776 30.9888 11.2514L30.3488 12.3714C27.796 10.9898 24.8599 10.4853 21.9923 10.9355C19.1247 11.3858 16.4844 12.7658 14.4778 14.8633C12.4713 16.9608 11.2095 19.6595 10.8867 22.5443C10.5639 25.429 11.1979 28.3399 12.6912 30.829L13.5232 27.5202L14.7648 27.8274L13.6 32.4674C13.5682 32.6086 13.4895 32.7347 13.3767 32.8254C13.264 32.9161 13.1239 32.9658 12.9792 32.9666ZM29.1328 30.2082C28.5656 30.2078 28.0146 30.019 27.5663 29.6715C27.118 29.324 26.7978 28.8374 26.656 28.2882H21.376C21.2563 28.7517 21.0092 29.1722 20.6625 29.5023C20.3159 29.8323 19.8837 30.0586 19.415 30.1553C18.9463 30.2521 18.4598 30.2156 18.0108 30.0498C17.5618 29.8841 17.1682 29.5958 16.8748 29.2177C16.5814 28.8396 16.3998 28.3867 16.3508 27.9107C16.3017 27.4346 16.3871 26.9542 16.5972 26.5242C16.8074 26.0942 17.1339 25.7317 17.5396 25.4779C17.9454 25.2241 18.4142 25.0891 18.8928 25.0882C19.1261 25.088 19.3585 25.1181 19.584 25.1778L22.2592 20.5442C21.8872 20.192 21.6294 19.7363 21.5192 19.236C21.4089 18.7358 21.4513 18.2139 21.6409 17.738C21.8304 17.262 22.1584 16.8539 22.5824 16.5664C23.0064 16.2789 23.5069 16.1252 24.0192 16.1252C24.5315 16.1252 25.032 16.2789 25.456 16.5664C25.88 16.8539 26.208 17.262 26.3975 17.738C26.5871 18.2139 26.6295 18.7358 26.5192 19.236C26.409 19.7363 26.1512 20.192 25.7792 20.5442L28.4544 25.1778C28.6758 25.119 28.9038 25.0889 29.1328 25.0882C29.8118 25.0882 30.4629 25.3579 30.943 25.838C31.4231 26.3181 31.6928 26.9693 31.6928 27.6482C31.6928 28.3272 31.4231 28.9783 30.943 29.4584C30.4629 29.9385 29.8118 30.2082 29.1328 30.2082ZM29.1328 26.3682C28.8796 26.3682 28.6322 26.4433 28.4217 26.584C28.2112 26.7246 28.0471 26.9245 27.9502 27.1584C27.8534 27.3923 27.828 27.6497 27.8774 27.8979C27.9268 28.1462 28.0487 28.3743 28.2277 28.5533C28.4067 28.7323 28.6348 28.8542 28.8831 28.9036C29.1314 28.953 29.3887 28.9277 29.6226 28.8308C29.8565 28.7339 30.0564 28.5699 30.1971 28.3594C30.3377 28.1489 30.4128 27.9014 30.4128 27.6482C30.4128 27.3088 30.2779 26.9832 30.0379 26.7431C29.7979 26.5031 29.4723 26.3682 29.1328 26.3682ZM18.8928 26.3682C18.6396 26.3682 18.3922 26.4433 18.1817 26.584C17.9712 26.7246 17.8071 26.9245 17.7102 27.1584C17.6134 27.3923 17.588 27.6497 17.6374 27.8979C17.6868 28.1462 17.8087 28.3743 17.9877 28.5533C18.1667 28.7323 18.3948 28.8542 18.6431 28.9036C18.8914 28.953 19.1487 28.9277 19.3826 28.8308C19.6165 28.7339 19.8164 28.5699 19.9571 28.3594C20.0977 28.1489 20.1728 27.9014 20.1728 27.6482C20.1728 27.4801 20.1397 27.3137 20.0754 27.1584C20.011 27.0031 19.9168 26.862 19.7979 26.7431C19.679 26.6243 19.5379 26.53 19.3826 26.4657C19.2273 26.4013 19.0609 26.3682 18.8928 26.3682ZM21.376 27.0082H26.656C26.7723 26.5535 27.0114 26.1395 27.3472 25.8114L24.6592 21.1586C24.2394 21.267 23.799 21.267 23.3792 21.1586L20.6976 25.8178C21.0287 26.1474 21.2633 26.5613 21.376 27.0146V27.0082ZM24.0128 17.4082C23.7596 17.4082 23.5122 17.4833 23.3017 17.624C23.0912 17.7646 22.9271 17.9645 22.8302 18.1984C22.7334 18.4323 22.708 18.6897 22.7574 18.938C22.8068 19.1862 22.9287 19.4143 23.1077 19.5933C23.2867 19.7723 23.5148 19.8943 23.7631 19.9436C24.0114 19.993 24.2687 19.9677 24.5026 19.8708C24.7365 19.7739 24.9364 19.6099 25.0771 19.3994C25.2177 19.1889 25.2928 18.9414 25.2928 18.6882C25.2928 18.3488 25.1579 18.0232 24.9179 17.7831C24.6779 17.5431 24.3523 17.4082 24.0128 17.4082Z"
      fill="white" />
  </g>
</svg>