<svg width="48" height="48" viewBox="0 0 48 48" fill="none" xmlns="http://www.w3.org/2000/svg">
<path d="M26.2801 23.0566C29.5188 24.5346 32.9096 25.7491 35.7521 27.9597C39.4299 30.8193 39.205 35.1761 35.2508 37.8793C31.3331 40.5589 26.942 42.099 22.3089 43.0222C21.2786 43.2279 20.1969 43.1957 19.218 43.6455C16.5705 43.6455 13.9229 43.6455 11.2776 43.6455C10.8278 43.2279 10.1637 43.5042 9.58325 43.0565C11.8945 41.6021 14.1243 40.5289 17.0353 41.1158C20.3961 41.7927 23.849 41.8441 27.2355 41.0537C29.6581 40.4882 31.5859 39.263 32.3741 36.7247C32.4855 36.367 32.7383 35.9922 32.3142 35.6602C32.2392 35.1846 32.6719 34.9747 32.8497 34.6299C34.6361 31.7874 33.6315 29.2149 31.0675 26.8608C29.8808 25.7727 28.5357 24.8773 27.1369 24.072C26.8199 23.7592 26.2544 23.6543 26.2801 23.0566Z" fill="#B5CE87"/>
<path d="M8.47161 37.0142C5.56063 36.4958 2.70749 35.7761 0 34.4416C2.16985 34.0132 4.17262 32.8223 6.5588 33.9061C9.70754 35.337 13.0191 36.3523 16.4977 36.6864C18.3527 36.8642 20.1477 36.6607 21.7456 35.6518C24.4916 33.919 25.2221 30.4661 23.5213 27.6622C23.2278 27.1781 22.7459 26.8161 22.6067 26.2335C23.1165 25.955 23.4378 26.3663 23.819 26.5612C24.7123 27.3259 25.6697 28.022 26.4387 28.9217C27.7453 30.4489 28.4907 32.1668 28.1866 34.2296C28.0923 34.5144 28.0002 34.8015 27.771 35.0157C26.5479 35.8703 25.1364 36.2409 23.7227 36.6265C19.6143 37.7489 15.431 37.9031 11.2134 37.6589C10.7229 37.479 10.1981 37.5154 9.69255 37.419C9.42909 37.3526 9.16562 37.2776 8.89359 37.2412C8.73293 37.2069 8.58728 37.1384 8.47161 37.0142Z" fill="#EBE881"/>
<path d="M27.7603 34.851C27.8396 34.6282 27.9167 34.4076 27.996 34.1848C29.0391 33.6108 29.6132 32.6619 30.0523 31.6059C30.1958 31.2588 30.2086 30.8262 30.6692 30.6934C31.6781 30.9932 31.9801 31.8993 32.3806 32.7111C32.7105 33.3837 32.824 34.1206 32.9525 34.8488C32.7383 35.1187 32.5241 35.3886 32.3099 35.6585C30.4635 37.4964 28.0559 38.2203 25.6676 38.9465C18.6954 41.0606 11.6889 41.1249 4.66528 39.1864C4.49606 39.1393 4.32899 39.0771 4.16405 39.0172C4.13621 39.0065 4.12121 38.9658 4.03125 38.8565C4.63529 38.411 5.35715 38.2825 6.02974 38.049C6.70232 37.8155 7.38562 37.6056 8.06464 37.3871C8.35809 37.3271 8.62156 37.1836 8.91073 37.1129C9.16991 37.1344 9.39696 37.265 9.64757 37.3186C9.96887 37.34 10.2773 37.4492 10.6029 37.4407C13.923 38.3017 17.2474 39.1264 20.7174 39.0643C21.8013 39.045 22.853 38.8437 23.8662 38.4881C25.267 37.9997 26.3552 37.1086 27.0728 35.7935C27.2612 35.4486 27.4283 35.0909 27.7603 34.851Z" fill="#689A68"/>
<path d="M8.92779 37.2366C8.64077 37.2859 8.3516 37.3352 8.06458 37.3844C8.20166 37.2602 8.33661 37.1381 8.47155 37.0139C8.61506 37.0139 8.75858 37.0117 8.90423 37.0117C8.98349 37.0546 9.01133 37.0995 8.9942 37.1531C8.97278 37.2088 8.95136 37.2366 8.92779 37.2366Z" fill="#FBFAE3"/>
<path d="M27.7604 34.8496C26.8564 37.6749 24.5881 39.2065 21.0516 39.3328C17.3974 39.4635 13.8888 38.6774 10.4294 37.5978C10.528 37.1159 10.83 37.3515 11.0849 37.4115C15.5745 37.5593 20.0299 37.4072 24.391 36.1477C25.5562 35.8114 26.6379 35.2823 27.7604 34.8496Z" fill="#FEFEFE"/>
<path d="M11.0847 37.412C10.8555 37.4355 10.6028 37.3755 10.4293 37.5983C10.1358 37.5233 9.84452 37.4462 9.55106 37.3713L9.49109 37.2877L9.55963 37.2106C10.0716 37.2535 10.6114 37.0842 11.0847 37.412Z" fill="#FBFBF7"/>
<path d="M9.55974 37.2101C9.56189 37.2637 9.55974 37.3172 9.55118 37.3708C9.3434 37.3258 9.13563 37.2808 8.92786 37.2337C8.91929 37.1587 8.91286 37.0837 8.9043 37.0109C9.14848 36.9916 9.39695 36.9595 9.55974 37.2101Z" fill="#F5F3BD"/>
<path d="M20.9509 25.1705C17.9949 23.9367 14.9747 22.8336 12.3679 20.8972C8.6151 18.1083 8.61724 13.6637 12.4514 10.9776C16.8297 7.91024 21.7841 6.27589 27.0213 5.44694C30.7077 4.86217 34.4026 4.84289 38.0954 5.43837C38.1854 5.45336 38.2689 5.50049 38.5303 5.59688C36.9195 6.49652 35.4329 7.30191 33.8093 7.83741C32.7233 8.40076 31.6416 7.86954 30.5792 7.76458C27.1327 7.424 23.6905 7.092 20.2997 8.07517C17.7957 8.80131 16.0136 10.2814 15.6087 13.0275C15.5659 13.2502 15.4866 13.4623 15.3838 13.6637C13.2632 16.6753 13.9658 18.9994 16.8404 21.814C17.9821 22.93 19.3637 23.7696 20.7281 24.6029C20.893 24.7592 21.0173 24.9284 20.9509 25.1705Z" fill="#B5CE87"/>
<path d="M38.9693 11.6437C42.073 12.1535 45.0782 13.0038 47.9999 14.259C46.1642 15.3365 43.1633 15.5592 41.2783 14.7796C37.9732 13.413 34.6081 12.2092 31.0139 11.9628C27.7216 11.7379 24.4829 12.8603 23.609 16.6345C23.1806 18.4916 23.7782 20.156 24.8342 21.6811C24.9949 21.9124 25.1341 22.1587 25.284 22.3965C24.4572 22.6643 23.9603 22.0088 23.3369 21.7025C22.1396 20.5372 20.8244 19.4834 20.1775 17.8533C19.6634 16.5574 19.3764 15.2658 19.8412 13.8949C19.929 13.6571 20.0811 13.4751 20.3039 13.3551C22.945 12.0614 25.7917 11.5366 28.6684 11.166C31.7636 10.7676 34.8652 10.7933 37.9604 11.2196C38.3138 11.3202 38.6758 11.3995 38.9693 11.6437Z" fill="#EBE881"/>
<path d="M23.6627 26.7212C23.3115 26.5605 22.9602 26.3977 22.6089 26.2349C22.0562 25.8794 21.5036 25.5238 20.951 25.1704C20.8696 25.0504 20.786 24.9326 20.7046 24.8126C18.9846 23.4332 17.6159 21.8139 17.1554 19.5798C17.0547 19.0935 16.9197 18.6094 17.1982 18.136C17.4038 17.9625 17.6137 18.0525 17.7744 18.1832C19.5116 19.6076 21.6107 20.4066 23.5171 21.5375C24.1061 21.8224 24.6952 22.1095 25.2842 22.3965C25.6162 22.6171 25.9504 22.8377 26.2824 23.0562C26.5801 23.3197 26.8779 23.5831 27.1756 23.8445C28.6343 24.9262 29.776 26.2799 30.425 27.9721C30.7185 28.7389 31.2925 29.6043 30.4593 30.4311C30.2323 30.4761 30.033 30.3925 29.8617 30.264C27.9382 28.8289 25.6827 27.9807 23.6627 26.7212Z" fill="#4A8D40"/>
<path d="M30.3779 30.3393C30.8898 29.4782 30.44 28.6835 30.123 27.9402C29.6046 26.7343 28.8721 25.6483 27.8996 24.7379C27.6211 24.4766 27.2784 24.2517 27.1735 23.8447C29.3112 25.0057 31.2861 26.3723 32.7684 28.3493C34.3899 30.5128 34.4434 32.6569 32.9547 34.8482C32.552 34.6789 32.5906 34.3084 32.5049 33.9614C32.1943 32.7083 31.7445 31.5173 30.5921 30.7591C30.4015 30.682 30.2708 30.5706 30.3779 30.3393Z" fill="#4C8F4C"/>
<path d="M30.3778 30.3389C30.4485 30.4781 30.5192 30.6195 30.592 30.7587C30.275 32.0504 29.686 33.1856 28.6749 34.0746C28.4757 34.2502 28.2872 34.5565 27.9981 34.1817C28.2101 31.3371 26.8093 29.3065 24.7037 27.625C24.346 27.338 24.0118 27.021 23.6648 26.7168C26.0874 27.5822 28.3129 28.8117 30.3778 30.3389Z" fill="#61944A"/>
<path d="M20.225 13.6144C20.1607 13.7536 20.0965 13.8929 20.0343 14.0321C19.0704 15.0945 18.0144 16.0906 17.646 17.56C17.5946 17.7635 17.4339 17.9198 17.2026 17.967C15.8424 17.2901 15.0006 15.4972 15.1549 13.6101C15.2213 13.4752 15.2877 13.3381 15.3541 13.2031C15.8767 12.0272 16.9648 11.4831 18.023 11.0076C22.9496 8.7842 28.1247 7.7282 33.5397 7.91455C33.6575 7.91884 33.7367 7.97024 33.8138 8.04735C33.8631 8.09019 33.9081 8.08805 33.9531 8.03878C34.6792 8.26798 35.4396 7.99809 36.1657 8.19515C38.7811 8.51003 41.3858 8.88274 44.0397 9.73525C43.2108 10.335 42.3518 10.5042 41.5443 10.7698C40.7004 11.0462 39.8264 11.2325 38.9632 11.4574C38.6055 11.7059 38.3099 11.4424 37.9929 11.3439C35.7095 10.9733 33.5054 10.2215 31.207 9.92161C29.1571 9.656 27.1201 9.42252 25.0573 9.91518C23.2773 10.3414 21.7993 11.1318 20.9147 12.809C20.7455 13.1303 20.5184 13.4024 20.225 13.6144Z" fill="#689A68"/>
<path d="M17.2859 18.1097C17.2238 20.361 18.3312 22.0917 19.7513 23.6875C20.0769 24.0538 20.5353 24.3108 20.7045 24.812C18.3462 23.5161 16.1549 22.021 14.7241 19.6541C13.4474 17.5442 13.668 15.5286 15.1546 13.6094C15.4202 14.796 15.5937 16.0106 16.4012 17.0087C16.669 17.3386 16.9068 17.6835 17.2859 17.8977C17.3352 17.9448 17.3523 17.9919 17.3352 18.039C17.318 18.0862 17.303 18.1097 17.2859 18.1097Z" fill="#4C8F4C"/>
<path d="M17.2861 18.1106C17.2839 18.0399 17.2839 17.9692 17.2839 17.8985C17.7402 16.2813 18.4578 14.8526 20.0343 14.0322C19.5266 16.6862 20.5462 18.7575 22.4762 20.4925C22.8403 20.8202 23.303 21.058 23.515 21.5378C21.3902 20.9273 19.5416 19.7963 17.783 18.4962C17.6159 18.3719 17.4532 18.2391 17.2861 18.1106Z" fill="#61944A"/>
<path d="M38.104 11.2686C38.3911 11.3307 38.676 11.3949 38.963 11.4571C38.963 11.5192 38.9651 11.5813 38.9694 11.6434C38.6652 11.652 38.3482 11.7334 38.1019 11.4656C38.0291 11.4206 38.0055 11.3757 38.0291 11.3328C38.0526 11.29 38.0783 11.2686 38.104 11.2686Z" fill="#FBFAE6"/>
<path d="M36.1634 8.19695C35.4222 8.19695 34.6747 8.27407 33.9507 8.04058C34.6875 8.09199 35.4479 7.82423 36.1634 8.19695Z" fill="#FEFEFE"/>
<path d="M33.8114 8.04802C29.0904 8.16583 24.4594 8.78915 20.0126 10.4813C18.3012 11.1325 16.6947 11.9336 15.3538 13.2059C15.4309 10.7491 17.228 8.63921 19.9548 7.83168C22.8379 6.97703 25.781 7.02415 28.7327 7.29404C30.4292 7.44826 32.1192 7.65818 33.8135 7.84239C33.8114 7.90879 33.8114 7.97734 33.8114 8.04802Z" fill="#FEFEFE"/>
<path d="M38.1042 11.2676C38.102 11.334 38.102 11.4004 38.102 11.4647C36.05 11.2847 33.9937 11.1519 31.9309 11.2398C28.0475 11.4026 24.2369 11.9423 20.6405 13.5338C20.5162 13.5895 20.3663 13.5874 20.2271 13.6131C21.116 11.0577 23.0695 9.90101 25.6099 9.50688C28.9707 8.98637 32.2094 9.72108 35.4395 10.4901C36.337 10.7043 37.2153 11.0063 38.1042 11.2676Z" fill="#FEFEFE"/>
</svg>
