<svg width="48" height="48" viewBox="0 0 48 48" fill="none" xmlns="http://www.w3.org/2000/svg">
<path fill-rule="evenodd" clip-rule="evenodd" d="M29.7114 6.87939C30.5508 6.87939 31.2314 7.54402 31.2314 8.36359C31.2314 9.18316 30.5508 9.84778 29.7114 9.84778C28.8726 9.84778 28.1919 9.18316 28.1919 8.36359C28.1919 7.54402 28.8726 6.87939 29.7114 6.87939ZM18.2876 6.87939C19.127 6.87939 19.8076 7.54402 19.8076 8.36359C19.8076 9.18316 19.127 9.84778 18.2876 9.84778C17.4482 9.84778 16.7676 9.18316 16.7676 8.36359C16.7676 7.54402 17.4482 6.87939 18.2876 6.87939ZM42.0323 15.3047C43.6646 15.3047 44.9999 16.6085 44.9999 18.2023V29.7919C44.9999 31.3857 43.6646 32.689 42.0323 32.689C40.4 32.689 39.0642 31.3857 39.0642 29.7919V18.2023C39.0642 16.6085 40.4 15.3047 42.0323 15.3047ZM5.96709 15.3047C7.59886 15.3047 8.93418 16.6085 8.93418 18.2023V29.7919C8.93418 31.3857 7.59886 32.689 5.96709 32.689C4.33481 32.689 3 31.3857 3 29.7919V18.2023C3 16.6085 4.33481 15.3047 5.96709 15.3047ZM21.5908 38.6617V45.1022C21.5908 46.696 20.2555 47.9998 18.6232 47.9998C16.9915 47.9998 15.6561 46.696 15.6561 45.1022V38.6617H13.1666C11.8456 38.6617 10.7644 37.606 10.7644 36.3161V15.2051H37.2345V36.3161C37.2345 37.606 36.1533 38.6617 34.8318 38.6617H32.3428V45.1022C32.3428 46.696 31.008 47.9998 29.3757 47.9998C27.7439 47.9998 26.4091 46.696 26.4091 45.1022V38.6617H21.5908ZM23.9992 2.95653C25.9974 2.95653 27.8899 3.31524 29.588 3.95695L32.0877 0.198386C32.2209 -0.00339276 32.4979 -0.0606879 32.7051 0.0703437C32.9117 0.201375 32.9704 0.471908 32.8357 0.673687L30.4227 4.30222C34.4154 6.10178 37.135 9.52554 37.2131 13.4679H10.7864C10.8639 9.52554 13.5841 6.10178 17.5767 4.30222L15.1633 0.673687C15.0291 0.471908 15.0878 0.201375 15.2944 0.0703437C15.5016 -0.0606879 15.7781 -0.00339276 15.9123 0.198386L18.4115 3.95695C20.1091 3.31574 22.0021 2.95653 23.9992 2.95653Z" fill="#ABC43E"/>
</svg>
