<svg width="48" height="48" viewBox="0 0 48 48" fill="none" xmlns="http://www.w3.org/2000/svg">
  <defs>
    <clipPath id="clip0_1031_1890">
      <rect width="48" height="48" fill="white" />
    </clipPath>
  </defs>
  <g clip-path="url(#clip0_1031_1890)">
    <path fill-rule="evenodd" clip-rule="evenodd"
      d="M1.48145 38.4608H18.201C18.201 38.4608 15.0053 23.8788 25.5873 17.974C27.8941 16.8523 35.2381 12.6618 47.2592 21.5507C47.6402 21.2333 48 20.9793 48 20.9793C48 20.9793 36.9947 9.99516 24.7407 11.2227C18.582 11.7729 11.0053 17.3814 6.56081 24.7888C2.11637 32.1962 1.48145 38.4608 1.48145 38.4608Z"
      fill="#CC0000" />
    <path fill-rule="evenodd" clip-rule="evenodd"
      d="M1.48145 38.4608H18.201C18.201 38.4608 15.0053 23.8788 25.5873 17.974C27.8941 16.8523 35.2381 12.6618 47.2592 21.5507C47.6402 21.2333 48 20.9793 48 20.9793C48 20.9793 36.9947 9.99516 24.7407 11.2227C18.582 11.7729 11.0053 17.3814 6.56081 24.7888C2.11637 32.1962 1.48145 38.4608 1.48145 38.4608Z"
      fill="#CC0000" />
    <path fill-rule="evenodd" clip-rule="evenodd"
      d="M1.48145 38.4607H18.201C18.201 38.4607 15.0053 23.8787 25.5873 17.9739C27.8941 16.8522 35.2381 12.6617 47.2592 21.5506C47.6402 21.2332 48 20.9792 48 20.9792C48 20.9792 36.9947 9.99506 24.7407 11.2226C18.5608 11.7728 10.9841 17.3813 6.53965 24.7887C2.0952 32.1961 1.48145 38.4607 1.48145 38.4607ZM36.3174 12.4078L36.4021 10.9898C36.2116 10.8839 35.6825 10.63 34.3492 10.249L34.2645 11.6458C34.9629 11.8787 35.6402 12.1326 36.3174 12.4078Z"
      fill="#CC0000" />
    <path fill-rule="evenodd" clip-rule="evenodd"
      d="M34.3069 16.8942L34.2222 18.2275C34.9206 18.2487 35.619 18.3333 36.3175 18.4815L36.4021 17.1693C35.6825 17.0212 34.9841 16.9365 34.3069 16.8942ZM26.4762 10.291H26.6878L26.2645 9C25.6085 9 24.9312 9.04233 24.2328 9.12698L24.6349 10.3757C25.2487 10.3122 25.8624 10.291 26.4762 10.291ZM27.4921 18.0794L27.9788 19.5397C28.5926 19.2434 29.2063 18.9894 29.8201 18.7989L29.3545 17.4021C28.6349 17.6138 28.0212 17.8466 27.4921 18.0794ZM17.8836 12.5132L16.9312 11.0529C16.4021 11.328 15.8519 11.6243 15.2804 11.963L16.254 13.4444C16.8042 13.1058 17.3333 12.7884 17.8836 12.5132ZM22.2222 22.037L23.2381 23.5608C23.5979 23.0317 24.0212 22.545 24.4868 22.0582L23.5344 20.619C23.0476 21.0635 22.6032 21.5503 22.2222 22.037ZM19.1534 28.8519L20.8677 30.2063C20.9524 29.381 21.1005 28.5556 21.3122 27.7302L19.7884 26.5238C19.5132 27.3069 19.3228 28.0899 19.1534 28.8519ZM9.8836 18.7989L8.38095 17.4868C7.83069 18.0159 7.30159 18.545 6.81482 19.0741L8.44444 20.4709C8.88889 19.8995 9.37566 19.328 9.8836 18.7989ZM3.49206 28.2593L1.0582 27.3704C0.656085 28.2804 0.21164 29.3386 0 29.9101L2.43386 30.7989C2.70899 30.0794 3.15344 29.0423 3.49206 28.2593ZM18.836 34.2275C18.8783 35.3492 18.9841 36.2593 19.0899 36.8942L21.6296 37.8042C21.4392 36.9788 21.2487 36.0476 21.1217 35.0529L18.836 34.2275Z"
      fill="#CC0000" />
  </g>
</svg>