<svg width="48" height="48" viewBox="0 0 48 48" fill="none" xmlns="http://www.w3.org/2000/svg">
<g clip-path="url(#clip0_1031_1917)">
<path fill-rule="evenodd" clip-rule="evenodd" d="M24 46C36.1503 46 46 36.1503 46 24C46 11.8497 36.1503 2 24 2C11.8497 2 2 11.8497 2 24C2 36.1503 11.8497 46 24 46ZM24 48C37.2548 48 48 37.2548 48 24C48 10.7452 37.2548 0 24 0C10.7452 0 0 10.7452 0 24C0 37.2548 10.7452 48 24 48Z" fill="url(#paint0_linear_1031_1917)"/>
<path fill-rule="evenodd" clip-rule="evenodd" d="M24 43C34.4934 43 43 34.4934 43 24C43 13.5066 34.4934 5 24 5C13.5066 5 5 13.5066 5 24C5 26.9572 5.67557 29.7565 6.88079 32.2522C7.73073 31.7104 8.89562 31.0326 10.2747 30.2301C16.9806 26.3281 28.751 19.4792 34 11C33.6667 16 31.2 26.6 24 29C25.6667 28.6667 29.5 26.5 31.5 23.5C31.5 27 29.2 33.5 22 35.5C23.1667 35.5 25.9 35.1 27.5 33.5C26.5525 36.8163 22.283 42.1977 14.3514 40.3713C17.1794 42.0416 20.4778 43 24 43Z" fill="url(#paint1_linear_1031_1917)"/>
</g>
<defs>
<linearGradient id="paint0_linear_1031_1917" x1="3.1579" y1="8.21053" x2="45.4737" y2="34.1053" gradientUnits="userSpaceOnUse">
<stop stop-color="#77C7DC"/>
<stop offset="1" stop-color="#3FB6D6"/>
</linearGradient>
<linearGradient id="paint1_linear_1031_1917" x1="7.5" y1="11.5" x2="41" y2="32" gradientUnits="userSpaceOnUse">
<stop stop-color="#77C7DC"/>
<stop offset="1" stop-color="#3FB6D6"/>
</linearGradient>
<clipPath id="clip0_1031_1917">
<rect width="48" height="48" fill="white"/>
</clipPath>
</defs>
</svg>
