<svg width="48" height="48" viewBox="0 0 48 48" fill="none" xmlns="http://www.w3.org/2000/svg">
<g clip-path="url(#clip0_1031_1900)">
<path fill-rule="evenodd" clip-rule="evenodd" d="M22.9443 0.538777H22.9494L4.13667 11.3974C3.43203 11.8037 3 12.5539 3 13.3647V35.0971C3 35.9082 3.43203 36.6584 4.13667 37.0643L22.9507 47.9317C23.654 48.3366 24.5211 48.3366 25.2237 47.9317L44.0347 37.0643C44.7357 36.6584 45.1687 35.9079 45.1687 35.0971V13.3647C45.1687 12.5539 44.7357 11.8037 44.03 11.3974L25.222 0.538777C24.869 0.336493 24.4762 0.235352 24.0833 0.235352C23.6902 0.235352 23.2973 0.336493 22.9443 0.538777Z" fill="url(#paint0_linear_1031_1900)"/>
<path fill-rule="evenodd" clip-rule="evenodd" d="M3.46582 36.477C3.646 36.7108 3.87072 36.9131 4.13597 37.0645L20.2738 46.3866L22.962 47.9315C23.3636 48.1636 23.8217 48.262 24.2722 48.2285C24.4219 48.2165 24.5719 48.188 24.7186 48.1468L44.5601 11.8159C44.4081 11.6508 44.2303 11.5125 44.0313 11.3962L31.7131 4.28251L25.2019 0.536248C25.0167 0.429413 24.8161 0.35339 24.6121 0.299805L3.46582 36.477Z" fill="url(#paint1_linear_1031_1900)"/>
<path fill-rule="evenodd" clip-rule="evenodd" d="M23.8695 0.2483L23.8585 0.24763C23.5426 0.279112 23.2339 0.377239 22.9499 0.538664L4.19043 11.3658L24.4188 48.2102C24.7001 48.17 24.9767 48.0759 25.2269 47.9316L44.0399 37.0642C44.6079 36.735 45.0004 36.1824 45.1304 35.5534V35.4982L24.5172 0.284805C24.3652 0.254998 24.2131 0.239258 24.0571 0.239258C23.9944 0.239258 23.9321 0.242272 23.8695 0.2483Z" fill="url(#paint2_linear_1031_1900)"/>
</g>
<defs>
<linearGradient id="paint0_linear_1031_1900" x1="24.0843" y1="-23.7646" x2="-23.5158" y2="18.0528" gradientUnits="userSpaceOnUse">
<stop stop-color="#3E863D"/>
<stop offset="1" stop-color="#5AAD45"/>
</linearGradient>
<linearGradient id="paint1_linear_1031_1900" x1="18.4278" y1="-5.75593" x2="-6.40546" y2="27.6026" gradientUnits="userSpaceOnUse">
<stop stop-color="#76AC64"/>
<stop offset="0.525602" stop-color="#3E863D"/>
<stop offset="1" stop-color="#3E863D"/>
</linearGradient>
<linearGradient id="paint2_linear_1031_1900" x1="3.0481" y1="48.8795" x2="45.1304" y2="48.8795" gradientUnits="userSpaceOnUse">
<stop stop-color="#6BBF46"/>
<stop offset="1" stop-color="#3E863D"/>
</linearGradient>
<clipPath id="clip0_1031_1900">
<rect width="48" height="48" fill="white"/>
</clipPath>
</defs>
</svg>
