<svg width="48" height="48" viewBox="0 0 48 48" fill="none" xmlns="http://www.w3.org/2000/svg">
<path d="M35.5567 31.7235L26.6035 31.6958L22.1509 23.9282L26.6516 16.1884L35.6048 16.2161L40.0573 23.9837L35.5567 31.7235Z" fill="#C12766"/>
<path d="M21.4057 39.8417L12.4525 39.814L8 32.0464L12.5007 24.3066L21.4538 24.3343L25.9064 32.1019L21.4057 39.8417Z" fill="#3E489F"/>
<path d="M35.4688 48L26.5156 47.9722L22.0631 40.2047L26.5638 32.4648L35.517 32.4926L39.9695 40.2602L35.4688 48Z" fill="#714099"/>
<path d="M21.4801 23.6649L12.5269 23.6372L8.07437 15.8696L12.575 8.12976L21.5282 8.15753L25.9808 15.9251L21.4801 23.6649Z" fill="#78932C"/>
<path d="M35.5498 15.5352L26.5966 15.5074L22.144 7.73986L26.6447 0L35.5979 0.0277696L40.0504 7.79531L35.5498 15.5352Z" fill="#CF242A"/>
<path d="M31.0974 9.12459C31.8467 9.12459 32.4542 8.51714 32.4542 7.7678C32.4542 7.01847 31.8467 6.41101 31.0974 6.41101C30.348 6.41101 29.7406 7.01847 29.7406 7.7678C29.7406 8.51714 30.348 9.12459 31.0974 9.12459Z" fill="white"/>
<path d="M17.0275 17.2544C17.7768 17.2544 18.3843 16.6469 18.3843 15.8976C18.3843 15.1482 17.7768 14.5408 17.0275 14.5408C16.2782 14.5408 15.6707 15.1482 15.6707 15.8976C15.6707 16.6469 16.2782 17.2544 17.0275 17.2544Z" fill="white"/>
<path d="M16.953 33.4312C17.7023 33.4312 18.3098 32.8237 18.3098 32.0744C18.3098 31.325 17.7023 30.7176 16.953 30.7176C16.2036 30.7176 15.5962 31.325 15.5962 32.0744C15.5962 32.8237 16.2036 33.4312 16.953 33.4312Z" fill="white"/>
<path d="M31.0161 41.5894C31.7654 41.5894 32.3729 40.982 32.3729 40.2326C32.3729 39.4833 31.7654 38.8759 31.0161 38.8759C30.2668 38.8759 29.6593 39.4833 29.6593 40.2326C29.6593 40.982 30.2668 41.5894 31.0161 41.5894Z" fill="white"/>
<path d="M17.9521 32.6655L30.1591 39.9168M30.2403 8.14642L17.9208 15.2046L30.2403 8.14642ZM16.9763 16.9572L17.0179 31.1553L16.9763 16.9572Z" stroke="white" stroke-width="0.344459"/>
<path d="M31.1041 25.3126C31.8534 25.3126 32.4609 24.7051 32.4609 23.9558C32.4609 23.2065 31.8534 22.599 31.1041 22.599C30.3548 22.599 29.7473 23.2065 29.7473 23.9558C29.7473 24.7051 30.3548 25.3126 31.1041 25.3126Z" fill="white"/>
<path d="M17.998 16.4927L30.205 23.7439M31.0542 8.7215L31.0958 22.9196L31.0542 8.7215ZM31.1326 24.9964L31.1742 39.1945L31.1326 24.9964ZM30.2611 24.4641L17.9417 31.5223L30.2611 24.4641Z" stroke="white" stroke-width="0.344459"/>
</svg>
