<svg width="48" height="48" viewBox="0 0 48 48" fill="none" xmlns="http://www.w3.org/2000/svg">
<path d="M27.8234 0H20.1867V24.8905H27.8234V0Z" fill="#00AEEF"/>
<path d="M38.2362 5.40193L37.4258 4.81152L32.8081 10.8017L33.6457 11.4064C37.8557 14.4349 40.365 19.2921 40.365 24.3955C40.365 33.2684 33.0256 40.4896 24.0026 40.4896C14.9812 40.4896 7.63841 33.2709 7.63841 24.3955C7.63841 19.2921 10.1511 14.4349 14.3594 11.4064L15.197 10.8017L10.5793 4.81152L9.76719 5.40193C3.65272 9.84557 0 16.9473 0 24.3955C0 37.4109 10.7662 48 23.9992 48C37.2339 48 48 37.4109 48 24.3955C48.0051 16.9473 44.3541 9.84557 38.2362 5.40193Z" fill="#00AEEF"/>
</svg>
