<svg width="48" height="48" viewBox="0 0 48 48" fill="none" xmlns="http://www.w3.org/2000/svg">
  <defs>
    <clipPath id="clip0_1031_1939">
      <rect width="48" height="48" fill="white" />
    </clipPath>
  </defs>
  <g clip-path="url(#clip0_1031_1939)">
    <path fill-rule="evenodd" clip-rule="evenodd"
      d="M33.7769 0C34.0958 2.80896 32.9394 5.63437 31.2223 7.6626C29.5063 9.69201 26.6942 11.2676 23.9386 11.0595C23.5595 8.30694 24.9542 5.43096 26.5426 3.63553C28.315 1.60848 31.3053 0.0952388 33.7769 0ZM27.1802 12.9872C28.9902 12.2871 31.2387 11.4174 33.7176 11.5968C35.3024 11.7121 39.8028 12.1742 42.7161 16.3658C42.7114 16.3687 42.7047 16.3727 42.6961 16.3778C42.2779 16.6259 37.3516 19.5488 37.4082 25.5005C37.4732 32.7645 43.9266 35.1843 44 35.2114C43.9973 35.2193 43.9927 35.2339 43.9861 35.2547C43.8495 35.6863 42.8595 38.8134 40.5982 42.038C38.5502 44.9657 36.4287 47.8769 33.0799 47.9381C31.4726 47.9668 30.3975 47.5123 29.2801 47.0398C28.1102 46.5452 26.8939 46.0309 24.9719 46.0309C22.9573 46.0309 21.6842 46.5608 20.4578 47.0712C19.3951 47.5135 18.3675 47.9412 16.9229 47.9969C13.6908 48.1168 11.23 44.8352 9.16748 41.9227C4.94985 35.9627 1.72495 25.0808 6.05449 17.7368C8.20483 14.0895 12.047 11.7779 16.2165 11.7191C18.0159 11.6858 19.7577 12.3601 21.2828 12.9505C22.4481 13.4016 23.4869 13.8038 24.3281 13.8038C25.0691 13.8038 26.0373 13.4293 27.1802 12.9872Z"
      fill="#888888" />
  </g>
</svg>