<svg width="48" height="48" viewBox="0 0 48 48" fill="none" xmlns="http://www.w3.org/2000/svg">
  <defs>
    <clipPath id="clip0_1031_1940">
      <rect width="48" height="48" fill="white" />
    </clipPath>
  </defs>
  <g clip-path="url(#clip0_1031_1940)">
    <path
      d="M43.792 10.705L26.0109 0.42745C24.9195 -0.209215 23.6007 -0.209215 22.5092 0.42745L4.72809 10.705C3.68214 11.3417 3 12.4786 3 13.7065V34.2162C3 35.444 3.68214 36.6264 4.72809 37.2176L22.5092 47.4952C23.055 47.8135 23.6461 47.95 24.2373 47.95C24.8285 47.95 25.4652 47.768 25.9654 47.4952L43.792 37.2631C44.8835 36.6264 45.5201 35.4895 45.5201 34.2617V13.7065C45.5201 12.4786 44.8835 11.3417 43.792 10.705ZM33.8783 27.5767C34.1966 27.6221 34.424 27.895 34.4694 28.1679L34.9242 32.3517C34.9242 32.5336 34.8787 32.7609 34.7423 32.8974C34.6059 33.0338 34.424 33.1248 34.2421 33.1248H14.2781C14.0962 33.1248 13.9143 33.0338 13.7778 32.8974C13.6414 32.7609 13.5959 32.5336 13.5959 32.3517L14.0507 28.1679C14.0962 27.8495 14.3235 27.6221 14.6419 27.5767L20.2354 26.7581V21.301L14.6419 20.4369C14.3235 20.3914 14.0962 20.1186 14.0507 19.8457L13.5959 15.6619C13.5959 15.48 13.6414 15.2527 13.7778 15.1162C13.9143 14.9798 14.0962 14.8888 14.2781 14.8888H34.2421C34.424 14.8888 34.6059 14.9798 34.7423 15.1162C34.8787 15.2527 34.9242 15.48 34.9242 15.6619L34.4694 19.8457C34.424 20.1641 34.1966 20.3914 33.8783 20.4369L28.2847 21.2555V26.7126L33.8783 27.5767Z"
      fill="#3177BC" />
  </g>
</svg>