<svg width="48" height="48" viewBox="0 0 48 48" fill="none" xmlns="http://www.w3.org/2000/svg">
<g clip-path="url(#clip0_1031_1963)">
<path fill-rule="evenodd" clip-rule="evenodd" d="M23.8948 48.2183C16.8219 48.2183 11.088 47.1063 11.088 45.7349C11.088 44.3638 16.8219 43.2515 23.8948 43.2515C30.9681 43.2515 36.702 44.3638 36.702 45.7349C36.702 47.1063 30.9681 48.2183 23.8948 48.2183Z" fill="url(#paint0_radial_1031_1963)"/>
<path fill-rule="evenodd" clip-rule="evenodd" d="M23.8948 48.2183C16.8219 48.2183 11.088 47.1063 11.088 45.7349C11.088 44.3638 16.8219 43.2515 23.8948 43.2515C30.9681 43.2515 36.702 44.3638 36.702 45.7349C36.702 47.1063 30.9681 48.2183 23.8948 48.2183Z" fill="url(#paint1_radial_1031_1963)"/>
<path fill-rule="evenodd" clip-rule="evenodd" d="M29.1555 33.4789C30.1461 33.4789 30.9487 34.2904 30.9487 35.2939C30.9487 36.3014 30.1461 37.1209 29.1555 37.1209C28.1684 37.1209 27.3622 36.3014 27.3622 35.2939C27.3622 34.2904 28.1684 33.4789 29.1555 33.4789ZM34.524 10.4331V14.6768C34.524 17.9673 31.7348 20.736 28.5541 20.736H19.008C16.3935 20.736 14.2297 22.9741 14.2297 25.5926V34.6929C14.2297 37.2825 16.4815 38.8064 19.008 39.5491C22.0332 40.4388 24.9339 40.5997 28.5541 39.5491C30.9597 38.8527 33.332 37.4505 33.332 34.6929V31.0505H23.7864V29.8363H38.1104C40.888 29.8363 41.9231 27.8991 42.8892 24.9913C43.8869 21.9977 43.8443 19.1188 42.8892 15.2781C42.2026 12.5134 40.8916 10.4331 38.1104 10.4331H34.524Z" fill="url(#paint2_linear_1031_1963)"/>
<path fill-rule="evenodd" clip-rule="evenodd" d="M4 20.1488V20.0968C4.00261 18.591 4.2318 17.1073 4.67285 15.2781C5.43369 12.1023 7.86554 10.4331 10.6431 10.4331H23.7863V9.21896H14.2296V5.57652C14.2296 2.81891 14.9638 1.32345 19.008 0.608829C20.3808 0.366177 21.9411 0.22663 23.5748 0.219075C25.2085 0.21152 26.9119 0.335512 28.554 0.608829C31.1472 1.04125 33.332 2.9869 33.332 5.57652V14.6768C33.332 17.3456 31.2107 19.5334 28.554 19.5334H19.008C15.7673 19.5334 13.0377 22.3155 13.0377 25.4699V29.8363H9.75209C6.97448 29.8363 5.35192 27.8205 4.67285 24.9913C4.22224 23.1222 4.00255 21.6229 4 20.1488H4ZM18.4067 3.14795C17.4157 3.14795 16.6135 3.96745 16.6135 4.97495C16.6135 5.97844 17.4157 6.79039 18.4067 6.79039C19.3938 6.79039 20.1999 5.97844 20.1999 4.97495C20.1999 3.96745 19.3938 3.14795 18.4067 3.14795Z" fill="#4786CF"/>
</g>
<defs>
<radialGradient id="paint0_radial_1031_1963" cx="0" cy="0" r="1" gradientUnits="userSpaceOnUse" gradientTransform="translate(23.8948 45.7349) rotate(-90) scale(2.48291 56.2936)">
<stop stop-color="#C6C6C6"/>
<stop offset="1" stop-color="white"/>
</radialGradient>
<radialGradient id="paint1_radial_1031_1963" cx="0" cy="0" r="1" gradientUnits="userSpaceOnUse" gradientTransform="translate(23.8948 45.7349) rotate(-90) scale(2.48291 56.2936)">
<stop stop-color="#C6C6C6"/>
<stop offset="1" stop-color="white"/>
</radialGradient>
<linearGradient id="paint2_linear_1031_1963" x1="38.8275" y1="27.8769" x2="30.863" y2="16.841" gradientUnits="userSpaceOnUse">
<stop stop-color="#FFD33A"/>
<stop offset="1" stop-color="#FFE873"/>
</linearGradient>
<clipPath id="clip0_1031_1963">
<rect width="48" height="48" fill="white"/>
</clipPath>
</defs>
</svg>
