<svg width="48" height="48" viewBox="0 0 48 48" fill="none" xmlns="http://www.w3.org/2000/svg">
<path fill-rule="evenodd" clip-rule="evenodd" d="M47.6927 24.7743C47.891 24.5407 48 24.2434 48 23.936C48 23.6286 47.891 23.3313 47.6927 23.0977L45.3672 20.8408L35.0196 11.0984C34.7956 10.8887 34.5012 10.7722 34.1955 10.7722C33.8898 10.7722 33.5954 10.8887 33.3715 11.0984C33.2469 11.1991 33.1463 11.3267 33.0772 11.4718C33.0081 11.6168 32.9723 11.7757 32.9723 11.9366C32.9723 12.0976 33.0081 12.2564 33.0772 12.4015C33.1463 12.5466 33.2469 12.6742 33.3715 12.7749L44.2417 23.1192C44.4568 23.3445 44.577 23.6449 44.577 23.9575C44.577 24.2701 44.4568 24.5705 44.2417 24.7958L33.1474 35.5216C32.9298 35.7456 32.808 36.0465 32.808 36.3599C32.808 36.6733 32.9298 36.9743 33.1474 37.1982C33.3782 37.3938 33.67 37.501 33.9715 37.501C34.273 37.501 34.5649 37.3938 34.7956 37.1982L45.0685 27.2731L45.1431 27.2032L47.6927 24.7743ZM0.307309 24.7743C0.108983 24.5407 -1.15041e-06 24.2434 -1.17709e-06 23.936C-1.20376e-06 23.6286 0.108983 23.3313 0.307309 23.0977L2.63284 20.8408L12.9751 11.0984C13.1999 10.8884 13.4952 10.7717 13.8018 10.7717C14.1084 10.7717 14.4037 10.8884 14.6285 11.0984C14.7531 11.1991 14.8537 11.3267 14.9228 11.4718C14.9919 11.6168 15.0277 11.7757 15.0277 11.9366C15.0277 12.0976 14.9919 12.2564 14.9228 12.4015C14.8537 12.5466 14.7531 12.6742 14.6285 12.7749L3.96095 23.1192C3.74334 23.3432 3.62147 23.6441 3.62147 23.9575C3.62147 24.2709 3.74334 24.5719 3.96095 24.7958L14.8526 35.5216C15.0677 35.7469 15.1878 36.0473 15.1878 36.3599C15.1878 36.6725 15.0677 36.9729 14.8526 37.1982C14.6218 37.3938 14.33 37.501 14.0285 37.501C13.727 37.501 13.4351 37.3938 13.2044 37.1982L2.70751 27.4182L2.63284 27.3483L0.307309 24.7743Z" fill="#3999C6"/>
<path fill-rule="evenodd" clip-rule="evenodd" d="M35.6972 3.01074L21.0773 3.01075L13.2046 24.5806L22.8054 24.6505L15.3008 46L35.9959 17.5196L25.947 17.5196L35.6972 3.01074Z" fill="#FCD116"/>
<path opacity="0.3" fill-rule="evenodd" clip-rule="evenodd" d="M25.947 17.5089L35.6972 3L28.0485 3L19.9518 20.9373L29.5527 21.0071L15.3008 46L35.9959 17.5196L25.947 17.5089Z" fill="#FF8C00"/>
</svg>
