<svg width="48" height="48" viewBox="0 0 48 48" fill="none" xmlns="http://www.w3.org/2000/svg">
<g clip-path="url(#clip0_1031_1974)">
<path d="M24.0155 44.3963C35.3229 44.3963 44.4893 35.2299 44.4893 23.9225C44.4893 12.6152 35.3229 3.44873 24.0155 3.44873C12.7082 3.44873 3.54175 12.6152 3.54175 23.9225C3.54175 35.2299 12.7082 44.3963 24.0155 44.3963Z" fill="#FCC414"/>
<path d="M24 48C10.765 48 0 37.235 0 24C0 10.765 10.765 0 24 0C37.235 0 48 10.765 48 24C48 37.235 37.235 48 24 48ZM24 2.03495C11.8835 2.03495 2.03495 11.899 2.03495 24C2.03495 36.101 11.8835 45.965 24 45.965C36.1165 45.965 45.965 36.1165 45.965 24C45.965 11.8835 36.1165 2.03495 24 2.03495Z" fill="white"/>
<path fill-rule="evenodd" clip-rule="evenodd" d="M27.3397 18.1584C25.9882 17.5371 25.2271 16.0769 25.4601 14.6167C26.796 15.2381 27.5727 16.6983 27.3397 18.1584Z" fill="black"/>
<path fill-rule="evenodd" clip-rule="evenodd" d="M19.5574 30.5089C19.7749 31.2235 20.1166 31.907 20.5826 32.4973H27.5574C28.0234 31.907 28.3652 31.2235 28.5826 30.5089H19.5574ZM34.2836 23.3322C34.0661 23.5342 34.0506 23.8914 34.2525 24.1089L34.3302 24.1866C37.4991 21.4837 39.4098 19.3866 38.4622 17.74C37.4215 16.2798 33.0098 16.9788 27.604 19.4021C27.8836 18.8584 28.0079 18.2526 28.0079 17.6468C28.0079 17.4293 27.9923 17.1963 27.9457 16.9788C27.8215 16.2021 27.4486 15.4565 26.8584 14.8662C26.5321 14.54 26.1593 14.2759 25.771 14.0895L25.7865 14.0429L26.2059 13.1419C26.2681 13.0021 26.2059 12.8312 26.0661 12.7536C25.9263 12.6914 25.7554 12.7536 25.6778 12.8934L25.2273 13.872C24.4817 13.639 23.6739 13.639 22.9283 13.872L22.4778 12.8934C22.4156 12.7536 22.2448 12.6914 22.0894 12.7536C21.9496 12.8157 21.8875 12.9866 21.9496 13.1419L22.3535 14.0118L22.3846 14.074C21.9807 14.2604 21.6234 14.5245 21.2972 14.8507C20.505 15.6429 20.1321 16.6681 20.1477 17.7089C20.1632 18.2681 20.2875 18.8274 20.536 19.34C19.138 18.7186 11.371 15.5031 9.81758 17.6934C8.40399 19.6817 12.7535 23.1769 13.9185 24.1711L13.9962 24.0934C14.1982 23.8759 14.1826 23.5186 13.9651 23.3167C13.3904 22.773 12.505 21.8876 11.8681 21.0332C11.0448 19.8992 11.0292 19.2312 11.4176 18.8584C12.6603 17.6934 17.2428 19.2312 18.6564 19.7749C20.0234 20.3031 21.4991 20.9711 23.0059 21.7633C15.736 25.973 10.7962 31.006 11.9613 33.0254C12.6914 34.2837 15.736 34.1283 19.6351 32.7458L19.4952 32.5128C19.3554 32.2953 19.1069 32.1866 18.8584 32.2643C16.1554 33.0876 14.4622 33.4759 13.8719 32.606C13.0642 31.1924 17.1962 26.3303 23.6118 22.6332L24.0933 22.3536C24.2486 22.4468 24.4195 22.54 24.5749 22.6332C30.9904 26.3303 35.1224 31.1924 34.3147 32.606C33.7244 33.4759 32.0467 33.0876 29.3283 32.2643C29.0797 32.1866 28.8312 32.2953 28.6914 32.5128L28.5516 32.7458C32.4506 34.1283 35.4952 34.2837 36.2253 33.0254C37.3904 31.006 32.4506 25.973 25.1807 21.7633C30.2914 19.0604 34.905 17.8643 36.5982 18.7186C38.1516 19.4953 35.4952 22.1827 34.2836 23.3322ZM20.8001 18.1594C20.5671 16.6992 21.3438 15.239 22.6797 14.6177C22.9127 16.0778 22.136 17.538 20.8001 18.1594ZM27.3399 18.1594C25.9885 17.538 25.2273 16.0778 25.4603 14.6177C26.7962 15.239 27.5729 16.6992 27.3399 18.1594ZM28.505 26.4545C27.169 25.4759 25.6778 24.4973 24.0778 23.5652C22.4778 24.4973 20.9865 25.4759 19.6506 26.4545C19.3865 27.2157 19.2622 28.039 19.2933 28.8468H28.8622C28.8933 28.039 28.769 27.2157 28.505 26.4545ZM22.105 34.1749C22.7108 34.7963 23.1768 35.3555 24.0778 36.9866C24.9787 35.3711 25.4448 34.8118 26.0506 34.1749H22.105Z" fill="black"/>
<path fill-rule="evenodd" clip-rule="evenodd" d="M27.3398 18.1584C25.9883 17.5371 25.2272 16.0769 25.4602 14.6167C26.7961 15.2381 27.5728 16.6983 27.3398 18.1584ZM20.8 18.1584C20.567 16.6983 21.3437 15.2381 22.6796 14.6167C22.9126 16.0769 22.1359 17.5371 20.8 18.1584ZM14.1048 23.8283C14.1048 23.8283 14.2136 23.5487 13.9495 23.3002C12.7379 22.1662 10.0815 19.4788 11.6039 18.7021C13.2971 17.8478 17.9107 19.075 23.0214 21.7623C20.4427 23.2536 18.6718 24.4963 16.8078 26.0031C14.7417 24.4808 14.3689 24.1546 14.1048 23.8283ZM34.3301 32.6517C33.7398 33.5216 32.0621 33.1332 29.3437 32.3099C29.2194 32.2788 29.0951 32.2788 28.9864 32.3254C29.8097 31.1293 29.9961 28.908 29.701 27.308V27.2769V27.2614C29.6078 26.6245 29.468 26.1274 29.3126 25.9099C32.9165 28.7992 34.9204 31.6264 34.3301 32.6517ZM31.4718 26.0342C29.6544 24.4963 27.7903 23.2691 25.2116 21.7779C30.3223 19.075 34.9359 17.8788 36.6291 18.7332C38.1514 19.5099 35.4796 22.1973 34.2835 23.3313C34.066 23.5332 34.1282 23.6264 34.1282 23.8594C33.8641 24.1856 33.5379 24.5118 31.4718 26.0342ZM18.9204 25.8633C18.765 26.0808 18.6252 26.5779 18.532 27.2148V27.2614C18.2369 28.8769 18.4233 31.0827 19.2466 32.2788C19.1379 32.2322 19.0136 32.2322 18.8893 32.2633C16.1864 33.0866 14.4932 33.475 13.9029 32.605C13.3126 31.5953 15.3165 28.7682 18.9204 25.8633Z" fill="white"/>
</g>
<defs>
<clipPath id="clip0_1031_1974">
<rect width="48" height="48" fill="white" transform="translate(0 48) rotate(-90)"/>
</clipPath>
</defs>
</svg>
