<svg width="48" height="48" viewBox="0 0 48 48" fill="none" xmlns="http://www.w3.org/2000/svg">
  <defs>
    <clipPath id="clip0_1031_1926">
      <rect width="48" height="48" fill="white" />
    </clipPath>
  </defs>
  <g clip-path="url(#clip0_1031_1926)">
    <path
      d="M1 36.9999H5C5.55228 36.9999 6 37.4476 6 37.9999V41.9999H42V37.9999C42 37.4476 42.4477 36.9999 43 36.9999H47C47.5523 36.9999 48 37.4476 48 37.9999V44.9999C48 46.6567 46.6569 47.9999 45 47.9999H3C1.34315 47.9999 0 46.6567 0 44.9999V37.9999C0 37.4476 0.447715 36.9999 1 36.9999Z"
      fill="#0F74C3" />
    <path fill-rule="evenodd" clip-rule="evenodd"
      d="M10 14.997V34.9999H38V14.997L28.1511 24.4356C27.6788 24.8882 27.1395 25.2686 26.554 25.5614L26.2298 25.7235C25.5375 26.0696 24.7741 26.2499 24 26.2499C23.2259 26.2499 22.4625 26.0696 21.7702 25.7235L21.446 25.5614C20.8607 25.2687 20.3228 24.8897 19.8503 24.4369L10 14.997ZM37.916 12.9999H10.084L20.8882 23.3539C21.252 23.7025 21.6662 23.9944 22.1168 24.2198L22.441 24.3818C22.925 24.6239 23.4588 24.7499 24 24.7499C24.5412 24.7499 25.075 24.6239 25.559 24.3818L25.8832 24.2198C26.3336 23.9945 26.7492 23.7014 27.1132 23.3526L37.916 12.9999Z"
      fill="#5FB5D7" />
    <path
      d="M1 10.9999H5C5.55228 10.9999 6 10.5522 6 9.99988V5.99988H42V9.99988C42 10.5522 42.4477 10.9999 43 10.9999H47C47.5523 10.9999 48 10.5522 48 9.99988V2.99988C48 1.34302 46.6569 -0.00012207 45 -0.00012207H3C1.34315 -0.00012207 0 1.34302 0 2.99988V9.99988C0 10.5522 0.447715 10.9999 1 10.9999Z"
      fill="#0F74C3" />
  </g>
</svg>