<svg width="48" height="48" viewBox="0 0 48 48" fill="none" xmlns="http://www.w3.org/2000/svg">
<path d="M1.60583 29.6872C1.60583 28.6187 2.47192 27.7541 3.53892 27.7541C4.60593 27.7541 5.47201 28.6187 5.47201 29.6872C5.47201 30.7542 4.60593 31.6188 3.53892 31.6188C2.47192 31.6188 1.60583 30.7542 1.60583 29.6872ZM7.07785 29.6872C7.07785 29.2945 6.9713 28.9353 6.8541 28.5822C6.38529 27.1773 5.10214 26.1483 3.53892 26.1483C3.2893 26.1483 3.07011 26.2412 2.83418 26.2899C1.22987 26.6263 0 27.9825 0 29.6872C0 31.6401 1.58452 33.2262 3.53892 33.2262C5.49332 33.2262 7.07785 31.6401 7.07785 29.6872Z" fill="#073551"/>
<path d="M3.53892 15.3885C4.60593 15.3885 5.47201 16.2546 5.47201 17.3216C5.47201 18.3886 4.60593 19.2547 3.53892 19.2547C2.4704 19.2547 1.60583 18.3886 1.60583 17.3216C1.60583 16.2546 2.4704 15.3885 3.53892 15.3885ZM3.53892 20.8606C5.49332 20.8606 7.07785 19.276 7.07785 17.3216C7.07785 16.9305 6.9713 16.5697 6.8541 16.2166C6.38529 14.8117 5.10062 13.7827 3.53892 13.7827C3.2893 13.7827 3.07011 13.8756 2.83418 13.9258C1.22987 14.2607 0 15.6169 0 17.3216C0 19.276 1.58452 20.8606 3.53892 20.8606Z" fill="#073551"/>
<path d="M44.461 9.47202C43.3925 9.47202 42.5279 8.60593 42.5279 7.53892C42.5279 6.4704 43.3925 5.60583 44.461 5.60583C45.528 5.60583 46.3941 6.4704 46.3941 7.53892C46.3941 8.60593 45.528 9.47202 44.461 9.47202ZM25.2626 42.5005C24.194 42.5005 23.3295 41.6344 23.3295 40.5674C23.3295 39.4988 24.194 38.6343 25.2626 38.6343C26.3296 38.6343 27.1941 39.4988 27.1941 40.5674C27.1941 41.6344 26.3296 42.5005 25.2626 42.5005ZM44.461 4C42.5066 4 40.9221 5.58452 40.9221 7.53892C40.9221 7.95598 41.0271 8.34412 41.1595 8.71552L24.5578 37.17C22.9535 37.5064 21.7236 38.8626 21.7236 40.5674C21.7236 42.5218 23.3082 44.1063 25.2626 44.1063C27.2154 44.1063 28.7999 42.5218 28.7999 40.5674C28.7999 40.1747 28.6949 39.8154 28.5777 39.4623L45.2632 10.915C46.8188 10.5421 48 9.20869 48 7.53892C48 5.58452 46.4154 4 44.461 4Z" fill="#0C544C"/>
<path d="M29.9811 9.47202C28.9126 9.47202 28.048 8.60593 28.048 7.53892C28.048 6.4704 28.9126 5.60583 29.9811 5.60583C31.0481 5.60583 31.9127 6.4704 31.9127 7.53892C31.9127 8.60593 31.0481 9.47202 29.9811 9.47202ZM10.7811 42.5005C9.7141 42.5005 8.84802 41.6344 8.84802 40.5674C8.84802 39.4988 9.7141 38.6343 10.7811 38.6343C11.8496 38.6343 12.7142 39.4988 12.7142 40.5674C12.7142 41.6344 11.8496 42.5005 10.7811 42.5005ZM29.9811 4C28.0252 4 26.4422 5.58452 26.4422 7.53892C26.4422 7.95598 26.5472 8.34412 26.6796 8.71552L10.0779 37.17C8.47206 37.5064 7.24219 38.8626 7.24219 40.5674C7.24219 42.5218 8.82671 44.1063 10.7811 44.1063C12.7355 44.1063 14.32 42.5218 14.32 40.5674C14.32 40.1747 14.215 39.8154 14.0978 39.4623L30.7833 10.915C32.3389 10.5421 33.52 9.20869 33.52 7.53892C33.52 5.58452 31.934 4 29.9811 4Z" fill="#073551"/>
</svg>
