<svg width="48" height="48" viewBox="0 0 48 48" fill="none" xmlns="http://www.w3.org/2000/svg">
  <defs>
    <clipPath id="clip0_1031_1977">
      <rect width="48" height="48" fill="white" />
    </clipPath>
  </defs>
  <g clip-path="url(#clip0_1031_1977)">
    <path d="M0 24V0H48V48H0" fill="#007ACC" />
    <path fill-rule="evenodd" clip-rule="evenodd"
      d="M41.568 23.7956C40.728 22.9196 39.792 22.3676 38.568 22.0796L38.592 22.0556C37.764 21.8396 35.784 21.7676 34.944 21.9356C32.352 22.4156 30.54 24.0956 30.024 26.4956C29.856 27.1796 29.916 28.8836 30.096 29.5796C30.336 30.3836 30.852 31.3556 31.416 31.9796C32.4 33.0116 33.456 33.6836 35.94 34.7396C38.1 35.6996 38.868 36.1316 39.252 36.6596C39.528 37.0796 39.612 37.3316 39.612 37.8836C39.612 38.4836 39.42 38.9156 38.976 39.3236C37.944 40.2596 35.856 40.3676 34.296 39.5636C33.78 39.2756 32.892 38.4356 32.496 37.8116L32.184 37.3916L30.828 38.1836L29.028 39.2276L28.572 39.5156C28.524 39.5996 29.376 40.8836 29.82 41.3636C30.948 42.5996 32.784 43.5596 34.704 43.9196C35.604 44.0756 37.524 44.0996 38.364 43.9556C41.04 43.5116 42.912 42.1556 43.68 40.1516C44.364 38.3156 44.136 35.8676 43.116 34.3076C42.216 32.9156 40.728 31.9436 37.296 30.4676C35.436 29.6516 34.836 29.2556 34.512 28.5956C34.368 28.2836 34.296 28.0676 34.296 27.6836C34.296 26.4236 35.256 25.6676 36.696 25.7636C37.692 25.8356 38.328 26.2196 38.952 27.1076C39.144 27.4196 39.336 27.6236 39.384 27.5876C40.644 26.8076 42.72 25.4036 42.72 25.3316C42.672 25.1156 42.012 24.2756 41.568 23.7956ZM10.5239 26.0398V24.0838L10.5599 24.0958V22.1278L18.9599 22.0918C23.5799 22.0918 27.3839 22.1038 27.3839 22.1398C27.4319 22.1638 27.4319 23.0398 27.4319 24.1198V26.0398H21.1919V43.7998H16.7639V26.0398H10.5239Z"
      fill="white" />
  </g>
</svg>