<svg width="48" height="48" viewBox="0 0 48 48" fill="none" xmlns="http://www.w3.org/2000/svg">
<g clip-path="url(#clip0_1031_1937)">
<path d="M47.8779 45.8781C47.8779 46.9827 46.9825 47.8781 45.8779 47.8781H2C0.895431 47.8781 0 46.9827 0 45.8781V2C0 0.895428 0.895431 0 2 0H45.8779C46.9825 0 47.8779 0.895431 47.8779 2V45.8781Z" fill="#FA2A00"/>
<path d="M30.1865 25.497C29.467 29.4442 26.077 32.6733 20.8477 32.6733C14.6009 32.6733 10.8398 28.085 10.8398 22.8557C10.8398 17.7313 14.4147 13.0327 20.7931 13.0327C26.2643 13.0327 29.6545 16.4747 30.1598 20.7703H25.6503C25.2513 18.5827 23.5955 16.9295 20.8478 16.9295C17.2703 16.9295 15.2435 19.7582 15.2435 22.8557C15.2435 26.1367 17.5111 28.7793 20.9011 28.7793C23.4093 28.7793 25.0636 27.3377 25.597 25.497H30.1867H30.1865ZM35.4247 13.469L32.6688 14.6499L36.1225 22.7267L32.6675 30.806L35.4245 31.9845L37.7425 26.525L37.7545 26.5502L39.3584 22.7267L35.4247 13.469Z" fill="white"/>
</g>
<defs>
<clipPath id="clip0_1031_1937">
<rect width="48" height="48" fill="white"/>
</clipPath>
</defs>
</svg>
