<svg width="48" height="48" viewBox="0 0 48 48" fill="none" xmlns="http://www.w3.org/2000/svg">
<path fill-rule="evenodd" clip-rule="evenodd" d="M19.44 26.5628C20.0351 26.5672 20.6162 26.7432 21.1132 27.0693C21.6101 27.3955 22.0017 27.8581 22.2407 28.4011H40.1268C41.5757 28.3855 42.9608 27.8052 43.9854 26.7844C45.0099 25.7636 45.5924 24.3836 45.6081 22.9401C45.5924 21.4965 45.0099 20.1165 43.9854 19.0957C42.9608 18.075 41.5757 17.4946 40.1268 17.479H37.5305C37.4259 16.8668 37.265 16.2654 37.0497 15.6826C36.9412 15.4645 36.8449 15.2406 36.7612 15.012C36.1211 13.9 35.1964 12.9772 34.0814 12.3376C32.9664 11.698 31.701 11.3645 30.4145 11.3713C29.2683 11.37 28.1383 11.641 27.1182 12.1616C26.0981 12.6823 25.2172 13.4377 24.5486 14.3653C23.7828 14.0099 22.9751 13.7524 22.1445 13.5988C22.9866 12.1891 24.1839 11.0231 25.6176 10.2165C27.0514 9.40983 28.6718 8.99049 30.3183 9.00004C32.2677 8.99121 34.1737 9.57289 35.7838 10.6679C37.3938 11.763 38.6317 13.3197 39.3335 15.1317H40.1028C42.1867 15.1222 44.1891 15.9374 45.67 17.3982C47.1509 18.859 47.989 20.8459 48.0001 22.9221C47.9954 25.0059 47.1636 27.0033 45.6864 28.4784C44.2092 29.9536 42.2063 30.7868 40.1148 30.7963H22.2407C21.9964 31.3297 21.604 31.7822 21.1098 32.1005C20.6157 32.4188 20.0404 32.5896 19.452 32.5927C18.6378 32.5864 17.8588 32.2614 17.2831 31.6878C16.7073 31.1142 16.3811 30.338 16.3748 29.5268C16.3721 29.1292 16.4502 28.7352 16.6045 28.3684C16.7587 28.0017 16.9859 27.6698 17.2723 27.3929C17.5587 27.1159 17.8984 26.8996 18.2709 26.7569C18.6435 26.6143 19.0411 26.5482 19.44 26.5628Z" fill="#59B4D9"/>
<path fill-rule="evenodd" clip-rule="evenodd" d="M9.53555 20.5269C10.433 18.7018 11.8301 17.1667 13.5656 16.0988C15.3011 15.0308 17.3043 14.4734 19.3441 14.491C21.8306 14.4901 24.2432 15.3339 26.1837 16.883C28.1242 18.432 29.4767 20.5939 30.0181 23.0119C31.2315 23.1563 32.4028 23.5451 33.4607 24.1545C34.5187 24.7638 35.4413 25.5812 36.1724 26.5568H23.0944C22.6478 25.9926 22.0778 25.5376 21.4279 25.2262C20.7779 24.9149 20.0652 24.7556 19.3441 24.7604C18.0459 24.7619 16.8008 25.2744 15.8801 26.1862C14.9593 27.098 14.4373 28.3352 14.4278 29.6286C14.4325 30.9231 14.9508 32.1631 15.8695 33.0785C16.7882 33.9938 18.0328 34.5101 19.3321 34.5148C20.0548 34.5298 20.771 34.375 21.4226 34.0629C22.0741 33.7508 22.6427 33.2902 23.0824 32.7184H37.699C37.4075 34.7451 36.3904 36.5984 34.8352 37.9365C33.28 39.2747 31.2916 40.0075 29.2367 39.9998H9.72788C8.4485 40.0046 7.18085 39.7568 5.99809 39.2709C4.81533 38.7849 3.74089 38.0704 2.83679 37.1685C1.93269 36.2666 1.21683 35.1952 0.730534 34.0162C0.244239 32.8372 -0.00286028 31.5739 0.00349795 30.2993C-0.0309973 29.0298 0.189934 27.7662 0.653271 26.5831C1.11661 25.4 1.81298 24.3213 2.70133 23.4106C3.58968 22.4998 4.65203 21.7755 5.82577 21.2802C6.99952 20.785 8.26089 20.5288 9.53555 20.5269Z" fill="#59B4D9"/>
</svg>
