<svg width="48" height="48" viewBox="0 0 48 48" fill="none" xmlns="http://www.w3.org/2000/svg">
<g clip-path="url(#clip0_1031_2034)">
<path fill-rule="evenodd" clip-rule="evenodd" d="M44 2H4C2.89543 2 2 2.89543 2 4V44C2 45.1046 2.89543 46 4 46H44C45.1046 46 46 45.1046 46 44V4C46 2.89543 45.1046 2 44 2ZM4 0C1.79086 0 0 1.79086 0 4V44C0 46.2091 1.79086 48 4 48H44C46.2091 48 48 46.2091 48 44V4C48 1.79086 46.2091 0 44 0H4Z" fill="#03020D"/>
<path d="M14.12 31.2398C16.74 31.2398 18.7 30.0598 18.7 26.8798V16.7998H16.12V26.1798C16.12 28.1198 15.54 28.9398 13.94 28.9398L12.28 28.5998V31.0198C12.76 31.1198 13.36 31.2398 14.12 31.2398Z" fill="black"/>
<path d="M24.2832 30.9998V22.2998L27.7832 30.9998H30.1432L33.6432 22.4198V30.9998H36.1232V16.7998H33.2432L28.9632 27.4598L24.6832 16.7998H21.8032V30.9998H24.2832Z" fill="black"/>
</g>
<defs>
<clipPath id="clip0_1031_2034">
<rect width="48" height="48" fill="white"/>
</clipPath>
</defs>
</svg>
