<svg width="48" height="48" viewBox="0 0 48 48" fill="none" xmlns="http://www.w3.org/2000/svg">
<g clip-path="url(#clip0_1031_2039)">
<path d="M-0.000488281 5.99988C-0.000488281 2.68617 2.6858 -0.00012207 5.99951 -0.00012207H41.9992C45.313 -0.00012207 47.9992 2.68617 47.9992 5.99988V41.9996C47.9992 45.3133 45.313 47.9996 41.9992 47.9996H5.99951C2.6858 47.9996 -0.000488281 45.3133 -0.000488281 41.9996V5.99988Z" fill="#0078D7"/>
<path d="M47.9993 25.5997C47.9063 25.6018 47.8132 25.6061 47.7201 25.6061C41.2111 25.6064 34.7018 25.6064 28.1928 25.6064C28.1261 25.6064 28.0589 25.6024 27.9936 25.6109C27.9752 25.6133 27.9616 25.6538 27.9458 25.6768C27.8909 25.6194 27.8373 25.5608 27.781 25.5048C25.9824 23.7066 24.1832 21.9088 22.3843 20.1109C22.3987 20.0368 22.4256 19.9629 22.4256 19.8888C22.4277 17.6 22.4275 15.3112 22.4267 13.0222C22.4267 12.9494 22.4173 12.8768 22.4125 12.804C23.1216 12.8027 23.8304 12.8003 24.5395 12.8006C24.9037 12.8006 25.2683 12.8056 25.6325 12.8083C25.6299 12.8883 25.6251 12.968 25.6251 13.048C25.6248 16.0813 25.6248 19.1147 25.6248 22.1477C25.6248 22.2261 25.6248 22.3045 25.6248 22.396C25.7096 22.4 25.7741 22.4058 25.8387 22.4058C33.1725 22.4064 40.506 22.4064 47.8399 22.4058C47.8929 22.4058 47.9463 22.4016 47.9993 22.3994V25.5997Z" fill="#E7ECF8"/>
<path d="M25.6934 27.9322C25.671 27.9487 25.6316 27.9634 25.6292 27.9826C25.6206 28.0482 25.6246 28.1154 25.6246 28.1821C25.6246 34.7015 25.6246 41.2209 25.6244 47.7404C25.6244 47.8268 25.6201 47.9134 25.618 47.9998H22.4207C22.4228 47.9265 22.4271 47.8534 22.4271 47.7801C22.4273 40.4735 22.4273 33.1668 22.4273 25.8605V25.616C22.3388 25.612 22.2737 25.6066 22.2089 25.6066C19.1516 25.6061 16.094 25.6061 13.0367 25.6066C12.9703 25.6066 12.9037 25.6117 12.8373 25.6146C12.8359 24.5402 12.8346 23.4658 12.8333 22.3914C12.9191 22.3965 13.005 22.4058 13.0909 22.4058C14.7519 22.4066 16.4127 22.4064 18.0738 22.4064C18.6916 22.4064 19.3095 22.4077 19.9273 22.4045C19.9953 22.4042 20.0631 22.3784 20.1311 22.3645C20.2196 22.4544 20.3076 22.5448 20.3967 22.6338C21.4087 23.6469 22.4209 24.6602 23.4332 25.673C24.1863 26.4263 24.9401 27.1789 25.6934 27.9317V27.9322Z" fill="#E7ECF8"/>
<path d="M10.3795 41.5235C10.1134 41.5133 9.86831 41.4235 9.62671 41.3216C9.77871 41.3077 9.93071 41.2824 10.0827 41.2819C11.0414 41.2795 12.0003 41.2827 12.959 41.284C12.6896 41.4072 12.4094 41.4912 12.1139 41.5213C11.5358 41.5221 10.9576 41.5227 10.3795 41.5235Z" fill="#D0D0D1"/>
<path d="M10.3794 41.5234C10.9575 41.5226 11.5357 41.522 12.1138 41.5212C12.017 41.5407 11.921 41.5684 11.8231 41.5783C11.3589 41.6252 10.8954 41.6244 10.4338 41.5466C10.4149 41.5434 10.3975 41.5314 10.3794 41.5234Z" fill="#CDCECF"/>
<path d="M35.9581 41.5232C35.6511 41.505 35.3685 41.3997 35.0901 41.2794C36.2391 41.2808 37.3882 41.2824 38.5373 41.2837C38.2679 41.4069 37.9877 41.4909 37.6922 41.521C37.1141 41.5218 36.5359 41.5224 35.9578 41.5232H35.9581Z" fill="#D0D0D1"/>
<path d="M35.958 41.5234C36.5361 41.5226 37.1143 41.522 37.6924 41.5212C37.5889 41.542 37.4865 41.5722 37.3823 41.5815C36.9247 41.6231 36.4673 41.6247 36.0127 41.5466C35.9937 41.5434 35.9764 41.5314 35.9583 41.5234H35.958Z" fill="#CCCECF"/>
<path d="M13.6322 40.9612C13.5304 41.0158 13.4288 41.0702 13.3269 41.1249C13.2205 41.123 13.1144 41.1188 13.0082 41.1201C11.9397 41.1329 10.8715 41.1489 9.80293 41.1574C9.58506 41.1593 9.36693 41.1337 9.1488 41.1206C9.0704 41.0801 8.992 41.0396 8.91333 40.999C9.29093 40.986 9.66826 40.9628 10.0459 40.9614C11.2413 40.9569 12.4368 40.9606 13.6322 40.9612Z" fill="#D4D4D5"/>
<path d="M12.959 41.2837C12.0004 41.2824 11.0414 41.2792 10.0828 41.2816C9.93079 41.2819 9.77879 41.3075 9.62679 41.3213C9.46759 41.2544 9.30812 41.1875 9.14893 41.1205C9.36706 41.1336 9.58519 41.1589 9.80306 41.1573C10.8716 41.1488 11.9398 41.1325 13.0084 41.12C13.1145 41.1187 13.2209 41.1232 13.327 41.1248C13.2044 41.1779 13.0817 41.2309 12.9588 41.2837H12.959Z" fill="#D2D2D3"/>
<path d="M7.74553 40.0827C7.66393 39.9894 7.58233 39.8958 7.50073 39.8024C7.6058 39.815 7.71086 39.8379 7.81566 39.8382C8.98712 39.8408 10.1586 39.8451 11.3298 39.8382C12.4735 39.8315 13.6172 39.8147 14.7607 39.7963C14.8562 39.7947 14.9508 39.7491 15.0458 39.7238C14.9914 39.7904 14.937 39.8568 14.8826 39.9235C14.7828 39.972 14.6986 40.0416 14.5727 40.0424C13.5684 40.0491 12.5644 40.0416 11.5599 40.071C10.2895 40.1078 9.01699 40.0816 7.74553 40.0824V40.0827Z" fill="#DFDFDF"/>
<path d="M7.74561 40.0824C9.01707 40.0813 10.2896 40.1077 11.56 40.0709C12.5645 40.0419 13.5685 40.0491 14.5728 40.0424C14.6984 40.0416 14.7829 39.972 14.8826 39.9235C14.7973 40.0155 14.7122 40.1075 14.6269 40.1995C14.5322 40.2261 14.4381 40.2733 14.3429 40.2757C13.6197 40.2952 12.8962 40.3141 12.173 40.3176C10.7773 40.3245 9.38186 40.3211 7.98614 40.3219C7.90614 40.2419 7.82587 40.1621 7.74587 40.0821L7.74561 40.0824Z" fill="#DDDEDE"/>
<path d="M7.98586 40.3222C9.38159 40.3214 10.7773 40.3246 12.1728 40.318C12.8962 40.3145 13.6194 40.2956 14.3426 40.2761C14.4378 40.2734 14.532 40.2262 14.6266 40.1998C14.5082 40.307 14.3898 40.4142 14.2714 40.5214C12.2693 40.535 10.2672 40.5489 8.26506 40.5628C8.17199 40.4828 8.07893 40.4028 7.9856 40.3225L7.98586 40.3222Z" fill="#DCDCDC"/>
<path d="M8.26538 40.5624C10.2675 40.5488 12.2696 40.535 14.2717 40.5211C14.2203 40.5617 14.1688 40.6024 14.1171 40.643C14.0384 40.655 13.96 40.6755 13.8811 40.6774C13.2771 40.6934 12.6734 40.7142 12.0691 40.7177C10.9854 40.7241 9.90164 40.7206 8.81791 40.7177C8.68591 40.7174 8.55418 40.695 8.42218 40.683C8.36991 40.6427 8.31765 40.6022 8.26538 40.5619V40.5624Z" fill="#D9D9DA"/>
<path d="M8.42212 40.6833C8.55412 40.6953 8.68585 40.7177 8.81785 40.718C9.90158 40.7209 10.9853 40.7241 12.069 40.718C12.673 40.7145 13.277 40.6937 13.881 40.6777C13.96 40.6756 14.0384 40.655 14.117 40.6433C13.9989 40.7238 13.8808 40.8044 13.7626 40.8849C13.6562 40.8833 13.5498 40.8801 13.4434 40.8801C11.9933 40.8798 10.5434 40.8809 9.09332 40.8782C8.94798 40.8782 8.80265 40.8564 8.65732 40.8446C8.57892 40.791 8.50052 40.7372 8.42212 40.6833Z" fill="#D7D8D8"/>
<path d="M13.6324 40.9612C12.4369 40.9606 11.2415 40.9569 10.046 40.9614C9.6684 40.9628 9.29107 40.986 8.91347 40.999C8.82814 40.9476 8.7428 40.8958 8.65747 40.8444C8.8028 40.8561 8.94814 40.8777 9.09347 40.878C10.5436 40.8804 11.9935 40.8793 13.4436 40.8798C13.55 40.8798 13.6564 40.883 13.7628 40.8846C13.7193 40.9102 13.6758 40.9356 13.6324 40.9612Z" fill="#D6D6D6"/>
<path d="M39.5309 40.7613C39.4242 40.828 39.3176 40.8946 39.2109 40.9613C37.8424 40.9608 36.4736 40.9602 35.1051 40.9602C35.052 40.9602 34.9965 40.9565 34.9464 40.9698C34.7741 41.0162 34.604 41.0002 34.4336 40.9648L34.1677 40.8008C35.6029 40.7754 37.0389 40.844 38.4738 40.7626C38.825 40.7426 39.1786 40.7605 39.5309 40.761V40.7613Z" fill="#D6D6D7"/>
<path d="M34.4334 40.9648C34.6041 41 34.7739 41.016 34.9462 40.9699C34.9963 40.9563 35.0518 40.9603 35.1049 40.9603C36.4734 40.9603 37.8422 40.9608 39.2107 40.9613C39.1088 41.016 39.0072 41.0704 38.9054 41.1251C37.9819 41.1235 37.0587 41.1219 36.1353 41.1205C36.1022 41.1205 36.0689 41.1227 36.0358 41.1267C35.5993 41.1811 35.163 41.18 34.7267 41.1208C34.6289 41.0688 34.5307 41.0168 34.4329 40.9648H34.4334Z" fill="#D4D4D5"/>
<path d="M38.5374 41.2837C37.3883 41.2824 36.2393 41.2808 35.0902 41.2794C34.9692 41.2264 34.8484 41.1736 34.7273 41.1205C35.1633 41.1797 35.5996 41.1808 36.0364 41.1264C36.0692 41.1224 36.1025 41.1202 36.1358 41.1202C37.0593 41.1216 37.9825 41.1232 38.9059 41.1248C38.7833 41.1778 38.6606 41.2309 38.5377 41.284L38.5374 41.2837Z" fill="#D2D2D3"/>
<path d="M40.6244 39.7238C40.57 39.7904 40.5156 39.8568 40.4612 39.9235C40.3575 39.9798 40.2633 40.0422 40.1313 40.043C38.7143 40.051 37.2975 40.0688 35.8804 40.0787C35.0284 40.0846 34.1762 40.0816 33.3239 40.0824C33.2423 39.9891 33.1607 39.8955 33.0791 39.8022C33.1842 39.8147 33.289 39.8374 33.394 39.8379C34.106 39.8411 34.8183 39.8435 35.5303 39.8387C37.1265 39.828 38.7228 39.8142 40.3188 39.7963C40.4207 39.7952 40.522 39.7491 40.6239 39.7238H40.6244Z" fill="#DFDFDF"/>
<path d="M33.3242 40.0824C34.1765 40.0813 35.0285 40.0845 35.8807 40.0787C37.2978 40.0688 38.7146 40.0509 40.1316 40.0429C40.2636 40.0421 40.3578 39.9797 40.4615 39.9235C40.3895 40.0021 40.3172 40.0808 40.2452 40.1595C40.1308 40.1875 40.0503 40.2827 39.9154 40.2835C38.9573 40.288 37.9997 40.2808 37.041 40.3112C35.8831 40.348 34.7234 40.3213 33.5645 40.3224C33.4845 40.2424 33.4042 40.1627 33.3242 40.0827V40.0824Z" fill="#DEDEDE"/>
<path d="M33.5645 40.3222C34.7234 40.3214 35.8831 40.3478 37.041 40.311C37.9994 40.2806 38.9572 40.2878 39.9154 40.2833C40.05 40.2828 40.1308 40.1873 40.2452 40.1593C40.1138 40.2798 39.982 40.4004 39.8506 40.5209C37.8484 40.5345 35.8463 40.5484 33.8442 40.5622C33.7511 40.4822 33.6581 40.4022 33.5647 40.322L33.5645 40.3222Z" fill="#DCDCDC"/>
<path d="M33.8438 40.5624C35.8459 40.5486 37.848 40.535 39.8501 40.5211C39.7987 40.5617 39.7472 40.6024 39.6955 40.643C39.6035 40.655 39.5117 40.6769 39.4195 40.6779C38.0709 40.6934 36.7224 40.7067 35.3736 40.719C35.0478 40.7219 34.7219 40.7227 34.3963 40.7177C34.2643 40.7155 34.1326 40.6952 34.0006 40.683C33.9483 40.6427 33.896 40.6022 33.8435 40.5619L33.8438 40.5624Z" fill="#D9D9DA"/>
<path d="M39.5308 40.7609C39.1783 40.7604 38.8249 40.7428 38.4738 40.7625C37.0388 40.8438 35.6028 40.7753 34.1676 40.8006C34.1122 40.7614 34.0564 40.7225 34.001 40.6833C34.133 40.6953 34.2647 40.7158 34.3967 40.718C34.7223 40.723 35.0482 40.7222 35.374 40.7193C36.7226 40.707 38.0714 40.6937 39.4199 40.6782C39.5119 40.6772 39.6039 40.6553 39.6959 40.6433C39.6409 40.6825 39.586 40.722 39.5311 40.7612L39.5308 40.7609Z" fill="#D8D8D8"/>
<path d="M15.7132 38.5212C15.674 38.6154 15.6348 38.7092 15.5956 38.8034C15.4892 38.8023 15.3828 38.7994 15.2766 38.8002C13.5961 38.8132 11.9156 38.8295 10.235 38.8388C9.12519 38.8452 8.01506 38.842 6.9052 38.8431C6.86493 38.7492 6.82493 38.6554 6.78467 38.5615C6.858 38.6303 6.94707 38.6447 7.0436 38.6404C7.3684 38.626 7.6932 38.6036 8.01826 38.602C9.00279 38.597 9.98732 38.605 10.9718 38.5991C12.4742 38.59 13.9764 38.574 15.4788 38.5586C15.5572 38.5578 15.635 38.5346 15.7132 38.5215V38.5212Z" fill="#ECECEC"/>
<path d="M6.90527 38.843C8.01513 38.8419 9.12526 38.8451 10.2351 38.8387C11.9156 38.8291 13.5962 38.8129 15.2767 38.8001C15.3831 38.7993 15.4892 38.8022 15.5956 38.8033C15.5706 38.8566 15.5455 38.9102 15.5204 38.9635C15.4354 38.9755 15.3503 38.9966 15.265 38.9982C13.9879 39.0227 12.7111 38.9891 11.4332 39.0297C10.0431 39.0737 8.6506 39.0403 7.25914 39.0382C7.16741 39.0382 7.07567 39.0153 6.98394 39.003C6.95781 38.9497 6.93167 38.8963 6.90554 38.843H6.90527Z" fill="#E9E9EA"/>
<path d="M6.98364 39.003C7.07538 39.0152 7.16711 39.0379 7.25884 39.0382C8.6503 39.0406 10.0428 39.0739 11.433 39.0296C12.7108 38.9891 13.9876 39.0227 15.2647 38.9982C15.35 38.9966 15.4351 38.9755 15.5201 38.9635C15.4767 39.0427 15.4332 39.1219 15.39 39.2011C14.1673 39.2214 12.9449 39.1923 11.7212 39.2294C10.2658 39.2734 8.80817 39.2414 7.35137 39.2366C7.25751 39.2363 7.16364 39.1875 7.06978 39.1611C7.04098 39.1086 7.01218 39.0558 6.98364 39.0032V39.003Z" fill="#E8E8E8"/>
<path d="M7.06982 39.1608C7.16369 39.1869 7.25756 39.2357 7.35142 39.2362C8.80821 39.241 10.2658 39.273 11.7213 39.229C12.9447 39.192 14.1674 39.221 15.39 39.2008C15.3495 39.2672 15.3092 39.3338 15.2687 39.4002C14.2655 39.4194 13.2626 39.4024 12.2589 39.4282C10.6703 39.4696 9.07995 39.4386 7.49035 39.4405C7.38076 39.4405 7.27862 39.4272 7.18849 39.361C7.14902 39.2944 7.10929 39.2274 7.06982 39.1608Z" fill="#E6E6E6"/>
<path d="M7.18848 39.3615C7.27888 39.4276 7.38074 39.4412 7.49034 39.4409C9.07993 39.4393 10.6703 39.47 12.2588 39.4286C13.2626 39.4025 14.2655 39.4198 15.2687 39.4006L15.1612 39.5636C15.0892 39.5756 15.0175 39.5969 14.9455 39.598C14.081 39.6108 13.2167 39.6081 12.3519 39.631C11.0546 39.6652 9.7554 39.6396 8.45727 39.6401C8.09781 39.6401 7.73834 39.6433 7.37888 39.6452C7.31541 39.5505 7.25194 39.4561 7.18848 39.3615Z" fill="#E4E4E4"/>
<path d="M7.37891 39.6453C7.73837 39.6435 8.09784 39.6405 8.4573 39.6403C9.75569 39.6397 11.0546 39.6653 12.3519 39.6312C13.2167 39.6085 14.081 39.6112 14.9455 39.5981C15.0175 39.5971 15.0893 39.5757 15.1613 39.5637C15.1229 39.6173 15.0842 39.6707 15.0458 39.7243C14.9509 39.7493 14.8562 39.7952 14.7607 39.7968C13.617 39.8149 12.4735 39.832 11.3298 39.8387C10.1584 39.8453 8.98716 39.8411 7.8157 39.8387C7.71064 39.8387 7.60557 39.8155 7.50077 39.8029C7.46024 39.7504 7.41944 39.6981 7.37891 39.6456V39.6453Z" fill="#E2E2E2"/>
<path d="M32.5623 39.0029C32.5362 38.9493 32.5098 38.896 32.4836 38.8424C33.845 38.8128 35.2063 38.8499 36.5687 38.8101C38.1028 38.7653 39.6393 38.8013 41.1748 38.8024C41.1495 38.856 41.1244 38.9096 41.0991 38.9632C41.014 38.9752 40.9289 38.9965 40.8436 38.9979C39.3535 39.0227 37.8633 38.9779 36.3727 39.0309C35.1959 39.0728 34.0162 39.0403 32.8378 39.0379C32.746 39.0379 32.6543 39.0149 32.5626 39.0027L32.5623 39.0029Z" fill="#E9E9E9"/>
<path d="M32.5623 39.003C32.654 39.0152 32.7457 39.0379 32.8375 39.0382C34.0158 39.0406 35.1953 39.0731 36.3724 39.0312C37.863 38.9782 39.3532 39.023 40.8433 38.9982C40.9286 38.9968 41.0137 38.9755 41.0987 38.9635C41.0553 39.0427 41.0118 39.1219 40.9686 39.2011C39.5198 39.2219 38.071 39.1803 36.6214 39.2307C35.3924 39.2736 34.1606 39.2414 32.9303 39.2363C32.8361 39.236 32.7425 39.1872 32.6487 39.1608C32.6199 39.1083 32.5911 39.0555 32.5625 39.003H32.5623Z" fill="#E7E8E8"/>
<path d="M32.6485 39.1608C32.7423 39.1869 32.8362 39.2357 32.9301 39.2362C34.1605 39.2413 35.3922 39.2736 36.6212 39.2306C38.0708 39.18 39.5196 39.2218 40.9684 39.201C40.9279 39.2674 40.8876 39.3341 40.8471 39.4005C39.6111 39.4218 38.3756 39.3896 37.1388 39.4296C35.7767 39.4736 34.4122 39.4413 33.049 39.4362C32.9549 39.436 32.861 39.3874 32.7669 39.3613C32.7274 39.2946 32.6877 39.2277 32.6482 39.161L32.6485 39.1608Z" fill="#E5E6E6"/>
<path d="M32.7671 39.3612C32.8612 39.3874 32.9551 39.4359 33.0492 39.4362C34.4127 39.441 35.7772 39.4735 37.1391 39.4295C38.3759 39.3895 39.6113 39.4218 40.8473 39.4004L40.7399 39.5634C40.6612 39.5754 40.5828 39.5975 40.5041 39.5978C39.2935 39.6034 38.0825 39.594 36.8719 39.6351C36.1668 39.6591 35.4604 39.6388 34.7548 39.6396C34.1556 39.6404 33.5564 39.6428 32.9572 39.6447C32.8938 39.55 32.8303 39.4556 32.7668 39.361L32.7671 39.3612Z" fill="#E4E4E4"/>
<path d="M32.9575 39.6451C33.5567 39.6432 34.1559 39.6408 34.7551 39.64C35.461 39.6392 36.1674 39.6595 36.8722 39.6355C38.0828 39.5944 39.2935 39.6037 40.5044 39.5981C40.5831 39.5979 40.6615 39.5757 40.7401 39.5637C40.7015 39.6173 40.6631 39.6707 40.6244 39.7243C40.5228 39.7496 40.4215 39.7957 40.3193 39.7968C38.7231 39.8147 37.1271 39.8285 35.5308 39.8392C34.8188 39.844 34.1066 39.8416 33.3946 39.8384C33.2895 39.8379 33.1845 39.8152 33.0797 39.8027C33.0391 39.7501 32.9983 39.6979 32.9578 39.6453L32.9575 39.6451Z" fill="#E2E2E2"/>
<path d="M15.9907 37.4006C15.9763 37.4936 15.9619 37.587 15.9478 37.68C15.8766 37.6931 15.8054 37.7163 15.7339 37.7179C14.9571 37.7347 14.1803 37.728 13.403 37.7507C11.623 37.803 9.84112 37.7136 8.06033 37.7966C7.64247 37.816 7.22273 37.8016 6.8038 37.7976C6.719 37.7968 6.6342 37.7739 6.54967 37.7608C6.53767 37.6936 6.52567 37.6264 6.51367 37.5592C6.60487 37.5726 6.69634 37.599 6.787 37.5971C7.16514 37.5891 7.543 37.5659 7.92113 37.5606C9.74885 37.5347 11.5768 37.5971 13.4046 37.5243C14.1747 37.4936 14.9472 37.5179 15.7187 37.5206C15.8315 37.5211 15.9312 37.5112 15.991 37.4L15.9907 37.4006Z" fill="#F2F2F2"/>
<path d="M6.54956 37.7611C6.63436 37.7739 6.71889 37.7971 6.80369 37.7979C7.22262 37.8016 7.64235 37.8163 8.06022 37.7968C9.84101 37.7139 11.6229 37.8032 13.4029 37.751C14.1802 37.7283 14.957 37.735 15.7338 37.7182C15.8052 37.7166 15.8764 37.6934 15.9476 37.6803C15.934 37.7467 15.9204 37.8134 15.9068 37.8798C15.8423 37.8931 15.778 37.9166 15.7132 37.9179C15.0228 37.9326 14.3327 37.932 13.6421 37.9515C11.8623 38.0011 10.0807 37.9152 8.30022 37.9966C7.81595 38.0187 7.32982 37.9987 6.84449 38.0008C6.74823 38.0014 6.65916 37.9902 6.58503 37.923C6.57329 37.8691 6.56156 37.8155 6.54956 37.7616V37.7611Z" fill="#F1F1F1"/>
<path d="M6.58472 37.9227C6.65885 37.9902 6.74792 38.0011 6.84418 38.0006C7.32951 37.9985 7.81564 38.0184 8.29991 37.9963C10.0804 37.915 11.8618 38.0009 13.6417 37.9513C14.3324 37.9321 15.0225 37.9326 15.7129 37.9177C15.7777 37.9163 15.842 37.8928 15.9065 37.8795C15.8937 37.9331 15.8807 37.9867 15.8679 38.04C15.7865 38.1331 15.6767 38.1182 15.5708 38.1198C13.9607 38.1432 12.3508 38.0977 10.7402 38.151C9.45643 38.1934 8.17058 38.1592 6.88552 38.1606C6.78925 38.1606 6.69965 38.1512 6.62578 38.0824C6.61218 38.0291 6.59858 37.976 6.58472 37.9227Z" fill="#F0F0F0"/>
<path d="M6.62598 38.0822C6.69958 38.151 6.78944 38.1606 6.88571 38.1603C8.17077 38.159 9.45689 38.1934 10.7404 38.1507C12.351 38.0974 13.9611 38.143 15.571 38.1195C15.6769 38.1179 15.7867 38.1331 15.8681 38.0398C15.8566 38.0803 15.8454 38.1209 15.8339 38.1614C15.7742 38.187 15.7155 38.2305 15.6542 38.235C15.3761 38.2558 15.0971 38.2737 14.8185 38.2779C13.1014 38.3049 11.3841 38.2449 9.66649 38.3129C8.75557 38.3489 7.8417 38.319 6.92944 38.3201C6.83398 38.3201 6.74224 38.3174 6.67211 38.2401C6.65664 38.1873 6.64118 38.1347 6.62598 38.0819V38.0822Z" fill="#EFEFEF"/>
<path d="M6.67214 38.2404C6.74227 38.3177 6.83401 38.3204 6.92947 38.3204C7.842 38.3193 8.7556 38.3495 9.66653 38.3132C11.3841 38.2452 13.1014 38.3055 14.8185 38.2783C15.0972 38.274 15.3761 38.2561 15.6542 38.2353C15.7156 38.2308 15.7742 38.1873 15.834 38.1617C15.8081 38.2423 15.7825 38.3228 15.7566 38.4033C15.6636 38.402 15.5705 38.398 15.4774 38.4001C14.9334 38.4124 14.3894 38.4308 13.8454 38.4388C12.0785 38.4652 10.3111 38.3953 8.5444 38.4759C8.02707 38.4993 7.5076 38.4772 6.98921 38.4812C6.87401 38.482 6.78014 38.4561 6.71187 38.3601C6.69854 38.3201 6.68521 38.2801 6.67188 38.2401L6.67214 38.2404Z" fill="#EEEEEE"/>
<path d="M6.71191 38.36C6.78018 38.456 6.87405 38.4819 6.98925 38.4811C7.50764 38.4771 8.02711 38.4992 8.54444 38.4757C10.3114 38.3952 12.0786 38.4651 13.8455 38.4387C14.3895 38.4304 14.9335 38.4123 15.4775 38.4C15.5705 38.3979 15.6636 38.4021 15.7567 38.4032C15.742 38.4424 15.7276 38.4816 15.7129 38.5208C15.6348 38.5336 15.5567 38.5568 15.4785 38.5578C13.9764 38.5733 12.474 38.5893 10.9716 38.5984C9.9871 38.6042 9.00257 38.5962 8.01804 38.6013C7.69324 38.6029 7.36818 38.6253 7.04338 38.6397C6.94685 38.644 6.85778 38.6296 6.78445 38.5608C6.76018 38.4939 6.73591 38.4269 6.71191 38.36Z" fill="#EDEDED"/>
<path d="M41.5691 37.4005C41.5547 37.4936 41.5405 37.5869 41.5261 37.68C41.4549 37.693 41.3837 37.7165 41.3123 37.7178C40.2496 37.7349 39.187 37.7229 38.1238 37.7501C36.6552 37.7877 35.1851 37.7594 33.7155 37.7602C33.6227 37.7602 33.5299 37.7714 33.4371 37.7733C33.039 37.781 32.6409 37.788 32.2427 37.7922C32.2046 37.7928 32.1662 37.772 32.1278 37.761C32.1158 37.6938 32.1038 37.6266 32.0918 37.5594C32.1763 37.5728 32.2611 37.5992 32.3451 37.597C32.5969 37.5906 32.8483 37.5642 33.1001 37.561C34.8545 37.5381 36.6091 37.5882 38.364 37.5258C39.3336 37.4914 40.3056 37.5189 41.2765 37.5205C41.3928 37.5205 41.5048 37.5226 41.5688 37.4005H41.5691Z" fill="#F2F2F2"/>
<path d="M32.1282 37.7614C32.1666 37.7723 32.2047 37.7931 32.2431 37.7926C32.6412 37.7883 33.0394 37.7814 33.4375 37.7736C33.5303 37.7718 33.6231 37.7606 33.7159 37.7606C35.1855 37.7598 36.6556 37.7883 38.1241 37.7504C39.1873 37.7232 40.25 37.735 41.3127 37.7182C41.3841 37.7171 41.4553 37.6934 41.5265 37.6803C41.5129 37.7467 41.4993 37.8131 41.4857 37.8798C41.4145 37.8931 41.3436 37.9174 41.2721 37.9182C40.2561 37.9283 39.2401 37.9227 38.2236 37.9536C36.6234 38.0022 35.0212 37.9134 33.4204 37.9974C33.0823 38.0152 32.7423 38.0048 32.4034 37.9966C32.3228 37.9947 32.2436 37.9488 32.1636 37.9232C32.1519 37.8694 32.1402 37.8158 32.1282 37.7619V37.7614Z" fill="#F1F1F1"/>
<path d="M32.1633 37.9225C32.2433 37.9481 32.3225 37.994 32.4031 37.9958C32.742 38.0041 33.082 38.0145 33.4201 37.9966C35.0209 37.9126 36.623 38.0014 38.2233 37.9529C39.2398 37.922 40.2556 37.9276 41.2718 37.9174C41.343 37.9166 41.4142 37.8924 41.4854 37.879C41.4726 37.9326 41.4595 37.9862 41.4467 38.0398C41.2038 38.0662 40.9611 38.1118 40.7177 38.1161C39.0569 38.1462 37.3958 38.0905 35.7345 38.1516C34.6457 38.1916 33.5543 38.1588 32.4639 38.1601C32.3679 38.1601 32.2783 38.1505 32.2047 38.082C32.1911 38.0286 32.1775 37.9756 32.1636 37.9222L32.1633 37.9225Z" fill="#F0F0F0"/>
<path d="M32.2043 38.0824C32.2779 38.1512 32.3675 38.1608 32.4635 38.1605C33.5539 38.1592 34.6454 38.192 35.7342 38.152C37.3955 38.0909 39.0566 38.1467 40.7174 38.1165C40.9608 38.112 41.2035 38.0667 41.4464 38.0403C41.435 38.0808 41.4238 38.1213 41.4123 38.1619C41.3392 38.1877 41.2667 38.2333 41.1928 38.2363C40.6814 38.2557 40.1696 38.2709 39.6576 38.2789C38.0003 38.3053 36.343 38.2416 34.6854 38.3144C33.9609 38.3461 33.2337 38.3192 32.5078 38.3205C32.4123 38.3205 32.3206 38.3179 32.2505 38.2405C32.235 38.1877 32.2195 38.1352 32.2043 38.0824Z" fill="#EFEFEF"/>
<path d="M32.2505 38.2404C32.3206 38.3177 32.4124 38.3204 32.5078 38.3204C33.2337 38.3193 33.9609 38.3463 34.6854 38.3143C36.3427 38.2415 38.0003 38.3052 39.6576 38.2788C40.1694 38.2705 40.6814 38.2556 41.1928 38.2361C41.267 38.2332 41.3392 38.1876 41.4123 38.1617C41.3864 38.2423 41.3608 38.3228 41.335 38.4033C41.2352 38.402 41.1355 38.3983 41.036 38.3999C40.2395 38.4129 39.4432 38.406 38.6462 38.4308C36.9798 38.4828 35.3115 38.3937 33.6446 38.4767C33.2865 38.4945 32.9267 38.4764 32.5681 38.4809C32.4529 38.4825 32.359 38.4559 32.2908 38.3599C32.2774 38.3199 32.2641 38.2799 32.2508 38.2399L32.2505 38.2404Z" fill="#EEEEEE"/>
<path d="M32.2906 38.36C32.3588 38.456 32.4527 38.4827 32.5679 38.4811C32.9268 38.4763 33.2866 38.4944 33.6444 38.4768C35.3114 38.3936 36.9799 38.4829 38.646 38.4309C39.4431 38.4061 40.2393 38.4131 41.0359 38.4C41.1356 38.3984 41.2353 38.4021 41.3348 38.4035C41.3201 38.4429 41.3057 38.4821 41.2911 38.5216C41.2753 38.5341 41.2593 38.5469 41.2436 38.5595C39.7471 38.5728 38.2503 38.5904 36.7537 38.5984C35.5623 38.6048 34.3708 38.5987 33.1791 38.6011C33.0535 38.6011 32.9282 38.6227 32.8023 38.6296C32.6519 38.6381 32.4954 38.6789 32.3634 38.5624C32.3388 38.4949 32.3146 38.4277 32.29 38.3603L32.2906 38.36Z" fill="#EDEDED"/>
<path d="M32.3638 38.5621C32.4955 38.6787 32.652 38.6379 32.8027 38.6293C32.9286 38.6224 33.0539 38.6011 33.1795 38.6008C34.371 38.5987 35.5627 38.6045 36.7541 38.5981C38.2509 38.5901 39.7475 38.5725 41.244 38.5592C41.204 38.6661 41.1173 38.6792 41.0176 38.6803C40.1077 38.6901 39.1984 38.6768 38.2883 38.7115C37.3456 38.7475 36.4005 38.7141 35.4566 38.7208C34.4536 38.728 33.451 38.7469 32.4483 38.7608C32.4203 38.6944 32.3923 38.6283 32.3643 38.5619L32.3638 38.5621Z" fill="#ECECEC"/>
<path d="M32.4478 38.7612C33.4504 38.7473 34.4534 38.7284 35.456 38.7212C36.4 38.7143 37.3451 38.7476 38.2877 38.7119C39.1979 38.6772 40.1075 38.6905 41.0171 38.6807C41.1171 38.6796 41.2035 38.6665 41.2435 38.5596C41.2592 38.5471 41.2752 38.5343 41.2909 38.5217C41.252 38.6153 41.2131 38.7089 41.1741 38.8025C39.6387 38.8017 38.1021 38.7657 36.568 38.8103C35.2059 38.85 33.8446 38.8129 32.483 38.8425C32.4712 38.8153 32.4592 38.7884 32.4475 38.7612H32.4478Z" fill="#EBEBEB"/>
<path d="M15.7474 35.1964C15.801 35.3823 15.8544 35.5681 15.908 35.7543C15.8833 35.8625 15.8068 35.9177 15.6786 35.9196C13.8779 35.9423 12.0773 35.8919 10.276 35.9527C9.14028 35.9911 8.00242 35.9599 6.86536 35.9596C6.80563 35.9596 6.74563 35.9585 6.68589 35.9577C6.61923 35.9569 6.57096 35.9295 6.54883 35.8639C6.60269 35.6663 6.65629 35.4687 6.71016 35.2711C6.75896 35.3873 6.86349 35.3593 6.95176 35.3585C7.93469 35.3468 8.91762 35.3545 9.90108 35.3292C11.3296 35.2924 12.76 35.3231 14.1896 35.318C14.6541 35.3164 15.1184 35.2927 15.5826 35.2796C15.6512 35.2777 15.7176 35.2743 15.7474 35.1967V35.1964Z" fill="#FAFAFA"/>
<path d="M6.54904 35.8642C6.57117 35.9298 6.61943 35.9573 6.6861 35.9581C6.74583 35.9586 6.80583 35.96 6.86557 35.96C8.00263 35.96 9.14049 35.9912 10.2762 35.953C12.0773 35.8922 13.8781 35.9426 15.6789 35.92C15.8069 35.9184 15.8833 35.8633 15.9082 35.7546C15.9354 35.9101 15.9629 36.0658 15.9901 36.2213C15.9869 36.2674 15.9837 36.3133 15.9805 36.3594C14.8247 36.3832 13.669 36.3608 12.5125 36.389C10.4997 36.4381 8.48476 36.3709 6.47144 36.44C6.4973 36.248 6.52317 36.0562 6.5493 35.8642H6.54904Z" fill="#F9F9F9"/>
<path d="M6.47131 36.4397C8.48463 36.3706 10.4996 36.4378 12.5123 36.3887C13.6689 36.3607 14.8246 36.3829 15.9806 36.3591C15.9822 36.3925 15.9862 36.4255 15.9851 36.4589C15.9798 36.6295 15.9438 36.6666 15.7731 36.6783C15.7467 36.6802 15.7201 36.6791 15.6934 36.6797C13.8795 36.7031 12.0657 36.6538 10.2513 36.7119C8.9961 36.7522 7.73824 36.7194 6.48171 36.7191C6.47824 36.6319 6.47504 36.5445 6.47184 36.4573L6.46411 36.4485L6.47158 36.4394L6.47131 36.4397Z" fill="#F8F8F8"/>
<path d="M6.48169 36.719C7.73822 36.719 8.99581 36.752 10.2513 36.7118C12.0657 36.6536 13.8795 36.703 15.6934 36.6795C15.72 36.6792 15.7467 36.68 15.7731 36.6782C15.9438 36.6664 15.9798 36.6294 15.9851 36.4587C15.9862 36.4256 15.9822 36.3923 15.9806 36.359C15.9838 36.3131 15.987 36.267 15.9902 36.2208C16.0014 36.4403 16.0126 36.6598 16.024 36.8795C15.3659 36.8939 14.7078 36.892 14.0494 36.9102C12.2401 36.9606 10.4291 36.88 8.61901 36.9547C7.90782 36.984 7.19422 36.9592 6.48169 36.959C6.48169 36.879 6.48169 36.799 6.48196 36.719H6.48169Z" fill="#F7F7F7"/>
<path d="M15.9907 37.4009C15.9312 37.5121 15.8312 37.5217 15.7184 37.5215C14.9469 37.5188 14.1744 37.4945 13.4043 37.5252C11.5766 37.598 9.74857 37.5353 7.92084 37.5615C7.54271 37.5668 7.16485 37.59 6.78672 37.598C6.69578 37.5999 6.60432 37.5735 6.51338 37.5601C6.50112 37.4535 6.48858 37.3471 6.47632 37.2404C6.48885 37.2537 6.50165 37.2668 6.51418 37.2801C6.52005 37.3487 6.55205 37.3935 6.62512 37.3967C6.68485 37.3993 6.74485 37.4009 6.80485 37.4001C8.26884 37.3767 9.73283 37.4145 11.1976 37.3703C12.6816 37.3255 14.1677 37.3604 15.6531 37.3604C15.7131 37.3604 15.7731 37.3583 15.8328 37.3599C15.944 37.3631 15.9915 37.3081 15.9835 37.2001L15.9856 37.0404C15.9981 37.0004 16.0107 36.9607 16.0235 36.9207C16.0125 37.0809 16.0013 37.2412 15.9904 37.4015L15.9907 37.4009Z" fill="#F3F3F3"/>
<path d="M6.51412 37.2797C6.50158 37.2663 6.48878 37.2533 6.47625 37.2399C6.42852 36.9794 6.42132 36.7186 6.47145 36.4573C6.47465 36.5445 6.47812 36.6317 6.48132 36.7191C6.48132 36.7991 6.48132 36.8791 6.48105 36.9591C6.46638 37.0703 6.51705 37.1215 6.62718 37.1189C6.67385 37.1178 6.72051 37.1205 6.76691 37.1194C7.23838 37.1063 7.70984 37.0853 8.18131 37.0813C8.95997 37.0749 9.7389 37.0834 10.5176 37.0789C12.3402 37.0679 14.1629 37.053 15.9855 37.0397C15.9847 37.093 15.9842 37.1461 15.9834 37.1994C14.1757 37.2127 12.3679 37.2266 10.5602 37.2394C10.241 37.2415 9.92183 37.2349 9.60263 37.2407C8.57304 37.2591 7.54238 37.1949 6.51385 37.2797H6.51412Z" fill="#F5F5F5"/>
<path d="M6.51416 37.2796C7.54295 37.1948 8.57335 37.2588 9.60294 37.2407C9.92214 37.2351 10.2413 37.2417 10.5605 37.2393C12.3683 37.2265 14.176 37.2127 15.9837 37.1993C15.9917 37.3076 15.9442 37.3623 15.833 37.3591C15.773 37.3575 15.713 37.3596 15.6533 37.3596C14.168 37.3596 12.6819 37.3249 11.1979 37.3695C9.73308 37.4137 8.26908 37.3759 6.80509 37.3993C6.74509 37.4004 6.68536 37.3985 6.62536 37.3959C6.55203 37.3927 6.52029 37.3479 6.51443 37.2793L6.51416 37.2796Z" fill="#F4F4F4"/>
<path d="M15.986 37.0396C14.1633 37.053 12.3406 37.0679 10.518 37.0788C9.73933 37.0836 8.9604 37.0748 8.18174 37.0812C7.71027 37.0852 7.23881 37.1063 6.76735 37.1194C6.72068 37.1207 6.67428 37.1178 6.62761 37.1188C6.51748 37.1212 6.46682 37.0703 6.48148 36.9591C7.19401 36.9591 7.90761 36.9839 8.6188 36.9548C10.4289 36.8804 12.2398 36.9607 14.0492 36.9103C14.7076 36.8919 15.3657 36.894 16.0238 36.8796C16.0238 36.893 16.0238 36.9066 16.0238 36.9199C16.0113 36.9599 15.9988 36.9996 15.986 37.0396Z" fill="#F6F6F6"/>
<path d="M41.3261 35.1964C41.3797 35.3823 41.433 35.5681 41.4866 35.7543C41.4794 35.8457 41.4245 35.8759 41.3389 35.8793C41.0405 35.8908 40.7423 35.914 40.4439 35.9183C38.7021 35.9428 36.9602 35.8887 35.2181 35.9537C34.2946 35.9881 33.369 35.9599 32.4442 35.9599C32.3845 35.9599 32.3245 35.9588 32.2648 35.958C32.1981 35.9572 32.1498 35.93 32.1274 35.8641C32.1813 35.6665 32.2349 35.4689 32.2888 35.2713C32.3376 35.3879 32.4421 35.3604 32.5304 35.3585C33.2938 35.3436 34.0573 35.3535 34.8216 35.3295C36.5151 35.2759 38.2106 35.3644 39.905 35.2828C40.3098 35.2633 40.7162 35.2804 41.1218 35.2793C41.1997 35.2793 41.2866 35.2943 41.3263 35.1969L41.3261 35.1964Z" fill="#FAFAFA"/>
<path d="M32.1277 35.864C32.1498 35.9296 32.1983 35.9571 32.265 35.9579C32.3247 35.9584 32.3847 35.9597 32.4445 35.9597C33.3693 35.9597 34.2949 35.9883 35.2183 35.9536C36.9604 35.8885 38.7023 35.9427 40.4442 35.9181C40.7426 35.9139 41.0407 35.8909 41.3391 35.8792C41.4244 35.876 41.4796 35.8459 41.4868 35.7542C41.514 35.9096 41.5415 36.0653 41.5687 36.2208C41.5655 36.2669 41.5623 36.3128 41.5591 36.3589C40.1639 36.3835 38.7687 36.3459 37.3727 36.3904C35.5997 36.4469 33.8237 36.3565 32.0498 36.4395C32.0757 36.2475 32.1015 36.0557 32.1277 35.8637V35.864Z" fill="#F9F9F9"/>
<path d="M32.0497 36.4397C33.8235 36.3567 35.5993 36.4471 37.3726 36.3906C38.7686 36.3461 40.1638 36.3837 41.559 36.3591C41.5603 36.3791 41.563 36.3989 41.563 36.4189C41.5619 36.6221 41.5494 36.633 41.3512 36.6399C41.0198 36.6517 40.6883 36.6733 40.3568 36.6783C38.6622 36.7042 36.9673 36.6511 35.2721 36.7125C34.2027 36.7511 33.1307 36.7194 32.0601 36.7191C32.0566 36.6319 32.0534 36.5445 32.0502 36.4573L32.0425 36.4485L32.0499 36.4394L32.0497 36.4397Z" fill="#F8F8F8"/>
<path d="M32.0601 36.719C33.1307 36.719 34.2027 36.7507 35.2721 36.7123C36.9673 36.6512 38.6622 36.704 40.3568 36.6782C40.6883 36.6731 41.0198 36.6515 41.3512 36.6398C41.5491 36.6328 41.5619 36.6219 41.563 36.4187C41.563 36.3987 41.5606 36.379 41.559 36.359C41.5622 36.3131 41.5654 36.267 41.5686 36.2208C41.5798 36.4403 41.5912 36.6598 41.6024 36.8792C41.5899 36.8792 41.5774 36.8792 41.5646 36.8792C40.6531 36.8984 39.7419 36.8894 38.8302 36.9086C36.6539 36.9547 34.4766 36.9459 32.2995 36.9592C32.2195 36.9598 32.1398 36.9592 32.0598 36.9587C32.0598 36.8787 32.0598 36.7987 32.0601 36.7187V36.719Z" fill="#F7F7F7"/>
<path d="M41.5693 37.4007C41.5053 37.5226 41.3933 37.5207 41.277 37.5207C40.3061 37.5191 39.3341 37.4916 38.3645 37.526C36.6096 37.5884 34.8549 37.5383 33.1005 37.5612C32.8488 37.5644 32.5973 37.5908 32.3456 37.5972C32.2616 37.5994 32.1765 37.573 32.0922 37.5596C32.08 37.453 32.0674 37.3463 32.0552 37.2396C32.0677 37.2396 32.0802 37.2396 32.093 37.2396C32.0885 37.3458 32.1344 37.4028 32.2456 37.3991C32.3053 37.3972 32.3653 37.4004 32.425 37.3994C33.7205 37.381 35.0154 37.4082 36.3114 37.3687C37.6599 37.3276 39.0103 37.3623 40.3602 37.3578C40.7114 37.3567 41.0629 37.3316 41.4141 37.3194C41.4962 37.3164 41.5594 37.2967 41.5626 37.1994C41.5634 37.146 41.5642 37.093 41.565 37.0396C41.565 36.9863 41.565 36.933 41.565 36.8796C41.5775 36.8796 41.5901 36.8796 41.6029 36.8796C41.5917 37.0532 41.5807 37.2271 41.5695 37.4007H41.5693Z" fill="#F3F3F3"/>
<path d="M41.5643 37.0399C41.5635 37.0932 41.5627 37.1463 41.5621 37.1996C39.9747 37.2244 38.3872 37.1847 36.7987 37.23C35.2312 37.2748 33.6614 37.2399 32.0923 37.2399C32.0798 37.2399 32.0673 37.2399 32.0545 37.2399C32.0062 36.9794 31.9998 36.7188 32.0497 36.4578C32.0529 36.545 32.0563 36.6322 32.0595 36.7196C32.0595 36.7996 32.0595 36.8796 32.0593 36.9596C32.0849 37.1119 32.0851 37.121 32.2254 37.1178C32.5307 37.1106 32.8355 37.086 33.1409 37.0815C34.8568 37.0559 36.5731 37.1084 38.2896 37.0474C39.3798 37.0087 40.4725 37.0402 41.5643 37.0399Z" fill="#F5F5F5"/>
<path d="M32.0928 37.2396C33.6616 37.2396 35.2315 37.2745 36.7992 37.2297C38.3874 37.1841 39.9749 37.2241 41.5626 37.1993C41.5594 37.2969 41.4962 37.3167 41.4141 37.3193C41.0629 37.3316 40.7114 37.3564 40.3602 37.3577C39.0106 37.3623 37.66 37.3276 36.3115 37.3687C35.0155 37.4081 33.7203 37.3809 32.4251 37.3993C32.3653 37.4001 32.3053 37.3969 32.2456 37.3991C32.1344 37.4028 32.0885 37.3457 32.0931 37.2396H32.0928Z" fill="#F4F4F4"/>
<path d="M41.5643 37.0399C40.4726 37.0399 39.3801 37.0084 38.2897 37.0473C36.5732 37.1084 34.8569 37.0556 33.1409 37.0815C32.8356 37.086 32.5308 37.1108 32.2255 37.1177C32.0852 37.1209 32.0849 37.1119 32.0593 36.9596C32.1393 36.9596 32.2193 36.9604 32.2991 36.9601C34.4761 36.9468 36.6534 36.9556 38.8297 36.9095C39.7414 36.8903 40.6529 36.8993 41.5641 36.8801C41.5641 36.9335 41.5641 36.9868 41.5641 37.0401L41.5643 37.0399Z" fill="#F6F6F6"/>
<path d="M0.0490877 22.406C0.129444 22.406 0.207266 22.406 0.286733 22.406C3.31658 22.4065 6.3467 22.4065 9.37655 22.4065C9.45495 22.4065 9.53335 22.4065 9.63975 22.4065C9.63975 21.2849 9.63975 20.1809 9.63975 19.0769C9.65122 19.0793 9.66268 19.0809 9.67415 19.0822C9.67308 20.2012 9.67175 21.3201 9.67068 22.439C9.65762 22.5297 9.63362 22.6201 9.63308 22.7107C9.62935 23.6758 9.62935 24.6409 9.62828 25.6062C6.44723 25.6057 3.26645 25.6054 0.0854004 25.6049C0.050427 25.6049 0.0209628 25.6049 -0.000465613 25.6049C0.000334383 24.6177 0.00113438 23.6155 -0.000465613 22.6283C-0.000465613 22.5648 -0.000465613 22.4569 -0.000465613 22.4569C-0.000465613 22.4435 -0.000732422 22.4193 -0.000732422 22.406C0.0209628 22.406 0.0383735 22.406 0.0490877 22.406Z" fill="#E7ECF8"/>
<path d="M9.6709 22.4388C9.67197 21.3199 9.6733 20.201 9.67437 19.0821C9.71996 19.0815 9.76636 19.0762 9.81116 19.0818C10.0349 19.1093 10.2576 19.1455 10.4818 19.1679C11.273 19.2471 12.0589 19.2119 12.8381 19.0471C12.8373 19.1399 12.8357 19.233 12.8357 19.3258C12.8349 20.3476 12.8341 21.3695 12.8333 22.3914C12.8346 23.4658 12.8359 24.5402 12.8373 25.6145C12.8367 27.8356 12.8365 30.0567 12.8359 32.278C11.7965 31.9198 10.752 31.9084 9.67303 32.2654C9.67223 28.9668 9.6717 25.7028 9.6709 22.4388Z" fill="white"/>
<path d="M9.67106 22.4386C9.67186 25.7026 9.6724 28.9663 9.6732 32.2652C10.7521 31.9081 11.7967 31.9196 12.8361 32.2777C13.659 32.5807 14.3652 33.0553 14.9212 33.7367C15.0964 33.9513 15.2358 34.1953 15.3916 34.426C15.407 34.5009 15.4228 34.5756 15.4404 34.6599C15.3825 34.6681 15.3441 34.6775 15.3052 34.6785C14.7668 34.6929 14.2284 34.7108 13.69 34.7185C11.8796 34.7447 10.0684 34.6732 8.258 34.7572C7.90574 34.7735 7.55214 34.7601 7.19908 34.7591C7.13428 34.7591 7.06974 34.7529 6.99268 34.7492C7.00654 34.6671 7.01774 34.6028 7.02868 34.5385C7.19507 34.1697 7.44227 33.8564 7.71214 33.5612C8.20547 33.022 8.794 32.6175 9.474 32.3479C9.52306 32.3284 9.5708 32.3063 9.62839 32.2812C9.63159 32.2284 9.63773 32.1769 9.63773 32.1252C9.63826 30.0052 9.63826 27.8852 9.63773 25.7652C9.63773 25.7122 9.63186 25.6588 9.62893 25.6058C9.63 24.6407 9.63 23.6757 9.63373 22.7103C9.634 22.6197 9.65826 22.529 9.67133 22.4386H9.67106Z" fill="#FCFCFC"/>
<path d="M15.7475 35.1967C15.7176 35.2743 15.6512 35.2778 15.5827 35.2796C15.1184 35.2927 14.6539 35.3164 14.1896 35.318C12.76 35.3231 11.3296 35.2924 9.90112 35.3292C8.91766 35.3546 7.93473 35.3468 6.9518 35.3586C6.86354 35.3596 6.759 35.3876 6.71021 35.2711C6.77527 35.0092 6.8846 34.7666 7.02834 34.5386C7.0174 34.6028 7.00647 34.6671 6.99234 34.7492C7.0694 34.753 7.13394 34.7588 7.19874 34.7591C7.5518 34.7599 7.9054 34.7735 8.25766 34.7572C10.0681 34.6732 11.879 34.7447 13.6896 34.7186C14.228 34.7108 14.7664 34.693 15.3048 34.6786C15.3435 34.6775 15.3822 34.6682 15.44 34.6599C15.4224 34.5756 15.407 34.5007 15.3912 34.426C15.5512 34.6636 15.6702 34.9204 15.7475 35.1964V35.1967Z" fill="#FBFBFB"/>
<path d="M35.9579 15.9235C35.6947 15.9019 35.4464 15.8249 35.2048 15.7217C35.6899 15.7078 36.1747 15.6867 36.6598 15.6819C37.2856 15.6758 37.9115 15.6827 38.5371 15.6841C38.271 15.8187 37.979 15.8614 37.692 15.9214C37.1139 15.9222 36.5358 15.9227 35.9576 15.9235H35.9579Z" fill="#D0D0D1"/>
<path d="M35.958 15.9234C36.5361 15.9226 37.1143 15.9221 37.6924 15.9213C37.5956 15.9407 37.4996 15.9687 37.4017 15.9786C36.9375 16.0255 36.474 16.0247 36.0124 15.9469C35.9935 15.9437 35.9761 15.9317 35.958 15.9237V15.9234Z" fill="#CCCECF"/>
<path d="M25.6936 27.9319C24.9402 27.1791 24.1864 26.4263 23.4333 25.6732C22.4208 24.6604 21.4088 23.6474 20.3968 22.634C20.3077 22.5447 20.2197 22.4543 20.1312 22.3647C20.1155 22.353 20.0979 22.3428 20.084 22.329C18.6117 20.8551 17.1397 19.381 15.6675 17.9066C15.6728 17.901 15.6757 17.8943 15.6768 17.8866C15.7403 17.8311 15.8035 17.7757 15.8669 17.7202C15.9208 17.6807 15.9747 17.6415 16.0288 17.6021C16.0955 17.549 16.1621 17.4959 16.2291 17.4431L16.4275 17.2813C16.4675 17.2431 16.5075 17.205 16.5472 17.1669C16.6267 17.0978 16.7064 17.0287 16.7859 16.9597C16.8525 16.893 16.9189 16.8263 16.9856 16.7597C17.0253 16.7189 17.0651 16.6783 17.1048 16.6375C17.1592 16.5725 17.2133 16.5074 17.2677 16.4423C17.3216 16.3762 17.3755 16.3101 17.4293 16.2439C17.4824 16.177 17.5355 16.1101 17.5885 16.0431C17.6408 15.9754 17.6931 15.9077 17.7453 15.8399C17.7851 15.7861 17.8248 15.7322 17.8645 15.6781C17.8939 15.6767 17.9232 15.6754 17.9525 15.6741C17.9872 15.7047 18.024 15.7333 18.0565 15.7661C19.4691 17.1791 20.8813 18.5927 22.2933 20.0063C22.3258 20.0388 22.3544 20.0756 22.3848 20.1106C24.1837 21.9084 25.9826 23.7063 27.7815 25.5044C27.8378 25.5604 27.8914 25.6191 27.9463 25.6764C27.9906 25.7164 28.0367 25.7543 28.0786 25.7964C30.2447 27.9636 32.4103 30.1313 34.5756 32.299C34.6175 32.3409 34.6546 32.3878 34.6938 32.4324C34.6482 32.4769 34.6092 32.5321 34.5562 32.5644C34.1487 32.8129 33.7628 33.0833 33.4266 33.4302C33.1103 33.7566 32.8322 34.1033 32.6162 34.5025C32.5781 34.5732 32.5018 34.6233 32.4431 34.6828C32.3986 34.6436 32.3517 34.6065 32.3098 34.5646C30.1442 32.398 27.9789 30.2311 25.8141 28.0636C25.772 28.0215 25.7341 27.9753 25.6941 27.9311L25.6936 27.9319Z" fill="white"/>
<path d="M32.4426 34.6834C32.5013 34.6239 32.5776 34.5738 32.6157 34.5031C32.8317 34.1036 33.1098 33.757 33.4261 33.4309C33.7624 33.0839 34.1482 32.8135 34.5557 32.565C34.6087 32.5327 34.6477 32.4775 34.6933 32.433C34.7671 32.4879 34.8293 32.4405 34.8954 32.4119C35.5453 32.1298 36.2255 31.9815 36.9325 32.0125C38.6583 32.0877 39.9879 32.8637 40.921 34.3188C40.942 34.3516 40.954 34.3903 40.9703 34.4263C40.9858 34.501 41.0015 34.5759 41.0191 34.6607C40.9548 34.6684 40.9098 34.6783 40.8647 34.6788C39.9551 34.693 39.0455 34.7079 38.1359 34.7188C37.7437 34.7236 37.3514 34.7194 36.9594 34.7196C35.5778 34.721 34.1959 34.7058 32.8146 34.7575C32.7034 34.7618 32.5914 34.7359 32.4797 34.7239C32.4677 34.7103 32.4554 34.697 32.4434 34.6834H32.4426Z" fill="#FCFCFC"/>
<path d="M41.3259 35.1964C41.2859 35.294 41.1992 35.2788 41.1213 35.2788C40.7158 35.2799 40.3094 35.2628 39.9046 35.2823C38.2104 35.3639 36.5147 35.2754 34.8211 35.329C34.0569 35.3532 33.2937 35.3431 32.5299 35.358C32.4417 35.3596 32.3371 35.3871 32.2883 35.2708C32.3302 35.149 32.3721 35.0274 32.4142 34.9055C32.4353 34.8447 32.4569 34.7844 32.4785 34.7236C32.5902 34.7356 32.7025 34.7612 32.8134 34.7572C34.1947 34.7058 35.5766 34.7207 36.9582 34.7194C37.3504 34.7191 37.7427 34.7231 38.1347 34.7186C39.0443 34.7076 39.9539 34.6927 40.8635 34.6786C40.9088 34.6778 40.9539 34.6682 41.0179 34.6604C41.0003 34.5754 40.9846 34.5007 40.9691 34.426C41.1291 34.6636 41.248 34.9204 41.3253 35.1964H41.3259Z" fill="#FBFBFB"/>
<path d="M8.50761 18.7215C8.31774 18.6431 8.12761 18.5647 7.93774 18.4863C8.58227 18.4709 9.22707 18.445 9.8716 18.4418C11.2697 18.4349 12.6679 18.441 14.0657 18.4383C14.2844 18.4378 14.5028 18.4175 14.7214 18.4066C14.5057 18.4986 14.29 18.5906 14.0742 18.6826C13.9878 18.6818 13.9012 18.6783 13.8148 18.6802C12.7977 18.7013 11.7809 18.657 10.7631 18.7119C10.0132 18.7522 9.2596 18.721 8.50761 18.7215Z" fill="#D2D3D3"/>
<path d="M8.50759 18.7218C9.25959 18.7213 10.0132 18.7525 10.763 18.7122C11.7809 18.6575 12.7977 18.7018 13.8148 18.6805C13.9012 18.6786 13.9878 18.6821 14.0742 18.6829C13.8233 18.7642 13.5726 18.8453 13.3217 18.9266C12.9774 18.9378 12.6332 18.9567 12.2889 18.9586C11.2926 18.9639 10.2964 18.9626 9.30012 18.9637C9.03585 18.8831 8.77159 18.8023 8.50732 18.7218H8.50759Z" fill="#D0D1D1"/>
<path d="M9.30029 18.9636C10.2966 18.9622 11.2928 18.9636 12.2891 18.9585C12.6333 18.9566 12.9776 18.9377 13.3219 18.9265C13.1605 18.9668 12.9992 19.0073 12.8379 19.0476C12.0589 19.2121 11.2728 19.2476 10.4816 19.1684C10.2574 19.146 10.0347 19.1097 9.81096 19.0822C9.76616 19.0766 9.71976 19.0822 9.67416 19.0825C9.66269 19.0812 9.65122 19.0796 9.63976 19.0772C9.52669 19.0393 9.41336 19.0014 9.30029 18.9638V18.9636Z" fill="#CFCFCF"/>
<path d="M16.0283 17.6024C15.9745 17.6419 15.9206 17.6811 15.8665 17.7205C15.7894 17.7069 15.7121 17.6805 15.6353 17.6824C15.3238 17.6901 15.0126 17.7141 14.7011 17.7187C12.9342 17.744 11.1673 17.6869 9.40009 17.7541C8.49076 17.7888 7.57903 17.7613 6.66863 17.7621C6.5609 17.6824 6.45344 17.6027 6.3457 17.5232C6.5001 17.5955 6.66357 17.604 6.83157 17.6013C8.44169 17.5755 10.0518 17.6203 11.6627 17.5693C13.0465 17.5256 14.4323 17.5597 15.8174 17.5619C15.8878 17.5619 15.9582 17.5883 16.0283 17.6024Z" fill="#D9D9D9"/>
<path d="M6.66872 17.7617C7.57939 17.7612 8.49111 17.7884 9.40018 17.7537C11.1674 17.6865 12.9343 17.7436 14.7012 17.7182C15.0127 17.7137 15.3239 17.6897 15.6353 17.682C15.7121 17.6801 15.7895 17.7065 15.8665 17.7201C15.8033 17.7756 15.7399 17.831 15.6764 17.8865C15.5791 17.871 15.4815 17.8412 15.3844 17.842C14.5271 17.8494 13.6703 17.8409 12.8124 17.8713C11.7956 17.9073 10.7767 17.8742 9.75857 17.8814C8.80818 17.8881 7.85778 17.9081 6.90739 17.9222C6.82766 17.8689 6.74819 17.8153 6.66846 17.762L6.66872 17.7617Z" fill="#D8D8D8"/>
<path d="M6.90747 17.9223C7.85787 17.9082 8.80826 17.8882 9.75866 17.8815C10.7765 17.8743 11.7957 17.9074 12.8125 17.8714C13.6704 17.841 14.5272 17.8498 15.3845 17.8421C15.4816 17.8413 15.5792 17.8709 15.6765 17.8866C15.6757 17.8943 15.6725 17.901 15.6674 17.9066C15.5928 17.9402 15.5181 17.9741 15.4434 18.0077C15.337 18.005 15.2306 17.9994 15.124 18.0002C13.3008 18.013 11.4778 18.0279 9.65466 18.0391C8.80266 18.0445 7.9504 18.0431 7.09814 18.0447C7.03467 18.0039 6.97094 17.9629 6.90747 17.9221V17.9223Z" fill="#D7D7D7"/>
<path d="M7.09814 18.0449C7.95041 18.0433 8.8024 18.0443 9.65466 18.0393C11.4779 18.0281 13.3008 18.0131 15.124 18.0003C15.2304 17.9995 15.3368 18.0051 15.4434 18.0078C15.3776 18.047 15.3114 18.0862 15.2456 18.1251C14.8544 18.1366 14.4634 18.1534 14.072 18.1585C12.2912 18.1817 10.5101 18.1182 8.7296 18.1969C8.31147 18.2153 7.89201 18.1995 7.47308 18.1995C7.44081 18.2014 7.40881 18.2033 7.37654 18.2051C7.28374 18.1518 7.19094 18.0982 7.09814 18.0449Z" fill="#D6D6D6"/>
<path d="M7.37671 18.2056C7.40898 18.2037 7.44098 18.2018 7.47324 18.2C7.57191 18.2906 7.68951 18.3226 7.82151 18.3205C9.2631 18.2962 10.7047 18.348 12.1468 18.2882C13.0825 18.2496 14.0215 18.2837 14.9588 18.2853C14.8796 18.3258 14.8007 18.3664 14.7215 18.4069C14.5028 18.4181 14.2844 18.4381 14.0657 18.4386C12.6676 18.4416 11.2695 18.4354 9.87163 18.4421C9.22683 18.4453 8.5823 18.4711 7.93777 18.4866C7.75084 18.393 7.56364 18.2992 7.37671 18.2056Z" fill="#D4D4D4"/>
<path d="M16.985 16.7598C16.9183 16.8265 16.8519 16.8931 16.7852 16.9598C16.6948 16.9465 16.6042 16.9206 16.5138 16.9217C14.898 16.9427 13.2826 16.899 11.6663 16.9507C10.3237 16.9937 8.9786 16.955 7.63461 16.9617C7.00368 16.9649 6.37275 16.9894 5.74182 17.0043C5.67382 16.9379 5.60609 16.8715 5.53809 16.8051C5.58475 16.8035 5.63115 16.8009 5.67782 16.8001C7.39381 16.7761 9.1098 16.823 10.8263 16.7665C12.5212 16.7105 14.2188 16.8067 15.9146 16.7217C16.2002 16.7073 16.4868 16.7171 16.773 16.7214C16.8436 16.7225 16.914 16.7462 16.9847 16.7595L16.985 16.7598Z" fill="#DEDEDE"/>
<path d="M5.74219 17.0043C6.37312 16.9894 7.00405 16.9649 7.63498 16.9617C8.97897 16.955 10.324 16.9937 11.6667 16.9507C13.2829 16.899 14.8984 16.9427 16.5141 16.9217C16.6045 16.9206 16.6952 16.9465 16.7856 16.9598C16.7061 17.0289 16.6264 17.0979 16.5469 17.1667C16.5275 17.1387 16.5128 17.0934 16.4877 17.0865C16.4379 17.0729 16.3824 17.079 16.3291 17.0801C15.2117 17.1011 14.0949 17.0643 12.9768 17.1107C11.96 17.1531 10.94 17.1145 9.92163 17.1211C8.58457 17.1297 7.24778 17.1475 5.91072 17.1614C5.85445 17.1091 5.79845 17.0569 5.74219 17.0046V17.0043Z" fill="#DDDDDD"/>
<path d="M5.9104 17.1614C7.24746 17.1475 8.58425 17.1297 9.92131 17.1211C10.9397 17.1145 11.9597 17.1531 12.9765 17.1107C14.0946 17.0643 15.2117 17.1011 16.3287 17.0801C16.3818 17.079 16.4375 17.0731 16.4874 17.0865C16.5125 17.0934 16.5271 17.1387 16.5466 17.1667C16.5066 17.2049 16.4666 17.243 16.4269 17.2811C16.3431 17.2673 16.2591 17.2401 16.1757 17.2417C15.3781 17.2569 14.5802 17.2547 13.7824 17.2683C11.6805 17.3043 9.57758 17.2659 7.47546 17.3182C7.01653 17.3297 6.55706 17.3233 6.09787 17.3251C6.03547 17.2705 5.9728 17.2158 5.9104 17.1611V17.1614Z" fill="#DCDCDC"/>
<path d="M6.0979 17.3255C6.5571 17.3236 7.01656 17.33 7.47549 17.3185C9.57761 17.2663 11.6805 17.3047 13.7824 17.2687C14.58 17.2551 15.3781 17.2572 16.1757 17.242C16.2592 17.2404 16.3432 17.2676 16.4269 17.2815C16.3608 17.3353 16.2946 17.3892 16.2285 17.4433C16.145 17.4289 16.061 17.4007 15.9778 17.4023C15.1667 17.4172 14.3552 17.4148 13.5437 17.4289C11.4744 17.4647 9.40402 17.4263 7.33443 17.4791C6.9883 17.4879 6.6419 17.4839 6.29577 17.4857C6.2299 17.4324 6.16377 17.3788 6.0979 17.3255Z" fill="#DBDBDB"/>
<path d="M16.0281 17.6024C15.9577 17.5883 15.8873 17.5621 15.8172 17.5619C14.4321 17.5595 13.0463 17.5256 11.6626 17.5693C10.0516 17.62 8.44151 17.5755 6.83139 17.6013C6.66365 17.604 6.50019 17.5955 6.34552 17.5232C6.32899 17.5109 6.31219 17.4984 6.29565 17.4861C6.64179 17.4843 6.98818 17.4883 7.33432 17.4795C9.4039 17.4267 11.4743 17.4648 13.5436 17.4293C14.3551 17.4155 15.1665 17.4176 15.9777 17.4027C16.0609 17.4011 16.1447 17.4293 16.2284 17.4437C16.1617 17.4968 16.0951 17.5499 16.0281 17.6027V17.6024Z" fill="#DADADA"/>
<path d="M39.4634 15.207C39.3791 15.2584 39.2951 15.3099 39.2109 15.3611C39.1111 15.3606 39.0117 15.3587 38.9119 15.3598C37.6773 15.3728 36.4426 15.3864 35.208 15.3995C35.0949 15.4006 34.9818 15.404 34.8693 15.3984C34.724 15.3912 34.5789 15.3763 34.4336 15.3646C34.3682 15.3248 34.3026 15.2848 34.2373 15.2451C34.6488 15.2299 35.06 15.2035 35.4714 15.2014C36.6957 15.1955 37.92 15.199 39.1442 15.1995C39.2506 15.1995 39.357 15.204 39.4634 15.2064V15.207Z" fill="#D6D6D7"/>
<path d="M34.4334 15.3649C34.5787 15.3766 34.7235 15.3915 34.8691 15.3987C34.9819 15.4043 35.095 15.4009 35.2078 15.3998C36.4424 15.3867 37.6771 15.3731 38.9117 15.3601C39.0115 15.359 39.1109 15.3609 39.2107 15.3614C39.1088 15.4161 39.0072 15.4705 38.9053 15.5251C38.8056 15.5233 38.7061 15.5185 38.6064 15.5203C37.9499 15.5326 37.2934 15.5497 36.6366 15.5587C36.1915 15.5649 35.7464 15.5635 35.3014 15.5582C35.1096 15.5558 34.9184 15.5342 34.727 15.5211C34.6291 15.4691 34.531 15.4171 34.4331 15.3651L34.4334 15.3649Z" fill="#D4D4D5"/>
<path d="M38.5374 15.6842C37.9115 15.6829 37.2857 15.6759 36.6601 15.6821C36.175 15.6869 35.6902 15.7079 35.2052 15.7218C35.046 15.6549 34.8865 15.5879 34.7273 15.521C34.9188 15.5341 35.1102 15.5557 35.3017 15.5581C35.7468 15.5637 36.1918 15.5647 36.6369 15.5586C37.2934 15.5498 37.9499 15.5327 38.6067 15.5202C38.7062 15.5183 38.8059 15.5231 38.9057 15.525C38.783 15.5781 38.6603 15.6311 38.5374 15.6842Z" fill="#D2D2D3"/>
<path d="M17.952 15.6746C17.9227 15.6759 17.8933 15.6773 17.864 15.6786C17.8091 15.5658 17.7037 15.6002 17.6165 15.6018C16.4195 15.6218 15.2227 15.6045 14.0251 15.6293C11.6174 15.6791 9.20806 15.6674 6.79954 15.6799C6.07394 15.6837 5.34835 15.6834 4.62302 15.685C4.57102 15.6039 4.51902 15.5231 4.46729 15.4421C4.57235 15.4549 4.67742 15.4799 4.78222 15.4783C6.19954 15.4578 7.6166 15.4946 9.03473 15.449C10.8105 15.3917 12.5886 15.4706 14.3659 15.4063C15.3238 15.3717 16.2838 15.3997 17.2427 15.4005C17.5091 15.4005 17.7755 15.4042 18.0416 15.4063C18.0232 15.4997 17.8984 15.5575 17.952 15.6749V15.6746Z" fill="#E5E5E5"/>
<path d="M4.62307 15.6846C5.34867 15.683 6.07426 15.6833 6.79959 15.6796C9.20811 15.667 11.6174 15.6788 14.0252 15.6289C15.2227 15.6041 16.4195 15.6214 17.6166 15.6014C17.7038 15.6001 17.8089 15.5657 17.8641 15.6782C17.8243 15.7321 17.7846 15.786 17.7449 15.8401C17.6609 15.8268 17.5769 15.8004 17.4931 15.8017C16.5683 15.8177 15.6441 15.8001 14.7185 15.8305C13.0022 15.8868 11.2844 15.8212 9.56624 15.8708C8.04892 15.9145 6.52919 15.8793 5.01053 15.8812C4.9004 15.8812 4.79934 15.8638 4.70707 15.8028C4.67907 15.7633 4.6508 15.7241 4.6228 15.6846H4.62307Z" fill="#E4E4E4"/>
<path d="M4.70728 15.8026C4.79954 15.8637 4.90061 15.8813 5.01074 15.881C6.5294 15.8792 8.04912 15.9144 9.56645 15.8706C11.2843 15.8213 13.0024 15.8866 14.7187 15.8304C15.6443 15.8 16.5685 15.8176 17.4933 15.8016C17.5771 15.8002 17.6611 15.8264 17.7451 15.84C17.6928 15.9077 17.6405 15.9754 17.5883 16.0432C17.5048 16.0288 17.4211 16.0002 17.3379 16.0018C16.5541 16.0162 15.7704 16.0072 14.9862 16.0298C13.199 16.0813 11.4102 16.024 9.62165 16.0712C8.05286 16.1125 6.4822 16.0805 4.91261 16.081C4.84434 15.9882 4.77581 15.8954 4.70754 15.8026H4.70728Z" fill="#E3E3E3"/>
<path d="M4.91238 16.081C6.48223 16.0804 8.05289 16.1127 9.62142 16.0711C11.4099 16.0239 13.1987 16.0812 14.9859 16.0298C15.7702 16.0071 16.5539 16.0164 17.3376 16.0018C17.4208 16.0002 17.5046 16.0284 17.588 16.0431C17.535 16.11 17.4819 16.177 17.4288 16.2439C17.3454 16.2292 17.2619 16.2004 17.1787 16.202C16.5278 16.2138 15.8769 16.213 15.2257 16.23C13.4246 16.2775 11.6222 16.225 9.82008 16.2714C8.23769 16.3122 6.65343 16.281 5.06998 16.2818L4.91211 16.081H4.91238Z" fill="#E2E2E2"/>
<path d="M5.06982 16.2817C6.65328 16.2809 8.23754 16.3121 9.81993 16.2713C11.6223 16.2249 13.4244 16.2772 15.2255 16.23C15.8767 16.2129 16.5276 16.2137 17.1786 16.202C17.2618 16.2004 17.3452 16.2292 17.4287 16.2438C17.3748 16.31 17.321 16.3761 17.2671 16.4422C17.177 16.4281 17.0866 16.4004 16.9964 16.4017C15.8002 16.4206 14.6039 16.406 13.4071 16.4286C10.821 16.4777 8.23381 16.4662 5.64689 16.4796C5.62689 16.4796 5.60662 16.4777 5.58715 16.4798C5.42209 16.499 5.27116 16.4652 5.13729 16.3641C5.11489 16.3366 5.09249 16.3092 5.06982 16.2817Z" fill="#E1E1E1"/>
<path d="M5.13747 16.3643C5.27134 16.4653 5.42227 16.4995 5.58734 16.48C5.60707 16.4776 5.62734 16.48 5.64707 16.4797C8.23372 16.4664 10.8212 16.4779 13.4073 16.4288C14.6041 16.4061 15.8003 16.4211 16.9966 16.4019C17.0865 16.4005 17.1769 16.4283 17.2673 16.4424C17.2131 16.5075 17.1587 16.5725 17.1043 16.6376C17.0553 16.5328 16.9585 16.5595 16.8766 16.5611C16.1526 16.576 15.4281 16.5749 14.7041 16.5891C12.55 16.6315 10.395 16.6277 8.24039 16.6389C7.28893 16.644 6.33747 16.6419 5.38601 16.6429L5.13721 16.364L5.13747 16.3643Z" fill="#E0E0E0"/>
<path d="M16.9851 16.76C16.9144 16.7466 16.844 16.7232 16.7734 16.7218C16.4872 16.7176 16.2003 16.7077 15.915 16.7221C14.2192 16.8072 12.5217 16.7112 10.8267 16.7669C9.11021 16.8234 7.39422 16.7765 5.67823 16.8005C5.63156 16.801 5.58516 16.8037 5.5385 16.8056C5.48783 16.7514 5.4369 16.6976 5.38623 16.6434C6.33769 16.6424 7.28915 16.6442 8.24061 16.6394C10.3953 16.6282 12.5502 16.632 14.7043 16.5896C15.4286 16.5752 16.1528 16.5765 16.8768 16.5616C16.9587 16.56 17.0555 16.5333 17.1046 16.6381C17.0648 16.6786 17.0251 16.7194 16.9854 16.7602L16.9851 16.76Z" fill="#DFDFDF"/>
<path d="M18.0413 15.4057C17.7749 15.4035 17.5085 15.4001 17.2424 15.3998C16.2834 15.399 15.3234 15.371 14.3656 15.4057C12.5882 15.4699 10.8104 15.391 9.0344 15.4483C7.61627 15.4939 6.19921 15.4571 4.78189 15.4777C4.67709 15.4793 4.57202 15.4542 4.46696 15.4414C4.44216 15.4011 4.41762 15.3609 4.39282 15.3203C4.81762 15.3067 5.24242 15.2859 5.66748 15.2809C7.48321 15.259 9.29893 15.3025 11.1152 15.2451C12.737 15.1939 14.3608 15.2769 15.9837 15.2054C16.7077 15.1734 17.4341 15.2033 18.1597 15.2051C18.1202 15.2721 18.081 15.339 18.0415 15.4059L18.0413 15.4057Z" fill="#E6E6E6"/>
<path d="M40.6539 14.0825C40.5891 14.1633 40.5243 14.2444 40.4595 14.3252C40.4416 14.3233 40.4235 14.3217 40.4056 14.3198C39.2507 14.3422 38.096 14.3049 36.9401 14.3502C35.8387 14.3934 34.7345 14.3574 33.6315 14.3617C33.4286 14.3625 33.2337 14.362 33.0801 14.2033C33.0579 14.1753 33.0358 14.1473 33.0137 14.119C34.7819 14.0961 36.5505 14.1572 38.3192 14.0852C39.0963 14.0537 39.8755 14.0814 40.6539 14.0822V14.0825Z" fill="#E2E2E2"/>
<path d="M33.0801 14.2034C33.2337 14.362 33.4286 14.3626 33.6315 14.3618C34.7345 14.3572 35.8387 14.3935 36.9401 14.3503C38.0958 14.305 39.2507 14.3423 40.4056 14.3199C40.3216 14.4522 40.2131 14.5218 40.0451 14.5228C38.8016 14.5308 37.5582 14.55 36.3147 14.5588C35.3433 14.5658 34.3715 14.5628 33.3998 14.5642C33.2931 14.4439 33.1867 14.3236 33.0801 14.2034Z" fill="#E0E0E0"/>
<path d="M33.3999 14.5638C34.3716 14.5625 35.3431 14.5652 36.3148 14.5585C37.5583 14.5497 38.8017 14.5305 40.0452 14.5225C40.2135 14.5214 40.322 14.4518 40.4057 14.3196C40.4236 14.3214 40.4417 14.323 40.4596 14.3249C40.3615 14.4297 40.2633 14.5345 40.1652 14.6393C40.0705 14.666 39.9764 14.7142 39.8812 14.7156C39.1049 14.7278 38.3287 14.7332 37.5521 14.751C36.2372 14.7814 34.9212 14.7606 33.6058 14.7614C33.5372 14.6956 33.4684 14.6297 33.3999 14.5636V14.5638Z" fill="#DEDEDE"/>
<path d="M33.6057 14.762C34.9212 14.7612 36.2374 14.7823 37.5521 14.7516C38.3286 14.7335 39.1049 14.7284 39.8811 14.7162C39.9761 14.7146 40.0705 14.6663 40.1651 14.6399C40.0601 14.7338 39.9553 14.8276 39.8502 14.9215C38.6734 14.9343 37.4964 14.95 36.3196 14.9588C35.4942 14.965 34.6692 14.9618 33.8438 14.9626C33.7646 14.8956 33.6852 14.8287 33.606 14.7618L33.6057 14.762Z" fill="#DCDCDC"/>
<path d="M33.8438 14.9622C34.6691 14.9614 35.4944 14.9646 36.3195 14.9585C37.4966 14.9497 38.6733 14.9339 39.8501 14.9211C39.7987 14.9617 39.7469 15.0025 39.6955 15.043C39.352 15.0686 39.0085 15.1139 38.6648 15.1161C37.2422 15.1243 35.8192 15.1206 34.3963 15.1179C34.2643 15.1179 34.1326 15.0953 34.0006 15.0833C33.9483 15.043 33.8958 15.0027 33.8435 14.9622H33.8438Z" fill="#D9D9DA"/>
<path d="M39.4633 15.2072C39.3569 15.2048 39.2505 15.2002 39.1441 15.2002C37.9199 15.1997 36.6956 15.1962 35.4714 15.2021C35.0599 15.204 34.6484 15.2304 34.2372 15.2458C34.1586 15.192 34.0796 15.1378 34.001 15.084C34.133 15.096 34.2647 15.1184 34.3967 15.1186C35.8196 15.121 37.2423 15.125 38.6652 15.1168C39.0089 15.1146 39.3524 15.0693 39.6959 15.0437C39.6185 15.0984 39.5409 15.153 39.4636 15.2074L39.4633 15.2072Z" fill="#D8D8D8"/>
<path d="M4.19133 14.9614C4.1636 14.9084 4.13613 14.8553 4.1084 14.8022C5.20546 14.7748 6.30252 14.8062 7.40038 14.7694C9.16197 14.7108 10.9254 14.7788 12.6889 14.7286C14.1987 14.6857 15.7107 14.7198 17.2217 14.7196C17.295 14.7196 17.3681 14.719 17.4411 14.7166C17.7729 14.7062 18.1046 14.6948 18.4363 14.6838C18.4089 14.7369 18.3817 14.79 18.3542 14.843C18.2425 14.8553 18.131 14.8764 18.019 14.8782C16.5163 14.9044 15.0137 14.863 13.5102 14.9108C11.7092 14.9678 9.90597 14.8977 8.10331 14.9521C6.80012 14.9913 5.49506 14.9609 4.1908 14.9614H4.19133Z" fill="#E9E9E9"/>
<path d="M4.19116 14.9615C5.49542 14.961 6.80075 14.9914 8.10367 14.9522C9.90633 14.8978 11.7095 14.9682 13.5106 14.9109C15.014 14.8631 16.5167 14.9045 18.0194 14.8783C18.1314 14.8765 18.2428 14.8554 18.3546 14.8431C18.3271 14.8962 18.2996 14.9493 18.2719 15.0021C18.1868 15.0146 18.102 15.0362 18.0167 15.0381C16.9391 15.0618 15.8615 15.045 14.7834 15.0687C12.5477 15.1178 10.3106 15.1021 8.07434 15.1213C6.81675 15.1322 5.55835 15.0735 4.30183 15.1647C4.26503 15.097 4.22823 15.0293 4.19116 14.9615Z" fill="#E8E8E8"/>
<path d="M4.30202 15.165C5.55855 15.0741 6.81694 15.1325 8.07454 15.1215C10.3111 15.1023 12.5478 15.1181 14.7836 15.069C15.8617 15.0453 16.9393 15.0621 18.0169 15.0383C18.1022 15.0365 18.187 15.0149 18.2721 15.0023C18.2345 15.0701 18.1971 15.1375 18.1595 15.2053C17.4342 15.2034 16.7076 15.1738 15.9836 15.2055C14.3606 15.277 12.7369 15.1943 11.1151 15.2453C9.29906 15.3026 7.48334 15.2591 5.66735 15.281C5.24229 15.286 4.81776 15.3069 4.39269 15.3205C4.36229 15.2685 4.33189 15.2165 4.30176 15.1647L4.30202 15.165Z" fill="#E7E7E7"/>
<path d="M40.8974 13.7236C40.8721 13.7642 40.8465 13.8044 40.8211 13.845C40.7147 13.8431 40.6083 13.8388 40.5022 13.8399C39.1403 13.8527 37.7782 13.8703 36.4164 13.8783C35.2262 13.8852 34.0361 13.8812 32.846 13.882C32.8198 13.8418 32.7937 13.8015 32.7676 13.7612C34.3812 13.7354 35.9948 13.786 37.6086 13.7276C38.7035 13.6882 39.8011 13.7226 40.8974 13.7239V13.7236Z" fill="#E5E5E5"/>
<path d="M32.8455 13.8824C34.0356 13.8816 35.2258 13.8856 36.4159 13.8787C37.778 13.8709 39.1399 13.8531 40.5017 13.8403C40.6081 13.8392 40.7145 13.8435 40.8207 13.8453C40.7932 13.8851 40.766 13.9251 40.7385 13.9648C40.6321 13.9632 40.526 13.9592 40.4196 13.9603C39.238 13.9731 38.0564 13.9923 36.8745 13.9984C35.5588 14.0053 34.2434 14.0008 32.9276 14.0013C32.9002 13.9616 32.8727 13.9219 32.845 13.8824H32.8455Z" fill="#E4E4E4"/>
<path d="M32.9282 14.0011C34.2439 14.0005 35.5594 14.0051 36.8751 13.9982C38.0567 13.992 39.2386 13.9728 40.4202 13.96C40.5263 13.959 40.6327 13.963 40.7391 13.9646C40.7108 14.0037 40.6826 14.0432 40.6543 14.0824C39.8759 14.0816 39.0967 14.0536 38.3197 14.0854C36.5511 14.1573 34.7826 14.0963 33.0141 14.1192C32.9856 14.0797 32.957 14.0405 32.9285 14.0011H32.9282Z" fill="#E3E3E3"/>
<path d="M41.2915 12.9213C41.2523 13.0154 41.2131 13.1093 41.1739 13.2034C41.0875 13.2023 41.0009 13.1986 40.9145 13.2005C39.8979 13.2213 38.8817 13.1799 37.8646 13.2317C37.0686 13.2722 36.2689 13.2365 35.4708 13.241C34.507 13.2463 33.5436 13.2583 32.5798 13.2661C32.5478 13.2661 32.5156 13.2511 32.4833 13.2431C32.4433 13.1493 32.403 13.0557 32.363 12.9618C32.4417 13.0386 32.5401 13.0429 32.642 13.0407C33.3126 13.0266 33.9836 13.0055 34.6542 13.0021C35.918 12.9959 37.1819 13.0053 38.4459 12.9986C39.323 12.9941 40.1998 12.9743 41.0769 12.9586C41.1486 12.9573 41.2198 12.9346 41.2913 12.9218L41.2915 12.9213Z" fill="#ECECEC"/>
<path d="M32.4836 13.2426C32.5159 13.2506 32.5479 13.2658 32.5802 13.2656C33.5439 13.2578 34.5074 13.2458 35.4711 13.2405C36.2692 13.2362 37.0689 13.272 37.8649 13.2312C38.8823 13.1792 39.8985 13.2208 40.9148 13.2C41.0012 13.1981 41.0876 13.2018 41.1743 13.2029C41.1492 13.2562 41.1241 13.3098 41.0991 13.3632C41.0207 13.3752 40.9423 13.3968 40.8636 13.3978C39.6204 13.4133 38.3769 13.4234 37.1338 13.4402C35.6244 13.4605 34.114 13.3898 32.6052 13.4824C32.5647 13.4024 32.5244 13.3224 32.4839 13.2424L32.4836 13.2426Z" fill="#EAEAEA"/>
<path d="M32.605 13.4822C34.1138 13.39 35.6239 13.4606 37.1335 13.4401C38.3767 13.4233 39.6202 13.4132 40.8634 13.3977C40.942 13.3966 41.0204 13.375 41.0988 13.363C41.0554 13.4422 41.0119 13.5214 40.9684 13.6006C39.7594 13.6134 38.5506 13.6246 37.3415 13.6398C35.8002 13.6596 34.2581 13.591 32.7175 13.6844C32.6799 13.6169 32.6423 13.5494 32.6047 13.482L32.605 13.4822Z" fill="#E8E8E8"/>
<path d="M40.8974 13.7241C39.8012 13.7228 38.7036 13.6884 37.6087 13.7278C35.9945 13.7862 34.3809 13.7356 32.7676 13.7614C32.7511 13.7361 32.7346 13.7105 32.718 13.6852C34.2585 13.5916 35.8007 13.6601 37.342 13.6406C38.5508 13.6252 39.7598 13.6142 40.9689 13.6014C40.9452 13.6425 40.9214 13.6833 40.8977 13.7244L40.8974 13.7241Z" fill="#E6E6E6"/>
<path d="M19.0667 9.59285C19.1197 9.59658 19.1728 9.60351 19.2256 9.60351C20.2381 9.60405 21.2504 9.60405 22.2629 9.60405H22.4109C22.4173 9.54725 22.4267 9.50325 22.4267 9.45898C22.4272 6.3326 22.4272 3.20622 22.4267 0.0798324C22.4267 0.0534326 22.4227 0.0267661 22.4205 0.000366211C23.4864 0.000366211 24.552 0.000366211 25.6178 0.000366211C25.62 0.0667658 25.6242 0.133432 25.6242 0.199832C25.6242 3.33235 25.6242 6.46486 25.6242 9.59711C24.66 9.59818 23.6954 9.59818 22.7312 9.60191C22.6405 9.60218 22.5501 9.62645 22.4595 9.63951C22.3064 9.64058 22.1533 9.64245 22.0003 9.64271C21.0349 9.64405 20.0699 9.64538 19.1045 9.64645C19.0917 9.62858 19.0792 9.61071 19.0664 9.59285H19.0667Z" fill="#E7ECF8"/>
<path d="M19.1047 9.64597C20.07 9.64464 21.0351 9.64357 22.0004 9.64224C22.1535 9.64224 22.3065 9.6401 22.4596 9.63904C25.6353 9.63957 28.8108 9.6401 31.9865 9.64064C32.0532 9.64064 32.1198 9.63984 32.1862 9.6433C32.2654 9.64757 32.2596 9.7041 32.2524 9.75957C32.199 9.9729 32.146 10.1862 32.0926 10.3996C32.0793 10.5462 32.066 10.6929 32.0526 10.8396C32.0526 10.8529 32.0526 10.8662 32.0526 10.8793C31.9886 11.1193 31.9886 11.3596 32.0526 11.5996C32.066 11.7062 32.0793 11.8129 32.0926 11.9198C32.106 11.9865 32.119 12.0534 32.1324 12.1201C32.1457 12.1868 32.159 12.2537 32.1724 12.3204C32.1857 12.3737 32.199 12.427 32.2124 12.4801C32.2257 12.5332 32.2393 12.5865 32.2526 12.6396C32.2654 12.6662 32.2782 12.6932 32.2913 12.7198C32.2894 12.7478 32.2876 12.7758 32.286 12.8038C30.1681 12.8044 28.0505 12.8052 25.9327 12.8057C25.8327 12.8057 25.7329 12.807 25.6329 12.8078C25.2687 12.8052 24.9041 12.8004 24.5399 12.8001C23.8308 12.8001 23.122 12.8022 22.4129 12.8036C21.597 12.8044 20.7812 12.8044 19.9652 12.806C19.6668 12.8065 19.3684 12.8105 19.07 12.8126C19.0682 12.7948 19.0666 12.7772 19.0647 12.7593C19.0778 12.6926 19.0908 12.626 19.1042 12.5593C19.1175 12.466 19.1308 12.3726 19.1442 12.2793C19.1575 12.1726 19.1708 12.066 19.1842 11.9593C19.1972 11.8966 19.2194 11.834 19.222 11.7708C19.2279 11.6337 19.2239 11.4961 19.2239 11.3588C19.2239 11.2254 19.2239 11.0921 19.2239 10.9588C19.2106 10.8121 19.1975 10.6652 19.1842 10.5185C19.1842 10.5052 19.1842 10.4918 19.1842 10.4788C19.1575 10.2521 19.1308 10.0254 19.1042 9.79877C19.1047 9.74757 19.105 9.69637 19.1055 9.64517L19.1047 9.64597Z" fill="white"/>
<path d="M32.1721 12.3209C32.1587 12.2542 32.1454 12.1873 32.1321 12.1206C32.1422 11.9961 32.2339 12.0014 32.3225 12.0001C33.1329 11.987 33.9435 11.9657 34.7539 11.9617C36.1177 11.9553 37.4814 11.9646 38.8451 11.9582C39.6755 11.9542 40.5059 11.9313 41.3366 11.9222C41.4422 11.9211 41.5147 11.8862 41.5688 11.8011C41.5544 11.8942 41.5403 11.9875 41.5259 12.0806C41.468 12.0934 41.4102 12.1158 41.352 12.1179C40.8878 12.1342 40.4235 12.1555 39.959 12.1585C39.0014 12.1646 38.044 12.1555 37.0865 12.1614C35.5182 12.1707 33.9502 12.187 32.3819 12.2006C32.3486 12.2009 32.3155 12.2022 32.2822 12.2041C32.2089 12.2083 32.1782 12.2537 32.1718 12.3214L32.1721 12.3209Z" fill="#F2F2F2"/>
<path d="M32.1721 12.3206C32.1788 12.2529 32.2092 12.2076 32.2825 12.2033C32.3156 12.2014 32.3489 12.2001 32.3823 12.1998C33.9505 12.1862 35.5185 12.1702 37.0868 12.1606C38.0444 12.1548 39.0017 12.1638 39.9593 12.1577C40.4238 12.1548 40.8881 12.1334 41.3524 12.1172C41.4108 12.115 41.4684 12.0929 41.5262 12.0798C41.5126 12.1462 41.499 12.2129 41.4854 12.2793C41.4276 12.2924 41.37 12.3142 41.3116 12.3172C40.9801 12.3337 40.6486 12.3558 40.3172 12.3577C38.2828 12.3692 36.2484 12.3374 34.214 12.3969C33.6225 12.4142 33.03 12.3988 32.438 12.4006C32.3556 12.4006 32.2591 12.3745 32.2119 12.4804C32.1985 12.427 32.1852 12.3737 32.1719 12.3206H32.1721Z" fill="#F1F1F1"/>
<path d="M32.2122 12.4806C32.2594 12.3747 32.3559 12.4011 32.4383 12.4009C33.0303 12.399 33.6228 12.4145 34.2143 12.3971C36.2484 12.3377 38.2831 12.3694 40.3174 12.3579C40.6489 12.3561 40.9806 12.3339 41.3118 12.3174C41.3702 12.3145 41.4278 12.2926 41.4857 12.2795L41.447 12.4403C41.3825 12.5099 41.2998 12.5195 41.2102 12.5206C39.862 12.5379 38.514 12.5139 37.1649 12.5502C35.6305 12.5915 34.094 12.5598 32.5586 12.5598C32.4988 12.5598 32.4367 12.551 32.3799 12.5643C32.334 12.5753 32.2948 12.6137 32.2527 12.6401C32.2394 12.587 32.2258 12.5337 32.2124 12.4806H32.2122Z" fill="#F0F0F0"/>
<path d="M32.2524 12.64C32.2946 12.6139 32.3338 12.5752 32.3796 12.5643C32.4364 12.5507 32.4986 12.5598 32.5583 12.5598C34.0938 12.5598 35.6303 12.5915 37.1647 12.5502C38.5135 12.5139 39.8617 12.5379 41.21 12.5206C41.2996 12.5195 41.3823 12.5099 41.4468 12.4403C41.4233 12.5214 41.3999 12.6027 41.3761 12.6838C41.2764 12.6824 41.1764 12.6787 41.0767 12.68C39.4665 12.7032 37.8564 12.6584 36.2458 12.711C34.9287 12.7539 33.6095 12.72 32.2911 12.7203C32.2783 12.6936 32.2655 12.6667 32.2524 12.64Z" fill="#EFEFEF"/>
<path d="M32.2908 12.7206C33.6092 12.7206 34.9287 12.7542 36.2455 12.7113C37.8561 12.659 39.4663 12.7035 41.0764 12.6803C41.1761 12.679 41.2761 12.6827 41.3758 12.6841C41.3622 12.7241 41.3486 12.7638 41.335 12.8038C41.0702 12.8158 40.8055 12.835 40.5404 12.8387C38.7399 12.8649 36.9388 12.8035 35.138 12.8742C34.2948 12.9073 33.4495 12.8787 32.605 12.8814C32.4887 12.8817 32.3804 12.8667 32.2815 12.8035L32.285 12.8046C32.2868 12.7766 32.2887 12.7486 32.2903 12.7206H32.2908Z" fill="#EEEEEE"/>
<path d="M32.282 12.8034C32.3809 12.8666 32.4889 12.8815 32.6054 12.8812C33.4497 12.8786 34.2953 12.9074 35.1385 12.874C36.9393 12.8031 38.7403 12.8647 40.5409 12.8386C40.8059 12.8348 41.0705 12.8156 41.3355 12.8036L41.2918 12.9212C41.2203 12.934 41.1489 12.9567 41.0774 12.958C40.2003 12.9738 39.3235 12.9935 38.4465 12.998C37.1828 13.0047 35.9188 12.9954 34.6548 13.0015C33.9838 13.0047 33.3132 13.026 32.6425 13.0402C32.5406 13.0423 32.4422 13.038 32.3636 12.9612C32.3364 12.9084 32.3094 12.8559 32.2822 12.8031L32.282 12.8034Z" fill="#EDEDED"/>
<path d="M19.1037 12.5604C19.0906 12.627 19.0775 12.6937 19.0642 12.7604C17.6805 12.7833 16.297 12.7462 14.9125 12.7913C13.137 12.8492 11.3592 12.7628 9.58266 12.8358C8.9112 12.8636 8.23787 12.8358 7.56534 12.8412C6.18828 12.8518 4.81095 12.8676 3.43389 12.8812C3.40669 12.7345 3.37949 12.5876 3.35229 12.4409C3.43443 12.5313 3.54349 12.5217 3.64989 12.5198C4.93949 12.4974 6.22908 12.5318 7.51947 12.4889C9.28053 12.4305 11.0435 12.499 12.8061 12.4489C14.3221 12.406 15.84 12.4401 17.3573 12.4396C17.437 12.4396 17.5168 12.4353 17.5965 12.4334C18.0479 12.4225 18.4994 12.4121 18.9509 12.4004C19.0623 12.3974 19.1077 12.454 19.1034 12.5601L19.1037 12.5604Z" fill="#F2F2F2"/>
<path d="M3.43384 12.8808C4.8109 12.8672 6.18822 12.8515 7.56528 12.8408C8.23781 12.8355 8.91114 12.8629 9.5826 12.8355C11.3591 12.7624 13.137 12.8488 14.9124 12.7909C16.297 12.7459 17.6804 12.7832 19.0642 12.76C19.066 12.7779 19.0676 12.7955 19.0695 12.8133C19.0567 12.8629 19.0439 12.9125 19.0314 12.9621C18.9738 13.0427 18.9026 13.0811 18.7964 13.0821C18.1916 13.088 17.5871 13.0941 16.982 13.1112C15.273 13.1597 13.5628 13.0963 11.8527 13.1523C10.1109 13.2093 8.36688 13.1283 6.62342 13.1928C5.58636 13.2312 4.54663 13.2019 3.50824 13.2027C3.48344 13.0952 3.45864 12.988 3.43384 12.8805V12.8808Z" fill="#F1F1F1"/>
<path d="M3.50832 13.2033C4.54672 13.2022 5.58645 13.2316 6.62351 13.1934C8.36696 13.1289 10.111 13.21 11.8528 13.1529C13.5632 13.0969 15.2731 13.1601 16.9821 13.1118C17.5872 13.0948 18.1917 13.0886 18.7965 13.0828C18.9026 13.0817 18.9736 13.0433 19.0314 12.9628C19.0061 13.07 18.9808 13.1769 18.9552 13.2841C18.8786 13.4028 18.7613 13.4001 18.6381 13.402C17.1008 13.4233 15.5635 13.3833 14.0253 13.4321C12.2427 13.4886 10.4579 13.4233 8.67363 13.4721C7.17604 13.5132 5.67658 13.4801 4.17792 13.4814C4.07845 13.4814 3.97925 13.498 3.87979 13.4985C3.78192 13.499 3.68406 13.4892 3.58592 13.4838C3.56006 13.3905 3.53392 13.2969 3.50806 13.2036L3.50832 13.2033Z" fill="#F0F0F0"/>
<path d="M3.58618 13.4833C3.68405 13.4886 3.78191 13.4985 3.88005 13.498C3.97951 13.4974 4.07871 13.4809 4.17818 13.4809C5.67684 13.4798 7.1763 13.5126 8.67389 13.4716C10.4581 13.4228 12.2429 13.4881 14.0256 13.4316C15.5637 13.3828 17.101 13.423 18.6384 13.4014C18.7616 13.3998 18.8789 13.4022 18.9554 13.2836L18.8744 13.5633C18.7994 13.6292 18.7104 13.6393 18.6141 13.6412C17.6573 13.6601 16.7005 13.6404 15.7429 13.67C13.9555 13.7254 12.1659 13.6401 10.3773 13.7164C9.85281 13.7388 9.32642 13.7166 8.80082 13.7204C7.09203 13.7324 5.38351 13.747 3.67471 13.7606C3.64538 13.6681 3.61578 13.5756 3.58645 13.4833H3.58618Z" fill="#EFEFEF"/>
<path d="M3.67436 13.7606C5.38315 13.747 7.09168 13.7326 8.80047 13.7203C9.32606 13.7166 9.85246 13.7387 10.377 13.7163C12.1655 13.64 13.9551 13.7254 15.7426 13.6699C16.7002 13.6403 17.657 13.66 18.6137 13.6411C18.71 13.6392 18.7991 13.6291 18.874 13.5632C18.8473 13.6432 18.8209 13.7232 18.7943 13.8032C18.7273 13.8286 18.6615 13.8723 18.5935 13.876C18.2156 13.896 17.8375 13.9131 17.4591 13.9187C15.697 13.9446 13.9351 13.8952 12.1724 13.9531C10.4847 14.0086 8.80047 13.9926 7.10554 13.9926C5.99942 13.9926 5.02982 13.9984 3.99196 14.0014C3.87703 14.0016 3.78263 13.9771 3.71436 13.8803C3.70076 13.8403 3.68743 13.8006 3.67383 13.7606H3.67436Z" fill="#EEEEEE"/>
<path d="M3.71509 13.8805C3.78309 13.9773 3.87749 14.0019 3.99269 14.0016C5.08889 13.9928 5.9996 13.9928 7.10627 13.9928C8.73613 13.9533 10.4567 13.9533 12.1732 13.9533C13.8853 13.8805 15.6977 13.9448 17.4598 13.9189C17.8382 13.9133 18.2163 13.8963 18.5942 13.8763C18.6622 13.8728 18.7281 13.8288 18.795 13.8035C18.7665 13.8829 18.7377 13.9621 18.7091 14.0416C18.6289 14.1517 18.5147 14.16 18.3902 14.1616C16.9209 14.1827 15.4521 14.1429 13.9822 14.1917C12.2348 14.2496 10.4855 14.1824 8.73613 14.2312C7.20707 14.2739 5.67588 14.2381 4.14575 14.2432C3.99375 14.2437 3.87322 14.2155 3.79055 14.0824C3.76549 14.0152 3.74069 13.948 3.71562 13.8808L3.71509 13.8805Z" fill="#EDEDED"/>
<path d="M3.78979 14.0822C3.87246 14.2152 3.99326 14.2435 4.14499 14.243C5.67512 14.2382 7.20631 14.2739 8.73537 14.231C10.4847 14.1822 12.234 14.2494 13.9815 14.1915C15.4513 14.143 16.9204 14.1824 18.3894 14.1614C18.514 14.1595 18.6284 14.1512 18.7084 14.0414C18.6718 14.1358 18.6353 14.2304 18.5988 14.3248C18.5068 14.3366 18.415 14.3563 18.3228 14.3584C17.2916 14.3814 16.2607 14.3574 15.2284 14.3899C13.4521 14.4459 11.674 14.3678 9.89643 14.4339C9.01163 14.4667 8.12471 14.4344 7.23884 14.4411C6.23405 14.4486 5.22925 14.4651 4.22473 14.4814C4.09753 14.4835 3.98899 14.4574 3.90073 14.364C3.86366 14.2699 3.82659 14.1758 3.78979 14.0819V14.0822Z" fill="#ECECEC"/>
<path d="M3.9009 14.3642C3.98943 14.4577 4.0977 14.4836 4.2249 14.4815C5.22943 14.465 6.23422 14.4484 7.23902 14.4412C8.12488 14.4348 9.01181 14.4671 9.8966 14.434C11.6742 14.3679 13.4523 14.446 15.2286 14.39C16.2606 14.3575 17.2918 14.3815 18.323 14.3586C18.4152 14.3564 18.507 14.3364 18.599 14.325C18.5688 14.3903 18.5384 14.4559 18.5083 14.5212C17.8374 14.5303 17.1667 14.5319 16.4955 14.5513C14.7878 14.6007 13.0787 14.5367 11.3697 14.5927C9.62887 14.6495 7.88595 14.5604 6.14409 14.6351C5.44009 14.6652 4.73396 14.6417 4.0289 14.6425C3.98623 14.5497 3.9433 14.4569 3.90063 14.3642H3.9009Z" fill="#EBEBEB"/>
<path d="M18.4364 14.684C18.1047 14.695 17.773 14.7062 17.4412 14.7168C17.3682 14.7192 17.2948 14.7198 17.2218 14.7198C15.7109 14.7198 14.1989 14.6859 12.689 14.7288C10.9255 14.779 9.16209 14.711 7.4005 14.7696C6.30264 14.8062 5.20558 14.7747 4.10852 14.8024C4.08212 14.7491 4.05572 14.6958 4.02905 14.6427C4.73412 14.6419 5.44051 14.6654 6.14424 14.6352C7.8861 14.5606 9.62902 14.6496 11.3698 14.5928C13.0789 14.5371 14.7879 14.6011 16.4957 14.5515C17.1668 14.532 17.8375 14.5304 18.5084 14.5214C18.4844 14.5758 18.4607 14.6299 18.4367 14.6843L18.4364 14.684Z" fill="#EAEAEA"/>
<path d="M18.1594 15.2054C18.197 15.1376 18.2344 15.0702 18.272 15.0024C18.2994 14.9494 18.3269 14.8963 18.3546 14.8435C18.3821 14.7904 18.4093 14.7374 18.4368 14.6843C18.4608 14.6299 18.4845 14.5758 18.5085 14.5214C18.5386 14.456 18.569 14.3904 18.5992 14.3251C18.6357 14.2307 18.6722 14.136 18.7088 14.0416C18.7373 13.9622 18.7661 13.883 18.7946 13.8035C18.8213 13.7235 18.8477 13.6435 18.8744 13.5635C18.9013 13.4702 18.9285 13.3771 18.9554 13.2838C18.9808 13.1766 19.0061 13.0696 19.0317 12.9624C19.0445 12.9128 19.0573 12.8632 19.0698 12.8136C19.3682 12.8112 19.6666 12.8075 19.965 12.807C20.781 12.8054 21.5968 12.8054 22.4128 12.8046C22.4178 12.8774 22.4269 12.9499 22.4269 13.0227C22.4277 15.3115 22.4279 17.6003 22.4258 19.8893C22.4258 19.9635 22.3989 20.0373 22.3845 20.1115C22.3541 20.0765 22.3256 20.04 22.293 20.0072C20.881 18.5933 19.4688 17.18 18.0562 15.767C18.0237 15.7342 17.9869 15.7056 17.9522 15.675C17.8986 15.5576 18.0234 15.4998 18.0418 15.4064C18.0813 15.3395 18.1205 15.2726 18.16 15.2056L18.1594 15.2054Z" fill="#0078D7"/>
<path d="M12.838 19.047C12.9994 19.0068 13.1607 18.9662 13.322 18.926C13.573 18.8446 13.8236 18.7636 14.0746 18.6822C14.2903 18.5902 14.506 18.4982 14.7218 18.4062C14.801 18.3657 14.8799 18.3252 14.9591 18.2846C15.0546 18.2313 15.1503 18.1782 15.2457 18.1249C15.3116 18.0857 15.3777 18.0465 15.4436 18.0076C15.5183 17.974 15.5929 17.9401 15.6676 17.9065C17.1396 19.3806 18.6116 20.8547 20.0841 22.3289C20.098 22.3427 20.1156 22.3529 20.1313 22.3646C20.0633 22.3785 19.9956 22.4043 19.9276 22.4046C19.3097 22.4078 18.6919 22.4065 18.074 22.4065C16.4129 22.4065 14.7522 22.4065 13.0911 22.4059C13.0052 22.4059 12.9194 22.3966 12.8335 22.3915C12.8343 21.3697 12.8348 20.3478 12.8359 19.326C12.8359 19.2332 12.8375 19.1401 12.8383 19.0473L12.838 19.047Z" fill="#0078D7"/>
<path d="M15.2456 18.1254C15.1501 18.1787 15.0544 18.2318 14.9589 18.2851C14.0216 18.2835 13.0827 18.2494 12.147 18.288C10.7048 18.3478 9.26325 18.296 7.82165 18.3203C7.68965 18.3224 7.57205 18.2907 7.47339 18.1998C7.89232 18.1998 8.31178 18.2155 8.72992 18.1971C10.5104 18.1184 12.2915 18.1819 14.0723 18.1587C14.4635 18.1536 14.8547 18.1368 15.2459 18.1254H15.2456Z" fill="#D5D5D5"/>
<path d="M19.1038 12.5603C19.108 12.4542 19.0627 12.3977 18.9512 12.4006C18.4998 12.4123 18.0483 12.4227 17.5968 12.4337C17.5171 12.4355 17.4374 12.4398 17.3576 12.4398C15.8406 12.4401 14.3225 12.4059 12.8065 12.4491C11.0438 12.4993 9.28089 12.4307 7.51983 12.4891C6.22943 12.5318 4.93984 12.4977 3.65025 12.5201C3.54385 12.5219 3.43478 12.5315 3.35265 12.4411C3.34065 12.3475 3.32865 12.2539 3.31665 12.1603C3.39132 12.2473 3.49238 12.2414 3.59292 12.2406C4.41024 12.2329 5.22731 12.2313 6.0449 12.2078C7.70623 12.1595 9.36862 12.2163 11.0315 12.1697C12.9121 12.1166 14.795 12.1883 16.6766 12.1246C17.3942 12.1003 18.1134 12.1206 18.832 12.1206C18.8854 12.1206 18.9384 12.123 18.9918 12.1211C19.1032 12.1174 19.1486 12.175 19.1443 12.2809C19.131 12.3742 19.1176 12.4675 19.1043 12.5609L19.1038 12.5603Z" fill="#F3F3F3"/>
<path d="M32.6068 8.93876C32.782 8.55956 33.0326 8.23237 33.318 7.9329C34.1652 7.04304 35.1964 6.51478 36.427 6.43558C38.3763 6.31024 39.8707 7.10384 40.9302 8.73636C40.9478 8.76356 40.9569 8.79636 40.9699 8.8265C40.9854 8.90143 41.0011 8.97609 41.019 9.06143C40.7553 9.08196 40.5118 9.11423 40.2675 9.11796C38.4702 9.14543 36.6726 9.08063 34.8753 9.15529C34.1772 9.18436 33.4766 9.16036 32.7774 9.15956C32.7126 9.15956 32.6481 9.15343 32.571 9.14969C32.5852 9.06756 32.5961 9.00329 32.607 8.93903L32.6068 8.93876Z" fill="#FCFCFC"/>
<path d="M32.6069 8.93858C32.5959 9.00285 32.585 9.06712 32.5709 9.14925C32.6479 9.15298 32.7125 9.15912 32.7773 9.15912C33.4767 9.15992 34.177 9.18391 34.8751 9.15485C36.6724 9.07992 38.47 9.14498 40.2674 9.11752C40.5116 9.11378 40.7551 9.08152 41.0188 9.06098C41.0009 8.97565 40.9855 8.90098 40.9697 8.82605C41.1297 9.06365 41.2487 9.32045 41.326 9.59645C41.3089 9.74818 41.1916 9.71751 41.097 9.71885C39.3471 9.74285 37.5975 9.69351 35.8471 9.75191C34.6501 9.79191 33.4506 9.75964 32.2525 9.75964C32.2597 9.70418 32.2653 9.64765 32.1863 9.64338C32.1199 9.63991 32.0533 9.64071 31.9866 9.64071C28.8109 9.64018 25.6354 9.63965 22.4597 9.63911C22.5504 9.62605 22.6408 9.60205 22.7314 9.60151C23.6957 9.59778 24.6602 9.59778 25.6245 9.59671C25.6906 9.59965 25.757 9.60551 25.8232 9.60551C27.9162 9.60605 30.0093 9.60578 32.1026 9.60578H32.2717C32.3874 9.37511 32.497 9.15698 32.6069 8.93858Z" fill="#FBFBFB"/>
<path d="M32.2525 9.75963C33.4509 9.75963 34.6504 9.7919 35.8472 9.7519C37.5973 9.6935 39.3472 9.74283 41.097 9.71883C41.1917 9.7175 41.309 9.74817 41.3261 9.59644C41.3797 9.7823 41.433 9.96843 41.4866 10.1543C41.4498 10.3151 41.4498 10.317 41.2773 10.3194C39.7826 10.3394 38.2882 10.3084 36.793 10.3508C35.3317 10.3922 33.8683 10.3591 32.4059 10.3615C32.3013 10.3615 32.1971 10.3866 32.0925 10.3999C32.1459 10.1866 32.1989 9.97323 32.2523 9.7599L32.2525 9.75963Z" fill="#FAFAFA"/>
<path d="M32.0927 10.3998C32.1973 10.3864 32.3015 10.3616 32.4061 10.3614C33.8685 10.3587 35.3319 10.392 36.7932 10.3507C38.2884 10.3083 39.7828 10.3392 41.2775 10.3192C41.45 10.3168 41.45 10.3152 41.4868 10.1542C41.514 10.3096 41.5415 10.4654 41.5687 10.6208C41.5655 10.667 41.5626 10.7128 41.5594 10.759C40.7362 10.7795 39.9132 10.7656 39.0892 10.7894C37.2298 10.8427 35.3684 10.7582 33.5085 10.8366C33.0239 10.8568 32.5381 10.8398 32.0527 10.8398C32.0661 10.6931 32.0794 10.5464 32.0927 10.3998Z" fill="#F9F9F9"/>
<path d="M41.5593 10.759C41.5625 10.7131 41.5655 10.667 41.5687 10.6208C41.5799 10.8403 41.5911 11.0598 41.6025 11.2792C41.2911 11.2926 40.9796 11.3134 40.6681 11.3179C38.8537 11.344 37.0393 11.288 35.2247 11.3523C34.1687 11.3896 33.1103 11.3592 32.053 11.3592C32.053 11.2792 32.053 11.1992 32.053 11.1192C33.8148 11.0952 35.5767 11.144 37.3393 11.0875C38.642 11.0459 39.9471 11.0792 41.2513 11.0792C41.465 11.0792 41.5678 10.9724 41.5596 10.7587L41.5593 10.759Z" fill="#F7F7F7"/>
<path d="M41.5693 11.8006C41.5151 11.8857 41.4426 11.9206 41.337 11.9217C40.5066 11.9308 39.6762 11.954 38.8455 11.9577C37.4818 11.9641 36.1181 11.9548 34.7544 11.9612C33.9437 11.9649 33.1333 11.9862 32.3229 11.9996C32.2344 12.0009 32.1426 11.9956 32.1325 12.1201C32.1192 12.0534 32.1058 11.9865 32.0928 11.9198C32.0928 11.8932 32.0928 11.8662 32.093 11.8396C32.1984 11.8262 32.3034 11.8025 32.409 11.8012C34.2717 11.7777 36.1346 11.8281 37.9975 11.766C39.0813 11.73 40.1674 11.7593 41.2525 11.7593C41.3058 11.7593 41.3591 11.7572 41.4122 11.7588C41.5231 11.762 41.5706 11.707 41.5626 11.599C41.5634 11.5457 41.5642 11.4926 41.5647 11.4393C41.5773 11.3993 41.5898 11.3596 41.6023 11.3196C41.5914 11.4798 41.5802 11.6401 41.5693 11.8004V11.8006Z" fill="#F3F3F3"/>
<path d="M41.6023 11.3202C41.5897 11.3602 41.5772 11.3999 41.5647 11.4399C40.5615 11.4532 39.558 11.4679 38.5548 11.4794C38.1956 11.4834 37.8364 11.4777 37.4772 11.4804C35.6692 11.4929 33.861 11.5068 32.053 11.5202C32.053 11.4668 32.053 11.4135 32.053 11.3602C33.1103 11.3602 34.1687 11.3908 35.2247 11.3532C37.0393 11.289 38.8537 11.345 40.6681 11.3188C40.9796 11.3143 41.2911 11.2935 41.6025 11.2802C41.6025 11.2935 41.6025 11.3071 41.6025 11.3204L41.6023 11.3202Z" fill="#F6F6F6"/>
<path d="M19.1047 9.64615C19.1042 9.69735 19.1039 9.74855 19.1034 9.79975C19.0231 9.70428 18.9127 9.71842 18.8071 9.72002C17.5631 9.74188 16.3194 9.71042 15.0746 9.75042C13.2925 9.80748 11.5082 9.74162 9.72448 9.79122C8.24075 9.83255 6.75516 9.79975 5.2701 9.79975C5.19677 9.79975 5.1237 9.80162 5.05037 9.80322C4.55197 9.81495 4.05357 9.82722 3.55544 9.83895C3.48558 9.84055 3.42131 9.82882 3.39331 9.75148C3.43838 9.37895 3.53278 9.01922 3.67251 8.67149C3.68051 8.74802 3.71784 8.79522 3.79918 8.79736C3.85917 8.79896 3.91891 8.80056 3.97891 8.79949C5.5293 8.77602 7.07942 8.81709 8.63062 8.76829C10.4263 8.71176 12.2239 8.77762 14.021 8.72829C15.5047 8.68749 16.9906 8.72002 18.4756 8.71976C18.5356 8.71976 18.5954 8.71869 18.6554 8.71789C18.7354 8.71682 18.778 8.67576 18.7847 8.59656C18.8786 8.92856 18.9724 9.26055 19.0663 9.59255C19.0791 9.61042 19.0916 9.62829 19.1044 9.64615H19.1047Z" fill="#FAFAFA"/>
<path d="M3.39356 9.75173C3.42156 9.82906 3.48583 9.8408 3.5557 9.8392C4.05409 9.82773 4.55249 9.81546 5.05062 9.80346C5.12369 9.8016 5.19702 9.8 5.27035 9.8C6.75514 9.8 8.241 9.8328 9.72473 9.79146C11.5085 9.74186 13.2927 9.80773 15.0748 9.75066C16.3196 9.71066 17.5634 9.7424 18.8073 9.72026C18.9129 9.7184 19.0233 9.70453 19.1036 9.8C19.1303 10.0267 19.1569 10.2533 19.1836 10.48C17.7794 10.5019 16.3754 10.4645 14.9706 10.512C13.2679 10.5696 11.5631 10.4971 9.85859 10.5525C8.1226 10.6091 6.38395 10.5141 4.64689 10.5976C4.31462 10.6136 3.98103 10.5984 3.64796 10.6003C3.28556 10.6021 3.32076 10.5987 3.31543 10.276C3.34156 10.1013 3.3677 9.9264 3.39383 9.75173H3.39356Z" fill="#F9F9F9"/>
<path d="M3.31528 10.2756C3.32061 10.5986 3.28541 10.602 3.64781 10.5999C3.98088 10.598 4.31448 10.6132 4.64674 10.5972C6.3838 10.5138 8.12219 10.6087 9.85845 10.5522C11.563 10.4967 13.2675 10.5692 14.9704 10.5116C16.3752 10.4642 17.7792 10.5015 19.1835 10.4796C19.1835 10.493 19.1835 10.5063 19.1835 10.5194C19.1835 10.666 19.1835 10.8127 19.1835 10.9596C18.9184 10.973 18.6533 10.9943 18.3883 10.9983C16.6928 11.0247 14.9974 10.9772 13.3011 11.0319C11.5467 11.0887 9.79045 11.022 8.03446 11.0703C6.45206 11.1138 4.86754 11.0791 3.28382 11.0791C3.28035 10.9658 3.27715 10.8524 3.27368 10.7391C3.28755 10.5847 3.30141 10.43 3.31528 10.2756Z" fill="#F8F8F8"/>
<path d="M3.27365 10.739C3.27712 10.8523 3.28032 10.9657 3.28378 11.079C3.28192 11.1057 3.27898 11.1321 3.27845 11.1587C3.27072 11.4793 3.27072 11.483 3.59152 11.4787C4.39631 11.4678 5.20057 11.4726 6.00564 11.4481C7.69496 11.3963 9.38562 11.4558 11.0763 11.4086C12.9587 11.3558 14.8429 11.4249 16.7264 11.3641C17.5578 11.3371 18.3909 11.3595 19.2232 11.3595C19.2232 11.4969 19.2272 11.6345 19.2213 11.7715C19.2186 11.8347 19.1968 11.8971 19.1834 11.9601C19.1834 11.9334 19.1834 11.9065 19.1832 11.8798C19.1832 11.8531 19.1842 11.8265 19.1832 11.7998C19.1749 11.6179 19.1637 11.6059 18.989 11.6001C18.949 11.5987 18.909 11.5987 18.8693 11.6001C18.4109 11.6131 17.9525 11.6318 17.4941 11.639C15.7906 11.6651 14.0869 11.6177 12.3829 11.6723C10.6339 11.7286 8.88269 11.6566 7.13203 11.7118C5.84804 11.7523 4.56191 11.7198 3.27658 11.7198C3.22885 11.3931 3.22885 11.0662 3.27418 10.7393L3.27365 10.739Z" fill="#F6F6F6"/>
<path d="M19.1835 11.8799C19.1835 11.9065 19.1835 11.9335 19.1838 11.9601C19.1704 12.0668 19.1571 12.1735 19.1438 12.2801C19.148 12.1743 19.103 12.1164 18.9912 12.1204C18.9382 12.1223 18.8848 12.1199 18.8315 12.1199C18.1131 12.1199 17.3936 12.0993 16.676 12.1239C14.7945 12.1876 12.9115 12.1159 11.031 12.1689C9.36835 12.2159 7.70596 12.1591 6.04437 12.2071C5.22678 12.2308 4.40971 12.2321 3.59238 12.2399C3.49185 12.2409 3.39079 12.2465 3.31612 12.1596C3.30385 12.0265 3.29132 11.8932 3.27905 11.7601C3.36039 11.9993 3.36065 12.0044 3.62198 11.998C3.82065 11.9929 4.01905 11.9641 4.21771 11.9612C5.93344 11.9348 7.6489 11.9831 9.36515 11.9271C11.0995 11.8705 12.8361 11.9377 14.5723 11.8887C16.1083 11.8455 17.6464 11.8796 19.1835 11.8796V11.8799Z" fill="#F4F4F4"/>
<path d="M19.1835 11.8799C17.6464 11.8799 16.1083 11.8455 14.5723 11.889C12.8361 11.938 11.0998 11.8708 9.36516 11.9274C7.6489 11.9834 5.93344 11.9351 4.21772 11.9615C4.01905 11.9644 3.82065 11.9935 3.62199 11.9983C3.36066 12.005 3.36066 11.9996 3.27906 11.7604C3.27799 11.7468 3.27692 11.7335 3.27612 11.7199C4.56145 11.7199 5.84758 11.7527 7.13157 11.7119C8.88223 11.6564 10.6334 11.7284 12.3825 11.6724C14.0867 11.6175 15.7902 11.6652 17.4936 11.6391C17.952 11.6322 18.4104 11.6132 18.8688 11.6002C18.9088 11.5991 18.9488 11.5991 18.9886 11.6002C19.1632 11.606 19.1747 11.618 19.1827 11.7999C19.1838 11.8266 19.1827 11.8532 19.1827 11.8799H19.1835Z" fill="#F5F5F5"/>
<path d="M32.053 11.5201C33.861 11.5068 35.6692 11.4929 37.4772 11.4804C37.8364 11.478 38.1956 11.4836 38.5548 11.4793C39.558 11.4678 40.5615 11.4532 41.5647 11.4398C41.5639 11.4932 41.5631 11.5462 41.5625 11.5996C40.186 11.6129 38.8098 11.631 37.4332 11.6385C36.2154 11.6452 34.9975 11.6361 33.7797 11.6417C33.2749 11.6441 32.7703 11.6668 32.2655 11.6804C32.2589 11.6804 32.2522 11.6812 32.2455 11.6806C32.1343 11.6758 32.0882 11.7334 32.093 11.8398C32.093 11.8665 32.093 11.8934 32.0927 11.9201C32.0794 11.8134 32.0661 11.7068 32.0527 11.5998C32.0527 11.5732 32.053 11.5465 32.0533 11.5198L32.053 11.5201Z" fill="#F5F5F5"/>
<path d="M32.0926 11.8396C32.0878 11.7332 32.134 11.6756 32.2452 11.6804C32.2518 11.6807 32.2585 11.6804 32.2652 11.6802C32.77 11.6666 33.2745 11.6439 33.7793 11.6415C34.9971 11.6359 36.215 11.645 37.4329 11.6383C38.8094 11.6308 40.1859 11.6127 41.5622 11.5994C41.5702 11.7074 41.5227 11.7626 41.4118 11.7591C41.3587 11.7575 41.3054 11.7596 41.252 11.7596C40.167 11.7596 39.0811 11.7303 37.9971 11.7663C36.1342 11.8282 34.2713 11.7778 32.4086 11.8015C32.3033 11.8028 32.198 11.8266 32.0926 11.8399V11.8396Z" fill="#F4F4F4"/>
<path d="M19.2233 11.3598C18.3911 11.3598 17.558 11.3374 16.7266 11.3644C14.8431 11.4252 12.9588 11.3561 11.0765 11.4089C9.38553 11.4561 7.69514 11.3966 6.00582 11.4484C5.20075 11.4732 4.39623 11.4684 3.5917 11.479C3.2709 11.4833 3.27063 11.4796 3.27863 11.159C3.27916 11.1324 3.2821 11.106 3.28396 11.0793C4.86769 11.0793 6.45221 11.114 8.03461 11.0705C9.7906 11.0222 11.5469 11.0889 13.3012 11.0321C14.9975 10.9772 16.693 11.0249 18.3884 10.9985C18.6537 10.9942 18.9185 10.9732 19.1836 10.9598C19.1969 10.9598 19.2103 10.9598 19.2233 10.9598C19.2233 11.0932 19.2233 11.2265 19.2233 11.3598Z" fill="#F7F7F7"/>
<path d="M41.5593 10.7594C41.5675 10.9729 41.4648 11.0798 41.2511 11.08C39.9471 11.08 38.642 11.0466 37.3391 11.0882C35.5767 11.1445 33.8146 11.096 32.0527 11.12C32.0527 11.04 32.0527 10.96 32.0527 10.8797C32.0527 10.8664 32.0527 10.853 32.0527 10.84C32.5381 10.84 33.0239 10.8573 33.5085 10.8368C35.3684 10.7584 37.23 10.8432 39.0892 10.7896C39.913 10.7658 40.7362 10.7797 41.5593 10.7592V10.7594Z" fill="#F8F8F8"/>
<path d="M32.0528 11.5199C32.0528 11.5466 32.0526 11.5732 32.0523 11.5999C31.9886 11.3599 31.9883 11.1196 32.0523 10.8796C32.0523 10.9596 32.0523 11.0396 32.0523 11.1199C32.0523 11.1999 32.0523 11.2799 32.0523 11.3599C32.0523 11.4132 32.0523 11.4666 32.0523 11.5199H32.0528Z" fill="#F9F9F9"/>
<path d="M19.2231 10.9597C19.2097 10.9597 19.1964 10.9597 19.1833 10.9597C19.1833 10.813 19.1833 10.6663 19.1833 10.5194C19.1967 10.6661 19.2097 10.813 19.2231 10.9597Z" fill="#F9F9F9"/>
<path d="M4.06982 7.70002C4.26022 7.36509 4.42769 7.01496 4.64449 6.69816C5.58208 5.32963 6.82848 4.34297 8.37513 3.74218C9.11806 3.45364 9.88819 3.28751 10.685 3.23285C12.1828 3.13018 13.598 3.42084 14.9279 4.11417C16.3546 4.8579 17.4554 5.94083 18.2409 7.34509C18.2537 7.36776 18.2599 7.39389 18.2692 7.41869C18.2844 7.49469 18.2999 7.57096 18.3167 7.65469C18.2727 7.66456 18.2415 7.67709 18.2097 7.67815C17.7249 7.69309 17.2404 7.71149 16.7556 7.71922C15.0866 7.74562 13.4175 7.70802 11.7474 7.75015C9.78633 7.79975 7.82314 7.73762 5.86128 7.79762C5.34262 7.81335 4.82315 7.80082 4.30422 7.79922C4.21409 7.79922 4.11062 7.82082 4.06982 7.70002Z" fill="#FCFCFC"/>
<path d="M18.785 8.59646C18.7784 8.67566 18.7357 8.71699 18.6557 8.71779C18.5957 8.71859 18.536 8.71966 18.476 8.71966C16.9909 8.71966 15.5051 8.68713 14.0213 8.72819C12.224 8.77779 10.4264 8.71166 8.63096 8.76819C7.07977 8.81699 5.52964 8.77593 3.97925 8.79939C3.91925 8.80019 3.85952 8.79859 3.79952 8.79726C3.71818 8.79513 3.68085 8.74793 3.67285 8.67139C3.76112 8.32953 3.89792 8.0074 4.06992 7.69967C4.11072 7.82047 4.21418 7.7986 4.30431 7.79887C4.82351 7.8002 5.34298 7.813 5.86137 7.79727C7.82323 7.73727 9.78642 7.7994 11.7475 7.7498C13.4173 7.70767 15.0864 7.74527 16.7557 7.71887C17.2405 7.71113 17.7253 7.69273 18.2098 7.6778C18.2413 7.67673 18.2728 7.66447 18.3168 7.65433C18.3 7.5706 18.2848 7.4946 18.2693 7.41833C18.4904 7.78953 18.6645 8.18126 18.785 8.59646Z" fill="#FBFBFB"/>
<path d="M45.1217 -0.00012207C45.0151 0.0713442 44.9087 0.046011 44.802 -0.00012207H45.1217Z" fill="#3996DF"/>
</g>
<defs>
<clipPath id="clip0_1031_2039">
<rect width="48" height="48" fill="white"/>
</clipPath>
</defs>
</svg>
