<svg width="48" height="48" viewBox="0 0 48 48" fill="none" xmlns="http://www.w3.org/2000/svg">
<path d="M3 35.8625L23.9875 47.8167L44.975 35.8625V11.9542L23.9875 0L3 11.9542V35.8625Z" fill="#4D9EA1"/>
<path d="M21.8403 2.86182L6.59941 11.5378C6.62439 11.8084 6.62439 12.0807 6.59941 12.3512L21.8153 21.0272C22.441 20.5709 23.1985 20.3247 23.9766 20.3247C24.7546 20.3247 25.5121 20.5709 26.1378 21.0272L41.3537 12.3512C41.3287 12.0807 41.3287 11.8084 41.3537 11.5378L26.1628 2.86182C25.5371 3.31813 24.7796 3.56438 24.0015 3.56438C23.2235 3.56438 22.466 3.31813 21.8403 2.86182ZM42.8278 14.7421L27.5869 23.5167C27.6695 24.2777 27.5062 25.045 27.1203 25.709C26.7344 26.373 26.1457 26.8997 25.4382 27.2138L25.4632 44.4673C25.7096 44.5745 25.944 44.7067 26.1628 44.8617L41.3787 36.1856C41.2961 35.4246 41.4594 34.6573 41.8453 33.9933C42.2312 33.3293 42.8199 32.8026 43.5274 32.4885V15.1364C43.2838 15.0238 43.0499 14.8919 42.8278 14.7421ZM5.15027 14.8406C4.93154 14.9956 4.69709 15.1278 4.45068 15.235V32.5871C5.16681 32.8901 5.76366 33.4146 6.15123 34.0815C6.53881 34.7484 6.69611 35.5215 6.59941 36.2842L21.8153 44.9603C22.0341 44.8053 22.2685 44.6731 22.5149 44.5659V27.2138C21.7988 26.9108 21.202 26.3863 20.8144 25.7194C20.4268 25.0525 20.2695 24.2794 20.3662 23.5167L5.15027 14.8406Z" fill="#6ACAD1"/>
<path d="M23.9875 2.60513L42.7513 13.3023V34.6719L23.9875 45.3691L5.22368 34.6719V13.2776L23.9875 2.60513ZM23.9875 0.0664062L3 12.0206V35.929L23.9875 47.8831L44.975 35.929V12.0206L23.9875 0.0664062Z" fill="#4D9EA1"/>
<path d="M24.1374 27.9924H23.8376C23.3221 27.9937 22.8114 27.8945 22.3349 27.7004C21.8584 27.5064 21.4254 27.2214 21.0609 26.8619C20.6964 26.5023 20.4075 26.0751 20.2108 25.6051C20.0142 25.135 19.9136 24.6312 19.9149 24.1227V23.8269C19.9136 23.3183 20.0142 22.8146 20.2108 22.3445C20.4075 21.8744 20.6964 21.4473 21.0609 21.0877C21.4254 20.7281 21.8584 20.4431 22.3349 20.2491C22.8114 20.0551 23.3221 19.9559 23.8376 19.9572H24.1374C24.6529 19.9559 25.1636 20.0551 25.6401 20.2491C26.1166 20.4431 26.5496 20.7281 26.9141 21.0877C27.2786 21.4473 27.5675 21.8744 27.7642 22.3445C27.9608 22.8146 28.0614 23.3183 28.0601 23.8269V24.1227C28.0614 24.6312 27.9608 25.135 27.7642 25.6051C27.5675 26.0751 27.2786 26.5023 26.9141 26.8619C26.5496 27.2214 26.1166 27.5064 25.6401 27.7004C25.1636 27.8945 24.6529 27.9937 24.1374 27.9924ZM24.1374 43.8902H23.8376C23.1407 43.8881 22.4559 44.0698 21.8541 44.4165C21.2523 44.7632 20.7553 45.2622 20.4146 45.862L23.9875 47.8831L27.5604 45.862C27.2197 45.2622 26.7228 44.7632 26.1209 44.4165C25.5191 44.0698 24.8343 43.8881 24.1374 43.8902ZM45 31.936H44.8501C44.3346 31.9347 43.8239 32.0339 43.3474 32.2279C42.8709 32.4219 42.4379 32.7069 42.0734 33.0665C41.7089 33.4261 41.42 33.8532 41.2233 34.3233C41.0267 34.7934 40.9261 35.2972 40.9274 35.8057V36.1015C40.9238 36.7584 41.0962 37.4046 41.4271 37.9747L45 35.929V31.936ZM41.4271 9.99947C41.0991 10.5707 40.927 11.2162 40.9274 11.8727V12.1685C40.9261 12.677 41.0267 13.1808 41.2233 13.6509C41.42 14.121 41.7089 14.5481 42.0734 14.9077C42.4379 15.2673 42.8709 15.5523 43.3474 15.7463C43.8239 15.9403 44.3346 16.0395 44.8501 16.0382H45V12.0206L41.4271 9.99947ZM23.9875 0.0664062L20.4146 2.08753C20.7537 2.69052 21.2496 3.1934 21.8513 3.54433C22.453 3.89527 23.1386 4.08156 23.8376 4.084H24.1374C24.8343 4.08607 25.5191 3.90436 26.1209 3.55768C26.7228 3.21099 27.2197 2.71194 27.5604 2.11217L23.9875 0.0664062ZM6.57287 9.97482L3 12.0206V16.0382H3.14991C3.66541 16.0395 4.17609 15.9403 4.65261 15.7463C5.12912 15.5523 5.56208 15.2673 5.92659 14.9077C6.29111 14.5481 6.58 14.121 6.77667 13.6509C6.97333 13.1808 7.07389 12.677 7.07258 12.1685V11.8727C7.06411 11.2095 6.89264 10.5582 6.57287 9.97482ZM3.14991 31.936H3V35.929L6.57287 37.9747C6.90086 37.4035 7.07303 36.758 7.07258 36.1015V35.8057C7.07389 35.2972 6.97333 34.7934 6.77667 34.3233C6.58 33.8532 6.29111 33.4261 5.92659 33.0665C5.56208 32.7069 5.12912 32.4219 4.65261 32.2279C4.17609 32.0339 3.66541 31.9347 3.14991 31.936Z" fill="#4D9EA1"/>
<path d="M23.9875 48V24.067L3 12.1128V36.0458L23.9875 48Z" fill="#083B54" fill-opacity="0.15"/>
<path d="M44.9943 35.8214V11.9131L24.0068 23.8673V47.8003L44.9943 35.8214Z" fill="#083B54" fill-opacity="0.05"/>
</svg>
