<svg width="48" height="48" viewBox="0 0 48 48" fill="none" xmlns="http://www.w3.org/2000/svg">
  <defs>
    <clipPath id="clip0_1031_1976">
      <rect width="48" height="48" fill="white" transform="translate(0 48) rotate(-90)" />
    </clipPath>
  </defs>
  <g clip-path="url(#clip0_1031_1976)">
    <path
      d="M21.0139 47.8113L20.6544 47.9996H20.4122C19.7131 47.6364 19.02 47.2659 18.3143 46.9149C17.6436 46.5807 17.3131 46.0614 17.3179 45.3054C17.3306 43.3133 17.3288 41.3213 17.3325 39.3286L21.1041 41.2147C21.0986 41.3455 21.0877 41.4756 21.0877 41.6064C21.0877 43.4969 21.0865 45.3877 21.0841 47.2787C21.0841 47.4566 21.0387 47.634 21.0139 47.8113ZM19.1653 43.5458C18.7888 43.4774 18.4995 43.6099 18.2919 43.9271C17.7822 44.7061 18.304 46.0626 19.1998 46.2878C19.5945 46.3876 20.0121 46.1782 20.1078 45.8308C20.1447 45.7999 20.1973 45.7769 20.2167 45.7369C20.6096 44.947 20.0297 43.7437 19.1653 43.5458Z"
      fill="#010101" />
    <path
      d="M20.1101 45.8358C20.012 46.1832 19.5944 46.3926 19.2021 46.2928C18.3063 46.0658 17.7845 44.7093 18.2942 43.9321C18.5018 43.6149 18.7911 43.4823 19.1676 43.5507C18.8412 44.5305 19.1553 45.2922 20.1101 45.8358Z"
      fill="#4B4B4B" />
    <path
      d="M20.1102 45.8357C19.155 45.2933 18.8401 44.531 19.1653 43.5488C20.0297 43.7468 20.6096 44.9501 20.2191 45.7418C20.1998 45.7788 20.1471 45.8018 20.1102 45.8357Z"
      fill="#FAFAFA" />
    <path
      d="M42.8871 9.37803V33.1918C42.7841 33.2228 42.6831 33.2598 42.5844 33.3026C40.6414 34.2711 38.6992 35.242 36.7578 36.2153C34.385 37.4041 32.013 38.5946 29.6419 39.7866L28.6897 40.2708L27.7763 40.7303L26.8078 41.2145L25.8999 41.6691C25.5936 41.8249 25.2869 41.98 24.9798 42.1346C24.7002 42.2665 24.4236 42.4051 24.1397 42.5268C24.0531 42.5637 23.9466 42.5541 23.8491 42.5662C23.8828 42.435 23.9051 42.3011 23.9157 42.166C23.9193 35.6938 23.9203 29.2213 23.9187 22.7486C23.9187 21.4601 23.9167 20.1716 23.9127 18.8831C24.0241 18.8383 24.1391 18.8014 24.2456 18.7481C26.8084 17.4681 29.3709 16.1869 31.9329 14.9044L40.9398 10.4004C41.0924 10.4361 41.2528 10.4512 41.3956 10.5106C41.7213 10.6455 41.7988 10.6013 41.8006 10.2382C41.8006 9.78964 41.8006 9.34111 41.8006 8.89258L42.8871 9.37803ZM39.6245 20.5071C39.6324 20.3969 39.6324 20.2862 39.6245 20.176C39.5501 19.6742 39.3509 19.2439 38.8509 19.0399C38.3667 18.8413 37.926 18.983 37.5308 19.2935C36.8383 19.8383 36.5018 20.8673 36.7342 21.7038C36.9836 22.5984 37.857 22.9398 38.6288 22.4259C39.3043 21.9744 39.6003 21.3055 39.6245 20.5071ZM32.0758 24.2352C32.0431 23.6934 31.9093 23.1632 31.3537 22.869C30.8694 22.6148 30.4064 22.7377 30.0008 23.0506C29.3586 23.5433 29.0644 24.2249 29.0886 25.0221C29.1074 25.6371 29.3211 26.1752 29.9633 26.4022C30.4838 26.5868 31.1037 26.3307 31.5407 25.7763C31.8857 25.3344 32.0546 24.8266 32.0758 24.2352ZM33.4117 31.178C33.4117 31.6138 33.4044 31.9044 33.4117 32.1967C33.4268 32.6913 33.7367 32.9479 34.2258 32.8837C35.247 32.7488 36.2233 31.7088 36.2681 30.6835C36.2905 30.1514 36.2681 29.6175 36.2754 29.0849C36.279 28.8766 36.21 28.8724 36.0484 28.9553C35.4861 29.2441 34.9358 29.5661 34.3493 29.7943C33.6235 30.0776 33.1435 30.4534 33.4117 31.178Z"
      fill="#FE5E5E" />
    <path
      d="M28.6237 43.9965C28.3531 44.2289 28.0692 44.2229 27.7617 44.0649C27.1128 43.7314 26.4573 43.4093 25.8048 43.0825C25.6109 42.9875 25.4381 42.8548 25.2964 42.692C25.1547 42.5292 25.047 42.3396 24.9797 42.1346L25.9004 41.6691C26.1086 41.9112 26.2781 42.209 26.5348 42.3731C27.016 42.6818 27.4839 42.5147 27.7266 42.0256C28.002 41.6019 27.9312 41.1667 27.775 40.7272L28.6884 40.2666C28.6884 40.7793 28.6987 41.292 28.6884 41.8041C28.6775 42.5359 28.6461 43.2659 28.6237 43.9965Z"
      fill="#020202" />
    <path
      d="M27.7267 42.026C27.4846 42.515 27.0161 42.6821 26.5349 42.3734C26.2782 42.2094 26.1112 41.9085 25.9005 41.6694L26.8085 41.2148C27.0173 41.5944 27.2976 41.8946 27.7267 42.026Z"
      fill="#4B4A4A" />
    <path
      d="M27.7267 42.0258C27.2975 41.8945 27.0173 41.5942 26.8073 41.2147L27.7757 40.7305C27.9313 41.1669 28.0021 41.6027 27.7267 42.0258Z"
      fill="#FAFAFA" />
    <path
      d="M28.6238 43.9966C28.6462 43.266 28.6746 42.536 28.6885 41.8054C28.6988 41.2933 28.6885 40.7806 28.6885 40.2679L29.6407 39.7837C29.6431 40.868 29.6451 41.9521 29.6467 43.036C29.6467 43.3659 29.5287 43.6165 29.194 43.7381C28.9985 43.8114 28.8132 43.91 28.6238 43.9966Z"
      fill="#4D4D4D" />
    <path
      d="M33.4117 31.1783C33.1435 30.4519 33.6235 30.0779 34.3511 29.7946C34.9377 29.5664 35.4879 29.2444 36.0502 28.9556C36.2118 28.8727 36.2808 28.877 36.2772 29.0852C36.2687 29.6178 36.2923 30.1517 36.2699 30.6838C36.2257 31.7092 35.2488 32.7491 34.2276 32.8841C33.7385 32.9482 33.4286 32.6916 33.4135 32.197C33.4044 31.9059 33.4117 31.6141 33.4117 31.1783Z"
      fill="#020101" />
    <path
      d="M32.0757 24.2354C32.0545 24.8268 31.8881 25.3347 31.5406 25.7747C31.1036 26.3292 30.4838 26.5852 29.9632 26.4006C29.321 26.1736 29.1073 25.6355 29.0885 25.0205C29.0643 24.2233 29.3585 23.5418 30.0007 23.049C30.4063 22.7379 30.8712 22.615 31.3536 22.8675C31.9092 23.1634 32.043 23.6937 32.0757 24.2354Z"
      fill="#020101" />
    <path
      d="M39.6246 20.5072C39.6004 21.3056 39.3044 21.9745 38.6264 22.426C37.8547 22.9399 36.9812 22.5985 36.7318 21.7039C36.4988 20.8649 36.8359 19.8365 37.5284 19.2936C37.9237 18.9831 38.3625 18.8414 38.8486 19.04C39.3486 19.2439 39.5477 19.6743 39.6221 20.1761C39.6308 20.2863 39.6316 20.3969 39.6246 20.5072Z"
      fill="#020101" />
    <path
      d="M21.1047 41.2147L17.333 39.3285C15.6733 38.4928 14.0136 37.6571 12.3538 36.8214C10.0004 35.6418 7.64537 34.4659 5.28873 33.2937C5.08595 33.1932 5 33.0879 5 32.8439C5.00847 25.1308 5.00847 17.4174 5 9.70384C5 9.47564 5.07324 9.36729 5.27239 9.27649C5.79234 9.03982 6.3014 8.78075 6.81591 8.53076C6.85707 8.64759 6.92849 8.76259 6.93334 8.88063C6.94847 9.25712 6.93334 9.63423 6.94363 10.0113C6.94363 10.1094 7.00416 10.2062 7.03382 10.3037C7.0429 10.3509 7.03684 10.4248 7.06348 10.4411C7.27352 10.5585 7.48719 10.6657 7.70449 10.7734L23.9115 18.8845C23.9139 20.1729 23.9159 21.4614 23.9175 22.7499C23.9175 29.2226 23.9165 35.6951 23.9145 42.1674C23.9039 42.3024 23.8816 42.4363 23.8479 42.5675L22.0598 41.7013L21.1047 41.2147ZM9.72802 20.5944C9.72802 21.3486 9.72802 22.1022 9.72802 22.8565C9.72802 23.2323 9.89084 23.5108 10.234 23.6785C10.5403 23.828 10.8394 23.9878 11.1511 24.133C11.4713 24.2838 11.6408 24.1839 11.6414 23.8376C11.645 22.2893 11.645 20.7409 11.6414 19.1926C11.6414 18.8397 11.4761 18.5812 11.1571 18.4238C10.8684 18.2828 10.5833 18.1351 10.2952 17.9928C9.89508 17.7955 9.73165 17.8924 9.73044 18.3318C9.7262 19.0812 9.72802 19.8378 9.72802 20.5944ZM18.2628 24.8539C18.2628 24.0786 18.2628 23.3038 18.2628 22.5284C18.2628 22.1713 18.1133 21.9104 17.7949 21.7494C17.4765 21.5883 17.169 21.4279 16.8506 21.2784C16.5322 21.1289 16.3664 21.2336 16.3664 21.5811C16.3631 23.1315 16.3631 24.6818 16.3664 26.2322C16.3615 26.3842 16.4013 26.5343 16.4808 26.6639C16.5603 26.7935 16.676 26.897 16.8137 26.9616C17.126 27.123 17.4404 27.281 17.7567 27.4356C18.1096 27.6081 18.261 27.5143 18.2622 27.1166C18.2664 26.3618 18.2628 25.6063 18.2628 24.8515V24.8539ZM12.5681 30.4306C12.5681 30.7024 12.5493 30.9754 12.5766 31.2447C12.5887 31.3573 12.6728 31.5092 12.7678 31.5589C13.5783 31.9826 14.4022 32.3779 15.2145 32.7961C15.4263 32.9057 15.4403 32.8282 15.4366 32.6442C15.4288 32.2011 15.4366 31.7586 15.4366 31.3155C15.4417 30.7483 15.2498 30.1969 14.8937 29.7554C14.5376 29.3138 14.0394 29.0095 13.4839 28.8943C12.927 28.7733 12.5875 29.0402 12.5717 29.6165C12.562 29.8846 12.5681 30.1582 12.5681 30.4282V30.4306Z"
      fill="#F22B2B" />
    <path
      d="M21.1047 41.2148L22.0599 41.6991C22.0599 43.3395 22.0369 44.9798 22.0647 46.6202C22.0732 47.1383 21.9243 47.4676 21.4243 47.6304C21.2845 47.6828 21.1475 47.7424 21.0139 47.809C21.0387 47.6317 21.0841 47.4543 21.0847 47.2763C21.0896 45.3854 21.0908 43.4946 21.0884 41.6041C21.0884 41.4775 21.0993 41.3456 21.1047 41.2148Z"
      fill="#484848" />
    <path
      d="M12.5681 30.428C12.5681 30.1562 12.5621 29.8832 12.5681 29.6127C12.5838 29.0364 12.9234 28.7707 13.4803 28.8905C14.0357 29.0057 14.534 29.31 14.8901 29.7516C15.2462 30.1931 15.4381 30.7445 15.433 31.3117C15.433 31.7548 15.4276 32.1973 15.433 32.6404C15.4366 32.822 15.4227 32.9019 15.2109 32.7923C14.3979 32.374 13.5765 31.977 12.7642 31.5551C12.6692 31.5054 12.5826 31.3535 12.5729 31.2409C12.5493 30.9734 12.5681 30.7028 12.5681 30.428Z"
      fill="#030000" />
    <path
      d="M18.2629 24.8515C18.2629 25.6063 18.2629 26.3617 18.2629 27.1165C18.2629 27.5142 18.1103 27.608 17.7574 27.4355C17.4415 27.2814 17.1271 27.1234 16.8144 26.9616C16.6766 26.8968 16.5609 26.7931 16.4815 26.6632C16.4021 26.5334 16.3625 26.3831 16.3677 26.231C16.3644 24.6802 16.3644 23.1298 16.3677 21.5798C16.3677 21.2312 16.5347 21.1271 16.8519 21.2772C17.1691 21.4273 17.482 21.5889 17.7962 21.7481C18.1103 21.9073 18.2659 22.1718 18.2641 22.5271C18.2604 23.3013 18.2629 24.0761 18.2629 24.8515Z"
      fill="black" />
    <path
      d="M23.9127 18.883L7.70571 10.7719C7.49204 10.6672 7.27473 10.5583 7.06469 10.4408C7.03806 10.4257 7.04411 10.3506 7.03503 10.3034L11.4707 8.09044L14.4324 6.59958L17.3912 5.1287L20.8377 3.39572C21.7917 2.9252 22.7463 2.45588 23.7014 1.98778C23.81 1.94468 23.9217 1.91007 24.0356 1.88428L28.5081 4.1239L32.7368 6.24245L35.7578 7.75571L38.656 9.20844C38.768 9.26897 38.8788 9.33615 38.9926 9.39608C39.6411 9.73505 40.2897 10.0732 40.9386 10.4106L31.9317 14.9043C29.3701 16.1856 26.8076 17.4668 24.2444 18.748C24.1378 18.8013 24.0241 18.8388 23.9127 18.883ZM20.1077 13.7918C20.7131 13.698 21.236 13.5575 21.6597 13.1544C22.2094 12.6326 22.1888 11.8518 21.6198 11.3524C20.8934 10.7144 19.5902 10.6696 18.8178 11.2562C18.0455 11.8427 18.054 12.7985 18.8711 13.3142C19.2385 13.543 19.6931 13.6362 20.1077 13.7918ZM27.7267 9.91785C28.2914 9.9009 28.8065 9.76471 29.226 9.37308C29.7708 8.86523 29.7762 8.14189 29.249 7.6177C28.4882 6.86047 26.9446 6.86713 26.1989 7.63041C25.7147 8.12737 25.711 8.83375 26.1989 9.32889C26.6196 9.75381 27.1547 9.89545 27.7267 9.91724V9.91785Z"
      fill="#FEFEFE" />
    <path
      d="M9.72801 20.5946C9.72801 19.8404 9.72801 19.0862 9.72801 18.332C9.72801 17.8925 9.89265 17.7957 10.2928 17.993C10.5809 18.1353 10.866 18.283 11.1547 18.424C11.4755 18.5814 11.6389 18.8398 11.6389 19.1927C11.6426 20.7411 11.6426 22.2895 11.6389 23.8378C11.6389 24.1841 11.4689 24.2839 11.1487 24.1332C10.8399 23.9879 10.5379 23.8306 10.2316 23.6786C9.88841 23.511 9.7268 23.2325 9.72559 22.8566C9.7268 22.1 9.72801 21.3464 9.72801 20.5946Z"
      fill="#040101" />
    <path
      d="M20.1077 13.7918C19.6931 13.6363 19.2385 13.5431 18.8711 13.3124C18.0539 12.7985 18.0515 11.8385 18.8178 11.2544C19.5842 10.6703 20.8922 10.7127 21.6198 11.3507C22.1888 11.85 22.2093 12.6309 21.6597 13.1526C21.236 13.5576 20.7124 13.698 20.1077 13.7918Z"
      fill="#030303" />
    <path
      d="M40.9386 10.4005C40.2897 10.0627 39.641 9.72456 38.9926 9.38599C38.8788 9.32546 38.768 9.26069 38.656 9.19835C38.6838 9.09545 38.704 8.99065 38.7165 8.8848C38.742 8.38422 38.7595 7.88303 38.7771 7.38184L41.7975 8.89509C41.7975 9.34362 41.7975 9.79215 41.7975 10.2407C41.7975 10.6039 41.7182 10.648 41.3926 10.5131C41.2515 10.4513 41.0911 10.4362 40.9386 10.4005Z"
      fill="#FD5A5A" />
    <path
      d="M27.7267 9.91735C27.1546 9.89556 26.6208 9.75392 26.2001 9.32779C25.711 8.83265 25.7158 8.12626 26.2001 7.62931C26.9458 6.86602 28.4893 6.85936 29.2502 7.6166C29.7774 8.142 29.7708 8.86534 29.2272 9.37197C28.8065 9.76421 28.2914 9.9004 27.7267 9.91735Z"
      fill="#030303" />
    <path
      d="M11.4707 8.09072L7.03505 10.3043C7.00357 10.2069 6.94728 10.11 6.94486 10.0119C6.93396 9.63485 6.9497 9.25774 6.93457 8.88125C6.92972 8.76321 6.8583 8.6482 6.81714 8.53138L11.409 6.23486C11.4387 6.33565 11.459 6.439 11.4695 6.54357C11.4743 7.05868 11.4707 7.575 11.4707 8.09072Z"
      fill="#F23232" />
    <path
      d="M28.5081 4.12193L24.0355 1.88231C24.0767 1.77881 24.1505 1.67591 24.153 1.57119C24.1657 1.07 24.159 0.568202 24.159 0.0664062L28.5674 2.26184L28.5081 4.12193Z"
      fill="#F84848" />
    <path d="M28.5081 4.12183L28.5686 2.26416L32.7978 4.38272L32.7373 6.24039L28.5081 4.12183Z"
      fill="#FA4E4E" />
    <path
      d="M32.7368 6.23707L32.7973 4.37939L35.8517 5.91323C35.8202 6.01311 35.7645 6.11177 35.7627 6.21164C35.7536 6.72373 35.7585 7.23582 35.7585 7.7479L32.7368 6.23707Z"
      fill="#FB5252" />
    <path
      d="M35.7596 7.74825C35.7596 7.23616 35.7547 6.72407 35.7638 6.21199C35.7638 6.11211 35.8213 6.01345 35.8528 5.91357L38.7813 7.38204C38.7607 7.88323 38.7431 8.38442 38.7207 8.885C38.7082 8.99086 38.688 9.09565 38.6602 9.19855L35.7596 7.74825Z"
      fill="#FC5656" />
    <path
      d="M11.4707 8.09093C11.4707 7.57521 11.4743 7.05889 11.4707 6.54317C11.4602 6.4386 11.4399 6.33525 11.4102 6.23446L14.3102 4.78174C14.3313 4.82411 14.3707 4.86648 14.3707 4.91006C14.3943 5.47239 14.4131 6.03471 14.4312 6.59764L11.4707 8.09093Z"
      fill="#F33636" />
    <path
      d="M20.8377 3.39587L17.3911 5.12885L17.3306 3.27178L20.7124 1.58057C20.733 1.90259 20.7529 2.22521 20.7729 2.54905C20.7947 2.83052 20.8171 3.11319 20.8377 3.39587Z"
      fill="#F53E3E" />
    <path
      d="M14.4323 6.59967C14.4124 6.03674 14.3936 5.47441 14.3718 4.91209C14.3718 4.86851 14.3319 4.82613 14.3113 4.78376L17.3336 3.27051L17.3941 5.12758L14.4323 6.59967Z"
      fill="#F43A3A" />
    <path
      d="M20.8377 3.39599C20.8172 3.11331 20.7948 2.83064 20.7772 2.54857C20.7554 2.22594 20.7354 1.90331 20.7167 1.58008C21.7493 1.05407 22.7802 0.524435 23.8201 0.011744C23.9042 -0.0300219 24.047 0.0468515 24.1627 0.0680371C24.1627 0.569833 24.1693 1.07163 24.1566 1.57282C24.1566 1.67754 24.0803 1.78044 24.0392 1.88394C23.9253 1.90974 23.8136 1.94435 23.7051 1.98745C22.7471 2.45394 21.7913 2.92345 20.8377 3.39599Z"
      fill="#F74242" />
  </g>
</svg>