<svg width="48" height="48" viewBox="0 0 48 48" fill="none" xmlns="http://www.w3.org/2000/svg">
  <defs>
    <clipPath id="clip0_1031_2015">
      <rect width="48" height="48" fill="white" />
    </clipPath>
  </defs>
  <g clip-path="url(#clip0_1031_2015)">
    <path fill-rule="evenodd" clip-rule="evenodd"
      d="M44 2H4C2.89543 2 2 2.89543 2 4V44C2 45.1046 2.89543 46 4 46H44C45.1046 46 46 45.1046 46 44V4C46 2.89543 45.1046 2 44 2ZM4 0C1.79086 0 0 1.79086 0 4V44C0 46.2091 1.79086 48 4 48H44C46.2091 48 48 46.2091 48 44V4C48 1.79086 46.2091 0 44 0H4Z"
      fill="#03020D" />
    <path
      d="M18.4201 30.9998C21.2401 30.9998 22.8201 29.2998 22.8201 27.0598C22.8201 25.3998 21.9201 24.0398 20.2801 23.4398C21.3001 22.7798 21.8401 21.7198 21.8401 20.4798C21.8401 18.3998 20.3401 16.7998 17.6401 16.7998H12.6001V30.9998H18.4201ZM18.0601 25.0398C19.2601 25.0398 20.1801 25.5998 20.1801 26.8398C20.1801 28.0798 19.2601 28.6598 18.0601 28.6598H15.1801V25.0398H18.0601ZM17.3401 19.1398C18.3801 19.1398 19.2201 19.6798 19.2201 20.8798C19.2201 22.1598 18.3801 22.6998 17.3401 22.6998H15.1801V19.1398H17.3401Z"
      fill="black" />
    <path
      d="M26.149 30.9998L29.649 25.4598L33.169 30.9998H36.249L31.389 23.6398L35.869 16.7998H32.829L29.649 21.8398L26.469 16.7998H23.429L27.909 23.6398L23.069 30.9998H26.149Z"
      fill="black" />
  </g>
</svg>