<svg width="48" height="48" viewBox="0 0 48 48" fill="none" xmlns="http://www.w3.org/2000/svg">
<g clip-path="url(#clip0_1031_1930)">
<path d="M29.9998 24.0105C30.0006 25.7412 29.6884 27.4579 29.0783 29.0775C27.458 29.6876 25.741 30.0003 24.0098 30.0006H23.9895C22.2068 29.9983 20.4986 29.6724 18.9225 29.0783C18.3119 27.4584 17.9994 25.7416 18 24.0105V23.9895C17.9992 22.2591 18.3111 20.5427 18.9206 18.9233C20.5407 18.312 22.2581 17.9992 23.9897 18H24.0099C25.7413 17.9992 27.4585 18.3119 29.0784 18.9231C29.6887 20.5424 30.0009 22.2588 30 23.9893V24.0103L29.9998 24.0105ZM47.6666 20.0001H33.6574L43.5628 10.0939C42.7853 9.00172 41.9181 7.97635 40.9701 7.02844V7.02769C40.022 6.08079 38.9969 5.21431 37.9054 4.43719L27.9992 14.3434V0.334125C26.6817 0.112487 25.348 0.000726919 24.012 0L23.9872 0C22.6283 0.00075 21.2972 0.11625 20.0001 0.334125V14.3434L10.0939 4.43719C9.00214 5.2141 7.97749 6.0812 7.03069 7.02938L7.02544 7.03312C6.07904 7.97985 5.21299 9.00363 4.43625 10.0939L14.3432 20.0001H0.334125C0.334125 20.0001 0 22.6313 0 23.9918V24.0083C0 25.3688 0.115312 26.7021 0.334125 27.9999H14.3434L4.43644 37.9061C5.99487 40.0931 7.90687 42.0051 10.0939 43.5636L20.0001 33.6566V47.6666C21.3161 47.8872 22.6481 47.9987 23.9826 48H24.0165C25.3509 47.9988 26.683 47.8873 27.999 47.6666V33.6566L37.9061 43.5636C38.9975 42.7862 40.0223 41.9194 40.9701 40.9723L40.9723 40.9701C41.919 40.0221 42.7855 38.9973 43.5628 37.9061L33.6559 27.9999H47.6666C47.8847 26.7043 47.9985 25.3749 48 24.0174V23.9826C47.9985 22.6251 47.8847 21.2957 47.6666 20.0001Z" fill="#FF4A00"/>
</g>
<defs>
<clipPath id="clip0_1031_1930">
<rect width="48" height="48" fill="white"/>
</clipPath>
</defs>
</svg>
