<svg width="48" height="48" viewBox="0 0 48 48" fill="none" xmlns="http://www.w3.org/2000/svg">
<g clip-path="url(#clip0_1031_1927)">
<rect x="31.75" y="3.25" width="9.75" height="9.75" fill="url(#paint0_linear_1031_1927)"/>
<rect x="6" width="16.5" height="16.5" fill="url(#paint1_linear_1031_1927)"/>
<path d="M19.0958 41.5572C19.9489 42.7046 21.0596 43.6237 22.4272 44.3151C23.7956 45.0061 25.3177 45.3522 26.9948 45.3522C28.4655 45.3522 29.7156 45.1383 30.7455 44.7122C31.775 44.2856 32.6057 43.7046 33.2386 42.969C33.871 42.2334 34.3265 41.3732 34.607 40.388C34.8857 39.4018 35.0259 38.3501 35.0259 37.233V33.5261H34.9375C33.996 34.9378 32.8482 35.9387 31.4958 36.5269C30.1421 37.1155 28.7156 37.4094 27.2154 37.4094C25.7148 37.4094 24.3101 37.1442 23.0011 36.6149C21.6916 36.0852 20.5518 35.3572 19.5813 34.4309C18.6103 33.5037 17.8453 32.3939 17.2866 31.0991C16.7274 29.8048 16.4482 28.4073 16.4482 26.9071C16.4482 25.4069 16.7131 24.0094 17.2423 22.7147C17.772 21.4204 18.5 20.2877 19.4268 19.3168C20.3531 18.3463 21.4562 17.5892 22.7362 17.0444C24.0162 16.5004 25.4209 16.2275 26.951 16.2275C27.5682 16.2275 28.2226 16.2873 28.9143 16.4044C29.6049 16.5223 30.2967 16.7286 30.988 17.0225C31.679 17.3164 32.3632 17.7214 33.0402 18.2355C33.7164 18.7509 34.3489 19.4052 34.9379 20.1993H35.0259V16.7576H37.9383V37.2334C37.9383 38.3509 37.7985 39.5421 37.519 40.8073C37.2394 42.0717 36.6954 43.2347 35.8866 44.2936C35.0769 45.3526 33.9518 46.2355 32.5106 46.9416C31.0689 47.6473 29.1859 48.0002 26.8621 48.0002C24.8028 48.0002 22.9636 47.6616 21.3463 46.9854C19.7282 46.3084 18.2575 45.2642 16.9337 43.8524L19.0958 41.5572ZM19.6251 26.8187C19.6251 27.9071 19.8238 28.9298 20.2213 29.8852C20.6183 30.8418 21.1623 31.6806 21.8537 32.4006C22.5463 33.123 23.3699 33.7071 24.2807 34.1218C25.2074 34.5484 26.215 34.7618 27.3038 34.7618C28.3628 34.7618 29.3699 34.5707 30.3266 34.188C31.2662 33.816 32.127 33.2695 32.8634 32.5774C33.5986 31.8869 34.1653 31.0549 34.5628 30.084C34.9598 29.1134 35.143 28.025 35.1143 26.8187C35.1143 25.7307 34.9375 24.708 34.5847 23.7517C34.2318 22.796 33.7164 21.9576 33.0402 21.2364C32.3632 20.516 31.5396 19.9421 30.5687 19.5155C29.5981 19.0894 28.5097 18.8755 27.3038 18.8755C26.215 18.8755 25.2074 19.0894 24.2807 19.5155C23.3702 19.9306 22.5467 20.5146 21.8537 21.2364C21.1623 21.9576 20.6183 22.796 20.2213 23.7517C19.8238 24.708 19.6251 25.7307 19.6251 26.8187Z" fill="#03020D"/>
<path d="M14.528 3.24116L9.58228 8.2239L14.565 13.1704L18.7806 13.1548L14.3595 8.76958L36.1877 8.68832L34.2749 10.6146L36.3823 10.6066L38.8555 8.11527L36.3642 5.64243L34.2564 5.65043L36.184 7.56201L14.3557 7.64327L18.7431 3.22559L14.528 3.24116Z" fill="#03020D"/>
</g>
<defs>
<linearGradient id="paint0_linear_1031_1927" x1="31.75" y1="13" x2="42.8529" y2="11.082" gradientUnits="userSpaceOnUse">
<stop stop-color="#00B0AD"/>
<stop offset="1" stop-color="#6DC9C9"/>
</linearGradient>
<linearGradient id="paint1_linear_1031_1927" x1="6" y1="16.5" x2="24.7896" y2="13.2542" gradientUnits="userSpaceOnUse">
<stop stop-color="#6DC9C9"/>
<stop offset="1" stop-color="#00B0AD"/>
</linearGradient>
<clipPath id="clip0_1031_1927">
<rect width="48" height="48" fill="white"/>
</clipPath>
</defs>
</svg>
