<svg width="48" height="48" viewBox="0 0 48 48" fill="none" xmlns="http://www.w3.org/2000/svg">
  <defs>
    <clipPath id="clip0_1031_1986">
      <rect width="48" height="48" fill="white" />
    </clipPath>
  </defs>
  <g clip-path="url(#clip0_1031_1986)">
    <path fill-rule="evenodd" clip-rule="evenodd"
      d="M0 14.2374C0 11.3388 2.33246 8.98494 5.22289 8.95034C9.69933 3.49437 16.4296 -0.000488281 24.0352 -0.000488281C29.5556 -0.000488281 34.6563 1.88754 38.7215 5.04644C38.9436 5.01798 39.1701 5.00331 39.4 5.00331C42.3202 5.00331 44.6875 7.3706 44.6875 10.2908C44.6875 10.727 44.6347 11.1509 44.5351 11.5563C45.9287 13.8539 46.9341 16.3504 47.4865 19.0431L47.4887 19.0539L47.4907 19.0649C47.7774 20.6417 48 22.258 48 23.9638C48 37.196 37.2675 47.9286 24.0352 47.9286C10.809 47.9286 0 37.2724 0 23.9638C0 21.6537 0.31481 19.3989 0.94832 17.2597C0.350573 16.4031 0 15.3612 0 14.2374ZM43.4658 13.6713C42.4959 14.8366 41.0346 15.5783 39.4 15.5783C36.4798 15.5783 34.1125 13.211 34.1125 10.2908C34.1125 8.44105 35.0623 6.81315 36.5009 5.86823C32.9484 3.41458 28.6516 1.9759 24.0352 1.9759C23.0744 1.9759 22.1287 2.03659 21.2014 2.15436C20.9773 3.57501 20.8651 5.00077 20.8651 6.48482C20.8651 9.14759 21.2018 11.6903 21.872 14.1162C22.0274 14.1025 22.1848 14.0955 22.3437 14.0955C24.3724 14.0955 26.1343 15.238 27.0209 16.9147C29.4611 16.4441 32.0076 16.2098 34.6073 16.2098C38.2239 16.2098 41.7347 16.6942 45.0919 17.617C44.681 16.2434 44.1356 14.9283 43.4658 13.6713ZM45.6189 19.8282C42.1159 18.7538 38.4257 18.1862 34.6073 18.1862C32.199 18.1862 29.8484 18.3968 27.6012 18.8162C27.621 19.0024 27.6312 19.1915 27.6312 19.383C27.6312 20.8549 27.0298 22.1863 26.0592 23.145C27.7891 25.5645 29.8456 27.7272 32.1446 29.5134C33.0265 28.836 34.1457 28.406 35.368 28.4026C36.5353 28.3714 37.6057 28.7194 38.4744 29.3318C40.7474 28.0108 43.2369 26.9615 45.8982 26.3252C45.9811 25.5494 46.0236 24.7616 46.0236 23.9638C46.0236 22.5655 45.8577 21.2098 45.6189 19.8282ZM45.5649 28.4516C43.5573 29.0058 41.6515 29.8149 39.8716 30.8102C40.3788 31.621 40.6701 32.585 40.6701 33.6196C40.6701 33.7832 40.6625 33.9454 40.6475 34.1058C41.4427 34.3901 42.2807 34.6081 43.16 34.8194C44.2725 32.8642 45.0938 30.7219 45.5649 28.4516ZM30.8126 30.9808C28.3892 29.0787 26.2311 26.7923 24.4183 24.2479C23.7814 24.5199 23.0801 24.6705 22.3437 24.6705C20.3861 24.6705 18.677 23.6066 17.763 22.0256C16.4034 22.7062 15.089 23.4624 13.8255 24.2901C14.5084 25.9752 15.036 27.736 15.3878 29.5558C17.8257 30.0265 19.667 32.1719 19.667 34.7472C19.667 37.2142 17.9775 39.2866 15.6924 39.8704C15.4873 41.2725 15.1485 42.626 14.7608 43.9228C17.583 45.2261 20.7262 45.9522 24.0352 45.9522C24.6781 45.9522 25.3144 45.9246 25.9433 45.8705C26.8789 42.3244 28.5303 39.018 30.7534 36.1945C30.3334 35.4346 30.0951 34.5574 30.0951 33.6196C30.0951 32.6463 30.343 31.7483 30.8126 30.9808ZM42.0444 36.5802C38.8041 41.1962 33.8344 44.5106 28.0778 45.5811C28.9324 42.7297 30.2891 40.0657 32.0544 37.7427C32.9602 38.4725 34.1161 38.9071 35.3826 38.9071C37.4563 38.9071 39.2252 37.7102 40.0947 36.0065C40.7371 36.2307 41.3939 36.415 42.0444 36.5802ZM12.9732 42.9959C9.13136 40.7755 6.0207 37.4316 4.10074 33.4047C6.38676 30.3579 9.10317 27.6828 12.1574 25.4461C12.6692 26.7717 13.0776 28.1447 13.3719 29.5556C10.9336 30.026 9.09199 32.1716 9.09199 34.7472C9.09199 37.4281 11.0871 39.643 13.6736 39.988C13.5041 41.0031 13.2593 42.0044 12.9732 42.9959ZM17.1105 20.1429C15.6962 20.8399 14.3275 21.6146 13.0103 22.4629C12.0909 20.5794 10.9735 18.8054 9.68994 17.1669C10.2491 16.3283 10.575 15.3209 10.575 14.2374C10.575 12.0827 9.28609 10.229 7.43724 9.40525C10.4992 6.00318 14.5513 3.54424 19.1517 2.51325C18.9764 3.8166 18.8887 5.12961 18.8887 6.48482C18.8887 9.32184 19.2484 12.0468 19.9709 14.6565C18.2423 15.5261 17.0562 17.316 17.0562 19.383C17.0562 19.641 17.0747 19.8947 17.1105 20.1429ZM5.28749 19.5249C6.40345 19.5249 7.43867 19.1792 8.29188 18.589C9.48321 20.1386 10.5146 21.8123 11.3573 23.5855C8.31075 25.765 5.57411 28.3561 3.22944 31.3007C2.41815 29.0092 1.97638 26.5405 1.97638 23.9638C1.97638 22.1806 2.17973 20.4433 2.58414 18.7825C3.37518 19.2541 4.2997 19.5249 5.28749 19.5249ZM5.28749 10.9263C3.45882 10.9263 1.97638 12.4088 1.97638 14.2374C1.97638 16.0661 3.45882 17.5485 5.28749 17.5485C7.11616 17.5485 8.59859 16.0661 8.59859 14.2374C8.59859 12.4088 7.11616 10.9263 5.28749 10.9263ZM36.0889 10.2908C36.0889 8.46213 37.5713 6.9797 39.4 6.9797C41.2287 6.9797 42.7111 8.46213 42.7111 10.2908C42.7111 12.1195 41.2287 13.6019 39.4 13.6019C37.5713 13.6019 36.0889 12.1195 36.0889 10.2908ZM22.3437 16.0719C20.5151 16.0719 19.0326 17.5543 19.0326 19.383C19.0326 21.2116 20.5151 22.6941 22.3437 22.6941C24.1724 22.6941 25.6548 21.2116 25.6548 19.383C25.6548 17.5543 24.1724 16.0719 22.3437 16.0719ZM11.0684 34.7472C11.0684 32.9186 12.5508 31.4361 14.3795 31.4361C16.2081 31.4361 17.6906 32.9186 17.6906 34.7472C17.6906 36.5759 16.2081 38.0583 14.3795 38.0583C12.5508 38.0583 11.0684 36.5759 11.0684 34.7472ZM38.6937 33.6196C38.6937 31.7633 37.2342 30.3249 35.4117 30.3785L35.3971 30.3789H35.3826C34.3581 30.3789 33.428 30.8663 32.8244 31.5796L32.8147 31.5912L32.8046 31.6024C32.3427 32.1156 32.0715 32.7925 32.0715 33.6196C32.0715 35.4701 33.532 36.9307 35.3826 36.9307C37.2227 36.9307 38.6937 35.4102 38.6937 33.6196Z"
      fill="#03020D" />
  </g>
</svg>