<svg width="48" height="48" viewBox="0 0 48 48" fill="none" xmlns="http://www.w3.org/2000/svg">
<path fill-rule="evenodd" clip-rule="evenodd" d="M37.5509 35.899C37.5509 37.1684 36.507 38.1886 35.2319 38.1886H30.2043C28.9181 38.1886 27.8853 37.1575 27.8853 35.899V31.2164C27.8853 29.9462 28.9283 28.9268 30.2043 28.9268H35.2319C36.5181 28.9268 37.5509 29.9571 37.5509 31.2164V35.899ZM44.1707 19.4794H29.8039C28.6546 19.3443 27.7799 18.3442 27.7799 17.1687V2.28883C27.7799 1.02024 26.7359 0 25.4608 0H20.4324C19.147 0 18.1142 1.02947 18.1142 2.28883V17.3248C18.0513 18.4592 17.1017 19.3754 15.9634 19.4794H12.2008C11.094 19.3443 10.2396 18.4281 10.1665 17.3248V2.28883C10.1665 1.02024 9.12346 0 7.84745 0H2.81993C1.53373 0 0.5 1.02947 0.5 2.28883V21.7682V45.7103C0.5 46.9806 1.54393 48 2.81993 48H7.84745H20.4324H25.4608H44.1818C45.468 48 46.5 46.9697 46.5 45.7103V21.7682C46.4898 20.4988 45.4569 19.4794 44.1707 19.4794Z" fill="#FF6600"/>
</svg>
