<svg width="48" height="48" viewBox="0 0 48 48" fill="none" xmlns="http://www.w3.org/2000/svg">
  <defs>
    <linearGradient id="paint0_linear_3013_13" x1="0.0372013" y1="3" x2="0.0372013" y2="45.3277"
      gradientUnits="userSpaceOnUse">
      <stop stop-color="#4387FD" />
      <stop offset="1" stop-color="#4683EA" />
    </linearGradient>
  </defs>
  <path
    d="M10.4216 43.2541L0.577713 26.3361C-0.192571 25.0122 -0.192571 23.3812 0.577713 22.0574L10.4216 5.13935C11.1919 3.81552 12.6155 3 14.1561 3H33.8439C35.3845 3 36.8081 3.81552 37.5784 5.13935L47.4223 22.0574C48.1926 23.3812 48.1926 25.0122 47.4223 26.3361L37.5784 43.2541C36.8081 44.5779 35.3845 45.3935 33.8439 45.3935H14.1561C12.6155 45.3935 11.192 44.578 10.4216 43.2541Z"
    fill="url(#paint0_linear_3013_13)" />
  <path opacity="0.07"
    d="M45.739 29.1555L30.2635 13.623L24.2325 15.0649L18.093 13.654L21.1472 16.7083L16.0186 22.0377L16.9488 22.9679L16.0595 25.1555L17.92 27.016L16.0232 28.9486L20.7441 33.6696L18.0997 34.8352L28.6153 45.3934H35.175C35.8883 45.3934 36.5477 45.0135 36.9054 44.3963L45.739 29.1555Z"
    fill="black" />
  <circle cx="24.186" cy="26.247" r="1.33005" fill="white" />
  <path
    d="M30.2418 27.7784L25.1975 30.7328V28.5881H23.1747V30.7328L18.1209 27.7784V26.4424H16.0186V28.9359L22.1866 32.4775L18.0951 34.8397L20.0727 35.9814H20.1275L24.1861 33.6382L28.2447 35.9814H28.2995L30.277 34.8397L26.1855 32.4775L32.3534 28.9359V26.4424H30.2418V27.7784Z"
    fill="white" />
  <circle cx="31.3144" cy="24.2519" r="1.33005" fill="white" />
  <circle cx="17.0578" cy="24.2519" r="1.33005" fill="white" />
  <circle cx="24.186" cy="22.2568" r="1.33005" fill="white" />
  <path
    d="M26.1911 16.0056L30.277 13.6466L28.2995 12.5049H28.2447L24.1862 14.8481L24.1861 14.8481L24.186 14.8481L20.1275 12.5049H20.0727L18.0951 13.6466L22.1811 16.0056L16.0186 19.544V22.0375H18.1209V20.7015L23.1747 17.7471V19.9173H25.1975V17.7471L30.2418 20.7015V22.0375H32.3534V19.544L26.1911 16.0056Z"
    fill="white" />
</svg>