<svg width="48" height="48" viewBox="0 0 48 48" fill="none" xmlns="http://www.w3.org/2000/svg">
<g clip-path="url(#clip0_1031_1891)">
<rect width="48" height="48" rx="4" fill="#3367C6"/>
<path d="M29.5623 7H18.4377L9.43857 13.5381L6 24.1184L9.43857 34.6988L18.4377 41.2369H29.5623L38.5614 34.6988L42 24.1184L38.5614 13.5381L29.5623 7Z" fill="#FEFEFE"/>
<path d="M26.458 16.5537H21.5424L17.5647 19.4432L16.0447 24.1189L17.5647 28.7946L21.5424 31.6841H26.458L30.4357 28.7946L31.9541 24.1189L30.4357 19.4432L26.458 16.5537Z" fill="#91C9FD"/>
<path d="M31.5386 28.8607L32.8369 24.6465L40.1821 24.8946L37.645 33.1246L31.5386 28.8607Z" fill="#91C9FD"/>
<path d="M27.4634 32.2651L31.0227 29.665L36.7619 34.2548L29.807 39.3357L27.4634 32.2651Z" fill="#196FC5"/>
<path d="M21.7077 32.666H26.1172L28.044 39.7582H19.4319L21.7077 32.666Z" fill="#56ACFC"/>
<path d="M16.438 28.8607L15.1397 24.6465L7.79443 24.8946L10.3316 33.1246L16.438 28.8607Z" fill="#91C9FD"/>
<path d="M20.5016 32.2409L16.9241 29.6641L11.2163 34.2951L18.2059 39.3265L20.5016 32.2409Z" fill="#196FC5"/>
<path d="M26.0292 15.5707H21.6197L19.6929 8.47852H28.3067L26.0292 15.5707Z" fill="#91C9FD"/>
<path d="M30.6622 18.4505L27.1492 15.7876L29.8964 8.97168L36.7603 14.1734L30.6622 18.4505Z" fill="#196FC5"/>
<path d="M32.9529 23.3724L31.6992 19.1449L37.9512 15.2812L40.399 23.5378L32.9529 23.3724Z" fill="#56ACFC"/>
<path d="M17.3144 18.4505L20.8274 15.7876L18.0819 8.97168L11.2163 14.1734L17.3144 18.4505Z" fill="#196FC5"/>
<path d="M15.0237 23.3724L16.2774 19.1449L10.0271 15.2812L7.57764 23.5378L15.0237 23.3724Z" fill="#56ACFC"/>
</g>
<defs>
<clipPath id="clip0_1031_1891">
<rect width="48" height="48" fill="white"/>
</clipPath>
</defs>
</svg>
