<svg width="48" height="48" viewBox="0 0 48 48" fill="none" xmlns="http://www.w3.org/2000/svg">
<g clip-path="url(#clip0_1031_1931)">
<path d="M42.6213 11H47.2929C47.7383 11 47.9614 11.5386 47.6464 11.8536L36.0607 23.4393C35.4749 24.0251 35.4749 24.9749 36.0607 25.5607L47.6464 37.1464C47.9614 37.4614 47.7383 38 47.2929 38H42.6213C42.2235 38 41.842 37.842 41.5607 37.5607L29.5607 25.5607C28.9749 24.9749 28.9749 24.0251 29.5607 23.4393L41.5607 11.4393C41.842 11.158 42.2235 11 42.6213 11Z" fill="#F07D3C"/>
<path d="M5.37868 11H0.707107C0.261654 11 0.0385724 11.5386 0.353555 11.8536L11.9393 23.4393C12.5251 24.0251 12.5251 24.9749 11.9393 25.5607L0.353553 37.1464C0.038571 37.4614 0.261654 38 0.707107 38H5.37868C5.7765 38 6.15804 37.842 6.43934 37.5607L18.4393 25.5607C19.0251 24.9749 19.0251 24.0251 18.4393 23.4393L6.43934 11.4393C6.15804 11.158 5.7765 11 5.37868 11Z" fill="#F07D3C"/>
<rect x="21" y="7" width="6" height="34" rx="1.5" fill="#F07D3C"/>
</g>
<defs>
<clipPath id="clip0_1031_1931">
<rect width="48" height="48" fill="white"/>
</clipPath>
</defs>
</svg>
