<svg width="48" height="48" viewBox="0 0 48 48" fill="none" xmlns="http://www.w3.org/2000/svg">
<path d="M38.1528 10.9147C38.1735 11.277 37.6719 11.1818 37.6719 11.5474C37.6719 22.1842 25.1438 38.4123 13 41.5478V42C29.1325 40.4769 47.5937 23.2929 48 7L38.1517 10.915L38.1528 10.9147Z" fill="url(#paint0_linear_1031_1929)"/>
<path d="M33.034 12.4222C33.0541 12.7836 33.0657 13.1462 33.0657 13.5114C33.0657 24.1228 24.942 38.4211 13 41.5489V42C28.6245 41.232 41 24.6524 41 11.9422C41 11.2885 40.9661 10.6405 40.9018 10L33.0345 12.4217L33.034 12.4222Z" fill="#E96D1F"/>
<path d="M40.8873 10.0011L38.8787 10.7415C38.8895 11.0032 38.8961 11.3546 38.8961 11.6188C38.8961 22.831 29.0679 38.3319 15.8827 40.7572C15.027 41.0531 13.895 41.3221 13 41.5544V42C30.2073 40.4876 42.2967 22.4513 40.8886 10L40.8873 10.0011Z" fill="#D9541E"/>
<path d="M10.1285 10.9147C10.1072 11.277 10.6231 11.1818 10.6231 11.5474C10.6231 22.1842 23.5092 38.4123 36 41.5478V42C19.4066 40.4769 0.417929 23.2929 0 7L10.1297 10.915L10.1285 10.9147Z" fill="url(#paint1_linear_1031_1929)"/>
<path d="M15.2505 12.4222C15.2297 12.7836 15.2176 13.1462 15.2176 13.5114C15.2176 24.1228 23.6315 38.4211 36 41.5489V42C19.8174 41.232 7 24.6524 7 11.9422C7 11.2885 7.03508 10.6405 7.10168 10L15.25 12.4217L15.2505 12.4222Z" fill="#A0CE67"/>
<path d="M7.11674 10.0011L9.19706 10.7415C9.18586 11.0032 9.17903 11.3546 9.17903 11.6188C9.17903 22.831 19.3583 38.3319 33.0143 40.7572C33.9006 41.0531 35.073 41.3221 36 41.5544V42C18.1782 40.4876 5.65694 22.4513 7.11538 10L7.11674 10.0011Z" fill="#439639"/>
<defs>
<linearGradient id="paint0_linear_1031_1929" x1="30.5105" y1="41.9997" x2="30.5105" y2="6.99972" gradientUnits="userSpaceOnUse">
<stop offset="0.011" stop-color="#1B3967"/>
<stop offset="0.467" stop-color="#13B5EA"/>
<stop offset="0.9945" stop-color="#002B5C"/>
</linearGradient>
<linearGradient id="paint1_linear_1031_1929" x1="17.9892" y1="41.9997" x2="17.9892" y2="6.99972" gradientUnits="userSpaceOnUse">
<stop offset="0.011" stop-color="#1B3967"/>
<stop offset="0.467" stop-color="#13B5EA"/>
<stop offset="0.9945" stop-color="#002B5C"/>
</linearGradient>
</defs>
</svg>
