<svg width="48" height="48" viewBox="0 0 48 48" fill="none" xmlns="http://www.w3.org/2000/svg">
<path d="M48 23.9999L36 44.7845L12 44.7845L6.58619e-06 23.9999L12 3.21527L36 3.21527L48 23.9999Z" fill="#0072C6"/>
<path fill-rule="evenodd" clip-rule="evenodd" d="M20.8663 27.3904C20.5628 27.8936 20.3597 28.6195 20.3597 29.4468C20.3597 30.274 20.5628 30.9999 20.8663 31.5031C21.1753 32.0154 21.5363 32.2261 21.8463 32.2261C22.1563 32.2261 22.5173 32.0154 22.8263 31.5031C23.1297 30.9999 23.3329 30.274 23.3329 29.4468C23.3329 28.6195 23.1297 27.8936 22.8263 27.3904C22.5173 26.8781 22.1563 26.6674 21.8463 26.6674C21.5363 26.6674 21.1753 26.8781 20.8663 27.3904ZM20.0488 26.8974C20.4507 26.2311 21.0716 25.7128 21.8463 25.7128C22.621 25.7128 23.2419 26.2311 23.6438 26.8974C24.0511 27.5729 24.2876 28.4754 24.2876 29.4468C24.2876 30.4181 24.0511 31.3206 23.6438 31.9961C23.2419 32.6624 22.621 33.1808 21.8463 33.1808C21.0716 33.1808 20.4507 32.6624 20.0488 31.9961C19.6415 31.3206 19.405 30.4181 19.405 29.4468C19.405 28.4754 19.6415 27.5729 20.0488 26.8974Z" fill="white"/>
<path fill-rule="evenodd" clip-rule="evenodd" d="M28.9067 25.2703L28.0929 25.2703L27.9701 25.0961L27.7229 25.2703H27.7067V25.2817L27.4797 25.4417L26.1745 26.3615L25.6841 26.7072L26.3754 27.6881L26.8658 27.3424L27.7067 26.7498L27.7067 31.7034H26.1721V32.7034H27.7067V32.7035H28.9067V32.7034H30.6345V31.7034H28.9067L28.9067 25.2703Z" fill="white"/>
<path fill-rule="evenodd" clip-rule="evenodd" d="M27.1559 16.7996C26.8524 17.3028 26.6492 18.0287 26.6492 18.8559C26.6492 19.6832 26.8524 20.4091 27.1559 20.9123C27.4648 21.4246 27.8258 21.6353 28.1358 21.6353C28.4458 21.6353 28.8069 21.4246 29.1158 20.9123C29.4193 20.4091 29.6225 19.6832 29.6225 18.8559C29.6225 18.0287 29.4193 17.3028 29.1158 16.7996C28.8069 16.2873 28.4458 16.0766 28.1358 16.0766C27.8258 16.0766 27.4648 16.2873 27.1559 16.7996ZM26.3384 16.3066C26.7402 15.6403 27.3612 15.1219 28.1358 15.1219C28.9105 15.1219 29.5315 15.6403 29.9333 16.3066C30.3407 16.9821 30.5771 17.8846 30.5771 18.8559C30.5771 19.8273 30.3407 20.7298 29.9333 21.4053C29.5315 22.0716 28.9105 22.5899 28.1358 22.5899C27.3612 22.5899 26.7402 22.0716 26.3384 21.4053C25.931 20.7298 25.6946 19.8273 25.6946 18.8559C25.6946 17.8846 25.931 16.9821 26.3384 16.3066Z" fill="white"/>
<path fill-rule="evenodd" clip-rule="evenodd" d="M22.928 15.1394L22.1142 15.1394L21.9914 14.9652L21.7441 15.1394H21.728V15.1508L21.5009 15.3109L20.1958 16.2307L19.7053 16.5763L20.3966 17.5572L20.887 17.2116L21.728 16.6189L21.728 21.5725H20.1934V22.5725H21.728V22.5726H22.928V22.5725H24.6558V21.5725H22.928L22.928 15.1394Z" fill="white"/>
<path fill-rule="evenodd" clip-rule="evenodd" d="M33.8179 11.3138V11.2396H17.1718C14.5358 11.2396 12.3984 13.3765 12.3984 16.0128V31.8238C12.3984 34.46 14.5354 36.597 17.1716 36.597H32.5187C35.1549 36.597 37.2919 34.46 37.2919 31.8238V14.9709L37.297 14.9687L33.8291 11.2459L33.8179 11.3138ZM32.2268 12.8307V16.5605H35.7008V31.8238C35.7008 33.5813 34.2761 35.0059 32.5187 35.0059H17.1716C15.4142 35.0059 13.9895 33.5813 13.9895 31.8238V16.0128C13.9895 14.2553 15.4144 12.8307 17.1718 12.8307H32.2268Z" fill="white"/>
</svg>
