<svg viewBox="0 0 48 48" fill="none" xmlns="http://www.w3.org/2000/svg" width="48" height="48"><path d="M15.46 28.792a1.5 1.5 0 0 1 -0.176 -0.484c0.034 0.17 0.094 0.333 0.176 0.484m0.217 0.267c0.083 0.083 0.177 0.154 0.281 0.206l7.08 3.962 -7.08 -3.962a1.087 1.087 0 0 1 -0.28 -0.206z" fill="#083042"/><path d="M24.128 38.238h-0.053a3.113 3.113 0 0 1 -1.505 -0.381l-10.568 -5.906c-0.624 -0.35 -1.007 -0.998 -1.007 -1.698V18.236c0 -0.515 0.093 -1.009 0.311 -1.441L3.043 12.196c-0.342 0.72 -0.519 1.533 -0.509 2.387v19.848a3.255 3.255 0 0 0 1.672 2.809l17.43 9.755c0.769 0.432 1.63 0.638 2.481 0.638v-0.01c0.021 -1.245 0.011 -6.236 0.011 -9.384z" fill="#083042"/><path d="m32.422 18.975 -0.063 -0.092c-0.052 -0.072 -0.103 -0.134 -0.155 -0.206 0.052 0.061 0.103 0.134 0.155 0.205a0.375 0.375 0 0 1 0.063 0.093M23.723 14.16c0.053 0 0.094 -0.01 0.146 -0.01 -0.052 0.01 -0.104 0.01 -0.146 0.01" fill="#3ddb85"/><path d="M11.296 16.784a2.7 2.7 0 0 1 1.059 -1.152l9.945 -5.814a3.026 3.026 0 0 1 3.011 -0.031l10.049 5.628a3.375 3.375 0 0 1 1.132 1.029L44.621 11.64a5.588 5.588 0 0 0 -1.858 -1.688L26.162 0.661a4.995 4.995 0 0 0 -4.962 0.051L4.787 10.302a4.387 4.387 0 0 0 -1.744 1.893l8.253 4.588z" fill="#3ddc84"/><path d="M23.309 14.244c0.021 -0.011 0.043 -0.011 0.064 -0.021 -0.021 0.011 -0.042 0.011 -0.064 0.021m-7.83 4.856c0.021 -0.041 0.042 -0.083 0.063 -0.112 -0.021 0.041 -0.042 0.071 -0.063 0.112l-0.031 0.092z" fill="#3ddb85"/><path d="M44.611 11.64 36.482 16.444c0.311 0.453 0.498 0.987 0.508 1.533v11.441a2.955 2.955 0 0 1 -1.474 2.593L25.571 37.826a3.037 3.037 0 0 1 -1.443 0.411c0.011 3.138 0.011 8.129 -0.01 9.374v0.01a5.074 5.074 0 0 0 2.481 -0.679l16.413 -9.6c1.526 -0.895 2.461 -2.521 2.44 -4.281V14.181c-0.011 -0.916 -0.322 -1.79 -0.841 -2.541" fill="#4285f4"/><path d="M32.611 28.195c-0.011 0.021 -0.011 0.042 -0.021 0.063a0.15 0.15 0 0 0 0.021 -0.063m-0.104 -9.085c-0.021 -0.052 -0.053 -0.093 -0.084 -0.144 0.031 0.051 0.062 0.103 0.083 0.144zM25.053 33.216 31.718 29.317c0.042 -0.02 0.073 -0.052 0.115 -0.072 -0.042 0.02 -0.073 0.052 -0.115 0.072l-6.665 3.9zM32.527 28.432c-0.021 0.052 -0.052 0.103 -0.074 0.155 0.021 -0.062 0.042 -0.114 0.074 -0.155" fill="#4285f4"/><path d="M15.449 19.192a2.063 2.063 0 0 0 -0.156 0.628c-0.011 0.082 -0.011 0.164 -0.011 0.257v8.056c0 0.061 0 0.113 0.011 0.175 0.021 0.174 0.083 0.339 0.176 0.484 0.063 0.103 0.135 0.184 0.208 0.267 0.083 0.083 0.176 0.154 0.28 0.206l7.081 3.961a2.063 2.063 0 0 0 1.006 0.257h0.073a1.935 1.935 0 0 0 0.934 -0.277L31.718 29.306c0.042 -0.021 0.073 -0.052 0.114 -0.072 0.073 -0.051 0.146 -0.103 0.208 -0.165q0.147 -0.133 0.27 -0.288c0.052 -0.072 0.104 -0.144 0.146 -0.216 0.031 -0.051 0.052 -0.103 0.072 -0.154 0.021 -0.051 0.053 -0.113 0.073 -0.174 0.01 -0.021 0.01 -0.042 0.021 -0.062a2.025 2.025 0 0 0 0.093 -0.618V19.892c0 -0.144 -0.021 -0.277 -0.052 -0.411 -0.021 -0.093 -0.053 -0.176 -0.083 -0.258l-0.062 -0.123c-0.021 -0.052 -0.053 -0.093 -0.083 -0.144l-0.062 -0.092c-0.052 -0.072 -0.104 -0.134 -0.156 -0.206a2.1 2.1 0 0 0 -0.602 -0.484L24.876 14.398a2.25 2.25 0 0 0 -0.364 -0.165 2.25 2.25 0 0 0 -0.519 -0.092h-0.135c-0.051 0 -0.093 0 -0.145 0.01a2.138 2.138 0 0 0 -0.353 0.062c-0.021 0.01 -0.041 0.01 -0.062 0.021 -0.156 0.041 -0.301 0.113 -0.447 0.195l-6.665 3.9a1.706 1.706 0 0 0 -0.499 0.443c-0.051 0.072 -0.104 0.144 -0.145 0.216 -0.021 0.041 -0.041 0.072 -0.062 0.113l-0.031 0.092Z" fill="#d6f0ff"/><path d="M24.117 33.483h-0.073a2.063 2.063 0 0 1 -1.007 -0.257L15.957 29.265a1.388 1.388 0 0 1 -0.28 -0.206 1.237 1.237 0 0 1 -0.208 -0.268 1.5 1.5 0 0 1 -0.176 -0.484c-0.011 -0.061 -0.011 -0.113 -0.011 -0.174V20.076c0 -0.082 0 -0.174 0.011 -0.257 0.02 -0.216 0.072 -0.427 0.156 -0.628L13.538 18.029l-2.243 -1.245c-0.208 0.432 -0.311 0.925 -0.311 1.44v12.018a1.995 1.995 0 0 0 1.007 1.698l10.559 5.916a3 3 0 0 0 1.505 0.381h0.053c0 -1.533 -0.011 -2.624 -0.011 -2.624l0.021 -2.13z" fill="#083042"/><path d="M24.117 33.483h-0.073a2.063 2.063 0 0 1 -1.007 -0.257L15.957 29.265a1.388 1.388 0 0 1 -0.28 -0.206 1.237 1.237 0 0 1 -0.208 -0.268 1.5 1.5 0 0 1 -0.176 -0.484c-0.011 -0.061 -0.011 -0.113 -0.011 -0.174V20.076c0 -0.082 0 -0.174 0.011 -0.257 0.02 -0.216 0.072 -0.427 0.156 -0.628L13.538 18.029l-2.243 -1.245c-0.208 0.432 -0.311 0.925 -0.311 1.44v12.018a1.995 1.995 0 0 0 1.007 1.698l10.559 5.916a3 3 0 0 0 1.505 0.381h0.053c0 -1.533 -0.011 -2.624 -0.011 -2.624l0.021 -2.13z" fill="#041619"/><path d="m35.35 15.416 -10.05 -5.629a3.026 3.026 0 0 0 -3.011 0.031l-9.945 5.814a2.644 2.644 0 0 0 -1.06 1.152l2.254 1.245 1.91 1.162 0.031 -0.092c0.021 -0.042 0.042 -0.083 0.062 -0.113 0.042 -0.072 0.094 -0.144 0.146 -0.216 0.135 -0.175 0.301 -0.319 0.499 -0.443l6.664 -3.9q0.214 -0.12 0.447 -0.195c0.021 -0.01 0.042 -0.01 0.062 -0.021q0.174 -0.047 0.353 -0.061c0.052 0 0.093 -0.011 0.146 -0.011h0.135c0.176 0.011 0.35 0.042 0.519 0.092q0.192 0.061 0.363 0.165l6.737 3.776a2.25 2.25 0 0 1 0.603 0.483c0.051 0.061 0.104 0.134 0.155 0.206l0.063 0.092 1.723 -1.141 2.336 -1.389c-0.301 -0.402 -0.685 -0.762 -1.142 -1.009z" fill="#3ddb85"/><path d="m35.35 15.416 -10.05 -5.629a3.026 3.026 0 0 0 -3.011 0.031l-9.945 5.814a2.644 2.644 0 0 0 -1.06 1.152l2.254 1.245 1.91 1.162 0.031 -0.092c0.021 -0.042 0.042 -0.083 0.062 -0.113 0.042 -0.072 0.094 -0.144 0.146 -0.216 0.135 -0.175 0.301 -0.319 0.499 -0.443l6.664 -3.9q0.214 -0.12 0.447 -0.195c0.021 -0.01 0.042 -0.01 0.062 -0.021q0.174 -0.047 0.353 -0.061c0.052 0 0.093 -0.011 0.146 -0.011h0.135c0.176 0.011 0.35 0.042 0.519 0.092q0.192 0.061 0.363 0.165l6.737 3.776a2.25 2.25 0 0 1 0.603 0.483c0.051 0.061 0.104 0.134 0.155 0.206l0.063 0.092 1.723 -1.141 2.336 -1.389c-0.301 -0.402 -0.685 -0.762 -1.142 -1.009z" fill="#37bf6e"/><path d="M32.422 18.976c0.031 0.051 0.052 0.092 0.083 0.144l0.063 0.123a1.8 1.8 0 0 1 0.135 0.669V27.578a2.025 2.025 0 0 1 -0.094 0.617c-0.01 0.02 -0.01 0.041 -0.021 0.061a1.275 1.275 0 0 1 -0.072 0.176c-0.021 0.051 -0.053 0.102 -0.073 0.154 -0.041 0.072 -0.093 0.144 -0.146 0.216a2.25 2.25 0 0 1 -0.27 0.288c-0.062 0.062 -0.135 0.113 -0.208 0.165 -0.042 0.02 -0.072 0.051 -0.114 0.072L25.041 33.226a2.19 2.19 0 0 1 -0.934 0.278v2.13s0 1.091 0.011 2.624a2.925 2.925 0 0 0 1.443 -0.411l9.945 -5.814c0.924 -0.545 1.485 -1.533 1.474 -2.592V17.998c-0.01 -0.556 -0.197 -1.081 -0.508 -1.533l-2.337 1.389z" fill="#4285f4"/><path d="M32.422 18.976c0.031 0.051 0.052 0.092 0.083 0.144l0.063 0.123a1.8 1.8 0 0 1 0.135 0.669V27.578a2.025 2.025 0 0 1 -0.094 0.617c-0.01 0.02 -0.01 0.041 -0.021 0.061a1.275 1.275 0 0 1 -0.072 0.176c-0.021 0.051 -0.053 0.102 -0.073 0.154 -0.041 0.072 -0.093 0.144 -0.146 0.216a2.25 2.25 0 0 1 -0.27 0.288c-0.062 0.062 -0.135 0.113 -0.208 0.165 -0.042 0.02 -0.072 0.051 -0.114 0.072L25.041 33.226a2.19 2.19 0 0 1 -0.934 0.278v2.13s0 1.091 0.011 2.624a2.925 2.925 0 0 0 1.443 -0.411l9.945 -5.814c0.924 -0.545 1.485 -1.533 1.474 -2.592V17.998c-0.01 -0.556 -0.197 -1.081 -0.508 -1.533l-2.337 1.389z" fill="#3870b2"/><path d="M23.308 14.243c-0.156 0.041 -0.301 0.113 -0.446 0.195l-6.665 3.9 6.664 -3.899a1.688 1.688 0 0 1 0.446 -0.195z" fill="#d6f0ff"/><path opacity=".1" d="M23.308 14.243c-0.156 0.041 -0.301 0.113 -0.446 0.195l-6.665 3.9 6.664 -3.899a1.688 1.688 0 0 1 0.446 -0.195z" fill="#000"/><path d="M32.205 18.677a2.1 2.1 0 0 0 -0.602 -0.484l-6.738 -3.776 6.738 3.776a2.1 2.1 0 0 1 0.602 0.484" fill="#d6f0ff"/><path opacity=".1" d="M32.205 18.677a2.1 2.1 0 0 0 -0.602 -0.484l-6.738 -3.776 6.738 3.776a2.1 2.1 0 0 1 0.602 0.484" fill="#000"/><path d="M32.568 19.233a2.625 2.625 0 0 1 0.083 0.257c-0.021 -0.082 -0.053 -0.164 -0.083 -0.257z" fill="#d6f0ff"/><path opacity=".1" d="M32.568 19.233a2.625 2.625 0 0 1 0.083 0.257c-0.021 -0.082 -0.053 -0.164 -0.083 -0.257z" fill="#000"/><path d="M32.608 28.195a1.987 1.987 0 0 0 0.093 -0.617V19.912a1.987 1.987 0 0 1 -0.094 0.617z" fill="#d6f0ff"/><path opacity=".1" d="M32.608 28.195a1.987 1.987 0 0 0 0.093 -0.617V19.912a1.987 1.987 0 0 1 -0.094 0.617z" fill="#000"/></svg>
