<svg width="48" height="48" viewBox="0 0 48 48" fill="none" xmlns="http://www.w3.org/2000/svg">
<path fill-rule="evenodd" clip-rule="evenodd" d="M47.6004 10.8589C47.6177 10.9228 47.6266 10.9888 47.6267 11.0551V21.3582C47.6267 21.4904 47.5918 21.6203 47.5256 21.7348C47.4593 21.8492 47.364 21.9441 47.2493 22.0099L38.6017 26.9886V36.8569C38.6017 37.1255 38.459 37.3734 38.2261 37.5086L20.1751 47.9C20.1337 47.9234 20.0887 47.9385 20.0436 47.9544C20.0267 47.9601 20.0107 47.9704 19.9929 47.9751C19.8667 48.0083 19.7341 48.0083 19.6079 47.9751C19.5872 47.9694 19.5684 47.9582 19.5487 47.9507C19.5074 47.9356 19.4642 47.9225 19.4248 47.9L1.37749 37.5086C1.26284 37.4427 1.16758 37.3478 1.10131 37.2334C1.03503 37.119 1.00009 36.9891 1 36.8569V5.94771C1 5.8801 1.00939 5.81437 1.02629 5.75052C1.03193 5.72892 1.04507 5.7092 1.05259 5.6876C1.06667 5.64816 1.07982 5.60778 1.10048 5.57116C1.11456 5.54675 1.13522 5.52703 1.15212 5.50449C1.17372 5.47444 1.19344 5.44345 1.21879 5.41716C1.24039 5.39556 1.26856 5.3796 1.29298 5.36082C1.32021 5.33828 1.34463 5.31387 1.37561 5.29603H1.37655L10.4007 0.100356C10.5149 0.034605 10.6444 0 10.7763 0C10.9081 0 11.0376 0.034605 11.1519 0.100356L20.176 5.29603H20.1779C20.2079 5.31481 20.2333 5.33828 20.2605 5.35988C20.2849 5.37866 20.3122 5.39556 20.3337 5.41622C20.36 5.44345 20.3788 5.47444 20.4014 5.50449C20.4173 5.52703 20.4389 5.54675 20.4521 5.57116C20.4737 5.60872 20.4859 5.64816 20.5009 5.6876C20.5084 5.7092 20.5216 5.72892 20.5272 5.75146C20.5445 5.81545 20.5533 5.88143 20.5535 5.94771V25.2533L28.0733 20.9234V11.0542C28.0733 10.9884 28.0826 10.9218 28.0996 10.8589C28.1061 10.8363 28.1183 10.8166 28.1258 10.795C28.1409 10.7556 28.154 10.7152 28.1747 10.6786C28.1888 10.6541 28.2094 10.6344 28.2254 10.6119C28.2479 10.5818 28.2667 10.5509 28.293 10.5246C28.3146 10.503 28.3418 10.487 28.3662 10.4682C28.3944 10.4457 28.4188 10.4213 28.4489 10.4034H28.4498L37.4749 5.20776C37.5891 5.14191 37.7186 5.10726 37.8505 5.10726C37.9823 5.10726 38.1119 5.14191 38.2261 5.20776L47.2502 10.4034C47.2821 10.4222 47.3065 10.4457 47.3347 10.4673C47.3582 10.4861 47.3854 10.503 47.407 10.5236C47.4333 10.5509 47.4521 10.5818 47.4746 10.6119C47.4915 10.6344 47.5122 10.6541 47.5253 10.6786C47.5469 10.7152 47.5591 10.7556 47.5742 10.795C47.5826 10.8166 47.5948 10.8363 47.6004 10.8589ZM46.1224 20.9234V12.3557L42.9644 14.1736L38.6017 16.6856V25.2533L46.1234 20.9234H46.1224ZM37.0983 36.4221V27.8488L32.8069 30.2997L20.5525 37.2936V45.9477L37.0983 36.4221ZM2.50433 7.24827V36.4221L19.0482 45.9468V37.2945L10.4054 32.4031L10.4025 32.4012L10.3988 32.3993C10.3697 32.3824 10.3453 32.358 10.318 32.3374C10.2945 32.3186 10.2673 32.3036 10.2467 32.2829L10.2448 32.2801C10.2204 32.2566 10.2035 32.2275 10.1828 32.2012C10.164 32.1758 10.1415 32.1543 10.1265 32.128L10.1255 32.1251C10.1086 32.097 10.0983 32.0632 10.0861 32.0312C10.0739 32.0031 10.0579 31.9768 10.0504 31.9467V31.9458C10.041 31.9101 10.0391 31.8725 10.0354 31.8359C10.0316 31.8077 10.0241 31.7796 10.0241 31.7514V31.7495V11.5782L5.6623 9.0653L2.50433 7.24921V7.24827ZM10.7772 1.61971L3.25837 5.94771L10.7753 10.2757L18.2932 5.94678L10.7753 1.61971H10.7772ZM14.6873 28.6301L19.0492 26.1191V7.24827L15.8912 9.06624L11.5284 11.5782V30.449L14.6873 28.6301ZM37.8505 6.72711L30.3326 11.0551L37.8505 15.3831L45.3674 11.0542L37.8505 6.72711ZM37.0983 16.6856L32.7356 14.1736L29.5776 12.3557V20.9234L33.9394 23.4344L37.0983 25.2533V16.6856ZM19.7994 35.993L30.8265 29.6977L36.3386 26.552L28.8264 22.2268L20.1769 27.2065L12.2937 31.7448L19.7994 35.993Z" fill="#FF2D20"/>
</svg>
