<svg width="48" height="48" viewBox="0 0 48 48" fill="none" xmlns="http://www.w3.org/2000/svg">
<g clip-path="url(#clip0_1031_1934)">
<path d="M46.1333 21.3333L47.7334 22.9333C47.9904 23.2292 48.1319 23.608 48.1319 23.9999C48.1319 24.3919 47.9904 24.7707 47.7334 25.0666L36 36.7999C35.8533 36.9311 35.6635 37.0036 35.4667 37.0036C35.2699 37.0036 35.08 36.9311 34.9334 36.7999L33.3334 35.1999C33.2022 35.0532 33.1296 34.8634 33.1296 34.6666C33.1296 34.4698 33.2022 34.2799 33.3334 34.1333L46.1333 21.3333Z" fill="#50E6FF"/>
<path d="M14.6666 34.9333L13.0666 36.5333C12.92 36.6644 12.7301 36.737 12.5333 36.737C12.3365 36.737 12.1467 36.6644 12 36.5333L0.533317 25.0666C0.276294 24.7707 0.134766 24.3919 0.134766 23.9999C0.134766 23.608 0.276294 23.2292 0.533317 22.9333L1.86665 21.3333L14.6666 34.1333C14.6666 34.3999 14.9333 34.6666 14.6666 34.9333Z" fill="#50E6FF"/>
<path d="M12.8 11.4666L14.4 13.0666C14.5312 13.2133 14.6037 13.4032 14.6037 13.5999C14.6037 13.7967 14.5312 13.9866 14.4 14.1333L2.13332 26.3999L0.533317 24.7999C0.276294 24.504 0.134766 24.1252 0.134766 23.7333C0.134766 23.3413 0.276294 22.9625 0.533317 22.6666L12 11.1999C12.1447 11.1825 12.2916 11.1974 12.4299 11.2435C12.5682 11.2896 12.6946 11.3658 12.8 11.4666Z" fill="#1490DF"/>
<path d="M47.4667 24.7998L45.8667 26.3998L33.3334 13.8665C33.2022 13.7198 33.1296 13.5299 33.1296 13.3331C33.1296 13.1364 33.2022 12.9465 33.3334 12.7998L34.9334 11.1998C35.08 11.0686 35.2699 10.9961 35.4667 10.9961C35.6635 10.9961 35.8533 11.0686 36 11.1998L47.4667 22.6665C47.7237 22.9624 47.8652 23.3412 47.8652 23.7331C47.8652 24.1251 47.7237 24.5039 47.4667 24.7998Z" fill="#1490DF"/>
<path d="M22.1333 26.4001H12.5333C12.3959 26.3881 12.2671 26.328 12.1696 26.2305C12.0721 26.1329 12.012 26.0042 12 25.8667V25.6001L23.4667 2.93341C23.7333 2.93341 23.7333 2.66675 24 2.66675H35.2C35.3374 2.67876 35.4662 2.73881 35.5637 2.83635C35.6613 2.93388 35.7213 3.06267 35.7333 3.20008V3.46675L22.4 21.3334H35.4667C35.6041 21.3454 35.7329 21.4055 35.8304 21.503C35.9279 21.6006 35.988 21.7293 36 21.8667C36 22.1334 36 22.1334 35.7333 22.1334L13.8667 44.8001C13.6 44.8001 12.2667 46.1334 12.8 44.2667L22.1333 26.4001Z" fill="url(#paint0_linear_1031_1934)"/>
</g>
<defs>
<linearGradient id="paint0_linear_1031_1934" x1="23.344" y1="44.5041" x2="23.344" y2="1.93075" gradientUnits="userSpaceOnUse">
<stop stop-color="#FEA11B"/>
<stop offset="0.28" stop-color="#FEA51A"/>
<stop offset="0.55" stop-color="#FEB018"/>
<stop offset="0.8" stop-color="#FFC314"/>
<stop offset="1" stop-color="#FFD70F"/>
</linearGradient>
<clipPath id="clip0_1031_1934">
<rect width="48" height="48" fill="white"/>
</clipPath>
</defs>
</svg>
