<svg width="48" height="48" viewBox="0 0 48 48" fill="none" xmlns="http://www.w3.org/2000/svg">
<path fill-rule="evenodd" clip-rule="evenodd" d="M5.74924 24.7295C5.65576 24.7295 5.63239 24.6593 5.67913 24.5892L6.00632 24.005C6.05306 23.9349 6.14654 23.8647 6.24002 23.8647H10.9141C11.0076 23.8647 11.0543 23.9349 11.0543 24.0283L11.0076 24.5892C11.0076 24.6827 10.9141 24.7528 10.844 24.7528L5.74924 24.7295Z" fill="#00ACD7"/>
<path fill-rule="evenodd" clip-rule="evenodd" d="M0.0934817 22.58C0 22.58 -0.0233704 22.5333 0.0233704 22.4632L0.514149 21.8322C0.56089 21.7621 0.677742 21.7153 0.771224 21.7153H11.4281C11.5216 21.7153 11.5684 21.7854 11.545 21.8556L11.358 22.4164C11.3347 22.5099 11.2412 22.5567 11.1477 22.5567L0.0934817 22.58Z" fill="#00ACD7"/>
<path fill-rule="evenodd" clip-rule="evenodd" d="M3.62229 20.4296C3.52881 20.4296 3.50544 20.3829 3.55218 20.3128L4.04296 19.6818C4.0897 19.6117 4.20655 19.5649 4.30003 19.5649H12.6433C12.7368 19.5649 12.7601 19.6351 12.7134 19.7052L12.3161 20.3128C12.2694 20.3829 12.1525 20.453 12.0824 20.453L3.62229 20.4296Z" fill="#00ACD7"/>
<path fill-rule="evenodd" clip-rule="evenodd" d="M30.0075 20.0093C28.5352 20.3832 27.5302 20.6637 26.0813 21.0376C25.7307 21.1311 25.7073 21.1544 25.4035 20.8039C25.053 20.4066 24.7959 20.1495 24.3051 19.9158C22.8328 19.1913 21.4072 19.4017 20.0751 20.2664C18.4859 21.2947 17.6679 22.8137 17.6913 24.7067C17.7146 26.5764 19 28.1188 20.8463 28.3759C22.4355 28.5862 23.7676 28.0254 24.8193 26.8335C25.0296 26.5764 25.2166 26.2959 25.4503 25.9688C24.6089 25.9688 23.5573 25.9688 20.9398 25.9688C20.449 25.9688 20.3321 25.6649 20.4957 25.2676C20.7995 24.5432 21.3604 23.3279 21.6876 22.7203C21.7577 22.58 21.9213 22.3463 22.2719 22.3463H30.7787C30.732 22.9773 30.732 23.6083 30.6385 24.2393C30.3814 25.922 29.7504 27.4645 28.7221 28.8199C27.0394 31.0401 24.8426 32.419 22.0615 32.7929C19.7712 33.0967 17.6445 32.6527 15.7749 31.2505C14.0455 29.9417 13.0639 28.2123 12.8069 26.0622C12.503 23.5149 13.2509 21.2246 14.7933 19.2147C16.4526 17.0412 18.6495 15.6624 21.3371 15.1716C23.5339 14.7743 25.6372 15.0314 27.5302 16.3168C28.7689 17.1347 29.6569 18.2565 30.2412 19.612C30.3814 19.8223 30.2879 19.9392 30.0075 20.0093Z" fill="#00ACD7"/>
<path fill-rule="evenodd" clip-rule="evenodd" d="M37.7433 32.933C35.6165 32.8863 33.6768 32.2787 32.0409 30.8764C30.662 29.6846 29.7973 28.1655 29.5169 26.366C29.0962 23.7251 29.8207 21.3881 31.4099 19.3081C33.1159 17.0645 35.1725 15.896 37.9536 15.4052C40.3374 14.9846 42.5809 15.2183 44.6142 16.5971C46.4604 17.8591 47.6056 19.5652 47.9094 21.8087C48.3067 24.9637 47.3952 27.5345 45.2218 29.7313C43.6793 31.2971 41.7863 32.2787 39.6129 32.7227C38.9819 32.8396 38.3509 32.8629 37.7433 32.933ZM43.3054 23.4915C43.2821 23.1877 43.2821 22.954 43.2353 22.7203C42.8146 20.4066 40.6879 19.0979 38.4678 19.612C36.2943 20.1028 34.8921 21.4817 34.3779 23.6785C33.9573 25.5014 34.8453 27.3477 36.528 28.0955C37.8134 28.6564 39.0988 28.5863 40.3374 27.9553C42.1836 26.9971 43.1886 25.5014 43.3054 23.4915Z" fill="#00ACD7"/>
</svg>
