<svg width="48" height="49" viewBox="0 0 48 49" fill="none" xmlns="http://www.w3.org/2000/svg">
<g clip-path="url(#clip0_3698_16311)">
<path d="M48 0.5H0V48.5H48V0.5Z" fill="url(#paint0_linear_3698_16311)"/>
<path d="M13.8812 14.5802C15.5798 12.8847 17.6806 11.6476 19.9871 10.9844C22.2937 10.3213 24.7307 10.2538 27.0704 10.7882C29.4101 11.3226 31.5762 12.4416 33.366 14.0404C35.1559 15.6392 36.5112 17.6657 37.3052 19.9306L38.5148 19.5082C37.4556 16.4786 35.4806 13.8534 32.8634 11.9959C30.2462 10.1384 27.1162 9.14062 23.9068 9.14062C20.6975 9.14062 17.5675 10.1384 14.9503 11.9959C12.3331 13.8534 10.3581 16.4786 9.29883 19.5082L10.5084 19.9306C11.2091 17.9128 12.3629 16.0825 13.8812 14.5802Z" fill="white"/>
<path d="M33.9204 34.4201C31.2576 37.0792 27.6483 38.5728 23.8852 38.5728C20.122 38.5728 16.5127 37.0792 13.85 34.4201C12.3296 32.9045 11.1759 31.0612 10.4772 29.0313L9.26758 29.4537C10.1277 31.9292 11.6024 34.1456 13.5533 35.8953C15.5043 37.645 17.8676 38.8706 20.4218 39.4571C22.9759 40.0437 25.6371 39.972 28.156 39.2488C30.6749 38.5257 32.9688 37.1747 34.8228 35.3225C36.4959 33.6608 37.7619 31.6347 38.522 29.4025L37.3124 28.9929C36.6133 31.0384 35.4527 32.8954 33.9204 34.4201Z" fill="white"/>
<path d="M12.8961 24.4746C12.8974 23.6096 12.5987 22.7709 12.0509 22.1016C11.503 21.4322 10.74 20.9736 9.8918 20.8038C9.04363 20.6341 8.16286 20.7639 7.39964 21.1709C6.63642 21.578 6.03801 22.2371 5.70643 23.036C5.37484 23.8349 5.33062 24.7241 5.58129 25.552C5.83196 26.3798 6.36202 27.0951 7.08108 27.5759C7.80014 28.0567 8.66369 28.2731 9.52452 28.1884C10.3853 28.1037 11.1901 27.7231 11.8017 27.1114C12.1497 26.7663 12.4256 26.3555 12.6135 25.9028C12.8014 25.4501 12.8974 24.9647 12.8961 24.4746ZM10.8801 26.209C10.4128 26.6524 9.79311 26.8996 9.1489 26.8996C8.50468 26.8996 7.88503 26.6524 7.4177 26.209C7.077 25.8662 6.84522 25.4304 6.75151 24.9563C6.65779 24.4822 6.70631 23.991 6.89097 23.5443C7.07564 23.0977 7.3882 22.7157 7.78937 22.4462C8.19054 22.1767 8.66242 22.0318 9.1457 22.0298C9.79561 22.0313 10.4188 22.2888 10.8801 22.7466C11.3385 23.2061 11.596 23.8287 11.596 24.4778C11.596 25.1269 11.3385 25.7495 10.8801 26.209Z" fill="white"/>
<path d="M41.4721 21.8825C40.9512 21.3615 40.2875 21.0067 39.565 20.8629C38.8424 20.7191 38.0935 20.7928 37.4128 21.0747C36.7322 21.3566 36.1504 21.8341 35.7411 22.4466C35.3318 23.0592 35.1133 23.7793 35.1133 24.5161C35.1133 25.2528 35.3318 25.973 35.7411 26.5855C36.1504 27.1981 36.7322 27.6755 37.4128 27.9574C38.0935 28.2393 38.8424 28.313 39.565 28.1692C40.2875 28.0255 40.9512 27.6706 41.4721 27.1497C42.1705 26.4511 42.5629 25.5038 42.5629 24.5161C42.5629 23.5283 42.1705 22.581 41.4721 21.8825ZM40.5633 26.2409C40.1049 26.6989 39.4834 26.9562 38.8353 26.9562C38.1873 26.9562 37.5658 26.6989 37.1073 26.2409C36.8798 26.0143 36.6992 25.745 36.576 25.4485C36.4528 25.1519 36.3894 24.834 36.3894 24.5129C36.3894 24.1917 36.4528 23.8738 36.576 23.5772C36.6992 23.2807 36.8798 23.0114 37.1073 22.7849C37.3318 22.547 37.6016 22.3565 37.901 22.2248C38.2003 22.093 38.5231 22.0227 38.8501 22.0179C39.1771 22.0132 39.5018 22.0741 39.8048 22.197C40.1079 22.32 40.3832 22.5025 40.6145 22.7337C40.8457 22.965 41.0282 23.2403 41.1512 23.5434C41.2741 23.8464 41.335 24.1711 41.3303 24.4981C41.3255 24.8251 41.2552 25.1479 41.1234 25.4472C40.9917 25.7466 40.8012 26.0164 40.5633 26.2409Z" fill="white"/>
<path d="M18.6754 30.6955C21.2994 28.0715 26.6434 28.0715 29.2674 30.6955C29.3866 30.8137 29.5475 30.8803 29.7154 30.8811C29.8852 30.8811 30.0479 30.8136 30.168 30.6936C30.288 30.5736 30.3554 30.4108 30.3554 30.2411C30.3559 30.1568 30.3398 30.0733 30.3079 29.9954C30.2761 29.9174 30.2291 29.8465 30.1698 29.7867C28.8633 28.3408 28.1742 26.4411 28.2498 24.4939C28.1749 22.5467 28.8639 20.6473 30.1698 19.2011C30.289 19.0811 30.3559 18.9189 30.3559 18.7499C30.3559 18.5808 30.289 18.4186 30.1698 18.2987C30.0499 18.1795 29.8877 18.1125 29.7186 18.1125C29.5495 18.1125 29.3873 18.1795 29.2674 18.2987C26.6434 20.9163 21.2994 20.9163 18.6754 18.2987C18.5555 18.1795 18.3933 18.1125 18.2242 18.1125C18.0551 18.1125 17.8929 18.1795 17.773 18.2987C17.6538 18.4186 17.5869 18.5808 17.5869 18.7499C17.5869 18.9189 17.6538 19.0811 17.773 19.2011C19.0906 20.6423 19.7913 22.5423 19.725 24.4939C19.792 26.4456 19.0912 28.3458 17.773 29.7867C17.7137 29.8465 17.6668 29.9174 17.6349 29.9954C17.6031 30.0733 17.5869 30.1568 17.5874 30.2411C17.5869 30.3253 17.6031 30.4088 17.6349 30.4868C17.6668 30.5647 17.7137 30.6357 17.773 30.6955C17.8929 30.8147 18.0551 30.8816 18.2242 30.8816C18.3933 30.8816 18.5555 30.8147 18.6754 30.6955ZM20.333 20.8651C22.6723 21.7805 25.2706 21.7805 27.6098 20.8651C26.7138 23.2035 26.7138 25.7906 27.6098 28.1291C25.2706 27.2136 22.6723 27.2136 20.333 28.1291C21.2291 25.7906 21.2291 23.2035 20.333 20.8651Z" fill="white"/>
<path d="M31.763 27.1177L33.9198 24.9353C34.039 24.8154 34.1059 24.6532 34.1059 24.4841C34.1059 24.315 34.039 24.1528 33.9198 24.0329L31.7502 21.8633L30.8414 22.7657L31.9358 23.8537H29.043V25.1337H31.9358L30.8542 26.2153L31.763 27.1177Z" fill="white"/>
<path d="M16.2948 27.1305L18.4772 24.9481C18.5964 24.8282 18.6633 24.666 18.6633 24.4969C18.6633 24.3278 18.5964 24.1656 18.4772 24.0457L16.2948 21.8633L15.3924 22.7657L16.4804 23.8537H13.6836V25.1337H16.4804L15.3924 26.2281L16.2948 27.1305Z" fill="white"/>
</g>
<defs>
<linearGradient id="paint0_linear_3698_16311" x1="-11.622" y1="56.5721" x2="59.6227" y2="-7.57662" gradientUnits="userSpaceOnUse">
<stop stop-color="#B0084D"/>
<stop offset="1" stop-color="#FF4F8B"/>
</linearGradient>
<clipPath id="clip0_3698_16311">
<rect width="48" height="48" fill="white" transform="translate(0 0.5)"/>
</clipPath>
</defs>
</svg>
