<svg width="48" height="48" viewBox="0 0 48 48" fill="none" xmlns="http://www.w3.org/2000/svg">
<g clip-path="url(#clip0_1031_1998)">
<path d="M31.932 15.6529L36.1044 11.4805L36.3816 9.72442C28.7795 2.80994 16.694 3.59491 9.83873 11.3599C7.9345 13.516 6.52325 16.2052 5.77002 18.9832L7.26378 18.7716L15.6085 17.3964L16.2518 16.7383C19.9629 12.6612 26.2405 12.1132 30.525 15.581L31.932 15.6529Z" fill="#EA4335"/>
<path d="M42.0496 18.8582C41.0912 15.327 39.1214 12.1511 36.3835 9.72217L30.5269 15.5787C33.0003 17.5993 34.4073 20.6419 34.3481 23.8346V24.8735C37.2256 24.8735 39.5593 27.2072 39.5593 30.0848C39.5593 32.9623 37.2256 35.2389 34.3481 35.2389H23.9108L22.8867 36.3518V42.604L23.9108 43.5858H34.3481C41.8338 43.645 47.9506 37.6805 48.0099 30.1948C48.0458 25.6564 45.8073 21.4015 42.0496 18.8582Z" fill="#4285F4"/>
<path d="M13.4865 43.5858H23.9111V35.241H13.4865C12.748 35.241 12.0202 35.0802 11.3495 34.7734L9.87053 35.2262L5.66853 39.3986L5.30249 40.8183C7.65951 42.5977 10.5349 43.5985 13.4865 43.5858Z" fill="#34A853"/>
<path d="M13.4864 16.5162C5.99849 16.5606 -0.0336901 22.6669 0.0107419 30.1547C0.0361317 34.3356 1.98903 38.271 5.30239 40.8205L11.3494 34.7735C8.72578 33.5887 7.55996 30.5017 8.74482 27.8781C9.92967 25.2545 13.0166 24.0887 15.6403 25.2735C16.7955 25.7962 17.7222 26.7208 18.2448 27.8781L24.2918 21.8311C21.719 18.467 17.7201 16.5014 13.4864 16.5162Z" fill="#FBBC05"/>
</g>
<defs>
<clipPath id="clip0_1031_1998">
<rect width="48" height="48" fill="white"/>
</clipPath>
</defs>
</svg>
