<svg width="48" height="48" viewBox="0 0 48 48" fill="none" xmlns="http://www.w3.org/2000/svg">
<path fill-rule="evenodd" clip-rule="evenodd" d="M5.36253 33.1476C4.88594 32.3969 4.87874 31.4407 5.34397 30.6827L22.8608 2.14826C23.8351 0.561193 26.1877 0.699963 26.9681 2.39052L42.9706 37.0562C43.5643 38.3425 42.8809 39.8558 41.5223 40.2629L16.6293 47.7206C15.6277 48.0206 14.5486 47.6185 13.9887 46.7366L5.36253 33.1476ZM24.8819 10.4915C25.0507 9.65209 26.2024 9.53105 26.5426 10.317L37.5808 35.8241C37.7885 36.3043 37.53 36.8582 37.028 37.0077L19.8288 42.1349C19.1966 42.3233 18.5911 41.7717 18.721 41.1257L24.8819 10.4915Z" fill="#16BD77"/>
</svg>
