<svg width="48" height="48" viewBox="0 0 48 48" fill="none" xmlns="http://www.w3.org/2000/svg">
<path d="M2.13011 26.9507C2.08674 26.9507 2.04337 26.9507 2 26.9507V43.787C2 45.0019 2.99754 46 4.21193 46H21.5387C21.3869 35.4773 12.7344 26.9507 2.13011 26.9507Z" fill="#721274"/>
<path d="M2.13011 13.0652C2.08674 13.0652 2.04337 13.0652 2 13.0652V20.2249C16.2908 20.29 27.9142 31.789 28.066 46.0001H35.4825C35.3524 27.8186 20.4327 13.0652 2.13011 13.0652Z" fill="#721274"/>
<path d="M46 43.8086V28.5996C40.9689 16.2761 30.8418 6.55621 18.2208 2H4.21193C2.99754 2 2 2.99803 2 4.21302V6.33925C23.9892 6.40434 41.8797 24.1302 42.0099 46H43.7881C45.0025 46 46 45.0236 46 43.8086Z" fill="#721274"/>
<path d="M40.2099 8.14003C42.2483 10.1795 44.3301 12.7613 45.9999 15.0394V4.19132C45.9999 2.97633 45.0241 2 43.8097 2H32.6416C35.2222 3.80079 37.9112 5.86193 40.2099 8.14003Z" fill="#721274"/>
</svg>
