<svg width="48" height="48" viewBox="0 0 48 48" fill="none" xmlns="http://www.w3.org/2000/svg">
<path fill-rule="evenodd" clip-rule="evenodd" d="M39.0731 29.6644C40.747 29.4611 44.439 29.023 45.096 29.8678C45.7531 30.697 44.3607 34.1856 43.735 35.7343C43.5473 36.2037 43.954 36.3914 44.3764 36.0316C47.1297 33.7163 47.8494 28.8822 47.2862 28.1783C46.723 27.4899 41.889 26.8955 38.9479 28.9605C38.4942 29.289 38.5724 29.727 39.0731 29.6644ZM23.8983 38.1281C30.328 38.1281 37.8059 36.11 42.9528 32.3085C43.7976 31.6828 43.0623 30.7285 42.2019 31.1196C36.4292 33.56 30.1559 34.749 24.4459 34.749C15.9824 34.749 7.8006 32.418 1.16753 28.5696C0.588695 28.2254 0.150662 28.8199 0.635627 29.2579C6.76809 34.7959 14.8874 38.1281 23.8983 38.1281Z" fill="#FF9900"/>
<path d="M13.6827 20.2156C13.6827 20.7944 13.7453 21.2637 13.8548 21.6079C13.98 21.9521 14.1364 22.3275 14.3554 22.7343C14.4336 22.8594 14.4649 22.9846 14.4649 23.0941C14.4649 23.2505 14.3711 23.407 14.1677 23.5634L13.1821 24.2204C13.0413 24.3143 12.9005 24.3612 12.7754 24.3612C12.6189 24.3612 12.4625 24.283 12.306 24.1422C12.087 23.9076 11.8993 23.6573 11.7429 23.407C11.5864 23.141 11.43 22.8438 11.2579 22.484C10.0377 23.9232 8.50454 24.6428 6.65854 24.6428C5.34444 24.6428 4.29629 24.2674 3.52973 23.5165C2.76317 22.7655 2.37207 21.7643 2.37207 20.5128C2.37207 19.1831 2.84139 18.1036 3.79568 17.2901C4.74997 16.4766 6.01713 16.0699 7.62847 16.0699C8.16037 16.0699 8.70791 16.1168 9.28674 16.195C9.86557 16.2733 10.46 16.3984 11.0858 16.5392V15.3972C11.0858 14.2082 10.8355 13.3791 10.3505 12.8941C9.84993 12.4092 9.00515 12.1745 7.80056 12.1745C7.25301 12.1745 6.68983 12.2371 6.111 12.3779C5.53217 12.5187 4.96898 12.6908 4.42144 12.9098C4.17114 13.0193 3.98341 13.0819 3.8739 13.1132C3.76439 13.1445 3.68617 13.1601 3.62359 13.1601C3.40458 13.1601 3.29507 13.0037 3.29507 12.6751V11.9086C3.29507 11.6583 3.32636 11.4705 3.40458 11.361C3.4828 11.2515 3.62359 11.142 3.84261 11.0325C4.39015 10.7509 5.0472 10.5163 5.81376 10.3285C6.58032 10.1252 7.39381 10.0313 8.25423 10.0313C10.1159 10.0313 11.4769 10.4537 12.353 11.2985C13.2134 12.1432 13.6514 13.426 13.6514 15.1469V20.2156H13.6827ZM7.33123 22.5935C7.84749 22.5935 8.37939 22.4996 8.94257 22.3119C9.50576 22.1241 10.0064 21.78 10.4288 21.3106C10.6791 21.0134 10.8668 20.6849 10.9607 20.3094C11.0545 19.934 11.1171 19.4803 11.1171 18.9484V18.2913C10.6634 18.1818 10.1785 18.088 9.67784 18.0254C9.17723 17.9628 8.69227 17.9315 8.2073 17.9315C7.15915 17.9315 6.39259 18.1349 5.87634 18.5573C5.36008 18.9797 5.10978 19.5742 5.10978 20.3564C5.10978 21.0916 5.29751 21.6392 5.68861 22.0146C6.06407 22.4057 6.61161 22.5935 7.33123 22.5935ZM19.8934 24.283C19.6118 24.283 19.4241 24.2361 19.2989 24.1266C19.1738 24.0327 19.0643 23.8137 18.9704 23.5165L15.2941 11.4236C15.2002 11.1107 15.1533 10.9074 15.1533 10.7978C15.1533 10.5475 15.2784 10.4067 15.5287 10.4067H17.0618C17.3591 10.4067 17.5624 10.4537 17.672 10.5632C17.7971 10.6571 17.891 10.8761 17.9848 11.1733L20.613 21.5297L23.0535 11.1733C23.1317 10.8604 23.2256 10.6571 23.3507 10.5632C23.4759 10.4693 23.6949 10.4067 23.9765 10.4067H25.228C25.5253 10.4067 25.7286 10.4537 25.8538 10.5632C25.9789 10.6571 26.0884 10.8761 26.151 11.1733L28.6228 21.6548L31.3292 11.1733C31.4231 10.8604 31.5326 10.6571 31.6421 10.5632C31.7672 10.4693 31.9706 10.4067 32.2522 10.4067H33.7071C33.9574 10.4067 34.0982 10.5319 34.0982 10.7978C34.0982 10.8761 34.0826 10.9543 34.0669 11.0482C34.0513 11.142 34.02 11.2672 33.9574 11.4393L30.1872 23.5321C30.0933 23.845 29.9838 24.0484 29.8587 24.1422C29.7335 24.2361 29.5301 24.2987 29.2642 24.2987H27.9188C27.6216 24.2987 27.4182 24.2517 27.293 24.1422C27.1679 24.0327 27.0584 23.8293 26.9958 23.5165L24.571 13.426L22.1618 23.5008C22.0836 23.8137 21.9897 24.0171 21.8646 24.1266C21.7394 24.2361 21.5204 24.283 21.2388 24.283H19.8934ZM39.996 24.7054C39.1825 24.7054 38.369 24.6115 37.5868 24.4238C36.8046 24.2361 36.1945 24.0327 35.7878 23.7981C35.5375 23.6573 35.3654 23.5008 35.3028 23.36C35.2402 23.2192 35.2089 23.0628 35.2089 22.922V22.1241C35.2089 21.7956 35.3341 21.6392 35.5687 21.6392C35.6626 21.6392 35.7565 21.6548 35.8503 21.6861C35.9442 21.7174 36.085 21.78 36.2414 21.8425C36.7733 22.0772 37.3522 22.2649 37.9623 22.3901C38.588 22.5152 39.1982 22.5778 39.8239 22.5778C40.8095 22.5778 41.5761 22.4057 42.108 22.0616C42.6399 21.7174 42.9214 21.2168 42.9214 20.5754C42.9214 20.1373 42.7807 19.7775 42.4991 19.4803C42.2175 19.1831 41.6856 18.9171 40.919 18.6668L38.6506 17.9628C37.5086 17.603 36.6638 17.0711 36.1476 16.3671C35.6313 15.6788 35.3654 14.9122 35.3654 14.0987C35.3654 13.4417 35.5062 12.8629 35.7878 12.3623C36.0694 11.8616 36.4448 11.4236 36.9141 11.0794C37.3835 10.7196 37.9154 10.4537 38.5411 10.2659C39.1669 10.0782 39.8239 10 40.5123 10C40.8564 10 41.2162 10.0156 41.5604 10.0626C41.9202 10.1095 42.2488 10.1721 42.5773 10.2347C42.8902 10.3129 43.1874 10.3911 43.469 10.485C43.7506 10.5788 43.9696 10.6727 44.126 10.7666C44.3451 10.8917 44.5015 11.0169 44.5954 11.1577C44.6892 11.2828 44.7362 11.4549 44.7362 11.6739V12.4092C44.7362 12.7377 44.611 12.9098 44.3763 12.9098C44.2512 12.9098 44.0478 12.8472 43.7819 12.7221C42.8902 12.3153 41.8889 12.1119 40.7782 12.1119C39.8865 12.1119 39.1825 12.2527 38.6976 12.55C38.2126 12.8472 37.9623 13.3009 37.9623 13.9423C37.9623 14.3803 38.1187 14.7558 38.4316 15.053C38.7445 15.3503 39.3233 15.6475 40.1525 15.9135L42.3739 16.6174C43.5003 16.9772 44.3138 17.4779 44.7987 18.1193C45.2837 18.7607 45.5184 19.4959 45.5184 20.3094C45.5184 20.9821 45.3776 21.5922 45.1116 22.1241C44.83 22.656 44.4546 23.1254 43.9696 23.5008C43.4846 23.8919 42.9058 24.1735 42.2331 24.3769C41.5291 24.5959 40.7939 24.7054 39.996 24.7054Z" fill="#252F3E"/>
</svg>
