<svg width="48" height="48" viewBox="0 0 48 48" fill="none" xmlns="http://www.w3.org/2000/svg">
<path d="M21.0113 21.2557C28.2309 25.417 35.4281 29.5661 42.6273 33.7152C41.6425 34.6102 40.3458 34.6327 38.8187 33.758C35.7849 32.0188 32.7531 30.2715 29.7254 28.5242C26.5794 26.7076 23.4131 24.9216 20.3017 23.0458C19.2823 22.4301 18.4199 22.1671 17.4331 23.2884C24.6568 27.4518 31.8947 31.6233 39.255 35.8641C37.4751 36.8999 35.7624 37.9071 34.0376 38.898C31.5644 40.319 29.0464 41.6667 26.6181 43.1612C24.8586 44.2439 23.2642 44.2581 21.4741 43.2122C15.0843 39.475 8.65576 35.803 2.22722 32.1289C0.728653 31.2726 -0.0277654 30.0758 0.000778733 28.3203C0.0476726 25.4333 0.00281753 22.5442 0.0150507 19.6572C0.0293228 16.5092 2.77771 14.8924 5.51998 16.4113C6.203 16.7906 6.92884 17.1209 7.53846 17.5959C8.54566 18.3829 9.41829 18.3258 10.3419 17.337C8.63741 16.3563 6.94311 15.3817 5.14279 14.346C6.41097 13.6222 7.6139 13.5896 8.82702 14.2298C9.6079 14.6396 10.4214 15.027 11.1105 15.5652C12.132 16.3645 12.9924 16.2258 13.9181 15.3022C12.183 14.3032 10.4601 13.3082 8.66187 12.2725C11.4572 10.6597 14.2178 9.06533 16.9764 7.47298C18.6217 6.52287 20.2732 5.57683 21.9124 4.61449C23.2989 3.80099 24.6751 3.79487 26.0636 4.59818C32.6756 8.42309 39.2836 12.2541 45.9058 16.0627C47.3432 16.8905 48.016 18.0812 47.9997 19.7367C47.9691 22.6584 48.0017 25.5801 47.9875 28.5018C47.9732 31.5581 45.1718 33.2748 42.5356 31.7762C36.2783 28.2184 30.0455 24.6178 23.829 20.9906C22.8095 20.3973 21.943 20.0691 21.0113 21.2557ZM34.0824 25.0908C35.5973 25.9695 37.0775 26.8462 38.5781 27.6883C39.4732 28.1919 40.9779 27.2968 40.9921 26.2591C41.0105 24.7992 40.984 23.3374 41.0044 21.8775C41.0105 21.4188 40.8637 21.1354 40.4518 20.8989C35.212 17.8895 29.9802 14.8679 24.7546 11.8341C24.2225 11.5242 23.7841 11.5262 23.2499 11.8361C18.0549 14.8537 12.8517 17.861 7.6404 20.8479C7.15923 21.1232 6.99 21.4433 7.00224 21.9836C7.03486 23.3761 7.03894 24.7686 7.0002 26.1612C6.98389 26.7504 7.19797 27.0828 7.70361 27.3723C12.9476 30.3755 18.1772 33.4012 23.409 36.4228C23.7454 36.6165 24.039 36.7551 24.4406 36.5186C26.3409 35.3952 28.2533 34.2942 30.1678 33.1973C30.6102 32.9424 30.7244 32.7549 30.1882 32.4572C28.8222 31.7008 27.4643 30.9281 26.1247 30.1268C25.666 29.8515 25.2806 29.9045 24.9116 30.2043C24.2877 30.7099 23.7372 30.6181 23.0664 30.2206C20.1162 28.4712 17.1354 26.779 14.1688 25.0602C13.6632 24.7666 13.1739 24.4465 12.5663 24.0714C16.3463 21.8837 19.9592 19.7999 23.5599 17.6979C23.9595 17.4634 24.249 17.5857 24.5874 17.7815C27.7008 19.5859 30.8202 21.378 33.9315 23.1865C35.3078 23.9857 35.3017 23.998 34.0824 25.0908Z" fill="#27475D"/>
<path d="M34.0824 25.0908C35.3017 24.0001 35.3078 23.9878 33.9295 23.1866C30.8182 21.3801 27.6988 19.588 24.5854 17.7815C24.247 17.5858 23.9574 17.4635 23.5578 17.6979C19.9572 19.8 16.3443 21.8837 12.5643 24.0714C13.1739 24.4486 13.6632 24.7687 14.1668 25.0603C17.1334 26.779 20.1162 28.4733 23.0644 30.2206C23.7352 30.6182 24.2877 30.71 24.9096 30.2043C25.2786 29.9046 25.664 29.8516 26.1227 30.1268C27.4622 30.9302 28.8201 31.7008 30.1862 32.4573C30.7224 32.7549 30.6082 32.9425 30.1658 33.1974C28.2513 34.2943 26.3388 35.3953 24.4386 36.5187C24.039 36.7552 23.7454 36.6165 23.4069 36.4228C18.1752 33.3992 12.9435 30.3756 7.70158 27.3723C7.19595 27.0828 6.98187 26.7505 6.99818 26.1613C7.03692 24.7687 7.03284 23.3762 7.00022 21.9836C6.98798 21.4433 7.15721 21.1232 7.63838 20.848C12.8518 17.859 18.0529 14.8537 23.2479 11.8362C23.7801 11.5263 24.2205 11.5263 24.7526 11.8342C29.9782 14.868 35.2099 17.8896 40.4498 20.8989C40.8617 21.1355 41.0084 21.4189 41.0023 21.8776C40.9819 23.3374 41.0084 24.7993 40.9901 26.2591C40.9758 27.2969 39.4711 28.192 38.5761 27.6884C37.0775 26.8443 35.5973 25.9676 34.0824 25.0908Z" fill="#38C1E3"/>
</svg>
