<svg width="48" height="48" viewBox="0 0 48 48" fill="none" xmlns="http://www.w3.org/2000/svg">
<path d="M28 29.84H16.2C14.48 29.84 13.48 30.9 13.48 32.42C13.48 33.78 14.4 34.74 15.72 34.74C17.26 34.74 18.14 33.68 18.22 32.16H21.64C21.46 35.88 19.14 37.86 15.68 37.86C12.44 37.86 10.02 35.66 10.02 32.38C10.02 28.96 12.56 26.58 16.38 26.58H28.06C32 26.58 35 23.68 35 19.78C35 15.84 32.32 13.06 28.5 13.06C24.72 13.06 21.66 15.82 21.66 20.92V24.26H18.2V20.92C18.2 14.16 22.54 9.78 28.56 9.78C34.3 9.78 38.48 13.9 38.48 19.74C38.52 25.58 34.04 29.84 28 29.84ZM24 48C37.42 48 48 37.38 48 24C48 10.62 37.42 0 24 0C10.58 0 0 10.66 0 24C0 37.38 10.58 48 24 48Z" fill="#169CEE"/>
</svg>
