<svg width="48" height="48" viewBox="0 0 48 48" fill="none" xmlns="http://www.w3.org/2000/svg">
<path fill-rule="evenodd" clip-rule="evenodd" d="M39.539 34.0601L35.5482 31.4278L32.219 36.9888L28.3469 35.8567L24.9376 41.0603L25.1124 42.6983L43.6491 39.2828L42.5724 27.7008L39.539 34.0601ZM22.252 29.0666L25.2261 28.6576C25.7073 28.8739 26.0423 28.9562 26.6193 29.103C27.5178 29.3372 28.5581 29.5618 30.0986 28.7854C30.4572 28.6078 31.2039 27.9249 31.5058 27.5356L43.6911 25.3251L44.9342 40.3696L24.0587 44.1318L22.252 29.0666ZM44.8871 23.6456L43.6844 23.8747L41.3736 0.000488281L2 4.56605L6.8507 43.9296L11.4594 43.2607C11.0913 42.7353 10.5183 42.0994 9.53962 41.2855C8.18227 40.1578 8.66236 38.2425 9.46287 37.0331C10.5222 34.9895 15.9801 32.3924 15.6709 29.126C15.56 27.9384 15.3712 26.3922 14.2688 25.3329C14.2273 25.7727 14.3018 26.1962 14.3018 26.1962C14.3018 26.1962 13.8492 25.6186 13.6234 24.831C13.3993 24.529 13.2234 24.4327 12.9854 24.0293C12.8156 24.496 12.838 25.0371 12.838 25.0371C12.838 25.0371 12.4677 24.1621 12.4078 23.4238C12.1882 23.7543 12.1327 24.3823 12.1327 24.3823C12.1327 24.3823 11.6515 23.0031 11.7613 22.2603C11.5417 21.6138 10.8908 20.331 11.0751 17.4152C12.2767 18.2571 14.9219 18.0571 15.9527 16.5379C16.295 16.0348 16.5291 14.6613 15.7818 11.955C15.3017 10.2195 14.113 7.63534 13.6497 6.655L13.5943 6.69478C13.8385 7.48465 14.3421 9.14057 14.5354 9.94333C15.1202 12.3785 15.2771 13.226 15.0026 14.3487C14.769 15.3245 14.2088 15.9631 12.7887 16.6768C11.3686 17.3928 9.48416 15.6506 9.36484 15.5542C7.98509 14.4551 6.91792 12.6619 6.7986 11.7908C6.6748 10.8374 7.34815 10.2649 7.68762 9.48509C7.20194 9.62402 6.66023 9.8705 6.66023 9.8705C6.66023 9.8705 7.30669 9.20163 8.10385 8.62296C8.4338 8.40448 8.62762 8.26555 8.9755 7.97649C8.47189 7.96809 8.06295 7.98266 8.06295 7.98266C8.06295 7.98266 8.90268 7.5289 9.77322 7.19839C9.13628 7.17038 8.52679 7.19391 8.52679 7.19391C8.52679 7.19391 10.4006 6.35586 11.8807 5.74077C12.8985 5.32343 13.8929 5.44667 14.4514 6.25447C15.1847 7.31267 15.9549 7.88742 17.5873 8.2437C18.5895 7.79947 18.8943 7.57092 20.1536 7.22808C21.2622 6.0091 22.1327 5.85113 22.1327 5.85113C22.1327 5.85113 21.7008 6.24718 21.5854 6.86956C22.2139 6.37435 22.903 5.96093 22.903 5.96093C22.903 5.96093 22.6363 6.29032 22.3876 6.81354L22.4453 6.89925C23.1786 6.4595 24.0407 6.11274 24.0407 6.11274C24.0407 6.11274 23.7942 6.4242 23.5052 6.82754C24.0581 6.82306 25.1796 6.85107 25.6149 6.90037C28.1845 6.95695 28.7178 4.15599 29.7037 3.80475C30.9384 3.36388 31.4902 3.09723 33.5942 5.16377C35.3997 6.9379 36.8103 10.1136 36.1101 10.8251C35.523 11.4155 34.3645 10.5948 33.0805 8.99436C32.4021 8.14679 31.889 7.14517 31.6487 5.87186C31.4459 4.79741 30.6566 4.17391 30.6566 4.17391C30.6566 4.17391 31.1148 5.19234 31.1148 6.09201C31.1148 6.5833 31.1764 8.42017 31.9641 9.45092C31.8862 9.60161 31.8498 10.1965 31.7635 10.3103C30.8471 9.20275 28.8791 8.41008 28.5581 8.17648C29.6443 9.06663 32.1411 11.1113 33.1001 13.0709C34.0071 14.924 33.4727 16.6225 33.9315 17.0622C34.062 17.1883 35.8821 19.4559 36.2322 20.5954C36.8428 22.5812 36.2686 24.668 35.4692 25.9626L33.2368 26.3104C32.9102 26.2197 32.6901 26.1743 32.3971 26.0046C32.5584 25.7189 32.8794 25.0063 32.8828 24.8595L32.7567 24.6383C32.0621 25.6225 30.898 26.5782 29.9311 27.1272C28.6657 27.8442 27.2069 27.7339 26.2574 27.4398C23.5623 26.6085 21.014 24.7873 20.3995 24.3089C20.3995 24.3089 20.3804 24.6909 20.4964 24.7766C21.1759 25.543 22.7327 26.9295 24.2374 27.8958L21.0297 28.2487L22.5461 40.0564C21.8739 40.1528 21.7692 40.1998 21.0331 40.3046C20.3844 38.0128 19.1435 36.5166 17.7873 35.6449C16.5913 34.8763 14.9415 34.7032 13.3624 35.0158L13.261 35.1335C14.3589 35.0192 15.6552 35.1783 16.9868 36.0214C18.2937 36.8476 19.3469 38.982 19.7345 40.267C20.2309 41.9095 20.5743 43.6663 19.2382 45.5284C18.2876 46.8521 15.5124 47.5837 13.2705 46.0012C13.8693 46.9641 14.6788 47.7518 15.7684 47.9002C17.3862 48.1198 18.9217 47.8392 19.9788 46.7541C20.8813 45.8264 21.3597 43.8864 21.2336 41.8434L22.6615 41.6362L23.1769 45.3032L46.8159 42.4568L44.8871 23.6456ZM30.5053 13.6871C30.4392 13.8378 30.3356 13.9364 30.4913 14.4265L30.5009 14.4545L30.5255 14.5179L30.5905 14.6646C30.8711 15.2383 31.1793 15.7794 31.6941 16.0556C31.8274 16.0332 31.9652 16.018 32.108 16.0108C32.5915 15.9895 32.8968 16.0662 33.0906 16.1704C33.108 16.0741 33.1119 15.9329 33.1013 15.7251C33.0637 14.9985 33.2452 13.7627 31.8487 13.1123C31.3215 12.8675 30.5821 12.9432 30.3356 13.2485C30.3804 13.2541 30.4208 13.2636 30.4521 13.2742C30.8247 13.4047 30.572 13.533 30.5053 13.6871ZM34.4194 20.4665C34.2362 20.3657 33.3802 20.4055 32.7786 20.4772C31.6324 20.6122 30.395 21.0099 30.1238 21.2217C29.6309 21.6026 29.855 22.267 30.2191 22.5398C31.2403 23.3028 32.1355 23.8142 33.0805 23.6899C33.6609 23.6137 34.1724 22.695 34.5348 21.8614C34.783 21.2872 34.783 20.6676 34.4194 20.4665ZM24.2721 14.5868C24.5953 14.2798 22.6621 13.8764 21.1619 14.8993C20.0555 15.6539 20.0202 17.2718 21.0796 18.1888C21.1854 18.2795 21.2728 18.344 21.3546 18.3966C21.6638 18.251 22.0162 18.1036 22.4218 17.972C23.1069 17.7496 23.6766 17.6348 24.1449 17.5737C24.369 17.3233 24.6295 16.8824 24.5645 16.0841C24.476 15.0013 23.6553 15.1733 24.2721 14.5868Z" fill="#632CA6"/>
</svg>
