<svg width="48" height="48" viewBox="0 0 48 48" fill="none" xmlns="http://www.w3.org/2000/svg">
<rect x="2.75" y="2.75" width="19.5" height="19.5" rx="3.25" stroke="#03020D" stroke-width="1.5" stroke-linecap="round" stroke-linejoin="round"/>
<rect x="25.75" y="2.75" width="19.5" height="19.5" rx="3.25" stroke="#03020D" stroke-width="1.5" stroke-linecap="round" stroke-linejoin="round"/>
<path d="M29.9481 7.49224C30.1526 7.26986 30.4707 7.19198 30.7549 7.29466L41.2549 11.0886C41.5421 11.1924 41.7377 11.46 41.7495 11.7651C41.7612 12.0703 41.5867 12.3521 41.3083 12.4777L37.1768 14.3408L35.7938 18.2502C35.6919 18.5381 35.4256 18.7355 35.1205 18.7493C34.8153 18.763 34.5324 18.5903 34.405 18.3127L29.8183 8.31271C29.6923 8.03805 29.7435 7.71462 29.9481 7.49224Z" fill="#FF5416"/>
<rect x="2.75" y="25.75" width="42.5" height="19.5" rx="3.25" stroke="#03020D" stroke-width="1.5" stroke-linecap="round" stroke-linejoin="round"/>
<path fill-rule="evenodd" clip-rule="evenodd" d="M29.25 35.5C29.25 32.6005 31.6005 30.25 34.5 30.25C37.3995 30.25 39.75 32.6005 39.75 35.5C39.75 38.3995 37.3995 40.75 34.5 40.75C31.6005 40.75 29.25 38.3995 29.25 35.5Z" fill="#FF5416"/>
<path d="M28 31.1115C27.6784 31.0385 27.3437 31 27 31C24.5147 31 22.5 33.0147 22.5 35.5C22.5 37.9853 24.5147 40 27 40C27.3437 40 27.6784 39.9615 28 39.8885" stroke="#03020D" stroke-width="1.5" stroke-linecap="round" stroke-linejoin="round"/>
<path d="M22.75 32.3875C21.9309 31.5324 20.7776 31 19.5 31C17.0147 31 15 33.0147 15 35.5C15 37.9853 17.0147 40 19.5 40C20.7776 40 21.9309 39.4676 22.75 38.6125" stroke="#03020D" stroke-width="1.5" stroke-linecap="round" stroke-linejoin="round"/>
<path d="M15.75 32.3875C14.9309 31.5324 13.7776 31 12.5 31C10.0147 31 8 33.0147 8 35.5C8 37.9853 10.0147 40 12.5 40C13.7776 40 14.9309 39.4676 15.75 38.6125" stroke="#03020D" stroke-width="1.5" stroke-linecap="round" stroke-linejoin="round"/>
<path fill-rule="evenodd" clip-rule="evenodd" d="M5.76866 16.3256C5.764 16.9367 5.75935 17.4785 5.75585 17.8675L5.75004 18.4926C5.74806 18.6928 5.8262 18.8855 5.96706 19.0277C6.10792 19.17 6.30069 19.25 6.50089 19.25H12.5186C16.2385 19.25 19.25 16.2257 19.25 12.5C19.25 8.77428 16.2385 5.75 12.5186 5.75C8.79881 5.75 5.78728 8.77428 5.78728 12.5C5.78728 13.6054 5.77798 15.103 5.76866 16.3256ZM9.25 11.5C9.25 11.0858 9.58579 10.75 10 10.75H15C15.4142 10.75 15.75 11.0858 15.75 11.5C15.75 11.9142 15.4142 12.25 15 12.25H10C9.58579 12.25 9.25 11.9142 9.25 11.5ZM9.25 14C9.25 13.5858 9.58579 13.25 10 13.25H13C13.4142 13.25 13.75 13.5858 13.75 14C13.75 14.4142 13.4142 14.75 13 14.75H10C9.58579 14.75 9.25 14.4142 9.25 14Z" fill="#FF5416"/>
</svg>
