<svg width="40" height="41" viewBox="0 0 40 41" fill="none" xmlns="http://www.w3.org/2000/svg">
<path d="M7.26623 4.43305C7.97895 3.72034 8.96323 3.20833 9.99984 3.20833H24.039C25.0894 3.20833 26.0928 3.62576 26.8347 4.36765L32.7999 10.3329C33.5416 11.0746 33.9582 12.074 33.9582 13.1247V33.8333C33.9582 34.8699 33.4462 35.8542 32.7334 36.5669C32.0207 37.2797 31.0364 37.7917 29.9998 37.7917H9.99984C8.96323 37.7917 7.97895 37.2797 7.26623 36.5669C6.55351 35.8542 6.0415 34.8699 6.0415 33.8333V7.16666C6.0415 6.13006 6.55351 5.14577 7.26623 4.43305Z" stroke="#03020D" stroke-width="1.5" stroke-linecap="round"/>
<path fill-rule="evenodd" clip-rule="evenodd" d="M19.9997 14.875C20.2418 14.875 20.4621 15.0148 20.5652 15.2338L22.4213 19.1767L26.7448 19.7236C26.985 19.7539 27.186 19.9203 27.2608 20.1505C27.3356 20.3807 27.2707 20.6334 27.0943 20.7992L23.9179 23.7829L24.7339 28.0637C24.7792 28.3015 24.6831 28.5441 24.4873 28.6864C24.2914 28.8287 24.0311 28.8451 23.8189 28.7285L19.9997 26.6296L16.1805 28.7285C15.9683 28.8451 15.7079 28.8287 15.5121 28.6864C15.3163 28.5441 15.2202 28.3015 15.2655 28.0637L16.0814 23.7829L12.9051 20.7992C12.7287 20.6334 12.6638 20.3807 12.7386 20.1505C12.8134 19.9203 13.0144 19.7539 13.2546 19.7236L17.5781 19.1767L19.4342 15.2338C19.5373 15.0148 19.7576 14.875 19.9997 14.875Z" fill="#FF5416"/>
<path d="M24.2056 3.41666L24.2056 8.83138C24.1666 10.0833 24.6977 10.8572 25.4034 11.5769C26.109 12.2966 27.0882 12.8183 28.1248 12.8285L33.7499 12.8285" stroke="#03020D" stroke-width="1.5" stroke-linecap="round"/>
</svg>
