<svg width="48" height="49" viewBox="0 0 48 49" fill="none" xmlns="http://www.w3.org/2000/svg">
<rect x="20.0017" y="20.4221" width="8" height="8" rx="4" fill="#FF5416"/>
<path d="M40.8406 24.4241L32.4194 24.4241" stroke="#C6CED9" stroke-width="1.5" stroke-linecap="round"/>
<path d="M15.5 24.4241L7.15819 24.4241" stroke="#C6CED9" stroke-width="1.5" stroke-linecap="round"/>
<path d="M24.0045 41.2668L24.0045 32.8457" stroke="#C6CED9" stroke-width="1.5" stroke-linecap="round"/>
<path d="M23.9998 16.0022L23.9998 7.58104" stroke="#C6CED9" stroke-width="1.5" stroke-linecap="round"/>
<path d="M15.5827 39.012L19.7933 31.719" stroke="#C6CED9" stroke-width="1.5" stroke-linecap="round"/>
<path d="M28.2109 17.1292L32.4215 9.83621" stroke="#C6CED9" stroke-width="1.5" stroke-linecap="round"/>
<path d="M9.41687 32.8469L16.7098 28.6363" stroke="#C6CED9" stroke-width="1.5" stroke-linecap="round"/>
<path d="M31.2944 20.2112L38.5873 16.0006" stroke="#C6CED9" stroke-width="1.5" stroke-linecap="round"/>
<path d="M32.4259 38.8518L28.2153 31.5589" stroke="#C6CED9" stroke-width="1.5" stroke-linecap="round"/>
<path d="M19.7895 16.9749L15.5789 9.68191" stroke="#C6CED9" stroke-width="1.5" stroke-linecap="round"/>
<path d="M38.5898 32.6858L31.2969 28.4752" stroke="#C6CED9" stroke-width="1.5" stroke-linecap="round"/>
<path d="M16.7079 20.0579L9.41495 15.8473" stroke="#C6CED9" stroke-width="1.5" stroke-linecap="round"/>
<rect x="21.4734" y="0.423096" width="5.05268" height="5.05268" rx="2.52634" fill="#FF5416"/>
<rect x="21.4732" y="43.3704" width="5.05268" height="5.05268" rx="2.52634" fill="#FF5416"/>
<rect x="48" y="21.8967" width="5.05268" height="5.05268" rx="2.52634" transform="rotate(90 48 21.8967)" fill="#FF5416"/>
<rect x="5.05267" y="21.8967" width="5.05268" height="5.05268" rx="2.52634" transform="rotate(90 5.05267 21.8967)" fill="#FF5416"/>
<rect x="33.8155" y="2.37524" width="5.05268" height="5.05268" rx="2.52634" transform="rotate(30 33.8155 2.37524)" fill="#FF5416"/>
<rect x="12.3418" y="39.5686" width="5.05268" height="5.05268" rx="2.52634" transform="rotate(30 12.3418 39.5686)" fill="#FF5416"/>
<rect x="46.0453" y="34.2356" width="5.05268" height="5.05268" rx="2.52634" transform="rotate(120 46.0453 34.2356)" fill="#FF5416"/>
<rect x="8.84961" y="12.761" width="5.05268" height="5.05268" rx="2.52634" transform="rotate(120 8.84961 12.761)" fill="#FF5416"/>
<rect x="43.5234" y="10.2375" width="5.05268" height="5.05268" rx="2.52634" transform="rotate(60 43.5234 10.2375)" fill="#FF5416"/>
<rect x="6.3324" y="31.7112" width="5.05268" height="5.05268" rx="2.52634" transform="rotate(60 6.3324 31.7112)" fill="#FF5416"/>
<rect x="38.1843" y="43.9446" width="5.05268" height="5.05268" rx="2.52634" transform="rotate(150 38.1843 43.9446)" fill="#FF5416"/>
<rect x="16.7106" y="6.75024" width="5.05268" height="5.05268" rx="2.52634" transform="rotate(150 16.7106 6.75024)" fill="#FF5416"/>
</svg>
