<svg width="49" height="49" viewBox="0 0 49 49" fill="none" xmlns="http://www.w3.org/2000/svg">
<path fill-rule="evenodd" clip-rule="evenodd" d="M25.1208 20.7753C25.8874 20.0422 26.3471 19.0496 26.4081 17.9956H25.5806C25.5077 18.8095 25.1687 19.5775 24.615 20.1829C24.1093 20.6841 23.3277 20.912 22.3162 20.912C21.8439 20.9229 21.3759 20.8209 20.9517 20.6147C20.5276 20.4085 20.1598 20.1041 19.8794 19.7272C19.2297 18.8091 18.9062 17.7031 18.9599 16.5829V15.1703C18.9599 13.8032 19.2357 12.7096 19.8794 11.9349C20.1659 11.5533 20.5414 11.2462 20.9738 11.0399C21.4062 10.8336 21.8826 10.7341 22.3622 10.7501C24.2472 10.7501 25.3047 11.7071 25.5346 13.6665H26.5001C26.4653 12.6288 26.0193 11.6464 25.2587 10.9324C24.4493 10.2272 23.392 9.867 22.3162 9.92989C21.4902 9.92437 20.6787 10.1452 19.9714 10.5679C19.2778 11.0065 18.7332 11.6415 18.4081 12.3906C18.0271 13.2357 17.8387 14.1537 17.8564 15.0792V16.5829C17.8387 17.5084 18.0271 18.4264 18.4081 19.2715C18.7114 20.0117 19.2342 20.6432 19.9074 21.0826C20.5805 21.522 21.3724 21.7485 22.1783 21.7322C23.2452 21.7884 24.2948 21.4471 25.1208 20.7753ZM29.5665 16.9483V21.5507H28.601V10.1585H32.509C33.5394 10.1088 34.5527 10.4328 35.3596 11.0699C35.7136 11.3835 35.9933 11.7708 36.1785 12.2041C36.3637 12.6374 36.4499 13.106 36.4308 13.5762C36.4636 14.0425 36.3896 14.5101 36.2144 14.9441C36.0393 15.378 35.7675 15.7672 35.4193 16.0825C34.5925 16.7113 33.5625 17.0192 32.5228 16.9483H29.5665ZM29.5665 16.0825H32.509C33.2912 16.1386 34.0651 15.8938 34.6699 15.399C34.9244 15.1609 35.1225 14.8699 35.2497 14.5468C35.3769 14.2237 35.4301 13.8766 35.4055 13.5306C35.4216 13.1787 35.3645 12.8273 35.238 12.4981C35.1115 12.1689 34.9181 11.8689 34.6699 11.6167C34.0852 11.1141 33.3282 10.8532 32.555 10.8876H29.5665V16.0825ZM38.3022 18.3599H43.5436L44.739 21.5952H45.7643L41.3965 10.1575H40.4769L36.0953 21.5952H37.1068L38.3022 18.3599ZM43.2815 17.5396H38.6379L40.9827 11.2967L43.2815 17.5396ZM2.25 25.2856C2.25 25.1476 2.36193 25.0356 2.5 25.0356H46.5C46.6381 25.0356 46.75 25.1476 46.75 25.2856C46.75 25.4237 46.6381 25.5356 46.5 25.5356H2.5C2.36193 25.5356 2.25 25.4237 2.25 25.2856ZM37.5342 39.3668C38.3009 38.6337 38.7605 37.6412 38.8216 36.5871H37.8883C37.8154 37.401 37.4764 38.169 36.9228 38.7744C36.417 39.2757 35.6354 39.5035 34.6239 39.5035C34.1516 39.5144 33.6836 39.4125 33.2594 39.2062C32.8353 39 32.4675 38.6956 32.1871 38.3187C31.5374 37.4007 31.214 36.2946 31.2676 35.1745V33.7619C31.2676 32.3948 31.5434 31.3011 32.1871 30.5265C32.4736 30.1449 32.8491 29.8378 33.2815 29.6314C33.7139 29.4251 34.1903 29.3257 34.6699 29.3417C36.5549 29.3417 37.6124 30.2986 37.8423 32.2581H38.9136C38.8788 31.2203 38.4328 30.238 37.6722 29.524C36.8628 28.8188 35.8054 28.4586 34.7296 28.5214C33.9037 28.5159 33.0922 28.7367 32.3848 29.1594C31.6913 29.598 31.1466 30.2331 30.8216 30.9822C30.4406 31.8273 30.2522 32.7452 30.2699 33.6707V35.1745C30.2522 36.1 30.4406 37.0179 30.8216 37.8631C31.1249 38.6032 31.6476 39.2348 32.3208 39.6741C32.994 40.1135 33.7859 40.34 34.5917 40.3238C35.6587 40.38 36.7083 40.0386 37.5342 39.3668ZM16.8908 37.3187C16.9035 37.0319 16.8476 36.7462 16.7277 36.4849C16.6079 36.2236 16.4275 35.994 16.2012 35.8149C15.4481 35.3128 14.6055 34.9571 13.7184 34.7668C12.7856 34.5613 11.8979 34.1909 11.0977 33.6732C10.7388 33.4389 10.4426 33.1216 10.2347 32.7487C10.0269 32.3758 9.91357 31.9585 9.90452 31.5326C9.89547 31.1067 9.99098 30.685 10.1828 30.3037C10.3747 29.9225 10.6571 29.5932 11.0058 29.3441C11.823 28.7699 12.8096 28.4814 13.8104 28.5239C14.5276 28.5019 15.239 28.6585 15.8793 28.9796C16.4627 29.2472 16.9571 29.674 17.3046 30.2099C17.6377 30.7269 17.8133 31.3281 17.8104 31.9415H16.8449C16.8594 31.5882 16.7924 31.2363 16.649 30.9125C16.5056 30.5888 16.2895 30.3017 16.0173 30.0732C15.411 29.5767 14.6423 29.3173 13.8564 29.3441C13.1046 29.3036 12.3606 29.512 11.7414 29.9365C11.4979 30.1162 11.3004 30.3499 11.1646 30.619C11.0289 30.8881 10.9587 31.185 10.9598 31.4859C10.9509 31.7576 11.0076 32.0276 11.1252 32.2733C11.2427 32.519 11.4177 32.7333 11.6357 32.8985C12.3193 33.355 13.0836 33.6797 13.8885 33.8554C14.7019 34.0514 15.4889 34.342 16.2334 34.7212C16.713 34.9876 17.1225 35.3623 17.4288 35.8149C17.7156 36.2638 17.8597 36.7876 17.8426 37.3187C17.854 37.745 17.7593 38.1676 17.5668 38.5491C17.3744 38.9306 17.0901 39.2592 16.7391 39.506C15.9046 40.0802 14.9036 40.3682 13.8885 40.3262C13.1179 40.3347 12.3529 40.1955 11.6357 39.9161C10.9979 39.6775 10.4513 39.2474 10.0724 38.6857C9.7138 38.1634 9.53629 37.5396 9.5667 36.9085H10.5322C10.5175 37.2775 10.5936 37.6445 10.7537 37.9779C10.9139 38.3113 11.1535 38.6012 11.4518 38.8224C12.1657 39.3105 13.0224 39.5508 13.8885 39.506C14.6554 39.5529 15.416 39.3444 16.0495 38.9136C16.3113 38.7379 16.5243 38.4997 16.669 38.221C16.8136 37.9423 16.8851 37.632 16.877 37.3187H16.8908ZM28.3389 35.0387C28.3562 35.9936 28.1681 36.9412 27.7871 37.8184C27.4621 38.5675 26.9175 39.2026 26.2239 39.6412C25.5166 40.0639 24.7051 40.2847 23.8791 40.2791C23.2627 40.3028 22.649 40.188 22.0837 39.9433C21.5184 39.6987 21.0162 39.3306 20.6147 38.8665C19.7872 37.9096 19.3734 36.6336 19.3734 34.9932V33.8084C19.3517 32.8545 19.5351 31.9069 19.9113 31.0287C20.2504 30.2761 20.791 29.6299 21.4745 29.1604C22.1843 28.7433 22.9942 28.5232 23.8193 28.5232C24.6445 28.5232 25.4544 28.7433 26.1642 29.1604C26.8556 29.5813 27.401 30.2013 27.7274 30.9375C28.1026 31.7862 28.3057 32.6997 28.3251 33.6261V35.0387H28.3389ZM27.3734 33.8084C27.4415 32.6514 27.1 31.5071 26.4078 30.573C26.1024 30.1893 25.7103 29.8821 25.263 29.6763C24.8158 29.4705 24.326 29.3718 23.8331 29.3882C23.3411 29.3775 22.8532 29.4787 22.4069 29.6841C21.9605 29.8894 21.5676 30.1936 21.2584 30.573C20.6147 31.3477 20.2929 32.4413 20.2929 33.8539V35.0387C20.232 36.1949 20.5728 37.3368 21.2584 38.2741C21.5676 38.6536 21.9605 38.9577 22.4069 39.1631C22.8532 39.3685 23.3411 39.4697 23.8331 39.4589C24.3266 39.4802 24.8181 39.3836 25.2661 39.1775C25.7142 38.9713 26.1057 38.6615 26.4078 38.2741C27.0702 37.3105 27.3934 36.1573 27.3274 34.9932L27.3734 33.8084ZM15.2358 10.1575H14.2703V21.5952H15.2358V10.1575ZM5.07439 18.3599H10.3158L11.5112 21.5952H12.5227L8.15485 10.1575H7.23531L2.86749 21.5952H3.87899L5.07439 18.3599ZM10.0399 17.5396H5.39623L7.74106 11.2967L10.0399 17.5396Z" fill="#C6CED9"/>
</svg>
