<svg width="48" height="49" viewBox="0 0 48 49" fill="none" xmlns="http://www.w3.org/2000/svg">
<path d="M8.71967 5.64252C9.57493 4.78726 10.7561 4.17285 12 4.17285H28.847C30.1075 4.17285 31.3116 4.67377 32.2018 5.56404L39.3601 12.7223C40.2502 13.6123 40.75 14.8117 40.75 16.0725V40.9229C40.75 42.1668 40.1356 43.3479 39.2803 44.2032C38.4251 45.0584 37.2439 45.6729 36 45.6729H12C10.7561 45.6729 9.57493 45.0584 8.71967 44.2032C7.86441 43.3479 7.25 42.1668 7.25 40.9229V8.92285C7.25 7.67893 7.86441 6.49778 8.71967 5.64252Z" stroke="#C6CED9" stroke-width="1.5" stroke-linecap="round"/>
<path fill-rule="evenodd" clip-rule="evenodd" d="M16.4167 27.3398C16.4167 22.9216 19.9985 19.3398 24.4167 19.3398C28.835 19.3398 32.4167 22.9216 32.4167 27.3398C32.4167 31.7581 28.835 35.3398 24.4167 35.3398C19.9985 35.3398 16.4167 31.7581 16.4167 27.3398Z" fill="#FF5416" stroke="#FF5416" stroke-width="1.91997"/>
<path d="M20.778 26.8967L23.6587 29.7194L28.1358 25.0742" stroke="#03020D" stroke-width="1.5" stroke-linecap="round" stroke-linejoin="round"/>
<path d="M29 4.42285C29 4.42285 29 9.46452 29 11.7562C29 14.0479 30.76 15.4229 32.52 15.4229C34.28 15.4229 40 15.4229 40 15.4229" stroke="#C6CED9" stroke-width="1.5" stroke-linecap="round"/>
</svg>
