<svg width="48" height="48" viewBox="0 0 48 48" fill="none" xmlns="http://www.w3.org/2000/svg">
<path fill-rule="evenodd" clip-rule="evenodd" d="M24 1.25L23.9975 1.25001C16.4461 1.27535 12.4266 4.6425 10.3148 8.2602C8.57927 11.2334 8.15873 14.3389 8.01664 15.6768C3.49532 16.4323 0.25 19.9901 0.25 25C0.25 27.7788 1.26046 30.1054 2.97369 31.7352C4.68241 33.3607 7.04421 34.25 9.678 34.25H12C13.7949 34.25 15.25 35.7051 15.25 37.5V41.5C15.25 41.538 15.2528 41.5754 15.2583 41.6119C14.2397 41.9279 13.5 42.8775 13.5 44C13.5 45.3807 14.6193 46.5 16 46.5C17.3807 46.5 18.5 45.3807 18.5 44C18.5 42.8775 17.7603 41.9279 16.7417 41.6119C16.7472 41.5754 16.75 41.538 16.75 41.5V37.5C16.75 34.8766 14.6234 32.75 12 32.75H9.678C7.38279 32.75 5.40559 31.9784 4.00756 30.6484C2.61404 29.3228 1.75 27.3994 1.75 25C1.75 20.5577 4.68819 17.5327 8.78309 17.0846C9.1279 17.0469 9.40186 16.7776 9.44553 16.4335C9.45537 16.356 9.46599 16.2525 9.47898 16.1258C9.59656 14.9789 9.90907 11.9307 11.6103 9.01639C13.4625 5.84333 16.999 2.77388 24.0012 2.75C29.6288 2.75057 33.8169 6.59587 35.7011 12.4871C35.7964 12.7851 36.0667 12.9926 36.3792 13.0077C39.2446 13.1467 41.7085 14.1724 43.4502 15.8757C45.1862 17.5733 46.25 19.9872 46.25 23C46.25 26.0569 45.1552 28.44 43.3835 30.0813C41.6049 31.7291 39.0895 32.6786 36.1739 32.75H36C33.3766 32.75 31.25 34.8766 31.25 37.5V41.5C31.25 41.538 31.2528 41.5754 31.2583 41.6119C30.2397 41.9279 29.5 42.8775 29.5 44C29.5 45.3807 30.6193 46.5 32 46.5C33.3807 46.5 34.5 45.3807 34.5 44C34.5 42.8775 33.7603 41.9279 32.7417 41.6119C32.7472 41.5754 32.75 41.538 32.75 41.5V37.5C32.75 35.7051 34.2051 34.25 36 34.25H36.183L36.2009 34.2498C39.4195 34.1729 42.3094 33.1213 44.403 31.1816C46.5053 29.2339 47.75 26.4402 47.75 23C47.75 19.6133 46.5441 16.8032 44.499 14.8032C42.5707 12.9175 39.9369 11.7908 36.9677 11.5435C34.8666 5.48148 30.2947 1.25 24 1.25ZM24 27.25C25.7949 27.25 27.25 25.7949 27.25 24C27.25 22.2051 25.7949 20.75 24 20.75C22.2051 20.75 20.75 22.2051 20.75 24C20.75 25.7949 22.2051 27.25 24 27.25ZM24.75 41.6145V28.6911C27.017 28.3315 28.75 26.3682 28.75 24C28.75 21.3766 26.6234 19.25 24 19.25C21.3766 19.25 19.25 21.3766 19.25 24C19.25 26.3682 20.983 28.3315 23.25 28.6911V41.6145C22.2357 41.933 21.5 42.8806 21.5 44C21.5 45.3807 22.6193 46.5 24 46.5C25.3807 46.5 26.5 45.3807 26.5 44C26.5 42.8806 25.7643 41.933 24.75 41.6145ZM16 42.5C15.1716 42.5 14.5 43.1716 14.5 44C14.5 44.8284 15.1716 45.5 16 45.5C16.8284 45.5 17.5 44.8284 17.5 44C17.5 43.1716 16.8284 42.5 16 42.5ZM30.5 44C30.5 43.1716 31.1716 42.5 32 42.5C32.8284 42.5 33.5 43.1716 33.5 44C33.5 44.8284 32.8284 45.5 32 45.5C31.1716 45.5 30.5 44.8284 30.5 44ZM24 42.5C23.1716 42.5 22.5 43.1716 22.5 44C22.5 44.8284 23.1716 45.5 24 45.5C24.8284 45.5 25.5 44.8284 25.5 44C25.5 43.1716 24.8284 42.5 24 42.5Z" fill="currentColor"/>
</svg>
