<svg width="40" height="41" viewBox="0 0 40 41" fill="none" xmlns="http://www.w3.org/2000/svg">
<path d="M30.834 31.334L35.834 31.334" stroke="#03020D" stroke-width="1.5" stroke-linecap="round"/>
<path d="M30.834 27.1673L35.834 27.1673" stroke="#03020D" stroke-width="1.5" stroke-linecap="round"/>
<path d="M4.1665 25.9179H9.1665" stroke="#03020D" stroke-width="1.5" stroke-linecap="round"/>
<path d="M30.834 23.0006L35.834 23.0006" stroke="#03020D" stroke-width="1.5" stroke-linecap="round"/>
<path d="M4.1665 21.7512H9.1665" stroke="#03020D" stroke-width="1.5" stroke-linecap="round"/>
<path d="M30.4167 18.8342C30.4167 18.8342 33.3333 18.8342 35 18.8342C36.6667 18.8342 38.3333 20.5008 38.3333 22.1675C38.3333 23.8342 38.3333 32.1675 38.3333 33.8342C38.3333 35.5008 36.6667 37.1675 35 37.1675C33.3333 37.1675 30 37.1675 30 37.1675" stroke="#03020D" stroke-width="1.5" stroke-linecap="round"/>
<path d="M4.1665 17.5846H9.1665" stroke="#03020D" stroke-width="1.5" stroke-linecap="round"/>
<path d="M9.58317 13.4179C9.58317 13.4179 6.6665 13.4179 4.99984 13.4179C3.33317 13.4179 1.6665 14.6675 1.6665 16.3342C1.6665 18.0008 1.6665 31.7508 1.6665 33.8342C1.6665 35.5008 3.33317 37.1675 4.99984 37.1679C7.08317 37.1684 9.99984 37.1683 9.99984 37.1683" stroke="#03020D" stroke-width="1.5" stroke-miterlimit="2.61313" stroke-linecap="round"/>
<path d="M21.9948 3.62604C22.843 3.392 23.6519 3.20832 24.1663 3.20834C25.2054 3.2084 26.1904 3.72762 26.9023 4.44798C27.6147 5.16881 28.1244 6.16218 28.1244 7.2061V33.7941C28.1244 34.8467 27.6156 35.8406 26.9014 36.5603C26.188 37.2793 25.2031 37.7917 24.1662 37.7917H15.8335C14.7964 37.7917 13.811 37.2794 13.0975 36.5603C12.3834 35.8406 11.8747 34.8467 11.875 33.7941V9.73528C11.875 8.70556 12.2696 7.90988 12.9623 7.27276C13.6233 6.66466 14.547 6.20895 15.5988 5.78337L15.6051 5.78081L15.6115 5.77839L15.6315 5.77084L15.6884 5.74938C15.7382 5.73064 15.8112 5.70324 15.9046 5.66842C16.0914 5.59878 16.3598 5.49943 16.687 5.38026C17.341 5.14202 18.2313 4.82405 19.175 4.50579C20.1173 4.18797 21.1193 3.86763 21.9948 3.62604Z" fill="#FF5416"/>
<path d="M16.191 24.6527C16.686 24.1302 17.434 24.0409 18.2237 24.0409H21.7763C22.566 24.0409 23.314 24.1302 23.809 24.6527C24.2926 25.1631 24.375 25.9243 24.375 26.7492V31.7492C24.375 32.5741 24.2926 33.3353 23.809 33.8457C23.314 34.3682 22.566 34.4575 21.7763 34.4575H18.2237C17.434 34.4575 16.686 34.3682 16.191 33.8457C15.7074 33.3353 15.625 32.5741 15.625 31.7492V26.7492C15.625 25.9243 15.7074 25.1631 16.191 24.6527Z" fill="white"/>
<path d="M16.6665 19.6667H23.3332" stroke="white" stroke-width="1.5" stroke-linecap="round"/>
<path d="M16.6665 15.5H23.3332" stroke="white" stroke-width="1.5" stroke-linecap="round"/>
<path d="M16.6665 11.3333H23.3332" stroke="white" stroke-width="1.5" stroke-linecap="round"/>
</svg>
