<svg width="49" height="49" viewBox="0 0 49 49" fill="none" xmlns="http://www.w3.org/2000/svg">
<path d="M26.8334 8.4231L7.71799 8.4231C4.79491 8.42282 3.33337 9.92282 3.33337 12.9228V39.9231C3.33337 42.9231 4.79491 44.4231 7.71799 44.4231H36.9488C39.8718 44.4231 41.3334 42.9231 41.3334 39.9231V21.9231" stroke="#C6CED9" stroke-width="1.5" stroke-linecap="round"/>
<path fill-rule="evenodd" clip-rule="evenodd" d="M29.5834 10.4231C29.5834 5.5906 33.5009 1.6731 38.3334 1.6731C43.1659 1.6731 47.0834 5.5906 47.0834 10.4231C47.0834 15.2556 43.1659 19.1731 38.3334 19.1731C33.5009 19.1731 29.5834 15.2556 29.5834 10.4231Z" fill="#FF5416"/>
<path d="M39.3334 6.9231V13.9231H37.9121V8.32788H37.8728L36.3334 9.33276V8.02026L37.9975 6.9231H39.3334Z" fill="#03020D"/>
<path d="M29.0862 19.4231H14.5884C13.9903 19.4231 13.4166 19.6551 12.9937 20.0677C12.5708 20.4804 12.3334 21.0397 12.3334 21.6233V30.9038C12.3334 31.4874 12.5708 32.0475 12.9937 32.4602C13.4166 32.8728 13.9903 33.1048 14.5884 33.1048H28.031L30.3832 35.2736C30.4634 35.3473 30.5638 35.3962 30.6723 35.4148C30.7807 35.4334 30.8921 35.4206 30.9932 35.378C31.0943 35.3353 31.1805 35.2652 31.241 35.1754C31.3014 35.0856 31.3335 34.9804 31.3334 34.873V21.6233C31.3334 21.0411 31.097 20.4825 30.6758 20.07C30.2546 19.6576 29.6829 19.4252 29.0862 19.4231Z" stroke="#C6CED9" stroke-width="1.5"/>
</svg>
