<svg width="48" height="48" viewBox="0 0 48 48" fill="none" xmlns="http://www.w3.org/2000/svg">
	<defs>
		<clipPath id="clip0">
			<rect width="48" height="48" fill="white" />
		</clipPath>
	</defs>
	<g clip-path="url(#clip0)">
		<path fill-rule="evenodd" clip-rule="evenodd"
			d="M7 8.75C6.30964 8.75 5.75 9.30964 5.75 10V34H17.0949C17.5138 34 17.9221 34.1315 18.2622 34.376L19.303 35.124C19.6431 35.3685 20.0514 35.5 20.4703 35.5H27.5297C27.9486 35.5 28.3569 35.3685 28.697 35.124L29.7378 34.376C30.0779 34.1315 30.4862 34 30.9051 34H42.25V10C42.25 9.30964 41.6904 8.75 41 8.75H7ZM4.25 10V34H1C0.447715 34 0 34.4477 0 35V38C0 38.5523 0.447714 39 0.999999 39H47C47.5523 39 48 38.5523 48 38V35C48 34.4477 47.5523 34 47 34H43.75V10C43.75 8.48122 42.5188 7.25 41 7.25H7C5.48122 7.25 4.25 8.48122 4.25 10ZM46.5 35.5H30.9051C30.8003 35.5 30.6983 35.5329 30.6132 35.594L29.5725 36.3421C28.9772 36.7699 28.2627 37 27.5297 37H20.4703C19.7373 37 19.0228 36.7699 18.4275 36.3421L17.3868 35.594C17.3017 35.5329 17.1997 35.5 17.0949 35.5H1.5V37.5H46.5V35.5ZM25 11C25 11.5523 24.5523 12 24 12C23.4477 12 23 11.5523 23 11C23 10.4477 23.4477 10 24 10C24.5523 10 25 10.4477 25 11Z"
			fill="currentColor" />
	</g>
</svg>