<svg width="49" height="49" viewBox="0 0 49 49" fill="none" xmlns="http://www.w3.org/2000/svg">
<path d="M42.8038 29.4229C44.6381 24.4724 44.4975 20.7393 44.4975 20.7393V6.00446C32.3864 7.44833 24.5338 1.92285 24.5338 1.92285C18.4473 5.3039 11.4322 6.68618 4.5 5.87035L4.56552 22.0583C5.43127 40.2871 24.5338 47.9229 24.5338 47.9229C26.067 47.2234 27.4825 46.4778 28.7895 45.6968" stroke="#C6CED9" stroke-width="1.5" stroke-miterlimit="10" stroke-linecap="round" stroke-linejoin="round"/>
<path d="M30.5 16.9192C30.5007 18.106 30.1494 19.2664 29.4905 20.2536C28.8317 21.2408 27.8949 22.0104 26.7986 22.4651C25.7023 22.9198 24.4957 23.0391 23.3316 22.808C22.1675 22.5769 21.0982 22.0058 20.2587 21.1668C19.4192 20.3278 18.8473 19.2587 18.6155 18.0947C18.3837 16.9308 18.5024 15.7242 18.9564 14.6276C19.4105 13.531 20.1794 12.5937 21.1662 11.9343C22.153 11.2748 23.3131 10.9229 24.4999 10.9229C26.0906 10.9229 27.6162 11.5545 28.7413 12.6789C29.8664 13.8034 30.499 15.3285 30.5 16.9192Z" stroke="#C6CED9" stroke-width="1.5" stroke-miterlimit="10" stroke-linecap="round"/>
<path d="M32.7369 27.8108C31.6079 26.6019 30.0768 25.9229 28.4802 25.9229H20.5199C18.9233 25.9229 17.3921 26.6019 16.2631 27.8108C15.1342 29.0196 14.5 30.6591 14.5 32.3686V32.9229" stroke="#C6CED9" stroke-width="1.5" stroke-miterlimit="10" stroke-linecap="round"/>
<path fill-rule="evenodd" clip-rule="evenodd" d="M28.4492 37.9225C28.4492 33.5044 32.0308 29.9229 36.4489 29.9229C40.867 29.9229 44.4485 33.5044 44.4485 37.9225C44.4485 42.3406 40.867 45.9222 36.4489 45.9222C32.0308 45.9222 28.4492 42.3406 28.4492 37.9225Z" fill="#FF5416"/>
<path d="M32.8105 37.4796L35.6912 40.3022L40.1681 35.6572" stroke="#03020D" stroke-width="1.5" stroke-linecap="round" stroke-linejoin="round"/>
</svg>
