<svg width="41" height="41" viewBox="0 0 41 41" fill="none" xmlns="http://www.w3.org/2000/svg">
<path d="M13.417 36.6259L13.417 34.1259C13.417 33.2926 14.2503 32.4592 15.0837 32.4592L20.5003 32.4592L25.0837 32.4592C25.917 32.4592 26.7503 33.2926 26.7503 34.1259L26.7503 36.6259" stroke="#03020D" stroke-width="1.5" stroke-linecap="round"/>
<path d="M21.7615 29.2077L21.7615 32.1249" stroke="#03020D" stroke-width="1.5" stroke-linecap="round"/>
<path d="M18.423 29.2074L18.49 32.1247" stroke="#03020D" stroke-width="1.5" stroke-linecap="round"/>
<path fill-rule="evenodd" clip-rule="evenodd" d="M10.0771 14.3686L10.0811 14.3819L10.1016 14.451C10.1197 14.5117 10.1466 14.6013 10.1812 14.716C10.2504 14.9453 10.3509 15.2751 10.4756 15.6759C10.725 16.4779 11.0707 17.5626 11.4562 18.6952C11.8421 19.8293 12.2656 21.0044 12.6706 21.9898C13.0873 23.0034 13.4523 23.7338 13.7082 24.0458C17.0144 28.0775 23.4651 28.2134 26.4311 24.0773C26.6818 23.7277 27.0281 22.97 27.4172 21.954C27.7972 20.9615 28.194 19.7887 28.5552 18.6616C28.916 17.5357 29.2393 16.4616 29.4726 15.6685C29.5892 15.2721 29.6831 14.9463 29.7479 14.7198C29.7803 14.6066 29.8053 14.5182 29.8223 14.4582L29.8415 14.39L29.8463 14.3728L29.8468 14.3711L29.8471 14.37L29.8475 14.3685L29.8478 14.3675L29.8481 14.3665L29.8672 14.296C29.8806 14.2465 29.9002 14.1735 29.9253 14.08C29.9754 13.893 30.0471 13.6239 30.1331 13.2959C30.3053 12.6398 30.5346 11.7493 30.7638 10.8108C30.9932 9.87125 31.2213 8.88827 31.3917 8.04573C31.5664 7.18182 31.6673 6.52554 31.6673 6.20548C31.6673 5.65119 31.3799 5.04333 30.8907 4.56086C30.4021 4.07892 29.782 3.79144 29.2112 3.79143L10.7901 3.79147C10.2193 3.79147 9.5992 4.07894 9.11056 4.56088C8.62139 5.04334 8.33398 5.65119 8.33398 6.20548C8.33398 6.51473 8.43096 7.16582 8.59854 8.02818C8.76195 8.86904 8.98069 9.85424 9.20061 10.7973C9.42033 11.7395 9.64018 12.6351 9.80518 13.2955C9.88766 13.6256 9.95637 13.8967 10.0044 14.0851C10.0285 14.1793 10.0473 14.2528 10.0602 14.3027L10.0771 14.3686Z" fill="#FF5416"/>
<path d="M6.25049 8.87566L5.17824 8.87566C3.52046 8.87566 1.89238 10.4581 2.72571 13.3748L4.51538 19.246C5.01271 20.7275 6.25604 22.209 7.91382 22.209L9.32229 22.209L10.0005 22.209" stroke="#03020D" stroke-width="1.5" stroke-linecap="round"/>
<path d="M33.7505 8.87566L35.048 8.87566C36.7057 8.87566 38.3338 10.4581 37.5005 13.3748L35.7108 19.246C35.2135 20.7275 33.9702 22.209 32.3124 22.209L30.9039 22.209L30.0005 22.209" stroke="#03020D" stroke-width="1.5" stroke-linecap="round"/>
<path fill-rule="evenodd" clip-rule="evenodd" d="M14.6538 17.5071L20.0715 7.72024L18.6097 7.7202L13.5969 16.7755L14.6538 17.5071ZM25.5652 17.5074L20.1469 7.72024L21.6087 7.72028L24.1153 12.2481L26.622 16.7759L25.5652 17.5074ZM20.1094 13.4062L25.4897 17.5649L24.3917 18.3235L20.1094 15.0147L15.8273 18.3232L14.7293 17.5646L20.1094 13.4062Z" fill="white"/>
</svg>
