<svg width="49" height="49" viewBox="0 0 49 49" fill="none" xmlns="http://www.w3.org/2000/svg">
  <defs>
    <clipPath id="clip0_3563_11119">
      <rect width="48" height="48" fill="white" transform="translate(0.5 0.922852)" />
    </clipPath>
  </defs>
  <g clip-path="url(#clip0_3563_11119)">
    <path fill-rule="evenodd" clip-rule="evenodd"
      d="M40.5 19.9229C40.5 18.266 41.8431 16.9229 43.5 16.9229C45.1569 16.9229 46.5 18.266 46.5 19.9229C46.5 21.5797 45.1569 22.9229 43.5 22.9229C41.8431 22.9229 40.5 21.5797 40.5 19.9229Z"
      fill="#C6CED9" />
    <path fill-rule="evenodd" clip-rule="evenodd"
      d="M26.5 36.9229C26.5 35.266 27.8431 33.9229 29.5 33.9229C31.1569 33.9229 32.5 35.266 32.5 36.9229C32.5 38.5797 31.1569 39.9229 29.5 39.9229C27.8431 39.9229 26.5 38.5797 26.5 36.9229Z"
      fill="#C6CED9" />
    <path fill-rule="evenodd" clip-rule="evenodd"
      d="M3.5 44.9229C3.5 43.266 4.84315 41.9229 6.5 41.9229C8.15685 41.9229 9.5 43.266 9.5 44.9229C9.5 46.5797 8.15685 47.9229 6.5 47.9229C4.84315 47.9229 3.5 46.5797 3.5 44.9229Z"
      fill="#C6CED9" />
    <path
      d="M6.5 44.9229L16.5844 31.4229M43.5 19.9229L36.7952 28.3612L29.8684 37.0797L25.3246 31.4425"
      stroke="#C6CED9" stroke-width="1.5" stroke-miterlimit="10" stroke-linecap="round"
      stroke-linejoin="round" />
    <path d="M20.5 35.9229L20.5 32.9229" stroke="#FF5416" stroke-width="1.5" stroke-miterlimit="10"
      stroke-linecap="round" stroke-linejoin="round" />
    <path d="M20.5 41.9229L20.5 38.9229" stroke="#FF5416" stroke-width="1.5" stroke-miterlimit="10"
      stroke-linecap="round" stroke-linejoin="round" />
    <path d="M20.5 47.9229L20.5 44.9229" stroke="#FF5416" stroke-width="1.5" stroke-miterlimit="10"
      stroke-linecap="round" stroke-linejoin="round" />
    <circle cx="20.5" cy="10.9229" r="8" stroke="#FF5416" stroke-width="1.5" stroke-miterlimit="10"
      stroke-linecap="round" stroke-linejoin="round" />
    <path fill-rule="evenodd" clip-rule="evenodd"
      d="M19.5 7.92285C19.5 7.37057 19.9477 6.92285 20.5 6.92285C21.0523 6.92285 21.5 7.37057 21.5 7.92285C21.5 8.47514 21.0523 8.92285 20.5 8.92285C19.9477 8.92285 19.5 8.47514 19.5 7.92285Z"
      fill="#C6CED9" />
    <path d="M20.5 14.9229L20.5 10.9229" stroke="#C6CED9" stroke-width="1.5" stroke-miterlimit="10"
      stroke-linecap="round" stroke-linejoin="round" />
    <path fill-rule="evenodd" clip-rule="evenodd"
      d="M16.5 25.9229C16.5 23.7137 18.2909 21.9229 20.5 21.9229C22.7091 21.9229 24.5 23.7137 24.5 25.9229C24.5 28.132 22.7091 29.9229 20.5 29.9229C18.2909 29.9229 16.5 28.132 16.5 25.9229Z"
      fill="#FF5416" />
  </g>
</svg>