<svg width="48" height="49" viewBox="0 0 48 49" fill="none" xmlns="http://www.w3.org/2000/svg">
<path d="M2.25 24.4231C2.25 24.8373 2.58579 25.1731 3 25.1731C3.41421 25.1731 3.75 24.8373 3.75 24.4231H2.25ZM4.51823 30.7463C4.14447 30.5678 3.69674 30.7261 3.51819 31.0998L0.60862 37.1905C0.430074 37.5643 0.588324 38.012 0.962081 38.1906C1.33584 38.3691 1.78357 38.2109 1.96211 37.8371L4.5484 32.4231L9.96238 35.0094C10.3361 35.188 10.7839 35.0297 10.9624 34.656C11.141 34.2822 10.9827 33.8345 10.6089 33.6559L4.51823 30.7463ZM44.25 24.4231C44.25 35.6069 35.1838 44.6731 24 44.6731V46.1731C36.0122 46.1731 45.75 36.4353 45.75 24.4231H44.25ZM3.75 24.4231C3.75 13.2393 12.8162 4.1731 24 4.1731V2.6731C11.9878 2.6731 2.25 12.4109 2.25 24.4231H3.75ZM24 4.1731C35.1838 4.1731 44.25 13.2393 44.25 24.4231H45.75C45.75 12.4109 36.0122 2.6731 24 2.6731V4.1731ZM24 44.6731C15.1842 44.6731 7.68232 39.0392 4.90207 31.1732L3.48781 31.673C6.47327 40.1197 14.5287 46.1731 24 46.1731V44.6731Z" fill="#FF5416"/>
<rect x="13" y="16.4231" width="22" height="16" rx="1.86335" stroke="#C6CED9" stroke-width="1.5"/>
<path d="M14 17.4231L24.3101 24.4231L34 17.4231" stroke="#C6CED9" stroke-width="1.5" stroke-linecap="round" stroke-linejoin="round"/>
</svg>
