<svg width="49" height="48" viewBox="0 0 49 48" fill="none" xmlns="http://www.w3.org/2000/svg">
  <defs>
    <clipPath id="clip0_2889_2903">
      <rect width="48" height="48" fill="white" transform="translate(0.5)" />
    </clipPath>
  </defs>
  <g clip-path="url(#clip0_2889_2903)">
    <circle cx="35.5" cy="13" r="13" fill="#FF5416" />
    <rect x="1.25" y="22.75" width="24.5" height="24.5" rx="6.25" stroke="#C6CED9"
      stroke-width="1.5" stroke-miterlimit="10" stroke-linecap="round" stroke-linejoin="round" />
    <path fill-rule="evenodd" clip-rule="evenodd"
      d="M6.77885 39.9989L13.335 28H11.5662L5.5 39.1021L6.77885 39.9989ZM19.9826 39.9989L13.4264 28H15.1952L18.2283 33.5511L21.2614 39.1021L19.9826 39.9989ZM13.3806 34.9718L19.8912 40.0704L18.5625 41.0004L13.3806 36.944L8.19881 41.0004L6.87014 40.0704L13.3806 34.9718Z"
      fill="#C6CED9" />
    <rect x="29.5" y="10" width="12" height="9" rx="0.996429" stroke="#03020D" stroke-width="1.5"
      stroke-linejoin="round" />
    <path
      d="M38.5 10V8.18182V8C38.5 6.34315 37.1569 5 35.5 5V5C33.8431 5 32.5 6.34315 32.5 8V8.18182V10"
      stroke="#03020D" stroke-width="1.5" stroke-linejoin="round" />
    <path d="M40.5 36V36C40.5 38.2091 38.7091 40 36.5 40V40" stroke="#C6CED9" stroke-width="1.5"
      stroke-miterlimit="2.61313" stroke-linecap="round" />
    <path d="M40.5 32V28.5" stroke="#C6CED9" stroke-width="1.5" stroke-linecap="round" />
    <path d="M32.5 40L29 40" stroke="#C6CED9" stroke-width="1.5" stroke-linecap="round" />
    <path d="M8.5 12V12C8.5 9.79086 10.2909 8 12.5 8V8" stroke="#C6CED9" stroke-width="1.5"
      stroke-miterlimit="2.61313" stroke-linecap="round" />
    <path d="M8.5 16L8.5 19.5" stroke="#C6CED9" stroke-width="1.5" stroke-linecap="round" />
    <path d="M16.5 8L20 8" stroke="#C6CED9" stroke-width="1.5" stroke-linecap="round" />
  </g>
</svg>