<svg width="48" height="48" viewBox="0 0 48 48" fill="none" xmlns="http://www.w3.org/2000/svg">
	<path fill-rule="evenodd" clip-rule="evenodd" d="M8 5.25C5.37665 5.25 3.25 7.37665 3.25 10V32C3.25 34.6234 5.37665 36.75 8 36.75H34.7427L41.9256 42.3367C43.0751 43.2308 44.75 42.4116 44.75 40.9554V10C44.75 7.37665 42.6234 5.25 40 5.25H8ZM4.75 10C4.75 8.20507 6.20507 6.75 8 6.75H40C41.7949 6.75 43.25 8.20508 43.25 10V40.9554C43.25 41.1634 43.0107 41.2804 42.8465 41.1527L35.2573 35.25H8C6.20507 35.25 4.75 33.7949 4.75 32V10ZM12 16.75H36V15.25H12V16.75ZM36 21.75H12V20.25H36V21.75ZM12 26.75H28V25.25H12V26.75Z" fill="currentColor" />
</svg>
