<svg width="48" height="48" viewBox="0 0 48 48" fill="none" xmlns="http://www.w3.org/2000/svg">
<path d="M7.69985 7.70029C3.40409 11.9961 3.18585 18.7426 7.21241 22.7692L11.9425 27.4993L27.4988 11.9429L22.7688 7.21285C18.7422 3.18629 11.9956 3.40453 7.69985 7.70029Z" stroke="#03020D" stroke-width="1.5" stroke-linejoin="round"/>
<path d="M45.2129 45.2131L42.3844 42.3847" stroke="#03020D" stroke-width="1.37459" stroke-linecap="round" stroke-linejoin="round"/>
<path fill-rule="evenodd" clip-rule="evenodd" d="M40.4514 40.451C35.8956 45.0068 28.6731 45.2897 24.3219 40.9385L19.5918 36.2084C19.2989 35.9155 19.2989 35.4406 19.5918 35.1477L35.1482 19.5914C35.441 19.2985 35.9159 19.2985 36.2088 19.5914L40.9389 24.3215C45.2902 28.6727 45.0073 35.8952 40.4514 40.451Z" fill="#FF5416"/>
<path d="M2.78647 2.78662L7.73622 7.73637" stroke="#03020D" stroke-width="1.37459" stroke-linecap="round" stroke-linejoin="round"/>
<path d="M23.2925 16.2217L28.2423 21.1714" stroke="#03020D" stroke-width="1.37459" stroke-linecap="round" stroke-linejoin="round"/>
<path d="M16.2215 23.2927L21.1712 28.2425" stroke="#03020D" stroke-width="1.37459" stroke-linecap="round" stroke-linejoin="round"/>
</svg>
