<svg width="48" height="48" viewBox="0 0 48 48" fill="none" xmlns="http://www.w3.org/2000/svg">
	<path fill-rule="evenodd" clip-rule="evenodd" d="M4.75 24C4.75 13.3685 13.3685 4.75 24 4.75C24.4142 4.75 24.75 4.41421 24.75 4C24.75 3.58579 24.4142 3.25 24 3.25C12.5401 3.25 3.25 12.5401 3.25 24C3.25 35.4599 12.5401 44.75 24 44.75C35.4599 44.75 44.75 35.4599 44.75 24C44.75 23.5858 44.4142 23.25 44 23.25C43.5858 23.25 43.25 23.5858 43.25 24C43.25 34.6315 34.6315 43.25 24 43.25C13.3685 43.25 4.75 34.6315 4.75 24ZM33.0947 26.36C33.0947 28.682 31.1507 30.212 28.9727 30.212C26.7947 30.212 24.8507 28.682 24.8507 26.36C24.8507 24.884 25.6247 23.75 26.8487 23.138C25.8947 22.58 25.3007 21.626 25.3007 20.402C25.3007 18.35 27.0287 17 28.9727 17C30.9167 17 32.6447 18.35 32.6447 20.402C32.6447 21.626 32.0507 22.58 31.0787 23.138C32.3027 23.75 33.0947 24.884 33.0947 26.36ZM26.3087 26.36C26.3087 27.836 27.4787 28.862 28.9727 28.862C30.4667 28.862 31.6367 27.836 31.6367 26.36C31.6367 24.884 30.4667 23.84 28.9727 23.84C27.4787 23.84 26.3087 24.884 26.3087 26.36ZM26.7587 20.402C26.7587 21.626 27.7307 22.49 28.9727 22.49C30.2147 22.49 31.1867 21.626 31.1867 20.402C31.1867 19.196 30.2147 18.35 28.9727 18.35C27.7307 18.35 26.7587 19.196 26.7587 20.402ZM20.9773 27.008V29.996H19.5193V27.008H14.3533V25.838L19.3753 17.216H21.0493L15.9733 25.64H19.5193V22.778H20.9773V25.64H23.6773V27.008H20.9773Z" fill="currentColor" />
</svg>
