<svg width="48" height="49" viewBox="0 0 48 49" fill="none" xmlns="http://www.w3.org/2000/svg">
<path d="M2.99108 30.0522C3.09828 30.4523 3.50954 30.6898 3.90963 30.5826C4.30973 30.4754 4.54717 30.0641 4.43996 29.664L2.99108 30.0522ZM18.5648 4.13849L18.3706 3.41405L18.5648 4.13849ZM41.1813 13.2729C41.5886 13.3486 41.9801 13.0799 42.0558 12.6726L43.2898 6.03641C43.3656 5.62917 43.0968 5.23766 42.6896 5.16193C42.2824 5.0862 41.8909 5.35494 41.8151 5.76218L40.7182 11.6611L34.8193 10.5641C34.4121 10.4884 34.0206 10.7571 33.9448 11.1644C33.8691 11.5716 34.1379 11.9631 34.5451 12.0389L41.1813 13.2729ZM4.43996 29.664C1.54539 18.8613 7.95619 7.75751 18.7589 4.86294L18.3706 3.41405C6.76776 6.52303 -0.117908 18.4494 2.99108 30.0522L4.43996 29.664ZM18.7589 4.86294C27.2743 2.58124 35.9787 6.08152 40.7001 12.96L41.9368 12.1111C36.8669 4.72497 27.5192 0.962708 18.3706 3.41405L18.7589 4.86294Z" fill="#C6CED9"/>
<path d="M45.0089 18.793C44.9017 18.3929 44.4905 18.1554 44.0904 18.2626C43.6903 18.3698 43.4528 18.7811 43.56 19.1812L45.0089 18.793ZM29.4352 44.7067L29.6294 45.4312L29.4352 44.7067ZM6.81867 35.5723C6.41144 35.4966 6.01992 35.7653 5.9442 36.1726L4.71016 42.8088C4.63443 43.216 4.90317 43.6076 5.3104 43.6833C5.71763 43.759 6.10915 43.4903 6.18488 43.083L7.2818 37.1842L13.1807 38.2811C13.5879 38.3568 13.9794 38.0881 14.0552 37.6808C14.1309 37.2736 13.8621 36.8821 13.4549 36.8064L6.81867 35.5723ZM43.56 19.1812C46.4546 29.9839 40.0438 41.0877 29.2411 43.9823L29.6294 45.4312C41.2322 42.3222 48.1179 30.3959 45.0089 18.793L43.56 19.1812ZM29.2411 43.9823C20.7257 46.264 12.0213 42.7637 7.2999 35.8852L6.06321 36.7341C11.1331 44.1202 20.4808 47.8825 29.6294 45.4312L29.2411 43.9823Z" fill="#C6CED9"/>
<path d="M15 25.5898L22.2 31.4231L33 17.4231" stroke="#FF5416" stroke-width="1.5" stroke-linecap="round" stroke-linejoin="round"/>
</svg>
