<svg width="48" height="49" viewBox="0 0 48 49" fill="none" xmlns="http://www.w3.org/2000/svg">
<mask id="path-1-inside-1_3563_10992" fill="white">
<path fill-rule="evenodd" clip-rule="evenodd" d="M26.8953 4.76583C25.2327 5.6389 23.2472 5.6389 21.5847 4.76583C18.6041 3.20059 14.9229 4.54089 13.6453 7.65562C12.9329 9.39227 11.4122 10.6682 9.57816 11.0677C6.28902 11.7841 4.33177 15.1799 5.35595 18.3866C5.92719 20.1751 5.58234 22.1325 4.43355 23.6176C2.37446 26.2794 3.05379 30.1373 5.8994 31.9339C7.48676 32.9361 8.47959 34.6566 8.55439 36.5324C8.68851 39.8958 11.6897 42.4165 15.0251 41.9634C16.8856 41.7106 18.7517 42.3896 20.0151 43.7784C22.2806 46.2687 26.1994 46.2687 28.4648 43.7784C29.7283 42.3896 31.5944 41.7106 33.4549 41.9634C36.7903 42.4165 39.7915 39.8958 39.9256 36.5324C40.0004 34.6566 40.9932 32.9361 42.5806 31.9339C45.4262 30.1373 46.1055 26.2794 44.0464 23.6176C42.8976 22.1325 42.5528 20.1751 43.124 18.3866C44.1482 15.1799 42.191 11.7841 38.9018 11.0677C37.0677 10.6682 35.547 9.39227 34.8347 7.65562C33.5571 4.54089 29.8758 3.20059 26.8953 4.76583ZM24 37.9229C31.1797 37.9229 37 32.1026 37 24.9229C37 17.7431 31.1797 11.9229 24 11.9229C16.8203 11.9229 11 17.7431 11 24.9229C11 32.1026 16.8203 37.9229 24 37.9229Z"/>
</mask>
<path d="M21.5847 4.76583L20.8873 6.09385V6.09385L21.5847 4.76583ZM26.8953 4.76583L26.1979 3.43781L26.8953 4.76583ZM13.6453 7.65562L12.2575 7.08637V7.08637L13.6453 7.65562ZM9.57816 11.0677L9.89738 12.5333L9.57816 11.0677ZM5.35595 18.3866L3.92706 18.8429H3.92706L5.35595 18.3866ZM4.43355 23.6176L5.62 24.5354L4.43355 23.6176ZM5.8994 31.9339L6.70019 30.6655L5.8994 31.9339ZM8.55439 36.5324L10.0532 36.4726L8.55439 36.5324ZM15.0251 41.9634L15.227 43.4497H15.227L15.0251 41.9634ZM20.0151 43.7784L18.9056 44.7878L20.0151 43.7784ZM28.4648 43.7784L29.5744 44.7878L28.4648 43.7784ZM33.4549 41.9634L33.253 43.4497H33.253L33.4549 41.9634ZM39.9256 36.5324L38.4268 36.4726V36.4726L39.9256 36.5324ZM42.5806 31.9339L43.3814 33.2023L42.5806 31.9339ZM44.0464 23.6176L45.2329 22.6998H45.2329L44.0464 23.6176ZM43.124 18.3866L41.6951 17.9302L43.124 18.3866ZM38.9018 11.0677L38.5826 12.5333L38.9018 11.0677ZM34.8347 7.65562L33.4469 8.22486L33.4469 8.22487L34.8347 7.65562ZM20.8873 6.09385C22.9865 7.19623 25.4935 7.19623 27.5927 6.09385L26.1979 3.43781C24.972 4.08157 23.508 4.08157 22.2821 3.43781L20.8873 6.09385ZM15.0331 8.22486C15.9752 5.92791 18.6899 4.93988 20.8873 6.09385L22.2821 3.43781C18.5184 1.46131 13.8705 3.15388 12.2575 7.08637L15.0331 8.22486ZM9.89738 12.5333C12.2135 12.0289 14.1336 10.4177 15.0331 8.22486L12.2575 7.08637C11.7323 8.36685 10.611 9.30757 9.25893 9.60206L9.89738 12.5333ZM6.78484 17.9302C6.02934 15.5647 7.47379 13.0612 9.89738 12.5333L9.25893 9.60206C5.10426 10.507 2.6342 14.7951 3.92706 18.8429L6.78484 17.9302ZM5.62 24.5354C7.07089 22.6598 7.50612 20.1885 6.78484 17.9302L3.92706 18.8429C4.34826 20.1617 4.09379 21.6053 3.2471 22.6998L5.62 24.5354ZM6.70019 30.6655C4.60324 29.3416 4.10192 26.4979 5.62 24.5354L3.2471 22.6998C0.647007 26.061 1.50435 30.933 5.09862 33.2023L6.70019 30.6655ZM10.0532 36.4726C9.95875 34.1042 8.70528 31.9315 6.70019 30.6655L5.09862 33.2023C6.26824 33.9407 7.00043 35.2091 7.05558 36.5922L10.0532 36.4726ZM14.8232 40.477C12.3656 40.8109 10.1521 38.9532 10.0532 36.4726L7.05558 36.5922C7.2249 40.8384 11.0137 44.0221 15.227 43.4497L14.8232 40.477ZM21.1247 42.769C19.5293 41.0153 17.1728 40.1578 14.8232 40.477L15.227 43.4497C16.5983 43.2634 17.9741 43.7639 18.9056 44.7878L21.1247 42.769ZM27.3553 42.769C25.6849 44.6052 22.7951 44.6052 21.1247 42.769L18.9056 44.7878C21.7661 47.9322 26.7139 47.9322 29.5744 44.7878L27.3553 42.769ZM33.6568 40.477C31.3072 40.1578 28.9507 41.0153 27.3553 42.769L29.5744 44.7878C30.5059 43.7639 31.8817 43.2634 33.253 43.4497L33.6568 40.477ZM38.4268 36.4726C38.3279 38.9532 36.1144 40.8109 33.6568 40.477L33.253 43.4497C37.4663 44.0221 41.2551 40.8384 41.4244 36.5922L38.4268 36.4726ZM41.7798 30.6655C39.7747 31.9315 38.5212 34.1042 38.4268 36.4726L41.4244 36.5922C41.4795 35.2091 42.2117 33.9407 43.3814 33.2023L41.7798 30.6655ZM42.86 24.5354C44.3781 26.4979 43.8767 29.3416 41.7798 30.6655L43.3814 33.2023C46.9756 30.933 47.833 26.061 45.2329 22.6998L42.86 24.5354ZM41.6951 17.9302C40.9739 20.1885 41.4091 22.6598 42.86 24.5354L45.2329 22.6998C44.3862 21.6053 44.1317 20.1617 44.5529 18.8429L41.6951 17.9302ZM38.5826 12.5333C41.0062 13.0612 42.4506 15.5647 41.6951 17.9302L44.5529 18.8429C45.8458 14.7951 43.3757 10.507 39.221 9.60206L38.5826 12.5333ZM33.4469 8.22487C34.3464 10.4177 36.2665 12.0289 38.5826 12.5333L39.221 9.60206C37.869 9.30757 36.7477 8.36685 36.2225 7.08636L33.4469 8.22487ZM27.5927 6.09385C29.7901 4.93988 32.5047 5.92791 33.4469 8.22486L36.2225 7.08637C34.6094 3.15388 29.9616 1.46131 26.1979 3.43781L27.5927 6.09385ZM35.5 24.9229C35.5 31.2741 30.3513 36.4229 24 36.4229V39.4229C32.0081 39.4229 38.5 32.931 38.5 24.9229H35.5ZM24 13.4229C30.3513 13.4229 35.5 18.5716 35.5 24.9229H38.5C38.5 16.9147 32.0081 10.4229 24 10.4229V13.4229ZM12.5 24.9229C12.5 18.5716 17.6487 13.4229 24 13.4229V10.4229C15.9919 10.4229 9.5 16.9147 9.5 24.9229H12.5ZM24 36.4229C17.6487 36.4229 12.5 31.2741 12.5 24.9229H9.5C9.5 32.931 15.9919 39.4229 24 39.4229V36.4229Z" fill="#C6CED9" mask="url(#path-1-inside-1_3563_10992)"/>
<path d="M23.1691 17.4182C23.4767 16.6795 24.5233 16.6795 24.8309 17.4182L26.2918 20.9269C26.4215 21.2384 26.7145 21.4511 27.0508 21.4781L30.8411 21.7816C31.6394 21.8455 31.9629 22.8419 31.3544 23.3625L28.4681 25.8322C28.2114 26.0518 28.0993 26.3966 28.1778 26.7251L29.0599 30.4189C29.2458 31.1974 28.399 31.8131 27.7157 31.3962L24.4687 29.4152C24.1809 29.2396 23.8191 29.2396 23.5313 29.4152L20.2843 31.3962C19.601 31.8131 18.7542 31.1974 18.9401 30.4189L19.8222 26.7251C19.9007 26.3966 19.7886 26.0518 19.5319 25.8322L16.6456 23.3625C16.0371 22.8419 16.3606 21.8455 17.1589 21.7816L20.9492 21.4781C21.2855 21.4511 21.5785 21.2384 21.7082 20.9269L23.1691 17.4182Z" fill="#FF5416"/>
</svg>
