<svg xmlns="http://www.w3.org/2000/svg" width="31" height="24" viewBox="0 0 31 24" fill="none">
    <path d="M24.9547 0.647949C28.2381 3.33766 30.3333 7.42387 30.3333 11.9995C30.3333 16.5753 28.2378 20.6618 24.954 23.3515M6.37678 0.649486C3.09446 3.33922 1 7.42475 1 11.9995C1 16.5757 3.09584 20.6624 6.38001 23.3521" stroke="currentColor" stroke-linecap="round"/>
    <path d="M20.8193 4.21606C23.339 5.88737 25.0002 8.74944 25.0002 11.9995C25.0002 15.2493 23.3392 18.1112 20.8199 19.7825M10.5131 4.21686C7.99417 5.88828 6.3335 8.74995 6.3335 11.9995C6.3335 15.249 7.99417 18.1107 10.5131 19.7821" stroke="currentColor" stroke-linecap="round"/>
    <circle cx="15.6668" cy="11.9996" r="3.33333" fill="currentColor"/>
</svg>