<svg width="40" height="41" viewBox="0 0 40 41" fill="none" xmlns="http://www.w3.org/2000/svg">
<path d="M20 35.5V20.9167" stroke="#03020D" stroke-width="1.5" stroke-linecap="round" stroke-linejoin="round"/>
<path d="M32.5 16.75L20 20.9167L21.875 23.8333L23.75 26.75L30 24.6667L36.25 22.5833L32.5 16.75Z" stroke="#03020D" stroke-width="1.5" stroke-linecap="round" stroke-linejoin="round"/>
<path d="M16.25 26.75L20 20.9167L7.5 16.75L3.75 22.5833L16.25 26.75Z" stroke="#03020D" stroke-width="1.5" stroke-linecap="round" stroke-linejoin="round"/>
<path d="M7.5 23.8333C7.5 23.8333 7.5 30.0833 7.5 30.9167C7.5 31.75 7.91667 32.5833 8.75 32.9583C9.40384 33.2526 18.0859 35.7929 18.75 35.972C19.4141 36.151 20.5729 36.1901 21.25 35.972C21.9271 35.7539 30.5962 33.2526 31.25 32.9583C32.0833 32.5833 32.5 31.75 32.5 30.9167C32.5 30.0833 32.5 23.8333 32.5 23.8333" stroke="#03020D" stroke-width="1.5" stroke-linecap="round" stroke-linejoin="round"/>
<path d="M32.5 16.7501L30 15.9167" stroke="#03020D" stroke-width="1.5" stroke-linecap="round" stroke-linejoin="round"/>
<path d="M7.5 16.7501L10 15.9167" stroke="#03020D" stroke-width="1.5" stroke-linecap="round" stroke-linejoin="round"/>
<path d="M32.2462 8.49792L31.9413 9.10764L31.3316 9.41251L29.9899 10.0833L31.3316 10.7541L31.9413 11.059L32.2462 11.6687L32.917 13.0104L33.5878 11.6687L33.8927 11.059L34.5024 10.7541L35.844 10.0833L34.5024 9.41251L33.8927 9.10764L33.5878 8.49792L32.917 7.15628L32.2462 8.49792Z" stroke="#03020D" stroke-width="1.5" stroke-linecap="round"/>
<path d="M6.41219 5.99792L6.10732 6.60764L5.4976 6.91251L4.15596 7.58333L5.4976 8.25415L6.10732 8.55901L6.41219 9.16874L7.08301 10.5104L7.75383 9.16874L8.05869 8.55901L8.66842 8.25415L10.0101 7.58333L8.66842 6.91251L8.05869 6.60764L7.75383 5.99792L7.08301 4.65628L6.41219 5.99792Z" stroke="#03020D" stroke-width="1.5" stroke-linecap="round"/>
<path fill-rule="evenodd" clip-rule="evenodd" d="M27.6392 11.6806H26.7364C26.5975 11.0556 26.3198 10.4306 25.9725 9.87499L26.5975 9.24999C26.8753 8.97222 26.8753 8.55555 26.5975 8.27777L25.1392 6.81944C24.8614 6.54166 24.4448 6.54166 24.167 6.81944L23.542 7.44444C22.9864 7.09722 22.3614 6.88888 21.7364 6.68055V5.77777C21.7364 5.43055 21.3892 5.08333 21.042 5.08333H18.9587C18.6114 5.08333 18.2642 5.43055 18.2642 5.77777V6.68055C17.6392 6.88888 17.0142 7.09722 16.4587 7.44444L15.8337 6.81944C15.5559 6.54166 15.1392 6.54166 14.8614 6.81944L13.4031 8.27777C13.1253 8.55555 13.1253 8.97222 13.4031 9.24999L14.0281 9.87499C13.6809 10.4306 13.4725 11.0556 13.2642 11.6806H12.3614C12.0142 11.6806 11.667 12.0278 11.667 12.375V14.4583C11.667 14.8055 12.0142 15.1528 12.3614 15.1528H13.2642C13.4031 15.7778 13.6809 16.4028 14.0281 16.9583L20.0003 18.8333L25.9725 16.9583C26.3198 16.4028 26.5281 15.7778 26.7364 15.1528H27.6392C27.9864 15.1528 28.3337 14.8055 28.3337 14.4583V12.375C28.3337 12.0278 27.9864 11.6806 27.6392 11.6806ZM20.0003 15.9167C21.381 15.9167 22.5003 14.7974 22.5003 13.4167C22.5003 12.0359 21.381 10.9167 20.0003 10.9167C18.6196 10.9167 17.5003 12.0359 17.5003 13.4167C17.5003 14.7974 18.6196 15.9167 20.0003 15.9167Z" fill="#FF5416"/>
</svg>
