<svg width="48" height="48" viewBox="0 0 48 48" fill="none" xmlns="http://www.w3.org/2000/svg">
  <defs>
    <clipPath id="clip0_2961_1570">
      <rect width="48" height="48" fill="white" />
    </clipPath>
  </defs>
  <g clip-path="url(#clip0_2961_1570)">
    <path fill-rule="evenodd" clip-rule="evenodd"
      d="M23.0933 11.9155C23.6524 12.271 24.6181 12.8956 25.1758 13.3167C25.1078 12.983 25.0053 12.567 24.8986 12.1343L24.8986 12.1342L24.8986 12.1342C24.7465 11.5174 24.5861 10.8666 24.5053 10.3711C24.7514 10.1301 25.0985 9.8546 25.4837 9.54895C25.9071 9.21299 26.3764 8.84055 26.8081 8.43728C25.9342 8.31361 23.8403 8.22929 23.8403 8.22929C23.8403 8.22929 23.2846 7.06876 22.8782 6.24613C22.9611 6.05319 23.0414 5.87496 23.1154 5.7271C23.1154 5.20308 23.0947 4.45742 23.0748 3.73844C23.0563 3.06909 23.0384 2.42286 23.0384 2.00007C16.2785 1.97758 6.05625 7.6384 4.22614 13.3386C4.71498 13.3026 5.18728 13.1422 5.6001 12.872C7.1383 12.125 8.58922 11.2028 9.92533 10.1231C10.9993 9.22105 12.222 8.52239 13.5361 8.06001C16.284 7.23366 18.2076 8.29049 19.0539 11.0731C19.2847 12.0007 19.5705 12.917 19.9168 13.8052C20.1383 14.4807 20.56 15.0689 21.1234 15.488C21.5837 15.8304 22.1199 16.0461 22.6807 16.1176V16.6159C24.9175 16.2899 26.5662 15.2218 27.3631 12.9957C27.4621 12.7428 27.5775 12.501 27.7094 12.2649C28.9459 9.80273 30.5892 9.2462 33.0623 10.4548C34.3478 11.1585 35.587 11.9472 36.772 12.8158C39.1527 14.4822 41.8964 15.5264 44.763 15.8571C45.3562 15.9257 45.957 15.8533 46.5184 15.6456C47.0799 15.438 47.5869 15.1005 48 14.6597C47.4922 14.5709 47.0147 14.531 46.5547 14.4926C46.0538 14.4508 45.5738 14.4108 45.0982 14.3111C41.5363 13.5376 38.1964 11.9353 35.3376 9.62846C34.1285 8.56038 32.6282 7.8858 31.0344 7.68343C28.9294 7.49792 27.6379 8.26244 26.874 10.23C26.72 10.6739 26.5945 11.131 26.4685 11.5901L26.4685 11.5902C26.3472 12.0321 26.2254 12.4758 26.0771 12.9114C25.5551 14.4199 24.6452 15.5078 23.0672 15.787C23.0891 14.4972 23.0927 12.8056 23.0933 11.9155ZM22.7414 11.6932C22.6882 11.6599 22.6587 11.6415 22.6587 11.6415V6.77226C22.6158 6.8774 22.573 6.98282 22.531 7.08647C22.316 7.61685 22.1198 8.10081 22.0107 8.26239H19.0649L21.4831 10.2299L20.7302 12.9619C20.9379 12.8373 21.2095 12.6614 21.5065 12.4691C21.9035 12.2121 22.3458 11.9258 22.7414 11.6932ZM22.5061 32.6561L22.5064 32.6563L22.5064 32.6563C22.6937 32.7933 22.8807 32.93 23.0663 33.0681C23.0211 33.1124 22.9768 33.1579 22.9337 33.2046V34.565C23.5637 35.0462 24.169 35.5603 24.7473 36.1052C25.6871 37.0834 25.6706 37.8142 24.7473 38.7811C24.3241 39.2195 23.8735 39.6412 23.4283 40.0571L22.9392 40.5181V41.8673C22.2412 42.272 21.4113 42.9578 21.4113 43.846C21.4113 44.633 21.9554 45.3132 22.4445 45.9147C22.6314 46.1396 22.8018 46.3588 22.9392 46.5612V46.7186L22.9831 46.6399L22.997 46.6595L23.0106 46.6792C23.9996 46.1869 24.8295 45.4142 25.4013 44.4531C26.1048 43.0703 25.2419 42.0865 24.3241 41.2039C24.7638 40.6137 25.2639 40.074 25.808 39.5737C27.1875 37.9491 27.16 36.7967 25.7146 35.1889C25.5937 35.054 25.4563 34.9304 25.3189 34.8067L25.3189 34.8067C25.0135 34.567 24.7607 34.2644 24.5769 33.9185C25.187 33.2271 25.863 32.6031 26.5939 32.0409C26.864 31.8396 27.0894 31.5822 27.2555 31.2856C27.4216 30.989 27.5247 30.6599 27.5579 30.3197C27.5911 29.9796 27.5537 29.6361 27.4482 29.3118C27.3427 28.9875 27.1714 28.6896 26.9456 28.4376C26.5372 27.9018 26.022 27.4611 25.4343 27.1446L25.2694 27.0547L25.2657 27.0529C25.0469 26.9466 24.8131 26.833 24.7913 26.4082L25.863 25.8236C26.4914 25.4841 27.1162 25.1374 27.737 24.7836C30.2981 23.2546 30.8807 21.5344 29.809 18.7799C29.9738 18.6956 30.1552 18.6843 30.3366 18.6787L30.363 18.6774C30.5744 18.6668 30.7901 18.656 30.9906 18.5157C30.9906 18.3823 30.9208 18.26 30.8449 18.1269L30.8422 18.1222C30.6938 17.8692 30.5289 17.5769 30.8312 17.0991C31.4597 17.2342 32.0652 17.4634 32.6283 17.7793L32.643 17.7865C33.4517 18.1833 34.2774 18.5885 35.2334 18.5438C35.1802 18.2063 34.9621 18.0059 34.7487 17.8098L34.7278 17.7905L34.7261 17.789C34.5068 17.5928 34.2935 17.4018 34.2496 17.0878C34.7589 17.1878 35.2442 17.3518 35.7279 17.5153L35.8269 17.5488L35.8367 17.5522C36.8226 17.8939 37.7871 18.2283 38.9046 18.0154C38.7125 17.7534 38.4582 17.5709 38.2072 17.3907L38.1846 17.3745L38.1679 17.3622C37.8218 17.1078 37.4784 16.8555 37.3053 16.3908C37.8329 16.4863 38.344 16.61 38.8551 16.7337L38.8551 16.7337L38.8694 16.7371C40.3208 17.0901 41.7404 17.4353 43.3947 17.1103L42.301 16.6718L42.195 16.6298C41.5283 16.3658 40.9243 16.1265 40.35 15.8061C37.8439 14.6481 35.4147 13.3327 33.0735 11.8599C31.106 10.5388 29.5507 11.0504 28.4845 13.1697C28.1767 13.7712 27.8799 14.3727 27.6051 14.991C26.7148 16.981 25.0386 17.5544 23.1535 17.6837L23.0766 17.5938C23.0216 17.5375 22.9941 17.5094 22.9941 17.4813L22.8622 16.9754C20.576 16.6212 18.7074 14.9404 18.0644 12.6862C17.9709 12.4276 17.8555 12.1859 17.7126 11.961C17.3351 11.1483 16.6589 10.5209 15.8314 10.2156C15.0038 9.91028 14.0918 9.95169 13.294 10.3308C12.3816 10.7018 11.5188 11.174 10.7109 11.7362C9.08446 12.9928 7.31916 14.0494 5.45139 14.8842C4.83703 15.1236 4.21834 15.3497 3.56078 15.59L3.30801 15.6825L2.73095 15.8961C-0.302759 23.9741 0.609551 31.4507 5.79763 38.3426C9.71617 43.5256 17.1905 46.6118 22.8897 46.7804C21.9664 46.1902 20.576 45.0715 20.2627 43.9809C19.9714 42.9522 20.5375 42.2889 21.197 41.5187C21.3783 41.3051 21.5652 41.0802 21.7466 40.8441C21.131 40.3832 20.543 39.8829 19.9934 39.3432C18.7294 37.9266 18.7513 36.9035 19.9384 35.3913C20.0978 35.1889 20.2847 35.0147 20.4715 34.8404C20.7988 34.5686 21.0761 34.2392 21.2904 33.8679C20.9826 33.317 20.4935 32.9685 20.0044 32.6312C19.7296 32.4401 19.4548 32.2433 19.2185 32.0184C18.9601 31.806 18.7469 31.5417 18.5921 31.2418C18.4373 30.9419 18.3442 30.6128 18.3185 30.2747C18.2927 29.9366 18.3349 29.5967 18.4424 29.2759C18.55 28.9551 18.7206 28.6603 18.9437 28.4095C19.4039 27.8423 19.9773 27.3823 20.6254 27.0603L20.6503 27.0479C20.8685 26.9396 21.0966 26.8264 21.0596 26.4419C20.6749 26.0878 20.2242 25.8123 19.7406 25.6325C18.6106 25.101 17.5567 24.4145 16.608 23.5919C15.1351 22.209 15.0801 19.6568 16.4815 18.7124C17.1845 18.2655 18.019 18.0864 18.8382 18.2067C19.6575 18.327 20.409 18.739 20.9607 19.3701C21.3016 19.8422 21.7156 20.2542 22.1862 20.59C22.5709 20.8205 22.8073 21.2421 22.8073 21.6974C22.0049 22.9566 21.208 22.9791 20.4111 21.7593C20.3396 21.6581 20.2792 21.5569 20.2132 21.4445L20.2016 21.4256C19.9418 21.0047 19.6838 20.5869 19.1965 20.3764C18.5755 20.1009 17.9544 20.0054 17.4928 20.6012C17.2942 20.8504 17.1904 21.1646 17.2005 21.4859C17.2106 21.8072 17.3339 22.1139 17.5477 22.3495C17.7807 22.6297 18.0486 22.8773 18.3446 23.0859C19.2811 23.7733 20.2894 24.3521 21.3509 24.8117C21.9805 25.0153 22.5171 25.4445 22.8622 26.0203L22.92 27.1038C22.7444 27.2146 22.5689 27.3293 22.3923 27.4446L22.3923 27.4446L22.3922 27.4447C21.9882 27.7087 21.5791 27.9759 21.1529 28.208C19.5536 29.0625 19.4766 30.3104 20.9165 31.4403C21.4339 31.8718 21.9714 32.265 22.5061 32.6561ZM22.9831 46.6399C22.9689 46.6134 22.9542 46.5872 22.9392 46.5612L22.9172 44.6218C22.9062 43.7504 22.8952 42.8173 22.8952 41.9235C23.5602 42.2439 24.2911 42.6711 24.4285 43.4694C24.6201 44.6168 23.9235 45.4689 23.3912 46.1199L23.3843 46.1283C23.225 46.3138 23.0876 46.4881 22.9831 46.6399ZM24.2197 32.1815C23.8349 32.4423 23.4502 32.7031 23.1149 33.0212V27.4023C23.6443 27.806 24.205 28.1654 24.7913 28.4769C25.1337 28.6169 25.4331 28.8482 25.6583 29.1468C25.8836 29.4454 26.0263 29.8003 26.0718 30.1746C25.7608 31.1344 25.0004 31.6511 24.2366 32.17L24.2197 32.1815ZM22.6477 40.6032L22.6532 40.609H22.6587L22.6477 40.6539V40.6032ZM22.6477 40.6032C22.4433 40.3876 22.2347 40.1754 22.0259 39.963L22.0253 39.9624C21.6972 39.6285 21.3684 39.2941 21.0539 38.945C20.1196 37.9107 20.1196 37.0337 21.0539 35.9937C21.383 35.6306 21.7495 35.3133 22.1164 34.9956C22.2948 34.8411 22.4733 34.6865 22.6477 34.5265V40.6032ZM22.9941 18.8192C23.6768 18.626 24.3948 18.6029 25.088 18.7518C24.9042 19.234 24.6254 19.6725 24.269 20.04C23.9126 20.4074 23.4861 20.6961 23.0161 20.8879C22.8689 20.2074 22.8614 19.5029 22.9941 18.8192ZM25.154 24.4407C26.1284 24.0081 27.0401 23.4407 27.8634 22.7543C28.6713 22.0122 28.8087 21.0678 28.1932 20.5282C27.8397 20.2924 27.4096 20.2086 26.996 20.2949C26.5825 20.3812 26.2189 20.6306 25.9839 20.9891C25.8277 21.2002 25.6828 21.4198 25.5497 21.6468C25.3189 22.0403 25.088 22.4226 24.6319 22.6137C24.2527 22.7711 23.9119 22.6587 23.5547 22.5406C23.3623 22.4732 23.17 22.4114 22.9612 22.3889V25.6381C23.6551 25.1734 24.3891 24.7745 25.154 24.4463V24.4407Z"
      fill="currentColor" />
  </g>
</svg>